G75*
G70*
%OFA0B0*%
%FSLAX24Y24*%
%IPPOS*%
%LPD*%
%AMOC8*
5,1,8,0,0,1.08239X$1,22.5*
%
%ADD10C,0.0060*%
%ADD11C,0.0051*%
%ADD12C,0.0110*%
%ADD13C,0.0150*%
%ADD14C,0.0827*%
%ADD15OC8,0.1000*%
%ADD16C,0.1000*%
%ADD17C,0.0832*%
%ADD18C,0.1000*%
%ADD19C,0.1969*%
%ADD20OC8,0.0912*%
%ADD21C,0.0906*%
%ADD22OC8,0.0832*%
%ADD23C,0.0832*%
%ADD24C,0.0906*%
%ADD25C,0.0182*%
%ADD26C,0.0982*%
%ADD27C,0.0984*%
%ADD28C,0.0866*%
%ADD29R,0.0551X0.0709*%
%ADD30C,0.0100*%
%ADD31R,0.0982X0.0982*%
%ADD32R,0.0982X0.0982*%
%ADD33C,0.2080*%
%ADD34C,0.0952*%
%ADD35C,0.1500*%
%ADD36C,0.0912*%
%ADD37C,0.1181*%
%ADD38C,0.1222*%
%ADD39C,0.1181*%
%ADD40C,0.0984*%
%ADD41C,0.1102*%
%ADD42R,0.1102X0.1102*%
%ADD43C,0.0912*%
%ADD44R,0.0832X0.0832*%
%ADD45C,0.1575*%
%ADD46R,0.0472X0.0709*%
%ADD47C,0.0500*%
%ADD48C,0.0240*%
%ADD49C,0.0320*%
%ADD50C,0.0160*%
%ADD51C,0.0120*%
%ADD52OC8,0.0827*%
%ADD53R,0.1500X0.1500*%
D10*
X111930Y036180D02*
X111930Y036821D01*
X112357Y036821D01*
X112144Y036500D02*
X111930Y036500D01*
X112575Y036287D02*
X112681Y036394D01*
X113002Y036394D01*
X113002Y036500D02*
X113002Y036180D01*
X112681Y036180D01*
X112575Y036287D01*
X112681Y036607D02*
X112895Y036607D01*
X113002Y036500D01*
X113219Y036607D02*
X113539Y036607D01*
X113646Y036500D01*
X113646Y036180D01*
X113219Y036180D02*
X113219Y036607D01*
X117930Y036607D02*
X118037Y036500D01*
X118250Y036500D01*
X118357Y036394D01*
X118357Y036287D01*
X118250Y036180D01*
X118037Y036180D01*
X117930Y036287D01*
X117930Y036607D02*
X117930Y036714D01*
X118037Y036821D01*
X118250Y036821D01*
X118357Y036714D01*
X118575Y036607D02*
X118895Y036607D01*
X119002Y036500D01*
X119002Y036287D01*
X118895Y036180D01*
X118575Y036180D01*
X118575Y035966D02*
X118575Y036607D01*
X119219Y036500D02*
X119326Y036607D01*
X119539Y036607D01*
X119646Y036500D01*
X119646Y036394D01*
X119219Y036394D01*
X119219Y036500D02*
X119219Y036287D01*
X119326Y036180D01*
X119539Y036180D01*
X119864Y036287D02*
X119864Y036500D01*
X119970Y036607D01*
X120184Y036607D01*
X120291Y036500D01*
X120291Y036394D01*
X119864Y036394D01*
X119864Y036287D02*
X119970Y036180D01*
X120184Y036180D01*
X120508Y036287D02*
X120508Y036500D01*
X120615Y036607D01*
X120935Y036607D01*
X120935Y036821D02*
X120935Y036180D01*
X120615Y036180D01*
X120508Y036287D01*
X124555Y036368D02*
X124555Y037008D01*
X124875Y037008D01*
X124982Y036901D01*
X124982Y036688D01*
X124875Y036581D01*
X124555Y036581D01*
X125200Y036581D02*
X125413Y036795D01*
X125520Y036795D01*
X125737Y036688D02*
X125843Y036795D01*
X126057Y036795D01*
X126164Y036688D01*
X126164Y036581D01*
X125737Y036581D01*
X125737Y036474D02*
X125737Y036688D01*
X125737Y036474D02*
X125843Y036368D01*
X126057Y036368D01*
X126381Y036368D02*
X126381Y037008D01*
X126488Y036795D02*
X126701Y036795D01*
X126808Y036688D01*
X126808Y036368D01*
X126381Y036688D02*
X126488Y036795D01*
X125200Y036795D02*
X125200Y036368D01*
X130868Y036599D02*
X130974Y036493D01*
X131188Y036493D01*
X131295Y036599D01*
X131295Y036706D01*
X131188Y036813D01*
X130974Y036813D01*
X130868Y036920D01*
X130868Y037026D01*
X130974Y037133D01*
X131188Y037133D01*
X131295Y037026D01*
X131512Y036920D02*
X131832Y036920D01*
X131939Y036813D01*
X131939Y036599D01*
X131832Y036493D01*
X131512Y036493D01*
X131512Y036279D02*
X131512Y036920D01*
X131743Y036321D02*
X131743Y035680D01*
X132170Y035680D01*
X132387Y035680D02*
X132814Y036107D01*
X133032Y036107D02*
X133245Y036107D01*
X133138Y036214D02*
X133138Y035787D01*
X133245Y035680D01*
X132814Y035680D02*
X132387Y036107D01*
X132170Y036321D02*
X131743Y036321D01*
X131743Y036000D02*
X131956Y036000D01*
X132263Y036493D02*
X132157Y036599D01*
X132157Y036813D01*
X132263Y036920D01*
X132477Y036920D01*
X132584Y036813D01*
X132584Y036706D01*
X132157Y036706D01*
X132263Y036493D02*
X132477Y036493D01*
X132801Y036599D02*
X132801Y036813D01*
X132908Y036920D01*
X133121Y036920D01*
X133228Y036813D01*
X133228Y036706D01*
X132801Y036706D01*
X132801Y036599D02*
X132908Y036493D01*
X133121Y036493D01*
X133446Y036599D02*
X133446Y036813D01*
X133552Y036920D01*
X133873Y036920D01*
X133873Y037133D02*
X133873Y036493D01*
X133552Y036493D01*
X133446Y036599D01*
X132394Y042537D02*
X132394Y042964D01*
X132607Y042750D02*
X132180Y042750D01*
X126232Y042875D02*
X125805Y042875D01*
X119607Y042875D02*
X119180Y042875D01*
X119394Y042662D02*
X119394Y043089D01*
X113107Y042875D02*
X112680Y042875D01*
X130555Y030089D02*
X130555Y029982D01*
X130662Y029875D01*
X130875Y029875D01*
X130982Y029769D01*
X130982Y029662D01*
X130875Y029555D01*
X130662Y029555D01*
X130555Y029662D01*
X130555Y030089D02*
X130662Y030196D01*
X130875Y030196D01*
X130982Y030089D01*
X131200Y029875D02*
X131200Y029662D01*
X131306Y029555D01*
X131520Y029555D01*
X131627Y029662D01*
X131627Y029875D01*
X131520Y029982D01*
X131306Y029982D01*
X131200Y029875D01*
X131844Y029555D02*
X132058Y029555D01*
X131951Y029555D02*
X131951Y030196D01*
X131844Y030196D01*
X132274Y029875D02*
X132274Y029662D01*
X132381Y029555D01*
X132701Y029555D01*
X132701Y030196D01*
X132701Y029982D02*
X132381Y029982D01*
X132274Y029875D01*
X132918Y029875D02*
X133025Y029982D01*
X133239Y029982D01*
X133345Y029875D01*
X133345Y029769D01*
X132918Y029769D01*
X132918Y029875D02*
X132918Y029662D01*
X133025Y029555D01*
X133239Y029555D01*
X133563Y029555D02*
X133563Y029982D01*
X133563Y029769D02*
X133776Y029982D01*
X133883Y029982D01*
X134100Y030089D02*
X134207Y030196D01*
X134420Y030196D01*
X134527Y030089D01*
X134527Y029982D01*
X134100Y029555D01*
X134527Y029555D01*
X133076Y023821D02*
X133076Y023180D01*
X132756Y023180D01*
X132649Y023287D01*
X132649Y023500D01*
X132756Y023607D01*
X133076Y023607D01*
X133293Y023500D02*
X133400Y023607D01*
X133614Y023607D01*
X133720Y023500D01*
X133720Y023394D01*
X133293Y023394D01*
X133293Y023500D02*
X133293Y023287D01*
X133400Y023180D01*
X133614Y023180D01*
X133938Y023180D02*
X133938Y023607D01*
X134151Y023607D02*
X134258Y023607D01*
X134151Y023607D02*
X133938Y023394D01*
X132433Y023180D02*
X132219Y023180D01*
X132326Y023180D02*
X132326Y023821D01*
X132219Y023821D01*
X132002Y023500D02*
X131895Y023607D01*
X131681Y023607D01*
X131575Y023500D01*
X131575Y023287D01*
X131681Y023180D01*
X131895Y023180D01*
X132002Y023287D01*
X132002Y023500D01*
X131357Y023394D02*
X131357Y023287D01*
X131250Y023180D01*
X131037Y023180D01*
X130930Y023287D01*
X131037Y023500D02*
X131250Y023500D01*
X131357Y023394D01*
X131357Y023714D02*
X131250Y023821D01*
X131037Y023821D01*
X130930Y023714D01*
X130930Y023607D01*
X131037Y023500D01*
X126107Y023375D02*
X125680Y023375D01*
X125894Y023162D02*
X125894Y023589D01*
X119607Y023375D02*
X119180Y023375D01*
D11*
X010150Y012900D02*
X010150Y010853D01*
X010201Y011876D02*
X010150Y012900D01*
X010252Y011876D01*
X010276Y011876D02*
X010150Y012900D01*
X010048Y011876D01*
X010024Y011876D02*
X010276Y011876D01*
X010099Y011876D02*
X010150Y012900D01*
X010024Y011876D01*
X009363Y012900D02*
X019525Y012900D01*
X019900Y012150D02*
X019900Y003863D01*
X019900Y004650D02*
X020924Y004548D01*
X020924Y004524D02*
X019900Y004650D01*
X020924Y004752D01*
X020924Y004776D02*
X020924Y004524D01*
X020924Y004599D02*
X019900Y004650D01*
X020924Y004701D01*
X020924Y004776D02*
X019900Y004650D01*
X058150Y004650D01*
X057126Y004548D01*
X057126Y004524D02*
X058150Y004650D01*
X057126Y004752D01*
X057126Y004776D02*
X057126Y004524D01*
X057126Y004599D02*
X058150Y004650D01*
X057126Y004701D01*
X057126Y004776D02*
X058150Y004650D01*
X058150Y003863D02*
X058150Y011150D01*
X062126Y011524D02*
X063150Y011650D01*
X062126Y011548D01*
X062126Y011524D02*
X062126Y011776D01*
X063150Y011650D01*
X062126Y011752D01*
X062126Y011701D02*
X063150Y011650D01*
X062126Y011599D01*
X063150Y011650D02*
X035900Y011650D01*
X036924Y011548D01*
X036924Y011524D02*
X035900Y011650D01*
X036924Y011752D01*
X036924Y011776D02*
X036924Y011524D01*
X036924Y011599D02*
X035900Y011650D01*
X036924Y011701D01*
X036924Y011776D02*
X035900Y011650D01*
X035900Y011275D02*
X035900Y012437D01*
X017025Y018900D02*
X009363Y018900D01*
X010150Y018900D02*
X010252Y019924D01*
X010276Y019924D02*
X010150Y018900D01*
X010048Y019924D01*
X010024Y019924D02*
X010276Y019924D01*
X010201Y019924D02*
X010150Y018900D01*
X010099Y019924D01*
X010024Y019924D02*
X010150Y018900D01*
X010150Y024857D01*
X010650Y025603D02*
X010650Y027650D01*
X010752Y026626D01*
X010776Y026626D02*
X010650Y027650D01*
X010548Y026626D01*
X010524Y026626D02*
X010776Y026626D01*
X010701Y026626D02*
X010650Y027650D01*
X010599Y026626D01*
X010524Y026626D02*
X010650Y027650D01*
X009863Y027650D02*
X018525Y027650D01*
X018900Y029400D02*
X009863Y029400D01*
X010650Y029400D02*
X010752Y030424D01*
X010776Y030424D02*
X010650Y029400D01*
X010548Y030424D01*
X010524Y030424D02*
X010776Y030424D01*
X010701Y030424D02*
X010650Y029400D01*
X010599Y030424D01*
X010524Y030424D02*
X010650Y029400D01*
X010650Y034261D01*
X012113Y034900D02*
X017400Y034900D01*
X017775Y036650D02*
X012113Y036650D01*
X012900Y036650D02*
X013002Y037674D01*
X013026Y037674D02*
X012900Y036650D01*
X012798Y037674D01*
X012774Y037674D02*
X013026Y037674D01*
X012951Y037674D02*
X012900Y036650D01*
X012849Y037674D01*
X012774Y037674D02*
X012900Y036650D01*
X012900Y041511D01*
X012900Y034900D02*
X013002Y033876D01*
X013026Y033876D02*
X012900Y034900D01*
X012798Y033876D01*
X012774Y033876D02*
X013026Y033876D01*
X012951Y033876D02*
X012900Y034900D01*
X012849Y033876D01*
X012774Y033876D02*
X012900Y034900D01*
X012900Y032853D01*
X063150Y012400D02*
X063150Y010863D01*
X064113Y012775D02*
X066525Y012775D01*
X064900Y012775D02*
X065002Y013799D01*
X065026Y013799D02*
X064900Y012775D01*
X064798Y013799D01*
X064774Y013799D02*
X065026Y013799D01*
X064951Y013799D02*
X064900Y012775D01*
X064849Y013799D01*
X064774Y013799D02*
X064900Y012775D01*
X064900Y084025D01*
X065002Y083001D01*
X065026Y083001D02*
X064900Y084025D01*
X064798Y083001D01*
X064774Y083001D02*
X065026Y083001D01*
X064951Y083001D02*
X064900Y084025D01*
X064849Y083001D01*
X064774Y083001D02*
X064900Y084025D01*
X065687Y084025D02*
X062213Y084025D01*
X060687Y084150D02*
X058650Y084150D01*
X059900Y084150D02*
X060002Y083126D01*
X060026Y083126D02*
X059900Y084150D01*
X059798Y083126D01*
X059774Y083126D02*
X060026Y083126D01*
X059951Y083126D02*
X059900Y084150D01*
X059849Y083126D01*
X059774Y083126D02*
X059900Y084150D01*
X059900Y082103D01*
X063275Y080025D02*
X063275Y090937D01*
X063275Y090150D02*
X062251Y090048D01*
X062251Y090024D02*
X063275Y090150D01*
X062251Y090252D01*
X062251Y090276D02*
X062251Y090024D01*
X062251Y090099D02*
X063275Y090150D01*
X062251Y090201D01*
X062251Y090276D02*
X063275Y090150D01*
X014900Y090150D01*
X015924Y090048D01*
X015924Y090024D02*
X014900Y090150D01*
X015924Y090252D01*
X015924Y090276D02*
X015924Y090024D01*
X015924Y090099D02*
X014900Y090150D01*
X015924Y090201D01*
X015924Y090276D02*
X014900Y090150D01*
X014900Y090937D02*
X014900Y080400D01*
X010526Y083126D02*
X010400Y084150D01*
X010502Y083126D01*
X010526Y083126D02*
X010274Y083126D01*
X010400Y084150D01*
X010298Y083126D01*
X010349Y083126D02*
X010400Y084150D01*
X010451Y083126D01*
X010400Y084150D02*
X010400Y074150D01*
X010502Y075174D01*
X010526Y075174D02*
X010400Y074150D01*
X010298Y075174D01*
X010274Y075174D02*
X010526Y075174D01*
X010451Y075174D02*
X010400Y074150D01*
X010349Y075174D01*
X010274Y075174D02*
X010400Y074150D01*
X010525Y074150D02*
X009613Y074150D01*
X009613Y084150D02*
X014900Y084150D01*
X054650Y085400D02*
X060687Y085400D01*
X059900Y085400D02*
X060002Y086424D01*
X060026Y086424D02*
X059900Y085400D01*
X059798Y086424D01*
X059774Y086424D02*
X060026Y086424D01*
X059951Y086424D02*
X059900Y085400D01*
X059849Y086424D01*
X059774Y086424D02*
X059900Y085400D01*
X059900Y090261D01*
D12*
X059451Y090285D02*
X059240Y090497D01*
X059028Y090497D01*
X058817Y090285D01*
X058817Y089862D01*
X058605Y089651D01*
X058394Y089651D01*
X058182Y089862D01*
X058182Y090285D01*
X058394Y090497D01*
X058605Y090497D01*
X058817Y090285D01*
X058817Y089862D02*
X059028Y089651D01*
X059240Y089651D01*
X059451Y089862D01*
X059451Y090285D01*
X059451Y089228D02*
X059451Y088382D01*
X059451Y088805D02*
X058182Y088805D01*
X058605Y088382D01*
X059240Y087959D02*
X059451Y087959D01*
X059451Y087747D01*
X059240Y087747D01*
X059240Y087959D01*
X059240Y087325D02*
X059451Y087113D01*
X059451Y086690D01*
X059240Y086479D01*
X058817Y086902D02*
X058817Y087113D01*
X059028Y087325D01*
X059240Y087325D01*
X058817Y087113D02*
X058605Y087325D01*
X058394Y087325D01*
X058182Y087113D01*
X058182Y086690D01*
X058394Y086479D01*
X042683Y091656D02*
X041837Y090810D01*
X041837Y090599D01*
X041414Y090810D02*
X041203Y090599D01*
X040780Y090599D01*
X040568Y090810D01*
X040568Y091022D01*
X040780Y091233D01*
X041203Y091233D01*
X041414Y091022D01*
X041414Y090810D01*
X041203Y091233D02*
X041414Y091445D01*
X041414Y091656D01*
X041203Y091868D01*
X040780Y091868D01*
X040568Y091656D01*
X040568Y091445D01*
X040780Y091233D01*
X040145Y090810D02*
X040145Y090599D01*
X039934Y090599D01*
X039934Y090810D01*
X040145Y090810D01*
X039511Y090599D02*
X038665Y090599D01*
X039511Y091445D01*
X039511Y091656D01*
X039300Y091868D01*
X038876Y091868D01*
X038665Y091656D01*
X038242Y091656D02*
X038031Y091868D01*
X037608Y091868D01*
X037396Y091656D01*
X038242Y091656D02*
X038242Y091445D01*
X037396Y090599D01*
X038242Y090599D01*
X036973Y090599D02*
X036127Y090599D01*
X036550Y090599D02*
X036550Y091868D01*
X036127Y091445D01*
X041837Y091868D02*
X042683Y091868D01*
X042683Y091656D01*
X009951Y081093D02*
X008682Y081093D01*
X009317Y080458D01*
X009317Y081304D01*
X009740Y080035D02*
X009951Y080035D01*
X009951Y079824D01*
X009740Y079824D01*
X009740Y080035D01*
X009740Y079401D02*
X009317Y079401D01*
X009105Y079190D01*
X009105Y078978D01*
X009317Y078555D01*
X008682Y078555D01*
X008682Y079401D01*
X009740Y079401D02*
X009951Y079190D01*
X009951Y078767D01*
X009740Y078555D01*
X009951Y078132D02*
X009951Y077286D01*
X009105Y078132D01*
X008894Y078132D01*
X008682Y077921D01*
X008682Y077498D01*
X008894Y077286D01*
X011182Y041747D02*
X011182Y040901D01*
X011817Y040901D01*
X011605Y041324D01*
X011605Y041535D01*
X011817Y041747D01*
X012240Y041747D01*
X012451Y041535D01*
X012451Y041112D01*
X012240Y040901D01*
X011817Y040478D02*
X011817Y039632D01*
X011182Y040266D01*
X012451Y040266D01*
X012451Y039209D02*
X012451Y038997D01*
X012240Y038997D01*
X012240Y039209D01*
X012451Y039209D01*
X012451Y038363D02*
X011182Y038363D01*
X011817Y037729D01*
X011817Y038575D01*
X009990Y034497D02*
X010201Y034285D01*
X010201Y033862D01*
X009990Y033651D01*
X009567Y033651D02*
X009355Y034074D01*
X009355Y034285D01*
X009567Y034497D01*
X009990Y034497D01*
X009567Y033651D02*
X008932Y033651D01*
X008932Y034497D01*
X009567Y033228D02*
X009567Y032382D01*
X008932Y033016D01*
X010201Y033016D01*
X010201Y031959D02*
X010201Y031747D01*
X009990Y031747D01*
X009990Y031959D01*
X010201Y031959D01*
X010201Y031113D02*
X008932Y031113D01*
X009567Y030479D01*
X009567Y031325D01*
X009067Y025265D02*
X009067Y024419D01*
X008432Y025054D01*
X009701Y025054D01*
X009701Y023997D02*
X009701Y023151D01*
X008855Y023997D01*
X008644Y023997D01*
X008432Y023785D01*
X008432Y023362D01*
X008644Y023151D01*
X009490Y022728D02*
X009701Y022728D01*
X009701Y022516D01*
X009490Y022516D01*
X009490Y022728D01*
X009490Y022093D02*
X009701Y021882D01*
X009701Y021459D01*
X009490Y021247D01*
X009067Y021247D02*
X008855Y021670D01*
X008855Y021882D01*
X009067Y022093D01*
X009490Y022093D01*
X009067Y021247D02*
X008432Y021247D01*
X008432Y022093D01*
X008432Y020402D02*
X009701Y020402D01*
X009701Y019979D02*
X009701Y020825D01*
X008855Y019979D02*
X008432Y020402D01*
X036613Y006156D02*
X036613Y005945D01*
X036825Y005733D01*
X037459Y005733D01*
X037459Y005310D02*
X037459Y006156D01*
X037248Y006368D01*
X036825Y006368D01*
X036613Y006156D01*
X036613Y005310D02*
X036825Y005099D01*
X037248Y005099D01*
X037459Y005310D01*
X037882Y005310D02*
X038728Y006156D01*
X038728Y006368D01*
X037882Y006368D01*
X037882Y005310D02*
X037882Y005099D01*
X039151Y005099D02*
X039362Y005099D01*
X039362Y005310D01*
X039151Y005310D01*
X039151Y005099D01*
X039785Y005099D02*
X040631Y005099D01*
X040208Y005099D02*
X040208Y006368D01*
X039785Y005945D01*
X041054Y005733D02*
X041477Y006156D01*
X041900Y006368D01*
X041688Y005733D02*
X041054Y005733D01*
X041054Y005310D01*
X041265Y005099D01*
X041688Y005099D01*
X041900Y005310D01*
X041900Y005522D01*
X041688Y005733D01*
X047325Y012099D02*
X047113Y012310D01*
X047113Y012733D01*
X047748Y012733D01*
X047959Y012522D01*
X047959Y012310D01*
X047748Y012099D01*
X047325Y012099D01*
X047113Y012733D02*
X047536Y013156D01*
X047959Y013368D01*
X048382Y013156D02*
X048382Y012945D01*
X048593Y012733D01*
X049228Y012733D01*
X049228Y012310D02*
X049228Y013156D01*
X049016Y013368D01*
X048593Y013368D01*
X048382Y013156D01*
X048382Y012310D02*
X048593Y012099D01*
X049016Y012099D01*
X049228Y012310D01*
X049651Y012310D02*
X049862Y012310D01*
X049862Y012099D01*
X049651Y012099D01*
X049651Y012310D01*
X050285Y012099D02*
X051131Y012945D01*
X051131Y013156D01*
X050920Y013368D01*
X050497Y013368D01*
X050285Y013156D01*
X050285Y012099D02*
X051131Y012099D01*
X051554Y012099D02*
X052400Y012945D01*
X052400Y013156D01*
X052188Y013368D01*
X051765Y013368D01*
X051554Y013156D01*
X051554Y012099D02*
X052400Y012099D01*
X063605Y045440D02*
X063182Y045863D01*
X064451Y045863D01*
X064451Y045440D02*
X064451Y046286D01*
X064240Y046709D02*
X064028Y046709D01*
X063817Y046920D01*
X063817Y047343D01*
X064028Y047555D01*
X064240Y047555D01*
X064451Y047343D01*
X064451Y046920D01*
X064240Y046709D01*
X063817Y046920D02*
X063605Y046709D01*
X063394Y046709D01*
X063182Y046920D01*
X063182Y047343D01*
X063394Y047555D01*
X063605Y047555D01*
X063817Y047343D01*
X064240Y047977D02*
X063394Y048824D01*
X064240Y048824D01*
X064451Y048612D01*
X064451Y048189D01*
X064240Y047977D01*
X063394Y047977D01*
X063182Y048189D01*
X063182Y048612D01*
X063394Y048824D01*
X064240Y049246D02*
X064240Y049458D01*
X064451Y049458D01*
X064451Y049246D01*
X064240Y049246D01*
X064240Y049881D02*
X064451Y050092D01*
X064451Y050515D01*
X064240Y050727D01*
X063394Y050727D01*
X063182Y050515D01*
X063182Y050092D01*
X063394Y049881D01*
X063605Y049881D01*
X063817Y050092D01*
X063817Y050727D01*
X064028Y051149D02*
X063817Y051361D01*
X063817Y051784D01*
X064028Y051996D01*
X064240Y051996D01*
X064451Y051784D01*
X064451Y051361D01*
X064240Y051149D01*
X064028Y051149D01*
X063817Y051361D02*
X063605Y051149D01*
X063394Y051149D01*
X063182Y051361D01*
X063182Y051784D01*
X063394Y051996D01*
X063605Y051996D01*
X063817Y051784D01*
D13*
X098099Y028687D02*
X098241Y028829D01*
X098383Y028829D01*
X098525Y028687D01*
X098666Y028829D01*
X098808Y028829D01*
X098950Y028687D01*
X098950Y028404D01*
X098808Y028262D01*
X098950Y027908D02*
X098666Y027625D01*
X098666Y027767D02*
X098666Y027341D01*
X098950Y027341D02*
X098099Y027341D01*
X098099Y027767D01*
X098241Y027908D01*
X098525Y027908D01*
X098666Y027767D01*
X098241Y028262D02*
X098099Y028404D01*
X098099Y028687D01*
X098525Y028687D02*
X098525Y028546D01*
X098525Y026067D02*
X098808Y026067D01*
X098950Y025925D01*
X098950Y025642D01*
X098808Y025500D01*
X098525Y025500D02*
X098383Y025783D01*
X098383Y025925D01*
X098525Y026067D01*
X098099Y026067D02*
X098099Y025500D01*
X098525Y025500D01*
X098950Y025146D02*
X098950Y024579D01*
X098950Y024863D02*
X098099Y024863D01*
X098383Y024579D01*
X098525Y024225D02*
X098525Y023658D01*
X098525Y023305D02*
X098525Y022737D01*
X098099Y023163D01*
X098950Y023163D01*
X098241Y022384D02*
X098808Y021817D01*
X098950Y021817D01*
X098950Y021463D02*
X098950Y020896D01*
X098950Y021179D02*
X098099Y021179D01*
X098383Y020896D01*
X098950Y020542D02*
X098950Y019975D01*
X098950Y020259D02*
X098099Y020259D01*
X098383Y019975D01*
X098099Y021817D02*
X098099Y022384D01*
X098241Y022384D01*
D14*
X102025Y022400D03*
X102025Y020400D03*
X116025Y019400D03*
X116025Y023400D03*
X120025Y027525D03*
X121150Y027525D03*
X122150Y027525D03*
X123150Y027525D03*
X124150Y027525D03*
X125150Y027525D03*
X123650Y026025D03*
X122650Y026025D03*
X121650Y026025D03*
X121150Y032525D03*
X122150Y032525D03*
X123150Y032525D03*
X124150Y032525D03*
X125150Y032525D03*
X120025Y032525D03*
X099338Y032025D03*
X099338Y030025D03*
X081713Y029088D03*
X080713Y029088D03*
X079713Y029088D03*
X079713Y026088D03*
X080713Y026088D03*
X081713Y026088D03*
X081713Y024088D03*
X080713Y024088D03*
X079713Y024088D03*
X069650Y016275D03*
X068900Y015775D03*
X069650Y015275D03*
X066400Y024775D03*
X066400Y025775D03*
X066400Y026775D03*
X066400Y028525D03*
X066400Y029525D03*
X066400Y030525D03*
X066400Y032275D03*
X066400Y033275D03*
X066400Y034275D03*
X057650Y033775D03*
X057650Y032775D03*
X057650Y031025D03*
X057650Y030025D03*
X057650Y029025D03*
X057650Y027275D03*
X057650Y026275D03*
X057650Y025275D03*
X053650Y024775D03*
X053650Y025775D03*
X053650Y026775D03*
X053650Y028525D03*
X053650Y029525D03*
X053650Y030525D03*
X053650Y032275D03*
X053650Y033275D03*
X053650Y034275D03*
X057650Y034775D03*
X034400Y044025D03*
X033400Y044025D03*
X033400Y045025D03*
X034400Y045025D03*
X034400Y046025D03*
X033400Y046025D03*
X033400Y047025D03*
X034400Y047025D03*
X034400Y048025D03*
X046856Y052525D03*
X037900Y062650D03*
X035900Y062650D03*
X038400Y076150D03*
X040400Y076150D03*
X070400Y059525D03*
X071150Y060025D03*
X071150Y059025D03*
X099650Y056650D03*
X099650Y054650D03*
X106650Y053525D03*
X106650Y052025D03*
X106650Y051025D03*
X106588Y049650D03*
X109588Y049650D03*
X109650Y051025D03*
X109650Y052025D03*
X109650Y053525D03*
X109650Y055775D03*
X106650Y055775D03*
X113838Y052025D03*
X114838Y052025D03*
X115838Y052025D03*
X116963Y052025D03*
X118150Y052025D03*
X119088Y052025D03*
X119025Y047025D03*
X118025Y047025D03*
X117025Y047025D03*
X116025Y047025D03*
X115025Y047025D03*
X113900Y047025D03*
X112650Y045775D03*
X115650Y045775D03*
X126150Y047025D03*
X127275Y047025D03*
X128275Y047025D03*
X129275Y047025D03*
X130275Y047025D03*
X131275Y047025D03*
X131338Y052025D03*
X130400Y052025D03*
X129400Y052025D03*
X128275Y052025D03*
X127150Y052025D03*
X126150Y052025D03*
D15*
X077275Y066025D03*
X047400Y064650D03*
D16*
X047400Y062650D03*
X077275Y069025D03*
X128400Y063775D03*
X132400Y063775D03*
X132400Y058775D03*
X128400Y058775D03*
D17*
X129609Y068400D02*
X130441Y068400D01*
X130441Y070400D02*
X129609Y070400D01*
X104566Y056275D02*
X103734Y056275D01*
X103734Y055275D02*
X104566Y055275D01*
X104566Y054275D02*
X103734Y054275D01*
X103734Y053275D02*
X104566Y053275D01*
X104566Y052275D02*
X103734Y052275D01*
X103734Y051275D02*
X104566Y051275D01*
X104566Y050275D02*
X103734Y050275D01*
X103734Y049275D02*
X104566Y049275D01*
X101566Y049275D02*
X100734Y049275D01*
X100734Y050275D02*
X101566Y050275D01*
X101566Y051275D02*
X100734Y051275D01*
X100734Y052275D02*
X101566Y052275D01*
X101566Y053275D02*
X100734Y053275D01*
X100734Y054275D02*
X101566Y054275D01*
X101566Y055275D02*
X100734Y055275D01*
X100734Y056275D02*
X101566Y056275D01*
X102484Y044025D02*
X103316Y044025D01*
X103316Y043025D02*
X102484Y043025D01*
X105484Y043025D02*
X106316Y043025D01*
X106316Y042025D02*
X105484Y042025D01*
X105484Y041025D02*
X106316Y041025D01*
X106316Y040025D02*
X105484Y040025D01*
X105484Y039025D02*
X106316Y039025D01*
X106316Y038025D02*
X105484Y038025D01*
X103316Y038025D02*
X102484Y038025D01*
X102484Y039025D02*
X103316Y039025D01*
X103316Y040025D02*
X102484Y040025D01*
X103359Y036025D02*
X104191Y036025D01*
X104609Y035150D02*
X105441Y035150D01*
X105441Y034150D02*
X104609Y034150D01*
X104191Y034025D02*
X103359Y034025D01*
X103359Y033025D02*
X104191Y033025D01*
X104609Y033150D02*
X105441Y033150D01*
X105441Y032150D02*
X104609Y032150D01*
X104191Y032025D02*
X103359Y032025D01*
X103359Y031025D02*
X104191Y031025D01*
X104609Y031150D02*
X105441Y031150D01*
X105441Y030150D02*
X104609Y030150D01*
X104191Y030025D02*
X103359Y030025D01*
X103359Y029025D02*
X104191Y029025D01*
X104609Y029150D02*
X105441Y029150D01*
X105441Y028150D02*
X104609Y028150D01*
X103941Y026400D02*
X103109Y026400D01*
X103109Y025400D02*
X103941Y025400D01*
X103941Y024400D02*
X103109Y024400D01*
X103109Y023400D02*
X103941Y023400D01*
X103941Y022400D02*
X103109Y022400D01*
X103109Y021400D02*
X103941Y021400D01*
X103941Y020400D02*
X103109Y020400D01*
X103109Y019400D02*
X103941Y019400D01*
X106109Y019400D02*
X106941Y019400D01*
X106941Y020400D02*
X106109Y020400D01*
X106109Y021400D02*
X106941Y021400D01*
X106941Y022400D02*
X106109Y022400D01*
X106109Y023400D02*
X106941Y023400D01*
X106941Y024400D02*
X106109Y024400D01*
X106109Y025400D02*
X106941Y025400D01*
X106941Y026400D02*
X106109Y026400D01*
X107609Y028150D02*
X108441Y028150D01*
X108441Y029150D02*
X107609Y029150D01*
X107609Y030150D02*
X108441Y030150D01*
X108441Y031150D02*
X107609Y031150D01*
X107609Y032150D02*
X108441Y032150D01*
X108441Y033150D02*
X107609Y033150D01*
X107609Y034150D02*
X108441Y034150D01*
X108441Y035150D02*
X107609Y035150D01*
X104191Y035025D02*
X103359Y035025D01*
X101191Y035025D02*
X100359Y035025D01*
X100359Y034025D02*
X101191Y034025D01*
X101191Y033025D02*
X100359Y033025D01*
X100359Y032025D02*
X101191Y032025D01*
X101191Y031025D02*
X100359Y031025D01*
X100359Y030025D02*
X101191Y030025D01*
X101191Y029025D02*
X100359Y029025D01*
X100359Y036025D02*
X101191Y036025D01*
X105484Y044025D02*
X106316Y044025D01*
X110984Y025025D02*
X111816Y025025D01*
X111816Y024025D02*
X110984Y024025D01*
X110984Y023025D02*
X111816Y023025D01*
X111816Y022025D02*
X110984Y022025D01*
X110984Y021025D02*
X111816Y021025D01*
X111816Y020025D02*
X110984Y020025D01*
X110984Y019025D02*
X111816Y019025D01*
X111816Y018025D02*
X110984Y018025D01*
X113984Y018025D02*
X114816Y018025D01*
X114816Y019025D02*
X113984Y019025D01*
X113984Y020025D02*
X114816Y020025D01*
X114816Y021025D02*
X113984Y021025D01*
X113984Y022025D02*
X114816Y022025D01*
X114816Y023025D02*
X113984Y023025D01*
X113984Y024025D02*
X114816Y024025D01*
X114816Y025025D02*
X113984Y025025D01*
X074941Y013775D02*
X074109Y013775D01*
X071941Y013775D02*
X071109Y013775D01*
X048025Y045734D02*
X048025Y046566D01*
X047025Y046566D02*
X047025Y045734D01*
X046025Y045734D02*
X046025Y046566D01*
X045025Y046566D02*
X045025Y045734D01*
X044025Y045734D02*
X044025Y046566D01*
X043025Y046566D02*
X043025Y045734D01*
X042025Y045734D02*
X042025Y046566D01*
X041025Y046566D02*
X041025Y045734D01*
X041025Y048734D02*
X041025Y049566D01*
X042025Y049566D02*
X042025Y048734D01*
X043025Y048734D02*
X043025Y049566D01*
X044025Y049566D02*
X044025Y048734D01*
X045025Y048734D02*
X045025Y049566D01*
X046025Y049566D02*
X046025Y048734D01*
X047025Y048734D02*
X047025Y049566D01*
X048025Y049566D02*
X048025Y048734D01*
X054109Y065900D02*
X054941Y065900D01*
X057109Y065900D02*
X057941Y065900D01*
X049253Y067463D02*
X048422Y067463D01*
X046253Y067463D02*
X045422Y067463D01*
D18*
X120050Y067525D02*
X120050Y071525D01*
X120050Y073363D01*
X121088Y074150D01*
X122050Y072025D02*
X122050Y071025D01*
X122025Y071525D02*
X120050Y071525D01*
X120050Y072025D02*
X120050Y071025D01*
X120050Y068025D02*
X120050Y067025D01*
X120050Y067525D02*
X121900Y067525D01*
X122050Y068025D02*
X122050Y067025D01*
X126250Y067025D02*
X126250Y068025D01*
X126275Y067525D02*
X128250Y067525D01*
X128250Y068025D02*
X128250Y067025D01*
X128250Y071025D02*
X128250Y072025D01*
X128250Y071525D02*
X125400Y071525D01*
X126250Y072025D02*
X126250Y071025D01*
D19*
X022525Y071650D03*
X017775Y071650D03*
D20*
X018900Y066025D03*
X021650Y066025D03*
X026275Y063400D03*
X021650Y060025D03*
X018900Y060025D03*
X026275Y059400D03*
X030275Y047150D03*
X030275Y046150D03*
X030275Y045150D03*
X029275Y045150D03*
X029275Y046150D03*
X020775Y042150D03*
X022775Y039400D03*
X022775Y037275D03*
X020775Y036150D03*
X022775Y032150D03*
X022775Y030025D03*
X020900Y027025D03*
X023150Y024900D03*
X023150Y022650D03*
X020900Y021025D03*
X026995Y019900D03*
X028075Y019900D03*
X029155Y019900D03*
X030235Y019900D03*
X031315Y019900D03*
X032395Y019900D03*
X033475Y019900D03*
X034555Y019900D03*
X034015Y018900D03*
X032935Y018900D03*
X031855Y018900D03*
X030775Y018900D03*
X029695Y018900D03*
X028615Y018900D03*
X027535Y018900D03*
X029150Y022650D03*
X029150Y024900D03*
X028775Y030025D03*
X028775Y032150D03*
X028775Y037275D03*
X028775Y039400D03*
X028575Y078775D03*
X029655Y078775D03*
X030735Y078775D03*
X031815Y078775D03*
X032895Y078775D03*
X033975Y078775D03*
X035055Y078775D03*
X034515Y079775D03*
X033435Y079775D03*
X032355Y079775D03*
X031275Y079775D03*
X030195Y079775D03*
X029115Y079775D03*
X028035Y079775D03*
X027495Y078775D03*
X099525Y043900D03*
X099525Y042900D03*
X100525Y042900D03*
X100525Y041900D03*
X099525Y041900D03*
X125025Y057900D03*
X125025Y063900D03*
X137025Y063025D03*
X137025Y057025D03*
X129650Y040150D03*
X128650Y040150D03*
X128650Y039150D03*
D21*
X044228Y070400D02*
X043322Y070400D01*
X043322Y071400D02*
X044228Y071400D01*
X044228Y072400D02*
X043322Y072400D01*
X036275Y056978D02*
X036275Y056072D01*
X035275Y056072D02*
X035275Y056978D01*
X034275Y056978D02*
X034275Y056072D01*
X030400Y056322D02*
X030400Y057228D01*
X029400Y057228D02*
X029400Y056322D01*
X028400Y056322D02*
X028400Y057228D01*
X017728Y040400D02*
X016822Y040400D01*
X016822Y039400D02*
X017728Y039400D01*
X017728Y038400D02*
X016822Y038400D01*
X016822Y033150D02*
X017728Y033150D01*
X017728Y032150D02*
X016822Y032150D01*
X016822Y031150D02*
X017728Y031150D01*
X017728Y025900D02*
X016822Y025900D01*
X016822Y024900D02*
X017728Y024900D01*
X017728Y023900D02*
X016822Y023900D01*
D22*
X042975Y055275D03*
X051588Y064213D03*
X046525Y069900D03*
X046525Y071825D03*
X035400Y075650D03*
X026275Y072900D03*
X026275Y070900D03*
X105650Y055400D03*
X111525Y054525D03*
X111525Y053525D03*
X112775Y053525D03*
X112775Y054525D03*
X114025Y054525D03*
X114025Y053525D03*
X115275Y053525D03*
X115275Y054525D03*
X116525Y054588D03*
X116525Y053463D03*
X117775Y053463D03*
X117775Y054588D03*
X119025Y054588D03*
X119025Y053463D03*
X120275Y053525D03*
X120275Y054525D03*
X121525Y054525D03*
X121525Y053525D03*
X123775Y053525D03*
X123775Y054525D03*
X125025Y054525D03*
X125025Y053525D03*
X126275Y053525D03*
X126275Y054525D03*
X127525Y054525D03*
X127525Y053525D03*
X128775Y053463D03*
X128775Y054588D03*
X130025Y054588D03*
X130025Y053463D03*
X131275Y053463D03*
X131275Y054588D03*
X132525Y054525D03*
X132525Y053525D03*
X133775Y053463D03*
X133775Y054588D03*
X131838Y039900D03*
X130838Y039900D03*
X126275Y039900D03*
X125275Y039900D03*
X130150Y033150D03*
X131150Y033150D03*
X111525Y039525D03*
X109525Y039525D03*
X105650Y049400D03*
D23*
X057350Y075838D03*
X055450Y075838D03*
X046525Y073225D03*
X046525Y068900D03*
X051588Y066213D03*
X036400Y075650D03*
X041575Y055275D03*
D24*
X027400Y050525D03*
X025400Y050525D03*
X023775Y041525D03*
X027775Y041525D03*
X027775Y034275D03*
X023775Y034275D03*
X024150Y027025D03*
X028150Y027025D03*
X055463Y027713D03*
X055463Y029650D03*
X095891Y044525D03*
X099525Y039588D03*
X101025Y037150D03*
X098400Y034400D03*
X097650Y033025D03*
X098400Y031588D03*
X105650Y036400D03*
X108713Y037150D03*
X112900Y039650D03*
X116400Y039650D03*
X108025Y044338D03*
X107963Y045525D03*
X112025Y047400D03*
X112775Y048150D03*
X111775Y049275D03*
X112900Y049775D03*
X112650Y051525D03*
X112650Y052400D03*
X114400Y051025D03*
X115025Y049025D03*
X116650Y048025D03*
X117275Y049525D03*
X121525Y048775D03*
X122400Y047900D03*
X122400Y050213D03*
X121400Y050900D03*
X122025Y052400D03*
X124400Y052650D03*
X125650Y050900D03*
X127275Y049525D03*
X128275Y048775D03*
X129275Y047900D03*
X130775Y048025D03*
X129900Y049463D03*
X130275Y050525D03*
X129150Y050525D03*
X131025Y049650D03*
X133150Y049650D03*
X134275Y050525D03*
X128150Y055525D03*
X125400Y045775D03*
X126838Y045650D03*
X119900Y045775D03*
X110525Y054150D03*
X108650Y054650D03*
X099838Y050275D03*
X097400Y050275D03*
X109900Y033400D03*
X118150Y031150D03*
X118150Y029275D03*
X119400Y028775D03*
X118900Y026400D03*
X125650Y028775D03*
X121400Y031150D03*
X128963Y032275D03*
X132025Y026525D03*
X136400Y026525D03*
X052142Y079358D03*
X052142Y080396D03*
X051095Y080396D03*
X051095Y079358D03*
X026150Y068025D03*
X026150Y066025D03*
D25*
X021876Y034019D02*
X021785Y033928D01*
X021657Y034202D01*
X021760Y034485D01*
X022034Y034613D01*
X022317Y034510D01*
X022445Y034236D01*
X022342Y033953D01*
X022068Y033825D01*
X021785Y033928D01*
X021885Y034037D01*
X021805Y034209D01*
X021869Y034385D01*
X022041Y034465D01*
X022217Y034401D01*
X022297Y034229D01*
X022233Y034053D01*
X022061Y033973D01*
X021885Y034037D01*
X021986Y034147D01*
X021953Y034216D01*
X021979Y034284D01*
X022048Y034317D01*
X022116Y034291D01*
X022149Y034222D01*
X022123Y034154D01*
X022054Y034121D01*
X021986Y034147D01*
X019824Y028381D02*
X019733Y028290D01*
X019605Y028564D01*
X019708Y028847D01*
X019982Y028975D01*
X020265Y028872D01*
X020393Y028598D01*
X020290Y028315D01*
X020016Y028187D01*
X019733Y028290D01*
X019833Y028399D01*
X019753Y028571D01*
X019817Y028747D01*
X019989Y028827D01*
X020165Y028763D01*
X020245Y028591D01*
X020181Y028415D01*
X020009Y028335D01*
X019833Y028399D01*
X019934Y028509D01*
X019901Y028578D01*
X019927Y028646D01*
X019996Y028679D01*
X020064Y028653D01*
X020097Y028584D01*
X020071Y028516D01*
X020002Y028483D01*
X019934Y028509D01*
D26*
X020909Y043900D02*
X021891Y043900D01*
X021891Y045900D02*
X020909Y045900D01*
X017516Y045900D02*
X016534Y045900D01*
X016534Y043900D02*
X017516Y043900D01*
X017659Y052275D02*
X018641Y052275D01*
X018641Y054275D02*
X017659Y054275D01*
X120784Y058775D02*
X121766Y058775D01*
X121766Y060775D02*
X120784Y060775D01*
X120784Y062775D02*
X121766Y062775D01*
X121766Y064775D02*
X120784Y064775D01*
D27*
X134533Y064525D02*
X135517Y064525D01*
X137533Y064525D02*
X138517Y064525D01*
X138517Y066525D02*
X137533Y066525D01*
X135517Y066525D02*
X134533Y066525D01*
X134533Y068525D02*
X135517Y068525D01*
X137533Y068525D02*
X138517Y068525D01*
X138517Y074525D02*
X137533Y074525D01*
X135517Y074525D02*
X134533Y074525D01*
D28*
X133333Y074525D02*
X132467Y074525D01*
X132467Y075525D02*
X133333Y075525D01*
X133150Y067958D02*
X133150Y067092D01*
X132150Y067092D02*
X132150Y067958D01*
X049275Y058083D02*
X049275Y057217D01*
X048275Y057217D02*
X048275Y058083D01*
X046025Y057958D02*
X046025Y057092D01*
X045025Y057092D02*
X045025Y057958D01*
D29*
X136106Y073525D03*
X137444Y073525D03*
D30*
X137221Y072585D02*
X136940Y072585D01*
X136940Y072025D01*
X137221Y072025D01*
X137314Y072118D01*
X137314Y072492D01*
X137221Y072585D01*
X137548Y072399D02*
X137735Y072585D01*
X137735Y072025D01*
X137548Y072025D02*
X137922Y072025D01*
X136706Y072212D02*
X136706Y072585D01*
X136706Y072212D02*
X136520Y072025D01*
X136333Y072212D01*
X136333Y072585D01*
X136099Y072492D02*
X136005Y072585D01*
X135818Y072585D01*
X135725Y072492D01*
X136099Y072492D02*
X136099Y072399D01*
X135725Y072025D01*
X136099Y072025D01*
X114650Y055525D02*
X114650Y054025D01*
D31*
X115360Y043880D03*
X116940Y043880D03*
X116940Y041920D03*
X115360Y041920D03*
X110440Y041920D03*
X110440Y043880D03*
X110440Y037380D03*
X110440Y035420D03*
X115360Y035420D03*
X116940Y035420D03*
X116940Y037380D03*
X115360Y037380D03*
X121860Y037380D03*
X121860Y035420D03*
X121860Y041920D03*
X123440Y041920D03*
X123440Y043880D03*
X121860Y043880D03*
X128360Y043880D03*
X129940Y043880D03*
X129940Y041920D03*
X128360Y041920D03*
X134860Y041920D03*
X134860Y043880D03*
X134860Y024380D03*
X134860Y022420D03*
X129940Y022420D03*
X128360Y022420D03*
X128360Y024380D03*
X129940Y024380D03*
X123440Y024380D03*
X121860Y024380D03*
X121860Y022420D03*
X123440Y022420D03*
X116940Y022420D03*
X116940Y024380D03*
D32*
G36*
X129274Y028853D02*
X129968Y029547D01*
X130662Y028853D01*
X129968Y028159D01*
X129274Y028853D01*
G37*
G36*
X130659Y027468D02*
X131353Y028162D01*
X132047Y027468D01*
X131353Y026774D01*
X130659Y027468D01*
G37*
G36*
X134138Y030947D02*
X134832Y031641D01*
X135526Y030947D01*
X134832Y030253D01*
X134138Y030947D01*
G37*
G36*
X132753Y032332D02*
X133447Y033026D01*
X134141Y032332D01*
X133447Y031638D01*
X132753Y032332D01*
G37*
G36*
X133447Y033274D02*
X132753Y033968D01*
X133447Y034662D01*
X134141Y033968D01*
X133447Y033274D01*
G37*
G36*
X134832Y034659D02*
X134138Y035353D01*
X134832Y036047D01*
X135526Y035353D01*
X134832Y034659D01*
G37*
G36*
X129968Y036753D02*
X129274Y037447D01*
X129968Y038141D01*
X130662Y037447D01*
X129968Y036753D01*
G37*
G36*
X129026Y037447D02*
X128332Y036753D01*
X127638Y037447D01*
X128332Y038141D01*
X129026Y037447D01*
G37*
G36*
X127641Y038832D02*
X126947Y038138D01*
X126253Y038832D01*
X126947Y039526D01*
X127641Y038832D01*
G37*
G36*
X131353Y038138D02*
X130659Y038832D01*
X131353Y039526D01*
X132047Y038832D01*
X131353Y038138D01*
G37*
G36*
X125547Y033968D02*
X124853Y033274D01*
X124159Y033968D01*
X124853Y034662D01*
X125547Y033968D01*
G37*
G36*
X124162Y035353D02*
X123468Y034659D01*
X122774Y035353D01*
X123468Y036047D01*
X124162Y035353D01*
G37*
D33*
X037835Y079275D03*
X024715Y079275D03*
X024215Y019400D03*
X037335Y019400D03*
D34*
X024150Y050525D03*
X020400Y050525D03*
X016400Y050525D03*
X024150Y054525D03*
X038275Y066525D03*
X038275Y070525D03*
X119276Y050254D03*
X120774Y046546D03*
D35*
X039275Y059275D03*
X039275Y061275D03*
X039275Y063275D03*
X039275Y065275D03*
X039275Y067275D03*
X039275Y069275D03*
X039275Y071275D03*
X039275Y073275D03*
X029275Y073275D03*
X029275Y065275D03*
X029275Y063275D03*
X029275Y061275D03*
X029275Y059275D03*
D36*
X042694Y059400D02*
X043606Y059400D01*
X043606Y060400D02*
X042694Y060400D01*
X042694Y061400D02*
X043606Y061400D01*
X043606Y065275D02*
X042694Y065275D01*
X042694Y066275D02*
X043606Y066275D01*
X043606Y067275D02*
X042694Y067275D01*
D37*
X024775Y057366D02*
X024775Y056184D01*
X021835Y056184D02*
X021835Y057366D01*
X018885Y057366D02*
X018885Y056184D01*
X015935Y056184D02*
X015935Y057366D01*
X109908Y029900D02*
X109912Y030047D01*
X109922Y030193D01*
X109940Y030339D01*
X109965Y030484D01*
X109998Y030627D01*
X110037Y030769D01*
X110083Y030908D01*
X110136Y031045D01*
X110195Y031179D01*
X110261Y031310D01*
X110334Y031438D01*
X110412Y031562D01*
X110497Y031682D01*
X110587Y031798D01*
X110683Y031909D01*
X110784Y032016D01*
X110891Y032117D01*
X111002Y032213D01*
X111118Y032303D01*
X111238Y032388D01*
X111362Y032466D01*
X111490Y032539D01*
X111621Y032605D01*
X111755Y032664D01*
X111892Y032717D01*
X112031Y032763D01*
X112173Y032802D01*
X112316Y032835D01*
X112461Y032860D01*
X112607Y032878D01*
X112753Y032888D01*
X112900Y032892D01*
X113047Y032888D01*
X113193Y032878D01*
X113339Y032860D01*
X113484Y032835D01*
X113627Y032802D01*
X113769Y032763D01*
X113908Y032717D01*
X114045Y032664D01*
X114179Y032605D01*
X114310Y032539D01*
X114438Y032466D01*
X114562Y032388D01*
X114682Y032303D01*
X114798Y032213D01*
X114909Y032117D01*
X115016Y032016D01*
X115117Y031909D01*
X115213Y031798D01*
X115303Y031682D01*
X115388Y031562D01*
X115466Y031438D01*
X115539Y031310D01*
X115605Y031179D01*
X115664Y031045D01*
X115717Y030908D01*
X115763Y030769D01*
X115802Y030627D01*
X115835Y030484D01*
X115860Y030339D01*
X115878Y030193D01*
X115888Y030047D01*
X115892Y029900D01*
X115888Y029753D01*
X115878Y029607D01*
X115860Y029461D01*
X115835Y029316D01*
X115802Y029173D01*
X115763Y029031D01*
X115717Y028892D01*
X115664Y028755D01*
X115605Y028621D01*
X115539Y028490D01*
X115466Y028362D01*
X115388Y028238D01*
X115303Y028118D01*
X115213Y028002D01*
X115117Y027891D01*
X115016Y027784D01*
X114909Y027683D01*
X114798Y027587D01*
X114682Y027497D01*
X114562Y027412D01*
X114438Y027334D01*
X114310Y027261D01*
X114179Y027195D01*
X114045Y027136D01*
X113908Y027083D01*
X113769Y027037D01*
X113627Y026998D01*
X113484Y026965D01*
X113339Y026940D01*
X113193Y026922D01*
X113047Y026912D01*
X112900Y026908D01*
X112753Y026912D01*
X112607Y026922D01*
X112461Y026940D01*
X112316Y026965D01*
X112173Y026998D01*
X112031Y027037D01*
X111892Y027083D01*
X111755Y027136D01*
X111621Y027195D01*
X111490Y027261D01*
X111362Y027334D01*
X111238Y027412D01*
X111118Y027497D01*
X111002Y027587D01*
X110891Y027683D01*
X110784Y027784D01*
X110683Y027891D01*
X110587Y028002D01*
X110497Y028118D01*
X110412Y028238D01*
X110334Y028362D01*
X110261Y028490D01*
X110195Y028621D01*
X110136Y028755D01*
X110083Y028892D01*
X110037Y029031D01*
X109998Y029173D01*
X109965Y029316D01*
X109940Y029461D01*
X109922Y029607D01*
X109912Y029753D01*
X109908Y029900D01*
D38*
X034275Y052625D03*
X028775Y052625D03*
X018925Y039400D03*
X018925Y032150D03*
X018925Y024900D03*
D39*
X022025Y023775D03*
X025650Y021150D03*
X030275Y023775D03*
X020025Y034400D03*
X023775Y045900D03*
X025400Y045900D03*
X023275Y059775D03*
X017025Y059775D03*
X017025Y066025D03*
X023275Y066025D03*
X033900Y077650D03*
X036025Y077650D03*
X049280Y081400D03*
X054020Y081400D03*
D40*
X038838Y052525D03*
D41*
X040477Y019324D02*
X041256Y018545D01*
X040256Y017553D02*
X039477Y018332D01*
X042831Y018497D02*
X042831Y017395D01*
X044414Y018549D02*
X045193Y019328D01*
X046166Y018332D02*
X045386Y017553D01*
X047852Y018332D02*
X048631Y017553D01*
X049631Y018545D02*
X048852Y019324D01*
X051206Y018497D02*
X051206Y017395D01*
X052789Y018549D02*
X053568Y019328D01*
X054541Y018332D02*
X053761Y017553D01*
D42*
X053182Y014012D03*
X052197Y014012D03*
X050226Y014012D03*
X049242Y014012D03*
X044807Y014012D03*
X043822Y014012D03*
X041851Y014012D03*
X040867Y014012D03*
D43*
X029275Y047150D03*
X100525Y043900D03*
X129650Y039150D03*
D44*
X102900Y041025D03*
X102900Y042025D03*
D45*
X131900Y071838D03*
X121088Y074150D03*
D46*
X099650Y038865D03*
X099650Y037685D03*
D47*
X103775Y036025D02*
X104713Y036150D01*
X105900Y040025D02*
X107275Y040025D01*
X100775Y032025D02*
X099338Y032025D01*
X102338Y025400D02*
X103525Y025400D01*
X103525Y019400D02*
X102338Y019400D01*
X101213Y051275D02*
X100025Y051275D01*
X121275Y058775D02*
X125025Y057900D01*
X128400Y058775D01*
X129525Y062150D02*
X131900Y060150D01*
X135275Y060150D01*
X137025Y057025D01*
X134025Y058775D01*
X132400Y058775D01*
X132775Y061900D02*
X135275Y061900D01*
X137025Y063025D01*
X134025Y063025D01*
X132400Y063775D01*
X131150Y063150D02*
X131150Y065150D01*
X130025Y068400D01*
X128250Y067525D02*
X129525Y064775D01*
X129525Y062150D01*
X131150Y063150D02*
X132775Y061900D01*
X135025Y064525D02*
X132900Y065650D01*
X132400Y066275D01*
X132150Y067525D01*
X132150Y068775D01*
X131025Y069900D01*
X130025Y070400D01*
X128900Y069900D01*
X128150Y069525D01*
X125525Y069525D01*
X124775Y068775D01*
X124775Y066400D01*
X123150Y063400D01*
X121275Y062775D01*
X121275Y060775D02*
X123525Y060775D01*
X125025Y063900D01*
X128400Y063775D01*
X123525Y066650D02*
X123525Y069775D01*
X125400Y071525D01*
X131900Y071838D02*
X133150Y070025D01*
X133150Y067525D01*
X135025Y066525D01*
X138025Y066525D01*
X138025Y064525D02*
X135025Y064525D01*
X123525Y066650D02*
X122650Y065275D01*
X121275Y064775D01*
X135025Y074525D02*
X136106Y073525D01*
X137444Y073525D02*
X138025Y074525D01*
X137713Y075150D01*
X137338Y075650D01*
X134338Y075650D01*
X132900Y075525D01*
X132900Y074525D02*
X135025Y074525D01*
D48*
X135275Y076525D02*
X135900Y076525D01*
X135275Y076525D02*
X135275Y080525D01*
X132525Y080525D01*
X131525Y078275D01*
X130150Y078275D01*
X130150Y077775D01*
X130150Y075025D02*
X130150Y074650D01*
X129650Y074650D01*
X123525Y074650D02*
X122900Y074650D01*
X122900Y075275D01*
X122900Y077650D02*
X122900Y078275D01*
X122150Y078275D01*
X120275Y078275D02*
X119275Y078275D01*
X119275Y077275D01*
X138525Y076525D02*
X139275Y076525D01*
X139275Y075275D01*
X119275Y059275D02*
X119275Y058025D01*
X117900Y058025D01*
X116525Y057025D02*
X118400Y055150D01*
X117150Y055150D02*
X115900Y056400D01*
X108963Y056400D01*
X107900Y055338D01*
X107900Y049525D01*
X108775Y047525D01*
X108775Y045150D01*
X108025Y044338D01*
X107275Y043775D02*
X107025Y044775D01*
X107025Y045400D01*
X107400Y046275D01*
X107400Y047400D01*
X106275Y048525D01*
X103275Y048525D01*
X102900Y048900D01*
X102900Y050525D01*
X102150Y051275D01*
X101150Y051275D01*
X101150Y050275D02*
X099838Y050275D01*
X097400Y050275D01*
X099150Y044900D02*
X098150Y044525D01*
X095891Y044525D01*
X098650Y043900D02*
X096150Y041400D01*
X096150Y034525D01*
X097650Y033025D01*
X098400Y034400D02*
X098400Y037400D01*
X099275Y038275D01*
X099650Y037685D02*
X100185Y037685D01*
X101775Y038650D01*
X101775Y042900D01*
X100525Y042900D01*
X100525Y041900D02*
X100525Y038900D01*
X100025Y038275D01*
X099650Y037685D02*
X099338Y037372D01*
X099338Y032025D01*
X098400Y031588D02*
X098400Y034400D01*
X100775Y032025D02*
X102275Y032025D01*
X102275Y035150D01*
X102900Y035775D01*
X103775Y036025D01*
X101025Y037150D02*
X108713Y037150D01*
X109400Y037650D02*
X108775Y038400D01*
X108775Y043775D01*
X109400Y045400D01*
X109400Y047525D01*
X108463Y049775D01*
X108463Y054088D01*
X108650Y054650D01*
X109650Y054650D02*
X111025Y055525D01*
X114650Y055525D01*
X114650Y054025D02*
X115275Y053525D01*
X115150Y052775D02*
X116400Y052775D01*
X115150Y052775D02*
X114025Y053525D01*
X114275Y052775D02*
X114838Y052025D01*
X115963Y050775D01*
X118525Y050775D01*
X119525Y051025D01*
X120275Y051025D01*
X121150Y051900D01*
X122275Y051525D01*
X123775Y051525D01*
X124400Y052650D01*
X125525Y052775D02*
X127150Y052775D01*
X127525Y053525D01*
X128150Y052775D02*
X128275Y052025D01*
X127775Y051275D02*
X133025Y051275D01*
X133775Y053463D01*
X134275Y050525D02*
X130275Y050525D01*
X129150Y050525D02*
X126900Y050900D01*
X126650Y051150D01*
X127150Y052025D02*
X127775Y051275D01*
X128025Y050213D02*
X129900Y049463D01*
X131275Y048525D01*
X132150Y047525D01*
X132150Y046525D01*
X131275Y045650D01*
X126838Y045650D01*
X125900Y046400D02*
X124525Y046775D01*
X122025Y046775D01*
X121150Y047650D01*
X120150Y047650D01*
X119400Y047900D01*
X118525Y047900D01*
X118025Y047025D01*
X117025Y047025D02*
X116775Y046400D01*
X113275Y046400D01*
X112025Y047400D01*
X112775Y048150D02*
X113400Y047775D01*
X115275Y047775D01*
X116650Y048025D01*
X117275Y049525D02*
X116525Y049775D01*
X112900Y049775D01*
X112400Y049025D02*
X115025Y049025D01*
X115775Y050275D02*
X114400Y051025D01*
X113275Y050900D02*
X111525Y050275D01*
X110775Y049650D01*
X110775Y047775D01*
X109463Y044025D01*
X109463Y040275D01*
X109525Y039525D01*
X109713Y038900D01*
X107275Y040025D02*
X107275Y043775D01*
X105900Y044025D02*
X104775Y044025D01*
X103638Y044775D01*
X102275Y044775D01*
X101775Y044275D01*
X101775Y042900D01*
X100525Y043900D02*
X100150Y044900D01*
X099150Y044900D01*
X099525Y043900D02*
X098650Y043900D01*
X099525Y041900D02*
X099525Y039588D01*
X099650Y038865D01*
X105650Y036400D02*
X109400Y036400D01*
X109713Y034775D02*
X109900Y033400D01*
X102275Y032025D02*
X102275Y028775D01*
X102900Y028150D01*
X105025Y028150D01*
X105775Y027400D02*
X105025Y026650D01*
X105025Y025400D01*
X105025Y019400D01*
X103525Y019400D01*
X098150Y015275D02*
X096275Y015275D01*
X096275Y019275D01*
X095275Y019275D01*
X095275Y020400D01*
X103525Y025400D02*
X105025Y025400D01*
X105775Y027400D02*
X109525Y027400D01*
X111150Y025900D01*
X112775Y025650D01*
X114900Y025900D01*
X116775Y027775D01*
X117275Y029650D01*
X117775Y030150D01*
X126775Y030150D01*
X128963Y032275D01*
X125650Y028775D02*
X119400Y028775D01*
X118150Y029275D02*
X118900Y026400D01*
X118150Y031150D02*
X121400Y031150D01*
X132025Y026525D02*
X136400Y026525D01*
X139275Y021150D02*
X139275Y019275D01*
X135275Y019275D01*
X135275Y015275D01*
X133150Y015275D01*
X116400Y039650D02*
X112900Y039650D01*
X115360Y043880D02*
X110440Y043880D01*
X107963Y045525D02*
X107963Y047525D01*
X107338Y049088D01*
X107338Y055963D01*
X108400Y057025D01*
X116525Y057025D01*
X120900Y055275D02*
X122275Y055275D01*
X122275Y053275D01*
X122025Y052400D01*
X121150Y052525D02*
X121150Y051900D01*
X121150Y052525D02*
X121525Y053525D01*
X120900Y053025D02*
X119900Y051525D01*
X118775Y051275D01*
X116775Y051275D01*
X116400Y051525D01*
X115775Y050275D02*
X117650Y050275D01*
X118525Y049525D01*
X119900Y049525D01*
X120150Y050275D01*
X121400Y050900D01*
X125650Y050900D01*
X125525Y051650D02*
X125525Y052775D01*
X126275Y053525D02*
X125650Y054150D01*
X125650Y055275D02*
X122275Y055275D01*
X122400Y050213D02*
X128025Y050213D01*
X128525Y049525D02*
X127275Y049525D01*
X120775Y049525D01*
X121525Y048775D02*
X128275Y048775D01*
X128525Y049525D02*
X130775Y048025D01*
X130275Y047025D02*
X130025Y046400D01*
X125900Y046400D01*
X125400Y045775D02*
X119900Y045775D01*
X122400Y047900D02*
X129275Y047900D01*
X131025Y049650D02*
X133150Y049650D01*
X114275Y052775D02*
X113525Y052775D01*
X112650Y052400D01*
X112650Y051525D01*
X112650Y052400D02*
X111150Y052400D01*
X110525Y054150D01*
X109650Y054650D02*
X109650Y053525D01*
X113838Y052025D02*
X113275Y050900D01*
X112400Y049025D02*
X111775Y049275D01*
X096400Y058025D02*
X095275Y058025D01*
X095275Y056900D01*
X055463Y029650D02*
X055463Y027713D01*
X030275Y023775D02*
X022025Y023775D01*
D49*
X020025Y034400D02*
X010775Y037025D01*
X010775Y070900D01*
X036025Y077650D01*
X033900Y077650D02*
X012275Y072025D01*
X012275Y047650D01*
X023775Y047650D01*
X025400Y045900D01*
X116963Y052025D02*
X117150Y052963D01*
X118400Y053025D02*
X118150Y052025D01*
D50*
X118400Y053025D02*
X118400Y055150D01*
X117150Y055150D02*
X117150Y052963D01*
X125525Y051650D02*
X126650Y051150D01*
X128360Y043880D02*
X123440Y043880D01*
X121860Y043880D02*
X116940Y043880D01*
X116940Y041920D02*
X121860Y041920D01*
X123440Y041920D02*
X128360Y041920D01*
X129940Y041920D02*
X134860Y041920D01*
X134860Y043880D02*
X129940Y043880D01*
X131353Y038832D02*
X134082Y038207D01*
X134832Y035353D01*
X133447Y033968D02*
X130593Y034593D01*
X129968Y037447D01*
X128332Y037447D02*
X124853Y033968D01*
X123468Y035353D02*
X123968Y038207D01*
X126947Y038832D01*
X121860Y037380D02*
X116940Y037380D01*
X115360Y037380D02*
X110440Y037380D01*
X109400Y037650D02*
X109400Y036400D01*
X109713Y034775D02*
X109713Y038900D01*
X116940Y035420D02*
X121860Y035420D01*
X130468Y031832D02*
X133447Y032332D01*
X134832Y030947D02*
X134707Y028218D01*
X131353Y027468D01*
X129968Y028853D02*
X130468Y031832D01*
X129940Y024380D02*
X134860Y024380D01*
X134860Y022420D02*
X129940Y022420D01*
X128360Y022420D02*
X123440Y022420D01*
X121860Y022420D02*
X116940Y022420D01*
X116940Y024380D02*
X121860Y024380D01*
X100025Y038275D02*
X099275Y038275D01*
X025650Y021150D02*
X012275Y022650D01*
X012275Y047025D01*
X022275Y047025D01*
X023775Y045900D01*
D51*
X116400Y051525D02*
X116400Y052775D01*
X120900Y053025D02*
X120900Y055275D01*
X125650Y055275D02*
X125650Y054150D01*
X128150Y052775D02*
X128150Y055525D01*
D52*
X120775Y049525D03*
D53*
X096025Y057275D03*
X120025Y077525D03*
X134525Y079775D03*
X138525Y075775D03*
X138525Y020025D03*
X134525Y016025D03*
X097025Y016025D03*
X096025Y020025D03*
M02*
