G75*
G70*
%OFA0B0*%
%FSLAX24Y24*%
%IPPOS*%
%LPD*%
%AMOC8*
5,1,8,0,0,1.08239X$1,22.5*
%
%ADD10C,0.0100*%
%ADD11C,0.0000*%
%ADD12C,0.0079*%
%ADD13C,0.0050*%
D10*
X002275Y002600D02*
X159275Y002600D01*
X158900Y101725D01*
X001900Y101725D01*
X002275Y002600D01*
X035394Y034850D02*
X035397Y034985D01*
X035407Y035120D01*
X035424Y035254D01*
X035447Y035388D01*
X035477Y035520D01*
X035513Y035650D01*
X035555Y035778D01*
X035604Y035905D01*
X035659Y036028D01*
X035719Y036149D01*
X035786Y036267D01*
X035858Y036381D01*
X035936Y036492D01*
X036020Y036598D01*
X036108Y036701D01*
X036201Y036799D01*
X036299Y036892D01*
X036402Y036980D01*
X036508Y037064D01*
X036619Y037142D01*
X036733Y037214D01*
X036851Y037281D01*
X036972Y037341D01*
X037095Y037396D01*
X037222Y037445D01*
X037350Y037487D01*
X037480Y037523D01*
X037612Y037553D01*
X037746Y037576D01*
X037880Y037593D01*
X038015Y037603D01*
X038150Y037606D01*
X038285Y037603D01*
X038420Y037593D01*
X038554Y037576D01*
X038688Y037553D01*
X038820Y037523D01*
X038950Y037487D01*
X039078Y037445D01*
X039205Y037396D01*
X039328Y037341D01*
X039449Y037281D01*
X039567Y037214D01*
X039681Y037142D01*
X039792Y037064D01*
X039898Y036980D01*
X040001Y036892D01*
X040099Y036799D01*
X040192Y036701D01*
X040280Y036598D01*
X040364Y036492D01*
X040442Y036381D01*
X040514Y036267D01*
X040581Y036149D01*
X040641Y036028D01*
X040696Y035905D01*
X040745Y035778D01*
X040787Y035650D01*
X040823Y035520D01*
X040853Y035388D01*
X040876Y035254D01*
X040893Y035120D01*
X040903Y034985D01*
X040906Y034850D01*
X040903Y034715D01*
X040893Y034580D01*
X040876Y034446D01*
X040853Y034312D01*
X040823Y034180D01*
X040787Y034050D01*
X040745Y033922D01*
X040696Y033795D01*
X040641Y033672D01*
X040581Y033551D01*
X040514Y033433D01*
X040442Y033319D01*
X040364Y033208D01*
X040280Y033102D01*
X040192Y032999D01*
X040099Y032901D01*
X040001Y032808D01*
X039898Y032720D01*
X039792Y032636D01*
X039681Y032558D01*
X039567Y032486D01*
X039449Y032419D01*
X039328Y032359D01*
X039205Y032304D01*
X039078Y032255D01*
X038950Y032213D01*
X038820Y032177D01*
X038688Y032147D01*
X038554Y032124D01*
X038420Y032107D01*
X038285Y032097D01*
X038150Y032094D01*
X038015Y032097D01*
X037880Y032107D01*
X037746Y032124D01*
X037612Y032147D01*
X037480Y032177D01*
X037350Y032213D01*
X037222Y032255D01*
X037095Y032304D01*
X036972Y032359D01*
X036851Y032419D01*
X036733Y032486D01*
X036619Y032558D01*
X036508Y032636D01*
X036402Y032720D01*
X036299Y032808D01*
X036201Y032901D01*
X036108Y032999D01*
X036020Y033102D01*
X035936Y033208D01*
X035858Y033319D01*
X035786Y033433D01*
X035719Y033551D01*
X035659Y033672D01*
X035604Y033795D01*
X035555Y033922D01*
X035513Y034050D01*
X035477Y034180D01*
X035447Y034312D01*
X035424Y034446D01*
X035407Y034580D01*
X035397Y034715D01*
X035394Y034850D01*
X091900Y022725D02*
X092900Y022725D01*
X092900Y018725D01*
X131900Y018725D01*
X131900Y022725D01*
X135900Y022725D01*
X135900Y079975D01*
X131900Y079975D01*
X131900Y083975D01*
X129150Y083975D01*
X128150Y081725D01*
X126775Y081725D01*
X126775Y078100D01*
X119525Y078100D01*
X119525Y081725D01*
X115900Y081725D01*
X115900Y061475D01*
X091900Y061475D01*
X091900Y022725D01*
D11*
X094208Y020826D02*
X094210Y020876D01*
X094216Y020926D01*
X094226Y020975D01*
X094240Y021023D01*
X094257Y021070D01*
X094278Y021115D01*
X094303Y021159D01*
X094331Y021200D01*
X094363Y021239D01*
X094397Y021276D01*
X094434Y021310D01*
X094474Y021340D01*
X094516Y021367D01*
X094560Y021391D01*
X094606Y021412D01*
X094653Y021428D01*
X094701Y021441D01*
X094751Y021450D01*
X094800Y021455D01*
X094851Y021456D01*
X094901Y021453D01*
X094950Y021446D01*
X094999Y021435D01*
X095047Y021420D01*
X095093Y021402D01*
X095138Y021380D01*
X095181Y021354D01*
X095222Y021325D01*
X095261Y021293D01*
X095297Y021258D01*
X095329Y021220D01*
X095359Y021180D01*
X095386Y021137D01*
X095409Y021093D01*
X095428Y021047D01*
X095444Y020999D01*
X095456Y020950D01*
X095464Y020901D01*
X095468Y020851D01*
X095468Y020801D01*
X095464Y020751D01*
X095456Y020702D01*
X095444Y020653D01*
X095428Y020605D01*
X095409Y020559D01*
X095386Y020515D01*
X095359Y020472D01*
X095329Y020432D01*
X095297Y020394D01*
X095261Y020359D01*
X095222Y020327D01*
X095181Y020298D01*
X095138Y020272D01*
X095093Y020250D01*
X095047Y020232D01*
X094999Y020217D01*
X094950Y020206D01*
X094901Y020199D01*
X094851Y020196D01*
X094800Y020197D01*
X094751Y020202D01*
X094701Y020211D01*
X094653Y020224D01*
X094606Y020240D01*
X094560Y020261D01*
X094516Y020285D01*
X094474Y020312D01*
X094434Y020342D01*
X094397Y020376D01*
X094363Y020413D01*
X094331Y020452D01*
X094303Y020493D01*
X094278Y020537D01*
X094257Y020582D01*
X094240Y020629D01*
X094226Y020677D01*
X094216Y020726D01*
X094210Y020776D01*
X094208Y020826D01*
X105040Y029475D02*
X105042Y029524D01*
X105048Y029573D01*
X105058Y029621D01*
X105071Y029668D01*
X105089Y029714D01*
X105110Y029758D01*
X105134Y029801D01*
X105162Y029841D01*
X105193Y029880D01*
X105227Y029915D01*
X105264Y029948D01*
X105303Y029977D01*
X105345Y030003D01*
X105388Y030026D01*
X105434Y030045D01*
X105480Y030061D01*
X105528Y030073D01*
X105576Y030081D01*
X105625Y030085D01*
X105675Y030085D01*
X105724Y030081D01*
X105772Y030073D01*
X105820Y030061D01*
X105866Y030045D01*
X105912Y030026D01*
X105955Y030003D01*
X105997Y029977D01*
X106036Y029948D01*
X106073Y029915D01*
X106107Y029880D01*
X106138Y029841D01*
X106166Y029801D01*
X106190Y029758D01*
X106211Y029714D01*
X106229Y029668D01*
X106242Y029621D01*
X106252Y029573D01*
X106258Y029524D01*
X106260Y029475D01*
X106258Y029426D01*
X106252Y029377D01*
X106242Y029329D01*
X106229Y029282D01*
X106211Y029236D01*
X106190Y029192D01*
X106166Y029149D01*
X106138Y029109D01*
X106107Y029070D01*
X106073Y029035D01*
X106036Y029002D01*
X105997Y028973D01*
X105955Y028947D01*
X105912Y028924D01*
X105866Y028905D01*
X105820Y028889D01*
X105772Y028877D01*
X105724Y028869D01*
X105675Y028865D01*
X105625Y028865D01*
X105576Y028869D01*
X105528Y028877D01*
X105480Y028889D01*
X105434Y028905D01*
X105388Y028924D01*
X105345Y028947D01*
X105303Y028973D01*
X105264Y029002D01*
X105227Y029035D01*
X105193Y029070D01*
X105162Y029109D01*
X105134Y029149D01*
X105110Y029192D01*
X105089Y029236D01*
X105071Y029282D01*
X105058Y029329D01*
X105048Y029377D01*
X105042Y029426D01*
X105040Y029475D01*
X107163Y033350D02*
X107166Y033466D01*
X107174Y033582D01*
X107189Y033697D01*
X107208Y033811D01*
X107234Y033924D01*
X107265Y034036D01*
X107301Y034146D01*
X107343Y034254D01*
X107390Y034360D01*
X107442Y034463D01*
X107499Y034564D01*
X107561Y034662D01*
X107628Y034757D01*
X107699Y034848D01*
X107775Y034936D01*
X107855Y035020D01*
X107939Y035100D01*
X108027Y035176D01*
X108118Y035247D01*
X108213Y035314D01*
X108311Y035376D01*
X108412Y035433D01*
X108515Y035485D01*
X108621Y035532D01*
X108729Y035574D01*
X108839Y035610D01*
X108951Y035641D01*
X109064Y035667D01*
X109178Y035686D01*
X109293Y035701D01*
X109409Y035709D01*
X109525Y035712D01*
X109641Y035709D01*
X109757Y035701D01*
X109872Y035686D01*
X109986Y035667D01*
X110099Y035641D01*
X110211Y035610D01*
X110321Y035574D01*
X110429Y035532D01*
X110535Y035485D01*
X110638Y035433D01*
X110739Y035376D01*
X110837Y035314D01*
X110932Y035247D01*
X111023Y035176D01*
X111111Y035100D01*
X111195Y035020D01*
X111275Y034936D01*
X111351Y034848D01*
X111422Y034757D01*
X111489Y034662D01*
X111551Y034564D01*
X111608Y034463D01*
X111660Y034360D01*
X111707Y034254D01*
X111749Y034146D01*
X111785Y034036D01*
X111816Y033924D01*
X111842Y033811D01*
X111861Y033697D01*
X111876Y033582D01*
X111884Y033466D01*
X111887Y033350D01*
X111884Y033234D01*
X111876Y033118D01*
X111861Y033003D01*
X111842Y032889D01*
X111816Y032776D01*
X111785Y032664D01*
X111749Y032554D01*
X111707Y032446D01*
X111660Y032340D01*
X111608Y032237D01*
X111551Y032136D01*
X111489Y032038D01*
X111422Y031943D01*
X111351Y031852D01*
X111275Y031764D01*
X111195Y031680D01*
X111111Y031600D01*
X111023Y031524D01*
X110932Y031453D01*
X110837Y031386D01*
X110739Y031324D01*
X110638Y031267D01*
X110535Y031215D01*
X110429Y031168D01*
X110321Y031126D01*
X110211Y031090D01*
X110099Y031059D01*
X109986Y031033D01*
X109872Y031014D01*
X109757Y030999D01*
X109641Y030991D01*
X109525Y030988D01*
X109409Y030991D01*
X109293Y030999D01*
X109178Y031014D01*
X109064Y031033D01*
X108951Y031059D01*
X108839Y031090D01*
X108729Y031126D01*
X108621Y031168D01*
X108515Y031215D01*
X108412Y031267D01*
X108311Y031324D01*
X108213Y031386D01*
X108118Y031453D01*
X108027Y031524D01*
X107939Y031600D01*
X107855Y031680D01*
X107775Y031764D01*
X107699Y031852D01*
X107628Y031943D01*
X107561Y032038D01*
X107499Y032136D01*
X107442Y032237D01*
X107390Y032340D01*
X107343Y032446D01*
X107301Y032554D01*
X107265Y032664D01*
X107234Y032776D01*
X107208Y032889D01*
X107189Y033003D01*
X107174Y033118D01*
X107166Y033234D01*
X107163Y033350D01*
X109170Y038080D02*
X109172Y038117D01*
X109178Y038154D01*
X109187Y038190D01*
X109201Y038224D01*
X109218Y038257D01*
X109238Y038289D01*
X109261Y038318D01*
X109287Y038344D01*
X109316Y038367D01*
X109347Y038387D01*
X109381Y038404D01*
X109415Y038418D01*
X109451Y038427D01*
X109488Y038433D01*
X109525Y038435D01*
X109562Y038433D01*
X109599Y038427D01*
X109635Y038418D01*
X109669Y038404D01*
X109702Y038387D01*
X109734Y038367D01*
X109763Y038344D01*
X109789Y038318D01*
X109812Y038289D01*
X109832Y038258D01*
X109849Y038224D01*
X109863Y038190D01*
X109872Y038154D01*
X109878Y038117D01*
X109880Y038080D01*
X109878Y038043D01*
X109872Y038006D01*
X109863Y037970D01*
X109849Y037936D01*
X109832Y037903D01*
X109812Y037871D01*
X109789Y037842D01*
X109763Y037816D01*
X109734Y037793D01*
X109703Y037773D01*
X109669Y037756D01*
X109635Y037742D01*
X109599Y037733D01*
X109562Y037727D01*
X109525Y037725D01*
X109488Y037727D01*
X109451Y037733D01*
X109415Y037742D01*
X109381Y037756D01*
X109348Y037773D01*
X109316Y037793D01*
X109287Y037816D01*
X109261Y037842D01*
X109238Y037871D01*
X109218Y037902D01*
X109201Y037936D01*
X109187Y037970D01*
X109178Y038006D01*
X109172Y038043D01*
X109170Y038080D01*
X109170Y041620D02*
X109172Y041657D01*
X109178Y041694D01*
X109187Y041730D01*
X109201Y041764D01*
X109218Y041797D01*
X109238Y041829D01*
X109261Y041858D01*
X109287Y041884D01*
X109316Y041907D01*
X109347Y041927D01*
X109381Y041944D01*
X109415Y041958D01*
X109451Y041967D01*
X109488Y041973D01*
X109525Y041975D01*
X109562Y041973D01*
X109599Y041967D01*
X109635Y041958D01*
X109669Y041944D01*
X109702Y041927D01*
X109734Y041907D01*
X109763Y041884D01*
X109789Y041858D01*
X109812Y041829D01*
X109832Y041798D01*
X109849Y041764D01*
X109863Y041730D01*
X109872Y041694D01*
X109878Y041657D01*
X109880Y041620D01*
X109878Y041583D01*
X109872Y041546D01*
X109863Y041510D01*
X109849Y041476D01*
X109832Y041443D01*
X109812Y041411D01*
X109789Y041382D01*
X109763Y041356D01*
X109734Y041333D01*
X109703Y041313D01*
X109669Y041296D01*
X109635Y041282D01*
X109599Y041273D01*
X109562Y041267D01*
X109525Y041265D01*
X109488Y041267D01*
X109451Y041273D01*
X109415Y041282D01*
X109381Y041296D01*
X109348Y041313D01*
X109316Y041333D01*
X109287Y041356D01*
X109261Y041382D01*
X109238Y041411D01*
X109218Y041442D01*
X109201Y041476D01*
X109187Y041510D01*
X109178Y041546D01*
X109172Y041583D01*
X109170Y041620D01*
X109170Y044580D02*
X109172Y044617D01*
X109178Y044654D01*
X109187Y044690D01*
X109201Y044724D01*
X109218Y044757D01*
X109238Y044789D01*
X109261Y044818D01*
X109287Y044844D01*
X109316Y044867D01*
X109347Y044887D01*
X109381Y044904D01*
X109415Y044918D01*
X109451Y044927D01*
X109488Y044933D01*
X109525Y044935D01*
X109562Y044933D01*
X109599Y044927D01*
X109635Y044918D01*
X109669Y044904D01*
X109702Y044887D01*
X109734Y044867D01*
X109763Y044844D01*
X109789Y044818D01*
X109812Y044789D01*
X109832Y044758D01*
X109849Y044724D01*
X109863Y044690D01*
X109872Y044654D01*
X109878Y044617D01*
X109880Y044580D01*
X109878Y044543D01*
X109872Y044506D01*
X109863Y044470D01*
X109849Y044436D01*
X109832Y044403D01*
X109812Y044371D01*
X109789Y044342D01*
X109763Y044316D01*
X109734Y044293D01*
X109703Y044273D01*
X109669Y044256D01*
X109635Y044242D01*
X109599Y044233D01*
X109562Y044227D01*
X109525Y044225D01*
X109488Y044227D01*
X109451Y044233D01*
X109415Y044242D01*
X109381Y044256D01*
X109348Y044273D01*
X109316Y044293D01*
X109287Y044316D01*
X109261Y044342D01*
X109238Y044371D01*
X109218Y044402D01*
X109201Y044436D01*
X109187Y044470D01*
X109178Y044506D01*
X109172Y044543D01*
X109170Y044580D01*
X109170Y048120D02*
X109172Y048157D01*
X109178Y048194D01*
X109187Y048230D01*
X109201Y048264D01*
X109218Y048297D01*
X109238Y048329D01*
X109261Y048358D01*
X109287Y048384D01*
X109316Y048407D01*
X109347Y048427D01*
X109381Y048444D01*
X109415Y048458D01*
X109451Y048467D01*
X109488Y048473D01*
X109525Y048475D01*
X109562Y048473D01*
X109599Y048467D01*
X109635Y048458D01*
X109669Y048444D01*
X109702Y048427D01*
X109734Y048407D01*
X109763Y048384D01*
X109789Y048358D01*
X109812Y048329D01*
X109832Y048298D01*
X109849Y048264D01*
X109863Y048230D01*
X109872Y048194D01*
X109878Y048157D01*
X109880Y048120D01*
X109878Y048083D01*
X109872Y048046D01*
X109863Y048010D01*
X109849Y047976D01*
X109832Y047943D01*
X109812Y047911D01*
X109789Y047882D01*
X109763Y047856D01*
X109734Y047833D01*
X109703Y047813D01*
X109669Y047796D01*
X109635Y047782D01*
X109599Y047773D01*
X109562Y047767D01*
X109525Y047765D01*
X109488Y047767D01*
X109451Y047773D01*
X109415Y047782D01*
X109381Y047796D01*
X109348Y047813D01*
X109316Y047833D01*
X109287Y047856D01*
X109261Y047882D01*
X109238Y047911D01*
X109218Y047942D01*
X109201Y047976D01*
X109187Y048010D01*
X109178Y048046D01*
X109172Y048083D01*
X109170Y048120D01*
X115670Y048120D02*
X115672Y048157D01*
X115678Y048194D01*
X115687Y048230D01*
X115701Y048264D01*
X115718Y048297D01*
X115738Y048329D01*
X115761Y048358D01*
X115787Y048384D01*
X115816Y048407D01*
X115847Y048427D01*
X115881Y048444D01*
X115915Y048458D01*
X115951Y048467D01*
X115988Y048473D01*
X116025Y048475D01*
X116062Y048473D01*
X116099Y048467D01*
X116135Y048458D01*
X116169Y048444D01*
X116202Y048427D01*
X116234Y048407D01*
X116263Y048384D01*
X116289Y048358D01*
X116312Y048329D01*
X116332Y048298D01*
X116349Y048264D01*
X116363Y048230D01*
X116372Y048194D01*
X116378Y048157D01*
X116380Y048120D01*
X116378Y048083D01*
X116372Y048046D01*
X116363Y048010D01*
X116349Y047976D01*
X116332Y047943D01*
X116312Y047911D01*
X116289Y047882D01*
X116263Y047856D01*
X116234Y047833D01*
X116203Y047813D01*
X116169Y047796D01*
X116135Y047782D01*
X116099Y047773D01*
X116062Y047767D01*
X116025Y047765D01*
X115988Y047767D01*
X115951Y047773D01*
X115915Y047782D01*
X115881Y047796D01*
X115848Y047813D01*
X115816Y047833D01*
X115787Y047856D01*
X115761Y047882D01*
X115738Y047911D01*
X115718Y047942D01*
X115701Y047976D01*
X115687Y048010D01*
X115678Y048046D01*
X115672Y048083D01*
X115670Y048120D01*
X115670Y044580D02*
X115672Y044617D01*
X115678Y044654D01*
X115687Y044690D01*
X115701Y044724D01*
X115718Y044757D01*
X115738Y044789D01*
X115761Y044818D01*
X115787Y044844D01*
X115816Y044867D01*
X115847Y044887D01*
X115881Y044904D01*
X115915Y044918D01*
X115951Y044927D01*
X115988Y044933D01*
X116025Y044935D01*
X116062Y044933D01*
X116099Y044927D01*
X116135Y044918D01*
X116169Y044904D01*
X116202Y044887D01*
X116234Y044867D01*
X116263Y044844D01*
X116289Y044818D01*
X116312Y044789D01*
X116332Y044758D01*
X116349Y044724D01*
X116363Y044690D01*
X116372Y044654D01*
X116378Y044617D01*
X116380Y044580D01*
X116378Y044543D01*
X116372Y044506D01*
X116363Y044470D01*
X116349Y044436D01*
X116332Y044403D01*
X116312Y044371D01*
X116289Y044342D01*
X116263Y044316D01*
X116234Y044293D01*
X116203Y044273D01*
X116169Y044256D01*
X116135Y044242D01*
X116099Y044233D01*
X116062Y044227D01*
X116025Y044225D01*
X115988Y044227D01*
X115951Y044233D01*
X115915Y044242D01*
X115881Y044256D01*
X115848Y044273D01*
X115816Y044293D01*
X115787Y044316D01*
X115761Y044342D01*
X115738Y044371D01*
X115718Y044402D01*
X115701Y044436D01*
X115687Y044470D01*
X115678Y044506D01*
X115672Y044543D01*
X115670Y044580D01*
X118415Y043100D02*
X118417Y043149D01*
X118423Y043198D01*
X118433Y043246D01*
X118446Y043293D01*
X118464Y043339D01*
X118485Y043383D01*
X118509Y043426D01*
X118537Y043466D01*
X118568Y043505D01*
X118602Y043540D01*
X118639Y043573D01*
X118678Y043602D01*
X118720Y043628D01*
X118763Y043651D01*
X118809Y043670D01*
X118855Y043686D01*
X118903Y043698D01*
X118951Y043706D01*
X119000Y043710D01*
X119050Y043710D01*
X119099Y043706D01*
X119147Y043698D01*
X119195Y043686D01*
X119241Y043670D01*
X119287Y043651D01*
X119330Y043628D01*
X119372Y043602D01*
X119411Y043573D01*
X119448Y043540D01*
X119482Y043505D01*
X119513Y043466D01*
X119541Y043426D01*
X119565Y043383D01*
X119586Y043339D01*
X119604Y043293D01*
X119617Y043246D01*
X119627Y043198D01*
X119633Y043149D01*
X119635Y043100D01*
X119633Y043051D01*
X119627Y043002D01*
X119617Y042954D01*
X119604Y042907D01*
X119586Y042861D01*
X119565Y042817D01*
X119541Y042774D01*
X119513Y042734D01*
X119482Y042695D01*
X119448Y042660D01*
X119411Y042627D01*
X119372Y042598D01*
X119330Y042572D01*
X119287Y042549D01*
X119241Y042530D01*
X119195Y042514D01*
X119147Y042502D01*
X119099Y042494D01*
X119050Y042490D01*
X119000Y042490D01*
X118951Y042494D01*
X118903Y042502D01*
X118855Y042514D01*
X118809Y042530D01*
X118763Y042549D01*
X118720Y042572D01*
X118678Y042598D01*
X118639Y042627D01*
X118602Y042660D01*
X118568Y042695D01*
X118537Y042734D01*
X118509Y042774D01*
X118485Y042817D01*
X118464Y042861D01*
X118446Y042907D01*
X118433Y042954D01*
X118423Y043002D01*
X118417Y043051D01*
X118415Y043100D01*
X115670Y041620D02*
X115672Y041657D01*
X115678Y041694D01*
X115687Y041730D01*
X115701Y041764D01*
X115718Y041797D01*
X115738Y041829D01*
X115761Y041858D01*
X115787Y041884D01*
X115816Y041907D01*
X115847Y041927D01*
X115881Y041944D01*
X115915Y041958D01*
X115951Y041967D01*
X115988Y041973D01*
X116025Y041975D01*
X116062Y041973D01*
X116099Y041967D01*
X116135Y041958D01*
X116169Y041944D01*
X116202Y041927D01*
X116234Y041907D01*
X116263Y041884D01*
X116289Y041858D01*
X116312Y041829D01*
X116332Y041798D01*
X116349Y041764D01*
X116363Y041730D01*
X116372Y041694D01*
X116378Y041657D01*
X116380Y041620D01*
X116378Y041583D01*
X116372Y041546D01*
X116363Y041510D01*
X116349Y041476D01*
X116332Y041443D01*
X116312Y041411D01*
X116289Y041382D01*
X116263Y041356D01*
X116234Y041333D01*
X116203Y041313D01*
X116169Y041296D01*
X116135Y041282D01*
X116099Y041273D01*
X116062Y041267D01*
X116025Y041265D01*
X115988Y041267D01*
X115951Y041273D01*
X115915Y041282D01*
X115881Y041296D01*
X115848Y041313D01*
X115816Y041333D01*
X115787Y041356D01*
X115761Y041382D01*
X115738Y041411D01*
X115718Y041442D01*
X115701Y041476D01*
X115687Y041510D01*
X115678Y041546D01*
X115672Y041583D01*
X115670Y041620D01*
X115670Y038080D02*
X115672Y038117D01*
X115678Y038154D01*
X115687Y038190D01*
X115701Y038224D01*
X115718Y038257D01*
X115738Y038289D01*
X115761Y038318D01*
X115787Y038344D01*
X115816Y038367D01*
X115847Y038387D01*
X115881Y038404D01*
X115915Y038418D01*
X115951Y038427D01*
X115988Y038433D01*
X116025Y038435D01*
X116062Y038433D01*
X116099Y038427D01*
X116135Y038418D01*
X116169Y038404D01*
X116202Y038387D01*
X116234Y038367D01*
X116263Y038344D01*
X116289Y038318D01*
X116312Y038289D01*
X116332Y038258D01*
X116349Y038224D01*
X116363Y038190D01*
X116372Y038154D01*
X116378Y038117D01*
X116380Y038080D01*
X116378Y038043D01*
X116372Y038006D01*
X116363Y037970D01*
X116349Y037936D01*
X116332Y037903D01*
X116312Y037871D01*
X116289Y037842D01*
X116263Y037816D01*
X116234Y037793D01*
X116203Y037773D01*
X116169Y037756D01*
X116135Y037742D01*
X116099Y037733D01*
X116062Y037727D01*
X116025Y037725D01*
X115988Y037727D01*
X115951Y037733D01*
X115915Y037742D01*
X115881Y037756D01*
X115848Y037773D01*
X115816Y037793D01*
X115787Y037816D01*
X115761Y037842D01*
X115738Y037871D01*
X115718Y037902D01*
X115701Y037936D01*
X115687Y037970D01*
X115678Y038006D01*
X115672Y038043D01*
X115670Y038080D01*
X120918Y041102D02*
X120920Y041139D01*
X120926Y041176D01*
X120935Y041212D01*
X120949Y041246D01*
X120966Y041279D01*
X120986Y041311D01*
X121009Y041340D01*
X121035Y041366D01*
X121064Y041389D01*
X121095Y041409D01*
X121129Y041426D01*
X121163Y041440D01*
X121199Y041449D01*
X121236Y041455D01*
X121273Y041457D01*
X121310Y041455D01*
X121347Y041449D01*
X121383Y041440D01*
X121417Y041426D01*
X121450Y041409D01*
X121482Y041389D01*
X121511Y041366D01*
X121537Y041340D01*
X121560Y041311D01*
X121580Y041280D01*
X121597Y041246D01*
X121611Y041212D01*
X121620Y041176D01*
X121626Y041139D01*
X121628Y041102D01*
X121626Y041065D01*
X121620Y041028D01*
X121611Y040992D01*
X121597Y040958D01*
X121580Y040925D01*
X121560Y040893D01*
X121537Y040864D01*
X121511Y040838D01*
X121482Y040815D01*
X121451Y040795D01*
X121417Y040778D01*
X121383Y040764D01*
X121347Y040755D01*
X121310Y040749D01*
X121273Y040747D01*
X121236Y040749D01*
X121199Y040755D01*
X121163Y040764D01*
X121129Y040778D01*
X121096Y040795D01*
X121064Y040815D01*
X121035Y040838D01*
X121009Y040864D01*
X120986Y040893D01*
X120966Y040924D01*
X120949Y040958D01*
X120935Y040992D01*
X120926Y041028D01*
X120920Y041065D01*
X120918Y041102D01*
X123422Y038598D02*
X123424Y038635D01*
X123430Y038672D01*
X123439Y038708D01*
X123453Y038742D01*
X123470Y038775D01*
X123490Y038807D01*
X123513Y038836D01*
X123539Y038862D01*
X123568Y038885D01*
X123599Y038905D01*
X123633Y038922D01*
X123667Y038936D01*
X123703Y038945D01*
X123740Y038951D01*
X123777Y038953D01*
X123814Y038951D01*
X123851Y038945D01*
X123887Y038936D01*
X123921Y038922D01*
X123954Y038905D01*
X123986Y038885D01*
X124015Y038862D01*
X124041Y038836D01*
X124064Y038807D01*
X124084Y038776D01*
X124101Y038742D01*
X124115Y038708D01*
X124124Y038672D01*
X124130Y038635D01*
X124132Y038598D01*
X124130Y038561D01*
X124124Y038524D01*
X124115Y038488D01*
X124101Y038454D01*
X124084Y038421D01*
X124064Y038389D01*
X124041Y038360D01*
X124015Y038334D01*
X123986Y038311D01*
X123955Y038291D01*
X123921Y038274D01*
X123887Y038260D01*
X123851Y038251D01*
X123814Y038245D01*
X123777Y038243D01*
X123740Y038245D01*
X123703Y038251D01*
X123667Y038260D01*
X123633Y038274D01*
X123600Y038291D01*
X123568Y038311D01*
X123539Y038334D01*
X123513Y038360D01*
X123490Y038389D01*
X123470Y038420D01*
X123453Y038454D01*
X123439Y038488D01*
X123430Y038524D01*
X123424Y038561D01*
X123422Y038598D01*
X127418Y038598D02*
X127420Y038635D01*
X127426Y038672D01*
X127435Y038708D01*
X127449Y038742D01*
X127466Y038775D01*
X127486Y038807D01*
X127509Y038836D01*
X127535Y038862D01*
X127564Y038885D01*
X127595Y038905D01*
X127629Y038922D01*
X127663Y038936D01*
X127699Y038945D01*
X127736Y038951D01*
X127773Y038953D01*
X127810Y038951D01*
X127847Y038945D01*
X127883Y038936D01*
X127917Y038922D01*
X127950Y038905D01*
X127982Y038885D01*
X128011Y038862D01*
X128037Y038836D01*
X128060Y038807D01*
X128080Y038776D01*
X128097Y038742D01*
X128111Y038708D01*
X128120Y038672D01*
X128126Y038635D01*
X128128Y038598D01*
X128126Y038561D01*
X128120Y038524D01*
X128111Y038488D01*
X128097Y038454D01*
X128080Y038421D01*
X128060Y038389D01*
X128037Y038360D01*
X128011Y038334D01*
X127982Y038311D01*
X127951Y038291D01*
X127917Y038274D01*
X127883Y038260D01*
X127847Y038251D01*
X127810Y038245D01*
X127773Y038243D01*
X127736Y038245D01*
X127699Y038251D01*
X127663Y038260D01*
X127629Y038274D01*
X127596Y038291D01*
X127564Y038311D01*
X127535Y038334D01*
X127509Y038360D01*
X127486Y038389D01*
X127466Y038420D01*
X127449Y038454D01*
X127435Y038488D01*
X127426Y038524D01*
X127420Y038561D01*
X127418Y038598D01*
X129922Y041102D02*
X129924Y041139D01*
X129930Y041176D01*
X129939Y041212D01*
X129953Y041246D01*
X129970Y041279D01*
X129990Y041311D01*
X130013Y041340D01*
X130039Y041366D01*
X130068Y041389D01*
X130099Y041409D01*
X130133Y041426D01*
X130167Y041440D01*
X130203Y041449D01*
X130240Y041455D01*
X130277Y041457D01*
X130314Y041455D01*
X130351Y041449D01*
X130387Y041440D01*
X130421Y041426D01*
X130454Y041409D01*
X130486Y041389D01*
X130515Y041366D01*
X130541Y041340D01*
X130564Y041311D01*
X130584Y041280D01*
X130601Y041246D01*
X130615Y041212D01*
X130624Y041176D01*
X130630Y041139D01*
X130632Y041102D01*
X130630Y041065D01*
X130624Y041028D01*
X130615Y040992D01*
X130601Y040958D01*
X130584Y040925D01*
X130564Y040893D01*
X130541Y040864D01*
X130515Y040838D01*
X130486Y040815D01*
X130455Y040795D01*
X130421Y040778D01*
X130387Y040764D01*
X130351Y040755D01*
X130314Y040749D01*
X130277Y040747D01*
X130240Y040749D01*
X130203Y040755D01*
X130167Y040764D01*
X130133Y040778D01*
X130100Y040795D01*
X130068Y040815D01*
X130039Y040838D01*
X130013Y040864D01*
X129990Y040893D01*
X129970Y040924D01*
X129953Y040958D01*
X129939Y040992D01*
X129930Y041028D01*
X129924Y041065D01*
X129922Y041102D01*
X131040Y042725D02*
X131042Y042774D01*
X131048Y042823D01*
X131058Y042871D01*
X131071Y042918D01*
X131089Y042964D01*
X131110Y043008D01*
X131134Y043051D01*
X131162Y043091D01*
X131193Y043130D01*
X131227Y043165D01*
X131264Y043198D01*
X131303Y043227D01*
X131345Y043253D01*
X131388Y043276D01*
X131434Y043295D01*
X131480Y043311D01*
X131528Y043323D01*
X131576Y043331D01*
X131625Y043335D01*
X131675Y043335D01*
X131724Y043331D01*
X131772Y043323D01*
X131820Y043311D01*
X131866Y043295D01*
X131912Y043276D01*
X131955Y043253D01*
X131997Y043227D01*
X132036Y043198D01*
X132073Y043165D01*
X132107Y043130D01*
X132138Y043091D01*
X132166Y043051D01*
X132190Y043008D01*
X132211Y042964D01*
X132229Y042918D01*
X132242Y042871D01*
X132252Y042823D01*
X132258Y042774D01*
X132260Y042725D01*
X132258Y042676D01*
X132252Y042627D01*
X132242Y042579D01*
X132229Y042532D01*
X132211Y042486D01*
X132190Y042442D01*
X132166Y042399D01*
X132138Y042359D01*
X132107Y042320D01*
X132073Y042285D01*
X132036Y042252D01*
X131997Y042223D01*
X131955Y042197D01*
X131912Y042174D01*
X131866Y042155D01*
X131820Y042139D01*
X131772Y042127D01*
X131724Y042119D01*
X131675Y042115D01*
X131625Y042115D01*
X131576Y042119D01*
X131528Y042127D01*
X131480Y042139D01*
X131434Y042155D01*
X131388Y042174D01*
X131345Y042197D01*
X131303Y042223D01*
X131264Y042252D01*
X131227Y042285D01*
X131193Y042320D01*
X131162Y042359D01*
X131134Y042399D01*
X131110Y042442D01*
X131089Y042486D01*
X131071Y042532D01*
X131058Y042579D01*
X131048Y042627D01*
X131042Y042676D01*
X131040Y042725D01*
X128670Y044580D02*
X128672Y044617D01*
X128678Y044654D01*
X128687Y044690D01*
X128701Y044724D01*
X128718Y044757D01*
X128738Y044789D01*
X128761Y044818D01*
X128787Y044844D01*
X128816Y044867D01*
X128847Y044887D01*
X128881Y044904D01*
X128915Y044918D01*
X128951Y044927D01*
X128988Y044933D01*
X129025Y044935D01*
X129062Y044933D01*
X129099Y044927D01*
X129135Y044918D01*
X129169Y044904D01*
X129202Y044887D01*
X129234Y044867D01*
X129263Y044844D01*
X129289Y044818D01*
X129312Y044789D01*
X129332Y044758D01*
X129349Y044724D01*
X129363Y044690D01*
X129372Y044654D01*
X129378Y044617D01*
X129380Y044580D01*
X129378Y044543D01*
X129372Y044506D01*
X129363Y044470D01*
X129349Y044436D01*
X129332Y044403D01*
X129312Y044371D01*
X129289Y044342D01*
X129263Y044316D01*
X129234Y044293D01*
X129203Y044273D01*
X129169Y044256D01*
X129135Y044242D01*
X129099Y044233D01*
X129062Y044227D01*
X129025Y044225D01*
X128988Y044227D01*
X128951Y044233D01*
X128915Y044242D01*
X128881Y044256D01*
X128848Y044273D01*
X128816Y044293D01*
X128787Y044316D01*
X128761Y044342D01*
X128738Y044371D01*
X128718Y044402D01*
X128701Y044436D01*
X128687Y044470D01*
X128678Y044506D01*
X128672Y044543D01*
X128670Y044580D01*
X128670Y048120D02*
X128672Y048157D01*
X128678Y048194D01*
X128687Y048230D01*
X128701Y048264D01*
X128718Y048297D01*
X128738Y048329D01*
X128761Y048358D01*
X128787Y048384D01*
X128816Y048407D01*
X128847Y048427D01*
X128881Y048444D01*
X128915Y048458D01*
X128951Y048467D01*
X128988Y048473D01*
X129025Y048475D01*
X129062Y048473D01*
X129099Y048467D01*
X129135Y048458D01*
X129169Y048444D01*
X129202Y048427D01*
X129234Y048407D01*
X129263Y048384D01*
X129289Y048358D01*
X129312Y048329D01*
X129332Y048298D01*
X129349Y048264D01*
X129363Y048230D01*
X129372Y048194D01*
X129378Y048157D01*
X129380Y048120D01*
X129378Y048083D01*
X129372Y048046D01*
X129363Y048010D01*
X129349Y047976D01*
X129332Y047943D01*
X129312Y047911D01*
X129289Y047882D01*
X129263Y047856D01*
X129234Y047833D01*
X129203Y047813D01*
X129169Y047796D01*
X129135Y047782D01*
X129099Y047773D01*
X129062Y047767D01*
X129025Y047765D01*
X128988Y047767D01*
X128951Y047773D01*
X128915Y047782D01*
X128881Y047796D01*
X128848Y047813D01*
X128816Y047833D01*
X128787Y047856D01*
X128761Y047882D01*
X128738Y047911D01*
X128718Y047942D01*
X128701Y047976D01*
X128687Y048010D01*
X128678Y048046D01*
X128672Y048083D01*
X128670Y048120D01*
X122170Y048120D02*
X122172Y048157D01*
X122178Y048194D01*
X122187Y048230D01*
X122201Y048264D01*
X122218Y048297D01*
X122238Y048329D01*
X122261Y048358D01*
X122287Y048384D01*
X122316Y048407D01*
X122347Y048427D01*
X122381Y048444D01*
X122415Y048458D01*
X122451Y048467D01*
X122488Y048473D01*
X122525Y048475D01*
X122562Y048473D01*
X122599Y048467D01*
X122635Y048458D01*
X122669Y048444D01*
X122702Y048427D01*
X122734Y048407D01*
X122763Y048384D01*
X122789Y048358D01*
X122812Y048329D01*
X122832Y048298D01*
X122849Y048264D01*
X122863Y048230D01*
X122872Y048194D01*
X122878Y048157D01*
X122880Y048120D01*
X122878Y048083D01*
X122872Y048046D01*
X122863Y048010D01*
X122849Y047976D01*
X122832Y047943D01*
X122812Y047911D01*
X122789Y047882D01*
X122763Y047856D01*
X122734Y047833D01*
X122703Y047813D01*
X122669Y047796D01*
X122635Y047782D01*
X122599Y047773D01*
X122562Y047767D01*
X122525Y047765D01*
X122488Y047767D01*
X122451Y047773D01*
X122415Y047782D01*
X122381Y047796D01*
X122348Y047813D01*
X122316Y047833D01*
X122287Y047856D01*
X122261Y047882D01*
X122238Y047911D01*
X122218Y047942D01*
X122201Y047976D01*
X122187Y048010D01*
X122178Y048046D01*
X122172Y048083D01*
X122170Y048120D01*
X122170Y044580D02*
X122172Y044617D01*
X122178Y044654D01*
X122187Y044690D01*
X122201Y044724D01*
X122218Y044757D01*
X122238Y044789D01*
X122261Y044818D01*
X122287Y044844D01*
X122316Y044867D01*
X122347Y044887D01*
X122381Y044904D01*
X122415Y044918D01*
X122451Y044927D01*
X122488Y044933D01*
X122525Y044935D01*
X122562Y044933D01*
X122599Y044927D01*
X122635Y044918D01*
X122669Y044904D01*
X122702Y044887D01*
X122734Y044867D01*
X122763Y044844D01*
X122789Y044818D01*
X122812Y044789D01*
X122832Y044758D01*
X122849Y044724D01*
X122863Y044690D01*
X122872Y044654D01*
X122878Y044617D01*
X122880Y044580D01*
X122878Y044543D01*
X122872Y044506D01*
X122863Y044470D01*
X122849Y044436D01*
X122832Y044403D01*
X122812Y044371D01*
X122789Y044342D01*
X122763Y044316D01*
X122734Y044293D01*
X122703Y044273D01*
X122669Y044256D01*
X122635Y044242D01*
X122599Y044233D01*
X122562Y044227D01*
X122525Y044225D01*
X122488Y044227D01*
X122451Y044233D01*
X122415Y044242D01*
X122381Y044256D01*
X122348Y044273D01*
X122316Y044293D01*
X122287Y044316D01*
X122261Y044342D01*
X122238Y044371D01*
X122218Y044402D01*
X122201Y044436D01*
X122187Y044470D01*
X122178Y044506D01*
X122172Y044543D01*
X122170Y044580D01*
X127418Y034602D02*
X127420Y034639D01*
X127426Y034676D01*
X127435Y034712D01*
X127449Y034746D01*
X127466Y034779D01*
X127486Y034811D01*
X127509Y034840D01*
X127535Y034866D01*
X127564Y034889D01*
X127595Y034909D01*
X127629Y034926D01*
X127663Y034940D01*
X127699Y034949D01*
X127736Y034955D01*
X127773Y034957D01*
X127810Y034955D01*
X127847Y034949D01*
X127883Y034940D01*
X127917Y034926D01*
X127950Y034909D01*
X127982Y034889D01*
X128011Y034866D01*
X128037Y034840D01*
X128060Y034811D01*
X128080Y034780D01*
X128097Y034746D01*
X128111Y034712D01*
X128120Y034676D01*
X128126Y034639D01*
X128128Y034602D01*
X128126Y034565D01*
X128120Y034528D01*
X128111Y034492D01*
X128097Y034458D01*
X128080Y034425D01*
X128060Y034393D01*
X128037Y034364D01*
X128011Y034338D01*
X127982Y034315D01*
X127951Y034295D01*
X127917Y034278D01*
X127883Y034264D01*
X127847Y034255D01*
X127810Y034249D01*
X127773Y034247D01*
X127736Y034249D01*
X127699Y034255D01*
X127663Y034264D01*
X127629Y034278D01*
X127596Y034295D01*
X127564Y034315D01*
X127535Y034338D01*
X127509Y034364D01*
X127486Y034393D01*
X127466Y034424D01*
X127449Y034458D01*
X127435Y034492D01*
X127426Y034528D01*
X127420Y034565D01*
X127418Y034602D01*
X129922Y032098D02*
X129924Y032135D01*
X129930Y032172D01*
X129939Y032208D01*
X129953Y032242D01*
X129970Y032275D01*
X129990Y032307D01*
X130013Y032336D01*
X130039Y032362D01*
X130068Y032385D01*
X130099Y032405D01*
X130133Y032422D01*
X130167Y032436D01*
X130203Y032445D01*
X130240Y032451D01*
X130277Y032453D01*
X130314Y032451D01*
X130351Y032445D01*
X130387Y032436D01*
X130421Y032422D01*
X130454Y032405D01*
X130486Y032385D01*
X130515Y032362D01*
X130541Y032336D01*
X130564Y032307D01*
X130584Y032276D01*
X130601Y032242D01*
X130615Y032208D01*
X130624Y032172D01*
X130630Y032135D01*
X130632Y032098D01*
X130630Y032061D01*
X130624Y032024D01*
X130615Y031988D01*
X130601Y031954D01*
X130584Y031921D01*
X130564Y031889D01*
X130541Y031860D01*
X130515Y031834D01*
X130486Y031811D01*
X130455Y031791D01*
X130421Y031774D01*
X130387Y031760D01*
X130351Y031751D01*
X130314Y031745D01*
X130277Y031743D01*
X130240Y031745D01*
X130203Y031751D01*
X130167Y031760D01*
X130133Y031774D01*
X130100Y031791D01*
X130068Y031811D01*
X130039Y031834D01*
X130013Y031860D01*
X129990Y031889D01*
X129970Y031920D01*
X129953Y031954D01*
X129939Y031988D01*
X129930Y032024D01*
X129924Y032061D01*
X129922Y032098D01*
X128670Y028620D02*
X128672Y028657D01*
X128678Y028694D01*
X128687Y028730D01*
X128701Y028764D01*
X128718Y028797D01*
X128738Y028829D01*
X128761Y028858D01*
X128787Y028884D01*
X128816Y028907D01*
X128847Y028927D01*
X128881Y028944D01*
X128915Y028958D01*
X128951Y028967D01*
X128988Y028973D01*
X129025Y028975D01*
X129062Y028973D01*
X129099Y028967D01*
X129135Y028958D01*
X129169Y028944D01*
X129202Y028927D01*
X129234Y028907D01*
X129263Y028884D01*
X129289Y028858D01*
X129312Y028829D01*
X129332Y028798D01*
X129349Y028764D01*
X129363Y028730D01*
X129372Y028694D01*
X129378Y028657D01*
X129380Y028620D01*
X129378Y028583D01*
X129372Y028546D01*
X129363Y028510D01*
X129349Y028476D01*
X129332Y028443D01*
X129312Y028411D01*
X129289Y028382D01*
X129263Y028356D01*
X129234Y028333D01*
X129203Y028313D01*
X129169Y028296D01*
X129135Y028282D01*
X129099Y028273D01*
X129062Y028267D01*
X129025Y028265D01*
X128988Y028267D01*
X128951Y028273D01*
X128915Y028282D01*
X128881Y028296D01*
X128848Y028313D01*
X128816Y028333D01*
X128787Y028356D01*
X128761Y028382D01*
X128738Y028411D01*
X128718Y028442D01*
X128701Y028476D01*
X128687Y028510D01*
X128678Y028546D01*
X128672Y028583D01*
X128670Y028620D01*
X128670Y025080D02*
X128672Y025117D01*
X128678Y025154D01*
X128687Y025190D01*
X128701Y025224D01*
X128718Y025257D01*
X128738Y025289D01*
X128761Y025318D01*
X128787Y025344D01*
X128816Y025367D01*
X128847Y025387D01*
X128881Y025404D01*
X128915Y025418D01*
X128951Y025427D01*
X128988Y025433D01*
X129025Y025435D01*
X129062Y025433D01*
X129099Y025427D01*
X129135Y025418D01*
X129169Y025404D01*
X129202Y025387D01*
X129234Y025367D01*
X129263Y025344D01*
X129289Y025318D01*
X129312Y025289D01*
X129332Y025258D01*
X129349Y025224D01*
X129363Y025190D01*
X129372Y025154D01*
X129378Y025117D01*
X129380Y025080D01*
X129378Y025043D01*
X129372Y025006D01*
X129363Y024970D01*
X129349Y024936D01*
X129332Y024903D01*
X129312Y024871D01*
X129289Y024842D01*
X129263Y024816D01*
X129234Y024793D01*
X129203Y024773D01*
X129169Y024756D01*
X129135Y024742D01*
X129099Y024733D01*
X129062Y024727D01*
X129025Y024725D01*
X128988Y024727D01*
X128951Y024733D01*
X128915Y024742D01*
X128881Y024756D01*
X128848Y024773D01*
X128816Y024793D01*
X128787Y024816D01*
X128761Y024842D01*
X128738Y024871D01*
X128718Y024902D01*
X128701Y024936D01*
X128687Y024970D01*
X128678Y025006D01*
X128672Y025043D01*
X128670Y025080D01*
X129247Y020826D02*
X129249Y020876D01*
X129255Y020926D01*
X129265Y020975D01*
X129279Y021023D01*
X129296Y021070D01*
X129317Y021115D01*
X129342Y021159D01*
X129370Y021200D01*
X129402Y021239D01*
X129436Y021276D01*
X129473Y021310D01*
X129513Y021340D01*
X129555Y021367D01*
X129599Y021391D01*
X129645Y021412D01*
X129692Y021428D01*
X129740Y021441D01*
X129790Y021450D01*
X129839Y021455D01*
X129890Y021456D01*
X129940Y021453D01*
X129989Y021446D01*
X130038Y021435D01*
X130086Y021420D01*
X130132Y021402D01*
X130177Y021380D01*
X130220Y021354D01*
X130261Y021325D01*
X130300Y021293D01*
X130336Y021258D01*
X130368Y021220D01*
X130398Y021180D01*
X130425Y021137D01*
X130448Y021093D01*
X130467Y021047D01*
X130483Y020999D01*
X130495Y020950D01*
X130503Y020901D01*
X130507Y020851D01*
X130507Y020801D01*
X130503Y020751D01*
X130495Y020702D01*
X130483Y020653D01*
X130467Y020605D01*
X130448Y020559D01*
X130425Y020515D01*
X130398Y020472D01*
X130368Y020432D01*
X130336Y020394D01*
X130300Y020359D01*
X130261Y020327D01*
X130220Y020298D01*
X130177Y020272D01*
X130132Y020250D01*
X130086Y020232D01*
X130038Y020217D01*
X129989Y020206D01*
X129940Y020199D01*
X129890Y020196D01*
X129839Y020197D01*
X129790Y020202D01*
X129740Y020211D01*
X129692Y020224D01*
X129645Y020240D01*
X129599Y020261D01*
X129555Y020285D01*
X129513Y020312D01*
X129473Y020342D01*
X129436Y020376D01*
X129402Y020413D01*
X129370Y020452D01*
X129342Y020493D01*
X129317Y020537D01*
X129296Y020582D01*
X129279Y020629D01*
X129265Y020677D01*
X129255Y020726D01*
X129249Y020776D01*
X129247Y020826D01*
X122170Y025080D02*
X122172Y025117D01*
X122178Y025154D01*
X122187Y025190D01*
X122201Y025224D01*
X122218Y025257D01*
X122238Y025289D01*
X122261Y025318D01*
X122287Y025344D01*
X122316Y025367D01*
X122347Y025387D01*
X122381Y025404D01*
X122415Y025418D01*
X122451Y025427D01*
X122488Y025433D01*
X122525Y025435D01*
X122562Y025433D01*
X122599Y025427D01*
X122635Y025418D01*
X122669Y025404D01*
X122702Y025387D01*
X122734Y025367D01*
X122763Y025344D01*
X122789Y025318D01*
X122812Y025289D01*
X122832Y025258D01*
X122849Y025224D01*
X122863Y025190D01*
X122872Y025154D01*
X122878Y025117D01*
X122880Y025080D01*
X122878Y025043D01*
X122872Y025006D01*
X122863Y024970D01*
X122849Y024936D01*
X122832Y024903D01*
X122812Y024871D01*
X122789Y024842D01*
X122763Y024816D01*
X122734Y024793D01*
X122703Y024773D01*
X122669Y024756D01*
X122635Y024742D01*
X122599Y024733D01*
X122562Y024727D01*
X122525Y024725D01*
X122488Y024727D01*
X122451Y024733D01*
X122415Y024742D01*
X122381Y024756D01*
X122348Y024773D01*
X122316Y024793D01*
X122287Y024816D01*
X122261Y024842D01*
X122238Y024871D01*
X122218Y024902D01*
X122201Y024936D01*
X122187Y024970D01*
X122178Y025006D01*
X122172Y025043D01*
X122170Y025080D01*
X122170Y028620D02*
X122172Y028657D01*
X122178Y028694D01*
X122187Y028730D01*
X122201Y028764D01*
X122218Y028797D01*
X122238Y028829D01*
X122261Y028858D01*
X122287Y028884D01*
X122316Y028907D01*
X122347Y028927D01*
X122381Y028944D01*
X122415Y028958D01*
X122451Y028967D01*
X122488Y028973D01*
X122525Y028975D01*
X122562Y028973D01*
X122599Y028967D01*
X122635Y028958D01*
X122669Y028944D01*
X122702Y028927D01*
X122734Y028907D01*
X122763Y028884D01*
X122789Y028858D01*
X122812Y028829D01*
X122832Y028798D01*
X122849Y028764D01*
X122863Y028730D01*
X122872Y028694D01*
X122878Y028657D01*
X122880Y028620D01*
X122878Y028583D01*
X122872Y028546D01*
X122863Y028510D01*
X122849Y028476D01*
X122832Y028443D01*
X122812Y028411D01*
X122789Y028382D01*
X122763Y028356D01*
X122734Y028333D01*
X122703Y028313D01*
X122669Y028296D01*
X122635Y028282D01*
X122599Y028273D01*
X122562Y028267D01*
X122525Y028265D01*
X122488Y028267D01*
X122451Y028273D01*
X122415Y028282D01*
X122381Y028296D01*
X122348Y028313D01*
X122316Y028333D01*
X122287Y028356D01*
X122261Y028382D01*
X122238Y028411D01*
X122218Y028442D01*
X122201Y028476D01*
X122187Y028510D01*
X122178Y028546D01*
X122172Y028583D01*
X122170Y028620D01*
X115670Y028620D02*
X115672Y028657D01*
X115678Y028694D01*
X115687Y028730D01*
X115701Y028764D01*
X115718Y028797D01*
X115738Y028829D01*
X115761Y028858D01*
X115787Y028884D01*
X115816Y028907D01*
X115847Y028927D01*
X115881Y028944D01*
X115915Y028958D01*
X115951Y028967D01*
X115988Y028973D01*
X116025Y028975D01*
X116062Y028973D01*
X116099Y028967D01*
X116135Y028958D01*
X116169Y028944D01*
X116202Y028927D01*
X116234Y028907D01*
X116263Y028884D01*
X116289Y028858D01*
X116312Y028829D01*
X116332Y028798D01*
X116349Y028764D01*
X116363Y028730D01*
X116372Y028694D01*
X116378Y028657D01*
X116380Y028620D01*
X116378Y028583D01*
X116372Y028546D01*
X116363Y028510D01*
X116349Y028476D01*
X116332Y028443D01*
X116312Y028411D01*
X116289Y028382D01*
X116263Y028356D01*
X116234Y028333D01*
X116203Y028313D01*
X116169Y028296D01*
X116135Y028282D01*
X116099Y028273D01*
X116062Y028267D01*
X116025Y028265D01*
X115988Y028267D01*
X115951Y028273D01*
X115915Y028282D01*
X115881Y028296D01*
X115848Y028313D01*
X115816Y028333D01*
X115787Y028356D01*
X115761Y028382D01*
X115738Y028411D01*
X115718Y028442D01*
X115701Y028476D01*
X115687Y028510D01*
X115678Y028546D01*
X115672Y028583D01*
X115670Y028620D01*
X115670Y025080D02*
X115672Y025117D01*
X115678Y025154D01*
X115687Y025190D01*
X115701Y025224D01*
X115718Y025257D01*
X115738Y025289D01*
X115761Y025318D01*
X115787Y025344D01*
X115816Y025367D01*
X115847Y025387D01*
X115881Y025404D01*
X115915Y025418D01*
X115951Y025427D01*
X115988Y025433D01*
X116025Y025435D01*
X116062Y025433D01*
X116099Y025427D01*
X116135Y025418D01*
X116169Y025404D01*
X116202Y025387D01*
X116234Y025367D01*
X116263Y025344D01*
X116289Y025318D01*
X116312Y025289D01*
X116332Y025258D01*
X116349Y025224D01*
X116363Y025190D01*
X116372Y025154D01*
X116378Y025117D01*
X116380Y025080D01*
X116378Y025043D01*
X116372Y025006D01*
X116363Y024970D01*
X116349Y024936D01*
X116332Y024903D01*
X116312Y024871D01*
X116289Y024842D01*
X116263Y024816D01*
X116234Y024793D01*
X116203Y024773D01*
X116169Y024756D01*
X116135Y024742D01*
X116099Y024733D01*
X116062Y024727D01*
X116025Y024725D01*
X115988Y024727D01*
X115951Y024733D01*
X115915Y024742D01*
X115881Y024756D01*
X115848Y024773D01*
X115816Y024793D01*
X115787Y024816D01*
X115761Y024842D01*
X115738Y024871D01*
X115718Y024902D01*
X115701Y024936D01*
X115687Y024970D01*
X115678Y025006D01*
X115672Y025043D01*
X115670Y025080D01*
X093665Y042725D02*
X093667Y042774D01*
X093673Y042823D01*
X093683Y042871D01*
X093696Y042918D01*
X093714Y042964D01*
X093735Y043008D01*
X093759Y043051D01*
X093787Y043091D01*
X093818Y043130D01*
X093852Y043165D01*
X093889Y043198D01*
X093928Y043227D01*
X093970Y043253D01*
X094013Y043276D01*
X094059Y043295D01*
X094105Y043311D01*
X094153Y043323D01*
X094201Y043331D01*
X094250Y043335D01*
X094300Y043335D01*
X094349Y043331D01*
X094397Y043323D01*
X094445Y043311D01*
X094491Y043295D01*
X094537Y043276D01*
X094580Y043253D01*
X094622Y043227D01*
X094661Y043198D01*
X094698Y043165D01*
X094732Y043130D01*
X094763Y043091D01*
X094791Y043051D01*
X094815Y043008D01*
X094836Y042964D01*
X094854Y042918D01*
X094867Y042871D01*
X094877Y042823D01*
X094883Y042774D01*
X094885Y042725D01*
X094883Y042676D01*
X094877Y042627D01*
X094867Y042579D01*
X094854Y042532D01*
X094836Y042486D01*
X094815Y042442D01*
X094791Y042399D01*
X094763Y042359D01*
X094732Y042320D01*
X094698Y042285D01*
X094661Y042252D01*
X094622Y042223D01*
X094580Y042197D01*
X094537Y042174D01*
X094491Y042155D01*
X094445Y042139D01*
X094397Y042127D01*
X094349Y042119D01*
X094300Y042115D01*
X094250Y042115D01*
X094201Y042119D01*
X094153Y042127D01*
X094105Y042139D01*
X094059Y042155D01*
X094013Y042174D01*
X093970Y042197D01*
X093928Y042223D01*
X093889Y042252D01*
X093852Y042285D01*
X093818Y042320D01*
X093787Y042359D01*
X093759Y042399D01*
X093735Y042442D01*
X093714Y042486D01*
X093696Y042532D01*
X093683Y042579D01*
X093673Y042627D01*
X093667Y042676D01*
X093665Y042725D01*
X093902Y050100D02*
X093904Y050156D01*
X093910Y050212D01*
X093920Y050268D01*
X093933Y050322D01*
X093951Y050376D01*
X093972Y050428D01*
X093996Y050479D01*
X094025Y050528D01*
X094056Y050574D01*
X094091Y050619D01*
X094128Y050661D01*
X094169Y050700D01*
X094212Y050736D01*
X094258Y050769D01*
X094305Y050799D01*
X094355Y050825D01*
X094407Y050848D01*
X094460Y050868D01*
X094514Y050883D01*
X094569Y050895D01*
X094625Y050903D01*
X094681Y050907D01*
X094737Y050907D01*
X094793Y050903D01*
X094849Y050895D01*
X094904Y050883D01*
X094958Y050868D01*
X095011Y050848D01*
X095063Y050825D01*
X095112Y050799D01*
X095160Y050769D01*
X095206Y050736D01*
X095249Y050700D01*
X095290Y050661D01*
X095327Y050619D01*
X095362Y050574D01*
X095393Y050528D01*
X095422Y050479D01*
X095446Y050428D01*
X095467Y050376D01*
X095485Y050322D01*
X095498Y050268D01*
X095508Y050212D01*
X095514Y050156D01*
X095516Y050100D01*
X095514Y050044D01*
X095508Y049988D01*
X095498Y049932D01*
X095485Y049878D01*
X095467Y049824D01*
X095446Y049772D01*
X095422Y049721D01*
X095393Y049672D01*
X095362Y049626D01*
X095327Y049581D01*
X095290Y049539D01*
X095249Y049500D01*
X095206Y049464D01*
X095160Y049431D01*
X095113Y049401D01*
X095063Y049375D01*
X095011Y049352D01*
X094958Y049332D01*
X094904Y049317D01*
X094849Y049305D01*
X094793Y049297D01*
X094737Y049293D01*
X094681Y049293D01*
X094625Y049297D01*
X094569Y049305D01*
X094514Y049317D01*
X094460Y049332D01*
X094407Y049352D01*
X094355Y049375D01*
X094305Y049401D01*
X094258Y049431D01*
X094212Y049464D01*
X094169Y049500D01*
X094128Y049539D01*
X094091Y049581D01*
X094056Y049626D01*
X094025Y049672D01*
X093996Y049721D01*
X093972Y049772D01*
X093951Y049824D01*
X093933Y049878D01*
X093920Y049932D01*
X093910Y049988D01*
X093904Y050044D01*
X093902Y050100D01*
X097465Y050100D02*
X097467Y050162D01*
X097473Y050225D01*
X097483Y050286D01*
X097497Y050347D01*
X097514Y050407D01*
X097535Y050466D01*
X097561Y050523D01*
X097589Y050578D01*
X097621Y050632D01*
X097657Y050683D01*
X097695Y050733D01*
X097737Y050779D01*
X097781Y050823D01*
X097829Y050864D01*
X097878Y050902D01*
X097930Y050936D01*
X097984Y050967D01*
X098040Y050995D01*
X098098Y051019D01*
X098157Y051040D01*
X098217Y051056D01*
X098278Y051069D01*
X098340Y051078D01*
X098402Y051083D01*
X098465Y051084D01*
X098527Y051081D01*
X098589Y051074D01*
X098651Y051063D01*
X098711Y051048D01*
X098771Y051030D01*
X098829Y051008D01*
X098886Y050982D01*
X098941Y050952D01*
X098994Y050919D01*
X099045Y050883D01*
X099093Y050844D01*
X099139Y050801D01*
X099182Y050756D01*
X099222Y050708D01*
X099259Y050658D01*
X099293Y050605D01*
X099324Y050551D01*
X099350Y050495D01*
X099374Y050437D01*
X099393Y050377D01*
X099409Y050317D01*
X099421Y050255D01*
X099429Y050194D01*
X099433Y050131D01*
X099433Y050069D01*
X099429Y050006D01*
X099421Y049945D01*
X099409Y049883D01*
X099393Y049823D01*
X099374Y049763D01*
X099350Y049705D01*
X099324Y049649D01*
X099293Y049595D01*
X099259Y049542D01*
X099222Y049492D01*
X099182Y049444D01*
X099139Y049399D01*
X099093Y049356D01*
X099045Y049317D01*
X098994Y049281D01*
X098941Y049248D01*
X098886Y049218D01*
X098829Y049192D01*
X098771Y049170D01*
X098711Y049152D01*
X098651Y049137D01*
X098589Y049126D01*
X098527Y049119D01*
X098465Y049116D01*
X098402Y049117D01*
X098340Y049122D01*
X098278Y049131D01*
X098217Y049144D01*
X098157Y049160D01*
X098098Y049181D01*
X098040Y049205D01*
X097984Y049233D01*
X097930Y049264D01*
X097878Y049298D01*
X097829Y049336D01*
X097781Y049377D01*
X097737Y049421D01*
X097695Y049467D01*
X097657Y049517D01*
X097621Y049568D01*
X097589Y049622D01*
X097561Y049677D01*
X097535Y049734D01*
X097514Y049793D01*
X097497Y049853D01*
X097483Y049914D01*
X097473Y049975D01*
X097467Y050038D01*
X097465Y050100D01*
X101382Y050100D02*
X101384Y050156D01*
X101390Y050212D01*
X101400Y050268D01*
X101413Y050322D01*
X101431Y050376D01*
X101452Y050428D01*
X101476Y050479D01*
X101505Y050528D01*
X101536Y050574D01*
X101571Y050619D01*
X101608Y050661D01*
X101649Y050700D01*
X101692Y050736D01*
X101738Y050769D01*
X101785Y050799D01*
X101835Y050825D01*
X101887Y050848D01*
X101940Y050868D01*
X101994Y050883D01*
X102049Y050895D01*
X102105Y050903D01*
X102161Y050907D01*
X102217Y050907D01*
X102273Y050903D01*
X102329Y050895D01*
X102384Y050883D01*
X102438Y050868D01*
X102491Y050848D01*
X102543Y050825D01*
X102592Y050799D01*
X102640Y050769D01*
X102686Y050736D01*
X102729Y050700D01*
X102770Y050661D01*
X102807Y050619D01*
X102842Y050574D01*
X102873Y050528D01*
X102902Y050479D01*
X102926Y050428D01*
X102947Y050376D01*
X102965Y050322D01*
X102978Y050268D01*
X102988Y050212D01*
X102994Y050156D01*
X102996Y050100D01*
X102994Y050044D01*
X102988Y049988D01*
X102978Y049932D01*
X102965Y049878D01*
X102947Y049824D01*
X102926Y049772D01*
X102902Y049721D01*
X102873Y049672D01*
X102842Y049626D01*
X102807Y049581D01*
X102770Y049539D01*
X102729Y049500D01*
X102686Y049464D01*
X102640Y049431D01*
X102593Y049401D01*
X102543Y049375D01*
X102491Y049352D01*
X102438Y049332D01*
X102384Y049317D01*
X102329Y049305D01*
X102273Y049297D01*
X102217Y049293D01*
X102161Y049293D01*
X102105Y049297D01*
X102049Y049305D01*
X101994Y049317D01*
X101940Y049332D01*
X101887Y049352D01*
X101835Y049375D01*
X101785Y049401D01*
X101738Y049431D01*
X101692Y049464D01*
X101649Y049500D01*
X101608Y049539D01*
X101571Y049581D01*
X101536Y049626D01*
X101505Y049672D01*
X101476Y049721D01*
X101452Y049772D01*
X101431Y049824D01*
X101413Y049878D01*
X101400Y049932D01*
X101390Y049988D01*
X101384Y050044D01*
X101382Y050100D01*
X129247Y081850D02*
X129249Y081900D01*
X129255Y081950D01*
X129265Y081999D01*
X129279Y082047D01*
X129296Y082094D01*
X129317Y082139D01*
X129342Y082183D01*
X129370Y082224D01*
X129402Y082263D01*
X129436Y082300D01*
X129473Y082334D01*
X129513Y082364D01*
X129555Y082391D01*
X129599Y082415D01*
X129645Y082436D01*
X129692Y082452D01*
X129740Y082465D01*
X129790Y082474D01*
X129839Y082479D01*
X129890Y082480D01*
X129940Y082477D01*
X129989Y082470D01*
X130038Y082459D01*
X130086Y082444D01*
X130132Y082426D01*
X130177Y082404D01*
X130220Y082378D01*
X130261Y082349D01*
X130300Y082317D01*
X130336Y082282D01*
X130368Y082244D01*
X130398Y082204D01*
X130425Y082161D01*
X130448Y082117D01*
X130467Y082071D01*
X130483Y082023D01*
X130495Y081974D01*
X130503Y081925D01*
X130507Y081875D01*
X130507Y081825D01*
X130503Y081775D01*
X130495Y081726D01*
X130483Y081677D01*
X130467Y081629D01*
X130448Y081583D01*
X130425Y081539D01*
X130398Y081496D01*
X130368Y081456D01*
X130336Y081418D01*
X130300Y081383D01*
X130261Y081351D01*
X130220Y081322D01*
X130177Y081296D01*
X130132Y081274D01*
X130086Y081256D01*
X130038Y081241D01*
X129989Y081230D01*
X129940Y081223D01*
X129890Y081220D01*
X129839Y081221D01*
X129790Y081226D01*
X129740Y081235D01*
X129692Y081248D01*
X129645Y081264D01*
X129599Y081285D01*
X129555Y081309D01*
X129513Y081336D01*
X129473Y081366D01*
X129436Y081400D01*
X129402Y081437D01*
X129370Y081476D01*
X129342Y081517D01*
X129317Y081561D01*
X129296Y081606D01*
X129279Y081653D01*
X129265Y081701D01*
X129255Y081750D01*
X129249Y081800D01*
X129247Y081850D01*
D12*
X064900Y079475D02*
X059900Y079475D01*
X059900Y086725D01*
X021650Y086725D01*
X021650Y079475D01*
X016650Y079475D01*
X016650Y022725D01*
X021650Y022725D01*
X021650Y018975D01*
X030900Y018975D01*
X030900Y016225D01*
X059900Y016225D01*
X059900Y022725D01*
X064900Y022725D01*
X064900Y079475D01*
D13*
X057752Y081463D02*
X057754Y081513D01*
X057760Y081563D01*
X057770Y081612D01*
X057784Y081660D01*
X057801Y081707D01*
X057822Y081752D01*
X057847Y081796D01*
X057875Y081837D01*
X057907Y081876D01*
X057941Y081913D01*
X057978Y081947D01*
X058018Y081977D01*
X058060Y082004D01*
X058104Y082028D01*
X058150Y082049D01*
X058197Y082065D01*
X058245Y082078D01*
X058295Y082087D01*
X058344Y082092D01*
X058395Y082093D01*
X058445Y082090D01*
X058494Y082083D01*
X058543Y082072D01*
X058591Y082057D01*
X058637Y082039D01*
X058682Y082017D01*
X058725Y081991D01*
X058766Y081962D01*
X058805Y081930D01*
X058841Y081895D01*
X058873Y081857D01*
X058903Y081817D01*
X058930Y081774D01*
X058953Y081730D01*
X058972Y081684D01*
X058988Y081636D01*
X059000Y081587D01*
X059008Y081538D01*
X059012Y081488D01*
X059012Y081438D01*
X059008Y081388D01*
X059000Y081339D01*
X058988Y081290D01*
X058972Y081242D01*
X058953Y081196D01*
X058930Y081152D01*
X058903Y081109D01*
X058873Y081069D01*
X058841Y081031D01*
X058805Y080996D01*
X058766Y080964D01*
X058725Y080935D01*
X058682Y080909D01*
X058637Y080887D01*
X058591Y080869D01*
X058543Y080854D01*
X058494Y080843D01*
X058445Y080836D01*
X058395Y080833D01*
X058344Y080834D01*
X058295Y080839D01*
X058245Y080848D01*
X058197Y080861D01*
X058150Y080877D01*
X058104Y080898D01*
X058060Y080922D01*
X058018Y080949D01*
X057978Y080979D01*
X057941Y081013D01*
X057907Y081050D01*
X057875Y081089D01*
X057847Y081130D01*
X057822Y081174D01*
X057801Y081219D01*
X057784Y081266D01*
X057770Y081314D01*
X057760Y081363D01*
X057754Y081413D01*
X057752Y081463D01*
X022713Y081463D02*
X022715Y081513D01*
X022721Y081563D01*
X022731Y081612D01*
X022745Y081660D01*
X022762Y081707D01*
X022783Y081752D01*
X022808Y081796D01*
X022836Y081837D01*
X022868Y081876D01*
X022902Y081913D01*
X022939Y081947D01*
X022979Y081977D01*
X023021Y082004D01*
X023065Y082028D01*
X023111Y082049D01*
X023158Y082065D01*
X023206Y082078D01*
X023256Y082087D01*
X023305Y082092D01*
X023356Y082093D01*
X023406Y082090D01*
X023455Y082083D01*
X023504Y082072D01*
X023552Y082057D01*
X023598Y082039D01*
X023643Y082017D01*
X023686Y081991D01*
X023727Y081962D01*
X023766Y081930D01*
X023802Y081895D01*
X023834Y081857D01*
X023864Y081817D01*
X023891Y081774D01*
X023914Y081730D01*
X023933Y081684D01*
X023949Y081636D01*
X023961Y081587D01*
X023969Y081538D01*
X023973Y081488D01*
X023973Y081438D01*
X023969Y081388D01*
X023961Y081339D01*
X023949Y081290D01*
X023933Y081242D01*
X023914Y081196D01*
X023891Y081152D01*
X023864Y081109D01*
X023834Y081069D01*
X023802Y081031D01*
X023766Y080996D01*
X023727Y080964D01*
X023686Y080935D01*
X023643Y080909D01*
X023598Y080887D01*
X023552Y080869D01*
X023504Y080854D01*
X023455Y080843D01*
X023406Y080836D01*
X023356Y080833D01*
X023305Y080834D01*
X023256Y080839D01*
X023206Y080848D01*
X023158Y080861D01*
X023111Y080877D01*
X023065Y080898D01*
X023021Y080922D01*
X022979Y080949D01*
X022939Y080979D01*
X022902Y081013D01*
X022868Y081050D01*
X022836Y081089D01*
X022808Y081130D01*
X022783Y081174D01*
X022762Y081219D01*
X022745Y081266D01*
X022731Y081314D01*
X022721Y081363D01*
X022715Y081413D01*
X022713Y081463D01*
X022713Y056266D02*
X022715Y056316D01*
X022721Y056366D01*
X022731Y056415D01*
X022745Y056463D01*
X022762Y056510D01*
X022783Y056555D01*
X022808Y056599D01*
X022836Y056640D01*
X022868Y056679D01*
X022902Y056716D01*
X022939Y056750D01*
X022979Y056780D01*
X023021Y056807D01*
X023065Y056831D01*
X023111Y056852D01*
X023158Y056868D01*
X023206Y056881D01*
X023256Y056890D01*
X023305Y056895D01*
X023356Y056896D01*
X023406Y056893D01*
X023455Y056886D01*
X023504Y056875D01*
X023552Y056860D01*
X023598Y056842D01*
X023643Y056820D01*
X023686Y056794D01*
X023727Y056765D01*
X023766Y056733D01*
X023802Y056698D01*
X023834Y056660D01*
X023864Y056620D01*
X023891Y056577D01*
X023914Y056533D01*
X023933Y056487D01*
X023949Y056439D01*
X023961Y056390D01*
X023969Y056341D01*
X023973Y056291D01*
X023973Y056241D01*
X023969Y056191D01*
X023961Y056142D01*
X023949Y056093D01*
X023933Y056045D01*
X023914Y055999D01*
X023891Y055955D01*
X023864Y055912D01*
X023834Y055872D01*
X023802Y055834D01*
X023766Y055799D01*
X023727Y055767D01*
X023686Y055738D01*
X023643Y055712D01*
X023598Y055690D01*
X023552Y055672D01*
X023504Y055657D01*
X023455Y055646D01*
X023406Y055639D01*
X023356Y055636D01*
X023305Y055637D01*
X023256Y055642D01*
X023206Y055651D01*
X023158Y055664D01*
X023111Y055680D01*
X023065Y055701D01*
X023021Y055725D01*
X022979Y055752D01*
X022939Y055782D01*
X022902Y055816D01*
X022868Y055853D01*
X022836Y055892D01*
X022808Y055933D01*
X022783Y055977D01*
X022762Y056022D01*
X022745Y056069D01*
X022731Y056117D01*
X022721Y056166D01*
X022715Y056216D01*
X022713Y056266D01*
X057752Y056266D02*
X057754Y056316D01*
X057760Y056366D01*
X057770Y056415D01*
X057784Y056463D01*
X057801Y056510D01*
X057822Y056555D01*
X057847Y056599D01*
X057875Y056640D01*
X057907Y056679D01*
X057941Y056716D01*
X057978Y056750D01*
X058018Y056780D01*
X058060Y056807D01*
X058104Y056831D01*
X058150Y056852D01*
X058197Y056868D01*
X058245Y056881D01*
X058295Y056890D01*
X058344Y056895D01*
X058395Y056896D01*
X058445Y056893D01*
X058494Y056886D01*
X058543Y056875D01*
X058591Y056860D01*
X058637Y056842D01*
X058682Y056820D01*
X058725Y056794D01*
X058766Y056765D01*
X058805Y056733D01*
X058841Y056698D01*
X058873Y056660D01*
X058903Y056620D01*
X058930Y056577D01*
X058953Y056533D01*
X058972Y056487D01*
X058988Y056439D01*
X059000Y056390D01*
X059008Y056341D01*
X059012Y056291D01*
X059012Y056241D01*
X059008Y056191D01*
X059000Y056142D01*
X058988Y056093D01*
X058972Y056045D01*
X058953Y055999D01*
X058930Y055955D01*
X058903Y055912D01*
X058873Y055872D01*
X058841Y055834D01*
X058805Y055799D01*
X058766Y055767D01*
X058725Y055738D01*
X058682Y055712D01*
X058637Y055690D01*
X058591Y055672D01*
X058543Y055657D01*
X058494Y055646D01*
X058445Y055639D01*
X058395Y055636D01*
X058344Y055637D01*
X058295Y055642D01*
X058245Y055651D01*
X058197Y055664D01*
X058150Y055680D01*
X058104Y055701D01*
X058060Y055725D01*
X058018Y055752D01*
X057978Y055782D01*
X057941Y055816D01*
X057907Y055853D01*
X057875Y055892D01*
X057847Y055933D01*
X057822Y055977D01*
X057801Y056022D01*
X057784Y056069D01*
X057770Y056117D01*
X057760Y056166D01*
X057754Y056216D01*
X057752Y056266D01*
X057752Y020833D02*
X057754Y020883D01*
X057760Y020933D01*
X057770Y020982D01*
X057784Y021030D01*
X057801Y021077D01*
X057822Y021122D01*
X057847Y021166D01*
X057875Y021207D01*
X057907Y021246D01*
X057941Y021283D01*
X057978Y021317D01*
X058018Y021347D01*
X058060Y021374D01*
X058104Y021398D01*
X058150Y021419D01*
X058197Y021435D01*
X058245Y021448D01*
X058295Y021457D01*
X058344Y021462D01*
X058395Y021463D01*
X058445Y021460D01*
X058494Y021453D01*
X058543Y021442D01*
X058591Y021427D01*
X058637Y021409D01*
X058682Y021387D01*
X058725Y021361D01*
X058766Y021332D01*
X058805Y021300D01*
X058841Y021265D01*
X058873Y021227D01*
X058903Y021187D01*
X058930Y021144D01*
X058953Y021100D01*
X058972Y021054D01*
X058988Y021006D01*
X059000Y020957D01*
X059008Y020908D01*
X059012Y020858D01*
X059012Y020808D01*
X059008Y020758D01*
X059000Y020709D01*
X058988Y020660D01*
X058972Y020612D01*
X058953Y020566D01*
X058930Y020522D01*
X058903Y020479D01*
X058873Y020439D01*
X058841Y020401D01*
X058805Y020366D01*
X058766Y020334D01*
X058725Y020305D01*
X058682Y020279D01*
X058637Y020257D01*
X058591Y020239D01*
X058543Y020224D01*
X058494Y020213D01*
X058445Y020206D01*
X058395Y020203D01*
X058344Y020204D01*
X058295Y020209D01*
X058245Y020218D01*
X058197Y020231D01*
X058150Y020247D01*
X058104Y020268D01*
X058060Y020292D01*
X058018Y020319D01*
X057978Y020349D01*
X057941Y020383D01*
X057907Y020420D01*
X057875Y020459D01*
X057847Y020500D01*
X057822Y020544D01*
X057801Y020589D01*
X057784Y020636D01*
X057770Y020684D01*
X057760Y020733D01*
X057754Y020783D01*
X057752Y020833D01*
X022713Y020833D02*
X022715Y020883D01*
X022721Y020933D01*
X022731Y020982D01*
X022745Y021030D01*
X022762Y021077D01*
X022783Y021122D01*
X022808Y021166D01*
X022836Y021207D01*
X022868Y021246D01*
X022902Y021283D01*
X022939Y021317D01*
X022979Y021347D01*
X023021Y021374D01*
X023065Y021398D01*
X023111Y021419D01*
X023158Y021435D01*
X023206Y021448D01*
X023256Y021457D01*
X023305Y021462D01*
X023356Y021463D01*
X023406Y021460D01*
X023455Y021453D01*
X023504Y021442D01*
X023552Y021427D01*
X023598Y021409D01*
X023643Y021387D01*
X023686Y021361D01*
X023727Y021332D01*
X023766Y021300D01*
X023802Y021265D01*
X023834Y021227D01*
X023864Y021187D01*
X023891Y021144D01*
X023914Y021100D01*
X023933Y021054D01*
X023949Y021006D01*
X023961Y020957D01*
X023969Y020908D01*
X023973Y020858D01*
X023973Y020808D01*
X023969Y020758D01*
X023961Y020709D01*
X023949Y020660D01*
X023933Y020612D01*
X023914Y020566D01*
X023891Y020522D01*
X023864Y020479D01*
X023834Y020439D01*
X023802Y020401D01*
X023766Y020366D01*
X023727Y020334D01*
X023686Y020305D01*
X023643Y020279D01*
X023598Y020257D01*
X023552Y020239D01*
X023504Y020224D01*
X023455Y020213D01*
X023406Y020206D01*
X023356Y020203D01*
X023305Y020204D01*
X023256Y020209D01*
X023206Y020218D01*
X023158Y020231D01*
X023111Y020247D01*
X023065Y020268D01*
X023021Y020292D01*
X022979Y020319D01*
X022939Y020349D01*
X022902Y020383D01*
X022868Y020420D01*
X022836Y020459D01*
X022808Y020500D01*
X022783Y020544D01*
X022762Y020589D01*
X022745Y020636D01*
X022731Y020684D01*
X022721Y020733D01*
X022715Y020783D01*
X022713Y020833D01*
M02*
