G75*
G70*
%OFA0B0*%
%FSLAX24Y24*%
%IPPOS*%
%LPD*%
%AMOC8*
5,1,8,0,0,1.08239X$1,22.5*
%
%ADD10C,0.0150*%
%ADD11C,0.0240*%
%ADD12R,0.0500X0.0220*%
%ADD13R,0.0220X0.0500*%
%ADD14R,0.0591X0.0512*%
%ADD15C,0.0827*%
%ADD16R,0.0512X0.0630*%
%ADD17R,0.0630X0.0787*%
%ADD18R,0.0630X0.0512*%
%ADD19R,0.0787X0.0630*%
%ADD20R,0.0512X0.0591*%
%ADD21OC8,0.1000*%
%ADD22C,0.1000*%
%ADD23C,0.0832*%
%ADD24R,0.0866X0.0236*%
%ADD25C,0.1000*%
%ADD26C,0.0110*%
%ADD27C,0.1969*%
%ADD28OC8,0.0912*%
%ADD29C,0.0080*%
%ADD30C,0.0906*%
%ADD31OC8,0.0832*%
%ADD32C,0.0832*%
%ADD33R,0.0598X0.0701*%
%ADD34C,0.0906*%
%ADD35C,0.0182*%
%ADD36C,0.0982*%
%ADD37C,0.0984*%
%ADD38C,0.0070*%
%ADD39C,0.0866*%
%ADD40C,0.0100*%
%ADD41R,0.0709X0.0472*%
%ADD42R,0.0982X0.0982*%
%ADD43R,0.0982X0.0982*%
%ADD44R,0.0551X0.0709*%
%ADD45R,0.0709X0.0551*%
%ADD46C,0.2080*%
%ADD47R,0.1100X0.0900*%
%ADD48C,0.0952*%
%ADD49C,0.1500*%
%ADD50C,0.0912*%
%ADD51R,0.2441X0.2126*%
%ADD52R,0.0630X0.0394*%
%ADD53C,0.1181*%
%ADD54R,0.0630X0.1063*%
%ADD55R,0.0709X0.1772*%
%ADD56C,0.1222*%
%ADD57R,0.0709X0.0669*%
%ADD58C,0.1181*%
%ADD59C,0.0984*%
%ADD60C,0.1102*%
%ADD61R,0.1102X0.1102*%
%ADD62C,0.0912*%
%ADD63R,0.0472X0.0709*%
%ADD64R,0.0630X0.0460*%
%ADD65R,0.0832X0.0832*%
%ADD66C,0.1575*%
%ADD67R,0.0800X0.0260*%
%ADD68R,0.0600X0.0250*%
%ADD69R,0.0591X0.0394*%
%ADD70R,0.0394X0.0551*%
%ADD71R,0.0709X0.0630*%
%ADD72R,0.0709X0.0709*%
%ADD73R,0.0630X0.0709*%
%ADD74R,0.0460X0.0630*%
%ADD75R,0.0600X0.0240*%
%ADD76C,0.0500*%
%ADD77C,0.0320*%
%ADD78C,0.0160*%
%ADD79C,0.0400*%
%ADD80C,0.0860*%
%ADD81C,0.0560*%
%ADD82C,0.0660*%
%ADD83C,0.0120*%
%ADD84C,0.0118*%
%ADD85OC8,0.0827*%
%ADD86C,0.0130*%
%ADD87C,0.0394*%
%ADD88R,0.1500X0.1500*%
D10*
X100804Y016867D02*
X100945Y016725D01*
X101229Y016725D01*
X101371Y016867D01*
X101724Y016725D02*
X102008Y017009D01*
X101866Y017009D02*
X102292Y017009D01*
X102292Y016725D02*
X102292Y017576D01*
X101866Y017576D01*
X101724Y017434D01*
X101724Y017150D01*
X101866Y017009D01*
X101371Y017434D02*
X101229Y017576D01*
X100945Y017576D01*
X100804Y017434D01*
X100804Y017292D01*
X100945Y017150D01*
X100804Y017009D01*
X100804Y016867D01*
X100945Y017150D02*
X101087Y017150D01*
X103566Y017150D02*
X103566Y016867D01*
X103708Y016725D01*
X103991Y016725D01*
X104133Y016867D01*
X104133Y017150D02*
X103850Y017292D01*
X103708Y017292D01*
X103566Y017150D01*
X103566Y017576D02*
X104133Y017576D01*
X104133Y017150D01*
X104487Y016725D02*
X105054Y016725D01*
X104770Y016725D02*
X104770Y017576D01*
X105054Y017292D01*
X105408Y017150D02*
X105975Y017150D01*
X106328Y017150D02*
X106896Y017150D01*
X106470Y017576D01*
X106470Y016725D01*
X107249Y017434D02*
X107816Y016867D01*
X107816Y016725D01*
X108170Y016725D02*
X108737Y016725D01*
X108454Y016725D02*
X108454Y017576D01*
X108737Y017292D01*
X109091Y016725D02*
X109658Y016725D01*
X109374Y016725D02*
X109374Y017576D01*
X109658Y017292D01*
X107816Y017576D02*
X107249Y017576D01*
X107249Y017434D01*
D11*
X107525Y018150D02*
X110400Y018025D01*
X111400Y018025D01*
X111400Y019025D02*
X106525Y019025D01*
X106525Y020025D02*
X111400Y020025D01*
X111400Y021025D02*
X106525Y021025D01*
X106525Y022025D02*
X111400Y022025D01*
X111400Y023025D02*
X106525Y023025D01*
X106525Y024025D02*
X108150Y023775D01*
X109900Y023775D01*
X111400Y024025D01*
X111400Y025025D02*
X110525Y025025D01*
X109650Y024400D01*
X108400Y024400D01*
X107525Y025025D01*
X106525Y025025D01*
X106525Y026025D02*
X104900Y026025D01*
X105025Y028150D01*
X105025Y029150D02*
X103775Y029025D01*
X103775Y030025D02*
X105025Y030150D01*
X105025Y031150D02*
X103775Y031025D01*
X103775Y032025D02*
X105025Y032150D01*
X105025Y033150D02*
X103775Y033025D01*
X103775Y034025D02*
X105025Y034150D01*
X105025Y035150D02*
X103775Y035025D01*
X101838Y035025D02*
X100775Y035025D01*
X098400Y034400D01*
X098400Y035435D01*
X098775Y036025D02*
X100775Y036025D01*
X101025Y037150D02*
X098400Y036615D01*
X097275Y036615D02*
X095891Y037999D01*
X095891Y044525D01*
X095900Y047900D01*
X098400Y049650D01*
X098400Y052400D01*
X099775Y053775D01*
X100025Y053775D01*
X101150Y054275D01*
X101150Y053275D02*
X100150Y053025D01*
X099025Y051900D01*
X099025Y049025D01*
X096650Y047525D01*
X096650Y045150D01*
X099525Y043900D01*
X099525Y042900D02*
X098525Y042525D01*
X098525Y041650D01*
X101204Y039025D01*
X101650Y039615D02*
X101650Y040025D01*
X102900Y040025D01*
X102900Y039025D02*
X104025Y039275D01*
X104150Y040350D01*
X104150Y040400D02*
X104150Y040900D01*
X104150Y040950D02*
X104775Y040900D01*
X104775Y039525D01*
X104150Y038400D01*
X104150Y037275D01*
X104713Y036775D02*
X104713Y038400D01*
X105025Y038775D01*
X105900Y039025D01*
X107213Y039600D01*
X107275Y039650D02*
X107275Y040150D01*
X107213Y040200D02*
X105900Y040025D01*
X105900Y041025D02*
X107775Y041025D01*
X108275Y040900D02*
X108275Y039275D01*
X107650Y038525D01*
X106338Y037150D01*
X106963Y036588D02*
X108400Y038025D01*
X109400Y038025D01*
X110525Y039150D01*
X110525Y039900D01*
X110900Y040275D01*
X111900Y040275D01*
X112900Y039650D01*
X111525Y039525D02*
X110440Y037380D01*
X108713Y037150D02*
X110440Y035420D01*
X109400Y034900D02*
X110775Y034025D01*
X117150Y034025D01*
X118400Y034731D01*
X119150Y032900D01*
X119150Y031150D01*
X118150Y029275D01*
X119400Y028775D02*
X120025Y032525D01*
X120588Y032025D02*
X120588Y031400D01*
X120150Y029150D01*
X120150Y028275D01*
X120025Y027525D01*
X120525Y026900D02*
X120525Y026775D01*
X120275Y026650D01*
X119900Y026650D01*
X119150Y027275D01*
X118525Y027275D01*
X118150Y026900D01*
X117981Y024275D01*
X118650Y024025D01*
X118651Y023401D01*
X118650Y021150D01*
X116650Y021150D01*
X116025Y021525D01*
X115650Y022400D01*
X115275Y023025D01*
X114400Y023025D01*
X114400Y022025D02*
X113025Y022275D01*
X113025Y025275D01*
X113525Y025650D01*
X114525Y026150D01*
X115650Y026525D01*
X116302Y026998D01*
X118150Y031150D01*
X120588Y033150D02*
X119400Y036400D01*
X119400Y037150D01*
X118525Y038150D01*
X118400Y038275D01*
X115525Y038275D01*
X114775Y039025D01*
X114775Y040400D01*
X115400Y041025D01*
X117650Y041025D01*
X118150Y041525D01*
X118150Y042400D01*
X117650Y042900D01*
X114150Y042900D01*
X113525Y043463D01*
X113525Y044775D01*
X114025Y046025D01*
X113900Y047025D01*
X112650Y046525D01*
X111650Y046525D01*
X109588Y048588D01*
X109588Y049650D01*
X110275Y049900D02*
X109900Y050400D01*
X110275Y049900D02*
X110275Y048900D01*
X111400Y047650D01*
X112025Y047400D01*
X111713Y048275D02*
X110900Y049150D01*
X110650Y050150D01*
X110275Y051400D01*
X109650Y052025D01*
X109150Y052775D02*
X108650Y052400D01*
X109150Y052775D02*
X110400Y052775D01*
X111088Y050275D01*
X111775Y049275D01*
X111713Y048275D02*
X112775Y048150D01*
X113525Y048275D02*
X113900Y047025D01*
X114400Y047650D02*
X114275Y048150D01*
X114275Y049525D01*
X115400Y050650D01*
X115838Y052025D01*
X115900Y052900D01*
X116400Y052650D02*
X116525Y053463D01*
X116025Y054025D02*
X115900Y053900D01*
X115275Y054525D02*
X116525Y054588D01*
X117775Y054588D01*
X119025Y054588D01*
X120275Y054525D01*
X121525Y054525D01*
X121775Y055400D02*
X116400Y055400D01*
X115900Y055560D01*
X114774Y055525D01*
X114026Y055525D02*
X114025Y054525D01*
X115275Y054525D01*
X117775Y053463D02*
X117588Y052400D01*
X118150Y052025D02*
X119276Y050254D01*
X120150Y050275D02*
X120150Y050900D01*
X119088Y052025D01*
X120025Y052525D02*
X119025Y053463D01*
X119775Y054025D02*
X120275Y053525D01*
X120025Y052525D02*
X121400Y050900D01*
X122400Y050213D02*
X120150Y050275D01*
X120150Y049900D01*
X119775Y049525D01*
X117275Y049525D01*
X116525Y050025D02*
X116525Y048775D01*
X115525Y048775D01*
X115025Y049025D01*
X115025Y047025D01*
X114525Y046275D02*
X114525Y044900D01*
X114115Y043900D01*
X114525Y044900D02*
X117400Y044900D01*
X119900Y045775D01*
X119775Y046650D02*
X118775Y046025D01*
X118025Y046025D01*
X118025Y047025D01*
X117650Y047775D02*
X117025Y047025D01*
X117650Y047775D02*
X119275Y047775D01*
X120025Y048025D01*
X122400Y047900D01*
X123275Y047775D02*
X122775Y047025D01*
X121775Y047025D01*
X121400Y047400D01*
X120150Y047400D01*
X119775Y046650D01*
X120774Y046546D02*
X120775Y045525D01*
X120525Y045150D01*
X119525Y043900D01*
X118150Y043900D01*
X120275Y043650D02*
X120275Y042900D01*
X117900Y040400D01*
X115900Y040400D01*
X115525Y040025D01*
X115525Y039275D01*
X115900Y038900D01*
X119775Y038900D01*
X120275Y038275D01*
X120275Y036025D01*
X121150Y033650D01*
X121150Y032525D01*
X122150Y032525D02*
X122650Y033150D01*
X124525Y033150D01*
X124650Y033025D01*
X124150Y032525D02*
X123900Y031900D01*
X120650Y028775D01*
X120650Y028150D01*
X121150Y028400D02*
X121150Y027525D01*
X121150Y028400D02*
X124525Y031650D01*
X125525Y031650D01*
X127025Y032775D01*
X127025Y034338D01*
X126275Y035275D01*
X125275Y038150D01*
X124525Y039525D01*
X125275Y039900D02*
X126525Y036400D01*
X127775Y035400D01*
X127753Y034025D01*
X128422Y034025D02*
X129151Y034025D01*
X129150Y035150D01*
X130935Y036650D01*
X131525Y037275D02*
X131525Y035900D01*
X131775Y035400D01*
X131775Y034775D01*
X131150Y033150D01*
X130150Y033150D02*
X129899Y034025D01*
X129150Y035150D02*
X126900Y037275D01*
X128275Y038775D01*
X128650Y039150D01*
X128650Y040150D02*
X127025Y040400D01*
X126275Y039900D01*
X126150Y042525D02*
X127650Y044900D01*
X127650Y045900D01*
X127275Y047025D01*
X127275Y049525D01*
X126400Y049900D02*
X126400Y048400D01*
X126650Y047525D01*
X126150Y047025D02*
X125650Y048275D01*
X125650Y050900D01*
X127275Y051150D01*
X127713Y051525D01*
X128275Y051525D02*
X127525Y050650D01*
X127025Y050525D01*
X126400Y049900D01*
X128275Y050588D02*
X128275Y048775D01*
X128275Y047025D01*
X129525Y045525D01*
X131025Y044650D01*
X131025Y044275D01*
X131650Y044400D02*
X132650Y043150D01*
X133025Y043900D02*
X133025Y044963D01*
X130775Y046525D01*
X130275Y047025D01*
X129275Y047025D02*
X130025Y046025D01*
X131650Y045150D01*
X131650Y044400D01*
X133525Y045150D02*
X133025Y046400D01*
X133025Y049025D01*
X133150Y049650D01*
X134275Y050525D02*
X134275Y047775D01*
X133856Y046775D01*
X134025Y045775D01*
X134025Y043900D01*
X134088Y042838D01*
X134860Y043880D02*
X134860Y045440D01*
X135194Y046775D01*
X136275Y047900D02*
X136275Y041775D01*
X137338Y040588D01*
X137338Y029588D01*
X135650Y027025D01*
X135650Y025775D01*
X135900Y025525D01*
X135900Y021775D01*
X132650Y019400D01*
X116025Y019400D01*
X116775Y020525D02*
X121400Y020525D01*
X121775Y020650D01*
X130525Y020650D01*
X133150Y024275D01*
X133150Y025650D01*
X134400Y026900D01*
X134400Y027775D01*
X136025Y030275D01*
X136025Y031400D01*
X135775Y031900D01*
X135775Y033481D01*
X134525Y034025D02*
X134525Y032025D01*
X132275Y029775D01*
X125400Y029775D01*
X124150Y028400D01*
X124150Y027525D01*
X123650Y026025D01*
X123275Y025275D02*
X124150Y025275D01*
X126275Y026525D01*
X132025Y026525D01*
X131900Y025650D02*
X132900Y026275D01*
X132900Y027400D01*
X132525Y028025D01*
X131525Y028900D01*
X129968Y028853D01*
X131400Y030400D02*
X132525Y031525D01*
X131963Y032150D02*
X130838Y031900D01*
X129713Y031025D01*
X124775Y031025D01*
X122150Y028400D01*
X122150Y027525D01*
X121650Y026025D01*
X122025Y025275D02*
X122650Y026025D01*
X123275Y025275D01*
X123440Y024380D02*
X122775Y023400D01*
X120525Y023400D01*
X119650Y024275D01*
X119319Y024275D01*
X119319Y023275D02*
X120400Y021275D01*
X124275Y021275D01*
X125900Y023400D01*
X129150Y023400D01*
X129940Y024380D01*
X131275Y024150D02*
X131275Y023150D01*
X130545Y022420D01*
X131275Y024150D02*
X131900Y025650D01*
X133775Y025525D02*
X135025Y026650D01*
X135025Y027400D01*
X136650Y029775D01*
X136650Y036963D01*
X132115Y036650D02*
X132338Y038963D01*
X131838Y039900D01*
X130838Y039900D02*
X129650Y040150D01*
X129650Y039150D02*
X131525Y037275D01*
X128422Y034025D02*
X128963Y032275D01*
X126400Y033275D02*
X126400Y034400D01*
X124025Y037400D01*
X123525Y036900D02*
X125900Y034150D01*
X125900Y033525D01*
X126400Y033275D02*
X125150Y032525D01*
X123150Y032525D02*
X122650Y031525D01*
X121400Y031150D01*
X123150Y028400D02*
X125025Y030400D01*
X131400Y030400D01*
X131353Y027468D02*
X127929Y027460D01*
X126591Y027460D02*
X125650Y028775D01*
X123150Y028400D02*
X123150Y027525D01*
X122025Y025275D02*
X120525Y025275D01*
X118900Y026400D01*
X118025Y027775D02*
X119400Y028775D01*
X118025Y027775D02*
X115775Y025525D01*
X114400Y025025D01*
X114400Y024025D02*
X115400Y024025D01*
X116025Y023400D01*
X117525Y023400D01*
X117981Y023275D01*
X116940Y025521D02*
X117248Y026052D01*
X116775Y020525D02*
X114400Y021025D01*
X114400Y020025D02*
X132275Y020025D01*
X133775Y021150D01*
X133775Y025525D01*
X136400Y026525D02*
X137900Y028650D01*
X137900Y047859D01*
X136525Y049150D01*
X136525Y054775D01*
X135150Y056150D01*
X123025Y056150D01*
X123025Y053900D01*
X123775Y053525D01*
X125025Y054525D01*
X125025Y053525D02*
X124400Y052650D01*
X126525Y052650D01*
X127150Y052025D01*
X127713Y052525D02*
X128150Y053025D01*
X128150Y054025D01*
X127525Y054525D02*
X128775Y054588D01*
X130025Y054588D01*
X131275Y054588D01*
X132525Y053525D01*
X133775Y054588D01*
X134525Y054525D01*
X135150Y053900D01*
X135150Y049150D01*
X136275Y047900D01*
X132400Y048525D02*
X132400Y052275D01*
X131775Y052775D01*
X130650Y052775D01*
X130025Y053463D01*
X130650Y054025D02*
X131275Y053463D01*
X131338Y052025D02*
X131775Y051525D01*
X131775Y048900D01*
X130775Y048900D01*
X129900Y049463D01*
X129025Y049525D02*
X129150Y050525D01*
X128838Y051338D02*
X128275Y050588D01*
X128275Y051525D02*
X128275Y052025D01*
X128838Y052650D02*
X128775Y053463D01*
X129400Y052025D02*
X130275Y050525D01*
X131150Y050400D02*
X131150Y051150D01*
X130400Y052025D01*
X131150Y050400D02*
X131025Y049650D01*
X129025Y049525D02*
X129275Y047900D01*
X129275Y047025D01*
X130775Y048025D02*
X132400Y048525D01*
X126775Y046525D02*
X125400Y045775D01*
X125150Y044775D01*
X125150Y043150D01*
X125025Y042525D01*
X125588Y042588D02*
X126525Y044525D01*
X126838Y045650D01*
X124900Y046900D02*
X124525Y046025D01*
X124525Y043275D01*
X124025Y042900D01*
X121275Y042900D01*
X120900Y042525D01*
X120900Y041775D01*
X119356Y039650D01*
X116400Y039650D01*
X120694Y039650D02*
X121525Y038275D01*
X122775Y038275D01*
X122775Y036275D01*
X120275Y043650D02*
X121775Y045525D01*
X123400Y045525D01*
X124400Y047150D01*
X124400Y052650D01*
X124900Y051650D02*
X126150Y052025D01*
X124900Y051650D02*
X124900Y046900D01*
X123900Y047525D02*
X123525Y046900D01*
X122900Y046194D01*
X122900Y044856D02*
X123440Y043880D01*
X123900Y047525D02*
X123900Y051400D01*
X122525Y053150D01*
X122525Y054650D01*
X121775Y055400D01*
X123025Y056150D02*
X115400Y056150D01*
X114400Y056525D01*
X112775Y056525D01*
X112775Y054525D01*
X112150Y054150D02*
X111525Y053525D01*
X111275Y052775D01*
X111275Y051650D01*
X111650Y050400D01*
X112900Y049775D01*
X113900Y050150D02*
X113551Y048841D01*
X113525Y048775D01*
X113525Y048275D01*
X115900Y048185D02*
X116650Y048025D01*
X117650Y048275D01*
X119150Y048275D01*
X119900Y048525D01*
X121025Y048525D01*
X121525Y048775D01*
X120775Y049525D02*
X120150Y049025D01*
X119900Y049025D01*
X119025Y048775D01*
X116525Y048775D01*
X116650Y048025D02*
X116025Y047025D01*
X115650Y045775D02*
X117025Y045775D01*
X118025Y046025D01*
X115900Y049365D02*
X115900Y050400D01*
X116400Y051275D01*
X117588Y051525D02*
X116525Y050025D01*
X114400Y051025D02*
X113900Y050150D01*
X113650Y050775D02*
X112400Y050775D01*
X111900Y051025D01*
X111775Y051713D01*
X111775Y052650D01*
X112775Y053525D01*
X112650Y052400D02*
X112650Y051525D01*
X113650Y050775D02*
X114400Y051025D01*
X111525Y054525D02*
X110650Y055088D01*
X109338Y055088D01*
X108900Y055525D01*
X108900Y056213D01*
X109213Y056525D01*
X112775Y056525D01*
X111400Y055775D02*
X112150Y055025D01*
X111400Y055775D02*
X109650Y055775D01*
X108275Y055275D02*
X108650Y054650D01*
X108275Y055275D02*
X108275Y056588D01*
X108838Y057150D01*
X114650Y057150D01*
X115900Y056740D01*
X117900Y058025D02*
X119275Y058025D01*
X119275Y059275D01*
X123775Y055525D02*
X123775Y054525D01*
X123775Y055525D02*
X128150Y055525D01*
X132525Y055525D01*
X132525Y054525D01*
X127525Y054525D02*
X126275Y054525D01*
X123275Y051025D02*
X122025Y052400D01*
X123275Y051025D02*
X123275Y047775D01*
X112650Y045775D02*
X111275Y046025D01*
X107650Y049650D01*
X106588Y049650D02*
X104900Y051275D01*
X104150Y051275D01*
X104150Y050275D02*
X104900Y050275D01*
X105650Y049400D01*
X104900Y048650D02*
X104150Y049275D01*
X103650Y048150D02*
X102900Y048900D01*
X102900Y050525D01*
X102400Y049650D02*
X101150Y049275D01*
X099775Y048150D01*
X099775Y045400D01*
X101525Y044150D01*
X101525Y042400D01*
X100525Y041900D01*
X101650Y041400D02*
X101650Y040025D01*
X101650Y041400D02*
X102275Y042025D01*
X102900Y042025D01*
X104400Y042025D01*
X104400Y042850D01*
X104400Y043450D02*
X104400Y044151D01*
X104400Y044899D02*
X105275Y044900D01*
X105900Y044025D01*
X106775Y045025D01*
X107525Y046275D01*
X107525Y047400D01*
X106775Y048150D01*
X107650Y048650D02*
X111025Y045275D01*
X112025Y044525D01*
X112935Y043900D01*
X110440Y043880D02*
X109694Y042963D01*
X109025Y043463D02*
X109025Y041275D01*
X108775Y040525D01*
X108775Y038900D01*
X108275Y038525D01*
X106775Y038275D02*
X105900Y038025D01*
X105650Y036400D02*
X106025Y035775D01*
X108025Y035150D02*
X109400Y034900D01*
X109775Y033525D02*
X109025Y031525D01*
X108025Y031150D01*
X108025Y030150D02*
X107150Y030275D01*
X108025Y032150D02*
X107150Y032400D01*
X108025Y033150D02*
X107275Y033650D01*
X102275Y031400D02*
X100775Y031025D01*
X100775Y032025D02*
X099338Y032025D01*
X098400Y031588D02*
X098400Y030650D01*
X099338Y030025D01*
X099713Y029025D01*
X100775Y029025D01*
X101025Y028400D01*
X102400Y025275D01*
X103525Y025025D01*
X103525Y024025D02*
X102525Y024025D01*
X098900Y028775D01*
X098650Y029150D01*
X098150Y029740D02*
X097650Y030400D01*
X097650Y033025D01*
X100775Y033025D01*
X100775Y034025D02*
X099650Y034025D01*
X099150Y033650D01*
X098150Y033650D01*
X097275Y034025D01*
X096900Y033650D01*
X096900Y029963D01*
X097588Y029150D01*
X098150Y028560D02*
X098400Y028150D01*
X102275Y023025D01*
X103525Y023025D01*
X103525Y022025D02*
X102025Y022025D01*
X101400Y021025D02*
X103525Y021025D01*
X103525Y022025D02*
X104900Y022400D01*
X104900Y018150D01*
X107525Y018150D01*
X103525Y019025D02*
X102525Y019400D01*
X102025Y020025D01*
X101400Y021025D02*
X100650Y023900D01*
X096150Y029650D01*
X096150Y035275D01*
X096900Y036025D01*
X097275Y035435D02*
X097275Y034025D01*
X101025Y037150D02*
X099525Y039588D01*
X101650Y038435D02*
X101838Y038025D01*
X102900Y038025D01*
X102900Y041025D02*
X104150Y040950D01*
X104400Y042025D02*
X105900Y042025D01*
X105900Y041025D01*
X108275Y040900D02*
X108356Y041106D01*
X108356Y042963D01*
X108025Y044338D01*
X109150Y044150D02*
X109025Y043463D01*
X109150Y044150D02*
X109150Y044963D01*
X108525Y045525D01*
X107963Y045525D01*
X102900Y043025D02*
X102900Y042025D01*
X102400Y049650D02*
X102400Y051525D01*
X102775Y053900D01*
X102775Y054275D02*
X102150Y054650D01*
X102150Y055275D01*
X101150Y055275D01*
X100775Y055275D01*
X099650Y054650D01*
X102222Y053894D02*
X102275Y053150D01*
X102150Y052650D01*
X101150Y052275D01*
X101150Y050275D02*
X099838Y050275D01*
X097400Y050275D02*
X097400Y052650D01*
X098963Y057525D01*
X104650Y057525D01*
X106650Y055775D01*
X105650Y055400D02*
X107650Y053900D01*
X108900Y053900D01*
X109525Y054400D01*
X110525Y054150D01*
X109650Y053525D02*
X108650Y053400D01*
X108150Y053025D01*
X106900Y052775D02*
X106275Y052775D01*
X104775Y054150D01*
X104150Y054275D01*
X104150Y053275D02*
X104650Y053275D01*
X106150Y052025D01*
X106650Y052025D01*
X106650Y051025D02*
X104525Y052275D01*
X104150Y052275D01*
X105650Y054275D02*
X106650Y053525D01*
X105650Y054275D02*
X104650Y055275D01*
X104150Y055275D01*
X104150Y056275D02*
X103025Y056275D01*
X102275Y057025D01*
X100275Y057025D01*
X099650Y056650D01*
X103025Y056275D02*
X103025Y055400D01*
X102828Y054906D01*
X103150Y054525D01*
X096400Y058025D02*
X095275Y058025D01*
X095275Y056900D01*
X122900Y074650D02*
X123525Y074650D01*
X122900Y074650D02*
X122900Y075275D01*
X122900Y077650D02*
X122900Y078275D01*
X122150Y078275D01*
X120275Y078275D02*
X119275Y078275D01*
X119275Y077275D01*
X129525Y074650D02*
X130150Y074650D01*
X130150Y075025D01*
X130150Y077775D02*
X130150Y078275D01*
X131525Y078275D01*
X132525Y080525D01*
X135275Y080525D01*
X135275Y076525D01*
X135900Y076525D01*
X138525Y076525D02*
X139275Y076525D01*
X139275Y075275D01*
X102713Y027400D02*
X103525Y026025D01*
X104900Y026025D02*
X104900Y022400D01*
X096275Y019275D02*
X096275Y015275D01*
X098150Y015275D01*
X096275Y019275D02*
X095275Y019275D01*
X095275Y020400D01*
X059588Y028150D02*
X059576Y031900D01*
X059025Y031025D02*
X057650Y031025D01*
X056799Y031025D01*
X056799Y031525D02*
X057088Y031525D01*
X057463Y031650D01*
X058474Y031900D01*
X059025Y031025D02*
X059025Y033025D01*
X059047Y033775D01*
X059025Y034775D01*
X057650Y034775D01*
X056774Y034775D02*
X056799Y032025D01*
X057650Y032775D01*
X057650Y033775D01*
X058378Y033775D01*
X056025Y033440D02*
X055985Y032775D01*
X055963Y030525D01*
X056799Y030525D01*
X056806Y029025D01*
X056306Y028922D01*
X053650Y028900D01*
X053650Y028525D01*
X053650Y028900D02*
X053650Y029525D01*
X052775Y029776D01*
X052775Y030524D02*
X052338Y030900D01*
X052338Y032650D01*
X052315Y033275D01*
X052338Y034275D01*
X054401Y034775D02*
X054400Y033650D01*
X055150Y033440D02*
X056025Y033440D01*
X056025Y034110D02*
X056026Y034775D01*
X055149Y034775D02*
X055150Y034110D01*
X055315Y032775D02*
X054751Y032025D01*
X055525Y032025D01*
X055525Y030400D01*
X055463Y029650D01*
X056806Y029025D02*
X057650Y029025D01*
X058525Y029151D01*
X058525Y029899D02*
X057650Y030025D01*
X057650Y031025D01*
X054751Y031525D02*
X054150Y031525D01*
X053650Y032275D01*
X053650Y030525D02*
X052775Y030524D01*
X056306Y028253D02*
X056275Y027024D01*
X056275Y026276D02*
X057650Y026275D01*
X057650Y027275D01*
X057900Y028150D02*
X056306Y028253D01*
X055463Y027713D02*
X055525Y025650D01*
X056400Y025275D02*
X057650Y025275D01*
X057900Y028150D02*
X059588Y028150D01*
X060333Y067967D02*
X059900Y068650D01*
X060025Y070775D01*
X060400Y071150D01*
X060943Y071150D01*
X062025Y071149D01*
X062025Y070401D02*
X061025Y070401D01*
X061025Y069775D01*
X061025Y070401D02*
X061025Y070650D01*
X060943Y070650D01*
X060943Y072150D02*
X062185Y072150D01*
X062275Y072060D01*
X061775Y073650D02*
X060943Y073650D01*
X060943Y074150D02*
X061775Y074150D01*
X061775Y073650D01*
X061775Y074150D02*
X061775Y075150D01*
X060943Y075150D01*
X056983Y075150D02*
X056983Y075227D01*
X056900Y075685D01*
X056983Y074150D02*
X056400Y074150D01*
X056025Y073650D01*
X055524Y073650D01*
X055524Y073150D02*
X056983Y073150D01*
X055524Y072150D02*
X055524Y071400D01*
X056900Y070568D02*
X056983Y070650D01*
X056900Y070568D02*
X056900Y068775D01*
X060333Y067967D02*
X062025Y067967D01*
X061651Y068833D02*
X060900Y068775D01*
X053401Y072150D02*
X052615Y072150D01*
X052024Y073650D02*
X053401Y073650D01*
X053401Y075150D02*
X052413Y075150D01*
X052338Y075075D01*
X051462Y075088D01*
X050713Y074837D02*
X050713Y074463D01*
X051276Y073650D01*
X053401Y075650D02*
X052338Y076714D01*
X052338Y076975D01*
X051462Y077025D01*
X053145Y078588D02*
X053368Y078482D01*
X053900Y080150D02*
X053838Y080213D01*
X053645Y080213D01*
X139275Y021150D02*
X139275Y019275D01*
X135275Y019275D01*
X135275Y015275D01*
X133150Y015275D01*
D12*
X042965Y042298D03*
X042965Y042613D03*
X042965Y042928D03*
X042965Y043243D03*
X042965Y043557D03*
X042965Y043872D03*
X042965Y044187D03*
X042965Y044502D03*
X039585Y044502D03*
X039585Y044187D03*
X039585Y043872D03*
X039585Y043557D03*
X039585Y043243D03*
X039585Y042928D03*
X039585Y042613D03*
X039585Y042298D03*
D13*
X040173Y041710D03*
X040488Y041710D03*
X040803Y041710D03*
X041118Y041710D03*
X041432Y041710D03*
X041747Y041710D03*
X042062Y041710D03*
X042377Y041710D03*
X042377Y045090D03*
X042062Y045090D03*
X041747Y045090D03*
X041432Y045090D03*
X041118Y045090D03*
X040803Y045090D03*
X040488Y045090D03*
X040173Y045090D03*
D14*
X036588Y042547D03*
X036588Y041878D03*
X055150Y034110D03*
X055150Y033440D03*
X056025Y033440D03*
X056025Y034110D03*
X056306Y028922D03*
X056306Y028253D03*
X070338Y027922D03*
X070338Y027253D03*
X077088Y026047D03*
X077088Y025378D03*
X078088Y025378D03*
X078088Y026047D03*
X078275Y032190D03*
X078275Y032860D03*
X074525Y032753D03*
X074525Y033422D03*
X031900Y017985D03*
X031900Y017315D03*
D15*
X053650Y028525D03*
X053650Y029525D03*
X053650Y030525D03*
X053650Y032275D03*
X053650Y033275D03*
X053650Y034275D03*
X057650Y033775D03*
X057650Y032775D03*
X057650Y031025D03*
X057650Y030025D03*
X057650Y029025D03*
X057650Y027275D03*
X057650Y026275D03*
X057650Y025275D03*
X066400Y024775D03*
X066400Y025775D03*
X066400Y026775D03*
X066400Y028525D03*
X066400Y029525D03*
X066400Y030525D03*
X066400Y032275D03*
X066400Y033275D03*
X066400Y034275D03*
X071338Y034463D03*
X071338Y033463D03*
X071338Y032463D03*
X071588Y030588D03*
X071588Y029588D03*
X071588Y028588D03*
X071463Y026713D03*
X071463Y025713D03*
X071463Y024713D03*
X063775Y018900D03*
X063775Y017900D03*
X063775Y016900D03*
X068150Y016525D03*
X068900Y016025D03*
X068150Y015525D03*
X057650Y034775D03*
X044231Y050900D03*
X035525Y062900D03*
X033525Y062900D03*
X037775Y075775D03*
X039775Y075775D03*
X056900Y068775D03*
X060900Y068775D03*
X059650Y064900D03*
X058650Y064900D03*
X058650Y063900D03*
X059650Y063900D03*
X060650Y063900D03*
X057650Y063900D03*
X056650Y063900D03*
X056650Y064900D03*
X057650Y064900D03*
X068150Y062025D03*
X068650Y061275D03*
X069150Y062025D03*
X099650Y056650D03*
X099650Y054650D03*
X106650Y053525D03*
X106650Y052025D03*
X106650Y051025D03*
X106588Y049650D03*
X109588Y049650D03*
X109650Y051025D03*
X109650Y052025D03*
X109650Y053525D03*
X109650Y055775D03*
X106650Y055775D03*
X113838Y052025D03*
X114838Y052025D03*
X115838Y052025D03*
X116963Y052025D03*
X118150Y052025D03*
X119088Y052025D03*
X119025Y047025D03*
X118025Y047025D03*
X117025Y047025D03*
X116025Y047025D03*
X115025Y047025D03*
X113900Y047025D03*
X112650Y045775D03*
X115650Y045775D03*
X126150Y047025D03*
X127275Y047025D03*
X128275Y047025D03*
X129275Y047025D03*
X130275Y047025D03*
X131275Y047025D03*
X131338Y052025D03*
X130400Y052025D03*
X129400Y052025D03*
X128275Y052025D03*
X127150Y052025D03*
X126150Y052025D03*
X125150Y032525D03*
X124150Y032525D03*
X123150Y032525D03*
X122150Y032525D03*
X121150Y032525D03*
X120025Y032525D03*
X120025Y027525D03*
X121150Y027525D03*
X122150Y027525D03*
X123150Y027525D03*
X124150Y027525D03*
X125150Y027525D03*
X123650Y026025D03*
X122650Y026025D03*
X121650Y026025D03*
X116025Y023400D03*
X116025Y019400D03*
X102025Y020025D03*
X102025Y022025D03*
X099338Y030025D03*
X099338Y032025D03*
D16*
X079712Y025088D03*
X078963Y025088D03*
X076337Y025088D03*
X075588Y025088D03*
X068524Y020150D03*
X067776Y020150D03*
X056274Y022150D03*
X055526Y022150D03*
X053149Y031650D03*
X052401Y031650D03*
X054401Y034775D03*
X055149Y034775D03*
X056026Y034775D03*
X056774Y034775D03*
X064838Y033338D03*
X065587Y033338D03*
X035274Y037775D03*
X034526Y037775D03*
X068026Y055400D03*
X068774Y055400D03*
X052774Y063275D03*
X052026Y063275D03*
X053026Y067025D03*
X053774Y067025D03*
X035399Y065150D03*
X034651Y065150D03*
X031649Y060775D03*
X030901Y060775D03*
X030776Y075400D03*
X031524Y075400D03*
X114026Y055525D03*
X114774Y055525D03*
X129151Y034025D03*
X129899Y034025D03*
D17*
X069264Y035025D03*
X068161Y035025D03*
X059576Y031900D03*
X058474Y031900D03*
D18*
X058525Y029899D03*
X058525Y029151D03*
X056275Y027024D03*
X056275Y026276D03*
X052775Y029776D03*
X052775Y030524D03*
X044275Y025149D03*
X044275Y024401D03*
X049275Y021024D03*
X049275Y020276D03*
X050275Y020274D03*
X050275Y019526D03*
X036900Y025276D03*
X036900Y026024D03*
X032900Y033401D03*
X032900Y034149D03*
X069338Y029337D03*
X069338Y028588D03*
X074963Y030588D03*
X074963Y031337D03*
X075775Y033026D03*
X075775Y033774D03*
X077838Y030087D03*
X077838Y029338D03*
X104400Y044151D03*
X104400Y044899D03*
X062025Y070401D03*
X062025Y071149D03*
X049525Y070901D03*
X049525Y071649D03*
X049275Y072651D03*
X049275Y073399D03*
D19*
X073088Y034264D03*
X073088Y033161D03*
X077338Y029389D03*
X077338Y028286D03*
X058900Y019326D03*
X058900Y018224D03*
X045213Y026661D03*
X045213Y027764D03*
D20*
X052315Y033275D03*
X052985Y033275D03*
X055315Y032775D03*
X055985Y032775D03*
X058378Y033775D03*
X059047Y033775D03*
X055524Y071400D03*
X054776Y071400D03*
X052024Y073650D03*
X051276Y073650D03*
X051462Y075088D03*
X050713Y075088D03*
X050713Y077025D03*
X051462Y077025D03*
X127753Y034025D03*
X128422Y034025D03*
D21*
X069525Y064650D03*
X047275Y061400D03*
D22*
X047275Y059400D03*
X069525Y067650D03*
X128400Y063775D03*
X132400Y063775D03*
X132400Y058775D03*
X128400Y058775D03*
D23*
X129609Y068400D02*
X130441Y068400D01*
X130441Y070400D02*
X129609Y070400D01*
X104566Y056275D02*
X103734Y056275D01*
X103734Y055275D02*
X104566Y055275D01*
X104566Y054275D02*
X103734Y054275D01*
X103734Y053275D02*
X104566Y053275D01*
X104566Y052275D02*
X103734Y052275D01*
X103734Y051275D02*
X104566Y051275D01*
X104566Y050275D02*
X103734Y050275D01*
X103734Y049275D02*
X104566Y049275D01*
X101566Y049275D02*
X100734Y049275D01*
X100734Y050275D02*
X101566Y050275D01*
X101566Y051275D02*
X100734Y051275D01*
X100734Y052275D02*
X101566Y052275D01*
X101566Y053275D02*
X100734Y053275D01*
X100734Y054275D02*
X101566Y054275D01*
X101566Y055275D02*
X100734Y055275D01*
X100734Y056275D02*
X101566Y056275D01*
X102484Y044025D02*
X103316Y044025D01*
X103316Y043025D02*
X102484Y043025D01*
X105484Y043025D02*
X106316Y043025D01*
X106316Y042025D02*
X105484Y042025D01*
X105484Y041025D02*
X106316Y041025D01*
X106316Y040025D02*
X105484Y040025D01*
X105484Y039025D02*
X106316Y039025D01*
X106316Y038025D02*
X105484Y038025D01*
X103316Y038025D02*
X102484Y038025D01*
X102484Y039025D02*
X103316Y039025D01*
X103316Y040025D02*
X102484Y040025D01*
X103359Y036025D02*
X104191Y036025D01*
X104609Y035150D02*
X105441Y035150D01*
X105441Y034150D02*
X104609Y034150D01*
X104191Y034025D02*
X103359Y034025D01*
X103359Y033025D02*
X104191Y033025D01*
X104609Y033150D02*
X105441Y033150D01*
X105441Y032150D02*
X104609Y032150D01*
X104191Y032025D02*
X103359Y032025D01*
X103359Y031025D02*
X104191Y031025D01*
X104609Y031150D02*
X105441Y031150D01*
X105441Y030150D02*
X104609Y030150D01*
X104191Y030025D02*
X103359Y030025D01*
X103359Y029025D02*
X104191Y029025D01*
X104609Y029150D02*
X105441Y029150D01*
X105441Y028150D02*
X104609Y028150D01*
X103941Y026025D02*
X103109Y026025D01*
X103109Y025025D02*
X103941Y025025D01*
X103941Y024025D02*
X103109Y024025D01*
X103109Y023025D02*
X103941Y023025D01*
X103941Y022025D02*
X103109Y022025D01*
X103109Y021025D02*
X103941Y021025D01*
X103941Y020025D02*
X103109Y020025D01*
X103109Y019025D02*
X103941Y019025D01*
X106109Y019025D02*
X106941Y019025D01*
X106941Y020025D02*
X106109Y020025D01*
X106109Y021025D02*
X106941Y021025D01*
X106941Y022025D02*
X106109Y022025D01*
X106109Y023025D02*
X106941Y023025D01*
X106941Y024025D02*
X106109Y024025D01*
X106109Y025025D02*
X106941Y025025D01*
X106941Y026025D02*
X106109Y026025D01*
X107609Y028150D02*
X108441Y028150D01*
X108441Y029150D02*
X107609Y029150D01*
X107609Y030150D02*
X108441Y030150D01*
X108441Y031150D02*
X107609Y031150D01*
X107609Y032150D02*
X108441Y032150D01*
X108441Y033150D02*
X107609Y033150D01*
X107609Y034150D02*
X108441Y034150D01*
X108441Y035150D02*
X107609Y035150D01*
X104191Y035025D02*
X103359Y035025D01*
X101191Y035025D02*
X100359Y035025D01*
X100359Y034025D02*
X101191Y034025D01*
X101191Y033025D02*
X100359Y033025D01*
X100359Y032025D02*
X101191Y032025D01*
X101191Y031025D02*
X100359Y031025D01*
X100359Y030025D02*
X101191Y030025D01*
X101191Y029025D02*
X100359Y029025D01*
X100359Y036025D02*
X101191Y036025D01*
X105484Y044025D02*
X106316Y044025D01*
X110984Y025025D02*
X111816Y025025D01*
X111816Y024025D02*
X110984Y024025D01*
X110984Y023025D02*
X111816Y023025D01*
X111816Y022025D02*
X110984Y022025D01*
X110984Y021025D02*
X111816Y021025D01*
X111816Y020025D02*
X110984Y020025D01*
X110984Y019025D02*
X111816Y019025D01*
X111816Y018025D02*
X110984Y018025D01*
X113984Y018025D02*
X114816Y018025D01*
X114816Y019025D02*
X113984Y019025D01*
X113984Y020025D02*
X114816Y020025D01*
X114816Y021025D02*
X113984Y021025D01*
X113984Y022025D02*
X114816Y022025D01*
X114816Y023025D02*
X113984Y023025D01*
X113984Y024025D02*
X114816Y024025D01*
X114816Y025025D02*
X113984Y025025D01*
X060816Y021400D02*
X059984Y021400D01*
X057816Y021400D02*
X056984Y021400D01*
X051650Y040359D02*
X051650Y041191D01*
X050650Y041191D02*
X050650Y040359D01*
X049650Y040359D02*
X049650Y041191D01*
X048650Y041191D02*
X048650Y040359D01*
X047650Y040359D02*
X047650Y041191D01*
X046650Y041191D02*
X046650Y040359D01*
X045650Y040359D02*
X045650Y041191D01*
X044650Y041191D02*
X044650Y040359D01*
X044650Y043359D02*
X044650Y044191D01*
X045650Y044191D02*
X045650Y043359D01*
X046650Y043359D02*
X046650Y044191D01*
X047650Y044191D02*
X047650Y043359D01*
X048650Y043359D02*
X048650Y044191D01*
X049650Y044191D02*
X049650Y043359D01*
X050650Y043359D02*
X050650Y044191D01*
X051650Y044191D02*
X051650Y043359D01*
X052234Y065650D02*
X053066Y065650D01*
X050066Y065650D02*
X049234Y065650D01*
X049253Y067463D02*
X048422Y067463D01*
X046253Y067463D02*
X045422Y067463D01*
D24*
X054751Y032025D03*
X054751Y031525D03*
X054751Y031025D03*
X054751Y030525D03*
X056799Y030525D03*
X056799Y031025D03*
X056799Y031525D03*
X056799Y032025D03*
X068001Y031650D03*
X068001Y031150D03*
X068001Y030650D03*
X068001Y030150D03*
X070049Y030150D03*
X070049Y030650D03*
X070049Y031150D03*
X070049Y031650D03*
D25*
X037400Y019400D02*
X036400Y017525D01*
X033900Y017525D01*
X024150Y050525D02*
X020400Y050525D01*
X019525Y052900D02*
X018150Y052275D01*
X019525Y052900D02*
X021835Y056775D01*
X024150Y054525D01*
X018885Y056775D02*
X018150Y054275D01*
X016400Y053400D01*
X016400Y050525D01*
X015935Y056775D02*
X015400Y058900D01*
X015400Y061275D01*
X017025Y066025D01*
X017775Y066025D01*
X017775Y071650D01*
X022525Y071650D02*
X026275Y070900D01*
X022525Y071650D02*
X022525Y066025D01*
X023275Y066025D01*
X022525Y066025D02*
X021650Y066025D01*
X018900Y066025D02*
X017775Y066025D01*
X018900Y060025D02*
X017025Y059775D01*
X018900Y060025D02*
X021650Y060025D01*
X023275Y059775D01*
X120050Y067025D02*
X120050Y068025D01*
X122050Y068025D02*
X122050Y067025D01*
X126250Y067025D02*
X126250Y068025D01*
X128250Y068025D02*
X128250Y067025D01*
X128250Y071025D02*
X128250Y072025D01*
X126250Y072025D02*
X126250Y071025D01*
X122050Y071025D02*
X122050Y072025D01*
X120050Y072025D02*
X120050Y071025D01*
D26*
X123346Y071130D02*
X123740Y071130D01*
X123543Y071130D02*
X123543Y071721D01*
X123740Y071524D01*
X123990Y071721D02*
X124384Y071721D01*
X124384Y071130D01*
X124635Y071228D02*
X124733Y071130D01*
X124930Y071130D01*
X125029Y071228D01*
X124832Y071425D02*
X124733Y071425D01*
X124635Y071327D01*
X124635Y071228D01*
X124733Y071425D02*
X124635Y071524D01*
X124635Y071622D01*
X124733Y071721D01*
X124930Y071721D01*
X125029Y071622D01*
X124384Y071425D02*
X124187Y071425D01*
X124259Y067846D02*
X123865Y067846D01*
X123615Y067747D02*
X123516Y067846D01*
X123319Y067846D01*
X123221Y067747D01*
X123221Y067649D01*
X123615Y067255D01*
X123221Y067255D01*
X124062Y067550D02*
X124259Y067550D01*
X124510Y067452D02*
X124510Y067353D01*
X124608Y067255D01*
X124805Y067255D01*
X124904Y067353D01*
X124707Y067550D02*
X124608Y067550D01*
X124510Y067452D01*
X124608Y067550D02*
X124510Y067649D01*
X124510Y067747D01*
X124608Y067846D01*
X124805Y067846D01*
X124904Y067747D01*
X124259Y067846D02*
X124259Y067255D01*
X125555Y061838D02*
X125555Y061444D01*
X125555Y061641D02*
X126146Y061641D01*
X125949Y061444D01*
X126047Y061193D02*
X126146Y061095D01*
X126146Y060898D01*
X126047Y060800D01*
X125653Y060800D01*
X125555Y060898D01*
X125555Y061095D01*
X125653Y061193D01*
X125653Y060549D02*
X125555Y060450D01*
X125555Y060253D01*
X125653Y060155D01*
X125850Y060352D02*
X125850Y060450D01*
X125752Y060549D01*
X125653Y060549D01*
X125850Y060450D02*
X125949Y060549D01*
X126047Y060549D01*
X126146Y060450D01*
X126146Y060253D01*
X126047Y060155D01*
X130043Y059096D02*
X130043Y058505D01*
X130240Y058505D02*
X129846Y058505D01*
X130240Y058899D02*
X130043Y059096D01*
X130490Y058505D02*
X130884Y058505D01*
X130884Y059096D01*
X137655Y059545D02*
X137753Y059446D01*
X137655Y059545D02*
X137655Y059742D01*
X137753Y059840D01*
X137852Y059840D01*
X137950Y059742D01*
X137950Y059643D01*
X137950Y059742D02*
X138049Y059840D01*
X138147Y059840D01*
X138246Y059742D01*
X138246Y059545D01*
X138147Y059446D01*
X138147Y060091D02*
X137753Y060091D01*
X137655Y060189D01*
X137655Y060386D01*
X137753Y060485D01*
X137655Y060735D02*
X138049Y061129D01*
X138147Y061129D01*
X138246Y061031D01*
X138246Y060834D01*
X138147Y060735D01*
X138147Y060485D02*
X138246Y060386D01*
X138246Y060189D01*
X138147Y060091D01*
X137655Y060735D02*
X137655Y061129D01*
D27*
X022525Y071650D03*
X017775Y071650D03*
D28*
X018900Y066025D03*
X021650Y066025D03*
X026275Y063400D03*
X021650Y060025D03*
X018900Y060025D03*
X026275Y059400D03*
X039400Y048775D03*
X040400Y048775D03*
X040400Y047775D03*
X039400Y047775D03*
X039400Y046775D03*
X028775Y039400D03*
X028775Y037275D03*
X022775Y037275D03*
X020775Y036150D03*
X022775Y039400D03*
X020775Y042150D03*
X022775Y032150D03*
X022775Y030025D03*
X020900Y027025D03*
X023150Y024900D03*
X023150Y022650D03*
X020900Y021025D03*
X026995Y019900D03*
X028075Y019900D03*
X029155Y019900D03*
X030235Y019900D03*
X031315Y019900D03*
X032395Y019900D03*
X033475Y019900D03*
X034555Y019900D03*
X034015Y018900D03*
X032935Y018900D03*
X031855Y018900D03*
X030775Y018900D03*
X029695Y018900D03*
X028615Y018900D03*
X027535Y018900D03*
X029150Y022650D03*
X029150Y024900D03*
X028775Y030025D03*
X028775Y032150D03*
X099525Y041900D03*
X100525Y041900D03*
X100525Y042900D03*
X099525Y042900D03*
X099525Y043900D03*
X125025Y057900D03*
X125025Y063900D03*
X137025Y063025D03*
X137025Y057025D03*
X129650Y040150D03*
X128650Y040150D03*
X128650Y039150D03*
X035055Y078775D03*
X033975Y078775D03*
X032895Y078775D03*
X031815Y078775D03*
X030735Y078775D03*
X029655Y078775D03*
X028575Y078775D03*
X027495Y078775D03*
X028035Y079775D03*
X029115Y079775D03*
X030195Y079775D03*
X031275Y079775D03*
X032355Y079775D03*
X033435Y079775D03*
X034515Y079775D03*
D29*
X129644Y071285D02*
X129925Y071285D01*
X129784Y071285D02*
X129784Y070865D01*
X130105Y070865D02*
X130245Y071005D01*
X130175Y071005D02*
X130385Y071005D01*
X130385Y070865D02*
X130385Y071285D01*
X130175Y071285D01*
X130105Y071215D01*
X130105Y071075D01*
X130175Y071005D01*
D30*
X044103Y071400D02*
X043197Y071400D01*
X043197Y070400D02*
X044103Y070400D01*
X044103Y072400D02*
X043197Y072400D01*
X036275Y056978D02*
X036275Y056072D01*
X035275Y056072D02*
X035275Y056978D01*
X034275Y056978D02*
X034275Y056072D01*
X030400Y056322D02*
X030400Y057228D01*
X029400Y057228D02*
X029400Y056322D01*
X028400Y056322D02*
X028400Y057228D01*
X017728Y040400D02*
X016822Y040400D01*
X016822Y039400D02*
X017728Y039400D01*
X017728Y038400D02*
X016822Y038400D01*
X016822Y033150D02*
X017728Y033150D01*
X017728Y032150D02*
X016822Y032150D01*
X016822Y031150D02*
X017728Y031150D01*
X017728Y025900D02*
X016822Y025900D01*
X016822Y024900D02*
X017728Y024900D01*
X017728Y023900D02*
X016822Y023900D01*
D31*
X042975Y055275D03*
X047338Y064213D03*
X046525Y069900D03*
X046525Y071825D03*
X033650Y075400D03*
X026275Y072900D03*
X026275Y070900D03*
X105650Y055400D03*
X111525Y054525D03*
X111525Y053525D03*
X112775Y053525D03*
X112775Y054525D03*
X114025Y054525D03*
X114025Y053525D03*
X115275Y053525D03*
X115275Y054525D03*
X116525Y054588D03*
X116525Y053463D03*
X117775Y053463D03*
X117775Y054588D03*
X119025Y054588D03*
X119025Y053463D03*
X120275Y053525D03*
X120275Y054525D03*
X121525Y054525D03*
X121525Y053525D03*
X123775Y053525D03*
X123775Y054525D03*
X125025Y054525D03*
X125025Y053525D03*
X126275Y053525D03*
X126275Y054525D03*
X127525Y054525D03*
X127525Y053525D03*
X128775Y053463D03*
X128775Y054588D03*
X130025Y054588D03*
X130025Y053463D03*
X131275Y053463D03*
X131275Y054588D03*
X132525Y054525D03*
X132525Y053525D03*
X133775Y053463D03*
X133775Y054588D03*
X131838Y039900D03*
X130838Y039900D03*
X126275Y039900D03*
X125275Y039900D03*
X130150Y033150D03*
X131150Y033150D03*
X111525Y039525D03*
X109525Y039525D03*
X105650Y049400D03*
D32*
X052338Y075075D03*
X052338Y076975D03*
X046525Y073225D03*
X046525Y068900D03*
X047338Y066213D03*
X034650Y075400D03*
X041575Y055275D03*
D33*
X033604Y037775D03*
X033604Y036775D03*
X033604Y035775D03*
X029946Y035775D03*
X029946Y036775D03*
X029946Y037775D03*
X030196Y029400D03*
X030196Y028400D03*
X030196Y027400D03*
X032196Y025275D03*
X032196Y024275D03*
X032196Y023275D03*
X035854Y023275D03*
X035854Y024275D03*
X035854Y025275D03*
X033854Y027400D03*
X033854Y028400D03*
X033854Y029400D03*
D34*
X028150Y027025D03*
X024150Y027025D03*
X023775Y034275D03*
X027775Y034275D03*
X027775Y041525D03*
X023775Y041525D03*
X025400Y050525D03*
X027400Y050525D03*
X026150Y066025D03*
X026150Y068025D03*
X051900Y069775D03*
X061025Y069775D03*
X052142Y079358D03*
X052142Y080396D03*
X051095Y080396D03*
X051095Y079358D03*
X097400Y050275D03*
X099838Y050275D03*
X107963Y045525D03*
X108025Y044338D03*
X112025Y047400D03*
X112775Y048150D03*
X111775Y049275D03*
X112900Y049775D03*
X112650Y051525D03*
X112650Y052400D03*
X114400Y051025D03*
X115025Y049025D03*
X116650Y048025D03*
X117275Y049525D03*
X121525Y048775D03*
X122400Y047900D03*
X122400Y050213D03*
X121400Y050900D03*
X122025Y052400D03*
X124400Y052650D03*
X125650Y050900D03*
X127275Y049525D03*
X128275Y048775D03*
X129275Y047900D03*
X130775Y048025D03*
X129900Y049463D03*
X130275Y050525D03*
X129150Y050525D03*
X131025Y049650D03*
X133150Y049650D03*
X134275Y050525D03*
X128150Y055525D03*
X125400Y045775D03*
X126838Y045650D03*
X119900Y045775D03*
X116400Y039650D03*
X112900Y039650D03*
X108713Y037150D03*
X105650Y036400D03*
X101025Y037150D03*
X099525Y039588D03*
X098400Y034400D03*
X097650Y033025D03*
X098400Y031588D03*
X109775Y033525D03*
X118150Y031150D03*
X118150Y029275D03*
X119400Y028775D03*
X118900Y026400D03*
X125650Y028775D03*
X121400Y031150D03*
X128963Y032275D03*
X132025Y026525D03*
X136400Y026525D03*
X095891Y044525D03*
X110525Y054150D03*
X108650Y054650D03*
X055463Y029650D03*
X055463Y027713D03*
D35*
X021876Y034019D02*
X021785Y033928D01*
X021657Y034202D01*
X021760Y034485D01*
X022034Y034613D01*
X022317Y034510D01*
X022445Y034236D01*
X022342Y033953D01*
X022068Y033825D01*
X021785Y033928D01*
X021885Y034037D01*
X021805Y034209D01*
X021869Y034385D01*
X022041Y034465D01*
X022217Y034401D01*
X022297Y034229D01*
X022233Y034053D01*
X022061Y033973D01*
X021885Y034037D01*
X021986Y034147D01*
X021953Y034216D01*
X021979Y034284D01*
X022048Y034317D01*
X022116Y034291D01*
X022149Y034222D01*
X022123Y034154D01*
X022054Y034121D01*
X021986Y034147D01*
X019824Y028381D02*
X019733Y028290D01*
X019605Y028564D01*
X019708Y028847D01*
X019982Y028975D01*
X020265Y028872D01*
X020393Y028598D01*
X020290Y028315D01*
X020016Y028187D01*
X019733Y028290D01*
X019833Y028399D01*
X019753Y028571D01*
X019817Y028747D01*
X019989Y028827D01*
X020165Y028763D01*
X020245Y028591D01*
X020181Y028415D01*
X020009Y028335D01*
X019833Y028399D01*
X019934Y028509D01*
X019901Y028578D01*
X019927Y028646D01*
X019996Y028679D01*
X020064Y028653D01*
X020097Y028584D01*
X020071Y028516D01*
X020002Y028483D01*
X019934Y028509D01*
D36*
X020909Y043900D02*
X021891Y043900D01*
X021891Y045900D02*
X020909Y045900D01*
X017516Y045900D02*
X016534Y045900D01*
X016534Y043900D02*
X017516Y043900D01*
X017659Y052275D02*
X018641Y052275D01*
X018641Y054275D02*
X017659Y054275D01*
X120784Y058775D02*
X121766Y058775D01*
X121766Y060775D02*
X120784Y060775D01*
X120784Y062775D02*
X121766Y062775D01*
X121766Y064775D02*
X120784Y064775D01*
D37*
X134533Y064525D02*
X135517Y064525D01*
X137533Y064525D02*
X138517Y064525D01*
X138517Y066525D02*
X137533Y066525D01*
X135517Y066525D02*
X134533Y066525D01*
X134533Y068525D02*
X135517Y068525D01*
X137533Y068525D02*
X138517Y068525D01*
X138517Y074525D02*
X137533Y074525D01*
X135517Y074525D02*
X134533Y074525D01*
D38*
X136058Y070161D02*
X136058Y069570D01*
X136255Y069570D02*
X135861Y069570D01*
X136255Y069964D02*
X136058Y070161D01*
X136469Y070161D02*
X136862Y069767D01*
X136764Y069865D02*
X136469Y069570D01*
X136862Y069570D02*
X136862Y070161D01*
X137273Y070161D02*
X137273Y069570D01*
X137470Y069570D02*
X137076Y069570D01*
X137470Y069964D02*
X137273Y070161D01*
D39*
X133150Y067958D02*
X133150Y067092D01*
X132150Y067092D02*
X132150Y067958D01*
X132467Y074525D02*
X133333Y074525D01*
X133333Y075525D02*
X132467Y075525D01*
X049275Y058083D02*
X049275Y057217D01*
X048275Y057217D02*
X048275Y058083D01*
X046025Y057958D02*
X046025Y057092D01*
X045025Y057092D02*
X045025Y057958D01*
D40*
X115900Y053900D02*
X115900Y052900D01*
X116025Y054025D02*
X119775Y054025D01*
X117588Y052400D02*
X117588Y051525D01*
X127713Y051525D02*
X127713Y052525D01*
X128838Y052650D02*
X128838Y051338D01*
X128150Y054025D02*
X130650Y054025D01*
X130767Y067110D02*
X130580Y067297D01*
X130394Y067110D01*
X130394Y067670D01*
X130767Y067670D02*
X130767Y067110D01*
X131001Y067203D02*
X131095Y067110D01*
X131282Y067110D01*
X131375Y067203D01*
X131282Y067390D02*
X131095Y067390D01*
X131001Y067297D01*
X131001Y067203D01*
X131282Y067390D02*
X131375Y067484D01*
X131375Y067577D01*
X131282Y067670D01*
X131095Y067670D01*
X131001Y067577D01*
X131525Y072912D02*
X131898Y072912D01*
X132132Y073005D02*
X132132Y073565D01*
X132506Y073565D02*
X132506Y073005D01*
X132319Y073192D01*
X132132Y073005D01*
X132740Y073098D02*
X132740Y073472D01*
X132833Y073565D01*
X133020Y073565D01*
X133114Y073472D01*
X133114Y073098D01*
X133020Y073005D01*
X132833Y073005D01*
X132740Y073098D01*
X133348Y073285D02*
X133441Y073192D01*
X133721Y073192D01*
X133721Y073005D02*
X133721Y073565D01*
X133441Y073565D01*
X133348Y073472D01*
X133348Y073285D01*
X131290Y073379D02*
X131197Y073285D01*
X131010Y073285D01*
X130917Y073192D01*
X130917Y073098D01*
X131010Y073005D01*
X131197Y073005D01*
X131290Y073098D01*
X131290Y073379D02*
X131290Y073472D01*
X131197Y073565D01*
X131010Y073565D01*
X130917Y073472D01*
X130683Y073565D02*
X130683Y073005D01*
X130496Y073192D01*
X130309Y073005D01*
X130309Y073565D01*
D41*
G36*
X103212Y055088D02*
X102848Y054482D01*
X102444Y054724D01*
X102808Y055330D01*
X103212Y055088D01*
G37*
G36*
X102606Y054076D02*
X102242Y053470D01*
X101838Y053712D01*
X102202Y054318D01*
X102606Y054076D01*
G37*
X112935Y043900D03*
X114115Y043900D03*
X130935Y036650D03*
X132115Y036650D03*
X052615Y072150D03*
X051435Y072150D03*
D42*
X110440Y043880D03*
X110440Y041920D03*
X115360Y041920D03*
X116940Y041920D03*
X116940Y043880D03*
X115360Y043880D03*
X121860Y043880D03*
X123440Y043880D03*
X123440Y041920D03*
X121860Y041920D03*
X128360Y041920D03*
X129940Y041920D03*
X129940Y043880D03*
X128360Y043880D03*
X134860Y043880D03*
X134860Y041920D03*
X121860Y037380D03*
X121860Y035420D03*
X116940Y035420D03*
X115360Y035420D03*
X115360Y037380D03*
X116940Y037380D03*
X110440Y037380D03*
X110440Y035420D03*
X116940Y024380D03*
X116940Y022420D03*
X121860Y022420D03*
X123440Y022420D03*
X123440Y024380D03*
X121860Y024380D03*
X128360Y024380D03*
X129940Y024380D03*
X129940Y022420D03*
X128360Y022420D03*
X134860Y022420D03*
X134860Y024380D03*
D43*
G36*
X130659Y027468D02*
X131353Y028162D01*
X132047Y027468D01*
X131353Y026774D01*
X130659Y027468D01*
G37*
G36*
X129274Y028853D02*
X129968Y029547D01*
X130662Y028853D01*
X129968Y028159D01*
X129274Y028853D01*
G37*
G36*
X132753Y032332D02*
X133447Y033026D01*
X134141Y032332D01*
X133447Y031638D01*
X132753Y032332D01*
G37*
G36*
X134138Y030947D02*
X134832Y031641D01*
X135526Y030947D01*
X134832Y030253D01*
X134138Y030947D01*
G37*
G36*
X133447Y033274D02*
X132753Y033968D01*
X133447Y034662D01*
X134141Y033968D01*
X133447Y033274D01*
G37*
G36*
X134832Y034659D02*
X134138Y035353D01*
X134832Y036047D01*
X135526Y035353D01*
X134832Y034659D01*
G37*
G36*
X129968Y036753D02*
X129274Y037447D01*
X129968Y038141D01*
X130662Y037447D01*
X129968Y036753D01*
G37*
G36*
X129026Y037447D02*
X128332Y036753D01*
X127638Y037447D01*
X128332Y038141D01*
X129026Y037447D01*
G37*
G36*
X127641Y038832D02*
X126947Y038138D01*
X126253Y038832D01*
X126947Y039526D01*
X127641Y038832D01*
G37*
G36*
X131353Y038138D02*
X130659Y038832D01*
X131353Y039526D01*
X132047Y038832D01*
X131353Y038138D01*
G37*
G36*
X125547Y033968D02*
X124853Y033274D01*
X124159Y033968D01*
X124853Y034662D01*
X125547Y033968D01*
G37*
G36*
X124162Y035353D02*
X123468Y034659D01*
X122774Y035353D01*
X123468Y036047D01*
X124162Y035353D01*
G37*
D44*
X120694Y039650D03*
X119356Y039650D03*
X109694Y042963D03*
X108356Y042963D03*
G36*
X116247Y026554D02*
X115858Y026943D01*
X116357Y027442D01*
X116746Y027053D01*
X116247Y026554D01*
G37*
G36*
X117193Y025608D02*
X116804Y025997D01*
X117303Y026496D01*
X117692Y026107D01*
X117193Y025608D01*
G37*
X117981Y024275D03*
X117981Y023275D03*
X119319Y023275D03*
X119319Y024275D03*
X126591Y027460D03*
X127929Y027460D03*
X133856Y046775D03*
X135194Y046775D03*
X058694Y024275D03*
X058819Y023025D03*
X057481Y023025D03*
X057356Y024275D03*
X054069Y069650D03*
X052731Y069650D03*
X050194Y079400D03*
X048856Y079400D03*
D45*
X118400Y036069D03*
X118400Y034731D03*
X122900Y044856D03*
X122900Y046194D03*
X135775Y034819D03*
X135775Y033481D03*
X068275Y023319D03*
X068275Y021981D03*
X067525Y019069D03*
X066150Y019444D03*
X066150Y018106D03*
X067525Y017731D03*
X063775Y020606D03*
X063775Y021944D03*
D46*
X037335Y019400D03*
X024215Y019400D03*
X024715Y079275D03*
X037835Y079275D03*
D47*
X047525Y025831D03*
X047525Y024219D03*
X038775Y022456D03*
X038775Y020844D03*
D48*
X024150Y050525D03*
X020400Y050525D03*
X016400Y050525D03*
X024150Y054525D03*
X036900Y066400D03*
X036900Y070400D03*
X119276Y050254D03*
X120774Y046546D03*
D49*
X039275Y059275D03*
X039275Y061275D03*
X039275Y063275D03*
X039275Y065275D03*
X039275Y067275D03*
X039275Y069275D03*
X039275Y071275D03*
X039275Y073275D03*
X029275Y073275D03*
X029275Y065275D03*
X029275Y063275D03*
X029275Y061275D03*
X029275Y059275D03*
D50*
X042694Y059400D02*
X043606Y059400D01*
X043606Y060400D02*
X042694Y060400D01*
X042694Y061400D02*
X043606Y061400D01*
X043606Y065275D02*
X042694Y065275D01*
X042694Y066275D02*
X043606Y066275D01*
X043606Y067275D02*
X042694Y067275D01*
D51*
X040791Y022525D03*
X051916Y021275D03*
D52*
X054790Y020377D03*
X054790Y022173D03*
X043665Y021627D03*
X043665Y023423D03*
D53*
X024775Y056184D02*
X024775Y057366D01*
X021835Y057366D02*
X021835Y056184D01*
X018885Y056184D02*
X018885Y057366D01*
X015935Y057366D02*
X015935Y056184D01*
X109908Y029900D02*
X109912Y030047D01*
X109922Y030193D01*
X109940Y030339D01*
X109965Y030484D01*
X109998Y030627D01*
X110037Y030769D01*
X110083Y030908D01*
X110136Y031045D01*
X110195Y031179D01*
X110261Y031310D01*
X110334Y031438D01*
X110412Y031562D01*
X110497Y031682D01*
X110587Y031798D01*
X110683Y031909D01*
X110784Y032016D01*
X110891Y032117D01*
X111002Y032213D01*
X111118Y032303D01*
X111238Y032388D01*
X111362Y032466D01*
X111490Y032539D01*
X111621Y032605D01*
X111755Y032664D01*
X111892Y032717D01*
X112031Y032763D01*
X112173Y032802D01*
X112316Y032835D01*
X112461Y032860D01*
X112607Y032878D01*
X112753Y032888D01*
X112900Y032892D01*
X113047Y032888D01*
X113193Y032878D01*
X113339Y032860D01*
X113484Y032835D01*
X113627Y032802D01*
X113769Y032763D01*
X113908Y032717D01*
X114045Y032664D01*
X114179Y032605D01*
X114310Y032539D01*
X114438Y032466D01*
X114562Y032388D01*
X114682Y032303D01*
X114798Y032213D01*
X114909Y032117D01*
X115016Y032016D01*
X115117Y031909D01*
X115213Y031798D01*
X115303Y031682D01*
X115388Y031562D01*
X115466Y031438D01*
X115539Y031310D01*
X115605Y031179D01*
X115664Y031045D01*
X115717Y030908D01*
X115763Y030769D01*
X115802Y030627D01*
X115835Y030484D01*
X115860Y030339D01*
X115878Y030193D01*
X115888Y030047D01*
X115892Y029900D01*
X115888Y029753D01*
X115878Y029607D01*
X115860Y029461D01*
X115835Y029316D01*
X115802Y029173D01*
X115763Y029031D01*
X115717Y028892D01*
X115664Y028755D01*
X115605Y028621D01*
X115539Y028490D01*
X115466Y028362D01*
X115388Y028238D01*
X115303Y028118D01*
X115213Y028002D01*
X115117Y027891D01*
X115016Y027784D01*
X114909Y027683D01*
X114798Y027587D01*
X114682Y027497D01*
X114562Y027412D01*
X114438Y027334D01*
X114310Y027261D01*
X114179Y027195D01*
X114045Y027136D01*
X113908Y027083D01*
X113769Y027037D01*
X113627Y026998D01*
X113484Y026965D01*
X113339Y026940D01*
X113193Y026922D01*
X113047Y026912D01*
X112900Y026908D01*
X112753Y026912D01*
X112607Y026922D01*
X112461Y026940D01*
X112316Y026965D01*
X112173Y026998D01*
X112031Y027037D01*
X111892Y027083D01*
X111755Y027136D01*
X111621Y027195D01*
X111490Y027261D01*
X111362Y027334D01*
X111238Y027412D01*
X111118Y027497D01*
X111002Y027587D01*
X110891Y027683D01*
X110784Y027784D01*
X110683Y027891D01*
X110587Y028002D01*
X110497Y028118D01*
X110412Y028238D01*
X110334Y028362D01*
X110261Y028490D01*
X110195Y028621D01*
X110136Y028755D01*
X110083Y028892D01*
X110037Y029031D01*
X109998Y029173D01*
X109965Y029316D01*
X109940Y029461D01*
X109922Y029607D01*
X109912Y029753D01*
X109908Y029900D01*
D54*
X069326Y014025D03*
X068224Y014025D03*
D55*
X035525Y066275D03*
X034525Y066275D03*
X033525Y066275D03*
X032525Y066275D03*
X032525Y070275D03*
X033525Y070275D03*
X034525Y070275D03*
X035525Y070275D03*
D56*
X034275Y052625D03*
X028775Y052625D03*
X018925Y039400D03*
X018925Y032150D03*
X018925Y024900D03*
D57*
X040593Y069275D03*
X042207Y069275D03*
X042082Y073275D03*
X040468Y073275D03*
D58*
X036025Y077650D03*
X033900Y077650D03*
X049280Y081400D03*
X054020Y081400D03*
X023275Y066025D03*
X017025Y066025D03*
X017025Y059775D03*
X023275Y059775D03*
X023775Y045900D03*
X025400Y045900D03*
X020025Y034400D03*
X022025Y023775D03*
X025650Y021150D03*
X030275Y023775D03*
D59*
X036213Y050900D03*
D60*
X040102Y019324D02*
X040881Y018545D01*
X039881Y017553D02*
X039102Y018332D01*
X042456Y018497D02*
X042456Y017395D01*
X044039Y018549D02*
X044818Y019328D01*
X045791Y018332D02*
X045011Y017553D01*
X047602Y018332D02*
X048381Y017553D01*
X049381Y018545D02*
X048602Y019324D01*
X050956Y018497D02*
X050956Y017395D01*
X052539Y018549D02*
X053318Y019328D01*
X054291Y018332D02*
X053511Y017553D01*
D61*
X052932Y014012D03*
X051947Y014012D03*
X049976Y014012D03*
X048992Y014012D03*
X044432Y014012D03*
X043447Y014012D03*
X041476Y014012D03*
X040492Y014012D03*
D62*
X040400Y046775D03*
X100525Y043900D03*
X129650Y039150D03*
D63*
X115900Y048185D03*
X115900Y049365D03*
X115900Y055560D03*
X115900Y056740D03*
X101650Y039615D03*
X101650Y038435D03*
X098400Y036615D03*
X097275Y036615D03*
X097275Y035435D03*
X098400Y035435D03*
X098150Y029740D03*
X098150Y028560D03*
X060025Y018490D03*
X060025Y017310D03*
X062275Y072060D03*
X062275Y073240D03*
X056900Y075685D03*
X056900Y076865D03*
D64*
X104400Y043450D03*
X104400Y042850D03*
X104150Y040950D03*
X104150Y040350D03*
X107213Y040200D03*
X107213Y039600D03*
X062150Y021700D03*
X062150Y021100D03*
X061150Y020075D03*
X061150Y019475D03*
D65*
X102900Y041025D03*
X102900Y042025D03*
D66*
X131900Y071838D03*
X121088Y074150D03*
D67*
X060943Y074150D03*
X060943Y073650D03*
X060943Y073150D03*
X060943Y072650D03*
X060943Y072150D03*
X060943Y071650D03*
X060943Y071150D03*
X060943Y070650D03*
X056983Y070650D03*
X056983Y071150D03*
X056983Y071650D03*
X056983Y072150D03*
X056983Y072650D03*
X056983Y073150D03*
X056983Y073650D03*
X056983Y074150D03*
X056983Y074650D03*
X056983Y075150D03*
X060943Y075150D03*
X060943Y074650D03*
D68*
X055524Y074650D03*
X055524Y075150D03*
X055524Y075650D03*
X055524Y074150D03*
X055524Y073650D03*
X055524Y073150D03*
X055524Y072650D03*
X055524Y072150D03*
X053401Y072150D03*
X053401Y072650D03*
X053401Y073150D03*
X053401Y073650D03*
X053401Y074150D03*
X053401Y074650D03*
X053401Y075150D03*
X053401Y075650D03*
D69*
X053145Y078588D03*
X052405Y078588D03*
X052905Y080213D03*
X053645Y080213D03*
D70*
X061651Y068833D03*
X062399Y068833D03*
X062025Y067967D03*
D71*
X054900Y069599D03*
X054900Y070701D03*
D72*
X053990Y070650D03*
X052810Y070650D03*
X058185Y068025D03*
X059365Y068025D03*
D73*
X062599Y015400D03*
X063701Y015400D03*
D74*
X049950Y016900D03*
X049350Y016900D03*
X047450Y022525D03*
X046850Y022525D03*
D75*
X046070Y021650D03*
X046070Y021150D03*
X046070Y020650D03*
X046070Y020150D03*
X048230Y020150D03*
X048230Y020650D03*
X048230Y021150D03*
X048230Y021650D03*
D76*
X024275Y019400D02*
X024275Y017400D01*
X030525Y017400D01*
X030775Y017650D01*
X030775Y018900D01*
X029695Y018900D02*
X028615Y018900D01*
X027535Y018900D01*
X026275Y018900D01*
X025900Y019525D01*
X025650Y021150D01*
X026525Y022650D02*
X024150Y022650D01*
X024150Y023900D01*
X023150Y024900D01*
X022025Y023775D02*
X020900Y021025D01*
X017275Y023900D01*
X017275Y025900D02*
X020900Y027025D01*
X024150Y027025D01*
X023275Y028525D02*
X024025Y028775D01*
X027900Y028775D01*
X030196Y027400D01*
X028150Y027025D02*
X027650Y025900D01*
X027650Y024150D01*
X029150Y022650D01*
X030275Y023775D02*
X032196Y023275D01*
X032196Y025275D02*
X030025Y025275D01*
X029150Y024900D01*
X026525Y022650D02*
X028025Y021275D01*
X028075Y019900D01*
X026995Y019900D01*
X028075Y019900D02*
X029155Y019900D01*
X033475Y019900D02*
X034555Y019900D01*
X034025Y017525D02*
X036400Y017525D01*
X040492Y014012D01*
X042463Y014012D01*
X042456Y017946D01*
X044429Y018938D01*
X043665Y021627D01*
X040492Y018934D02*
X038775Y020844D01*
X042463Y014012D02*
X044432Y014012D01*
X024150Y022650D02*
X023150Y022650D01*
X023275Y028525D02*
X021400Y028525D01*
X019999Y028581D01*
X017275Y031150D01*
X020025Y034400D02*
X022051Y034219D01*
X023775Y034275D01*
X022400Y035775D02*
X021525Y036150D01*
X020775Y036150D01*
X017275Y038400D01*
X020775Y042150D02*
X023775Y041525D01*
X027275Y040150D02*
X027275Y038400D01*
X028775Y037275D01*
X029946Y037775D02*
X028775Y039400D01*
X027275Y040150D02*
X027775Y041525D01*
X025400Y045900D02*
X023775Y045900D01*
X021400Y045900D01*
X022400Y035775D02*
X029946Y035775D01*
X027775Y034275D02*
X027275Y033150D01*
X027275Y031150D01*
X028775Y030025D01*
X029275Y059275D02*
X026275Y059400D01*
X023275Y059775D01*
X026275Y063400D02*
X026150Y066025D01*
X026150Y068025D02*
X029275Y071150D01*
X029275Y073275D01*
X036025Y077650D02*
X036025Y079275D01*
X035525Y079775D01*
X034515Y079775D01*
X033435Y079775D02*
X032355Y079775D01*
X028575Y078775D02*
X027495Y078775D01*
X049280Y081400D02*
X049525Y081400D01*
X051088Y081400D01*
X051095Y080396D01*
X051088Y081400D02*
X054020Y081400D01*
X134832Y035353D02*
X135775Y034819D01*
D77*
X133900Y036400D02*
X136400Y038275D01*
X056900Y076865D02*
X054775Y076865D01*
X054525Y077115D01*
X054525Y080520D01*
X054020Y081400D01*
X052905Y080213D02*
X052325Y080213D01*
X052142Y080396D01*
X052142Y079358D02*
X052405Y079095D01*
X052405Y078588D01*
X050713Y077712D02*
X050713Y077025D01*
X050713Y075088D01*
X050713Y074837D01*
X051276Y073650D02*
X051276Y072434D01*
X051435Y072150D01*
X049900Y072525D02*
X051900Y069775D01*
X052731Y069650D01*
X054069Y069650D02*
X053990Y070650D01*
X054900Y070701D02*
X054776Y071400D01*
X054900Y069599D02*
X054069Y069650D01*
X049900Y072525D02*
X049900Y077400D01*
X048856Y078444D01*
X048856Y079400D01*
X049525Y078900D02*
X050713Y077712D01*
X049525Y078900D02*
X049525Y081400D01*
X035055Y078775D02*
X033975Y078775D01*
X032895Y078775D01*
X033435Y079775D02*
X034515Y079775D01*
X033604Y036775D02*
X031900Y036775D01*
X031900Y028400D01*
X033854Y028400D01*
X035150Y028400D01*
X035150Y026525D01*
X034025Y025775D01*
X034025Y024275D01*
X035854Y024275D01*
X034015Y018900D02*
X034025Y018890D01*
X034025Y017525D01*
X033940Y017315D01*
X031900Y017315D01*
X031110Y017315D01*
X030775Y017650D01*
X031900Y017985D02*
X031855Y018900D01*
D78*
X053650Y030525D02*
X054150Y031025D01*
X054751Y031025D01*
X096900Y036025D02*
X098775Y036025D01*
X101838Y035025D02*
X101838Y038025D01*
X102275Y037275D02*
X104150Y037275D01*
X104713Y036775D02*
X102713Y036775D01*
X102713Y027400D01*
X098650Y029150D02*
X097588Y029150D01*
X102275Y031400D02*
X102275Y037275D01*
X102900Y039025D02*
X101204Y039025D01*
X106338Y037150D02*
X106338Y034400D01*
X107150Y032400D01*
X107275Y033650D02*
X106650Y034650D01*
X106650Y036900D01*
X108275Y038525D01*
X107775Y039275D02*
X106775Y038275D01*
X107775Y039275D02*
X107775Y041025D01*
X106963Y036588D02*
X106963Y034838D01*
X108025Y034150D01*
X106025Y034025D02*
X106775Y031025D01*
X107150Y030275D01*
X123525Y036900D02*
X123525Y040150D01*
X125025Y042525D01*
X125588Y042588D02*
X124025Y040088D01*
X124025Y037400D01*
X124525Y039525D02*
X124525Y040025D01*
X126150Y042525D01*
X131025Y044275D02*
X132525Y042275D01*
X132963Y041338D01*
X132963Y040338D01*
X132713Y039838D01*
X132713Y036338D01*
X132150Y034650D01*
X132150Y032650D01*
X131963Y032150D01*
X132525Y031525D02*
X132525Y034463D01*
X133025Y035525D01*
X133025Y036713D01*
X133088Y037150D01*
X133088Y039775D01*
X133275Y040150D01*
X133275Y041775D01*
X132650Y043150D01*
X133025Y043900D02*
X133588Y041775D01*
X133588Y040025D01*
X133400Y039650D01*
X133400Y038525D01*
X134213Y038025D01*
X134213Y037213D01*
X133525Y036838D01*
X133525Y035025D01*
X134525Y034025D01*
X134775Y034275D02*
X135775Y033481D01*
X134775Y034275D02*
X133900Y035150D01*
X133900Y036400D01*
X136650Y036963D02*
X136900Y038088D01*
X136900Y040213D01*
X135525Y041150D01*
X134213Y041150D01*
X134213Y041588D01*
X134088Y042838D01*
X133900Y041900D02*
X133525Y043900D01*
X133525Y045150D01*
X133900Y041900D02*
X133900Y040775D01*
X135400Y040775D01*
X136400Y040025D01*
X136400Y038275D01*
X125900Y033525D02*
X124775Y033025D01*
X124650Y033025D01*
X107650Y048650D02*
X104900Y048650D01*
X103650Y048150D02*
X106775Y048150D01*
X107650Y049650D02*
X107650Y052150D01*
X106900Y052775D01*
X108150Y053025D02*
X108150Y050400D01*
X109900Y050400D01*
X109650Y051025D02*
X108650Y051525D01*
X108650Y052400D01*
X103150Y054525D02*
X102900Y050525D01*
X102775Y053900D02*
X102775Y054275D01*
X062775Y072650D02*
X060943Y072650D01*
X060943Y073150D02*
X059025Y073150D01*
X059025Y070025D01*
X058650Y070025D02*
X058650Y073650D01*
X060943Y073650D01*
X060943Y074650D02*
X058275Y074650D01*
X058275Y070025D01*
X059525Y070025D02*
X059525Y071650D01*
X060943Y071650D01*
X062024Y071150D02*
X062025Y071149D01*
X062775Y072650D02*
X062775Y075650D01*
X062275Y076275D01*
X056150Y076275D01*
X056150Y075650D01*
X055524Y075650D01*
X054400Y076150D02*
X054400Y074650D01*
X053900Y074150D01*
X053401Y074150D01*
X053401Y074650D02*
X053775Y074650D01*
X054025Y074900D01*
X054025Y075900D01*
X053368Y076682D01*
X053368Y078482D01*
X053900Y080150D02*
X053900Y076775D01*
X054400Y076150D01*
X054775Y076865D02*
X054775Y071526D01*
X054776Y071400D01*
X054400Y071900D02*
X054400Y073150D01*
X053401Y073150D01*
X055524Y071400D02*
X055525Y069900D01*
X054900Y069599D01*
X055525Y069025D02*
X053525Y069025D01*
X053275Y068650D02*
X055775Y068650D01*
X056275Y069400D01*
X056275Y070650D01*
X056525Y071150D01*
X056983Y071150D01*
X057650Y071150D01*
X057900Y071400D01*
X057900Y075400D01*
X058150Y075650D01*
X062025Y075650D01*
X062275Y075400D01*
X062275Y073240D01*
X056983Y072650D02*
X056275Y072650D01*
X056275Y071650D01*
X055900Y070775D01*
X055900Y069525D01*
X055525Y069025D01*
X056810Y076740D02*
X056900Y076865D01*
X051095Y079358D02*
X050194Y079400D01*
D79*
X117964Y037380D02*
X118400Y036069D01*
X052932Y014012D02*
X050900Y014012D01*
X050956Y014068D01*
X050956Y017946D01*
X050900Y014012D02*
X048992Y014012D01*
X044432Y014012D01*
D80*
X022775Y030025D02*
X022775Y032150D01*
X018925Y032150D01*
X017275Y032150D01*
X015650Y032150D01*
X015650Y039400D01*
X015650Y042275D01*
X017025Y043900D01*
X017025Y045900D02*
X021400Y045900D01*
X021400Y043900D02*
X020775Y042150D01*
X017275Y040400D01*
X017275Y039400D02*
X015650Y039400D01*
X017275Y039400D02*
X018925Y039400D01*
X022775Y039400D01*
X022775Y037275D01*
X020025Y034400D02*
X017275Y033150D01*
X015650Y032150D02*
X015650Y026900D01*
X017275Y025900D01*
X017275Y024900D02*
X018925Y024900D01*
X033900Y077650D02*
X033975Y078775D01*
X110440Y043880D02*
X111150Y043900D01*
X115360Y043880D02*
X115713Y043900D01*
X116940Y043880D02*
X118150Y043900D01*
X116940Y041920D02*
X115360Y041920D01*
X121463Y043900D02*
X121860Y043880D01*
X123150Y043900D02*
X123440Y043880D01*
X123440Y041920D02*
X121860Y041920D01*
X127150Y041900D02*
X128360Y041920D01*
X129940Y041920D01*
X131275Y041900D01*
X130025Y043275D02*
X129940Y043880D01*
X128360Y043880D02*
X128400Y043275D01*
X127400Y039400D02*
X126947Y038832D01*
X128332Y037447D02*
X129968Y037447D01*
X133447Y033968D02*
X133447Y032332D01*
X124853Y033968D02*
X122312Y033968D01*
X121860Y035420D01*
X121860Y037380D02*
X121025Y037400D01*
X117964Y037380D02*
X116940Y037380D01*
X115360Y037380D02*
X114900Y037400D01*
X115360Y035420D02*
X116940Y035420D01*
X112400Y037400D02*
X110440Y037380D01*
X116940Y025521D02*
X116940Y024380D01*
X116940Y022420D02*
X117650Y022025D01*
X120900Y022400D02*
X121860Y022420D01*
X123440Y022420D01*
X121860Y024380D02*
X120775Y024400D01*
X126650Y022400D02*
X128360Y022420D01*
X129940Y022420D01*
X130545Y022420D01*
X129940Y024380D02*
X129963Y025275D01*
X134838Y025275D02*
X134860Y024380D01*
X134900Y023025D02*
X134860Y022420D01*
X134860Y041920D02*
X135213Y042525D01*
D81*
X123468Y035353D02*
X122775Y036275D01*
D82*
X115360Y035420D02*
X113900Y035420D01*
X113900Y041920D01*
X110440Y041920D01*
X113900Y041920D02*
X115360Y041920D01*
X113900Y035420D02*
X110440Y035420D01*
X123440Y024380D02*
X128360Y024380D01*
X023150Y024900D02*
X022400Y025525D01*
X021525Y025525D01*
X018925Y024900D01*
D83*
X053275Y068650D02*
X053275Y071400D01*
X054025Y072025D01*
X054025Y072650D01*
X053401Y072650D01*
X054400Y071900D02*
X053525Y071150D01*
X053525Y069025D01*
X052810Y070650D02*
X052025Y071400D01*
X052025Y073025D01*
X052024Y073650D01*
X112150Y055025D02*
X112150Y054150D01*
X116400Y052650D02*
X116400Y051275D01*
X106025Y035775D02*
X106025Y034025D01*
X120588Y033150D02*
X120588Y032025D01*
D84*
X114525Y046275D02*
X114400Y047650D01*
X126650Y047525D02*
X126775Y046525D01*
D85*
X120775Y049525D03*
D86*
X120650Y028150D02*
X120525Y026900D01*
D87*
X030196Y029400D02*
X030150Y031150D01*
X028775Y032150D01*
D88*
X096025Y020025D03*
X097025Y016025D03*
X134525Y016025D03*
X138525Y020025D03*
X096025Y057275D03*
X120025Y077525D03*
X134525Y079775D03*
X138525Y075775D03*
M02*
