G75*
G70*
%OFA0B0*%
%FSLAX24Y24*%
%IPPOS*%
%LPD*%
%AMOC8*
5,1,8,0,0,1.08239X$1,22.5*
%
%ADD10C,0.0150*%
%ADD11C,0.0240*%
%ADD12R,0.0500X0.0220*%
%ADD13R,0.0220X0.0500*%
%ADD14R,0.0591X0.0512*%
%ADD15C,0.0748*%
%ADD16R,0.0512X0.0591*%
%ADD17R,0.0709X0.0472*%
%ADD18R,0.0787X0.0630*%
%ADD19R,0.0630X0.0512*%
%ADD20R,0.0630X0.0709*%
%ADD21R,0.0512X0.0630*%
%ADD22R,0.0630X0.0787*%
%ADD23C,0.0753*%
%ADD24R,0.0866X0.0236*%
%ADD25C,0.1000*%
%ADD26C,0.0110*%
%ADD27OC8,0.0833*%
%ADD28C,0.0080*%
%ADD29OC8,0.0793*%
%ADD30C,0.0827*%
%ADD31C,0.0151*%
%ADD32C,0.0753*%
%ADD33C,0.0827*%
%ADD34C,0.0906*%
%ADD35C,0.0070*%
%ADD36C,0.0787*%
%ADD37OC8,0.0753*%
%ADD38R,0.0903X0.0903*%
%ADD39R,0.0903X0.0903*%
%ADD40R,0.0551X0.0709*%
%ADD41R,0.0709X0.0551*%
%ADD42C,0.0833*%
%ADD43C,0.0873*%
%ADD44C,0.1181*%
%ADD45R,0.0630X0.1063*%
%ADD46C,0.0760*%
%ADD47C,0.1143*%
%ADD48R,0.0709X0.0669*%
%ADD49C,0.1000*%
%ADD50C,0.0100*%
%ADD51OC8,0.1000*%
%ADD52C,0.0833*%
%ADD53R,0.0472X0.0709*%
%ADD54R,0.0630X0.0460*%
%ADD55R,0.0753X0.0753*%
%ADD56C,0.1575*%
%ADD57C,0.1181*%
%ADD58R,0.0800X0.0260*%
%ADD59R,0.0600X0.0250*%
%ADD60R,0.0591X0.0394*%
%ADD61R,0.0394X0.0551*%
%ADD62R,0.0709X0.0709*%
%ADD63R,0.0709X0.0630*%
%ADD64R,0.0460X0.0630*%
%ADD65R,0.1100X0.0900*%
%ADD66R,0.0600X0.0240*%
%ADD67R,0.2441X0.2126*%
%ADD68R,0.0630X0.0394*%
%ADD69C,0.1102*%
%ADD70R,0.1102X0.1102*%
%ADD71C,0.0903*%
%ADD72R,0.1000X0.1000*%
%ADD73R,0.1575X0.1575*%
%ADD74C,0.1969*%
%ADD75C,0.0984*%
%ADD76C,0.0787*%
%ADD77C,0.0200*%
%ADD78C,0.1063*%
%ADD79C,0.0160*%
%ADD80C,0.0320*%
%ADD81C,0.0906*%
%ADD82C,0.0400*%
%ADD83C,0.0500*%
%ADD84C,0.0860*%
%ADD85C,0.0700*%
%ADD86C,0.0660*%
%ADD87C,0.0910*%
%ADD88C,0.0120*%
%ADD89C,0.0560*%
%ADD90C,0.0860*%
%ADD91C,0.0118*%
%ADD92OC8,0.0827*%
%ADD93C,0.0130*%
%ADD94C,0.0394*%
%ADD95R,0.1500X0.1500*%
D10*
X029304Y019117D02*
X029445Y018975D01*
X029729Y018975D01*
X029871Y019117D01*
X029871Y019259D01*
X029729Y019400D01*
X029445Y019400D01*
X029304Y019259D01*
X029304Y019117D01*
X029445Y019400D02*
X029304Y019542D01*
X029304Y019684D01*
X029445Y019826D01*
X029729Y019826D01*
X029871Y019684D01*
X029871Y019542D01*
X029729Y019400D01*
X030224Y018975D02*
X030792Y018975D01*
X030508Y018975D02*
X030508Y019826D01*
X030792Y019542D01*
X031145Y019400D02*
X031712Y019400D01*
X032066Y019117D02*
X032208Y018975D01*
X032491Y018975D01*
X032633Y019117D01*
X032066Y019684D01*
X032066Y019117D01*
X032066Y019684D02*
X032208Y019826D01*
X032491Y019826D01*
X032633Y019684D01*
X032633Y019117D01*
X032987Y019684D02*
X033554Y019117D01*
X033554Y018975D01*
X033908Y018975D02*
X034475Y018975D01*
X034191Y018975D02*
X034191Y019826D01*
X034475Y019542D01*
X034828Y018975D02*
X035396Y018975D01*
X035112Y018975D02*
X035112Y019826D01*
X035396Y019542D01*
X033554Y019826D02*
X032987Y019826D01*
X032987Y019684D01*
X097429Y018434D02*
X097429Y018292D01*
X097570Y018150D01*
X097429Y018009D01*
X097429Y017867D01*
X097570Y017725D01*
X097854Y017725D01*
X097996Y017867D01*
X098349Y017725D02*
X098633Y018009D01*
X098491Y018009D02*
X098917Y018009D01*
X098917Y017725D02*
X098917Y018576D01*
X098491Y018576D01*
X098349Y018434D01*
X098349Y018150D01*
X098491Y018009D01*
X097996Y018434D02*
X097854Y018576D01*
X097570Y018576D01*
X097429Y018434D01*
X097570Y018150D02*
X097712Y018150D01*
X100191Y018150D02*
X100191Y017867D01*
X100333Y017725D01*
X100616Y017725D01*
X100758Y017867D01*
X100758Y018150D02*
X100475Y018292D01*
X100333Y018292D01*
X100191Y018150D01*
X100191Y018576D02*
X100758Y018576D01*
X100758Y018150D01*
X101112Y017725D02*
X101679Y017725D01*
X101395Y017725D02*
X101395Y018576D01*
X101679Y018292D01*
X102033Y018150D02*
X102600Y018150D01*
X102953Y018150D02*
X103521Y018150D01*
X103095Y018576D01*
X103095Y017725D01*
X103874Y018434D02*
X104441Y017867D01*
X104441Y017725D01*
X104795Y017725D02*
X105362Y017725D01*
X105079Y017725D02*
X105079Y018576D01*
X105362Y018292D01*
X105716Y017725D02*
X106283Y017725D01*
X105999Y017725D02*
X105999Y018576D01*
X106283Y018292D01*
X104441Y018576D02*
X103874Y018576D01*
X103874Y018434D01*
D11*
X104150Y019150D02*
X107025Y019025D01*
X108025Y019025D01*
X108025Y020025D02*
X103150Y020025D01*
X103150Y021025D02*
X108025Y021025D01*
X108025Y022025D02*
X103150Y022025D01*
X103150Y023025D02*
X108025Y023025D01*
X108025Y024025D02*
X103150Y024025D01*
X103150Y025025D02*
X104775Y024775D01*
X106525Y024775D01*
X108025Y025025D01*
X108025Y026025D02*
X107150Y026025D01*
X106275Y025400D01*
X105025Y025400D01*
X104150Y026025D01*
X103150Y026025D01*
X103150Y027025D02*
X101525Y027025D01*
X101650Y029150D01*
X101650Y030150D02*
X100400Y030025D01*
X100400Y031025D02*
X101650Y031150D01*
X101650Y032150D02*
X100400Y032025D01*
X100400Y033025D02*
X101650Y033150D01*
X101650Y034150D02*
X100400Y034025D01*
X100400Y035025D02*
X101650Y035150D01*
X101650Y036150D02*
X100400Y036025D01*
X098463Y036025D02*
X097400Y036025D01*
X095025Y035400D01*
X095025Y036435D01*
X095400Y037025D02*
X097400Y037025D01*
X097650Y038150D02*
X095025Y037615D01*
X093900Y037615D02*
X092516Y038999D01*
X092516Y045525D01*
X092525Y048900D01*
X095025Y050650D01*
X095025Y053400D01*
X096400Y054775D01*
X096650Y054775D01*
X097775Y055275D01*
X097775Y054275D02*
X096775Y054025D01*
X095650Y052900D01*
X095650Y050025D01*
X093275Y048525D01*
X093275Y046150D01*
X096150Y044900D01*
X096150Y043900D02*
X095150Y043525D01*
X095150Y042650D01*
X097829Y040025D01*
X098275Y040615D02*
X098275Y041025D01*
X099525Y041025D01*
X099525Y040025D02*
X100650Y040275D01*
X100775Y041350D01*
X100775Y041400D02*
X100775Y041900D01*
X100775Y041950D02*
X101400Y041900D01*
X101400Y040525D01*
X100775Y039400D01*
X100775Y038275D01*
X101338Y037775D02*
X101338Y039400D01*
X101650Y039775D01*
X102525Y040025D01*
X103838Y040600D01*
X103900Y040650D02*
X103900Y041150D01*
X103838Y041200D02*
X102525Y041025D01*
X102525Y042025D02*
X104400Y042025D01*
X104900Y041900D02*
X104900Y040275D01*
X104275Y039525D01*
X102963Y038150D01*
X103588Y037588D02*
X105025Y039025D01*
X106025Y039025D01*
X107150Y040150D01*
X107150Y040900D01*
X107525Y041275D01*
X108525Y041275D01*
X109525Y040650D01*
X108150Y040525D02*
X107065Y038380D01*
X105338Y038150D02*
X107065Y036420D01*
X106025Y035900D02*
X107400Y035025D01*
X113775Y035025D01*
X115025Y035731D01*
X115775Y033900D01*
X115775Y032150D01*
X114775Y030275D01*
X116025Y029775D02*
X116650Y033525D01*
X117213Y033025D02*
X117213Y032400D01*
X116775Y030150D01*
X116775Y029275D01*
X116650Y028525D01*
X117150Y027900D02*
X117150Y027775D01*
X116900Y027650D01*
X116525Y027650D01*
X115775Y028275D01*
X115150Y028275D01*
X114775Y027900D01*
X114606Y025275D01*
X115275Y025025D01*
X115276Y024401D01*
X115275Y022150D01*
X113275Y022150D01*
X112650Y022525D01*
X112275Y023400D01*
X111900Y024025D01*
X111025Y024025D01*
X111025Y023025D02*
X109650Y023275D01*
X109650Y026275D01*
X110150Y026650D01*
X111150Y027150D01*
X112275Y027525D01*
X112927Y027998D01*
X114775Y032150D01*
X117213Y034150D02*
X116025Y037400D01*
X116025Y038150D01*
X115150Y039150D01*
X115025Y039275D01*
X112150Y039275D01*
X111400Y040025D01*
X111400Y041400D01*
X112025Y042025D01*
X114275Y042025D01*
X114775Y042525D01*
X114775Y043400D01*
X114275Y043900D01*
X110775Y043900D01*
X110150Y044463D01*
X110150Y045775D01*
X110650Y047025D01*
X110525Y048025D01*
X109275Y047525D01*
X108275Y047525D01*
X106213Y049588D01*
X106213Y050650D01*
X106900Y050900D02*
X106525Y051400D01*
X106900Y050900D02*
X106900Y049900D01*
X108025Y048650D01*
X108650Y048400D01*
X108338Y049275D02*
X107525Y050150D01*
X107275Y051150D01*
X106900Y052400D01*
X106275Y053025D01*
X105775Y053775D02*
X105275Y053400D01*
X105775Y053775D02*
X107025Y053775D01*
X107713Y051275D01*
X108400Y050275D01*
X108338Y049275D02*
X109400Y049150D01*
X110150Y049275D02*
X110525Y048025D01*
X111025Y048650D02*
X110900Y049150D01*
X110900Y050525D01*
X112025Y051650D01*
X112463Y053025D01*
X112525Y053900D01*
X113025Y053650D02*
X113150Y054463D01*
X112650Y055025D02*
X112525Y054900D01*
X111900Y055525D02*
X113150Y055588D01*
X114400Y055588D01*
X115650Y055588D01*
X116900Y055525D01*
X118150Y055525D01*
X118400Y056400D02*
X119150Y055650D01*
X119150Y054150D01*
X120525Y052400D01*
X120525Y048525D01*
X120150Y047900D01*
X119525Y047194D01*
X120025Y046525D02*
X118400Y046525D01*
X116900Y044650D01*
X116900Y043900D01*
X114525Y041400D01*
X112525Y041400D01*
X112150Y041025D01*
X112150Y040275D01*
X112525Y039900D01*
X116400Y039900D01*
X116900Y039275D01*
X116900Y037025D01*
X117775Y034650D01*
X117775Y033525D01*
X118775Y033525D02*
X119275Y034150D01*
X121150Y034150D01*
X121275Y034025D01*
X120775Y033525D02*
X120525Y032900D01*
X117275Y029775D01*
X117275Y029150D01*
X117775Y029400D02*
X121150Y032650D01*
X122150Y032650D01*
X123650Y033775D01*
X123650Y035338D01*
X122900Y036275D01*
X121900Y039150D01*
X121150Y040525D01*
X121900Y040900D02*
X123150Y037400D01*
X124400Y036400D01*
X124378Y035025D01*
X125047Y035025D02*
X125776Y035025D01*
X125775Y036150D01*
X127560Y037650D01*
X128150Y038275D02*
X128150Y036900D01*
X128400Y036400D01*
X128400Y035775D01*
X127775Y034150D01*
X126775Y034150D02*
X126524Y035025D01*
X125775Y036150D02*
X123525Y038275D01*
X124900Y039775D01*
X125275Y040150D01*
X125275Y041150D02*
X123650Y041400D01*
X122900Y040900D01*
X122775Y043525D02*
X124275Y045900D01*
X124275Y046900D01*
X123900Y048025D01*
X123900Y050525D01*
X123025Y050900D02*
X123025Y049400D01*
X123275Y048525D01*
X122775Y048025D02*
X122275Y049275D01*
X122275Y051900D01*
X123900Y052150D01*
X124338Y052525D01*
X124900Y052525D02*
X124150Y051650D01*
X123650Y051525D01*
X123025Y050900D01*
X124900Y051588D02*
X124900Y049775D01*
X124900Y048025D01*
X126150Y046525D01*
X127650Y045650D01*
X127650Y045275D01*
X128275Y045400D02*
X129275Y044150D01*
X129650Y044900D02*
X129650Y045963D01*
X127400Y047525D01*
X126900Y048025D01*
X125900Y048025D02*
X125900Y048900D01*
X125650Y050525D01*
X125775Y051525D01*
X125463Y052338D02*
X124900Y051588D01*
X124900Y052525D02*
X124900Y053025D01*
X124338Y053525D02*
X124775Y054025D01*
X124775Y055025D01*
X124150Y055525D02*
X125400Y055588D01*
X126650Y055588D01*
X127900Y055588D01*
X129150Y054525D01*
X130400Y055588D01*
X131150Y055525D01*
X131775Y054900D01*
X131775Y050150D01*
X132900Y048900D01*
X132900Y042775D01*
X133963Y041588D01*
X133963Y030588D01*
X132275Y028025D01*
X132275Y026775D01*
X132525Y026525D01*
X132525Y022775D01*
X129275Y020400D01*
X112650Y020400D01*
X113400Y021525D02*
X118025Y021525D01*
X118400Y021650D01*
X127150Y021650D01*
X129775Y025275D01*
X129775Y026650D01*
X131025Y027900D01*
X131025Y028775D01*
X132650Y031275D01*
X132650Y032400D01*
X132400Y032900D01*
X132400Y034481D01*
X131150Y035025D02*
X131150Y033025D01*
X128900Y030775D01*
X122025Y030775D01*
X120775Y029400D01*
X120775Y028525D01*
X120275Y027025D01*
X119900Y026275D02*
X120775Y026275D01*
X122900Y027525D01*
X128650Y027525D01*
X128525Y026650D02*
X129525Y027275D01*
X129525Y028400D01*
X129150Y029025D01*
X128150Y029900D01*
X126593Y029853D01*
X128025Y031400D02*
X129150Y032525D01*
X128588Y033150D02*
X127463Y032900D01*
X126338Y032025D01*
X121400Y032025D01*
X118775Y029400D01*
X118775Y028525D01*
X118275Y027025D01*
X118650Y026275D02*
X119275Y027025D01*
X119900Y026275D01*
X120065Y025380D02*
X119400Y024400D01*
X117150Y024400D01*
X116275Y025275D01*
X115944Y025275D01*
X115944Y024275D02*
X117025Y022275D01*
X120900Y022275D01*
X122525Y024400D01*
X125775Y024400D01*
X126565Y025380D01*
X127900Y025150D02*
X127900Y024150D01*
X127170Y023420D01*
X127900Y025150D02*
X128525Y026650D01*
X130400Y026525D02*
X131650Y027650D01*
X131650Y028400D01*
X133275Y030775D01*
X133275Y037963D01*
X128740Y037650D02*
X128963Y039963D01*
X128463Y040900D01*
X127463Y040900D02*
X126275Y041150D01*
X126275Y040150D02*
X128150Y038275D01*
X125047Y035025D02*
X125588Y033275D01*
X123025Y034275D02*
X123025Y035400D01*
X120650Y038400D01*
X120150Y037900D02*
X122525Y035150D01*
X122525Y034525D01*
X123025Y034275D02*
X121775Y033525D01*
X119775Y033525D02*
X119275Y032525D01*
X118025Y032150D01*
X119775Y029400D02*
X121650Y031400D01*
X128025Y031400D01*
X127978Y028468D02*
X124554Y028460D01*
X123216Y028460D02*
X122275Y029775D01*
X119775Y029400D02*
X119775Y028525D01*
X117775Y028525D02*
X117775Y029400D01*
X116025Y029775D02*
X114650Y028775D01*
X112400Y026525D01*
X111025Y026025D01*
X111025Y025025D02*
X112025Y025025D01*
X112650Y024400D01*
X114150Y024400D01*
X114606Y024275D01*
X113565Y026521D02*
X113873Y027052D01*
X115525Y027400D02*
X117150Y026275D01*
X118650Y026275D01*
X113400Y021525D02*
X111025Y022025D01*
X111025Y021025D02*
X128900Y021025D01*
X130400Y022150D01*
X130400Y026525D01*
X133025Y027525D02*
X134525Y029650D01*
X134525Y048859D01*
X133150Y050150D01*
X133150Y055775D01*
X131775Y057150D01*
X119650Y057150D01*
X119650Y054900D01*
X120400Y054525D01*
X121650Y055525D01*
X121650Y054525D02*
X121025Y053650D01*
X123150Y053650D01*
X123775Y053025D01*
X122775Y053025D02*
X121525Y052650D01*
X121525Y047900D01*
X121150Y047025D01*
X121150Y044275D01*
X120650Y043900D01*
X117900Y043900D01*
X117525Y043525D01*
X117525Y042775D01*
X115981Y040650D01*
X113025Y040650D01*
X117319Y040650D02*
X118150Y039275D01*
X119400Y039275D01*
X119400Y037275D01*
X121650Y043525D02*
X121775Y044150D01*
X121775Y045775D01*
X122025Y046775D01*
X123400Y047525D01*
X123463Y046650D02*
X123150Y045525D01*
X122213Y043588D01*
X120065Y044880D02*
X119525Y045856D01*
X120025Y046525D02*
X121025Y048150D01*
X121025Y053650D01*
X119900Y052025D02*
X118650Y053400D01*
X118025Y051900D02*
X116650Y053525D01*
X115650Y054463D01*
X116400Y055025D02*
X116900Y054525D01*
X115713Y053025D02*
X116775Y051900D01*
X116775Y051275D01*
X119025Y051213D01*
X119900Y052025D02*
X119900Y048775D01*
X119400Y048025D01*
X118400Y048025D01*
X118025Y048400D01*
X116775Y048400D01*
X116400Y047650D01*
X115400Y047025D01*
X114650Y047025D01*
X114650Y048025D01*
X114275Y048775D02*
X113650Y048025D01*
X114275Y048775D02*
X115900Y048775D01*
X116650Y049025D01*
X119025Y048900D01*
X118150Y049775D02*
X117650Y049525D01*
X116525Y049525D01*
X115775Y049275D01*
X114275Y049275D01*
X113275Y049025D01*
X112525Y049185D01*
X112150Y049775D02*
X111650Y050025D01*
X111650Y048025D01*
X111150Y047275D02*
X111150Y045900D01*
X110740Y044900D01*
X111150Y045900D02*
X114025Y045900D01*
X116525Y046775D01*
X117150Y046150D02*
X116150Y044900D01*
X114775Y044900D01*
X114650Y047025D02*
X113650Y046775D01*
X112275Y046775D01*
X112650Y048025D02*
X113275Y049025D01*
X113150Y049775D02*
X112150Y049775D01*
X112525Y050365D02*
X112525Y051400D01*
X113025Y052275D01*
X114213Y052525D02*
X113150Y051025D01*
X113150Y049775D01*
X115650Y049775D01*
X116525Y050025D01*
X116775Y050025D01*
X117400Y050525D01*
X116775Y050900D02*
X116400Y050525D01*
X113900Y050525D01*
X115901Y051254D02*
X114775Y053025D01*
X114213Y053400D02*
X114400Y054463D01*
X111900Y055525D02*
X110650Y055525D01*
X110651Y056525D01*
X111399Y056525D02*
X112525Y056560D01*
X113025Y056400D01*
X118400Y056400D01*
X119650Y057150D02*
X112025Y057150D01*
X111025Y057525D01*
X109400Y057525D01*
X109400Y055525D01*
X108775Y055150D02*
X108150Y054525D01*
X107900Y053775D01*
X107900Y052650D01*
X108275Y051400D01*
X109525Y050775D01*
X110525Y051150D02*
X110176Y049841D01*
X110150Y049775D01*
X110150Y049275D01*
X110525Y051150D02*
X111025Y052025D01*
X110275Y051775D01*
X109025Y051775D01*
X108525Y052025D01*
X108400Y052713D01*
X108400Y053650D01*
X109400Y054525D01*
X109275Y053400D02*
X109275Y052525D01*
X106275Y054525D02*
X105275Y054400D01*
X104775Y054025D01*
X104275Y054900D02*
X105525Y054900D01*
X106150Y055400D01*
X107150Y055150D01*
X107275Y056088D02*
X108150Y055525D01*
X108775Y056025D02*
X108025Y056775D01*
X106275Y056775D01*
X105963Y056088D02*
X105525Y056525D01*
X105525Y057213D01*
X105838Y057525D01*
X109400Y057525D01*
X111275Y058150D02*
X105463Y058150D01*
X104900Y057588D01*
X104900Y056275D01*
X105275Y055650D01*
X105963Y056088D02*
X107275Y056088D01*
X104275Y054900D02*
X102275Y056400D01*
X101275Y056275D02*
X102275Y055275D01*
X103275Y054525D01*
X103525Y053775D02*
X102900Y053775D01*
X101400Y055150D01*
X100775Y055275D01*
X100775Y054275D02*
X101275Y054275D01*
X102775Y053025D01*
X103275Y053025D01*
X103275Y052025D02*
X101150Y053275D01*
X100775Y053275D01*
X100775Y052275D02*
X101525Y052275D01*
X103213Y050650D01*
X102275Y050400D02*
X101525Y051275D01*
X100775Y051275D01*
X100775Y050275D02*
X101525Y049650D01*
X100275Y049150D02*
X099525Y049900D01*
X099525Y051525D01*
X099025Y050650D02*
X097775Y050275D01*
X096400Y049150D01*
X096400Y046400D01*
X098150Y045150D01*
X098150Y043400D01*
X097150Y042900D01*
X098275Y042400D02*
X098275Y041025D01*
X098275Y042400D02*
X098900Y043025D01*
X099525Y043025D01*
X101025Y043025D01*
X101025Y043850D01*
X101025Y044450D02*
X101025Y045151D01*
X101025Y045899D02*
X101900Y045900D01*
X102525Y045025D01*
X103400Y046025D01*
X104150Y047275D01*
X104150Y048400D01*
X103400Y049150D01*
X104275Y049650D02*
X107650Y046275D01*
X108650Y045525D01*
X109560Y044900D01*
X107065Y044880D02*
X106319Y043963D01*
X105650Y044463D02*
X105650Y042275D01*
X105400Y041525D01*
X105400Y039900D01*
X104900Y039525D01*
X103400Y039275D02*
X102525Y039025D01*
X102275Y037400D02*
X102650Y036775D01*
X104650Y036150D02*
X106025Y035900D01*
X106400Y034525D02*
X105650Y032525D01*
X104650Y032150D01*
X104650Y031150D02*
X103775Y031275D01*
X104650Y033150D02*
X103775Y033400D01*
X104650Y034150D02*
X103900Y034650D01*
X098900Y032400D02*
X097400Y032025D01*
X097400Y033025D02*
X095963Y033025D01*
X095025Y032588D02*
X095025Y031650D01*
X095963Y031025D01*
X096338Y030025D01*
X097400Y030025D01*
X097650Y029400D01*
X099025Y026275D01*
X100150Y026025D01*
X100150Y025025D02*
X099150Y025025D01*
X095525Y029775D01*
X095275Y030150D01*
X094775Y030740D02*
X094275Y031400D01*
X094275Y034025D01*
X097400Y034025D01*
X097400Y035025D02*
X096275Y035025D01*
X095775Y034650D01*
X094775Y034650D01*
X093900Y035025D01*
X093525Y034650D01*
X093525Y030963D01*
X094213Y030150D01*
X094775Y029560D02*
X095025Y029150D01*
X098900Y024025D01*
X100150Y024025D01*
X100150Y023025D02*
X098650Y023025D01*
X098025Y022025D02*
X100150Y022025D01*
X100150Y023025D02*
X101525Y023400D01*
X101525Y019150D01*
X104150Y019150D01*
X100150Y020025D02*
X099150Y020400D01*
X098650Y021025D01*
X098025Y022025D02*
X097275Y024900D01*
X092775Y030650D01*
X092775Y036275D01*
X093525Y037025D01*
X093900Y036435D02*
X093900Y035025D01*
X097650Y038150D02*
X096150Y040588D01*
X098275Y039435D02*
X098463Y039025D01*
X099525Y039025D01*
X099525Y042025D02*
X100775Y041950D01*
X101025Y043025D02*
X102525Y043025D01*
X102525Y042025D01*
X104900Y041900D02*
X104981Y042106D01*
X104981Y043963D01*
X104650Y045338D01*
X105775Y045150D02*
X105650Y044463D01*
X105775Y045150D02*
X105775Y045963D01*
X105150Y046525D01*
X104588Y046525D01*
X107900Y047025D02*
X104275Y050650D01*
X107900Y047025D02*
X109275Y046775D01*
X117150Y046150D02*
X117400Y046525D01*
X117399Y047546D01*
X116775Y050900D02*
X116775Y051275D01*
X120400Y055525D02*
X120400Y056525D01*
X124775Y056525D01*
X129150Y056525D01*
X129150Y055525D01*
X127900Y054463D02*
X127275Y055025D01*
X126650Y054463D02*
X127275Y053775D01*
X128400Y053775D01*
X129025Y053275D01*
X129025Y049525D01*
X127400Y049025D01*
X127400Y049900D02*
X128400Y049900D01*
X128400Y052525D01*
X127963Y053025D01*
X127775Y052150D02*
X127775Y051400D01*
X127650Y050650D01*
X127400Y049900D02*
X126525Y050463D01*
X126900Y051525D02*
X126025Y053025D01*
X125463Y053650D02*
X125400Y054463D01*
X124150Y055525D02*
X122900Y055525D01*
X127025Y053025D02*
X127775Y052150D01*
X129775Y050650D02*
X129650Y050025D01*
X129650Y047400D01*
X130150Y046150D01*
X130650Y046775D02*
X130650Y044900D01*
X130713Y043838D01*
X131485Y044880D02*
X131485Y046440D01*
X131819Y047775D01*
X130481Y047775D02*
X130650Y046775D01*
X130481Y047775D02*
X130900Y048775D01*
X130900Y051525D01*
X128275Y046150D02*
X126650Y047025D01*
X125900Y048025D01*
X128275Y046150D02*
X128275Y045400D01*
X112525Y057740D02*
X111275Y058150D01*
X114525Y059025D02*
X115900Y059025D01*
X115900Y060275D01*
X103275Y056775D02*
X101275Y058525D01*
X095588Y058525D01*
X094025Y053650D01*
X094025Y051275D01*
X096463Y051275D02*
X097775Y051275D01*
X099025Y050650D02*
X099025Y052525D01*
X099400Y054900D01*
X099400Y055275D02*
X098775Y055650D01*
X098775Y056275D01*
X097775Y056275D01*
X097400Y056275D01*
X096275Y055650D01*
X096275Y057650D02*
X096900Y058025D01*
X098900Y058025D01*
X099650Y057275D01*
X099650Y056400D01*
X099453Y055906D01*
X099775Y055525D01*
X098847Y054894D02*
X098900Y054150D01*
X098775Y053650D01*
X097775Y053275D01*
X100775Y056275D02*
X101275Y056275D01*
X100775Y057275D02*
X099650Y057275D01*
X093025Y059025D02*
X091900Y059025D01*
X091900Y057900D01*
X099525Y044025D02*
X099525Y043025D01*
X099338Y028400D02*
X100150Y027025D01*
X101525Y027025D02*
X101525Y023400D01*
X092900Y020275D02*
X092900Y016275D01*
X094775Y016275D01*
X092900Y020275D02*
X091900Y020275D01*
X091900Y021400D01*
X064400Y021650D02*
X064400Y025150D01*
X062900Y026650D01*
X060900Y026650D01*
X060525Y026275D01*
X060525Y025150D01*
X060150Y024650D01*
X060150Y024076D01*
X060150Y024650D02*
X057900Y024650D01*
X057525Y024525D01*
X055150Y024525D01*
X054900Y024275D01*
X054325Y024275D01*
X053725Y024275D02*
X053350Y024650D01*
X051025Y024650D01*
X050600Y024225D01*
X050600Y023525D01*
X049820Y022775D01*
X049820Y022275D01*
X049820Y021775D01*
X049820Y021275D01*
X048588Y021463D02*
X048400Y021275D01*
X048400Y020035D01*
X047057Y018692D01*
X043575Y020525D02*
X043575Y021400D01*
X043700Y021559D01*
X044916Y022775D01*
X043575Y021400D02*
X043274Y021400D01*
X042526Y021400D02*
X042525Y021401D01*
X042525Y022151D01*
X042401Y022775D02*
X042525Y022899D01*
X042525Y023844D01*
X042401Y022775D02*
X041605Y022775D01*
X040825Y023525D01*
X040225Y023525D02*
X040225Y024225D01*
X040525Y024525D01*
X041650Y024525D01*
X041775Y024650D01*
X044975Y024650D01*
X045100Y024525D01*
X045700Y024525D02*
X046768Y024525D01*
X047877Y025634D01*
X048572Y025634D01*
X048588Y025650D01*
X048588Y025963D01*
X048900Y026275D01*
X049775Y026275D01*
X050275Y026775D01*
X050775Y026775D01*
X051275Y027275D01*
X051275Y029025D01*
X050025Y030150D01*
X049400Y030150D01*
X049400Y030900D02*
X049525Y031525D01*
X049525Y032525D01*
X050338Y032776D01*
X050338Y033524D02*
X049525Y033525D01*
X049024Y033746D01*
X048995Y033775D01*
X047674Y033775D01*
X047674Y033275D02*
X048400Y033275D01*
X048569Y033106D01*
X048569Y032150D01*
X048444Y032025D01*
X048444Y031213D01*
X047168Y031275D02*
X047106Y031213D01*
X047106Y032025D01*
X047275Y032025D01*
X047275Y032775D01*
X046838Y032775D01*
X046838Y034588D01*
X046985Y035088D01*
X047025Y035128D01*
X047025Y035878D01*
X046650Y035878D01*
X047025Y035878D02*
X047275Y035878D01*
X047275Y037400D01*
X047901Y038025D02*
X047900Y036547D01*
X047900Y035878D02*
X047275Y035878D01*
X046650Y036547D02*
X046650Y038900D01*
X048775Y041025D01*
X048775Y041900D01*
X049775Y042150D02*
X049275Y042900D01*
X049275Y043525D01*
X049775Y044025D01*
X051275Y044025D01*
X051150Y043025D02*
X051150Y041525D01*
X053650Y039900D01*
X053650Y039025D01*
X052650Y038025D01*
X052650Y035025D01*
X053400Y034275D01*
X053400Y027275D01*
X054150Y027850D02*
X055025Y027650D01*
X055100Y026650D01*
X054731Y025650D01*
X056069Y025650D02*
X056319Y026606D01*
X056275Y026650D01*
X055700Y026650D01*
X056275Y026650D02*
X057088Y026650D01*
X057213Y026775D01*
X059525Y026775D01*
X060400Y027525D01*
X060400Y028525D02*
X060400Y029525D01*
X060400Y028525D02*
X059275Y028651D01*
X059275Y029399D02*
X059297Y030181D01*
X059400Y030181D01*
X059400Y030525D01*
X059400Y030974D01*
X059400Y030525D02*
X061650Y030525D01*
X062275Y031150D01*
X062275Y032900D01*
X061775Y033400D01*
X061775Y038900D01*
X061525Y039150D01*
X061525Y040275D01*
X059525Y041275D02*
X059525Y042025D01*
X059275Y042275D01*
X057775Y042275D01*
X057400Y041900D01*
X057400Y041400D01*
X056525Y042025D02*
X056525Y040150D01*
X057400Y039275D01*
X057400Y038775D01*
X057900Y038275D01*
X057900Y036499D01*
X057901Y036498D01*
X057650Y036485D01*
X057901Y036498D02*
X058435Y036525D01*
X057650Y035815D02*
X057735Y035025D01*
X057713Y032775D01*
X058150Y032775D01*
X058150Y031525D01*
X057944Y031150D01*
X057944Y030275D01*
X058628Y030181D01*
X057944Y030275D02*
X057944Y029319D01*
X057525Y028900D01*
X056775Y028349D02*
X056735Y027650D01*
X056065Y027650D02*
X056065Y027860D01*
X055275Y028650D01*
X055025Y028650D01*
X055025Y029650D01*
X055775Y029275D02*
X056150Y028900D01*
X055775Y029275D02*
X055775Y030650D01*
X055025Y031400D01*
X055025Y032400D01*
X054150Y032526D01*
X054150Y033274D02*
X055025Y033400D01*
X055650Y033275D01*
X056501Y033275D01*
X056501Y033775D02*
X055775Y033775D01*
X055025Y034525D01*
X055025Y035775D01*
X056025Y035776D01*
X056025Y036524D02*
X056099Y037275D01*
X056099Y038451D01*
X055275Y039275D01*
X055275Y042775D01*
X056650Y044150D01*
X059150Y044150D01*
X060150Y045150D01*
X060150Y048275D01*
X058900Y048650D01*
X054834Y048650D01*
X054889Y049275D02*
X059275Y049275D01*
X061525Y048650D01*
X061525Y044025D01*
X060400Y042900D01*
X057400Y042900D01*
X056525Y042025D01*
X055900Y042400D02*
X057025Y043525D01*
X059775Y043525D01*
X060740Y044490D01*
X060740Y047525D01*
X059560Y047525D02*
X058400Y047525D01*
X058275Y050525D02*
X055525Y050525D01*
X054735Y050525D01*
X054713Y050547D01*
X054735Y049900D02*
X054713Y049878D01*
X056525Y051400D02*
X055525Y052400D01*
X055900Y053400D01*
X056400Y054400D01*
X056400Y055150D01*
X056275Y056025D01*
X058650Y056025D01*
X060525Y053775D01*
X061025Y053525D01*
X062025Y053525D02*
X063150Y053525D01*
X063775Y054150D01*
X063775Y055025D01*
X063525Y055275D01*
X063525Y059650D01*
X060400Y057775D02*
X060400Y057275D01*
X062025Y055525D01*
X061025Y055525D02*
X059275Y057400D01*
X059115Y057650D01*
X058900Y056775D02*
X060400Y055025D01*
X061025Y054525D01*
X061025Y052525D02*
X059525Y052650D01*
X060731Y051525D02*
X060731Y050694D01*
X060775Y050650D01*
X062650Y050650D01*
X060775Y050650D02*
X059150Y050650D01*
X058275Y050525D01*
X055525Y052400D02*
X054650Y052400D01*
X053900Y052775D02*
X055650Y054525D01*
X055400Y055150D01*
X055400Y056275D01*
X055900Y056775D01*
X058525Y056775D01*
X058900Y056775D01*
X058525Y056775D02*
X058525Y059275D01*
X060900Y061650D01*
X060900Y065400D01*
X059275Y065400D02*
X059275Y062900D01*
X056275Y059900D01*
X056275Y059650D01*
X055025Y057900D01*
X054150Y057025D01*
X054025Y056025D01*
X054025Y055275D01*
X052775Y053775D01*
X052525Y052775D01*
X052150Y052400D01*
X052150Y051275D01*
X051650Y052025D02*
X050463Y053213D01*
X051775Y054525D01*
X052150Y055275D01*
X052400Y055775D01*
X052400Y058025D01*
X057025Y062775D01*
X057025Y066734D01*
X057650Y066650D02*
X057650Y062275D01*
X054650Y059275D01*
X054650Y058900D01*
X053150Y057275D01*
X053150Y055150D01*
X051900Y053400D01*
X053275Y053400D02*
X052900Y051900D01*
X053275Y053400D02*
X054900Y055150D01*
X054900Y056650D01*
X055525Y057275D01*
X056650Y057275D01*
X057935Y057650D01*
X057935Y059685D01*
X060275Y062025D01*
X060275Y062400D01*
X059775Y062525D02*
X057275Y060025D01*
X057275Y059025D01*
X056275Y058150D01*
X059400Y058900D02*
X060400Y057775D01*
X057150Y055275D02*
X057275Y055025D01*
X057275Y055026D02*
X057219Y054970D01*
X057165Y054912D01*
X057115Y054851D01*
X057068Y054787D01*
X057023Y054722D01*
X056982Y054654D01*
X056944Y054585D01*
X056910Y054514D01*
X056879Y054441D01*
X056852Y054367D01*
X056828Y054291D01*
X056808Y054215D01*
X056792Y054137D01*
X056779Y054059D01*
X056770Y053981D01*
X056765Y053902D01*
X056764Y053823D01*
X056767Y053744D01*
X056773Y053665D01*
X056783Y053587D01*
X056797Y053509D01*
X056815Y053432D01*
X056837Y053356D01*
X056862Y053281D01*
X056891Y053207D01*
X056923Y053135D01*
X056958Y053064D01*
X056998Y052996D01*
X057040Y052929D01*
X057085Y052864D01*
X057134Y052802D01*
X057186Y052742D01*
X057240Y052684D01*
X057297Y052630D01*
X057357Y052578D01*
X057419Y052529D01*
X057483Y052483D01*
X057550Y052440D01*
X057618Y052401D01*
X057689Y052365D01*
X057761Y052332D01*
X057834Y052303D01*
X057909Y052277D01*
X057985Y052256D01*
X058062Y052237D01*
X058139Y052223D01*
X058218Y052212D01*
X058297Y052205D01*
X058376Y052202D01*
X058455Y052203D01*
X058534Y052207D01*
X058612Y052216D01*
X058690Y052228D01*
X058768Y052244D01*
X058844Y052263D01*
X058920Y052287D01*
X058994Y052314D01*
X059067Y052344D01*
X059139Y052378D01*
X059208Y052416D01*
X059276Y052456D01*
X059342Y052500D01*
X059405Y052547D01*
X059466Y052597D01*
X059525Y052650D01*
X051150Y051525D02*
X049275Y053275D01*
X043775Y053275D01*
X041900Y051525D01*
X041900Y039900D01*
X042650Y039525D02*
X042650Y047150D01*
X043150Y047650D01*
X045900Y047650D01*
X045900Y048650D02*
X046650Y048650D01*
X047150Y048150D01*
X047150Y044025D01*
X044900Y041400D01*
X045775Y039650D02*
X047275Y040775D01*
X045775Y039650D02*
X045775Y039150D01*
X043900Y039150D01*
X044088Y037963D02*
X044963Y037962D01*
X044088Y037963D02*
X043713Y037963D01*
X043150Y037400D01*
X043150Y033650D01*
X043838Y032963D01*
X044088Y032963D01*
X044088Y031963D01*
X043213Y031837D01*
X043213Y031088D02*
X044088Y030963D01*
X044400Y031025D01*
X045088Y030650D02*
X045088Y030474D01*
X045190Y029525D01*
X044690Y029775D01*
X043650Y029775D01*
X043213Y029338D01*
X043213Y028649D01*
X043213Y027901D02*
X044088Y027838D01*
X044088Y028838D01*
X043025Y030150D02*
X042025Y029275D01*
X042025Y027650D01*
X039275Y025775D01*
X039275Y024900D01*
X038525Y024150D01*
X037650Y024150D01*
X036650Y025150D02*
X035735Y025150D01*
X035025Y028650D02*
X034200Y028609D01*
X039445Y022775D02*
X040225Y023525D01*
X039445Y022775D02*
X039445Y022275D01*
X039445Y021775D01*
X039445Y021275D01*
X041605Y021275D02*
X042401Y021275D01*
X042526Y021400D01*
X041605Y021775D02*
X041605Y022275D01*
X041605Y022775D01*
X047790Y023673D02*
X048036Y024525D01*
X048588Y023963D02*
X048588Y021463D01*
X051200Y023525D02*
X051980Y022775D01*
X052400Y023195D01*
X052400Y023844D01*
X051980Y022775D02*
X051980Y022275D01*
X052524Y022275D01*
X052775Y022399D01*
X052775Y021651D02*
X052524Y021275D01*
X051980Y021275D01*
X051980Y021775D02*
X051980Y022275D01*
X052775Y021651D02*
X053526Y021650D01*
X054274Y021650D02*
X054463Y021463D01*
X057109Y020400D02*
X055401Y018692D01*
X057109Y020400D02*
X058900Y020400D01*
X059650Y021150D01*
X063900Y021150D01*
X064400Y021650D01*
X063150Y023025D02*
X062701Y024650D01*
X062649Y025775D01*
X061901Y025775D02*
X061194Y025775D01*
X061599Y024650D02*
X061150Y023025D01*
X060150Y022974D01*
X059179Y021877D01*
X058790Y021877D01*
X058790Y023673D02*
X059150Y024060D01*
X059150Y025240D02*
X059856Y025775D01*
X056865Y025115D02*
X056775Y025025D01*
X055025Y028650D02*
X054150Y028450D01*
X056775Y029451D02*
X056606Y030275D01*
X056606Y031150D01*
X056275Y031481D01*
X056275Y032775D01*
X056501Y032775D01*
X057275Y032525D02*
X057213Y032025D01*
X057275Y032525D02*
X057275Y034275D01*
X056501Y034275D01*
X055876Y034900D01*
X055615Y034900D01*
X055025Y035775D02*
X055025Y036025D01*
X055025Y037025D01*
X055025Y036025D02*
X054274Y036025D01*
X053526Y036025D02*
X053526Y037151D01*
X054400Y038025D01*
X055025Y038025D01*
X056650Y038525D02*
X056650Y039025D01*
X055900Y039775D01*
X055900Y042400D01*
X054525Y042775D02*
X054525Y040775D01*
X054525Y042775D02*
X055400Y043900D01*
X055650Y044400D01*
X050275Y043150D02*
X050400Y042650D01*
X050400Y039275D01*
X050900Y038775D01*
X050900Y033900D01*
X051775Y033025D01*
X051775Y026775D01*
X051275Y026275D01*
X050650Y026275D01*
X050025Y025650D01*
X049400Y025650D01*
X049139Y025389D01*
X049139Y024525D01*
X048588Y025088D02*
X048588Y025650D01*
X047825Y026963D02*
X048382Y027775D01*
X049525Y027400D01*
X050463Y027725D01*
X050463Y028325D02*
X049525Y028400D01*
X049525Y028650D01*
X048712Y028650D01*
X047963Y028650D02*
X046672Y028775D01*
X046661Y030275D01*
X046003Y029882D02*
X045860Y029525D01*
X045860Y031025D01*
X045838Y031025D01*
X045860Y031025D02*
X046610Y031275D01*
X047168Y031275D01*
X046400Y032275D02*
X046088Y031963D01*
X046400Y032275D02*
X046400Y034275D01*
X045626Y034275D01*
X045376Y034299D01*
X045025Y034775D01*
X044150Y034775D01*
X044088Y033275D02*
X044088Y032963D01*
X044088Y033275D02*
X045626Y033275D01*
X045626Y032775D02*
X045088Y032775D01*
X045088Y031576D01*
X046003Y029882D02*
X046003Y028775D01*
X046088Y027775D02*
X047043Y027775D01*
X047225Y026963D01*
X046088Y026775D02*
X046088Y027775D01*
X045150Y027775D01*
X044088Y026838D01*
X043025Y030150D02*
X043025Y030525D01*
X043213Y030713D01*
X043213Y031088D01*
X047275Y032775D02*
X047674Y032775D01*
X049024Y033746D02*
X049024Y034775D01*
X050025Y034775D01*
X049025Y034776D02*
X049024Y034775D01*
X049025Y034776D02*
X049525Y036025D01*
X049525Y037025D02*
X048900Y037025D01*
X048650Y036775D01*
X048650Y035526D01*
X048276Y034775D01*
X047776Y034275D01*
X047674Y034275D01*
X046400Y034275D02*
X046400Y034565D01*
X046315Y035088D01*
X045775Y035503D01*
X045775Y035974D01*
X045775Y037076D02*
X045775Y039150D01*
X047901Y038651D02*
X049775Y040525D01*
X049775Y042150D01*
X047901Y038651D02*
X047901Y038025D01*
X048649Y038025D02*
X049525Y038025D01*
X049525Y037025D01*
X044088Y036963D02*
X044088Y035963D01*
X041025Y037080D02*
X039900Y036150D01*
X041025Y037080D02*
X041025Y039900D01*
X041275Y040525D01*
X041275Y051650D01*
X043650Y053900D01*
X049650Y053900D01*
X050463Y053213D01*
X049400Y054525D02*
X050025Y055275D01*
X050275Y056025D01*
X049400Y055525D02*
X049400Y056525D01*
X049025Y056900D01*
X046525Y056900D01*
X046525Y060488D01*
X046856Y061444D01*
X048944Y059356D02*
X051238Y060400D01*
X052025Y060525D01*
X052025Y059525D02*
X051525Y058524D01*
X051525Y057776D02*
X051525Y056400D01*
X050775Y054775D01*
X049400Y054525D02*
X043525Y054525D01*
X040650Y051900D01*
X040650Y040900D01*
X039025Y038900D01*
X039025Y038525D01*
X042338Y038838D02*
X042650Y039525D01*
X039650Y041400D02*
X040025Y041900D01*
X040025Y052150D01*
X043400Y055150D01*
X049025Y055150D01*
X049400Y055525D01*
X048525Y052400D02*
X048900Y051650D01*
X052025Y061525D02*
X052025Y062025D01*
X052525Y062525D01*
X055525Y062525D01*
X058525Y063400D02*
X058525Y067150D01*
X056275Y067150D02*
X054775Y067150D01*
X053275Y068400D01*
X053024Y068525D01*
X052276Y068525D02*
X050775Y067525D01*
X050525Y067400D01*
X052650Y070275D02*
X053650Y069275D01*
X054525Y068900D01*
X055775Y068356D01*
X056775Y069025D01*
X056775Y069900D02*
X055775Y069694D01*
X054990Y070185D01*
X054150Y070185D01*
X054724Y070775D02*
X055474Y070775D01*
X055974Y070650D01*
X056276Y071525D01*
X057024Y071525D02*
X057024Y072275D01*
X057274Y072275D01*
X057024Y071525D02*
X057076Y070650D01*
X057076Y070201D01*
X056775Y069900D01*
X058733Y070775D02*
X059025Y070775D01*
X059025Y070025D01*
X061775Y070400D02*
X061775Y071025D01*
X062150Y071275D01*
X062693Y071275D01*
X062693Y070775D02*
X063325Y070775D01*
X064150Y070575D01*
X064150Y070525D02*
X064150Y070025D01*
X064150Y069975D02*
X063524Y070025D01*
X063525Y069524D01*
X062775Y069025D01*
X062776Y070025D02*
X062025Y070025D01*
X061967Y069967D01*
X062025Y070025D02*
X061775Y070400D01*
X062693Y072275D02*
X063775Y072275D01*
X064150Y072275D01*
X064525Y072650D01*
X064525Y073525D01*
X064150Y073900D01*
X064150Y075400D01*
X063775Y075775D01*
X063525Y075275D02*
X063525Y074275D01*
X062693Y074275D01*
X062693Y073775D02*
X063525Y073775D01*
X063525Y074275D01*
X063525Y075275D02*
X062693Y075275D01*
X063775Y073025D02*
X063525Y072775D01*
X062693Y072775D01*
X063775Y072275D02*
X063775Y071525D01*
X058733Y073275D02*
X057274Y073275D01*
X057274Y073775D02*
X057775Y073775D01*
X058150Y074275D01*
X058733Y074275D01*
X058733Y075275D02*
X058900Y075810D01*
X055151Y075775D02*
X054088Y076839D01*
X054088Y077100D01*
X053212Y077150D01*
X054895Y078713D02*
X055118Y078482D01*
X055650Y080275D02*
X055588Y080338D01*
X055520Y080338D01*
X055151Y075275D02*
X054163Y075275D01*
X054088Y075200D01*
X053212Y075213D01*
X053899Y073775D02*
X055151Y073775D01*
X055151Y072275D02*
X054365Y072275D01*
X052275Y070900D02*
X052650Y070275D01*
X041900Y075025D02*
X041775Y074900D01*
X060150Y038025D02*
X061025Y038025D01*
X061025Y035275D01*
X060253Y034503D01*
X059775Y034503D01*
X060150Y033775D01*
X060400Y033525D01*
X060400Y032525D01*
X061400Y032399D01*
X061400Y031651D02*
X060400Y031525D01*
X058150Y031525D01*
X058150Y032775D02*
X058549Y032775D01*
X058549Y033275D02*
X059400Y033275D01*
X059400Y032076D01*
X060150Y033775D02*
X058549Y033775D01*
X058549Y034275D02*
X058549Y035172D01*
X059775Y035172D01*
X060150Y036025D01*
X060150Y036525D01*
X060150Y037025D01*
X060150Y036525D02*
X059615Y036525D01*
X057065Y035025D02*
X056501Y034275D01*
X057065Y035025D02*
X056775Y035315D01*
X056775Y035400D01*
X049525Y029400D02*
X049525Y028650D01*
X062150Y023025D02*
X062150Y022025D01*
X129775Y016275D02*
X131900Y016275D01*
X131900Y020275D01*
X135900Y020275D01*
X135900Y022150D01*
X135900Y076275D02*
X135900Y077525D01*
X135150Y077525D01*
X132525Y077525D02*
X131900Y077525D01*
X131900Y081525D01*
X129150Y081525D01*
X128150Y079275D01*
X126775Y079275D01*
X126775Y078775D01*
X126775Y076025D02*
X126775Y075650D01*
X126150Y075650D01*
X120150Y075650D02*
X119525Y075650D01*
X119525Y076275D01*
X115900Y078275D02*
X115900Y079275D01*
X116900Y079275D01*
X118775Y079275D02*
X119525Y079275D01*
X119525Y078650D01*
D12*
G36*
X054753Y048539D02*
X054401Y048187D01*
X054245Y048343D01*
X054597Y048695D01*
X054753Y048539D01*
G37*
G36*
X054531Y048761D02*
X054179Y048409D01*
X054023Y048565D01*
X054375Y048917D01*
X054531Y048761D01*
G37*
G36*
X054308Y048984D02*
X053956Y048632D01*
X053800Y048788D01*
X054152Y049140D01*
X054308Y048984D01*
G37*
G36*
X054085Y049207D02*
X053733Y048855D01*
X053577Y049011D01*
X053929Y049363D01*
X054085Y049207D01*
G37*
G36*
X053863Y049429D02*
X053511Y049077D01*
X053355Y049233D01*
X053707Y049585D01*
X053863Y049429D01*
G37*
G36*
X053640Y049652D02*
X053288Y049300D01*
X053132Y049456D01*
X053484Y049808D01*
X053640Y049652D01*
G37*
G36*
X053417Y049875D02*
X053065Y049523D01*
X052909Y049679D01*
X053261Y050031D01*
X053417Y049875D01*
G37*
G36*
X053195Y050097D02*
X052843Y049745D01*
X052687Y049901D01*
X053039Y050253D01*
X053195Y050097D01*
G37*
G36*
X050805Y047707D02*
X050453Y047355D01*
X050297Y047511D01*
X050649Y047863D01*
X050805Y047707D01*
G37*
G36*
X051027Y047485D02*
X050675Y047133D01*
X050519Y047289D01*
X050871Y047641D01*
X051027Y047485D01*
G37*
G36*
X051250Y047262D02*
X050898Y046910D01*
X050742Y047066D01*
X051094Y047418D01*
X051250Y047262D01*
G37*
G36*
X051473Y047039D02*
X051121Y046687D01*
X050965Y046843D01*
X051317Y047195D01*
X051473Y047039D01*
G37*
G36*
X051695Y046817D02*
X051343Y046465D01*
X051187Y046621D01*
X051539Y046973D01*
X051695Y046817D01*
G37*
G36*
X051918Y046594D02*
X051566Y046242D01*
X051410Y046398D01*
X051762Y046750D01*
X051918Y046594D01*
G37*
G36*
X052141Y046371D02*
X051789Y046019D01*
X051633Y046175D01*
X051985Y046527D01*
X052141Y046371D01*
G37*
G36*
X052363Y046149D02*
X052011Y045797D01*
X051855Y045953D01*
X052207Y046305D01*
X052363Y046149D01*
G37*
D13*
G36*
X053195Y045953D02*
X053039Y045797D01*
X052687Y046149D01*
X052843Y046305D01*
X053195Y045953D01*
G37*
G36*
X053417Y046175D02*
X053261Y046019D01*
X052909Y046371D01*
X053065Y046527D01*
X053417Y046175D01*
G37*
G36*
X053640Y046398D02*
X053484Y046242D01*
X053132Y046594D01*
X053288Y046750D01*
X053640Y046398D01*
G37*
G36*
X053863Y046621D02*
X053707Y046465D01*
X053355Y046817D01*
X053511Y046973D01*
X053863Y046621D01*
G37*
G36*
X054085Y046843D02*
X053929Y046687D01*
X053577Y047039D01*
X053733Y047195D01*
X054085Y046843D01*
G37*
G36*
X054308Y047066D02*
X054152Y046910D01*
X053800Y047262D01*
X053956Y047418D01*
X054308Y047066D01*
G37*
G36*
X054531Y047289D02*
X054375Y047133D01*
X054023Y047485D01*
X054179Y047641D01*
X054531Y047289D01*
G37*
G36*
X054753Y047511D02*
X054597Y047355D01*
X054245Y047707D01*
X054401Y047863D01*
X054753Y047511D01*
G37*
G36*
X051918Y049456D02*
X051762Y049300D01*
X051410Y049652D01*
X051566Y049808D01*
X051918Y049456D01*
G37*
G36*
X052141Y049679D02*
X051985Y049523D01*
X051633Y049875D01*
X051789Y050031D01*
X052141Y049679D01*
G37*
G36*
X052363Y049901D02*
X052207Y049745D01*
X051855Y050097D01*
X052011Y050253D01*
X052363Y049901D01*
G37*
G36*
X051695Y049233D02*
X051539Y049077D01*
X051187Y049429D01*
X051343Y049585D01*
X051695Y049233D01*
G37*
G36*
X051473Y049011D02*
X051317Y048855D01*
X050965Y049207D01*
X051121Y049363D01*
X051473Y049011D01*
G37*
G36*
X051250Y048788D02*
X051094Y048632D01*
X050742Y048984D01*
X050898Y049140D01*
X051250Y048788D01*
G37*
G36*
X051027Y048565D02*
X050871Y048409D01*
X050519Y048761D01*
X050675Y048917D01*
X051027Y048565D01*
G37*
G36*
X050805Y048343D02*
X050649Y048187D01*
X050297Y048539D01*
X050453Y048695D01*
X050805Y048343D01*
G37*
D14*
X054713Y049878D03*
X054713Y050547D03*
X057650Y036485D03*
X057650Y035815D03*
X059775Y035172D03*
X059775Y034503D03*
X047900Y035878D03*
X047900Y036547D03*
X046650Y036547D03*
X046650Y035878D03*
D15*
X044088Y035963D03*
X044088Y036963D03*
X044088Y037963D03*
X039900Y036150D03*
X039025Y038525D03*
X035900Y036150D03*
X035025Y038525D03*
X044088Y032963D03*
X044088Y031963D03*
X044088Y030963D03*
X044088Y028838D03*
X044088Y027838D03*
X044088Y026838D03*
X039025Y028650D03*
X035025Y028650D03*
X029900Y026650D03*
X029900Y025525D03*
X025900Y025525D03*
X025900Y026650D03*
X049525Y027400D03*
X049525Y028400D03*
X049525Y029400D03*
X049525Y031525D03*
X049525Y032525D03*
X049525Y033525D03*
X049525Y036025D03*
X049525Y037025D03*
X049525Y038025D03*
X055025Y038025D03*
X055025Y037025D03*
X055025Y036025D03*
X055025Y033400D03*
X055025Y032400D03*
X055025Y031400D03*
X055025Y029650D03*
X055025Y028650D03*
X055025Y027650D03*
X060400Y027525D03*
X060400Y028525D03*
X060400Y029525D03*
X060400Y031525D03*
X060400Y032525D03*
X060400Y033525D03*
X060150Y036025D03*
X060150Y037025D03*
X060150Y038025D03*
X055650Y050525D03*
X055650Y054525D03*
X040025Y058650D03*
X036025Y058650D03*
X035775Y053025D03*
X034900Y052025D03*
X032775Y053025D03*
X036900Y052025D03*
X096275Y055650D03*
X096275Y057650D03*
X103275Y056775D03*
X106275Y056775D03*
X106275Y054525D03*
X106275Y053025D03*
X106275Y052025D03*
X106213Y050650D03*
X103213Y050650D03*
X103275Y052025D03*
X103275Y053025D03*
X103275Y054525D03*
X110463Y053025D03*
X111463Y053025D03*
X112463Y053025D03*
X113588Y053025D03*
X114775Y053025D03*
X115713Y053025D03*
X115650Y048025D03*
X114650Y048025D03*
X113650Y048025D03*
X112650Y048025D03*
X111650Y048025D03*
X110525Y048025D03*
X109275Y046775D03*
X112275Y046775D03*
X122775Y048025D03*
X123900Y048025D03*
X124900Y048025D03*
X125900Y048025D03*
X126900Y048025D03*
X127900Y048025D03*
X127963Y053025D03*
X127025Y053025D03*
X126025Y053025D03*
X124900Y053025D03*
X123775Y053025D03*
X122775Y053025D03*
X121775Y033525D03*
X120775Y033525D03*
X119775Y033525D03*
X118775Y033525D03*
X117775Y033525D03*
X116650Y033525D03*
X116650Y028525D03*
X117775Y028525D03*
X118775Y028525D03*
X119775Y028525D03*
X120775Y028525D03*
X121775Y028525D03*
X120275Y027025D03*
X119275Y027025D03*
X118275Y027025D03*
X112650Y024400D03*
X112650Y020400D03*
X098650Y021025D03*
X098650Y023025D03*
X095963Y031025D03*
X095963Y033025D03*
D16*
X124378Y035025D03*
X125047Y035025D03*
X059297Y030181D03*
X058628Y030181D03*
X056735Y027650D03*
X056065Y027650D03*
X046672Y028775D03*
X046003Y028775D03*
X045860Y029525D03*
X045190Y029525D03*
X046315Y035088D03*
X046985Y035088D03*
X057065Y035025D03*
X057735Y035025D03*
X035735Y025150D03*
X035065Y025150D03*
X056276Y071525D03*
X057024Y071525D03*
X053899Y073775D03*
X053151Y073775D03*
X053212Y075213D03*
X052463Y075213D03*
X052463Y077150D03*
X053212Y077150D03*
D17*
X053185Y072275D03*
X054365Y072275D03*
G36*
X099231Y055076D02*
X098867Y054470D01*
X098463Y054712D01*
X098827Y055318D01*
X099231Y055076D01*
G37*
G36*
X099837Y056088D02*
X099473Y055482D01*
X099069Y055724D01*
X099433Y056330D01*
X099837Y056088D01*
G37*
X109560Y044900D03*
X110740Y044900D03*
X127560Y037650D03*
X128740Y037650D03*
X059615Y036525D03*
X058435Y036525D03*
X055615Y034900D03*
X054435Y034900D03*
D18*
X059400Y032076D03*
X059400Y030974D03*
X056775Y029451D03*
X056775Y028349D03*
X045088Y030474D03*
X045088Y031576D03*
X045775Y035974D03*
X045775Y037076D03*
D19*
X044963Y037213D03*
X044963Y036524D03*
X044963Y035776D03*
X044963Y037962D03*
X050338Y033524D03*
X050338Y032776D03*
X054150Y032526D03*
X054150Y033274D03*
X056025Y035776D03*
X056025Y036524D03*
X061400Y032399D03*
X061400Y031651D03*
X059275Y029399D03*
X059275Y028651D03*
X052775Y022399D03*
X052775Y021651D03*
X042525Y022151D03*
X042525Y022899D03*
X043213Y027901D03*
X043213Y028649D03*
X043213Y031088D03*
X043213Y031837D03*
X051525Y057776D03*
X051525Y058524D03*
X101025Y045899D03*
X101025Y045151D03*
D20*
X057201Y037275D03*
X056099Y037275D03*
X055974Y070650D03*
X057076Y070650D03*
D21*
X053024Y068525D03*
X052276Y068525D03*
X062776Y070025D03*
X063524Y070025D03*
X062649Y058150D03*
X061901Y058150D03*
X058274Y051400D03*
X057526Y051400D03*
X048649Y038025D03*
X047901Y038025D03*
X053526Y036025D03*
X054274Y036025D03*
X049024Y034775D03*
X048276Y034775D03*
X047963Y028650D03*
X048712Y028650D03*
X053526Y021650D03*
X054274Y021650D03*
X061901Y025775D03*
X062649Y025775D03*
X043274Y021400D03*
X042526Y021400D03*
X110651Y056525D03*
X111399Y056525D03*
X125776Y035025D03*
X126524Y035025D03*
D22*
X063201Y065650D03*
X062099Y065650D03*
X047764Y030275D03*
X046661Y030275D03*
X048036Y024525D03*
X049139Y024525D03*
D23*
X061150Y023402D02*
X061150Y022648D01*
X062150Y022648D02*
X062150Y023402D01*
X063150Y023402D02*
X063150Y022648D01*
X035277Y039400D02*
X034523Y039400D01*
X034523Y040400D02*
X035277Y040400D01*
X035277Y041400D02*
X034523Y041400D01*
X032277Y041400D02*
X031523Y041400D01*
X031523Y040400D02*
X032277Y040400D01*
X032277Y039400D02*
X031523Y039400D01*
X033583Y036830D02*
X034324Y036961D01*
X034498Y035976D02*
X033756Y035845D01*
X033930Y034860D02*
X034672Y034991D01*
X031717Y034470D02*
X030976Y034339D01*
X030802Y035324D02*
X031544Y035455D01*
X031370Y036440D02*
X030628Y036309D01*
X031218Y030020D02*
X030482Y029863D01*
X030689Y028885D02*
X031426Y029041D01*
X031634Y028063D02*
X030897Y027907D01*
X033832Y028530D02*
X034568Y028687D01*
X034361Y029665D02*
X033624Y029509D01*
X033416Y030487D02*
X034153Y030643D01*
X045523Y044650D02*
X046277Y044650D01*
X046277Y045650D02*
X045523Y045650D01*
X045523Y046650D02*
X046277Y046650D01*
X046277Y047650D02*
X045523Y047650D01*
X045523Y048650D02*
X046277Y048650D01*
X046277Y049650D02*
X045523Y049650D01*
X045523Y050650D02*
X046277Y050650D01*
X046277Y051650D02*
X045523Y051650D01*
X048523Y051650D02*
X049277Y051650D01*
X049277Y050650D02*
X048523Y050650D01*
X048523Y049650D02*
X049277Y049650D01*
X049277Y048650D02*
X048523Y048650D01*
X048523Y047650D02*
X049277Y047650D01*
X049277Y046650D02*
X048523Y046650D01*
X048523Y045650D02*
X049277Y045650D01*
X049277Y044650D02*
X048523Y044650D01*
X035900Y054148D02*
X035900Y054902D01*
X034900Y054902D02*
X034900Y054148D01*
X033900Y054148D02*
X033900Y054902D01*
X032900Y054902D02*
X032900Y054148D01*
X032900Y057148D02*
X032900Y057902D01*
X033900Y057902D02*
X033900Y057148D01*
X034900Y057148D02*
X034900Y057902D01*
X035900Y057902D02*
X035900Y057148D01*
X051648Y059525D02*
X052402Y059525D01*
X052402Y060525D02*
X051648Y060525D01*
X051648Y061525D02*
X052402Y061525D01*
X054525Y064523D02*
X054525Y065277D01*
X054525Y068523D02*
X054525Y069277D01*
X097398Y057275D02*
X098152Y057275D01*
X098152Y056275D02*
X097398Y056275D01*
X097398Y055275D02*
X098152Y055275D01*
X098152Y054275D02*
X097398Y054275D01*
X097398Y053275D02*
X098152Y053275D01*
X098152Y052275D02*
X097398Y052275D01*
X097398Y051275D02*
X098152Y051275D01*
X098152Y050275D02*
X097398Y050275D01*
X100398Y050275D02*
X101152Y050275D01*
X101152Y051275D02*
X100398Y051275D01*
X100398Y052275D02*
X101152Y052275D01*
X101152Y053275D02*
X100398Y053275D01*
X100398Y054275D02*
X101152Y054275D01*
X101152Y055275D02*
X100398Y055275D01*
X100398Y056275D02*
X101152Y056275D01*
X101152Y057275D02*
X100398Y057275D01*
X099902Y045025D02*
X099148Y045025D01*
X099148Y044025D02*
X099902Y044025D01*
X102148Y044025D02*
X102902Y044025D01*
X102902Y043025D02*
X102148Y043025D01*
X102148Y042025D02*
X102902Y042025D01*
X102902Y041025D02*
X102148Y041025D01*
X102148Y040025D02*
X102902Y040025D01*
X102902Y039025D02*
X102148Y039025D01*
X099902Y039025D02*
X099148Y039025D01*
X099148Y040025D02*
X099902Y040025D01*
X099902Y041025D02*
X099148Y041025D01*
X100023Y037025D02*
X100777Y037025D01*
X100777Y036025D02*
X100023Y036025D01*
X100023Y035025D02*
X100777Y035025D01*
X101273Y035150D02*
X102027Y035150D01*
X102027Y034150D02*
X101273Y034150D01*
X100777Y034025D02*
X100023Y034025D01*
X100023Y033025D02*
X100777Y033025D01*
X101273Y033150D02*
X102027Y033150D01*
X102027Y032150D02*
X101273Y032150D01*
X100777Y032025D02*
X100023Y032025D01*
X100023Y031025D02*
X100777Y031025D01*
X101273Y031150D02*
X102027Y031150D01*
X102027Y030150D02*
X101273Y030150D01*
X100777Y030025D02*
X100023Y030025D01*
X101273Y029150D02*
X102027Y029150D01*
X104273Y029150D02*
X105027Y029150D01*
X105027Y030150D02*
X104273Y030150D01*
X104273Y031150D02*
X105027Y031150D01*
X105027Y032150D02*
X104273Y032150D01*
X104273Y033150D02*
X105027Y033150D01*
X105027Y034150D02*
X104273Y034150D01*
X104273Y035150D02*
X105027Y035150D01*
X105027Y036150D02*
X104273Y036150D01*
X102027Y036150D02*
X101273Y036150D01*
X097777Y036025D02*
X097023Y036025D01*
X097023Y035025D02*
X097777Y035025D01*
X097777Y034025D02*
X097023Y034025D01*
X097023Y033025D02*
X097777Y033025D01*
X097777Y032025D02*
X097023Y032025D01*
X097023Y031025D02*
X097777Y031025D01*
X097777Y030025D02*
X097023Y030025D01*
X099773Y027025D02*
X100527Y027025D01*
X100527Y026025D02*
X099773Y026025D01*
X099773Y025025D02*
X100527Y025025D01*
X100527Y024025D02*
X099773Y024025D01*
X099773Y023025D02*
X100527Y023025D01*
X100527Y022025D02*
X099773Y022025D01*
X099773Y021025D02*
X100527Y021025D01*
X100527Y020025D02*
X099773Y020025D01*
X102773Y020025D02*
X103527Y020025D01*
X103527Y021025D02*
X102773Y021025D01*
X102773Y022025D02*
X103527Y022025D01*
X103527Y023025D02*
X102773Y023025D01*
X102773Y024025D02*
X103527Y024025D01*
X103527Y025025D02*
X102773Y025025D01*
X102773Y026025D02*
X103527Y026025D01*
X103527Y027025D02*
X102773Y027025D01*
X107648Y026025D02*
X108402Y026025D01*
X108402Y025025D02*
X107648Y025025D01*
X107648Y024025D02*
X108402Y024025D01*
X108402Y023025D02*
X107648Y023025D01*
X107648Y022025D02*
X108402Y022025D01*
X108402Y021025D02*
X107648Y021025D01*
X107648Y020025D02*
X108402Y020025D01*
X108402Y019025D02*
X107648Y019025D01*
X110648Y019025D02*
X111402Y019025D01*
X111402Y020025D02*
X110648Y020025D01*
X110648Y021025D02*
X111402Y021025D01*
X111402Y022025D02*
X110648Y022025D01*
X110648Y023025D02*
X111402Y023025D01*
X111402Y024025D02*
X110648Y024025D01*
X110648Y025025D02*
X111402Y025025D01*
X111402Y026025D02*
X110648Y026025D01*
X097777Y037025D02*
X097023Y037025D01*
X102148Y045025D02*
X102902Y045025D01*
X126273Y069400D02*
X127027Y069400D01*
X127027Y071400D02*
X126273Y071400D01*
D24*
X058549Y034275D03*
X058549Y033775D03*
X058549Y033275D03*
X058549Y032775D03*
X056501Y032775D03*
X056501Y033275D03*
X056501Y033775D03*
X056501Y034275D03*
X047674Y034275D03*
X047674Y033775D03*
X047674Y033275D03*
X047674Y032775D03*
X045626Y032775D03*
X045626Y033275D03*
X045626Y033775D03*
X045626Y034275D03*
D25*
X018150Y050775D02*
X018150Y054275D01*
X019812Y054275D01*
X019900Y054187D01*
X019900Y054915D01*
X020635Y056900D01*
X017685Y056900D02*
X017150Y059025D01*
X017150Y061900D01*
X018775Y066150D01*
X019525Y071775D01*
X021900Y074275D01*
X023400Y074275D01*
X026525Y077400D01*
X030025Y077400D01*
X024275Y071775D02*
X025150Y070900D01*
X025775Y070400D01*
X025775Y067775D01*
X026088Y067463D01*
X025025Y066150D01*
X023400Y066150D01*
X020650Y066150D02*
X018775Y066150D01*
X026088Y067463D02*
X027900Y065650D01*
X025025Y059900D02*
X023400Y060150D01*
X020650Y060150D01*
X018775Y059900D01*
X023585Y056900D02*
X025400Y054525D01*
X023585Y056900D02*
X021275Y053025D01*
X020863Y052613D01*
X019900Y052613D01*
X116675Y068025D02*
X116675Y069025D01*
X118675Y069025D02*
X118675Y068025D01*
X122875Y068025D02*
X122875Y069025D01*
X124875Y069025D02*
X124875Y068025D01*
X124875Y072025D02*
X124875Y073025D01*
X122875Y073025D02*
X122875Y072025D01*
X118675Y072025D02*
X118675Y073025D01*
X116675Y073025D02*
X116675Y072025D01*
D26*
X119971Y072130D02*
X120365Y072130D01*
X120168Y072130D02*
X120168Y072721D01*
X120365Y072524D01*
X120615Y072721D02*
X121009Y072721D01*
X121009Y072130D01*
X121260Y072228D02*
X121358Y072130D01*
X121555Y072130D01*
X121654Y072228D01*
X121457Y072425D02*
X121358Y072425D01*
X121260Y072327D01*
X121260Y072228D01*
X121358Y072425D02*
X121260Y072524D01*
X121260Y072622D01*
X121358Y072721D01*
X121555Y072721D01*
X121654Y072622D01*
X121009Y072425D02*
X120812Y072425D01*
X120884Y068846D02*
X120490Y068846D01*
X120240Y068747D02*
X120141Y068846D01*
X119944Y068846D01*
X119846Y068747D01*
X119846Y068649D01*
X120240Y068255D01*
X119846Y068255D01*
X120687Y068550D02*
X120884Y068550D01*
X121135Y068452D02*
X121135Y068353D01*
X121233Y068255D01*
X121430Y068255D01*
X121529Y068353D01*
X121332Y068550D02*
X121233Y068550D01*
X121135Y068452D01*
X121233Y068550D02*
X121135Y068649D01*
X121135Y068747D01*
X121233Y068846D01*
X121430Y068846D01*
X121529Y068747D01*
X120884Y068846D02*
X120884Y068255D01*
X122180Y062838D02*
X122180Y062444D01*
X122180Y062641D02*
X122771Y062641D01*
X122574Y062444D01*
X122672Y062193D02*
X122771Y062095D01*
X122771Y061898D01*
X122672Y061800D01*
X122278Y061800D01*
X122180Y061898D01*
X122180Y062095D01*
X122278Y062193D01*
X122278Y061549D02*
X122180Y061450D01*
X122180Y061253D01*
X122278Y061155D01*
X122475Y061352D02*
X122475Y061450D01*
X122377Y061549D01*
X122278Y061549D01*
X122475Y061450D02*
X122574Y061549D01*
X122672Y061549D01*
X122771Y061450D01*
X122771Y061253D01*
X122672Y061155D01*
X126668Y060096D02*
X126668Y059505D01*
X126865Y059505D02*
X126471Y059505D01*
X126865Y059899D02*
X126668Y060096D01*
X127115Y059505D02*
X127509Y059505D01*
X127509Y060096D01*
X134280Y060545D02*
X134378Y060446D01*
X134280Y060545D02*
X134280Y060742D01*
X134378Y060840D01*
X134477Y060840D01*
X134575Y060742D01*
X134575Y060643D01*
X134575Y060742D02*
X134674Y060840D01*
X134772Y060840D01*
X134871Y060742D01*
X134871Y060545D01*
X134772Y060446D01*
X134772Y061091D02*
X134378Y061091D01*
X134280Y061189D01*
X134280Y061386D01*
X134378Y061485D01*
X134280Y061735D02*
X134674Y062129D01*
X134772Y062129D01*
X134871Y062031D01*
X134871Y061834D01*
X134772Y061735D01*
X134772Y061485D02*
X134871Y061386D01*
X134871Y061189D01*
X134772Y061091D01*
X134280Y061735D02*
X134280Y062129D01*
D27*
X133650Y064025D03*
X130025Y068275D03*
X128775Y068275D03*
X121650Y064900D03*
X121650Y058900D03*
X133650Y058025D03*
X126275Y041150D03*
X125275Y041150D03*
X125275Y040150D03*
X097150Y042900D03*
X096150Y042900D03*
X096150Y043900D03*
X097150Y043900D03*
X096150Y044900D03*
X061525Y041275D03*
X061525Y040275D03*
X060525Y040275D03*
X059525Y040275D03*
X059525Y041275D03*
X060525Y041275D03*
X058525Y041275D03*
X058525Y040275D03*
X057400Y045525D03*
X057400Y046525D03*
X058400Y046525D03*
X058400Y047525D03*
X057400Y047525D03*
X029150Y050775D03*
X023150Y050775D03*
X022650Y042525D03*
X024025Y039775D03*
X024025Y037775D03*
X022650Y036525D03*
X022525Y035025D03*
X024025Y033025D03*
X024025Y031025D03*
X022525Y029025D03*
X022525Y027775D03*
X030025Y031025D03*
X030025Y033025D03*
X030025Y037775D03*
X030025Y039775D03*
X036650Y027150D03*
X036650Y026150D03*
X036650Y025150D03*
X036650Y024150D03*
X036650Y023150D03*
X037650Y023150D03*
X037650Y024150D03*
X037650Y025150D03*
X037650Y026150D03*
X037650Y027150D03*
X022525Y021775D03*
X062150Y022025D03*
X023400Y060150D03*
X020650Y060150D03*
X020650Y066150D03*
X023400Y066150D03*
X028025Y068650D03*
X028025Y072650D03*
X046025Y066400D03*
D28*
X126269Y072285D02*
X126550Y072285D01*
X126409Y072285D02*
X126409Y071865D01*
X126730Y071865D02*
X126870Y072005D01*
X126800Y072005D02*
X127010Y072005D01*
X127010Y071865D02*
X127010Y072285D01*
X126800Y072285D01*
X126730Y072215D01*
X126730Y072075D01*
X126800Y072005D01*
D29*
X043900Y064025D03*
X040900Y064025D03*
D30*
X051987Y064025D02*
X052813Y064025D01*
X052813Y065025D02*
X051987Y065025D01*
X051987Y066025D02*
X052813Y066025D01*
X019438Y040525D02*
X018612Y040525D01*
X018612Y039525D02*
X019438Y039525D01*
X019438Y038525D02*
X018612Y038525D01*
X018612Y033275D02*
X019438Y033275D01*
X019438Y032275D02*
X018612Y032275D01*
X018612Y031275D02*
X019438Y031275D01*
X019438Y026025D02*
X018612Y026025D01*
X018612Y025025D02*
X019438Y025025D01*
X019438Y024025D02*
X018612Y024025D01*
D31*
X046372Y064978D02*
X046296Y065054D01*
X046546Y065054D01*
X046721Y064879D01*
X046721Y064629D01*
X046546Y064454D01*
X046296Y064454D01*
X046121Y064629D01*
X046121Y064879D01*
X046296Y065054D01*
X046344Y064942D01*
X046498Y064942D01*
X046609Y064831D01*
X046609Y064677D01*
X046498Y064566D01*
X046344Y064566D01*
X046233Y064677D01*
X046233Y064831D01*
X046344Y064942D01*
X046390Y064828D01*
X046452Y064828D01*
X046495Y064785D01*
X046495Y064723D01*
X046452Y064680D01*
X046390Y064680D01*
X046347Y064723D01*
X046347Y064785D01*
X046390Y064828D01*
X052667Y067146D02*
X052743Y067070D01*
X052497Y067113D01*
X052355Y067316D01*
X052398Y067562D01*
X052601Y067704D01*
X052847Y067661D01*
X052989Y067458D01*
X052946Y067212D01*
X052743Y067070D01*
X052715Y067189D01*
X052563Y067216D01*
X052474Y067344D01*
X052501Y067496D01*
X052629Y067585D01*
X052781Y067558D01*
X052870Y067430D01*
X052843Y067278D01*
X052715Y067189D01*
X052689Y067308D01*
X052629Y067319D01*
X052593Y067370D01*
X052604Y067430D01*
X052655Y067466D01*
X052715Y067455D01*
X052751Y067404D01*
X052740Y067344D01*
X052689Y067308D01*
X050373Y070422D02*
X050449Y070346D01*
X050203Y070389D01*
X050061Y070592D01*
X050104Y070838D01*
X050307Y070980D01*
X050553Y070937D01*
X050695Y070734D01*
X050652Y070488D01*
X050449Y070346D01*
X050421Y070465D01*
X050269Y070492D01*
X050180Y070620D01*
X050207Y070772D01*
X050335Y070861D01*
X050487Y070834D01*
X050576Y070706D01*
X050549Y070554D01*
X050421Y070465D01*
X050395Y070584D01*
X050335Y070595D01*
X050299Y070646D01*
X050310Y070706D01*
X050361Y070742D01*
X050421Y070731D01*
X050457Y070680D01*
X050446Y070620D01*
X050395Y070584D01*
D32*
X048775Y071325D03*
X049088Y069338D03*
X050025Y065475D03*
X047129Y064046D03*
X038400Y056725D03*
X028900Y057525D03*
X039650Y041400D03*
X054088Y075200D03*
X054088Y077100D03*
D33*
X053892Y079483D03*
X053892Y080521D03*
X052845Y080521D03*
X052845Y079483D03*
X027525Y075775D03*
X027525Y073775D03*
X029025Y041650D03*
X025025Y041650D03*
X025025Y034900D03*
X029025Y034900D03*
X029525Y028025D03*
X025525Y028025D03*
D34*
X131197Y065525D02*
X132103Y065525D01*
X132103Y067525D02*
X131197Y067525D01*
X131197Y069525D02*
X132103Y069525D01*
X134197Y069525D02*
X135103Y069525D01*
X135103Y067525D02*
X134197Y067525D01*
X134197Y065525D02*
X135103Y065525D01*
X135103Y075525D02*
X134197Y075525D01*
X132103Y075525D02*
X131197Y075525D01*
D35*
X132683Y071161D02*
X132683Y070570D01*
X132880Y070570D02*
X132486Y070570D01*
X132880Y070964D02*
X132683Y071161D01*
X133094Y071161D02*
X133487Y070767D01*
X133389Y070865D02*
X133094Y070570D01*
X133487Y070570D02*
X133487Y071161D01*
X133898Y071161D02*
X133898Y070570D01*
X134095Y070570D02*
X133701Y070570D01*
X134095Y070964D02*
X133898Y071161D01*
D36*
X129919Y075525D02*
X129131Y075525D01*
X129131Y076525D02*
X129919Y076525D01*
X044419Y051650D02*
X043631Y051650D01*
X043631Y050650D02*
X044419Y050650D01*
X044419Y049650D02*
X043631Y049650D01*
X043631Y048650D02*
X044419Y048650D01*
D37*
X038400Y055325D03*
X034025Y058775D03*
X034025Y061775D03*
X030900Y065650D03*
X027900Y065650D03*
X028900Y058525D03*
X049088Y067338D03*
X050025Y064075D03*
X059025Y070025D03*
X062025Y070025D03*
X048775Y072725D03*
X038650Y041400D03*
X045025Y034775D03*
X050025Y034775D03*
X102275Y050400D03*
X108150Y054525D03*
X108150Y055525D03*
X109400Y055525D03*
X109400Y054525D03*
X110650Y054525D03*
X110650Y055525D03*
X111900Y055525D03*
X111900Y054525D03*
X113150Y054463D03*
X113150Y055588D03*
X114400Y055588D03*
X114400Y054463D03*
X115650Y054463D03*
X115650Y055588D03*
X116900Y055525D03*
X116900Y054525D03*
X118150Y054525D03*
X118150Y055525D03*
X120400Y055525D03*
X120400Y054525D03*
X121650Y054525D03*
X121650Y055525D03*
X122900Y055525D03*
X122900Y054525D03*
X124150Y054525D03*
X124150Y055525D03*
X125400Y055588D03*
X125400Y054463D03*
X126650Y054463D03*
X126650Y055588D03*
X127900Y055588D03*
X127900Y054463D03*
X129150Y054525D03*
X129150Y055525D03*
X130400Y055588D03*
X130400Y054463D03*
X128463Y040900D03*
X127463Y040900D03*
X122900Y040900D03*
X121900Y040900D03*
X126775Y034150D03*
X127775Y034150D03*
X108150Y040525D03*
X106150Y040525D03*
X102275Y056400D03*
D38*
X107065Y044880D03*
X107065Y042920D03*
X111985Y042920D03*
X113565Y042920D03*
X113565Y044880D03*
X111985Y044880D03*
X118485Y044880D03*
X120065Y044880D03*
X120065Y042920D03*
X118485Y042920D03*
X124985Y042920D03*
X126565Y042920D03*
X126565Y044880D03*
X124985Y044880D03*
X131485Y044880D03*
X131485Y042920D03*
X118485Y038380D03*
X118485Y036420D03*
X113565Y036420D03*
X111985Y036420D03*
X111985Y038380D03*
X113565Y038380D03*
X107065Y038380D03*
X107065Y036420D03*
X113565Y025380D03*
X113565Y023420D03*
X118485Y023420D03*
X120065Y023420D03*
X120065Y025380D03*
X118485Y025380D03*
X124985Y025380D03*
X126565Y025380D03*
X126565Y023420D03*
X124985Y023420D03*
X131485Y023420D03*
X131485Y025380D03*
D39*
G36*
X127341Y028468D02*
X127978Y029105D01*
X128615Y028468D01*
X127978Y027831D01*
X127341Y028468D01*
G37*
G36*
X125956Y029853D02*
X126593Y030490D01*
X127230Y029853D01*
X126593Y029216D01*
X125956Y029853D01*
G37*
G36*
X129435Y033332D02*
X130072Y033969D01*
X130709Y033332D01*
X130072Y032695D01*
X129435Y033332D01*
G37*
G36*
X130820Y031947D02*
X131457Y032584D01*
X132094Y031947D01*
X131457Y031310D01*
X130820Y031947D01*
G37*
G36*
X130072Y034331D02*
X129435Y034968D01*
X130072Y035605D01*
X130709Y034968D01*
X130072Y034331D01*
G37*
G36*
X131457Y035716D02*
X130820Y036353D01*
X131457Y036990D01*
X132094Y036353D01*
X131457Y035716D01*
G37*
G36*
X126593Y037810D02*
X125956Y038447D01*
X126593Y039084D01*
X127230Y038447D01*
X126593Y037810D01*
G37*
G36*
X125594Y038447D02*
X124957Y037810D01*
X124320Y038447D01*
X124957Y039084D01*
X125594Y038447D01*
G37*
G36*
X124209Y039832D02*
X123572Y039195D01*
X122935Y039832D01*
X123572Y040469D01*
X124209Y039832D01*
G37*
G36*
X127978Y039195D02*
X127341Y039832D01*
X127978Y040469D01*
X128615Y039832D01*
X127978Y039195D01*
G37*
G36*
X122115Y034968D02*
X121478Y034331D01*
X120841Y034968D01*
X121478Y035605D01*
X122115Y034968D01*
G37*
G36*
X120730Y036353D02*
X120093Y035716D01*
X119456Y036353D01*
X120093Y036990D01*
X120730Y036353D01*
G37*
D40*
X117319Y040650D03*
X115981Y040650D03*
X106319Y043963D03*
X104981Y043963D03*
G36*
X112872Y027554D02*
X112483Y027943D01*
X112982Y028442D01*
X113371Y028053D01*
X112872Y027554D01*
G37*
G36*
X113818Y026608D02*
X113429Y026997D01*
X113928Y027496D01*
X114317Y027107D01*
X113818Y026608D01*
G37*
X114606Y025275D03*
X114606Y024275D03*
X115944Y024275D03*
X115944Y025275D03*
X123216Y028460D03*
X124554Y028460D03*
X130481Y047775D03*
X131819Y047775D03*
X062069Y051525D03*
X060731Y051525D03*
X048444Y032025D03*
X048444Y031213D03*
X047106Y031213D03*
X047106Y032025D03*
X047043Y027775D03*
X048382Y027775D03*
X054731Y025650D03*
X056069Y025650D03*
X059856Y025775D03*
X061194Y025775D03*
X057944Y030275D03*
X057944Y031150D03*
X056606Y031150D03*
X056606Y030275D03*
X051944Y079525D03*
X050606Y079525D03*
D41*
X055775Y069694D03*
X055775Y068356D03*
X115025Y037069D03*
X115025Y035731D03*
X119525Y045856D03*
X119525Y047194D03*
X132400Y035819D03*
X132400Y034481D03*
D42*
X046192Y068650D02*
X045358Y068650D01*
X045358Y069650D02*
X046192Y069650D01*
X046192Y070650D02*
X045358Y070650D01*
X045358Y075650D02*
X046192Y075650D01*
X046192Y076650D02*
X045358Y076650D01*
X045358Y077650D02*
X046192Y077650D01*
X038650Y062692D02*
X038650Y061858D01*
X037650Y061858D02*
X037650Y062692D01*
X036650Y062692D02*
X036650Y061858D01*
X031650Y062108D02*
X031650Y062942D01*
X030650Y062942D02*
X030650Y062108D01*
X029650Y062108D02*
X029650Y062942D01*
X043608Y046650D02*
X044442Y046650D01*
X044442Y045650D02*
X043608Y045650D01*
X043608Y044650D02*
X044442Y044650D01*
D43*
X031150Y053525D03*
X029400Y054525D03*
X031150Y057525D03*
X025400Y054525D03*
X022150Y050775D03*
X018150Y050775D03*
X115901Y051254D03*
X117399Y047546D03*
D44*
X106533Y030900D02*
X106537Y031047D01*
X106547Y031193D01*
X106565Y031339D01*
X106590Y031484D01*
X106623Y031627D01*
X106662Y031769D01*
X106708Y031908D01*
X106761Y032045D01*
X106820Y032179D01*
X106886Y032310D01*
X106959Y032438D01*
X107037Y032562D01*
X107122Y032682D01*
X107212Y032798D01*
X107308Y032909D01*
X107409Y033016D01*
X107516Y033117D01*
X107627Y033213D01*
X107743Y033303D01*
X107863Y033388D01*
X107987Y033466D01*
X108115Y033539D01*
X108246Y033605D01*
X108380Y033664D01*
X108517Y033717D01*
X108656Y033763D01*
X108798Y033802D01*
X108941Y033835D01*
X109086Y033860D01*
X109232Y033878D01*
X109378Y033888D01*
X109525Y033892D01*
X109672Y033888D01*
X109818Y033878D01*
X109964Y033860D01*
X110109Y033835D01*
X110252Y033802D01*
X110394Y033763D01*
X110533Y033717D01*
X110670Y033664D01*
X110804Y033605D01*
X110935Y033539D01*
X111063Y033466D01*
X111187Y033388D01*
X111307Y033303D01*
X111423Y033213D01*
X111534Y033117D01*
X111641Y033016D01*
X111742Y032909D01*
X111838Y032798D01*
X111928Y032682D01*
X112013Y032562D01*
X112091Y032438D01*
X112164Y032310D01*
X112230Y032179D01*
X112289Y032045D01*
X112342Y031908D01*
X112388Y031769D01*
X112427Y031627D01*
X112460Y031484D01*
X112485Y031339D01*
X112503Y031193D01*
X112513Y031047D01*
X112517Y030900D01*
X112513Y030753D01*
X112503Y030607D01*
X112485Y030461D01*
X112460Y030316D01*
X112427Y030173D01*
X112388Y030031D01*
X112342Y029892D01*
X112289Y029755D01*
X112230Y029621D01*
X112164Y029490D01*
X112091Y029362D01*
X112013Y029238D01*
X111928Y029118D01*
X111838Y029002D01*
X111742Y028891D01*
X111641Y028784D01*
X111534Y028683D01*
X111423Y028587D01*
X111307Y028497D01*
X111187Y028412D01*
X111063Y028334D01*
X110935Y028261D01*
X110804Y028195D01*
X110670Y028136D01*
X110533Y028083D01*
X110394Y028037D01*
X110252Y027998D01*
X110109Y027965D01*
X109964Y027940D01*
X109818Y027922D01*
X109672Y027912D01*
X109525Y027908D01*
X109378Y027912D01*
X109232Y027922D01*
X109086Y027940D01*
X108941Y027965D01*
X108798Y027998D01*
X108656Y028037D01*
X108517Y028083D01*
X108380Y028136D01*
X108246Y028195D01*
X108115Y028261D01*
X107987Y028334D01*
X107863Y028412D01*
X107743Y028497D01*
X107627Y028587D01*
X107516Y028683D01*
X107409Y028784D01*
X107308Y028891D01*
X107212Y029002D01*
X107122Y029118D01*
X107037Y029238D01*
X106959Y029362D01*
X106886Y029490D01*
X106820Y029621D01*
X106761Y029755D01*
X106708Y029892D01*
X106662Y030031D01*
X106623Y030173D01*
X106590Y030316D01*
X106565Y030461D01*
X106547Y030607D01*
X106537Y030753D01*
X106533Y030900D01*
X026525Y056309D02*
X026525Y057491D01*
X023585Y057491D02*
X023585Y056309D01*
X020635Y056309D02*
X020635Y057491D01*
X017685Y057491D02*
X017685Y056309D01*
D45*
X061599Y024650D03*
X062701Y024650D03*
D46*
X062025Y052525D03*
X061025Y052525D03*
X061025Y053525D03*
X062025Y053525D03*
X062025Y054525D03*
X061025Y054525D03*
X061025Y055525D03*
X062025Y055525D03*
X062025Y056525D03*
D47*
X037650Y060625D03*
X030650Y060625D03*
X020675Y039525D03*
X020675Y032275D03*
X020675Y025025D03*
D48*
X044843Y072150D03*
X044843Y073400D03*
X046457Y073400D03*
X046457Y072150D03*
D49*
X050150Y075275D03*
X026525Y062900D03*
X026525Y058525D03*
X125025Y059775D03*
X129025Y059775D03*
X129025Y064775D03*
X125025Y064775D03*
D50*
X126934Y074005D02*
X126934Y074565D01*
X127308Y074565D02*
X127308Y074005D01*
X127121Y074192D01*
X126934Y074005D01*
X127542Y074098D02*
X127635Y074005D01*
X127822Y074005D01*
X127915Y074098D01*
X127822Y074285D02*
X127635Y074285D01*
X127542Y074192D01*
X127542Y074098D01*
X127822Y074285D02*
X127915Y074379D01*
X127915Y074472D01*
X127822Y074565D01*
X127635Y074565D01*
X127542Y074472D01*
X128150Y073912D02*
X128523Y073912D01*
X128757Y074005D02*
X128757Y074565D01*
X129131Y074565D02*
X129131Y074005D01*
X128944Y074192D01*
X128757Y074005D01*
X129365Y074098D02*
X129365Y074472D01*
X129458Y074565D01*
X129645Y074565D01*
X129739Y074472D01*
X129739Y074098D01*
X129645Y074005D01*
X129458Y074005D01*
X129365Y074098D01*
X129973Y074285D02*
X130066Y074192D01*
X130346Y074192D01*
X130346Y074005D02*
X130346Y074565D01*
X130066Y074565D01*
X129973Y074472D01*
X129973Y074285D01*
X127275Y055025D02*
X124775Y055025D01*
X125463Y053650D02*
X125463Y052338D01*
X124338Y052525D02*
X124338Y053525D01*
X116400Y055025D02*
X112650Y055025D01*
X112525Y054900D02*
X112525Y053900D01*
X114213Y053400D02*
X114213Y052525D01*
D51*
X050150Y077275D03*
D52*
X058400Y045525D03*
X097150Y044900D03*
X126275Y040150D03*
D53*
X112525Y049185D03*
X112525Y050365D03*
X112525Y056560D03*
X112525Y057740D03*
X098275Y040615D03*
X098275Y039435D03*
X095025Y037615D03*
X093900Y037615D03*
X093900Y036435D03*
X095025Y036435D03*
X094775Y030740D03*
X094775Y029560D03*
X059150Y025240D03*
X059150Y024060D03*
X058900Y075810D03*
X058900Y076990D03*
D54*
X064150Y070575D03*
X064150Y069975D03*
X101025Y044450D03*
X101025Y043850D03*
X100775Y041950D03*
X100775Y041350D03*
X103838Y041200D03*
X103838Y040600D03*
X054150Y028450D03*
X054150Y027850D03*
X050463Y027725D03*
X050463Y028325D03*
D55*
X099525Y042025D03*
X099525Y043025D03*
D56*
X128525Y072838D03*
X117713Y075150D03*
D57*
X055770Y081525D03*
X051030Y081525D03*
X025025Y066150D03*
X018775Y066150D03*
X018775Y059900D03*
X025025Y059900D03*
X019025Y047150D03*
X030025Y044525D03*
X020650Y035900D03*
X024400Y025150D03*
D58*
X058733Y070775D03*
X058733Y071275D03*
X058733Y071775D03*
X058733Y072275D03*
X058733Y072775D03*
X058733Y073275D03*
X058733Y073775D03*
X058733Y074275D03*
X058733Y074775D03*
X058733Y075275D03*
X062693Y075275D03*
X062693Y074775D03*
X062693Y074275D03*
X062693Y073775D03*
X062693Y073275D03*
X062693Y072775D03*
X062693Y072275D03*
X062693Y071775D03*
X062693Y071275D03*
X062693Y070775D03*
D59*
X057274Y072275D03*
X057274Y072775D03*
X057274Y073275D03*
X057274Y073775D03*
X057274Y074275D03*
X057274Y074775D03*
X057274Y075275D03*
X057274Y075775D03*
X055151Y075775D03*
X055151Y075275D03*
X055151Y074775D03*
X055151Y074275D03*
X055151Y073775D03*
X055151Y073275D03*
X055151Y072775D03*
X055151Y072275D03*
D60*
X054895Y078713D03*
X054155Y078713D03*
X054780Y080338D03*
X055520Y080338D03*
D61*
X063025Y067458D03*
X063399Y066592D03*
X062651Y066592D03*
D62*
X054150Y070185D03*
X054150Y071365D03*
X057935Y057650D03*
X059115Y057650D03*
X059560Y047525D03*
X060740Y047525D03*
D63*
X060150Y024076D03*
X060150Y022974D03*
D64*
X055700Y026650D03*
X055100Y026650D03*
X054325Y024275D03*
X053725Y024275D03*
X051200Y023525D03*
X050600Y023525D03*
X051475Y020400D03*
X052075Y020400D03*
X045700Y024525D03*
X045100Y024525D03*
X047225Y026963D03*
X047825Y026963D03*
X040825Y023525D03*
X040225Y023525D03*
X042975Y020525D03*
X043575Y020525D03*
D65*
X042525Y023844D03*
X042525Y025456D03*
X052400Y025456D03*
X052400Y023844D03*
D66*
X051980Y022775D03*
X051980Y022275D03*
X051980Y021775D03*
X051980Y021275D03*
X049820Y021275D03*
X049820Y021775D03*
X049820Y022275D03*
X049820Y022775D03*
X041605Y022775D03*
X041605Y022275D03*
X041605Y021775D03*
X041605Y021275D03*
X039445Y021275D03*
X039445Y021775D03*
X039445Y022275D03*
X039445Y022775D03*
D67*
X044916Y022775D03*
X055916Y022775D03*
D68*
X058790Y023673D03*
X058790Y021877D03*
X047790Y021877D03*
X047790Y023673D03*
D69*
X046475Y020078D02*
X045695Y019299D01*
X046667Y018303D02*
X047447Y019082D01*
X049102Y019082D02*
X049881Y018303D01*
X050881Y019295D02*
X050102Y020074D01*
X052456Y019247D02*
X052456Y018145D01*
X054039Y019299D02*
X054818Y020078D01*
X055791Y019082D02*
X055011Y018303D01*
X044112Y018145D02*
X044112Y019247D01*
X042538Y019295D02*
X041758Y020074D01*
X040758Y019082D02*
X041538Y018303D01*
D70*
X042148Y014762D03*
X043132Y014762D03*
X045104Y014762D03*
X046088Y014762D03*
X050492Y014762D03*
X051476Y014762D03*
X053447Y014762D03*
X054432Y014762D03*
D71*
X026650Y022698D02*
X026650Y023602D01*
X024650Y023602D02*
X024650Y022698D01*
D72*
X029313Y068875D03*
X029313Y075175D03*
X043487Y075962D03*
X043487Y077537D03*
X043487Y073994D03*
X043487Y072419D03*
X043487Y070450D03*
X043487Y068875D03*
D73*
X043880Y066513D03*
D74*
X024275Y071775D03*
X019525Y071775D03*
D75*
X028338Y049025D03*
D76*
X036356Y049025D03*
D77*
X048878Y059655D02*
X048778Y059755D01*
X049110Y059755D01*
X049343Y059522D01*
X049343Y059190D01*
X049110Y058957D01*
X048778Y058957D01*
X048545Y059190D01*
X048545Y059522D01*
X048778Y059755D01*
X048841Y059605D01*
X049047Y059605D01*
X049193Y059459D01*
X049193Y059253D01*
X049047Y059107D01*
X048841Y059107D01*
X048695Y059253D01*
X048695Y059459D01*
X048841Y059605D01*
X048903Y059455D01*
X048985Y059455D01*
X049043Y059397D01*
X049043Y059315D01*
X048985Y059257D01*
X048903Y059257D01*
X048845Y059315D01*
X048845Y059397D01*
X048903Y059455D01*
X046790Y061743D02*
X046690Y061843D01*
X047022Y061843D01*
X047255Y061610D01*
X047255Y061278D01*
X047022Y061045D01*
X046690Y061045D01*
X046457Y061278D01*
X046457Y061610D01*
X046690Y061843D01*
X046753Y061693D01*
X046959Y061693D01*
X047105Y061547D01*
X047105Y061341D01*
X046959Y061195D01*
X046753Y061195D01*
X046607Y061341D01*
X046607Y061547D01*
X046753Y061693D01*
X046815Y061543D01*
X046897Y061543D01*
X046955Y061485D01*
X046955Y061403D01*
X046897Y061345D01*
X046815Y061345D01*
X046757Y061403D01*
X046757Y061485D01*
X046815Y061543D01*
X056150Y028900D02*
X057525Y028900D01*
D78*
X028187Y043994D02*
X028187Y045056D01*
X026613Y045056D02*
X026613Y043994D01*
X023937Y043994D02*
X023937Y045056D01*
X022363Y045056D02*
X022363Y043994D01*
X019687Y043994D02*
X019687Y045056D01*
X018113Y045056D02*
X018113Y043994D01*
X019369Y052613D02*
X020431Y052613D01*
X020431Y054187D02*
X019369Y054187D01*
X117619Y060113D02*
X118681Y060113D01*
X118681Y061687D02*
X117619Y061687D01*
X117619Y064488D02*
X118681Y064488D01*
X118681Y066062D02*
X117619Y066062D01*
D79*
X099775Y055525D02*
X099525Y051525D01*
X100275Y049150D02*
X103400Y049150D01*
X104275Y049650D02*
X101525Y049650D01*
X104275Y050650D02*
X104275Y053150D01*
X103525Y053775D01*
X104775Y054025D02*
X104775Y051400D01*
X106525Y051400D01*
X106275Y052025D02*
X105275Y052525D01*
X105275Y053400D01*
X099400Y054900D02*
X099400Y055275D01*
X104400Y042025D02*
X104400Y040275D01*
X103400Y039275D01*
X102963Y038150D02*
X102963Y035400D01*
X103775Y033400D01*
X103900Y034650D02*
X103275Y035650D01*
X103275Y037900D01*
X104900Y039525D01*
X103588Y037588D02*
X103588Y035838D01*
X104650Y035150D01*
X102650Y035025D02*
X103400Y032025D01*
X103775Y031275D01*
X098900Y032400D02*
X098900Y038275D01*
X100775Y038275D01*
X101338Y037775D02*
X099338Y037775D01*
X099338Y028400D01*
X095275Y030150D02*
X094213Y030150D01*
X098463Y036025D02*
X098463Y039025D01*
X097829Y040025D02*
X099525Y040025D01*
X095400Y037025D02*
X093525Y037025D01*
X120150Y037900D02*
X120150Y041150D01*
X121650Y043525D01*
X122213Y043588D02*
X120650Y041088D01*
X120650Y038400D01*
X121150Y040525D02*
X121150Y041025D01*
X122775Y043525D01*
X127650Y045275D02*
X129150Y043275D01*
X129588Y042338D01*
X129588Y041338D01*
X129338Y040838D01*
X129338Y037338D01*
X128775Y035650D01*
X128775Y033650D01*
X128588Y033150D01*
X129150Y032525D02*
X129150Y035463D01*
X129650Y036525D01*
X129650Y037713D01*
X129713Y038150D01*
X129713Y040775D01*
X129900Y041150D01*
X129900Y042775D01*
X129275Y044150D01*
X129650Y044900D02*
X130213Y042775D01*
X130213Y041025D01*
X130025Y040650D01*
X130025Y039525D01*
X130838Y039025D01*
X130838Y038213D01*
X130150Y037838D01*
X130150Y036025D01*
X131150Y035025D01*
X131400Y035275D02*
X132400Y034481D01*
X131400Y035275D02*
X130525Y036150D01*
X130525Y037400D01*
X133275Y037963D02*
X133525Y039088D01*
X133525Y041213D01*
X132150Y042150D01*
X130838Y042150D01*
X130838Y042588D01*
X130713Y043838D01*
X130525Y042900D02*
X130150Y044900D01*
X130150Y046150D01*
X130525Y042900D02*
X130525Y041775D01*
X132025Y041775D01*
X133025Y041025D01*
X133025Y039275D01*
X122525Y034525D02*
X121400Y034025D01*
X121275Y034025D01*
X062650Y062525D02*
X062650Y066275D01*
X062651Y066592D01*
X063399Y066592D02*
X063201Y065650D01*
X063025Y067458D02*
X061900Y068150D01*
X061900Y069150D01*
X062025Y070025D01*
X061400Y069525D02*
X061275Y069650D01*
X061275Y071275D01*
X061775Y071775D01*
X062693Y071775D01*
X061650Y072400D02*
X061650Y072900D01*
X062025Y073275D01*
X062693Y073275D01*
X062693Y073775D02*
X061775Y073775D01*
X061150Y073150D01*
X061150Y072650D01*
X060400Y071900D01*
X060400Y068025D01*
X059775Y066650D01*
X059775Y062525D01*
X060275Y062400D02*
X060275Y066150D01*
X060900Y067525D01*
X060900Y071650D01*
X061650Y072400D01*
X060650Y072900D02*
X060650Y073525D01*
X061900Y074775D01*
X062693Y074775D01*
X062150Y075775D02*
X063775Y075775D01*
X062150Y075775D02*
X060150Y073775D01*
X060150Y073150D01*
X059650Y072650D01*
X059650Y071525D01*
X059400Y071275D01*
X058733Y071275D01*
X058733Y071775D02*
X058213Y071775D01*
X058088Y071650D01*
X058088Y068525D01*
X057650Y067525D01*
X057650Y066650D01*
X057025Y066734D02*
X057025Y067525D01*
X057650Y068775D01*
X057650Y070900D01*
X057775Y071025D01*
X057775Y072025D01*
X058025Y072275D01*
X058733Y072275D01*
X058733Y072775D02*
X059150Y072775D01*
X059650Y073275D01*
X059650Y076025D01*
X059275Y076400D01*
X058525Y076400D01*
X057275Y077150D01*
X056650Y077150D01*
X056275Y076775D01*
X056275Y076525D01*
X056525Y075900D01*
X056525Y073900D01*
X055775Y073275D01*
X055151Y073275D01*
X055151Y072775D02*
X055775Y072775D01*
X055775Y072150D01*
X055275Y071525D01*
X054724Y070775D02*
X053525Y070775D01*
X053185Y071115D01*
X053185Y072275D01*
X053775Y072775D02*
X053900Y073151D01*
X053899Y073775D01*
X055151Y074275D02*
X055775Y074275D01*
X056150Y074650D01*
X056150Y075900D01*
X055650Y076900D01*
X055650Y080275D01*
X052845Y079483D02*
X051944Y079525D01*
X055118Y078482D02*
X055118Y076807D01*
X055775Y075900D01*
X055775Y075025D01*
X055525Y074775D01*
X055151Y074775D01*
X057274Y075775D02*
X057150Y076400D01*
X058560Y076865D02*
X058900Y076990D01*
X060650Y072900D02*
X060025Y072275D01*
X060025Y071025D01*
X059900Y070900D01*
X059900Y068525D01*
X059275Y067150D01*
X059275Y065400D01*
X060900Y065400D02*
X060900Y065775D01*
X061400Y066900D01*
X061400Y069525D01*
X059025Y070025D02*
X059025Y068525D01*
X058525Y067150D01*
X054650Y052400D02*
X053150Y051025D01*
X053150Y050209D01*
X052941Y049999D01*
X053163Y049777D02*
X052650Y049264D01*
X052650Y048900D01*
X052914Y048636D01*
X053609Y049331D01*
X054025Y049748D01*
X054025Y050275D01*
X054297Y050547D01*
X054713Y050547D01*
X054735Y049900D02*
X059900Y049900D01*
X058275Y050525D02*
X058274Y051400D01*
X057526Y051400D02*
X056525Y051400D01*
X054775Y051525D02*
X054150Y051150D01*
X053650Y050775D01*
X053650Y049818D01*
X053386Y049554D01*
X053831Y049109D02*
X054123Y049400D01*
X054373Y049650D01*
X054601Y049878D01*
X054713Y049878D01*
X054889Y049275D02*
X054277Y048663D01*
X054499Y048441D02*
X054834Y048650D01*
X054054Y048886D02*
X053650Y048482D01*
X053650Y047775D01*
X052525Y046650D01*
X052525Y045900D01*
X052150Y045400D01*
X051900Y044775D01*
X051275Y044025D01*
X051150Y044650D02*
X051525Y045025D01*
X051900Y045841D01*
X052109Y046051D01*
X051887Y046273D02*
X051264Y045650D01*
X050775Y045400D01*
X051150Y044650D02*
X048900Y044650D01*
X048900Y045650D02*
X049650Y045650D01*
X050400Y046400D01*
X050400Y047014D01*
X050773Y047387D01*
X050551Y047609D02*
X049591Y046650D01*
X048900Y046650D01*
X048900Y047650D02*
X049760Y047650D01*
X050551Y048441D01*
X050773Y048663D02*
X050411Y049025D01*
X050150Y049025D01*
X049775Y048650D01*
X048900Y048650D01*
X048900Y049650D02*
X050232Y049650D01*
X050996Y048886D01*
X051219Y049109D02*
X049677Y050650D01*
X048900Y050650D01*
X050275Y051150D02*
X050525Y050248D01*
X051441Y049331D01*
X051664Y049554D02*
X051150Y050068D01*
X051150Y051525D01*
X051650Y052025D02*
X051650Y050459D01*
X052109Y049999D01*
X051887Y049777D02*
X052264Y049400D01*
X052400Y049400D01*
X052525Y049525D01*
X052525Y050525D01*
X052150Y051275D01*
X053831Y049109D02*
X053275Y048552D01*
X053275Y048107D01*
X051664Y046496D01*
X051318Y046150D01*
X051150Y046150D01*
X050900Y046400D01*
X050900Y046623D01*
X051219Y046941D01*
X051441Y046719D02*
X051775Y047052D01*
X051775Y047525D01*
X051802Y047525D01*
X052914Y048636D01*
X051775Y047525D02*
X051357Y047525D01*
X050996Y047164D01*
X052941Y046051D02*
X052775Y045650D01*
X052150Y044275D01*
X051150Y043025D01*
X051900Y042650D02*
X052775Y042525D01*
X053400Y042775D01*
X053775Y043275D01*
X053775Y043525D01*
X053150Y044150D01*
X053150Y044525D01*
X053775Y045525D01*
X053775Y046107D01*
X053386Y046496D01*
X053609Y046719D02*
X054150Y046177D01*
X054150Y045525D01*
X054025Y045150D01*
X053900Y044275D01*
X054775Y044025D02*
X054775Y045025D01*
X054998Y045775D02*
X055025Y045775D01*
X056275Y045025D01*
X056775Y044650D01*
X058025Y044650D01*
X058275Y044900D01*
X058400Y045525D01*
X057400Y045525D02*
X054943Y046275D01*
X054054Y047164D01*
X053831Y046941D02*
X054998Y045775D01*
X055014Y046650D02*
X055650Y046525D01*
X057400Y046525D01*
X058400Y046525D02*
X059400Y046400D01*
X057400Y047525D02*
X056525Y047900D01*
X055650Y047275D02*
X054834Y047275D01*
X054499Y047609D01*
X054277Y047387D02*
X055014Y046650D01*
X053400Y046036D02*
X053400Y045650D01*
X052650Y044400D01*
X052650Y044025D01*
X052900Y043400D01*
X053525Y042150D02*
X053400Y041900D01*
X053525Y042150D02*
X054775Y044025D01*
X053400Y046036D02*
X053163Y046273D01*
X045900Y046650D02*
X044025Y046650D01*
X044025Y045650D02*
X045900Y045650D01*
X045900Y044650D02*
X044025Y044650D01*
X041900Y039900D02*
X041650Y039275D01*
X041650Y033150D01*
X041400Y032775D01*
X041400Y030775D01*
X039525Y029025D01*
X039025Y028650D01*
X041025Y028025D02*
X041025Y029775D01*
X041900Y030525D01*
X041900Y032525D01*
X042150Y032900D01*
X042150Y038525D01*
X042338Y038838D01*
X042650Y037775D02*
X043900Y039150D01*
X044962Y037963D02*
X044963Y037962D01*
X044963Y037213D02*
X044338Y037213D01*
X044088Y036963D01*
X044963Y036524D02*
X046650Y036547D01*
X044963Y035776D02*
X044274Y035776D01*
X044088Y035963D01*
X043713Y035963D01*
X043525Y035775D01*
X043525Y034400D01*
X043963Y033963D01*
X044338Y033963D01*
X044900Y033775D01*
X045626Y033775D01*
X045838Y031025D02*
X044400Y031025D01*
X042400Y030275D02*
X042400Y032275D01*
X042650Y032650D01*
X042650Y037775D01*
X047106Y031213D02*
X047231Y031088D01*
X047231Y029757D01*
X047400Y029588D01*
X048213Y029588D01*
X048650Y030463D01*
X049088Y030588D01*
X049400Y030900D01*
X049400Y030150D02*
X049025Y030150D01*
X048525Y029275D01*
X048150Y029275D01*
X047963Y029088D01*
X047963Y028650D01*
X047764Y030275D02*
X048569Y031206D01*
X048444Y031213D01*
X043213Y028649D02*
X042899Y028649D01*
X042525Y028275D01*
X042525Y027400D01*
X039775Y025525D01*
X039775Y024525D01*
X038275Y023150D01*
X037650Y023150D01*
X037650Y025150D02*
X038400Y025150D01*
X038650Y025400D01*
X038650Y025900D01*
X041525Y027900D01*
X041525Y029525D01*
X042400Y030275D01*
X041025Y028025D02*
X038275Y026150D01*
X037650Y026150D01*
X048588Y025088D02*
X048588Y023963D01*
X054025Y025275D02*
X054025Y026025D01*
X053400Y027275D01*
X056775Y035400D02*
X056650Y035525D01*
X056650Y038525D01*
X057201Y037275D02*
X057025Y037099D01*
X057025Y036025D01*
X057235Y035815D01*
X057650Y035815D01*
X058690Y035815D01*
X059025Y036150D01*
X059025Y038150D01*
X060525Y039650D01*
X060525Y040275D01*
X045900Y049650D02*
X044025Y049650D01*
X044025Y050650D02*
X045900Y050650D01*
D80*
X047400Y049150D02*
X047650Y048775D01*
X047650Y043150D01*
X045900Y040900D01*
X044900Y040025D01*
X039650Y041400D02*
X038275Y039400D01*
X038275Y037275D01*
X039025Y036525D01*
X039025Y035525D01*
X040900Y034775D01*
X036650Y035400D02*
X036150Y035025D01*
X035900Y036150D02*
X034926Y035051D01*
X034301Y034926D01*
X034127Y035910D02*
X034900Y036275D01*
X035626Y037025D01*
X036650Y037025D01*
X035025Y038525D02*
X034900Y039400D01*
X031900Y039400D02*
X031400Y038150D01*
X030025Y037775D01*
X033992Y029587D02*
X035212Y030212D01*
X035525Y030525D01*
X047790Y021877D02*
X047790Y021393D01*
X046085Y019688D01*
X049025Y019159D02*
X049025Y020900D01*
X049400Y021275D01*
X049820Y021275D01*
X050492Y019684D02*
X051475Y020400D01*
X052075Y020400D02*
X053400Y020400D01*
X054463Y021463D01*
X055650Y022775D01*
X055916Y022775D01*
X055765Y021025D02*
X057937Y021025D01*
X058790Y021877D01*
X058150Y024650D02*
X057900Y024650D01*
X057900Y025650D02*
X056865Y025115D01*
X057900Y025650D02*
X058525Y025650D01*
X059150Y025240D01*
X058150Y027650D02*
X056735Y027650D01*
X054150Y033274D02*
X054150Y034740D01*
X054435Y034900D01*
X054025Y034900D01*
X053525Y035400D01*
X053525Y036024D01*
X053526Y036025D01*
X052775Y039400D02*
X051775Y040025D01*
X058525Y040275D02*
X058525Y039400D01*
X058525Y040275D02*
X058525Y041275D01*
X059525Y041275D02*
X059525Y040275D01*
X060525Y040275D02*
X060525Y041275D01*
X061525Y041275D02*
X061525Y040275D01*
X047400Y049150D02*
X047400Y052525D01*
X046650Y052650D01*
X044525Y052650D01*
X044025Y052150D01*
X044025Y051650D01*
X043025Y051650D01*
X042650Y051275D01*
X042650Y049025D01*
X043025Y048650D01*
X044025Y048650D01*
X055525Y050525D02*
X055650Y050525D01*
X062900Y054525D02*
X062900Y057150D01*
X062649Y057401D01*
X062649Y058150D01*
X062649Y060149D01*
X062650Y062525D01*
X061650Y063400D02*
X061650Y065201D01*
X062099Y065650D01*
X061650Y063400D02*
X061650Y059150D01*
X061901Y058899D01*
X061901Y058150D01*
X062025Y056525D01*
X054525Y064900D02*
X052400Y064025D01*
X052275Y070900D02*
X052275Y073775D01*
X051525Y074775D01*
X051525Y077650D01*
X050606Y078569D01*
X050606Y079525D01*
X051275Y079025D02*
X052463Y077837D01*
X052463Y077150D01*
X052463Y075213D01*
X053151Y073775D02*
X053151Y073309D01*
X053185Y072275D01*
X056275Y078240D02*
X058525Y076990D01*
X058900Y076990D01*
X056275Y078240D02*
X056275Y080645D01*
X055770Y081525D01*
X054780Y080338D02*
X054075Y080338D01*
X053892Y080521D01*
X053892Y079483D02*
X054155Y079220D01*
X054155Y078713D01*
X051275Y079025D02*
X051275Y081525D01*
X130525Y037400D02*
X133025Y039275D01*
X055765Y021025D02*
X054429Y019688D01*
X049492Y018692D02*
X049025Y019159D01*
X042975Y020525D02*
X042148Y019684D01*
X041148Y018692D02*
X039445Y020395D01*
X039445Y021275D01*
D81*
X057213Y026775D03*
X058150Y027650D03*
X058150Y024650D03*
X057213Y032025D03*
X092516Y045525D03*
X096150Y040588D03*
X097650Y038150D03*
X095025Y035400D03*
X094275Y034025D03*
X095025Y032588D03*
X102275Y037400D03*
X105338Y038150D03*
X109525Y040650D03*
X113025Y040650D03*
X104650Y045338D03*
X104588Y046525D03*
X108650Y048400D03*
X109400Y049150D03*
X108400Y050275D03*
X109525Y050775D03*
X109275Y052525D03*
X109275Y053400D03*
X111025Y052025D03*
X111650Y050025D03*
X113275Y049025D03*
X113900Y050525D03*
X118150Y049775D03*
X119025Y048900D03*
X119025Y051213D03*
X118025Y051900D03*
X118650Y053400D03*
X121025Y053650D03*
X122275Y051900D03*
X123900Y050525D03*
X124900Y049775D03*
X125900Y048900D03*
X127400Y049025D03*
X127650Y050650D03*
X126525Y050463D03*
X126900Y051525D03*
X125775Y051525D03*
X129775Y050650D03*
X130900Y051525D03*
X124775Y056525D03*
X122025Y046775D03*
X123463Y046650D03*
X116525Y046775D03*
X107150Y055150D03*
X105275Y055650D03*
X096463Y051275D03*
X094025Y051275D03*
X106400Y034525D03*
X114775Y032150D03*
X114775Y030275D03*
X116025Y029775D03*
X115525Y027400D03*
X122275Y029775D03*
X118025Y032150D03*
X125588Y033275D03*
X128650Y027525D03*
X133025Y027525D03*
X062775Y069025D03*
X056775Y069025D03*
D82*
X052400Y066025D02*
X050025Y065475D01*
X050025Y064075D02*
X051475Y064900D01*
X052400Y065025D01*
X052400Y064025D02*
X051025Y062650D01*
X048525Y062650D01*
X047129Y064046D01*
X045775Y068650D02*
X043487Y068875D01*
X043487Y070450D02*
X045775Y070650D01*
X046457Y072150D02*
X046457Y073400D01*
X047275Y074525D02*
X045025Y074525D01*
X044400Y075025D01*
X041900Y075025D01*
X043487Y075962D02*
X045775Y075650D01*
X045775Y077650D02*
X043487Y077537D01*
X043487Y073994D02*
X044843Y073400D01*
X044843Y072150D02*
X043487Y072419D01*
X047275Y074525D02*
X048975Y072825D01*
X048775Y072725D01*
X048775Y071325D02*
X050378Y070663D01*
X053151Y073775D02*
X052463Y075213D01*
X062775Y069025D02*
X064400Y067400D01*
X064400Y065150D01*
X063900Y064650D01*
X063900Y060775D01*
X064400Y060275D01*
X064400Y058900D01*
X064275Y058775D01*
X064275Y055900D01*
X064400Y055775D01*
X064400Y053400D01*
X063275Y052275D01*
X063275Y051275D01*
X062650Y050650D01*
X062275Y049900D02*
X062900Y049525D01*
X062275Y049900D02*
X059900Y049900D01*
X062400Y046400D02*
X062275Y046275D01*
X062275Y043525D01*
X060525Y041775D01*
X060525Y041275D01*
X039275Y042650D02*
X038650Y041400D01*
X037900Y040400D01*
X036775Y040400D01*
X036650Y040275D01*
X036650Y037025D01*
X036650Y035400D01*
X036150Y035026D02*
X036030Y034931D01*
X035915Y034830D01*
X035805Y034724D01*
X035700Y034613D01*
X035601Y034497D01*
X035507Y034376D01*
X035419Y034251D01*
X035336Y034122D01*
X035261Y033989D01*
X035191Y033853D01*
X035128Y033714D01*
X035072Y033571D01*
X035023Y033427D01*
X034981Y033280D01*
X034945Y033131D01*
X034917Y032981D01*
X034896Y032829D01*
X034882Y032677D01*
X034876Y032524D01*
X034876Y032371D01*
X034884Y032218D01*
X034900Y032066D01*
X034922Y031915D01*
X034952Y031765D01*
X034989Y031617D01*
X035032Y031470D01*
X035083Y031326D01*
X035141Y031184D01*
X035205Y031045D01*
X035275Y030910D01*
X035353Y030778D01*
X035436Y030649D01*
X035525Y030525D01*
X036275Y029775D01*
X036650Y026150D02*
X037650Y026150D01*
X037650Y025150D02*
X036650Y025150D01*
X036650Y024150D02*
X035525Y024150D01*
X035400Y024150D01*
X036650Y024150D02*
X037650Y024150D01*
X037650Y023150D02*
X036650Y023150D01*
X035400Y022775D02*
X035400Y022650D01*
X031275Y026275D02*
X030650Y025525D01*
X029900Y025525D01*
X031275Y026275D02*
X031266Y027985D01*
X030850Y029941D02*
X030025Y029775D01*
X028025Y029150D01*
X028025Y021775D01*
X027275Y021025D01*
X024525Y021025D01*
X022525Y021775D01*
X031275Y031650D02*
X031775Y032650D01*
X031346Y034405D01*
X031025Y036275D02*
X027775Y036275D01*
X026650Y035150D01*
X026650Y035025D01*
X031025Y036275D02*
X030999Y036374D01*
X034900Y040400D02*
X036775Y040400D01*
X039275Y042650D02*
X039275Y052400D01*
X043275Y056025D01*
X045525Y056025D01*
X033900Y054525D02*
X033900Y053650D01*
X033275Y053025D01*
X032775Y053025D01*
X031150Y057525D02*
X028900Y057525D01*
X026525Y056900D02*
X026525Y058525D01*
X026525Y062900D02*
X025025Y064775D01*
X025025Y066150D01*
X029400Y075088D02*
X029313Y075175D01*
X041025Y025525D02*
X041150Y025456D01*
X045900Y022775D02*
X047900Y022775D01*
X056900Y022775D02*
X058900Y022775D01*
X114589Y038380D02*
X115025Y037069D01*
D83*
X131457Y036353D02*
X132400Y035819D01*
X062400Y046400D02*
X062275Y046525D01*
X062275Y048525D01*
X062900Y049525D01*
X062069Y051525D02*
X062025Y052525D01*
X062025Y054525D02*
X062900Y054525D01*
X055525Y062525D02*
X056275Y063400D01*
X056275Y065400D01*
X055150Y066150D01*
X052400Y065025D01*
X051637Y067087D02*
X050025Y065475D01*
X050525Y067400D02*
X051275Y069400D01*
X051276Y073649D01*
X050150Y075275D01*
X048900Y075275D01*
X047150Y076650D01*
X045775Y076650D01*
X047525Y079150D02*
X047775Y079150D01*
X050150Y081525D01*
X051030Y081525D01*
X051275Y081525D01*
X052838Y081525D01*
X052845Y080521D01*
X052838Y081525D02*
X055770Y081525D01*
X048775Y071325D02*
X047325Y072150D01*
X046457Y072150D01*
X045775Y069650D02*
X048525Y069650D01*
X049088Y069338D01*
X046525Y066650D01*
X046025Y066400D01*
X051637Y067087D02*
X052672Y067387D01*
X038400Y056725D02*
X037475Y056725D01*
X036600Y055975D01*
X033600Y055975D01*
X032900Y055400D01*
X032900Y054525D01*
X031150Y053525D01*
X029150Y050775D01*
X034900Y052025D02*
X034900Y053025D01*
X034900Y054525D01*
X035900Y054525D02*
X036900Y054525D01*
X036900Y052025D01*
X036356Y049025D01*
X035775Y053025D02*
X034900Y053025D01*
X036900Y054525D02*
X037725Y055275D01*
X038400Y055325D01*
X032900Y057525D02*
X031150Y057525D01*
X030650Y060625D02*
X030650Y062525D01*
X030900Y064775D01*
X030900Y065650D01*
X031650Y062525D02*
X034025Y061775D01*
X045525Y056025D02*
X048525Y056025D01*
X031525Y041400D02*
X030275Y042775D01*
X028275Y042775D01*
X027025Y041525D01*
X027025Y038400D01*
X025025Y036525D01*
X022650Y036525D01*
X019025Y038525D01*
X020650Y035025D02*
X022525Y035025D01*
X025025Y034900D01*
X026650Y035025D02*
X026650Y031150D01*
X024150Y029025D01*
X022525Y029025D01*
X019025Y031275D01*
X022525Y027775D02*
X019025Y026025D01*
X019025Y025025D02*
X020650Y025025D01*
X021900Y026275D01*
X025775Y026275D01*
X025900Y026150D01*
X025900Y025525D01*
X026650Y024275D01*
X026650Y023150D01*
X022525Y021775D02*
X019025Y024025D01*
X022525Y027775D02*
X025525Y028025D01*
X025900Y026650D02*
X025900Y026150D01*
X029525Y027275D02*
X029525Y028025D01*
X029525Y027275D02*
X029900Y026650D01*
X035065Y027190D02*
X035065Y025150D01*
X035065Y024610D01*
X035525Y024150D01*
X035400Y024150D02*
X035400Y022775D01*
X035400Y021510D01*
X042148Y014762D01*
X042525Y025456D02*
X041150Y025456D01*
X042525Y025456D02*
X045963Y025463D01*
X046463Y025400D01*
X050963Y025400D02*
X051213Y025456D01*
X052400Y025456D01*
X036275Y028400D02*
X036275Y029775D01*
X036275Y028400D02*
X035065Y027190D01*
X031900Y041400D02*
X031525Y041400D01*
X025025Y041650D02*
X022650Y042525D01*
D84*
X022363Y042812D01*
X022363Y044525D01*
X023937Y044525D02*
X023937Y046613D01*
X023900Y046650D01*
X024150Y046650D01*
X026613Y046650D01*
X026613Y044525D01*
X028187Y044525D02*
X030025Y044525D01*
X029025Y041650D02*
X030025Y039775D01*
X024025Y039775D02*
X024025Y039400D01*
X020675Y039525D01*
X019025Y039525D01*
X017400Y039525D01*
X017400Y043650D01*
X018113Y044525D01*
X019687Y044525D02*
X019687Y046501D01*
X019860Y046673D01*
X019900Y046650D01*
X023900Y046650D01*
X019860Y046673D02*
X019025Y047150D01*
X022650Y042525D02*
X019025Y040525D01*
X017400Y039525D02*
X017400Y032275D01*
X019025Y032275D01*
X020675Y032275D01*
X023400Y032275D01*
X024025Y032150D01*
X024025Y031025D01*
X024025Y032150D02*
X024025Y033025D01*
X020650Y035025D02*
X020650Y035900D01*
X020650Y035025D02*
X019025Y033275D01*
X017400Y032275D02*
X017400Y027025D01*
X019025Y026025D01*
X024400Y025150D02*
X024650Y023150D01*
X030025Y033025D02*
X029775Y033400D01*
X029025Y034900D01*
X024025Y037775D02*
X024025Y039400D01*
X044112Y018696D02*
X046085Y019688D01*
X044112Y018696D02*
X044112Y014762D01*
X042148Y014762D01*
X044112Y014762D02*
X046088Y014762D01*
X050492Y014762D01*
X052456Y014762D01*
X052456Y018696D01*
X054429Y019688D01*
X054432Y014762D02*
X052456Y014762D01*
X107065Y038380D02*
X109025Y038400D01*
X111525Y038400D02*
X111985Y038380D01*
X113565Y038380D02*
X114589Y038380D01*
X113565Y036420D02*
X111985Y036420D01*
X117650Y038400D02*
X118485Y038380D01*
X118485Y036420D02*
X118937Y034968D01*
X121478Y034968D01*
X124957Y038447D02*
X126593Y038447D01*
X124025Y040400D02*
X123572Y039832D01*
X123775Y042900D02*
X124985Y042920D01*
X126565Y042920D01*
X127900Y042900D01*
X126650Y044275D02*
X126565Y044880D01*
X124985Y044880D02*
X125025Y044275D01*
X120065Y044880D02*
X119775Y044900D01*
X118485Y044880D02*
X118088Y044900D01*
X118485Y042920D02*
X120065Y042920D01*
X114775Y044900D02*
X113565Y044880D01*
X112338Y044900D02*
X111985Y044880D01*
X111985Y042920D02*
X113565Y042920D01*
X107775Y044900D02*
X107065Y044880D01*
X130072Y034968D02*
X130072Y033332D01*
X131463Y026275D02*
X131485Y025380D01*
X131525Y024025D02*
X131485Y023420D01*
X127170Y023420D02*
X126565Y023420D01*
X124985Y023420D01*
X123275Y023400D01*
X120065Y023420D02*
X118485Y023420D01*
X117525Y023400D01*
X117400Y025400D02*
X118485Y025380D01*
X114275Y023025D02*
X113565Y023420D01*
X113565Y025380D02*
X113565Y026521D01*
X126588Y026275D02*
X126565Y025380D01*
X131485Y042920D02*
X131838Y043525D01*
D85*
X052650Y033400D02*
X052650Y026400D01*
X052400Y025456D01*
X052650Y033400D02*
X051775Y034275D01*
X051775Y040025D01*
X039025Y027525D02*
X037650Y027150D01*
X036650Y027150D01*
X028338Y049025D02*
X029150Y050775D01*
X025650Y050775D02*
X029400Y054525D01*
X025650Y050775D02*
X023150Y050775D01*
X022150Y050775D01*
X028900Y058525D02*
X029275Y059150D01*
X029275Y061525D01*
X029650Y062525D01*
X028025Y061775D02*
X027275Y061025D01*
X028025Y061775D02*
X028025Y063525D01*
X029313Y064813D01*
X031650Y068025D02*
X035150Y063650D01*
X035150Y060650D01*
X035216Y060260D01*
X036275Y060275D01*
X037650Y060625D01*
X037650Y062275D01*
X036650Y062275D02*
X036650Y064150D01*
X036650Y065650D01*
X034275Y068650D01*
X034275Y073400D01*
X030275Y077400D01*
X030025Y077400D01*
X029313Y075175D02*
X029313Y074862D01*
X031650Y072525D01*
X031650Y068025D01*
X036650Y064150D02*
X039650Y064150D01*
X040900Y064025D01*
X042275Y061275D01*
X042275Y058150D01*
X039200Y055325D01*
X038400Y055325D01*
X035900Y057525D02*
X036025Y058650D01*
X034900Y057525D02*
X035025Y060150D01*
X035216Y060260D01*
X035025Y060150D02*
X033150Y060150D01*
X032525Y059150D01*
X029275Y059150D01*
X034025Y058775D02*
X033900Y057525D01*
X040025Y058650D02*
X040025Y060525D01*
X038650Y062275D01*
X043900Y064025D02*
X043880Y066513D01*
X045525Y064754D01*
X046421Y064754D01*
X047312Y065616D01*
X050025Y064075D01*
X047129Y064046D02*
X047129Y061921D01*
X047106Y061921D01*
X046856Y061444D01*
X047775Y060400D02*
X050525Y061275D01*
X047775Y060400D02*
X047400Y057650D01*
X045525Y056025D02*
X045525Y064754D01*
X047312Y065616D02*
X049088Y067338D01*
X043880Y066513D02*
X043869Y066525D01*
X042400Y066525D01*
X041775Y067150D01*
X041775Y074900D01*
X041775Y078525D01*
X042400Y079150D01*
X047525Y079150D01*
D86*
X050150Y077275D01*
X029313Y075175D02*
X027525Y075775D01*
X027525Y073775D02*
X028025Y072650D01*
X029313Y068875D02*
X028025Y068650D01*
X029313Y068875D02*
X029313Y064813D01*
X027275Y061025D02*
X026150Y061025D01*
X025025Y059900D01*
X107065Y042920D02*
X110525Y042920D01*
X110525Y036420D01*
X107065Y036420D01*
X110525Y036420D02*
X111985Y036420D01*
X111985Y042920D02*
X110525Y042920D01*
X120065Y025380D02*
X124985Y025380D01*
D87*
X062400Y046400D03*
X059400Y046400D03*
X056525Y047900D03*
X055650Y047275D03*
X054775Y045025D03*
X055650Y044400D03*
X053900Y044275D03*
X052900Y043400D03*
X051900Y042650D03*
X053400Y041900D03*
X054525Y040775D03*
X052775Y039400D03*
X051775Y040025D03*
X048775Y041900D03*
X047275Y040775D03*
X044900Y041400D03*
X044900Y040025D03*
X050275Y043150D03*
X050775Y045400D03*
X057400Y041400D03*
X058525Y039400D03*
X044150Y034775D03*
X040900Y034775D03*
X062900Y049525D03*
X056525Y051400D03*
X054775Y051525D03*
X052900Y051900D03*
X053900Y052775D03*
X051900Y053400D03*
X050775Y054775D03*
X050275Y056025D03*
X048525Y056025D03*
X047400Y057650D03*
X052150Y055275D03*
X054025Y056025D03*
X056275Y056025D03*
X057150Y055275D03*
X056275Y058150D03*
X056275Y059650D03*
X054650Y058900D03*
X055525Y062525D03*
X058525Y063400D03*
X061650Y063400D03*
X062650Y062525D03*
X063525Y059650D03*
X059400Y058900D03*
X062900Y054525D03*
X050275Y051150D03*
X048525Y052400D03*
X047400Y052525D03*
X050525Y061275D03*
X050525Y067400D03*
X056275Y067150D03*
X058525Y067150D03*
X055275Y071525D03*
X057150Y076400D03*
X063775Y073025D03*
X063775Y071525D03*
D88*
X054150Y071365D02*
X053775Y071775D01*
X053775Y072775D01*
X108775Y056025D02*
X108775Y055150D01*
X113025Y053650D02*
X113025Y052275D01*
X102650Y036775D02*
X102650Y035025D01*
X117213Y034150D02*
X117213Y033025D01*
X056775Y025025D02*
X054275Y025025D01*
X054025Y025275D01*
D89*
X119400Y037275D02*
X120093Y036353D01*
D90*
X050963Y025400D03*
X046463Y025400D03*
X046088Y026775D03*
X046088Y027775D03*
X041025Y025525D03*
X039025Y027525D03*
X046088Y031963D03*
D91*
X111150Y047275D02*
X111025Y048650D01*
X123275Y048525D02*
X123400Y047525D01*
D92*
X117400Y050525D03*
D93*
X117275Y029150D02*
X117150Y027900D01*
D94*
X031275Y031650D02*
X030025Y031025D01*
D95*
X092650Y021025D03*
X093650Y017025D03*
X131150Y017025D03*
X135150Y021025D03*
X092650Y058275D03*
X116650Y078525D03*
X131150Y080775D03*
X135150Y076775D03*
M02*
