G75*
G70*
%OFA0B0*%
%FSLAX24Y24*%
%IPPOS*%
%LPD*%
%AMOC8*
5,1,8,0,0,1.08239X$1,22.5*
%
%ADD10C,0.0100*%
%ADD11C,0.0000*%
%ADD12C,0.0394*%
%ADD13C,0.0079*%
%ADD14C,0.0050*%
D10*
X000150Y000150D02*
X157150Y000150D01*
X157150Y099150D01*
X000150Y099150D01*
X000150Y000150D01*
X033644Y032275D02*
X033647Y032410D01*
X033657Y032545D01*
X033674Y032679D01*
X033697Y032813D01*
X033727Y032945D01*
X033763Y033075D01*
X033805Y033203D01*
X033854Y033330D01*
X033909Y033453D01*
X033969Y033574D01*
X034036Y033692D01*
X034108Y033806D01*
X034186Y033917D01*
X034270Y034023D01*
X034358Y034126D01*
X034451Y034224D01*
X034549Y034317D01*
X034652Y034405D01*
X034758Y034489D01*
X034869Y034567D01*
X034983Y034639D01*
X035101Y034706D01*
X035222Y034766D01*
X035345Y034821D01*
X035472Y034870D01*
X035600Y034912D01*
X035730Y034948D01*
X035862Y034978D01*
X035996Y035001D01*
X036130Y035018D01*
X036265Y035028D01*
X036400Y035031D01*
X036535Y035028D01*
X036670Y035018D01*
X036804Y035001D01*
X036938Y034978D01*
X037070Y034948D01*
X037200Y034912D01*
X037328Y034870D01*
X037455Y034821D01*
X037578Y034766D01*
X037699Y034706D01*
X037817Y034639D01*
X037931Y034567D01*
X038042Y034489D01*
X038148Y034405D01*
X038251Y034317D01*
X038349Y034224D01*
X038442Y034126D01*
X038530Y034023D01*
X038614Y033917D01*
X038692Y033806D01*
X038764Y033692D01*
X038831Y033574D01*
X038891Y033453D01*
X038946Y033330D01*
X038995Y033203D01*
X039037Y033075D01*
X039073Y032945D01*
X039103Y032813D01*
X039126Y032679D01*
X039143Y032545D01*
X039153Y032410D01*
X039156Y032275D01*
X039153Y032140D01*
X039143Y032005D01*
X039126Y031871D01*
X039103Y031737D01*
X039073Y031605D01*
X039037Y031475D01*
X038995Y031347D01*
X038946Y031220D01*
X038891Y031097D01*
X038831Y030976D01*
X038764Y030858D01*
X038692Y030744D01*
X038614Y030633D01*
X038530Y030527D01*
X038442Y030424D01*
X038349Y030326D01*
X038251Y030233D01*
X038148Y030145D01*
X038042Y030061D01*
X037931Y029983D01*
X037817Y029911D01*
X037699Y029844D01*
X037578Y029784D01*
X037455Y029729D01*
X037328Y029680D01*
X037200Y029638D01*
X037070Y029602D01*
X036938Y029572D01*
X036804Y029549D01*
X036670Y029532D01*
X036535Y029522D01*
X036400Y029519D01*
X036265Y029522D01*
X036130Y029532D01*
X035996Y029549D01*
X035862Y029572D01*
X035730Y029602D01*
X035600Y029638D01*
X035472Y029680D01*
X035345Y029729D01*
X035222Y029784D01*
X035101Y029844D01*
X034983Y029911D01*
X034869Y029983D01*
X034758Y030061D01*
X034652Y030145D01*
X034549Y030233D01*
X034451Y030326D01*
X034358Y030424D01*
X034270Y030527D01*
X034186Y030633D01*
X034108Y030744D01*
X034036Y030858D01*
X033969Y030976D01*
X033909Y031097D01*
X033854Y031220D01*
X033805Y031347D01*
X033763Y031475D01*
X033727Y031605D01*
X033697Y031737D01*
X033674Y031871D01*
X033657Y032005D01*
X033647Y032140D01*
X033644Y032275D01*
X095275Y019275D02*
X096275Y019275D01*
X096275Y015275D01*
X135275Y015275D01*
X135275Y019275D01*
X139275Y019275D01*
X139275Y076525D01*
X135275Y076525D01*
X135275Y080525D01*
X132525Y080525D01*
X131525Y078275D01*
X130150Y078275D01*
X130150Y074650D01*
X122900Y074650D01*
X122900Y078275D01*
X119275Y078275D01*
X119275Y058025D01*
X095275Y058025D01*
X095275Y019275D01*
D11*
X097583Y017376D02*
X097585Y017426D01*
X097591Y017476D01*
X097601Y017525D01*
X097615Y017573D01*
X097632Y017620D01*
X097653Y017665D01*
X097678Y017709D01*
X097706Y017750D01*
X097738Y017789D01*
X097772Y017826D01*
X097809Y017860D01*
X097849Y017890D01*
X097891Y017917D01*
X097935Y017941D01*
X097981Y017962D01*
X098028Y017978D01*
X098076Y017991D01*
X098126Y018000D01*
X098175Y018005D01*
X098226Y018006D01*
X098276Y018003D01*
X098325Y017996D01*
X098374Y017985D01*
X098422Y017970D01*
X098468Y017952D01*
X098513Y017930D01*
X098556Y017904D01*
X098597Y017875D01*
X098636Y017843D01*
X098672Y017808D01*
X098704Y017770D01*
X098734Y017730D01*
X098761Y017687D01*
X098784Y017643D01*
X098803Y017597D01*
X098819Y017549D01*
X098831Y017500D01*
X098839Y017451D01*
X098843Y017401D01*
X098843Y017351D01*
X098839Y017301D01*
X098831Y017252D01*
X098819Y017203D01*
X098803Y017155D01*
X098784Y017109D01*
X098761Y017065D01*
X098734Y017022D01*
X098704Y016982D01*
X098672Y016944D01*
X098636Y016909D01*
X098597Y016877D01*
X098556Y016848D01*
X098513Y016822D01*
X098468Y016800D01*
X098422Y016782D01*
X098374Y016767D01*
X098325Y016756D01*
X098276Y016749D01*
X098226Y016746D01*
X098175Y016747D01*
X098126Y016752D01*
X098076Y016761D01*
X098028Y016774D01*
X097981Y016790D01*
X097935Y016811D01*
X097891Y016835D01*
X097849Y016862D01*
X097809Y016892D01*
X097772Y016926D01*
X097738Y016963D01*
X097706Y017002D01*
X097678Y017043D01*
X097653Y017087D01*
X097632Y017132D01*
X097615Y017179D01*
X097601Y017227D01*
X097591Y017276D01*
X097585Y017326D01*
X097583Y017376D01*
X108415Y026025D02*
X108417Y026074D01*
X108423Y026123D01*
X108433Y026171D01*
X108446Y026218D01*
X108464Y026264D01*
X108485Y026308D01*
X108509Y026351D01*
X108537Y026391D01*
X108568Y026430D01*
X108602Y026465D01*
X108639Y026498D01*
X108678Y026527D01*
X108720Y026553D01*
X108763Y026576D01*
X108809Y026595D01*
X108855Y026611D01*
X108903Y026623D01*
X108951Y026631D01*
X109000Y026635D01*
X109050Y026635D01*
X109099Y026631D01*
X109147Y026623D01*
X109195Y026611D01*
X109241Y026595D01*
X109287Y026576D01*
X109330Y026553D01*
X109372Y026527D01*
X109411Y026498D01*
X109448Y026465D01*
X109482Y026430D01*
X109513Y026391D01*
X109541Y026351D01*
X109565Y026308D01*
X109586Y026264D01*
X109604Y026218D01*
X109617Y026171D01*
X109627Y026123D01*
X109633Y026074D01*
X109635Y026025D01*
X109633Y025976D01*
X109627Y025927D01*
X109617Y025879D01*
X109604Y025832D01*
X109586Y025786D01*
X109565Y025742D01*
X109541Y025699D01*
X109513Y025659D01*
X109482Y025620D01*
X109448Y025585D01*
X109411Y025552D01*
X109372Y025523D01*
X109330Y025497D01*
X109287Y025474D01*
X109241Y025455D01*
X109195Y025439D01*
X109147Y025427D01*
X109099Y025419D01*
X109050Y025415D01*
X109000Y025415D01*
X108951Y025419D01*
X108903Y025427D01*
X108855Y025439D01*
X108809Y025455D01*
X108763Y025474D01*
X108720Y025497D01*
X108678Y025523D01*
X108639Y025552D01*
X108602Y025585D01*
X108568Y025620D01*
X108537Y025659D01*
X108509Y025699D01*
X108485Y025742D01*
X108464Y025786D01*
X108446Y025832D01*
X108433Y025879D01*
X108423Y025927D01*
X108417Y025976D01*
X108415Y026025D01*
X110538Y029900D02*
X110541Y030016D01*
X110549Y030132D01*
X110564Y030247D01*
X110583Y030361D01*
X110609Y030474D01*
X110640Y030586D01*
X110676Y030696D01*
X110718Y030804D01*
X110765Y030910D01*
X110817Y031013D01*
X110874Y031114D01*
X110936Y031212D01*
X111003Y031307D01*
X111074Y031398D01*
X111150Y031486D01*
X111230Y031570D01*
X111314Y031650D01*
X111402Y031726D01*
X111493Y031797D01*
X111588Y031864D01*
X111686Y031926D01*
X111787Y031983D01*
X111890Y032035D01*
X111996Y032082D01*
X112104Y032124D01*
X112214Y032160D01*
X112326Y032191D01*
X112439Y032217D01*
X112553Y032236D01*
X112668Y032251D01*
X112784Y032259D01*
X112900Y032262D01*
X113016Y032259D01*
X113132Y032251D01*
X113247Y032236D01*
X113361Y032217D01*
X113474Y032191D01*
X113586Y032160D01*
X113696Y032124D01*
X113804Y032082D01*
X113910Y032035D01*
X114013Y031983D01*
X114114Y031926D01*
X114212Y031864D01*
X114307Y031797D01*
X114398Y031726D01*
X114486Y031650D01*
X114570Y031570D01*
X114650Y031486D01*
X114726Y031398D01*
X114797Y031307D01*
X114864Y031212D01*
X114926Y031114D01*
X114983Y031013D01*
X115035Y030910D01*
X115082Y030804D01*
X115124Y030696D01*
X115160Y030586D01*
X115191Y030474D01*
X115217Y030361D01*
X115236Y030247D01*
X115251Y030132D01*
X115259Y030016D01*
X115262Y029900D01*
X115259Y029784D01*
X115251Y029668D01*
X115236Y029553D01*
X115217Y029439D01*
X115191Y029326D01*
X115160Y029214D01*
X115124Y029104D01*
X115082Y028996D01*
X115035Y028890D01*
X114983Y028787D01*
X114926Y028686D01*
X114864Y028588D01*
X114797Y028493D01*
X114726Y028402D01*
X114650Y028314D01*
X114570Y028230D01*
X114486Y028150D01*
X114398Y028074D01*
X114307Y028003D01*
X114212Y027936D01*
X114114Y027874D01*
X114013Y027817D01*
X113910Y027765D01*
X113804Y027718D01*
X113696Y027676D01*
X113586Y027640D01*
X113474Y027609D01*
X113361Y027583D01*
X113247Y027564D01*
X113132Y027549D01*
X113016Y027541D01*
X112900Y027538D01*
X112784Y027541D01*
X112668Y027549D01*
X112553Y027564D01*
X112439Y027583D01*
X112326Y027609D01*
X112214Y027640D01*
X112104Y027676D01*
X111996Y027718D01*
X111890Y027765D01*
X111787Y027817D01*
X111686Y027874D01*
X111588Y027936D01*
X111493Y028003D01*
X111402Y028074D01*
X111314Y028150D01*
X111230Y028230D01*
X111150Y028314D01*
X111074Y028402D01*
X111003Y028493D01*
X110936Y028588D01*
X110874Y028686D01*
X110817Y028787D01*
X110765Y028890D01*
X110718Y028996D01*
X110676Y029104D01*
X110640Y029214D01*
X110609Y029326D01*
X110583Y029439D01*
X110564Y029553D01*
X110549Y029668D01*
X110541Y029784D01*
X110538Y029900D01*
X112545Y034630D02*
X112547Y034667D01*
X112553Y034704D01*
X112562Y034740D01*
X112576Y034774D01*
X112593Y034807D01*
X112613Y034839D01*
X112636Y034868D01*
X112662Y034894D01*
X112691Y034917D01*
X112722Y034937D01*
X112756Y034954D01*
X112790Y034968D01*
X112826Y034977D01*
X112863Y034983D01*
X112900Y034985D01*
X112937Y034983D01*
X112974Y034977D01*
X113010Y034968D01*
X113044Y034954D01*
X113077Y034937D01*
X113109Y034917D01*
X113138Y034894D01*
X113164Y034868D01*
X113187Y034839D01*
X113207Y034808D01*
X113224Y034774D01*
X113238Y034740D01*
X113247Y034704D01*
X113253Y034667D01*
X113255Y034630D01*
X113253Y034593D01*
X113247Y034556D01*
X113238Y034520D01*
X113224Y034486D01*
X113207Y034453D01*
X113187Y034421D01*
X113164Y034392D01*
X113138Y034366D01*
X113109Y034343D01*
X113078Y034323D01*
X113044Y034306D01*
X113010Y034292D01*
X112974Y034283D01*
X112937Y034277D01*
X112900Y034275D01*
X112863Y034277D01*
X112826Y034283D01*
X112790Y034292D01*
X112756Y034306D01*
X112723Y034323D01*
X112691Y034343D01*
X112662Y034366D01*
X112636Y034392D01*
X112613Y034421D01*
X112593Y034452D01*
X112576Y034486D01*
X112562Y034520D01*
X112553Y034556D01*
X112547Y034593D01*
X112545Y034630D01*
X112545Y038170D02*
X112547Y038207D01*
X112553Y038244D01*
X112562Y038280D01*
X112576Y038314D01*
X112593Y038347D01*
X112613Y038379D01*
X112636Y038408D01*
X112662Y038434D01*
X112691Y038457D01*
X112722Y038477D01*
X112756Y038494D01*
X112790Y038508D01*
X112826Y038517D01*
X112863Y038523D01*
X112900Y038525D01*
X112937Y038523D01*
X112974Y038517D01*
X113010Y038508D01*
X113044Y038494D01*
X113077Y038477D01*
X113109Y038457D01*
X113138Y038434D01*
X113164Y038408D01*
X113187Y038379D01*
X113207Y038348D01*
X113224Y038314D01*
X113238Y038280D01*
X113247Y038244D01*
X113253Y038207D01*
X113255Y038170D01*
X113253Y038133D01*
X113247Y038096D01*
X113238Y038060D01*
X113224Y038026D01*
X113207Y037993D01*
X113187Y037961D01*
X113164Y037932D01*
X113138Y037906D01*
X113109Y037883D01*
X113078Y037863D01*
X113044Y037846D01*
X113010Y037832D01*
X112974Y037823D01*
X112937Y037817D01*
X112900Y037815D01*
X112863Y037817D01*
X112826Y037823D01*
X112790Y037832D01*
X112756Y037846D01*
X112723Y037863D01*
X112691Y037883D01*
X112662Y037906D01*
X112636Y037932D01*
X112613Y037961D01*
X112593Y037992D01*
X112576Y038026D01*
X112562Y038060D01*
X112553Y038096D01*
X112547Y038133D01*
X112545Y038170D01*
X112545Y041130D02*
X112547Y041167D01*
X112553Y041204D01*
X112562Y041240D01*
X112576Y041274D01*
X112593Y041307D01*
X112613Y041339D01*
X112636Y041368D01*
X112662Y041394D01*
X112691Y041417D01*
X112722Y041437D01*
X112756Y041454D01*
X112790Y041468D01*
X112826Y041477D01*
X112863Y041483D01*
X112900Y041485D01*
X112937Y041483D01*
X112974Y041477D01*
X113010Y041468D01*
X113044Y041454D01*
X113077Y041437D01*
X113109Y041417D01*
X113138Y041394D01*
X113164Y041368D01*
X113187Y041339D01*
X113207Y041308D01*
X113224Y041274D01*
X113238Y041240D01*
X113247Y041204D01*
X113253Y041167D01*
X113255Y041130D01*
X113253Y041093D01*
X113247Y041056D01*
X113238Y041020D01*
X113224Y040986D01*
X113207Y040953D01*
X113187Y040921D01*
X113164Y040892D01*
X113138Y040866D01*
X113109Y040843D01*
X113078Y040823D01*
X113044Y040806D01*
X113010Y040792D01*
X112974Y040783D01*
X112937Y040777D01*
X112900Y040775D01*
X112863Y040777D01*
X112826Y040783D01*
X112790Y040792D01*
X112756Y040806D01*
X112723Y040823D01*
X112691Y040843D01*
X112662Y040866D01*
X112636Y040892D01*
X112613Y040921D01*
X112593Y040952D01*
X112576Y040986D01*
X112562Y041020D01*
X112553Y041056D01*
X112547Y041093D01*
X112545Y041130D01*
X112545Y044670D02*
X112547Y044707D01*
X112553Y044744D01*
X112562Y044780D01*
X112576Y044814D01*
X112593Y044847D01*
X112613Y044879D01*
X112636Y044908D01*
X112662Y044934D01*
X112691Y044957D01*
X112722Y044977D01*
X112756Y044994D01*
X112790Y045008D01*
X112826Y045017D01*
X112863Y045023D01*
X112900Y045025D01*
X112937Y045023D01*
X112974Y045017D01*
X113010Y045008D01*
X113044Y044994D01*
X113077Y044977D01*
X113109Y044957D01*
X113138Y044934D01*
X113164Y044908D01*
X113187Y044879D01*
X113207Y044848D01*
X113224Y044814D01*
X113238Y044780D01*
X113247Y044744D01*
X113253Y044707D01*
X113255Y044670D01*
X113253Y044633D01*
X113247Y044596D01*
X113238Y044560D01*
X113224Y044526D01*
X113207Y044493D01*
X113187Y044461D01*
X113164Y044432D01*
X113138Y044406D01*
X113109Y044383D01*
X113078Y044363D01*
X113044Y044346D01*
X113010Y044332D01*
X112974Y044323D01*
X112937Y044317D01*
X112900Y044315D01*
X112863Y044317D01*
X112826Y044323D01*
X112790Y044332D01*
X112756Y044346D01*
X112723Y044363D01*
X112691Y044383D01*
X112662Y044406D01*
X112636Y044432D01*
X112613Y044461D01*
X112593Y044492D01*
X112576Y044526D01*
X112562Y044560D01*
X112553Y044596D01*
X112547Y044633D01*
X112545Y044670D01*
X119045Y044670D02*
X119047Y044707D01*
X119053Y044744D01*
X119062Y044780D01*
X119076Y044814D01*
X119093Y044847D01*
X119113Y044879D01*
X119136Y044908D01*
X119162Y044934D01*
X119191Y044957D01*
X119222Y044977D01*
X119256Y044994D01*
X119290Y045008D01*
X119326Y045017D01*
X119363Y045023D01*
X119400Y045025D01*
X119437Y045023D01*
X119474Y045017D01*
X119510Y045008D01*
X119544Y044994D01*
X119577Y044977D01*
X119609Y044957D01*
X119638Y044934D01*
X119664Y044908D01*
X119687Y044879D01*
X119707Y044848D01*
X119724Y044814D01*
X119738Y044780D01*
X119747Y044744D01*
X119753Y044707D01*
X119755Y044670D01*
X119753Y044633D01*
X119747Y044596D01*
X119738Y044560D01*
X119724Y044526D01*
X119707Y044493D01*
X119687Y044461D01*
X119664Y044432D01*
X119638Y044406D01*
X119609Y044383D01*
X119578Y044363D01*
X119544Y044346D01*
X119510Y044332D01*
X119474Y044323D01*
X119437Y044317D01*
X119400Y044315D01*
X119363Y044317D01*
X119326Y044323D01*
X119290Y044332D01*
X119256Y044346D01*
X119223Y044363D01*
X119191Y044383D01*
X119162Y044406D01*
X119136Y044432D01*
X119113Y044461D01*
X119093Y044492D01*
X119076Y044526D01*
X119062Y044560D01*
X119053Y044596D01*
X119047Y044633D01*
X119045Y044670D01*
X119045Y041130D02*
X119047Y041167D01*
X119053Y041204D01*
X119062Y041240D01*
X119076Y041274D01*
X119093Y041307D01*
X119113Y041339D01*
X119136Y041368D01*
X119162Y041394D01*
X119191Y041417D01*
X119222Y041437D01*
X119256Y041454D01*
X119290Y041468D01*
X119326Y041477D01*
X119363Y041483D01*
X119400Y041485D01*
X119437Y041483D01*
X119474Y041477D01*
X119510Y041468D01*
X119544Y041454D01*
X119577Y041437D01*
X119609Y041417D01*
X119638Y041394D01*
X119664Y041368D01*
X119687Y041339D01*
X119707Y041308D01*
X119724Y041274D01*
X119738Y041240D01*
X119747Y041204D01*
X119753Y041167D01*
X119755Y041130D01*
X119753Y041093D01*
X119747Y041056D01*
X119738Y041020D01*
X119724Y040986D01*
X119707Y040953D01*
X119687Y040921D01*
X119664Y040892D01*
X119638Y040866D01*
X119609Y040843D01*
X119578Y040823D01*
X119544Y040806D01*
X119510Y040792D01*
X119474Y040783D01*
X119437Y040777D01*
X119400Y040775D01*
X119363Y040777D01*
X119326Y040783D01*
X119290Y040792D01*
X119256Y040806D01*
X119223Y040823D01*
X119191Y040843D01*
X119162Y040866D01*
X119136Y040892D01*
X119113Y040921D01*
X119093Y040952D01*
X119076Y040986D01*
X119062Y041020D01*
X119053Y041056D01*
X119047Y041093D01*
X119045Y041130D01*
X121790Y039650D02*
X121792Y039699D01*
X121798Y039748D01*
X121808Y039796D01*
X121821Y039843D01*
X121839Y039889D01*
X121860Y039933D01*
X121884Y039976D01*
X121912Y040016D01*
X121943Y040055D01*
X121977Y040090D01*
X122014Y040123D01*
X122053Y040152D01*
X122095Y040178D01*
X122138Y040201D01*
X122184Y040220D01*
X122230Y040236D01*
X122278Y040248D01*
X122326Y040256D01*
X122375Y040260D01*
X122425Y040260D01*
X122474Y040256D01*
X122522Y040248D01*
X122570Y040236D01*
X122616Y040220D01*
X122662Y040201D01*
X122705Y040178D01*
X122747Y040152D01*
X122786Y040123D01*
X122823Y040090D01*
X122857Y040055D01*
X122888Y040016D01*
X122916Y039976D01*
X122940Y039933D01*
X122961Y039889D01*
X122979Y039843D01*
X122992Y039796D01*
X123002Y039748D01*
X123008Y039699D01*
X123010Y039650D01*
X123008Y039601D01*
X123002Y039552D01*
X122992Y039504D01*
X122979Y039457D01*
X122961Y039411D01*
X122940Y039367D01*
X122916Y039324D01*
X122888Y039284D01*
X122857Y039245D01*
X122823Y039210D01*
X122786Y039177D01*
X122747Y039148D01*
X122705Y039122D01*
X122662Y039099D01*
X122616Y039080D01*
X122570Y039064D01*
X122522Y039052D01*
X122474Y039044D01*
X122425Y039040D01*
X122375Y039040D01*
X122326Y039044D01*
X122278Y039052D01*
X122230Y039064D01*
X122184Y039080D01*
X122138Y039099D01*
X122095Y039122D01*
X122053Y039148D01*
X122014Y039177D01*
X121977Y039210D01*
X121943Y039245D01*
X121912Y039284D01*
X121884Y039324D01*
X121860Y039367D01*
X121839Y039411D01*
X121821Y039457D01*
X121808Y039504D01*
X121798Y039552D01*
X121792Y039601D01*
X121790Y039650D01*
X119045Y038170D02*
X119047Y038207D01*
X119053Y038244D01*
X119062Y038280D01*
X119076Y038314D01*
X119093Y038347D01*
X119113Y038379D01*
X119136Y038408D01*
X119162Y038434D01*
X119191Y038457D01*
X119222Y038477D01*
X119256Y038494D01*
X119290Y038508D01*
X119326Y038517D01*
X119363Y038523D01*
X119400Y038525D01*
X119437Y038523D01*
X119474Y038517D01*
X119510Y038508D01*
X119544Y038494D01*
X119577Y038477D01*
X119609Y038457D01*
X119638Y038434D01*
X119664Y038408D01*
X119687Y038379D01*
X119707Y038348D01*
X119724Y038314D01*
X119738Y038280D01*
X119747Y038244D01*
X119753Y038207D01*
X119755Y038170D01*
X119753Y038133D01*
X119747Y038096D01*
X119738Y038060D01*
X119724Y038026D01*
X119707Y037993D01*
X119687Y037961D01*
X119664Y037932D01*
X119638Y037906D01*
X119609Y037883D01*
X119578Y037863D01*
X119544Y037846D01*
X119510Y037832D01*
X119474Y037823D01*
X119437Y037817D01*
X119400Y037815D01*
X119363Y037817D01*
X119326Y037823D01*
X119290Y037832D01*
X119256Y037846D01*
X119223Y037863D01*
X119191Y037883D01*
X119162Y037906D01*
X119136Y037932D01*
X119113Y037961D01*
X119093Y037992D01*
X119076Y038026D01*
X119062Y038060D01*
X119053Y038096D01*
X119047Y038133D01*
X119045Y038170D01*
X119045Y034630D02*
X119047Y034667D01*
X119053Y034704D01*
X119062Y034740D01*
X119076Y034774D01*
X119093Y034807D01*
X119113Y034839D01*
X119136Y034868D01*
X119162Y034894D01*
X119191Y034917D01*
X119222Y034937D01*
X119256Y034954D01*
X119290Y034968D01*
X119326Y034977D01*
X119363Y034983D01*
X119400Y034985D01*
X119437Y034983D01*
X119474Y034977D01*
X119510Y034968D01*
X119544Y034954D01*
X119577Y034937D01*
X119609Y034917D01*
X119638Y034894D01*
X119664Y034868D01*
X119687Y034839D01*
X119707Y034808D01*
X119724Y034774D01*
X119738Y034740D01*
X119747Y034704D01*
X119753Y034667D01*
X119755Y034630D01*
X119753Y034593D01*
X119747Y034556D01*
X119738Y034520D01*
X119724Y034486D01*
X119707Y034453D01*
X119687Y034421D01*
X119664Y034392D01*
X119638Y034366D01*
X119609Y034343D01*
X119578Y034323D01*
X119544Y034306D01*
X119510Y034292D01*
X119474Y034283D01*
X119437Y034277D01*
X119400Y034275D01*
X119363Y034277D01*
X119326Y034283D01*
X119290Y034292D01*
X119256Y034306D01*
X119223Y034323D01*
X119191Y034343D01*
X119162Y034366D01*
X119136Y034392D01*
X119113Y034421D01*
X119093Y034452D01*
X119076Y034486D01*
X119062Y034520D01*
X119053Y034556D01*
X119047Y034593D01*
X119045Y034630D01*
X124293Y037652D02*
X124295Y037689D01*
X124301Y037726D01*
X124310Y037762D01*
X124324Y037796D01*
X124341Y037829D01*
X124361Y037861D01*
X124384Y037890D01*
X124410Y037916D01*
X124439Y037939D01*
X124470Y037959D01*
X124504Y037976D01*
X124538Y037990D01*
X124574Y037999D01*
X124611Y038005D01*
X124648Y038007D01*
X124685Y038005D01*
X124722Y037999D01*
X124758Y037990D01*
X124792Y037976D01*
X124825Y037959D01*
X124857Y037939D01*
X124886Y037916D01*
X124912Y037890D01*
X124935Y037861D01*
X124955Y037830D01*
X124972Y037796D01*
X124986Y037762D01*
X124995Y037726D01*
X125001Y037689D01*
X125003Y037652D01*
X125001Y037615D01*
X124995Y037578D01*
X124986Y037542D01*
X124972Y037508D01*
X124955Y037475D01*
X124935Y037443D01*
X124912Y037414D01*
X124886Y037388D01*
X124857Y037365D01*
X124826Y037345D01*
X124792Y037328D01*
X124758Y037314D01*
X124722Y037305D01*
X124685Y037299D01*
X124648Y037297D01*
X124611Y037299D01*
X124574Y037305D01*
X124538Y037314D01*
X124504Y037328D01*
X124471Y037345D01*
X124439Y037365D01*
X124410Y037388D01*
X124384Y037414D01*
X124361Y037443D01*
X124341Y037474D01*
X124324Y037508D01*
X124310Y037542D01*
X124301Y037578D01*
X124295Y037615D01*
X124293Y037652D01*
X126797Y035148D02*
X126799Y035185D01*
X126805Y035222D01*
X126814Y035258D01*
X126828Y035292D01*
X126845Y035325D01*
X126865Y035357D01*
X126888Y035386D01*
X126914Y035412D01*
X126943Y035435D01*
X126974Y035455D01*
X127008Y035472D01*
X127042Y035486D01*
X127078Y035495D01*
X127115Y035501D01*
X127152Y035503D01*
X127189Y035501D01*
X127226Y035495D01*
X127262Y035486D01*
X127296Y035472D01*
X127329Y035455D01*
X127361Y035435D01*
X127390Y035412D01*
X127416Y035386D01*
X127439Y035357D01*
X127459Y035326D01*
X127476Y035292D01*
X127490Y035258D01*
X127499Y035222D01*
X127505Y035185D01*
X127507Y035148D01*
X127505Y035111D01*
X127499Y035074D01*
X127490Y035038D01*
X127476Y035004D01*
X127459Y034971D01*
X127439Y034939D01*
X127416Y034910D01*
X127390Y034884D01*
X127361Y034861D01*
X127330Y034841D01*
X127296Y034824D01*
X127262Y034810D01*
X127226Y034801D01*
X127189Y034795D01*
X127152Y034793D01*
X127115Y034795D01*
X127078Y034801D01*
X127042Y034810D01*
X127008Y034824D01*
X126975Y034841D01*
X126943Y034861D01*
X126914Y034884D01*
X126888Y034910D01*
X126865Y034939D01*
X126845Y034970D01*
X126828Y035004D01*
X126814Y035038D01*
X126805Y035074D01*
X126799Y035111D01*
X126797Y035148D01*
X130793Y035148D02*
X130795Y035185D01*
X130801Y035222D01*
X130810Y035258D01*
X130824Y035292D01*
X130841Y035325D01*
X130861Y035357D01*
X130884Y035386D01*
X130910Y035412D01*
X130939Y035435D01*
X130970Y035455D01*
X131004Y035472D01*
X131038Y035486D01*
X131074Y035495D01*
X131111Y035501D01*
X131148Y035503D01*
X131185Y035501D01*
X131222Y035495D01*
X131258Y035486D01*
X131292Y035472D01*
X131325Y035455D01*
X131357Y035435D01*
X131386Y035412D01*
X131412Y035386D01*
X131435Y035357D01*
X131455Y035326D01*
X131472Y035292D01*
X131486Y035258D01*
X131495Y035222D01*
X131501Y035185D01*
X131503Y035148D01*
X131501Y035111D01*
X131495Y035074D01*
X131486Y035038D01*
X131472Y035004D01*
X131455Y034971D01*
X131435Y034939D01*
X131412Y034910D01*
X131386Y034884D01*
X131357Y034861D01*
X131326Y034841D01*
X131292Y034824D01*
X131258Y034810D01*
X131222Y034801D01*
X131185Y034795D01*
X131148Y034793D01*
X131111Y034795D01*
X131074Y034801D01*
X131038Y034810D01*
X131004Y034824D01*
X130971Y034841D01*
X130939Y034861D01*
X130910Y034884D01*
X130884Y034910D01*
X130861Y034939D01*
X130841Y034970D01*
X130824Y035004D01*
X130810Y035038D01*
X130801Y035074D01*
X130795Y035111D01*
X130793Y035148D01*
X133297Y037652D02*
X133299Y037689D01*
X133305Y037726D01*
X133314Y037762D01*
X133328Y037796D01*
X133345Y037829D01*
X133365Y037861D01*
X133388Y037890D01*
X133414Y037916D01*
X133443Y037939D01*
X133474Y037959D01*
X133508Y037976D01*
X133542Y037990D01*
X133578Y037999D01*
X133615Y038005D01*
X133652Y038007D01*
X133689Y038005D01*
X133726Y037999D01*
X133762Y037990D01*
X133796Y037976D01*
X133829Y037959D01*
X133861Y037939D01*
X133890Y037916D01*
X133916Y037890D01*
X133939Y037861D01*
X133959Y037830D01*
X133976Y037796D01*
X133990Y037762D01*
X133999Y037726D01*
X134005Y037689D01*
X134007Y037652D01*
X134005Y037615D01*
X133999Y037578D01*
X133990Y037542D01*
X133976Y037508D01*
X133959Y037475D01*
X133939Y037443D01*
X133916Y037414D01*
X133890Y037388D01*
X133861Y037365D01*
X133830Y037345D01*
X133796Y037328D01*
X133762Y037314D01*
X133726Y037305D01*
X133689Y037299D01*
X133652Y037297D01*
X133615Y037299D01*
X133578Y037305D01*
X133542Y037314D01*
X133508Y037328D01*
X133475Y037345D01*
X133443Y037365D01*
X133414Y037388D01*
X133388Y037414D01*
X133365Y037443D01*
X133345Y037474D01*
X133328Y037508D01*
X133314Y037542D01*
X133305Y037578D01*
X133299Y037615D01*
X133297Y037652D01*
X134415Y039275D02*
X134417Y039324D01*
X134423Y039373D01*
X134433Y039421D01*
X134446Y039468D01*
X134464Y039514D01*
X134485Y039558D01*
X134509Y039601D01*
X134537Y039641D01*
X134568Y039680D01*
X134602Y039715D01*
X134639Y039748D01*
X134678Y039777D01*
X134720Y039803D01*
X134763Y039826D01*
X134809Y039845D01*
X134855Y039861D01*
X134903Y039873D01*
X134951Y039881D01*
X135000Y039885D01*
X135050Y039885D01*
X135099Y039881D01*
X135147Y039873D01*
X135195Y039861D01*
X135241Y039845D01*
X135287Y039826D01*
X135330Y039803D01*
X135372Y039777D01*
X135411Y039748D01*
X135448Y039715D01*
X135482Y039680D01*
X135513Y039641D01*
X135541Y039601D01*
X135565Y039558D01*
X135586Y039514D01*
X135604Y039468D01*
X135617Y039421D01*
X135627Y039373D01*
X135633Y039324D01*
X135635Y039275D01*
X135633Y039226D01*
X135627Y039177D01*
X135617Y039129D01*
X135604Y039082D01*
X135586Y039036D01*
X135565Y038992D01*
X135541Y038949D01*
X135513Y038909D01*
X135482Y038870D01*
X135448Y038835D01*
X135411Y038802D01*
X135372Y038773D01*
X135330Y038747D01*
X135287Y038724D01*
X135241Y038705D01*
X135195Y038689D01*
X135147Y038677D01*
X135099Y038669D01*
X135050Y038665D01*
X135000Y038665D01*
X134951Y038669D01*
X134903Y038677D01*
X134855Y038689D01*
X134809Y038705D01*
X134763Y038724D01*
X134720Y038747D01*
X134678Y038773D01*
X134639Y038802D01*
X134602Y038835D01*
X134568Y038870D01*
X134537Y038909D01*
X134509Y038949D01*
X134485Y038992D01*
X134464Y039036D01*
X134446Y039082D01*
X134433Y039129D01*
X134423Y039177D01*
X134417Y039226D01*
X134415Y039275D01*
X132045Y041130D02*
X132047Y041167D01*
X132053Y041204D01*
X132062Y041240D01*
X132076Y041274D01*
X132093Y041307D01*
X132113Y041339D01*
X132136Y041368D01*
X132162Y041394D01*
X132191Y041417D01*
X132222Y041437D01*
X132256Y041454D01*
X132290Y041468D01*
X132326Y041477D01*
X132363Y041483D01*
X132400Y041485D01*
X132437Y041483D01*
X132474Y041477D01*
X132510Y041468D01*
X132544Y041454D01*
X132577Y041437D01*
X132609Y041417D01*
X132638Y041394D01*
X132664Y041368D01*
X132687Y041339D01*
X132707Y041308D01*
X132724Y041274D01*
X132738Y041240D01*
X132747Y041204D01*
X132753Y041167D01*
X132755Y041130D01*
X132753Y041093D01*
X132747Y041056D01*
X132738Y041020D01*
X132724Y040986D01*
X132707Y040953D01*
X132687Y040921D01*
X132664Y040892D01*
X132638Y040866D01*
X132609Y040843D01*
X132578Y040823D01*
X132544Y040806D01*
X132510Y040792D01*
X132474Y040783D01*
X132437Y040777D01*
X132400Y040775D01*
X132363Y040777D01*
X132326Y040783D01*
X132290Y040792D01*
X132256Y040806D01*
X132223Y040823D01*
X132191Y040843D01*
X132162Y040866D01*
X132136Y040892D01*
X132113Y040921D01*
X132093Y040952D01*
X132076Y040986D01*
X132062Y041020D01*
X132053Y041056D01*
X132047Y041093D01*
X132045Y041130D01*
X132045Y044670D02*
X132047Y044707D01*
X132053Y044744D01*
X132062Y044780D01*
X132076Y044814D01*
X132093Y044847D01*
X132113Y044879D01*
X132136Y044908D01*
X132162Y044934D01*
X132191Y044957D01*
X132222Y044977D01*
X132256Y044994D01*
X132290Y045008D01*
X132326Y045017D01*
X132363Y045023D01*
X132400Y045025D01*
X132437Y045023D01*
X132474Y045017D01*
X132510Y045008D01*
X132544Y044994D01*
X132577Y044977D01*
X132609Y044957D01*
X132638Y044934D01*
X132664Y044908D01*
X132687Y044879D01*
X132707Y044848D01*
X132724Y044814D01*
X132738Y044780D01*
X132747Y044744D01*
X132753Y044707D01*
X132755Y044670D01*
X132753Y044633D01*
X132747Y044596D01*
X132738Y044560D01*
X132724Y044526D01*
X132707Y044493D01*
X132687Y044461D01*
X132664Y044432D01*
X132638Y044406D01*
X132609Y044383D01*
X132578Y044363D01*
X132544Y044346D01*
X132510Y044332D01*
X132474Y044323D01*
X132437Y044317D01*
X132400Y044315D01*
X132363Y044317D01*
X132326Y044323D01*
X132290Y044332D01*
X132256Y044346D01*
X132223Y044363D01*
X132191Y044383D01*
X132162Y044406D01*
X132136Y044432D01*
X132113Y044461D01*
X132093Y044492D01*
X132076Y044526D01*
X132062Y044560D01*
X132053Y044596D01*
X132047Y044633D01*
X132045Y044670D01*
X125545Y044670D02*
X125547Y044707D01*
X125553Y044744D01*
X125562Y044780D01*
X125576Y044814D01*
X125593Y044847D01*
X125613Y044879D01*
X125636Y044908D01*
X125662Y044934D01*
X125691Y044957D01*
X125722Y044977D01*
X125756Y044994D01*
X125790Y045008D01*
X125826Y045017D01*
X125863Y045023D01*
X125900Y045025D01*
X125937Y045023D01*
X125974Y045017D01*
X126010Y045008D01*
X126044Y044994D01*
X126077Y044977D01*
X126109Y044957D01*
X126138Y044934D01*
X126164Y044908D01*
X126187Y044879D01*
X126207Y044848D01*
X126224Y044814D01*
X126238Y044780D01*
X126247Y044744D01*
X126253Y044707D01*
X126255Y044670D01*
X126253Y044633D01*
X126247Y044596D01*
X126238Y044560D01*
X126224Y044526D01*
X126207Y044493D01*
X126187Y044461D01*
X126164Y044432D01*
X126138Y044406D01*
X126109Y044383D01*
X126078Y044363D01*
X126044Y044346D01*
X126010Y044332D01*
X125974Y044323D01*
X125937Y044317D01*
X125900Y044315D01*
X125863Y044317D01*
X125826Y044323D01*
X125790Y044332D01*
X125756Y044346D01*
X125723Y044363D01*
X125691Y044383D01*
X125662Y044406D01*
X125636Y044432D01*
X125613Y044461D01*
X125593Y044492D01*
X125576Y044526D01*
X125562Y044560D01*
X125553Y044596D01*
X125547Y044633D01*
X125545Y044670D01*
X125545Y041130D02*
X125547Y041167D01*
X125553Y041204D01*
X125562Y041240D01*
X125576Y041274D01*
X125593Y041307D01*
X125613Y041339D01*
X125636Y041368D01*
X125662Y041394D01*
X125691Y041417D01*
X125722Y041437D01*
X125756Y041454D01*
X125790Y041468D01*
X125826Y041477D01*
X125863Y041483D01*
X125900Y041485D01*
X125937Y041483D01*
X125974Y041477D01*
X126010Y041468D01*
X126044Y041454D01*
X126077Y041437D01*
X126109Y041417D01*
X126138Y041394D01*
X126164Y041368D01*
X126187Y041339D01*
X126207Y041308D01*
X126224Y041274D01*
X126238Y041240D01*
X126247Y041204D01*
X126253Y041167D01*
X126255Y041130D01*
X126253Y041093D01*
X126247Y041056D01*
X126238Y041020D01*
X126224Y040986D01*
X126207Y040953D01*
X126187Y040921D01*
X126164Y040892D01*
X126138Y040866D01*
X126109Y040843D01*
X126078Y040823D01*
X126044Y040806D01*
X126010Y040792D01*
X125974Y040783D01*
X125937Y040777D01*
X125900Y040775D01*
X125863Y040777D01*
X125826Y040783D01*
X125790Y040792D01*
X125756Y040806D01*
X125723Y040823D01*
X125691Y040843D01*
X125662Y040866D01*
X125636Y040892D01*
X125613Y040921D01*
X125593Y040952D01*
X125576Y040986D01*
X125562Y041020D01*
X125553Y041056D01*
X125547Y041093D01*
X125545Y041130D01*
X130793Y031152D02*
X130795Y031189D01*
X130801Y031226D01*
X130810Y031262D01*
X130824Y031296D01*
X130841Y031329D01*
X130861Y031361D01*
X130884Y031390D01*
X130910Y031416D01*
X130939Y031439D01*
X130970Y031459D01*
X131004Y031476D01*
X131038Y031490D01*
X131074Y031499D01*
X131111Y031505D01*
X131148Y031507D01*
X131185Y031505D01*
X131222Y031499D01*
X131258Y031490D01*
X131292Y031476D01*
X131325Y031459D01*
X131357Y031439D01*
X131386Y031416D01*
X131412Y031390D01*
X131435Y031361D01*
X131455Y031330D01*
X131472Y031296D01*
X131486Y031262D01*
X131495Y031226D01*
X131501Y031189D01*
X131503Y031152D01*
X131501Y031115D01*
X131495Y031078D01*
X131486Y031042D01*
X131472Y031008D01*
X131455Y030975D01*
X131435Y030943D01*
X131412Y030914D01*
X131386Y030888D01*
X131357Y030865D01*
X131326Y030845D01*
X131292Y030828D01*
X131258Y030814D01*
X131222Y030805D01*
X131185Y030799D01*
X131148Y030797D01*
X131111Y030799D01*
X131074Y030805D01*
X131038Y030814D01*
X131004Y030828D01*
X130971Y030845D01*
X130939Y030865D01*
X130910Y030888D01*
X130884Y030914D01*
X130861Y030943D01*
X130841Y030974D01*
X130824Y031008D01*
X130810Y031042D01*
X130801Y031078D01*
X130795Y031115D01*
X130793Y031152D01*
X133297Y028648D02*
X133299Y028685D01*
X133305Y028722D01*
X133314Y028758D01*
X133328Y028792D01*
X133345Y028825D01*
X133365Y028857D01*
X133388Y028886D01*
X133414Y028912D01*
X133443Y028935D01*
X133474Y028955D01*
X133508Y028972D01*
X133542Y028986D01*
X133578Y028995D01*
X133615Y029001D01*
X133652Y029003D01*
X133689Y029001D01*
X133726Y028995D01*
X133762Y028986D01*
X133796Y028972D01*
X133829Y028955D01*
X133861Y028935D01*
X133890Y028912D01*
X133916Y028886D01*
X133939Y028857D01*
X133959Y028826D01*
X133976Y028792D01*
X133990Y028758D01*
X133999Y028722D01*
X134005Y028685D01*
X134007Y028648D01*
X134005Y028611D01*
X133999Y028574D01*
X133990Y028538D01*
X133976Y028504D01*
X133959Y028471D01*
X133939Y028439D01*
X133916Y028410D01*
X133890Y028384D01*
X133861Y028361D01*
X133830Y028341D01*
X133796Y028324D01*
X133762Y028310D01*
X133726Y028301D01*
X133689Y028295D01*
X133652Y028293D01*
X133615Y028295D01*
X133578Y028301D01*
X133542Y028310D01*
X133508Y028324D01*
X133475Y028341D01*
X133443Y028361D01*
X133414Y028384D01*
X133388Y028410D01*
X133365Y028439D01*
X133345Y028470D01*
X133328Y028504D01*
X133314Y028538D01*
X133305Y028574D01*
X133299Y028611D01*
X133297Y028648D01*
X132045Y025170D02*
X132047Y025207D01*
X132053Y025244D01*
X132062Y025280D01*
X132076Y025314D01*
X132093Y025347D01*
X132113Y025379D01*
X132136Y025408D01*
X132162Y025434D01*
X132191Y025457D01*
X132222Y025477D01*
X132256Y025494D01*
X132290Y025508D01*
X132326Y025517D01*
X132363Y025523D01*
X132400Y025525D01*
X132437Y025523D01*
X132474Y025517D01*
X132510Y025508D01*
X132544Y025494D01*
X132577Y025477D01*
X132609Y025457D01*
X132638Y025434D01*
X132664Y025408D01*
X132687Y025379D01*
X132707Y025348D01*
X132724Y025314D01*
X132738Y025280D01*
X132747Y025244D01*
X132753Y025207D01*
X132755Y025170D01*
X132753Y025133D01*
X132747Y025096D01*
X132738Y025060D01*
X132724Y025026D01*
X132707Y024993D01*
X132687Y024961D01*
X132664Y024932D01*
X132638Y024906D01*
X132609Y024883D01*
X132578Y024863D01*
X132544Y024846D01*
X132510Y024832D01*
X132474Y024823D01*
X132437Y024817D01*
X132400Y024815D01*
X132363Y024817D01*
X132326Y024823D01*
X132290Y024832D01*
X132256Y024846D01*
X132223Y024863D01*
X132191Y024883D01*
X132162Y024906D01*
X132136Y024932D01*
X132113Y024961D01*
X132093Y024992D01*
X132076Y025026D01*
X132062Y025060D01*
X132053Y025096D01*
X132047Y025133D01*
X132045Y025170D01*
X125545Y025170D02*
X125547Y025207D01*
X125553Y025244D01*
X125562Y025280D01*
X125576Y025314D01*
X125593Y025347D01*
X125613Y025379D01*
X125636Y025408D01*
X125662Y025434D01*
X125691Y025457D01*
X125722Y025477D01*
X125756Y025494D01*
X125790Y025508D01*
X125826Y025517D01*
X125863Y025523D01*
X125900Y025525D01*
X125937Y025523D01*
X125974Y025517D01*
X126010Y025508D01*
X126044Y025494D01*
X126077Y025477D01*
X126109Y025457D01*
X126138Y025434D01*
X126164Y025408D01*
X126187Y025379D01*
X126207Y025348D01*
X126224Y025314D01*
X126238Y025280D01*
X126247Y025244D01*
X126253Y025207D01*
X126255Y025170D01*
X126253Y025133D01*
X126247Y025096D01*
X126238Y025060D01*
X126224Y025026D01*
X126207Y024993D01*
X126187Y024961D01*
X126164Y024932D01*
X126138Y024906D01*
X126109Y024883D01*
X126078Y024863D01*
X126044Y024846D01*
X126010Y024832D01*
X125974Y024823D01*
X125937Y024817D01*
X125900Y024815D01*
X125863Y024817D01*
X125826Y024823D01*
X125790Y024832D01*
X125756Y024846D01*
X125723Y024863D01*
X125691Y024883D01*
X125662Y024906D01*
X125636Y024932D01*
X125613Y024961D01*
X125593Y024992D01*
X125576Y025026D01*
X125562Y025060D01*
X125553Y025096D01*
X125547Y025133D01*
X125545Y025170D01*
X125545Y021630D02*
X125547Y021667D01*
X125553Y021704D01*
X125562Y021740D01*
X125576Y021774D01*
X125593Y021807D01*
X125613Y021839D01*
X125636Y021868D01*
X125662Y021894D01*
X125691Y021917D01*
X125722Y021937D01*
X125756Y021954D01*
X125790Y021968D01*
X125826Y021977D01*
X125863Y021983D01*
X125900Y021985D01*
X125937Y021983D01*
X125974Y021977D01*
X126010Y021968D01*
X126044Y021954D01*
X126077Y021937D01*
X126109Y021917D01*
X126138Y021894D01*
X126164Y021868D01*
X126187Y021839D01*
X126207Y021808D01*
X126224Y021774D01*
X126238Y021740D01*
X126247Y021704D01*
X126253Y021667D01*
X126255Y021630D01*
X126253Y021593D01*
X126247Y021556D01*
X126238Y021520D01*
X126224Y021486D01*
X126207Y021453D01*
X126187Y021421D01*
X126164Y021392D01*
X126138Y021366D01*
X126109Y021343D01*
X126078Y021323D01*
X126044Y021306D01*
X126010Y021292D01*
X125974Y021283D01*
X125937Y021277D01*
X125900Y021275D01*
X125863Y021277D01*
X125826Y021283D01*
X125790Y021292D01*
X125756Y021306D01*
X125723Y021323D01*
X125691Y021343D01*
X125662Y021366D01*
X125636Y021392D01*
X125613Y021421D01*
X125593Y021452D01*
X125576Y021486D01*
X125562Y021520D01*
X125553Y021556D01*
X125547Y021593D01*
X125545Y021630D01*
X119045Y021630D02*
X119047Y021667D01*
X119053Y021704D01*
X119062Y021740D01*
X119076Y021774D01*
X119093Y021807D01*
X119113Y021839D01*
X119136Y021868D01*
X119162Y021894D01*
X119191Y021917D01*
X119222Y021937D01*
X119256Y021954D01*
X119290Y021968D01*
X119326Y021977D01*
X119363Y021983D01*
X119400Y021985D01*
X119437Y021983D01*
X119474Y021977D01*
X119510Y021968D01*
X119544Y021954D01*
X119577Y021937D01*
X119609Y021917D01*
X119638Y021894D01*
X119664Y021868D01*
X119687Y021839D01*
X119707Y021808D01*
X119724Y021774D01*
X119738Y021740D01*
X119747Y021704D01*
X119753Y021667D01*
X119755Y021630D01*
X119753Y021593D01*
X119747Y021556D01*
X119738Y021520D01*
X119724Y021486D01*
X119707Y021453D01*
X119687Y021421D01*
X119664Y021392D01*
X119638Y021366D01*
X119609Y021343D01*
X119578Y021323D01*
X119544Y021306D01*
X119510Y021292D01*
X119474Y021283D01*
X119437Y021277D01*
X119400Y021275D01*
X119363Y021277D01*
X119326Y021283D01*
X119290Y021292D01*
X119256Y021306D01*
X119223Y021323D01*
X119191Y021343D01*
X119162Y021366D01*
X119136Y021392D01*
X119113Y021421D01*
X119093Y021452D01*
X119076Y021486D01*
X119062Y021520D01*
X119053Y021556D01*
X119047Y021593D01*
X119045Y021630D01*
X119045Y025170D02*
X119047Y025207D01*
X119053Y025244D01*
X119062Y025280D01*
X119076Y025314D01*
X119093Y025347D01*
X119113Y025379D01*
X119136Y025408D01*
X119162Y025434D01*
X119191Y025457D01*
X119222Y025477D01*
X119256Y025494D01*
X119290Y025508D01*
X119326Y025517D01*
X119363Y025523D01*
X119400Y025525D01*
X119437Y025523D01*
X119474Y025517D01*
X119510Y025508D01*
X119544Y025494D01*
X119577Y025477D01*
X119609Y025457D01*
X119638Y025434D01*
X119664Y025408D01*
X119687Y025379D01*
X119707Y025348D01*
X119724Y025314D01*
X119738Y025280D01*
X119747Y025244D01*
X119753Y025207D01*
X119755Y025170D01*
X119753Y025133D01*
X119747Y025096D01*
X119738Y025060D01*
X119724Y025026D01*
X119707Y024993D01*
X119687Y024961D01*
X119664Y024932D01*
X119638Y024906D01*
X119609Y024883D01*
X119578Y024863D01*
X119544Y024846D01*
X119510Y024832D01*
X119474Y024823D01*
X119437Y024817D01*
X119400Y024815D01*
X119363Y024817D01*
X119326Y024823D01*
X119290Y024832D01*
X119256Y024846D01*
X119223Y024863D01*
X119191Y024883D01*
X119162Y024906D01*
X119136Y024932D01*
X119113Y024961D01*
X119093Y024992D01*
X119076Y025026D01*
X119062Y025060D01*
X119053Y025096D01*
X119047Y025133D01*
X119045Y025170D01*
X132045Y021630D02*
X132047Y021667D01*
X132053Y021704D01*
X132062Y021740D01*
X132076Y021774D01*
X132093Y021807D01*
X132113Y021839D01*
X132136Y021868D01*
X132162Y021894D01*
X132191Y021917D01*
X132222Y021937D01*
X132256Y021954D01*
X132290Y021968D01*
X132326Y021977D01*
X132363Y021983D01*
X132400Y021985D01*
X132437Y021983D01*
X132474Y021977D01*
X132510Y021968D01*
X132544Y021954D01*
X132577Y021937D01*
X132609Y021917D01*
X132638Y021894D01*
X132664Y021868D01*
X132687Y021839D01*
X132707Y021808D01*
X132724Y021774D01*
X132738Y021740D01*
X132747Y021704D01*
X132753Y021667D01*
X132755Y021630D01*
X132753Y021593D01*
X132747Y021556D01*
X132738Y021520D01*
X132724Y021486D01*
X132707Y021453D01*
X132687Y021421D01*
X132664Y021392D01*
X132638Y021366D01*
X132609Y021343D01*
X132578Y021323D01*
X132544Y021306D01*
X132510Y021292D01*
X132474Y021283D01*
X132437Y021277D01*
X132400Y021275D01*
X132363Y021277D01*
X132326Y021283D01*
X132290Y021292D01*
X132256Y021306D01*
X132223Y021323D01*
X132191Y021343D01*
X132162Y021366D01*
X132136Y021392D01*
X132113Y021421D01*
X132093Y021452D01*
X132076Y021486D01*
X132062Y021520D01*
X132053Y021556D01*
X132047Y021593D01*
X132045Y021630D01*
X132622Y017376D02*
X132624Y017426D01*
X132630Y017476D01*
X132640Y017525D01*
X132654Y017573D01*
X132671Y017620D01*
X132692Y017665D01*
X132717Y017709D01*
X132745Y017750D01*
X132777Y017789D01*
X132811Y017826D01*
X132848Y017860D01*
X132888Y017890D01*
X132930Y017917D01*
X132974Y017941D01*
X133020Y017962D01*
X133067Y017978D01*
X133115Y017991D01*
X133165Y018000D01*
X133214Y018005D01*
X133265Y018006D01*
X133315Y018003D01*
X133364Y017996D01*
X133413Y017985D01*
X133461Y017970D01*
X133507Y017952D01*
X133552Y017930D01*
X133595Y017904D01*
X133636Y017875D01*
X133675Y017843D01*
X133711Y017808D01*
X133743Y017770D01*
X133773Y017730D01*
X133800Y017687D01*
X133823Y017643D01*
X133842Y017597D01*
X133858Y017549D01*
X133870Y017500D01*
X133878Y017451D01*
X133882Y017401D01*
X133882Y017351D01*
X133878Y017301D01*
X133870Y017252D01*
X133858Y017203D01*
X133842Y017155D01*
X133823Y017109D01*
X133800Y017065D01*
X133773Y017022D01*
X133743Y016982D01*
X133711Y016944D01*
X133675Y016909D01*
X133636Y016877D01*
X133595Y016848D01*
X133552Y016822D01*
X133507Y016800D01*
X133461Y016782D01*
X133413Y016767D01*
X133364Y016756D01*
X133315Y016749D01*
X133265Y016746D01*
X133214Y016747D01*
X133165Y016752D01*
X133115Y016761D01*
X133067Y016774D01*
X133020Y016790D01*
X132974Y016811D01*
X132930Y016835D01*
X132888Y016862D01*
X132848Y016892D01*
X132811Y016926D01*
X132777Y016963D01*
X132745Y017002D01*
X132717Y017043D01*
X132692Y017087D01*
X132671Y017132D01*
X132654Y017179D01*
X132640Y017227D01*
X132630Y017276D01*
X132624Y017326D01*
X132622Y017376D01*
X097040Y039275D02*
X097042Y039324D01*
X097048Y039373D01*
X097058Y039421D01*
X097071Y039468D01*
X097089Y039514D01*
X097110Y039558D01*
X097134Y039601D01*
X097162Y039641D01*
X097193Y039680D01*
X097227Y039715D01*
X097264Y039748D01*
X097303Y039777D01*
X097345Y039803D01*
X097388Y039826D01*
X097434Y039845D01*
X097480Y039861D01*
X097528Y039873D01*
X097576Y039881D01*
X097625Y039885D01*
X097675Y039885D01*
X097724Y039881D01*
X097772Y039873D01*
X097820Y039861D01*
X097866Y039845D01*
X097912Y039826D01*
X097955Y039803D01*
X097997Y039777D01*
X098036Y039748D01*
X098073Y039715D01*
X098107Y039680D01*
X098138Y039641D01*
X098166Y039601D01*
X098190Y039558D01*
X098211Y039514D01*
X098229Y039468D01*
X098242Y039421D01*
X098252Y039373D01*
X098258Y039324D01*
X098260Y039275D01*
X098258Y039226D01*
X098252Y039177D01*
X098242Y039129D01*
X098229Y039082D01*
X098211Y039036D01*
X098190Y038992D01*
X098166Y038949D01*
X098138Y038909D01*
X098107Y038870D01*
X098073Y038835D01*
X098036Y038802D01*
X097997Y038773D01*
X097955Y038747D01*
X097912Y038724D01*
X097866Y038705D01*
X097820Y038689D01*
X097772Y038677D01*
X097724Y038669D01*
X097675Y038665D01*
X097625Y038665D01*
X097576Y038669D01*
X097528Y038677D01*
X097480Y038689D01*
X097434Y038705D01*
X097388Y038724D01*
X097345Y038747D01*
X097303Y038773D01*
X097264Y038802D01*
X097227Y038835D01*
X097193Y038870D01*
X097162Y038909D01*
X097134Y038949D01*
X097110Y038992D01*
X097089Y039036D01*
X097071Y039082D01*
X097058Y039129D01*
X097048Y039177D01*
X097042Y039226D01*
X097040Y039275D01*
X097277Y046650D02*
X097279Y046706D01*
X097285Y046762D01*
X097295Y046818D01*
X097308Y046872D01*
X097326Y046926D01*
X097347Y046978D01*
X097371Y047029D01*
X097400Y047078D01*
X097431Y047124D01*
X097466Y047169D01*
X097503Y047211D01*
X097544Y047250D01*
X097587Y047286D01*
X097633Y047319D01*
X097680Y047349D01*
X097730Y047375D01*
X097782Y047398D01*
X097835Y047418D01*
X097889Y047433D01*
X097944Y047445D01*
X098000Y047453D01*
X098056Y047457D01*
X098112Y047457D01*
X098168Y047453D01*
X098224Y047445D01*
X098279Y047433D01*
X098333Y047418D01*
X098386Y047398D01*
X098438Y047375D01*
X098487Y047349D01*
X098535Y047319D01*
X098581Y047286D01*
X098624Y047250D01*
X098665Y047211D01*
X098702Y047169D01*
X098737Y047124D01*
X098768Y047078D01*
X098797Y047029D01*
X098821Y046978D01*
X098842Y046926D01*
X098860Y046872D01*
X098873Y046818D01*
X098883Y046762D01*
X098889Y046706D01*
X098891Y046650D01*
X098889Y046594D01*
X098883Y046538D01*
X098873Y046482D01*
X098860Y046428D01*
X098842Y046374D01*
X098821Y046322D01*
X098797Y046271D01*
X098768Y046222D01*
X098737Y046176D01*
X098702Y046131D01*
X098665Y046089D01*
X098624Y046050D01*
X098581Y046014D01*
X098535Y045981D01*
X098488Y045951D01*
X098438Y045925D01*
X098386Y045902D01*
X098333Y045882D01*
X098279Y045867D01*
X098224Y045855D01*
X098168Y045847D01*
X098112Y045843D01*
X098056Y045843D01*
X098000Y045847D01*
X097944Y045855D01*
X097889Y045867D01*
X097835Y045882D01*
X097782Y045902D01*
X097730Y045925D01*
X097680Y045951D01*
X097633Y045981D01*
X097587Y046014D01*
X097544Y046050D01*
X097503Y046089D01*
X097466Y046131D01*
X097431Y046176D01*
X097400Y046222D01*
X097371Y046271D01*
X097347Y046322D01*
X097326Y046374D01*
X097308Y046428D01*
X097295Y046482D01*
X097285Y046538D01*
X097279Y046594D01*
X097277Y046650D01*
X100840Y046650D02*
X100842Y046712D01*
X100848Y046775D01*
X100858Y046836D01*
X100872Y046897D01*
X100889Y046957D01*
X100910Y047016D01*
X100936Y047073D01*
X100964Y047128D01*
X100996Y047182D01*
X101032Y047233D01*
X101070Y047283D01*
X101112Y047329D01*
X101156Y047373D01*
X101204Y047414D01*
X101253Y047452D01*
X101305Y047486D01*
X101359Y047517D01*
X101415Y047545D01*
X101473Y047569D01*
X101532Y047590D01*
X101592Y047606D01*
X101653Y047619D01*
X101715Y047628D01*
X101777Y047633D01*
X101840Y047634D01*
X101902Y047631D01*
X101964Y047624D01*
X102026Y047613D01*
X102086Y047598D01*
X102146Y047580D01*
X102204Y047558D01*
X102261Y047532D01*
X102316Y047502D01*
X102369Y047469D01*
X102420Y047433D01*
X102468Y047394D01*
X102514Y047351D01*
X102557Y047306D01*
X102597Y047258D01*
X102634Y047208D01*
X102668Y047155D01*
X102699Y047101D01*
X102725Y047045D01*
X102749Y046987D01*
X102768Y046927D01*
X102784Y046867D01*
X102796Y046805D01*
X102804Y046744D01*
X102808Y046681D01*
X102808Y046619D01*
X102804Y046556D01*
X102796Y046495D01*
X102784Y046433D01*
X102768Y046373D01*
X102749Y046313D01*
X102725Y046255D01*
X102699Y046199D01*
X102668Y046145D01*
X102634Y046092D01*
X102597Y046042D01*
X102557Y045994D01*
X102514Y045949D01*
X102468Y045906D01*
X102420Y045867D01*
X102369Y045831D01*
X102316Y045798D01*
X102261Y045768D01*
X102204Y045742D01*
X102146Y045720D01*
X102086Y045702D01*
X102026Y045687D01*
X101964Y045676D01*
X101902Y045669D01*
X101840Y045666D01*
X101777Y045667D01*
X101715Y045672D01*
X101653Y045681D01*
X101592Y045694D01*
X101532Y045710D01*
X101473Y045731D01*
X101415Y045755D01*
X101359Y045783D01*
X101305Y045814D01*
X101253Y045848D01*
X101204Y045886D01*
X101156Y045927D01*
X101112Y045971D01*
X101070Y046017D01*
X101032Y046067D01*
X100996Y046118D01*
X100964Y046172D01*
X100936Y046227D01*
X100910Y046284D01*
X100889Y046343D01*
X100872Y046403D01*
X100858Y046464D01*
X100848Y046525D01*
X100842Y046588D01*
X100840Y046650D01*
X104757Y046650D02*
X104759Y046706D01*
X104765Y046762D01*
X104775Y046818D01*
X104788Y046872D01*
X104806Y046926D01*
X104827Y046978D01*
X104851Y047029D01*
X104880Y047078D01*
X104911Y047124D01*
X104946Y047169D01*
X104983Y047211D01*
X105024Y047250D01*
X105067Y047286D01*
X105113Y047319D01*
X105160Y047349D01*
X105210Y047375D01*
X105262Y047398D01*
X105315Y047418D01*
X105369Y047433D01*
X105424Y047445D01*
X105480Y047453D01*
X105536Y047457D01*
X105592Y047457D01*
X105648Y047453D01*
X105704Y047445D01*
X105759Y047433D01*
X105813Y047418D01*
X105866Y047398D01*
X105918Y047375D01*
X105967Y047349D01*
X106015Y047319D01*
X106061Y047286D01*
X106104Y047250D01*
X106145Y047211D01*
X106182Y047169D01*
X106217Y047124D01*
X106248Y047078D01*
X106277Y047029D01*
X106301Y046978D01*
X106322Y046926D01*
X106340Y046872D01*
X106353Y046818D01*
X106363Y046762D01*
X106369Y046706D01*
X106371Y046650D01*
X106369Y046594D01*
X106363Y046538D01*
X106353Y046482D01*
X106340Y046428D01*
X106322Y046374D01*
X106301Y046322D01*
X106277Y046271D01*
X106248Y046222D01*
X106217Y046176D01*
X106182Y046131D01*
X106145Y046089D01*
X106104Y046050D01*
X106061Y046014D01*
X106015Y045981D01*
X105968Y045951D01*
X105918Y045925D01*
X105866Y045902D01*
X105813Y045882D01*
X105759Y045867D01*
X105704Y045855D01*
X105648Y045847D01*
X105592Y045843D01*
X105536Y045843D01*
X105480Y045847D01*
X105424Y045855D01*
X105369Y045867D01*
X105315Y045882D01*
X105262Y045902D01*
X105210Y045925D01*
X105160Y045951D01*
X105113Y045981D01*
X105067Y046014D01*
X105024Y046050D01*
X104983Y046089D01*
X104946Y046131D01*
X104911Y046176D01*
X104880Y046222D01*
X104851Y046271D01*
X104827Y046322D01*
X104806Y046374D01*
X104788Y046428D01*
X104775Y046482D01*
X104765Y046538D01*
X104759Y046594D01*
X104757Y046650D01*
X132622Y078400D02*
X132624Y078450D01*
X132630Y078500D01*
X132640Y078549D01*
X132654Y078597D01*
X132671Y078644D01*
X132692Y078689D01*
X132717Y078733D01*
X132745Y078774D01*
X132777Y078813D01*
X132811Y078850D01*
X132848Y078884D01*
X132888Y078914D01*
X132930Y078941D01*
X132974Y078965D01*
X133020Y078986D01*
X133067Y079002D01*
X133115Y079015D01*
X133165Y079024D01*
X133214Y079029D01*
X133265Y079030D01*
X133315Y079027D01*
X133364Y079020D01*
X133413Y079009D01*
X133461Y078994D01*
X133507Y078976D01*
X133552Y078954D01*
X133595Y078928D01*
X133636Y078899D01*
X133675Y078867D01*
X133711Y078832D01*
X133743Y078794D01*
X133773Y078754D01*
X133800Y078711D01*
X133823Y078667D01*
X133842Y078621D01*
X133858Y078573D01*
X133870Y078524D01*
X133878Y078475D01*
X133882Y078425D01*
X133882Y078375D01*
X133878Y078325D01*
X133870Y078276D01*
X133858Y078227D01*
X133842Y078179D01*
X133823Y078133D01*
X133800Y078089D01*
X133773Y078046D01*
X133743Y078006D01*
X133711Y077968D01*
X133675Y077933D01*
X133636Y077901D01*
X133595Y077872D01*
X133552Y077846D01*
X133507Y077824D01*
X133461Y077806D01*
X133413Y077791D01*
X133364Y077780D01*
X133315Y077773D01*
X133265Y077770D01*
X133214Y077771D01*
X133165Y077776D01*
X133115Y077785D01*
X133067Y077798D01*
X133020Y077814D01*
X132974Y077835D01*
X132930Y077859D01*
X132888Y077886D01*
X132848Y077916D01*
X132811Y077950D01*
X132777Y077987D01*
X132745Y078026D01*
X132717Y078067D01*
X132692Y078111D01*
X132671Y078156D01*
X132654Y078203D01*
X132640Y078251D01*
X132630Y078300D01*
X132624Y078350D01*
X132622Y078400D01*
D12*
X035650Y078400D02*
X035150Y077900D01*
X035150Y077400D01*
X035650Y078400D02*
X035650Y079025D01*
X035400Y079275D01*
X032338Y079275D01*
X032338Y078525D01*
X032338Y079275D02*
X031838Y079275D01*
X031838Y080150D01*
X026650Y020775D02*
X026275Y020275D01*
X026275Y019775D01*
X026525Y019400D01*
X026650Y019400D02*
X029713Y019400D01*
X030213Y019400D01*
X030213Y018525D01*
X029713Y019400D02*
X029713Y020275D01*
X025900Y018775D02*
X024900Y020650D01*
D13*
X019900Y020150D02*
X014900Y020150D01*
X014900Y076900D01*
X019900Y076900D01*
X019900Y084150D01*
X058150Y084150D01*
X058150Y076900D01*
X063150Y076900D01*
X063150Y020150D01*
X058150Y020150D01*
X058150Y012900D01*
X029150Y012900D01*
X029150Y016400D01*
X019900Y016400D01*
X019900Y020150D01*
D14*
X020963Y018258D02*
X020965Y018308D01*
X020971Y018358D01*
X020981Y018407D01*
X020995Y018455D01*
X021012Y018502D01*
X021033Y018547D01*
X021058Y018591D01*
X021086Y018632D01*
X021118Y018671D01*
X021152Y018708D01*
X021189Y018742D01*
X021229Y018772D01*
X021271Y018799D01*
X021315Y018823D01*
X021361Y018844D01*
X021408Y018860D01*
X021456Y018873D01*
X021506Y018882D01*
X021555Y018887D01*
X021606Y018888D01*
X021656Y018885D01*
X021705Y018878D01*
X021754Y018867D01*
X021802Y018852D01*
X021848Y018834D01*
X021893Y018812D01*
X021936Y018786D01*
X021977Y018757D01*
X022016Y018725D01*
X022052Y018690D01*
X022084Y018652D01*
X022114Y018612D01*
X022141Y018569D01*
X022164Y018525D01*
X022183Y018479D01*
X022199Y018431D01*
X022211Y018382D01*
X022219Y018333D01*
X022223Y018283D01*
X022223Y018233D01*
X022219Y018183D01*
X022211Y018134D01*
X022199Y018085D01*
X022183Y018037D01*
X022164Y017991D01*
X022141Y017947D01*
X022114Y017904D01*
X022084Y017864D01*
X022052Y017826D01*
X022016Y017791D01*
X021977Y017759D01*
X021936Y017730D01*
X021893Y017704D01*
X021848Y017682D01*
X021802Y017664D01*
X021754Y017649D01*
X021705Y017638D01*
X021656Y017631D01*
X021606Y017628D01*
X021555Y017629D01*
X021506Y017634D01*
X021456Y017643D01*
X021408Y017656D01*
X021361Y017672D01*
X021315Y017693D01*
X021271Y017717D01*
X021229Y017744D01*
X021189Y017774D01*
X021152Y017808D01*
X021118Y017845D01*
X021086Y017884D01*
X021058Y017925D01*
X021033Y017969D01*
X021012Y018014D01*
X020995Y018061D01*
X020981Y018109D01*
X020971Y018158D01*
X020965Y018208D01*
X020963Y018258D01*
X056002Y018258D02*
X056004Y018308D01*
X056010Y018358D01*
X056020Y018407D01*
X056034Y018455D01*
X056051Y018502D01*
X056072Y018547D01*
X056097Y018591D01*
X056125Y018632D01*
X056157Y018671D01*
X056191Y018708D01*
X056228Y018742D01*
X056268Y018772D01*
X056310Y018799D01*
X056354Y018823D01*
X056400Y018844D01*
X056447Y018860D01*
X056495Y018873D01*
X056545Y018882D01*
X056594Y018887D01*
X056645Y018888D01*
X056695Y018885D01*
X056744Y018878D01*
X056793Y018867D01*
X056841Y018852D01*
X056887Y018834D01*
X056932Y018812D01*
X056975Y018786D01*
X057016Y018757D01*
X057055Y018725D01*
X057091Y018690D01*
X057123Y018652D01*
X057153Y018612D01*
X057180Y018569D01*
X057203Y018525D01*
X057222Y018479D01*
X057238Y018431D01*
X057250Y018382D01*
X057258Y018333D01*
X057262Y018283D01*
X057262Y018233D01*
X057258Y018183D01*
X057250Y018134D01*
X057238Y018085D01*
X057222Y018037D01*
X057203Y017991D01*
X057180Y017947D01*
X057153Y017904D01*
X057123Y017864D01*
X057091Y017826D01*
X057055Y017791D01*
X057016Y017759D01*
X056975Y017730D01*
X056932Y017704D01*
X056887Y017682D01*
X056841Y017664D01*
X056793Y017649D01*
X056744Y017638D01*
X056695Y017631D01*
X056645Y017628D01*
X056594Y017629D01*
X056545Y017634D01*
X056495Y017643D01*
X056447Y017656D01*
X056400Y017672D01*
X056354Y017693D01*
X056310Y017717D01*
X056268Y017744D01*
X056228Y017774D01*
X056191Y017808D01*
X056157Y017845D01*
X056125Y017884D01*
X056097Y017925D01*
X056072Y017969D01*
X056051Y018014D01*
X056034Y018061D01*
X056020Y018109D01*
X056010Y018158D01*
X056004Y018208D01*
X056002Y018258D01*
X056002Y053691D02*
X056004Y053741D01*
X056010Y053791D01*
X056020Y053840D01*
X056034Y053888D01*
X056051Y053935D01*
X056072Y053980D01*
X056097Y054024D01*
X056125Y054065D01*
X056157Y054104D01*
X056191Y054141D01*
X056228Y054175D01*
X056268Y054205D01*
X056310Y054232D01*
X056354Y054256D01*
X056400Y054277D01*
X056447Y054293D01*
X056495Y054306D01*
X056545Y054315D01*
X056594Y054320D01*
X056645Y054321D01*
X056695Y054318D01*
X056744Y054311D01*
X056793Y054300D01*
X056841Y054285D01*
X056887Y054267D01*
X056932Y054245D01*
X056975Y054219D01*
X057016Y054190D01*
X057055Y054158D01*
X057091Y054123D01*
X057123Y054085D01*
X057153Y054045D01*
X057180Y054002D01*
X057203Y053958D01*
X057222Y053912D01*
X057238Y053864D01*
X057250Y053815D01*
X057258Y053766D01*
X057262Y053716D01*
X057262Y053666D01*
X057258Y053616D01*
X057250Y053567D01*
X057238Y053518D01*
X057222Y053470D01*
X057203Y053424D01*
X057180Y053380D01*
X057153Y053337D01*
X057123Y053297D01*
X057091Y053259D01*
X057055Y053224D01*
X057016Y053192D01*
X056975Y053163D01*
X056932Y053137D01*
X056887Y053115D01*
X056841Y053097D01*
X056793Y053082D01*
X056744Y053071D01*
X056695Y053064D01*
X056645Y053061D01*
X056594Y053062D01*
X056545Y053067D01*
X056495Y053076D01*
X056447Y053089D01*
X056400Y053105D01*
X056354Y053126D01*
X056310Y053150D01*
X056268Y053177D01*
X056228Y053207D01*
X056191Y053241D01*
X056157Y053278D01*
X056125Y053317D01*
X056097Y053358D01*
X056072Y053402D01*
X056051Y053447D01*
X056034Y053494D01*
X056020Y053542D01*
X056010Y053591D01*
X056004Y053641D01*
X056002Y053691D01*
X020963Y053691D02*
X020965Y053741D01*
X020971Y053791D01*
X020981Y053840D01*
X020995Y053888D01*
X021012Y053935D01*
X021033Y053980D01*
X021058Y054024D01*
X021086Y054065D01*
X021118Y054104D01*
X021152Y054141D01*
X021189Y054175D01*
X021229Y054205D01*
X021271Y054232D01*
X021315Y054256D01*
X021361Y054277D01*
X021408Y054293D01*
X021456Y054306D01*
X021506Y054315D01*
X021555Y054320D01*
X021606Y054321D01*
X021656Y054318D01*
X021705Y054311D01*
X021754Y054300D01*
X021802Y054285D01*
X021848Y054267D01*
X021893Y054245D01*
X021936Y054219D01*
X021977Y054190D01*
X022016Y054158D01*
X022052Y054123D01*
X022084Y054085D01*
X022114Y054045D01*
X022141Y054002D01*
X022164Y053958D01*
X022183Y053912D01*
X022199Y053864D01*
X022211Y053815D01*
X022219Y053766D01*
X022223Y053716D01*
X022223Y053666D01*
X022219Y053616D01*
X022211Y053567D01*
X022199Y053518D01*
X022183Y053470D01*
X022164Y053424D01*
X022141Y053380D01*
X022114Y053337D01*
X022084Y053297D01*
X022052Y053259D01*
X022016Y053224D01*
X021977Y053192D01*
X021936Y053163D01*
X021893Y053137D01*
X021848Y053115D01*
X021802Y053097D01*
X021754Y053082D01*
X021705Y053071D01*
X021656Y053064D01*
X021606Y053061D01*
X021555Y053062D01*
X021506Y053067D01*
X021456Y053076D01*
X021408Y053089D01*
X021361Y053105D01*
X021315Y053126D01*
X021271Y053150D01*
X021229Y053177D01*
X021189Y053207D01*
X021152Y053241D01*
X021118Y053278D01*
X021086Y053317D01*
X021058Y053358D01*
X021033Y053402D01*
X021012Y053447D01*
X020995Y053494D01*
X020981Y053542D01*
X020971Y053591D01*
X020965Y053641D01*
X020963Y053691D01*
X020963Y078888D02*
X020965Y078938D01*
X020971Y078988D01*
X020981Y079037D01*
X020995Y079085D01*
X021012Y079132D01*
X021033Y079177D01*
X021058Y079221D01*
X021086Y079262D01*
X021118Y079301D01*
X021152Y079338D01*
X021189Y079372D01*
X021229Y079402D01*
X021271Y079429D01*
X021315Y079453D01*
X021361Y079474D01*
X021408Y079490D01*
X021456Y079503D01*
X021506Y079512D01*
X021555Y079517D01*
X021606Y079518D01*
X021656Y079515D01*
X021705Y079508D01*
X021754Y079497D01*
X021802Y079482D01*
X021848Y079464D01*
X021893Y079442D01*
X021936Y079416D01*
X021977Y079387D01*
X022016Y079355D01*
X022052Y079320D01*
X022084Y079282D01*
X022114Y079242D01*
X022141Y079199D01*
X022164Y079155D01*
X022183Y079109D01*
X022199Y079061D01*
X022211Y079012D01*
X022219Y078963D01*
X022223Y078913D01*
X022223Y078863D01*
X022219Y078813D01*
X022211Y078764D01*
X022199Y078715D01*
X022183Y078667D01*
X022164Y078621D01*
X022141Y078577D01*
X022114Y078534D01*
X022084Y078494D01*
X022052Y078456D01*
X022016Y078421D01*
X021977Y078389D01*
X021936Y078360D01*
X021893Y078334D01*
X021848Y078312D01*
X021802Y078294D01*
X021754Y078279D01*
X021705Y078268D01*
X021656Y078261D01*
X021606Y078258D01*
X021555Y078259D01*
X021506Y078264D01*
X021456Y078273D01*
X021408Y078286D01*
X021361Y078302D01*
X021315Y078323D01*
X021271Y078347D01*
X021229Y078374D01*
X021189Y078404D01*
X021152Y078438D01*
X021118Y078475D01*
X021086Y078514D01*
X021058Y078555D01*
X021033Y078599D01*
X021012Y078644D01*
X020995Y078691D01*
X020981Y078739D01*
X020971Y078788D01*
X020965Y078838D01*
X020963Y078888D01*
X056002Y078888D02*
X056004Y078938D01*
X056010Y078988D01*
X056020Y079037D01*
X056034Y079085D01*
X056051Y079132D01*
X056072Y079177D01*
X056097Y079221D01*
X056125Y079262D01*
X056157Y079301D01*
X056191Y079338D01*
X056228Y079372D01*
X056268Y079402D01*
X056310Y079429D01*
X056354Y079453D01*
X056400Y079474D01*
X056447Y079490D01*
X056495Y079503D01*
X056545Y079512D01*
X056594Y079517D01*
X056645Y079518D01*
X056695Y079515D01*
X056744Y079508D01*
X056793Y079497D01*
X056841Y079482D01*
X056887Y079464D01*
X056932Y079442D01*
X056975Y079416D01*
X057016Y079387D01*
X057055Y079355D01*
X057091Y079320D01*
X057123Y079282D01*
X057153Y079242D01*
X057180Y079199D01*
X057203Y079155D01*
X057222Y079109D01*
X057238Y079061D01*
X057250Y079012D01*
X057258Y078963D01*
X057262Y078913D01*
X057262Y078863D01*
X057258Y078813D01*
X057250Y078764D01*
X057238Y078715D01*
X057222Y078667D01*
X057203Y078621D01*
X057180Y078577D01*
X057153Y078534D01*
X057123Y078494D01*
X057091Y078456D01*
X057055Y078421D01*
X057016Y078389D01*
X056975Y078360D01*
X056932Y078334D01*
X056887Y078312D01*
X056841Y078294D01*
X056793Y078279D01*
X056744Y078268D01*
X056695Y078261D01*
X056645Y078258D01*
X056594Y078259D01*
X056545Y078264D01*
X056495Y078273D01*
X056447Y078286D01*
X056400Y078302D01*
X056354Y078323D01*
X056310Y078347D01*
X056268Y078374D01*
X056228Y078404D01*
X056191Y078438D01*
X056157Y078475D01*
X056125Y078514D01*
X056097Y078555D01*
X056072Y078599D01*
X056051Y078644D01*
X056034Y078691D01*
X056020Y078739D01*
X056010Y078788D01*
X056004Y078838D01*
X056002Y078888D01*
M02*
