%
M48
M72
T01C0.0315
T02C0.0320
T03C0.0354
T04C0.0360
T05C0.0394
T06C0.0400
T07C0.0440
T08C0.0470
T09C0.0472
T10C0.0520
T11C0.0551
T12C0.0591
T13C0.0630
T14C0.0710
T15C0.0787
T16C0.0984
T17C0.1220
T18C0.1260
T19C0.1614
T20C0.1969
T21C0.4724
%
T01
X24400Y25150
X25900Y25525
X25900Y26650
X29900Y26650
X29900Y25525
X35025Y28650
X39025Y28650
X39025Y27525
X41025Y25525
X44088Y26838
X44088Y27838
X46088Y27775
X46088Y26775
X46463Y25400
X49525Y27400
X49525Y28400
X49525Y29400
X49525Y31525
X49525Y32525
X49525Y33525
X49525Y36025
X49525Y37025
X49525Y38025
X51775Y40025
X52775Y39400
X55025Y38025
X55025Y37025
X55025Y36025
X55025Y33400
X55025Y32400
X55025Y31400
X57213Y32025
X60400Y31525
X60400Y32525
X60400Y33525
X60150Y36025
X60150Y37025
X60150Y38025
X58525Y39400
X57400Y41400
X54525Y40775
X53400Y41900
X52900Y43400
X51900Y42650
X50275Y43150
X48775Y41900
X47275Y40775
X44900Y41400
X44900Y40025
X44088Y37963
X44088Y36963
X44088Y35963
X44150Y34775
X44088Y32963
X44088Y31963
X44088Y30963
X46088Y31963
X44088Y28838
X50963Y25400
X55025Y27650
X55025Y28650
X55025Y29650
X58150Y27650
X57213Y26775
X58150Y24650
X60400Y27525
X60400Y28525
X60400Y29525
X40900Y34775
X39900Y36150
X39025Y38525
X35900Y36150
X35025Y38525
X30025Y44525
X36356Y49025
X36900Y52025
X35775Y53025
X34900Y52025
X32775Y53025
X36025Y58650
X40025Y58650
X47400Y57650
X48525Y56025
X50275Y56025
X50775Y54775
X52150Y55275
X54025Y56025
X55650Y54525
X57150Y55275
X56275Y56025
X56275Y58150
X56275Y59650
X54650Y58900
X55525Y62525
X58525Y63400
X61650Y63400
X62650Y62525
X63525Y59650
X59400Y58900
X62025Y56525
X62025Y55525
X61025Y55525
X61025Y54525
X62025Y54525
X62900Y54525
X62025Y53525
X61025Y53525
X61025Y52525
X62025Y52525
X62900Y49525
X62400Y46400
X59400Y46400
X56525Y47900
X55650Y47275
X54775Y45025
X55650Y44400
X53900Y44275
X50775Y45400
X55650Y50525
X56525Y51400
X54775Y51525
X52900Y51900
X53900Y52775
X51900Y53400
X50275Y51150
X48525Y52400
X47400Y52525
X50525Y61275
X50525Y67400
X56275Y67150
X58525Y67150
X56775Y69025
X55275Y71525
X57150Y76400
X63775Y73025
X63775Y71525
X62775Y69025
X92650Y58275
X96275Y57650
X96275Y55650
X96463Y51275
X94025Y51275
X92516Y45525
X96150Y40588
X97650Y38150
X95025Y35400
X94275Y34025
X95963Y33025
X95025Y32588
X95963Y31025
X102275Y37400
X105338Y38150
X109525Y40650
X113025Y40650
X104650Y45338
X104588Y46525
X108650Y48400
X109400Y49150
X108400Y50275
X109525Y50775
X109275Y52525
X109275Y53400
X110463Y53025
X111463Y53025
X112463Y53025
X113588Y53025
X114775Y53025
X115713Y53025
X118025Y51900
X119025Y51213
X118150Y49775
X117400Y50525
X119025Y48900
X116525Y46775
X115650Y48025
X114650Y48025
X113650Y48025
X112650Y48025
X111650Y48025
X110525Y48025
X109275Y46775
X112275Y46775
X113275Y49025
X113900Y50525
X111650Y50025
X111025Y52025
X106275Y52025
X106275Y53025
X106275Y54525
X107150Y55150
X105275Y55650
X106275Y56775
X103275Y56775
X103275Y54525
X103275Y53025
X103275Y52025
X103213Y50650
X106213Y50650
X118650Y53400
X121025Y53650
X122275Y51900
X122775Y53025
X123775Y53025
X124900Y53025
X126025Y53025
X127025Y53025
X127963Y53025
X126900Y51525
X125775Y51525
X126525Y50463
X127650Y50650
X127400Y49025
X126900Y48025
X125900Y48025
X125900Y48900
X124900Y48025
X123900Y48025
X122775Y48025
X122025Y46775
X123463Y46650
X127900Y48025
X129775Y50650
X130900Y51525
X124900Y49775
X123900Y50525
X124775Y56525
X135150Y76775
X131150Y80775
X116650Y78525
X106400Y34525
X114775Y32150
X114775Y30275
X116025Y29775
X116650Y28525
X117775Y28525
X118775Y28525
X119775Y28525
X120775Y28525
X121775Y28525
X122275Y29775
X120275Y27025
X119275Y27025
X118275Y27025
X115525Y27400
X112650Y24400
X112650Y20400
X98650Y21025
X98650Y23025
X92650Y21025
X93650Y17025
X116650Y33525
X117775Y33525
X118775Y33525
X119775Y33525
X120775Y33525
X121775Y33525
X125588Y33275
X118025Y32150
X128650Y27525
X133025Y27525
X135150Y21025
X131150Y17025
X26525Y58525
X26525Y62900
X19025Y47150
X20650Y35900
T02
X30999Y36374
X31173Y35390
X31346Y34405
X34301Y34926
X34127Y35910
X33954Y36895
X34900Y39400
X34900Y40400
X34900Y41400
X31900Y41400
X31900Y40400
X31900Y39400
X38650Y41400
X39650Y41400
X45900Y44650
X45900Y45650
X45900Y46650
X45900Y47650
X45900Y48650
X45900Y49650
X45900Y50650
X45900Y51650
X48900Y51650
X48900Y50650
X48900Y49650
X48900Y48650
X48900Y47650
X48900Y46650
X48900Y45650
X48900Y44650
X50025Y34775
X45025Y34775
X33784Y30565
X33992Y29587
X34200Y28609
X31266Y27985
X31058Y28963
X30850Y29941
X61150Y23025
X62150Y23025
X63150Y23025
X97400Y30025
X97400Y31025
X97400Y32025
X97400Y33025
X97400Y34025
X97400Y35025
X97400Y36025
X97400Y37025
X100400Y37025
X100400Y36025
X100400Y35025
X100400Y34025
X100400Y33025
X100400Y32025
X100400Y31025
X100400Y30025
X101650Y30150
X101650Y29150
X101650Y31150
X101650Y32150
X101650Y33150
X101650Y34150
X101650Y35150
X101650Y36150
X104650Y36150
X104650Y35150
X104650Y34150
X104650Y33150
X104650Y32150
X104650Y31150
X104650Y30150
X104650Y29150
X103150Y27025
X103150Y26025
X103150Y25025
X103150Y24025
X103150Y23025
X103150Y22025
X103150Y21025
X103150Y20025
X100150Y20025
X100150Y21025
X100150Y22025
X100150Y23025
X100150Y24025
X100150Y25025
X100150Y26025
X100150Y27025
X108025Y26025
X108025Y25025
X108025Y24025
X108025Y23025
X108025Y22025
X108025Y21025
X108025Y20025
X108025Y19025
X111025Y19025
X111025Y20025
X111025Y21025
X111025Y22025
X111025Y23025
X111025Y24025
X111025Y25025
X111025Y26025
X126775Y34150
X127775Y34150
X127463Y40900
X128463Y40900
X122900Y40900
X121900Y40900
X108150Y40525
X106150Y40525
X102525Y40025
X102525Y39025
X102525Y41025
X102525Y42025
X102525Y43025
X102525Y44025
X102525Y45025
X99525Y45025
X99525Y44025
X99525Y43025
X99525Y42025
X99525Y41025
X99525Y40025
X99525Y39025
X100775Y50275
X100775Y51275
X100775Y52275
X100775Y53275
X100775Y54275
X100775Y55275
X100775Y56275
X100775Y57275
X102275Y56400
X97775Y56275
X97775Y55275
X97775Y54275
X97775Y53275
X97775Y52275
X97775Y51275
X97775Y50275
X102275Y50400
X108150Y54525
X108150Y55525
X109400Y55525
X109400Y54525
X110650Y54525
X110650Y55525
X111900Y55525
X111900Y54525
X113150Y54463
X113150Y55588
X114400Y55588
X114400Y54463
X115650Y54463
X115650Y55588
X116900Y55525
X116900Y54525
X118150Y54525
X118150Y55525
X120400Y55525
X120400Y54525
X121650Y54525
X121650Y55525
X122900Y55525
X122900Y54525
X124150Y54525
X124150Y55525
X125400Y55588
X125400Y54463
X126650Y54463
X126650Y55588
X127900Y55588
X127900Y54463
X129150Y54525
X129150Y55525
X130400Y55588
X130400Y54463
X126650Y69400
X126650Y71400
X97775Y57275
X62025Y70025
X59025Y70025
X54525Y68900
X52672Y67387
X54525Y64900
X50025Y65475
X50025Y64075
X47129Y64046
X46421Y64754
X49088Y67338
X49088Y69338
X50378Y70663
X48775Y71325
X48775Y72725
X54088Y75200
X54088Y77100
X30900Y65650
X27900Y65650
X34025Y61775
X34025Y58775
X33900Y57525
X34900Y57525
X35900Y57525
X38400Y56725
X38400Y55325
X35900Y54525
X34900Y54525
X33900Y54525
X32900Y54525
X32900Y57525
X28900Y57525
X28900Y58525
X52025Y59525
X52025Y60525
X52025Y61525
T03
X44025Y51650
X44025Y50650
X44025Y49650
X44025Y48650
X129525Y75525
X129525Y76525
T04
X43900Y64025
X40900Y64025
T05
X43487Y68875
X43487Y70450
X43487Y72419
X43487Y73994
X43487Y75962
X43487Y77537
X52845Y79483
X52845Y80521
X53892Y80521
X53892Y79483
X52400Y66025
X52400Y65025
X52400Y64025
X29313Y68875
X25025Y66150
X18775Y66150
X18775Y59900
X25025Y59900
X27525Y73775
X29313Y75175
X27525Y75775
X29025Y41650
X25025Y41650
X19025Y40525
X19025Y39525
X19025Y38525
X25025Y34900
X29025Y34900
X29525Y28025
X25525Y28025
X19025Y26025
X19025Y25025
X19025Y24025
X19025Y31275
X19025Y32275
X19025Y33275
X125025Y59775
X129025Y59775
X129025Y64775
X125025Y64775
T06
X22525Y21775
X22525Y27775
X22525Y29025
X24025Y31025
X24025Y33025
X22525Y35025
X22650Y36525
X24025Y37775
X24025Y39775
X22650Y42525
X30025Y39775
X30025Y37775
X30025Y33025
X30025Y31025
X36650Y27150
X36650Y26150
X36650Y25150
X36650Y24150
X36650Y23150
X37650Y23150
X37650Y24150
X37650Y25150
X37650Y26150
X37650Y27150
X58525Y40275
X58525Y41275
X59525Y41275
X60525Y41275
X60525Y40275
X59525Y40275
X61525Y40275
X61525Y41275
X58400Y45525
X57400Y45525
X57400Y46525
X58400Y46525
X58400Y47525
X57400Y47525
X44025Y46650
X44025Y45650
X44025Y44650
X29150Y50775
X23150Y50775
X23400Y60150
X20650Y60150
X20650Y66150
X23400Y66150
X28025Y68650
X28025Y72650
X29650Y62525
X30650Y62525
X31650Y62525
X36650Y62275
X37650Y62275
X38650Y62275
X46025Y66400
X45775Y68650
X45775Y69650
X45775Y70650
X50150Y75275
X50150Y77275
X45775Y77650
X45775Y76650
X45775Y75650
X46856Y61444
X48944Y59356
X96150Y44900
X97150Y44900
X97150Y43900
X96150Y43900
X96150Y42900
X97150Y42900
X121650Y58900
X121650Y64900
X128775Y68275
X130025Y68275
X133650Y64025
X133650Y58025
X126275Y41150
X126275Y40150
X125275Y40150
X125275Y41150
X62150Y22025
T07
X22150Y50775
X18150Y50775
X25400Y54525
X29400Y54525
X31150Y53525
X31150Y57525
X115901Y51254
X117399Y47546
T08
X118485Y44880
X120065Y44880
X120065Y42920
X118485Y42920
X113565Y42920
X111985Y42920
X111985Y44880
X113565Y44880
X107065Y44880
X107065Y42920
X107065Y38380
X107065Y36420
X111985Y36420
X113565Y36420
X113565Y38380
X111985Y38380
X118485Y38380
X118485Y36420
X120093Y36353
X121478Y34968
X124957Y38447
X126593Y38447
X127978Y39832
X126565Y42920
X124985Y42920
X124985Y44880
X126565Y44880
X131485Y44880
X131485Y42920
X123572Y39832
X130072Y34968
X131457Y36353
X130072Y33332
X131457Y31947
X126593Y29853
X127978Y28468
X126565Y25380
X124985Y25380
X124985Y23420
X126565Y23420
X131485Y23420
X131485Y25380
X120065Y25380
X118485Y25380
X118485Y23420
X120065Y23420
X113565Y23420
X113565Y25380
X26650Y23150
X24650Y23150
T09
X28338Y49025
X116675Y68525
X118675Y68525
X122875Y68525
X124875Y68525
X124875Y72525
X122875Y72525
X118675Y72525
X116675Y72525
X131650Y69525
X131650Y67525
X131650Y65525
X134650Y65525
X134650Y67525
X134650Y69525
X134650Y75525
X131650Y75525
T10
X26525Y56900
X23585Y56900
X20635Y56900
X17685Y56900
T11
X42148Y19684
X41148Y18692
X44112Y18696
X46085Y19688
X47057Y18692
X49492Y18692
X50492Y19684
X52456Y18696
X54429Y19688
X55401Y18692
X54432Y14762
X53447Y14762
X51476Y14762
X50492Y14762
X46088Y14762
X45104Y14762
X43132Y14762
X42148Y14762
T12
X128525Y72838
X117713Y75150
X55770Y81525
X51030Y81525
T13
X19900Y54187
X19900Y52613
X19687Y44525
X18113Y44525
X22363Y44525
X23937Y44525
X26613Y44525
X28187Y44525
X118150Y60113
X118150Y61687
X118150Y64488
X118150Y66062
T14
X116025Y45670
X116025Y42130
X116025Y39170
X116025Y35630
X121273Y38652
X123777Y36148
X127773Y36148
X130277Y38652
X129025Y42130
X129025Y45670
X122525Y45670
X122525Y42130
X109525Y42130
X109525Y39170
X109525Y35630
X116025Y26170
X116025Y22630
X122525Y22630
X122525Y26170
X129025Y26170
X130277Y29648
X127773Y32152
X129025Y22630
X109525Y45670
X37650Y60625
X30650Y60625
X20675Y39525
X20675Y32275
X20675Y25025
T15
X19525Y71775
X24275Y71775
T16
X43880Y66513
T17
X94275Y40275
X105650Y27025
X119025Y40650
X131650Y40275
T18
X129877Y18376
X94838Y18376
X129877Y79400
T19
X102189Y47650
X94709Y47650
T20
X98449Y47650
T21
X109525Y30900
M30
