%
M48
M72
T01C0.0315
T02C0.0320
T03C0.0354
T04C0.0360
T05C0.0394
T06C0.0400
T07C0.0440
T08C0.0470
T09C0.0472
T10C0.0520
T11C0.0551
T12C0.0591
T13C0.0710
T14C0.0787
T15C0.0984
T16C0.1220
T17C0.1260
T18C0.1614
T19C0.1969
T20C0.4724
%
T01
X24400Y27600
X25900Y27975
X25900Y29100
X29900Y29100
X29900Y27975
X35025Y31100
X39025Y31100
X39025Y29975
X41025Y27975
X44088Y29288
X44088Y30288
X44088Y31288
X46088Y30225
X46088Y29225
X46463Y27850
X49525Y29850
X49525Y30850
X49525Y31850
X49525Y33975
X49525Y34975
X49525Y35975
X49525Y38475
X49525Y39475
X49525Y40475
X51775Y42475
X52775Y41850
X54525Y43225
X53400Y44350
X51900Y45100
X52900Y45850
X53900Y46725
X54775Y47475
X55650Y46850
X57400Y43850
X58525Y41850
X60150Y40475
X60150Y39475
X60150Y38475
X60400Y35975
X60400Y34975
X60400Y33975
X60400Y31975
X60400Y30975
X60400Y29975
X58150Y30100
X57213Y29225
X55025Y30100
X55025Y31100
X55025Y32100
X55025Y33850
X55025Y34850
X55025Y35850
X57213Y34475
X55025Y38475
X55025Y39475
X55025Y40475
X48775Y44350
X47275Y43225
X44900Y43850
X44900Y42475
X44088Y40413
X44088Y39413
X44088Y38413
X44150Y37225
X44088Y35413
X44088Y34413
X44088Y33413
X46088Y34413
X40900Y37225
X39900Y38600
X39025Y40975
X35900Y38600
X35025Y40975
X30025Y47100
X36356Y51475
X36900Y54475
X35775Y55475
X34900Y54475
X32775Y55475
X36025Y61100
X40025Y61100
X47400Y60100
X48525Y58475
X50275Y58475
X50775Y57225
X52150Y57725
X54025Y58475
X55650Y56975
X57150Y57725
X56275Y58475
X56275Y60600
X56275Y62100
X54650Y61350
X55525Y64975
X58525Y65850
X61650Y65850
X62650Y64975
X63525Y62100
X59400Y61350
X62025Y58975
X62025Y57975
X61025Y57975
X61025Y56975
X62025Y56975
X62900Y56975
X62025Y55975
X61025Y55975
X61025Y54975
X62025Y54975
X62900Y51975
X62400Y48850
X59400Y48850
X56525Y50350
X55650Y49725
X50775Y47850
X50275Y45600
X50275Y53600
X48525Y54850
X47400Y54975
X51900Y55850
X52900Y54350
X53900Y55225
X54775Y53975
X55650Y52975
X56525Y53850
X50525Y66475
X56150Y69850
X58525Y69850
X55525Y71475
X55275Y73975
X50525Y73475
X57150Y78850
X63775Y75475
X63775Y73975
X62775Y71475
X92650Y60725
X96275Y60100
X96275Y58100
X103275Y56975
X103275Y55475
X103275Y54475
X103213Y53100
X106213Y53100
X106275Y54475
X106275Y55475
X106275Y56975
X107150Y57600
X105275Y58100
X106275Y59225
X103275Y59225
X109275Y55850
X109275Y54975
X110463Y55475
X111463Y55475
X112463Y55475
X113588Y55475
X114775Y55475
X115713Y55475
X118025Y54350
X119025Y53663
X118150Y52225
X117400Y52975
X119025Y51350
X116525Y49225
X115650Y50475
X114650Y50475
X113650Y50475
X112650Y50475
X111650Y50475
X110525Y50475
X109400Y51600
X108650Y50850
X109275Y49225
X112275Y49225
X113275Y51475
X111650Y52475
X113900Y52975
X111025Y54475
X109525Y53225
X108400Y52725
X104588Y48975
X104650Y47788
X109525Y43100
X113025Y43100
X105338Y40600
X102275Y39850
X97650Y40600
X95025Y37850
X94275Y36475
X95025Y35038
X95963Y35475
X95963Y33475
X106400Y36975
X114775Y34600
X114775Y32725
X116025Y32225
X116650Y30975
X117775Y30975
X118775Y30975
X119775Y30975
X120775Y30975
X121775Y30975
X122275Y32225
X118025Y34600
X117775Y35975
X118775Y35975
X119775Y35975
X120775Y35975
X121775Y35975
X125588Y35725
X116650Y35975
X115525Y29850
X118275Y29475
X119275Y29475
X120275Y29475
X112650Y26850
X112650Y22850
X98650Y23475
X98650Y25475
X92650Y23475
X93650Y19475
X58150Y27100
X50963Y27850
X20650Y38350
X19025Y49600
X26525Y60975
X26525Y65350
X92516Y47975
X94025Y53725
X96463Y53725
X96150Y43038
X118650Y55850
X121025Y56100
X122775Y55475
X123775Y55475
X124900Y55475
X126025Y55475
X127025Y55475
X127963Y55475
X126900Y53975
X125775Y53975
X126525Y52913
X127650Y53100
X129775Y53100
X130900Y53975
X127400Y51475
X126900Y50475
X125900Y50475
X125900Y51350
X124900Y50475
X123900Y50475
X122775Y50475
X122025Y49225
X123463Y49100
X124900Y52225
X123900Y52975
X122275Y54350
X124775Y58975
X127900Y50475
X128650Y29975
X133025Y29975
X135150Y23475
X131150Y19475
X135150Y79225
X131150Y83225
X116650Y80975
T02
X2775Y1350
X5775Y1350
X31266Y30435
X31058Y31413
X30850Y32391
X33784Y33015
X33992Y32037
X34200Y31059
X34301Y37376
X34127Y38360
X33954Y39345
X30999Y38824
X31173Y37840
X31346Y36855
X31900Y41850
X31900Y42850
X31900Y43850
X34900Y43850
X34900Y42850
X34900Y41850
X38650Y43850
X39650Y43850
X45900Y47100
X45900Y48100
X45900Y49100
X45900Y50100
X45900Y51100
X45900Y52100
X45900Y53100
X45900Y54100
X48900Y54100
X48900Y53100
X48900Y52100
X48900Y51100
X48900Y50100
X48900Y49100
X48900Y48100
X48900Y47100
X35900Y56975
X34900Y56975
X33900Y56975
X32900Y56975
X32900Y59975
X33900Y59975
X34900Y59975
X35900Y59975
X34025Y61225
X34025Y64225
X30900Y68100
X27900Y68100
X28900Y60975
X28900Y59975
X38400Y59175
X38400Y57775
X52025Y61975
X52025Y62975
X52025Y63975
X54275Y67100
X54275Y71100
X59025Y72475
X62025Y72475
X54088Y77650
X54088Y79550
X48775Y75175
X48775Y73775
X48963Y71663
X48963Y69663
X49025Y67100
X48025Y67100
X50025Y37225
X45025Y37225
X61150Y25475
X62150Y25475
X63150Y25475
X97400Y32475
X97400Y33475
X97400Y34475
X97400Y35475
X97400Y36475
X97400Y37475
X97400Y38475
X97400Y39475
X100400Y39475
X100400Y38475
X100400Y37475
X100400Y36475
X100400Y35475
X100400Y34475
X100400Y33475
X100400Y32475
X101650Y32600
X101650Y33600
X101650Y34600
X101650Y35600
X101650Y36600
X101650Y37600
X101650Y38600
X104650Y38600
X104650Y37600
X104650Y36600
X104650Y35600
X104650Y34600
X104650Y33600
X104650Y32600
X104650Y31600
X101650Y31600
X100150Y29475
X100150Y28475
X100150Y27475
X100150Y26475
X100150Y25475
X100150Y24475
X100150Y23475
X100150Y22475
X103150Y22475
X103150Y23475
X103150Y24475
X103150Y25475
X103150Y26475
X103150Y27475
X103150Y28475
X103150Y29475
X108025Y28475
X108025Y27475
X108025Y26475
X108025Y25475
X108025Y24475
X108025Y23475
X108025Y22475
X108025Y21475
X111025Y21475
X111025Y22475
X111025Y23475
X111025Y24475
X111025Y25475
X111025Y26475
X111025Y27475
X111025Y28475
X126775Y36600
X127775Y36600
X127463Y43350
X128463Y43350
X122900Y43350
X121900Y43350
X108150Y42975
X106150Y42975
X102525Y42475
X102525Y41475
X102525Y43475
X102525Y44475
X102525Y45475
X102525Y46475
X102525Y47475
X99525Y47475
X99525Y46475
X99525Y45475
X99525Y44475
X99525Y43475
X99525Y42475
X99525Y41475
X100775Y52725
X100775Y53725
X100775Y54725
X100775Y55725
X100775Y56725
X100775Y57725
X100775Y58725
X100775Y59725
X102275Y58850
X97775Y58725
X97775Y57725
X97775Y56725
X97775Y55725
X97775Y54725
X97775Y53725
X97775Y52725
X102275Y52850
X108150Y56975
X108150Y57975
X109400Y57975
X109400Y56975
X110650Y56975
X110650Y57975
X111900Y57975
X111900Y56975
X113150Y56913
X113150Y58038
X114400Y58038
X114400Y56913
X115650Y56913
X115650Y58038
X116900Y57975
X116900Y56975
X118150Y56975
X118150Y57975
X120400Y57975
X120400Y56975
X121650Y56975
X121650Y57975
X122900Y57975
X122900Y56975
X124150Y56975
X124150Y57975
X125400Y58038
X125400Y56913
X126650Y56913
X126650Y58038
X127900Y58038
X127900Y56913
X129150Y56975
X129150Y57975
X130400Y58038
X130400Y56913
X126650Y71850
X126650Y73850
X97775Y59725
T03
X128775Y70975
X129775Y70975
X129525Y77975
X129525Y78975
X44025Y54100
X44025Y53100
X44025Y52100
X44025Y51100
T04
X43900Y66475
X40900Y66475
T05
X38650Y64725
X37650Y64725
X36650Y64725
X31650Y64975
X30650Y64975
X29650Y64975
X25025Y62350
X18775Y62350
X18775Y68600
X25025Y68600
X29313Y71325
X27525Y76225
X27525Y78225
X29313Y77625
X43487Y78412
X43487Y76444
X43487Y74869
X43487Y72900
X43487Y71325
X52150Y69475
X52150Y68475
X52150Y67475
X49775Y62975
X46775Y62975
X43487Y79987
X52845Y81933
X52845Y82971
X53892Y82971
X53892Y81933
X29025Y44100
X25025Y44100
X19025Y42975
X19025Y41975
X19025Y40975
X25025Y37350
X29025Y37350
X29525Y30475
X25525Y30475
X19025Y28475
X19025Y27475
X19025Y26475
X19025Y33725
X19025Y34725
X19025Y35725
X125025Y62225
X129025Y62225
X129025Y67225
X125025Y67225
T06
X121650Y67350
X121650Y61350
X133650Y60475
X133650Y66475
X126275Y43600
X126275Y42600
X125275Y42600
X125275Y43600
X97150Y45350
X96150Y45350
X96150Y46350
X97150Y46350
X97150Y47350
X96150Y47350
X61525Y43725
X61525Y42725
X60525Y42725
X59525Y42725
X59525Y43725
X60525Y43725
X58525Y43725
X58525Y42725
X58400Y47975
X57400Y47975
X57400Y48975
X58400Y48975
X58400Y49975
X57400Y49975
X44025Y49100
X44025Y48100
X44025Y47100
X30025Y42225
X30025Y40225
X24025Y40225
X22650Y38975
X22525Y37475
X24025Y35475
X24025Y33475
X22525Y31475
X22525Y30225
X30025Y33475
X30025Y35475
X36650Y29600
X36650Y28600
X36650Y27600
X36650Y26600
X36650Y25600
X37650Y25600
X37650Y26600
X37650Y27600
X37650Y28600
X37650Y29600
X22525Y24225
X24025Y42225
X22650Y44975
X23150Y53225
X29150Y53225
X23400Y62600
X20650Y62600
X20650Y68600
X23400Y68600
X28025Y71100
X28025Y75100
X45775Y73100
X45775Y72100
X45775Y71100
X46525Y68600
X45775Y78100
X45775Y79100
X45775Y80100
X50150Y79725
X50150Y77725
X62150Y24475
T07
X22150Y53225
X18150Y53225
X25400Y56975
X29400Y56975
X31150Y55975
X31150Y59975
X115901Y53704
X117399Y49996
T08
X118485Y47330
X120065Y47330
X120065Y45370
X118485Y45370
X113565Y45370
X111985Y45370
X111985Y47330
X113565Y47330
X107065Y47330
X107065Y45370
X107065Y40830
X107065Y38870
X111985Y38870
X113565Y38870
X113565Y40830
X111985Y40830
X118485Y40830
X118485Y38870
X120093Y38803
X121478Y37418
X124957Y40897
X126593Y40897
X127978Y42282
X126565Y45370
X124985Y45370
X124985Y47330
X126565Y47330
X131485Y47330
X131485Y45370
X123572Y42282
X130072Y37418
X130072Y35782
X131457Y34397
X127978Y30918
X126593Y32303
X126565Y27830
X124985Y27830
X124985Y25870
X126565Y25870
X131485Y25870
X131485Y27830
X120065Y27830
X118485Y27830
X118485Y25870
X120065Y25870
X113565Y25870
X113565Y27830
X131457Y38803
X117900Y62225
X117900Y64225
X117900Y66225
X117900Y68225
X28400Y47100
X26400Y47100
X24150Y47100
X22150Y47100
X19900Y47100
X17900Y47100
X19900Y54850
X19900Y56850
X24650Y25600
X26650Y25600
T09
X28338Y51475
X116675Y70975
X118675Y70975
X122875Y70975
X124875Y70975
X124875Y74975
X122875Y74975
X118675Y74975
X116675Y74975
X131650Y71975
X131650Y69975
X131650Y67975
X134650Y67975
X134650Y69975
X134650Y71975
X134650Y77975
X131650Y77975
T10
X26525Y59350
X23585Y59350
X20635Y59350
X17685Y59350
T11
X42148Y22134
X41148Y21142
X44112Y21146
X46085Y22138
X47057Y21142
X49492Y21142
X50492Y22134
X52456Y21146
X54429Y22138
X55401Y21142
X54432Y17212
X53447Y17212
X51476Y17212
X50492Y17212
X46088Y17212
X45104Y17212
X43132Y17212
X42148Y17212
T12
X128525Y75288
X117713Y77600
X55770Y83975
X51030Y83975
T13
X37650Y63075
X30650Y63075
X20675Y41975
X20675Y34725
X20675Y27475
X109525Y38080
X109525Y41620
X109525Y44580
X109525Y48120
X116025Y48120
X116025Y44580
X116025Y41620
X116025Y38080
X121273Y41102
X123777Y38598
X127773Y38598
X130277Y41102
X129025Y44580
X129025Y48120
X122525Y48120
X122525Y44580
X127773Y34602
X130277Y32098
X129025Y28620
X129025Y25080
X122525Y25080
X122525Y28620
X116025Y28620
X116025Y25080
T14
X24275Y74225
X19525Y74225
T15
X43880Y68963
T16
X94275Y42725
X105650Y29475
X119025Y43100
X131650Y42725
T17
X129877Y20826
X94838Y20826
X129877Y81850
T18
X102189Y50100
X94709Y50100
T19
X98449Y50100
T20
X109525Y33350
M30
