G75*
G70*
%OFA0B0*%
%FSLAX24Y24*%
%IPPOS*%
%LPD*%
%AMOC8*
5,1,8,0,0,1.08239X$1,22.5*
%
%ADD10C,0.0060*%
%ADD11C,0.0030*%
%ADD12R,0.0390X0.0180*%
%ADD13R,0.0180X0.0390*%
%ADD14C,0.0040*%
%ADD15R,0.0571X0.0295*%
%ADD16C,0.0100*%
%ADD17R,0.0118X0.0827*%
%ADD18R,0.0140X0.0560*%
%ADD19R,0.0230X0.0720*%
%ADD20R,0.0560X0.0140*%
%ADD21C,0.0050*%
%ADD22R,0.0720X0.0230*%
%ADD23R,0.0295X0.0571*%
%ADD24C,0.0080*%
%ADD25R,0.0433X0.0193*%
%ADD26R,0.0150X0.1600*%
%ADD27R,0.0250X0.1600*%
%ADD28R,0.0500X0.0200*%
%ADD29R,0.0100X0.0050*%
%ADD30R,0.3150X0.0197*%
%ADD31R,0.0689X0.1772*%
%ADD32C,0.0160*%
%ADD33C,0.0217*%
%ADD34R,0.0689X0.0482*%
%ADD35R,0.0260X0.0260*%
%ADD36R,0.0295X0.0689*%
%ADD37R,0.0220X0.0680*%
%ADD38R,0.0240X0.0620*%
%ADD39R,0.0680X0.0220*%
%ADD40R,0.0620X0.0240*%
%ADD41C,0.0028*%
%ADD42R,0.0236X0.0709*%
%ADD43R,0.0236X0.0433*%
%ADD44C,0.0020*%
%ADD45R,0.1140X0.0340*%
%ADD46R,0.0300X0.0340*%
%ADD47C,0.0079*%
%ADD48R,0.0256X0.0551*%
%ADD49R,0.0295X0.1024*%
%ADD50R,0.0098X0.0531*%
%ADD51C,0.0120*%
%ADD52R,0.0200X0.0200*%
%ADD53R,0.0689X0.0295*%
%ADD54R,0.0050X0.0200*%
%ADD55R,0.0580X0.0200*%
%ADD56R,0.0404X0.0193*%
%ADD57R,0.0180X0.0230*%
%ADD58R,0.0669X0.0295*%
%ADD59R,0.0295X0.0669*%
%ADD60R,0.0400X0.0140*%
D10*
X032773Y022558D02*
X032773Y026001D01*
X035277Y026001D01*
X035277Y022558D01*
X035074Y022558D01*
X035074Y025962D01*
X036650Y025930D02*
X036650Y025370D01*
X037150Y025370D02*
X037150Y025930D01*
X033277Y026683D02*
X033277Y030126D01*
X030773Y030126D01*
X030773Y026683D01*
X033074Y026683D01*
X033074Y030087D01*
X033150Y033495D02*
X033150Y034055D01*
X032650Y034055D02*
X032650Y033495D01*
X032824Y035058D02*
X030523Y035058D01*
X030523Y038501D01*
X033027Y038501D01*
X033027Y035058D01*
X032824Y035058D01*
X032824Y038462D01*
X034620Y038025D02*
X035180Y038025D01*
X035180Y037525D02*
X034620Y037525D01*
X039994Y042119D02*
X042556Y042119D01*
X042556Y044542D01*
X042417Y044681D01*
X039994Y044681D01*
X039994Y042119D01*
X042116Y044382D02*
X042118Y044405D01*
X042124Y044428D01*
X042133Y044449D01*
X042146Y044469D01*
X042162Y044486D01*
X042180Y044500D01*
X042200Y044511D01*
X042222Y044519D01*
X042245Y044523D01*
X042269Y044523D01*
X042292Y044519D01*
X042314Y044511D01*
X042334Y044500D01*
X042352Y044486D01*
X042368Y044469D01*
X042381Y044449D01*
X042390Y044428D01*
X042396Y044405D01*
X042398Y044382D01*
X042396Y044359D01*
X042390Y044336D01*
X042381Y044315D01*
X042368Y044295D01*
X042352Y044278D01*
X042334Y044264D01*
X042314Y044253D01*
X042292Y044245D01*
X042269Y044241D01*
X042245Y044241D01*
X042222Y044245D01*
X042200Y044253D01*
X042180Y044264D01*
X042162Y044278D01*
X042146Y044295D01*
X042133Y044315D01*
X042124Y044336D01*
X042118Y044359D01*
X042116Y044382D01*
X054495Y035025D02*
X055055Y035025D01*
X055055Y034525D02*
X054495Y034525D01*
X056120Y034525D02*
X056680Y034525D01*
X056680Y035025D02*
X056120Y035025D01*
X058551Y034025D02*
X058874Y034025D01*
X058874Y033525D02*
X058551Y033525D01*
X057216Y032771D02*
X057218Y032812D01*
X057224Y032853D01*
X057234Y032893D01*
X057247Y032932D01*
X057264Y032970D01*
X057285Y033006D01*
X057309Y033039D01*
X057336Y033070D01*
X057366Y033099D01*
X057398Y033125D01*
X057433Y033147D01*
X057470Y033166D01*
X057508Y033181D01*
X057548Y033193D01*
X057588Y033201D01*
X057629Y033205D01*
X057671Y033205D01*
X057712Y033201D01*
X057752Y033193D01*
X057792Y033181D01*
X057830Y033166D01*
X057867Y033147D01*
X057902Y033125D01*
X057934Y033099D01*
X057964Y033070D01*
X057991Y033039D01*
X058015Y033006D01*
X058036Y032970D01*
X058053Y032932D01*
X058066Y032893D01*
X058076Y032853D01*
X058082Y032812D01*
X058084Y032771D01*
X058082Y032730D01*
X058076Y032689D01*
X058066Y032649D01*
X058053Y032610D01*
X058036Y032572D01*
X058015Y032536D01*
X057991Y032503D01*
X057964Y032472D01*
X057934Y032443D01*
X057902Y032417D01*
X057867Y032395D01*
X057830Y032376D01*
X057792Y032361D01*
X057752Y032349D01*
X057712Y032341D01*
X057671Y032337D01*
X057629Y032337D01*
X057588Y032341D01*
X057548Y032349D01*
X057508Y032361D01*
X057470Y032376D01*
X057433Y032395D01*
X057398Y032417D01*
X057366Y032443D01*
X057336Y032472D01*
X057309Y032503D01*
X057285Y032536D01*
X057264Y032572D01*
X057247Y032610D01*
X057234Y032649D01*
X057224Y032689D01*
X057218Y032730D01*
X057216Y032771D01*
X058575Y032230D02*
X059475Y032230D01*
X059475Y031570D02*
X058575Y031570D01*
X058775Y029805D02*
X058775Y029245D01*
X058275Y029245D02*
X058275Y029805D01*
X057216Y029021D02*
X057218Y029062D01*
X057224Y029103D01*
X057234Y029143D01*
X057247Y029182D01*
X057264Y029220D01*
X057285Y029256D01*
X057309Y029289D01*
X057336Y029320D01*
X057366Y029349D01*
X057398Y029375D01*
X057433Y029397D01*
X057470Y029416D01*
X057508Y029431D01*
X057548Y029443D01*
X057588Y029451D01*
X057629Y029455D01*
X057671Y029455D01*
X057712Y029451D01*
X057752Y029443D01*
X057792Y029431D01*
X057830Y029416D01*
X057867Y029397D01*
X057902Y029375D01*
X057934Y029349D01*
X057964Y029320D01*
X057991Y029289D01*
X058015Y029256D01*
X058036Y029220D01*
X058053Y029182D01*
X058066Y029143D01*
X058076Y029103D01*
X058082Y029062D01*
X058084Y029021D01*
X058082Y028980D01*
X058076Y028939D01*
X058066Y028899D01*
X058053Y028860D01*
X058036Y028822D01*
X058015Y028786D01*
X057991Y028753D01*
X057964Y028722D01*
X057934Y028693D01*
X057902Y028667D01*
X057867Y028645D01*
X057830Y028626D01*
X057792Y028611D01*
X057752Y028599D01*
X057712Y028591D01*
X057671Y028587D01*
X057629Y028587D01*
X057588Y028591D01*
X057548Y028599D01*
X057508Y028611D01*
X057470Y028626D01*
X057433Y028645D01*
X057398Y028667D01*
X057366Y028693D01*
X057336Y028722D01*
X057309Y028753D01*
X057285Y028786D01*
X057264Y028822D01*
X057247Y028860D01*
X057234Y028899D01*
X057224Y028939D01*
X057218Y028980D01*
X057216Y029021D01*
X057216Y027279D02*
X057218Y027320D01*
X057224Y027361D01*
X057234Y027401D01*
X057247Y027440D01*
X057264Y027478D01*
X057285Y027514D01*
X057309Y027547D01*
X057336Y027578D01*
X057366Y027607D01*
X057398Y027633D01*
X057433Y027655D01*
X057470Y027674D01*
X057508Y027689D01*
X057548Y027701D01*
X057588Y027709D01*
X057629Y027713D01*
X057671Y027713D01*
X057712Y027709D01*
X057752Y027701D01*
X057792Y027689D01*
X057830Y027674D01*
X057867Y027655D01*
X057902Y027633D01*
X057934Y027607D01*
X057964Y027578D01*
X057991Y027547D01*
X058015Y027514D01*
X058036Y027478D01*
X058053Y027440D01*
X058066Y027401D01*
X058076Y027361D01*
X058082Y027320D01*
X058084Y027279D01*
X058082Y027238D01*
X058076Y027197D01*
X058066Y027157D01*
X058053Y027118D01*
X058036Y027080D01*
X058015Y027044D01*
X057991Y027011D01*
X057964Y026980D01*
X057934Y026951D01*
X057902Y026925D01*
X057867Y026903D01*
X057830Y026884D01*
X057792Y026869D01*
X057752Y026857D01*
X057712Y026849D01*
X057671Y026845D01*
X057629Y026845D01*
X057588Y026849D01*
X057548Y026857D01*
X057508Y026869D01*
X057470Y026884D01*
X057433Y026903D01*
X057398Y026925D01*
X057366Y026951D01*
X057336Y026980D01*
X057309Y027011D01*
X057285Y027044D01*
X057264Y027080D01*
X057247Y027118D01*
X057234Y027157D01*
X057224Y027197D01*
X057218Y027238D01*
X057216Y027279D01*
X056525Y026930D02*
X056525Y026370D01*
X056025Y026370D02*
X056025Y026930D01*
X053216Y028521D02*
X053218Y028562D01*
X053224Y028603D01*
X053234Y028643D01*
X053247Y028682D01*
X053264Y028720D01*
X053285Y028756D01*
X053309Y028789D01*
X053336Y028820D01*
X053366Y028849D01*
X053398Y028875D01*
X053433Y028897D01*
X053470Y028916D01*
X053508Y028931D01*
X053548Y028943D01*
X053588Y028951D01*
X053629Y028955D01*
X053671Y028955D01*
X053712Y028951D01*
X053752Y028943D01*
X053792Y028931D01*
X053830Y028916D01*
X053867Y028897D01*
X053902Y028875D01*
X053934Y028849D01*
X053964Y028820D01*
X053991Y028789D01*
X054015Y028756D01*
X054036Y028720D01*
X054053Y028682D01*
X054066Y028643D01*
X054076Y028603D01*
X054082Y028562D01*
X054084Y028521D01*
X054082Y028480D01*
X054076Y028439D01*
X054066Y028399D01*
X054053Y028360D01*
X054036Y028322D01*
X054015Y028286D01*
X053991Y028253D01*
X053964Y028222D01*
X053934Y028193D01*
X053902Y028167D01*
X053867Y028145D01*
X053830Y028126D01*
X053792Y028111D01*
X053752Y028099D01*
X053712Y028091D01*
X053671Y028087D01*
X053629Y028087D01*
X053588Y028091D01*
X053548Y028099D01*
X053508Y028111D01*
X053470Y028126D01*
X053433Y028145D01*
X053398Y028167D01*
X053366Y028193D01*
X053336Y028222D01*
X053309Y028253D01*
X053285Y028286D01*
X053264Y028322D01*
X053247Y028360D01*
X053234Y028399D01*
X053224Y028439D01*
X053218Y028480D01*
X053216Y028521D01*
X053025Y029870D02*
X053025Y030430D01*
X052525Y030430D02*
X052525Y029870D01*
X052495Y031400D02*
X053055Y031400D01*
X053055Y031900D02*
X052495Y031900D01*
X052489Y033025D02*
X052811Y033025D01*
X052811Y033525D02*
X052489Y033525D01*
X053216Y032271D02*
X053218Y032312D01*
X053224Y032353D01*
X053234Y032393D01*
X053247Y032432D01*
X053264Y032470D01*
X053285Y032506D01*
X053309Y032539D01*
X053336Y032570D01*
X053366Y032599D01*
X053398Y032625D01*
X053433Y032647D01*
X053470Y032666D01*
X053508Y032681D01*
X053548Y032693D01*
X053588Y032701D01*
X053629Y032705D01*
X053671Y032705D01*
X053712Y032701D01*
X053752Y032693D01*
X053792Y032681D01*
X053830Y032666D01*
X053867Y032647D01*
X053902Y032625D01*
X053934Y032599D01*
X053964Y032570D01*
X053991Y032539D01*
X054015Y032506D01*
X054036Y032470D01*
X054053Y032432D01*
X054066Y032393D01*
X054076Y032353D01*
X054082Y032312D01*
X054084Y032271D01*
X054082Y032230D01*
X054076Y032189D01*
X054066Y032149D01*
X054053Y032110D01*
X054036Y032072D01*
X054015Y032036D01*
X053991Y032003D01*
X053964Y031972D01*
X053934Y031943D01*
X053902Y031917D01*
X053867Y031895D01*
X053830Y031876D01*
X053792Y031861D01*
X053752Y031849D01*
X053712Y031841D01*
X053671Y031837D01*
X053629Y031837D01*
X053588Y031841D01*
X053548Y031849D01*
X053508Y031861D01*
X053470Y031876D01*
X053433Y031895D01*
X053398Y031917D01*
X053366Y031943D01*
X053336Y031972D01*
X053309Y032003D01*
X053285Y032036D01*
X053264Y032072D01*
X053247Y032110D01*
X053234Y032149D01*
X053224Y032189D01*
X053218Y032230D01*
X053216Y032271D01*
X045543Y027663D02*
X045543Y026763D01*
X044883Y026763D02*
X044883Y027663D01*
X044525Y025055D02*
X044525Y024495D01*
X044025Y024495D02*
X044025Y025055D01*
X046600Y022925D02*
X047700Y022925D01*
X047717Y022923D01*
X047734Y022919D01*
X047750Y022912D01*
X047764Y022902D01*
X047777Y022889D01*
X047787Y022875D01*
X047794Y022859D01*
X047798Y022842D01*
X047800Y022825D01*
X047800Y022225D01*
X047798Y022208D01*
X047794Y022191D01*
X047787Y022175D01*
X047777Y022161D01*
X047764Y022148D01*
X047750Y022138D01*
X047734Y022131D01*
X047717Y022127D01*
X047700Y022125D01*
X046600Y022125D01*
X046583Y022127D01*
X046566Y022131D01*
X046550Y022138D01*
X046536Y022148D01*
X046523Y022161D01*
X046513Y022175D01*
X046506Y022191D01*
X046502Y022208D01*
X046500Y022225D01*
X046500Y022825D01*
X046502Y022842D01*
X046506Y022859D01*
X046513Y022875D01*
X046523Y022889D01*
X046536Y022902D01*
X046550Y022912D01*
X046566Y022919D01*
X046583Y022923D01*
X046600Y022925D01*
X046550Y022525D02*
X046750Y022525D01*
X047550Y022525D02*
X047750Y022525D01*
X049025Y020930D02*
X049025Y020370D01*
X049525Y020370D02*
X049525Y020930D01*
X050025Y020180D02*
X050025Y019620D01*
X050525Y019620D02*
X050525Y020180D01*
X050200Y017300D02*
X049100Y017300D01*
X049083Y017298D01*
X049066Y017294D01*
X049050Y017287D01*
X049036Y017277D01*
X049023Y017264D01*
X049013Y017250D01*
X049006Y017234D01*
X049002Y017217D01*
X049000Y017200D01*
X049000Y016600D01*
X049002Y016583D01*
X049006Y016566D01*
X049013Y016550D01*
X049023Y016536D01*
X049036Y016523D01*
X049050Y016513D01*
X049066Y016506D01*
X049083Y016502D01*
X049100Y016500D01*
X050200Y016500D01*
X050217Y016502D01*
X050234Y016506D01*
X050250Y016513D01*
X050264Y016523D01*
X050277Y016536D01*
X050287Y016550D01*
X050294Y016566D01*
X050298Y016583D01*
X050300Y016600D01*
X050300Y017200D01*
X050298Y017217D01*
X050294Y017234D01*
X050287Y017250D01*
X050277Y017264D01*
X050264Y017277D01*
X050250Y017287D01*
X050234Y017294D01*
X050217Y017298D01*
X050200Y017300D01*
X050250Y016900D02*
X050050Y016900D01*
X049250Y016900D02*
X049050Y016900D01*
X055620Y021900D02*
X056180Y021900D01*
X056180Y022400D02*
X055620Y022400D01*
X057630Y022715D02*
X058670Y022715D01*
X058670Y023335D02*
X057630Y023335D01*
X057505Y023965D02*
X058545Y023965D01*
X058545Y024585D02*
X057505Y024585D01*
X061750Y021950D02*
X061750Y020850D01*
X061752Y020833D01*
X061756Y020816D01*
X061763Y020800D01*
X061773Y020786D01*
X061786Y020773D01*
X061800Y020763D01*
X061816Y020756D01*
X061833Y020752D01*
X061850Y020750D01*
X062450Y020750D01*
X062467Y020752D01*
X062484Y020756D01*
X062500Y020763D01*
X062514Y020773D01*
X062527Y020786D01*
X062537Y020800D01*
X062544Y020816D01*
X062548Y020833D01*
X062550Y020850D01*
X062550Y021950D01*
X062548Y021967D01*
X062544Y021984D01*
X062537Y022000D01*
X062527Y022014D01*
X062514Y022027D01*
X062500Y022037D01*
X062484Y022044D01*
X062467Y022048D01*
X062450Y022050D01*
X061850Y022050D01*
X061833Y022048D01*
X061816Y022044D01*
X061800Y022037D01*
X061786Y022027D01*
X061773Y022014D01*
X061763Y022000D01*
X061756Y021984D01*
X061752Y021967D01*
X061750Y021950D01*
X062150Y022000D02*
X062150Y021800D01*
X062150Y021000D02*
X062150Y020800D01*
X061550Y020325D02*
X061550Y019225D01*
X061548Y019208D01*
X061544Y019191D01*
X061537Y019175D01*
X061527Y019161D01*
X061514Y019148D01*
X061500Y019138D01*
X061484Y019131D01*
X061467Y019127D01*
X061450Y019125D01*
X060850Y019125D01*
X060833Y019127D01*
X060816Y019131D01*
X060800Y019138D01*
X060786Y019148D01*
X060773Y019161D01*
X060763Y019175D01*
X060756Y019191D01*
X060752Y019208D01*
X060750Y019225D01*
X060750Y020325D01*
X060752Y020342D01*
X060756Y020359D01*
X060763Y020375D01*
X060773Y020389D01*
X060786Y020402D01*
X060800Y020412D01*
X060816Y020419D01*
X060833Y020423D01*
X060850Y020425D01*
X061450Y020425D01*
X061467Y020423D01*
X061484Y020419D01*
X061500Y020412D01*
X061514Y020402D01*
X061527Y020389D01*
X061537Y020375D01*
X061544Y020359D01*
X061548Y020342D01*
X061550Y020325D01*
X061150Y020375D02*
X061150Y020175D01*
X061150Y019375D02*
X061150Y019175D01*
X060340Y018250D02*
X060340Y017541D01*
X059710Y017541D02*
X059710Y018250D01*
X059230Y018325D02*
X059230Y019225D01*
X058570Y019225D02*
X058570Y018325D01*
X063465Y020755D02*
X063465Y021795D01*
X064085Y021795D02*
X064085Y020755D01*
X065840Y019295D02*
X065840Y018255D01*
X066460Y018255D02*
X066460Y019295D01*
X067215Y018920D02*
X067215Y017880D01*
X067835Y017880D02*
X067835Y018920D01*
X067870Y019900D02*
X068430Y019900D01*
X068430Y020400D02*
X067870Y020400D01*
X067965Y022130D02*
X067965Y023170D01*
X068585Y023170D02*
X068585Y022130D01*
X071029Y024709D02*
X071031Y024750D01*
X071037Y024791D01*
X071047Y024831D01*
X071060Y024870D01*
X071077Y024908D01*
X071098Y024944D01*
X071122Y024977D01*
X071149Y025008D01*
X071179Y025037D01*
X071211Y025063D01*
X071246Y025085D01*
X071283Y025104D01*
X071321Y025119D01*
X071361Y025131D01*
X071401Y025139D01*
X071442Y025143D01*
X071484Y025143D01*
X071525Y025139D01*
X071565Y025131D01*
X071605Y025119D01*
X071643Y025104D01*
X071680Y025085D01*
X071715Y025063D01*
X071747Y025037D01*
X071777Y025008D01*
X071804Y024977D01*
X071828Y024944D01*
X071849Y024908D01*
X071866Y024870D01*
X071879Y024831D01*
X071889Y024791D01*
X071895Y024750D01*
X071897Y024709D01*
X071895Y024668D01*
X071889Y024627D01*
X071879Y024587D01*
X071866Y024548D01*
X071849Y024510D01*
X071828Y024474D01*
X071804Y024441D01*
X071777Y024410D01*
X071747Y024381D01*
X071715Y024355D01*
X071680Y024333D01*
X071643Y024314D01*
X071605Y024299D01*
X071565Y024287D01*
X071525Y024279D01*
X071484Y024275D01*
X071442Y024275D01*
X071401Y024279D01*
X071361Y024287D01*
X071321Y024299D01*
X071283Y024314D01*
X071246Y024333D01*
X071211Y024355D01*
X071179Y024381D01*
X071149Y024410D01*
X071122Y024441D01*
X071098Y024474D01*
X071077Y024510D01*
X071060Y024548D01*
X071047Y024587D01*
X071037Y024627D01*
X071031Y024668D01*
X071029Y024709D01*
X075683Y024838D02*
X076243Y024838D01*
X076243Y025338D02*
X075683Y025338D01*
X079058Y025338D02*
X079618Y025338D01*
X079618Y024838D02*
X079058Y024838D01*
X077668Y028388D02*
X077668Y029288D01*
X077588Y029433D02*
X077588Y029993D01*
X078088Y029993D02*
X078088Y029433D01*
X077008Y029288D02*
X077008Y028388D01*
X075213Y030683D02*
X075213Y031243D01*
X074713Y031243D02*
X074713Y030683D01*
X071154Y028584D02*
X071156Y028625D01*
X071162Y028666D01*
X071172Y028706D01*
X071185Y028745D01*
X071202Y028783D01*
X071223Y028819D01*
X071247Y028852D01*
X071274Y028883D01*
X071304Y028912D01*
X071336Y028938D01*
X071371Y028960D01*
X071408Y028979D01*
X071446Y028994D01*
X071486Y029006D01*
X071526Y029014D01*
X071567Y029018D01*
X071609Y029018D01*
X071650Y029014D01*
X071690Y029006D01*
X071730Y028994D01*
X071768Y028979D01*
X071805Y028960D01*
X071840Y028938D01*
X071872Y028912D01*
X071902Y028883D01*
X071929Y028852D01*
X071953Y028819D01*
X071974Y028783D01*
X071991Y028745D01*
X072004Y028706D01*
X072014Y028666D01*
X072020Y028625D01*
X072022Y028584D01*
X072020Y028543D01*
X072014Y028502D01*
X072004Y028462D01*
X071991Y028423D01*
X071974Y028385D01*
X071953Y028349D01*
X071929Y028316D01*
X071902Y028285D01*
X071872Y028256D01*
X071840Y028230D01*
X071805Y028208D01*
X071768Y028189D01*
X071730Y028174D01*
X071690Y028162D01*
X071650Y028154D01*
X071609Y028150D01*
X071567Y028150D01*
X071526Y028154D01*
X071486Y028162D01*
X071446Y028174D01*
X071408Y028189D01*
X071371Y028208D01*
X071336Y028230D01*
X071304Y028256D01*
X071274Y028285D01*
X071247Y028316D01*
X071223Y028349D01*
X071202Y028385D01*
X071185Y028423D01*
X071172Y028462D01*
X071162Y028502D01*
X071156Y028543D01*
X071154Y028584D01*
X069588Y028683D02*
X069588Y029243D01*
X069088Y029243D02*
X069088Y028683D01*
X065966Y028521D02*
X065968Y028562D01*
X065974Y028603D01*
X065984Y028643D01*
X065997Y028682D01*
X066014Y028720D01*
X066035Y028756D01*
X066059Y028789D01*
X066086Y028820D01*
X066116Y028849D01*
X066148Y028875D01*
X066183Y028897D01*
X066220Y028916D01*
X066258Y028931D01*
X066298Y028943D01*
X066338Y028951D01*
X066379Y028955D01*
X066421Y028955D01*
X066462Y028951D01*
X066502Y028943D01*
X066542Y028931D01*
X066580Y028916D01*
X066617Y028897D01*
X066652Y028875D01*
X066684Y028849D01*
X066714Y028820D01*
X066741Y028789D01*
X066765Y028756D01*
X066786Y028720D01*
X066803Y028682D01*
X066816Y028643D01*
X066826Y028603D01*
X066832Y028562D01*
X066834Y028521D01*
X066832Y028480D01*
X066826Y028439D01*
X066816Y028399D01*
X066803Y028360D01*
X066786Y028322D01*
X066765Y028286D01*
X066741Y028253D01*
X066714Y028222D01*
X066684Y028193D01*
X066652Y028167D01*
X066617Y028145D01*
X066580Y028126D01*
X066542Y028111D01*
X066502Y028099D01*
X066462Y028091D01*
X066421Y028087D01*
X066379Y028087D01*
X066338Y028091D01*
X066298Y028099D01*
X066258Y028111D01*
X066220Y028126D01*
X066183Y028145D01*
X066148Y028167D01*
X066116Y028193D01*
X066086Y028222D01*
X066059Y028253D01*
X066035Y028286D01*
X066014Y028322D01*
X065997Y028360D01*
X065984Y028399D01*
X065974Y028439D01*
X065968Y028480D01*
X065966Y028521D01*
X065966Y026779D02*
X065968Y026820D01*
X065974Y026861D01*
X065984Y026901D01*
X065997Y026940D01*
X066014Y026978D01*
X066035Y027014D01*
X066059Y027047D01*
X066086Y027078D01*
X066116Y027107D01*
X066148Y027133D01*
X066183Y027155D01*
X066220Y027174D01*
X066258Y027189D01*
X066298Y027201D01*
X066338Y027209D01*
X066379Y027213D01*
X066421Y027213D01*
X066462Y027209D01*
X066502Y027201D01*
X066542Y027189D01*
X066580Y027174D01*
X066617Y027155D01*
X066652Y027133D01*
X066684Y027107D01*
X066714Y027078D01*
X066741Y027047D01*
X066765Y027014D01*
X066786Y026978D01*
X066803Y026940D01*
X066816Y026901D01*
X066826Y026861D01*
X066832Y026820D01*
X066834Y026779D01*
X066832Y026738D01*
X066826Y026697D01*
X066816Y026657D01*
X066803Y026618D01*
X066786Y026580D01*
X066765Y026544D01*
X066741Y026511D01*
X066714Y026480D01*
X066684Y026451D01*
X066652Y026425D01*
X066617Y026403D01*
X066580Y026384D01*
X066542Y026369D01*
X066502Y026357D01*
X066462Y026349D01*
X066421Y026345D01*
X066379Y026345D01*
X066338Y026349D01*
X066298Y026357D01*
X066258Y026369D01*
X066220Y026384D01*
X066183Y026403D01*
X066148Y026425D01*
X066116Y026451D01*
X066086Y026480D01*
X066059Y026511D01*
X066035Y026544D01*
X066014Y026580D01*
X065997Y026618D01*
X065984Y026657D01*
X065974Y026697D01*
X065968Y026738D01*
X065966Y026779D01*
X065966Y032271D02*
X065968Y032312D01*
X065974Y032353D01*
X065984Y032393D01*
X065997Y032432D01*
X066014Y032470D01*
X066035Y032506D01*
X066059Y032539D01*
X066086Y032570D01*
X066116Y032599D01*
X066148Y032625D01*
X066183Y032647D01*
X066220Y032666D01*
X066258Y032681D01*
X066298Y032693D01*
X066338Y032701D01*
X066379Y032705D01*
X066421Y032705D01*
X066462Y032701D01*
X066502Y032693D01*
X066542Y032681D01*
X066580Y032666D01*
X066617Y032647D01*
X066652Y032625D01*
X066684Y032599D01*
X066714Y032570D01*
X066741Y032539D01*
X066765Y032506D01*
X066786Y032470D01*
X066803Y032432D01*
X066816Y032393D01*
X066826Y032353D01*
X066832Y032312D01*
X066834Y032271D01*
X066832Y032230D01*
X066826Y032189D01*
X066816Y032149D01*
X066803Y032110D01*
X066786Y032072D01*
X066765Y032036D01*
X066741Y032003D01*
X066714Y031972D01*
X066684Y031943D01*
X066652Y031917D01*
X066617Y031895D01*
X066580Y031876D01*
X066542Y031861D01*
X066502Y031849D01*
X066462Y031841D01*
X066421Y031837D01*
X066379Y031837D01*
X066338Y031841D01*
X066298Y031849D01*
X066258Y031861D01*
X066220Y031876D01*
X066183Y031895D01*
X066148Y031917D01*
X066116Y031943D01*
X066086Y031972D01*
X066059Y032003D01*
X066035Y032036D01*
X066014Y032072D01*
X065997Y032110D01*
X065984Y032149D01*
X065974Y032189D01*
X065968Y032230D01*
X065966Y032271D01*
X065493Y033088D02*
X064933Y033088D01*
X064933Y033588D02*
X065493Y033588D01*
X068263Y034695D02*
X069163Y034695D01*
X069163Y035355D02*
X068263Y035355D01*
X070904Y032459D02*
X070906Y032500D01*
X070912Y032541D01*
X070922Y032581D01*
X070935Y032620D01*
X070952Y032658D01*
X070973Y032694D01*
X070997Y032727D01*
X071024Y032758D01*
X071054Y032787D01*
X071086Y032813D01*
X071121Y032835D01*
X071158Y032854D01*
X071196Y032869D01*
X071236Y032881D01*
X071276Y032889D01*
X071317Y032893D01*
X071359Y032893D01*
X071400Y032889D01*
X071440Y032881D01*
X071480Y032869D01*
X071518Y032854D01*
X071555Y032835D01*
X071590Y032813D01*
X071622Y032787D01*
X071652Y032758D01*
X071679Y032727D01*
X071703Y032694D01*
X071724Y032658D01*
X071741Y032620D01*
X071754Y032581D01*
X071764Y032541D01*
X071770Y032500D01*
X071772Y032459D01*
X071770Y032418D01*
X071764Y032377D01*
X071754Y032337D01*
X071741Y032298D01*
X071724Y032260D01*
X071703Y032224D01*
X071679Y032191D01*
X071652Y032160D01*
X071622Y032131D01*
X071590Y032105D01*
X071555Y032083D01*
X071518Y032064D01*
X071480Y032049D01*
X071440Y032037D01*
X071400Y032029D01*
X071359Y032025D01*
X071317Y032025D01*
X071276Y032029D01*
X071236Y032037D01*
X071196Y032049D01*
X071158Y032064D01*
X071121Y032083D01*
X071086Y032105D01*
X071054Y032131D01*
X071024Y032160D01*
X070997Y032191D01*
X070973Y032224D01*
X070952Y032260D01*
X070935Y032298D01*
X070922Y032337D01*
X070912Y032377D01*
X070906Y032418D01*
X070904Y032459D01*
X072758Y033263D02*
X072758Y034163D01*
X073418Y034163D02*
X073418Y033263D01*
X075525Y033120D02*
X075525Y033680D01*
X076025Y033680D02*
X076025Y033120D01*
X096960Y035666D02*
X096960Y036375D01*
X097590Y036375D02*
X097590Y035666D01*
X098085Y035666D02*
X098085Y036375D01*
X098715Y036375D02*
X098715Y035666D01*
X101335Y038675D02*
X101335Y039384D01*
X101965Y039384D02*
X101965Y038675D01*
X103750Y040100D02*
X103750Y041200D01*
X103752Y041217D01*
X103756Y041234D01*
X103763Y041250D01*
X103773Y041264D01*
X103786Y041277D01*
X103800Y041287D01*
X103816Y041294D01*
X103833Y041298D01*
X103850Y041300D01*
X104450Y041300D01*
X104467Y041298D01*
X104484Y041294D01*
X104500Y041287D01*
X104514Y041277D01*
X104527Y041264D01*
X104537Y041250D01*
X104544Y041234D01*
X104548Y041217D01*
X104550Y041200D01*
X104550Y040100D01*
X104548Y040083D01*
X104544Y040066D01*
X104537Y040050D01*
X104527Y040036D01*
X104514Y040023D01*
X104500Y040013D01*
X104484Y040006D01*
X104467Y040002D01*
X104450Y040000D01*
X103850Y040000D01*
X103833Y040002D01*
X103816Y040006D01*
X103800Y040013D01*
X103786Y040023D01*
X103773Y040036D01*
X103763Y040050D01*
X103756Y040066D01*
X103752Y040083D01*
X103750Y040100D01*
X104150Y040050D02*
X104150Y040250D01*
X104150Y041050D02*
X104150Y041250D01*
X104100Y042500D02*
X104700Y042500D01*
X104717Y042502D01*
X104734Y042506D01*
X104750Y042513D01*
X104764Y042523D01*
X104777Y042536D01*
X104787Y042550D01*
X104794Y042566D01*
X104798Y042583D01*
X104800Y042600D01*
X104800Y043700D01*
X104798Y043717D01*
X104794Y043734D01*
X104787Y043750D01*
X104777Y043764D01*
X104764Y043777D01*
X104750Y043787D01*
X104734Y043794D01*
X104717Y043798D01*
X104700Y043800D01*
X104100Y043800D01*
X104083Y043798D01*
X104066Y043794D01*
X104050Y043787D01*
X104036Y043777D01*
X104023Y043764D01*
X104013Y043750D01*
X104006Y043734D01*
X104002Y043717D01*
X104000Y043700D01*
X104000Y042600D01*
X104002Y042583D01*
X104006Y042566D01*
X104013Y042550D01*
X104023Y042536D01*
X104036Y042523D01*
X104050Y042513D01*
X104066Y042506D01*
X104083Y042502D01*
X104100Y042500D01*
X104400Y042550D02*
X104400Y042750D01*
X104400Y043550D02*
X104400Y043750D01*
X104150Y044245D02*
X104150Y044805D01*
X104650Y044805D02*
X104650Y044245D01*
X101025Y044150D02*
X101025Y043650D01*
X100775Y043400D01*
X101025Y043150D01*
X101025Y042650D01*
X100775Y042400D01*
X101025Y042150D01*
X101025Y041650D01*
X100775Y041400D01*
X099275Y041400D01*
X099025Y041650D01*
X099025Y042150D01*
X099275Y042400D01*
X099025Y042650D01*
X099025Y043150D01*
X099275Y043400D01*
X099025Y043650D01*
X099025Y044150D01*
X099275Y044400D01*
X100775Y044400D01*
X101025Y044150D01*
X106813Y040450D02*
X106813Y039350D01*
X106815Y039333D01*
X106819Y039316D01*
X106826Y039300D01*
X106836Y039286D01*
X106849Y039273D01*
X106863Y039263D01*
X106879Y039256D01*
X106896Y039252D01*
X106913Y039250D01*
X107513Y039250D01*
X107530Y039252D01*
X107547Y039256D01*
X107563Y039263D01*
X107577Y039273D01*
X107590Y039286D01*
X107600Y039300D01*
X107607Y039316D01*
X107611Y039333D01*
X107613Y039350D01*
X107613Y040450D01*
X107611Y040467D01*
X107607Y040484D01*
X107600Y040500D01*
X107590Y040514D01*
X107577Y040527D01*
X107563Y040537D01*
X107547Y040544D01*
X107530Y040548D01*
X107513Y040550D01*
X106913Y040550D01*
X106896Y040548D01*
X106879Y040544D01*
X106863Y040537D01*
X106849Y040527D01*
X106836Y040514D01*
X106826Y040500D01*
X106819Y040484D01*
X106815Y040467D01*
X106813Y040450D01*
X107213Y040500D02*
X107213Y040300D01*
X107213Y039500D02*
X107213Y039300D01*
X108505Y042653D02*
X109545Y042653D01*
X109545Y043273D02*
X108505Y043273D01*
X113166Y043585D02*
X113875Y043585D01*
X113875Y044215D02*
X113166Y044215D01*
X115585Y048416D02*
X115585Y049125D01*
X116215Y049125D02*
X116215Y048416D01*
X122590Y046045D02*
X122590Y045005D01*
X123210Y045005D02*
X123210Y046045D01*
X120545Y039960D02*
X119505Y039960D01*
X119505Y039340D02*
X120545Y039340D01*
X118710Y035920D02*
X118710Y034880D01*
X118090Y034880D02*
X118090Y035920D01*
X127926Y034275D02*
X128249Y034275D01*
X128249Y033775D02*
X127926Y033775D01*
X129245Y033775D02*
X129805Y033775D01*
X129805Y034275D02*
X129245Y034275D01*
X131175Y036335D02*
X131884Y036335D01*
X131884Y036965D02*
X131175Y036965D01*
X129900Y038650D02*
X129400Y038650D01*
X129150Y038900D01*
X128900Y038650D01*
X128400Y038650D01*
X128150Y038900D01*
X128150Y040400D01*
X128400Y040650D01*
X128900Y040650D01*
X129150Y040400D01*
X129400Y040650D01*
X129900Y040650D01*
X130150Y040400D01*
X130150Y038900D01*
X129900Y038650D01*
X135465Y034670D02*
X135465Y033630D01*
X136085Y033630D02*
X136085Y034670D01*
X127780Y027770D02*
X126740Y027770D01*
X126740Y027150D02*
X127780Y027150D01*
X119170Y024585D02*
X118130Y024585D01*
X118130Y023965D02*
X119170Y023965D01*
X119170Y023585D02*
X118130Y023585D01*
X118130Y022965D02*
X119170Y022965D01*
X116923Y025938D02*
X116188Y026673D01*
X116627Y027112D02*
X117362Y026377D01*
X098465Y028800D02*
X098465Y029509D01*
X097835Y029509D02*
X097835Y028800D01*
X134005Y046465D02*
X135045Y046465D01*
X135045Y047085D02*
X134005Y047085D01*
X135325Y056475D02*
X138725Y056475D01*
X138725Y063575D01*
X135325Y063575D01*
X135325Y056475D01*
X137025Y057525D02*
X137025Y058025D01*
X137025Y058375D02*
X137025Y062525D01*
X136895Y064525D02*
X137227Y064525D01*
X136895Y064525D02*
X136895Y066145D01*
X137078Y066525D02*
X136895Y066895D01*
X136895Y068525D01*
X137227Y068525D01*
X136145Y068525D02*
X135843Y068525D01*
X136145Y068525D02*
X136145Y066895D01*
X136131Y066923D02*
X135934Y066529D01*
X135836Y066529D01*
X135675Y066525D02*
X135425Y066525D01*
X136145Y066145D02*
X136145Y064525D01*
X135843Y064525D01*
X134085Y063985D02*
X134085Y075505D01*
X139005Y075505D01*
X139005Y063985D01*
X134085Y063985D01*
X133550Y066525D02*
X133250Y066525D01*
X133250Y066475D01*
X133050Y066475D01*
X133050Y066525D01*
X132750Y066525D01*
X132750Y066575D01*
X132550Y066575D01*
X132550Y066525D01*
X132250Y066525D01*
X132250Y066475D01*
X132050Y066475D01*
X132050Y066525D01*
X131750Y066525D01*
X131750Y066825D01*
X131750Y068125D01*
X131750Y068225D01*
X131900Y068225D01*
X131900Y068125D01*
X131750Y068125D01*
X131750Y068225D02*
X131750Y068425D01*
X132550Y068425D01*
X132550Y068375D01*
X132750Y068375D01*
X132750Y068425D01*
X133550Y068425D01*
X133550Y068225D01*
X133550Y068125D01*
X133400Y068125D01*
X133400Y068225D01*
X132900Y068225D01*
X132900Y068125D01*
X132750Y068125D01*
X132550Y068125D01*
X132550Y066875D01*
X132650Y066975D01*
X132750Y066875D01*
X132750Y068125D01*
X132900Y068225D02*
X132400Y068225D01*
X132400Y068125D01*
X132550Y068125D01*
X132400Y068225D02*
X131900Y068225D01*
X131025Y068900D02*
X129925Y070000D01*
X129525Y070400D01*
X130025Y070400D01*
X130275Y070150D01*
X131025Y069400D01*
X131025Y068900D01*
X130525Y068400D01*
X130025Y068400D01*
X129775Y068650D01*
X129025Y069400D01*
X129025Y069900D01*
X129525Y070400D01*
X129025Y069900D02*
X130125Y068800D01*
X130525Y068400D01*
X131750Y066825D02*
X132500Y066825D01*
X132550Y066875D01*
X132750Y066875D02*
X132800Y066825D01*
X133550Y066825D01*
X133550Y068125D01*
X133550Y068225D02*
X133400Y068225D01*
X133550Y066825D02*
X133550Y066525D01*
X137078Y066525D02*
X137178Y066525D01*
X137375Y066525D02*
X137625Y066525D01*
X128500Y066725D02*
X128500Y067025D01*
X128500Y068325D01*
X128400Y068325D02*
X128400Y067025D01*
X128400Y066725D01*
X128400Y067025D02*
X128500Y067025D01*
X127856Y066525D02*
X126598Y066525D01*
X126598Y066075D01*
X127856Y066075D01*
X127856Y066525D01*
X126250Y067525D02*
X125450Y067525D01*
X122850Y067525D01*
X122050Y067525D01*
X121702Y068525D02*
X120444Y068525D01*
X120444Y068975D01*
X121702Y068975D01*
X121702Y068525D01*
X121702Y070075D02*
X120444Y070075D01*
X120444Y070525D01*
X121702Y070525D01*
X121702Y070075D01*
X119900Y070725D02*
X119900Y072025D01*
X119900Y072325D01*
X119800Y072325D02*
X119800Y072025D01*
X119800Y070725D01*
X119800Y072025D02*
X119900Y072025D01*
X120444Y072525D02*
X120444Y072975D01*
X121702Y072975D01*
X121702Y072525D01*
X120444Y072525D01*
X122050Y071525D02*
X122850Y071525D01*
X125450Y071525D01*
X126250Y071525D01*
X126598Y070525D02*
X126598Y070075D01*
X127856Y070075D01*
X127856Y070525D01*
X126598Y070525D01*
X128400Y070725D02*
X128400Y071025D01*
X128400Y072325D01*
X128500Y072325D02*
X128500Y071025D01*
X128400Y071025D01*
X128500Y071025D02*
X128500Y070725D01*
X127856Y068975D02*
X126598Y068975D01*
X126598Y068525D01*
X127856Y068525D01*
X127856Y068975D01*
X123275Y065775D02*
X123175Y065775D01*
X120575Y065775D01*
X120575Y065125D01*
X120575Y064425D01*
X120575Y063125D01*
X120575Y062425D01*
X120575Y061775D01*
X119625Y061775D01*
X119625Y065775D01*
X120575Y065775D01*
X120444Y066075D02*
X120444Y066525D01*
X121702Y066525D01*
X121702Y066075D01*
X120444Y066075D01*
X119900Y066725D02*
X119900Y068025D01*
X119900Y068325D01*
X119800Y068325D02*
X119800Y068025D01*
X119800Y066725D01*
X119800Y068025D02*
X119900Y068025D01*
X123175Y065775D02*
X123175Y061775D01*
X123275Y061775D01*
X123275Y065775D01*
X122445Y064775D02*
X122447Y064803D01*
X122453Y064830D01*
X122462Y064856D01*
X122475Y064881D01*
X122492Y064904D01*
X122511Y064924D01*
X122533Y064941D01*
X122557Y064955D01*
X122583Y064965D01*
X122610Y064972D01*
X122638Y064975D01*
X122666Y064974D01*
X122693Y064969D01*
X122720Y064960D01*
X122745Y064948D01*
X122768Y064933D01*
X122789Y064914D01*
X122807Y064893D01*
X122822Y064869D01*
X122833Y064843D01*
X122841Y064817D01*
X122845Y064789D01*
X122845Y064761D01*
X122841Y064733D01*
X122833Y064707D01*
X122822Y064681D01*
X122807Y064657D01*
X122789Y064636D01*
X122768Y064617D01*
X122745Y064602D01*
X122720Y064590D01*
X122693Y064581D01*
X122666Y064576D01*
X122638Y064575D01*
X122610Y064578D01*
X122583Y064585D01*
X122557Y064595D01*
X122533Y064609D01*
X122511Y064626D01*
X122492Y064646D01*
X122475Y064669D01*
X122462Y064694D01*
X122453Y064720D01*
X122447Y064747D01*
X122445Y064775D01*
X123325Y064450D02*
X126725Y064450D01*
X126725Y057350D01*
X123325Y057350D01*
X123325Y064450D01*
X124255Y063470D02*
X124745Y063150D01*
X124745Y063470D02*
X124255Y063150D01*
X125025Y063400D02*
X125025Y062900D01*
X125025Y062550D02*
X125025Y058400D01*
X123275Y057775D02*
X123275Y061775D01*
X123175Y061775D01*
X120575Y061775D01*
X123175Y061775D01*
X123175Y057775D01*
X123275Y057775D01*
X123175Y057775D02*
X120575Y057775D01*
X119625Y057775D01*
X119625Y061775D01*
X120575Y061775D01*
X120575Y061125D01*
X120575Y060425D01*
X120575Y059125D01*
X120575Y058425D01*
X120575Y057775D01*
X120685Y058775D02*
X120687Y058823D01*
X120693Y058871D01*
X120703Y058918D01*
X120716Y058964D01*
X120733Y059009D01*
X120754Y059052D01*
X120779Y059094D01*
X120806Y059133D01*
X120837Y059170D01*
X120871Y059205D01*
X120907Y059236D01*
X120946Y059265D01*
X120987Y059290D01*
X121030Y059312D01*
X121074Y059330D01*
X121120Y059344D01*
X121167Y059355D01*
X121215Y059362D01*
X121263Y059365D01*
X121311Y059364D01*
X121359Y059359D01*
X121406Y059350D01*
X121453Y059338D01*
X121498Y059321D01*
X121542Y059301D01*
X121584Y059278D01*
X121624Y059251D01*
X121661Y059221D01*
X121696Y059188D01*
X121729Y059152D01*
X121758Y059114D01*
X121784Y059073D01*
X121807Y059031D01*
X121826Y058987D01*
X121841Y058941D01*
X121853Y058895D01*
X121861Y058847D01*
X121865Y058799D01*
X121865Y058751D01*
X121861Y058703D01*
X121853Y058655D01*
X121841Y058609D01*
X121826Y058563D01*
X121807Y058519D01*
X121784Y058477D01*
X121758Y058436D01*
X121729Y058398D01*
X121696Y058362D01*
X121661Y058329D01*
X121624Y058299D01*
X121584Y058272D01*
X121542Y058249D01*
X121498Y058229D01*
X121453Y058212D01*
X121406Y058200D01*
X121359Y058191D01*
X121311Y058186D01*
X121263Y058185D01*
X121215Y058188D01*
X121167Y058195D01*
X121120Y058206D01*
X121074Y058220D01*
X121030Y058238D01*
X120987Y058260D01*
X120946Y058285D01*
X120907Y058314D01*
X120871Y058345D01*
X120837Y058380D01*
X120806Y058417D01*
X120779Y058456D01*
X120754Y058498D01*
X120733Y058541D01*
X120716Y058586D01*
X120703Y058632D01*
X120693Y058679D01*
X120687Y058727D01*
X120685Y058775D01*
X122445Y058775D02*
X122447Y058803D01*
X122453Y058830D01*
X122462Y058856D01*
X122475Y058881D01*
X122492Y058904D01*
X122511Y058924D01*
X122533Y058941D01*
X122557Y058955D01*
X122583Y058965D01*
X122610Y058972D01*
X122638Y058975D01*
X122666Y058974D01*
X122693Y058969D01*
X122720Y058960D01*
X122745Y058948D01*
X122768Y058933D01*
X122789Y058914D01*
X122807Y058893D01*
X122822Y058869D01*
X122833Y058843D01*
X122841Y058817D01*
X122845Y058789D01*
X122845Y058761D01*
X122841Y058733D01*
X122833Y058707D01*
X122822Y058681D01*
X122807Y058657D01*
X122789Y058636D01*
X122768Y058617D01*
X122745Y058602D01*
X122720Y058590D01*
X122693Y058581D01*
X122666Y058576D01*
X122638Y058575D01*
X122610Y058578D01*
X122583Y058585D01*
X122557Y058595D01*
X122533Y058609D01*
X122511Y058626D01*
X122492Y058646D01*
X122475Y058669D01*
X122462Y058694D01*
X122453Y058720D01*
X122447Y058747D01*
X122445Y058775D01*
X122445Y060775D02*
X122447Y060803D01*
X122453Y060830D01*
X122462Y060856D01*
X122475Y060881D01*
X122492Y060904D01*
X122511Y060924D01*
X122533Y060941D01*
X122557Y060955D01*
X122583Y060965D01*
X122610Y060972D01*
X122638Y060975D01*
X122666Y060974D01*
X122693Y060969D01*
X122720Y060960D01*
X122745Y060948D01*
X122768Y060933D01*
X122789Y060914D01*
X122807Y060893D01*
X122822Y060869D01*
X122833Y060843D01*
X122841Y060817D01*
X122845Y060789D01*
X122845Y060761D01*
X122841Y060733D01*
X122833Y060707D01*
X122822Y060681D01*
X122807Y060657D01*
X122789Y060636D01*
X122768Y060617D01*
X122745Y060602D01*
X122720Y060590D01*
X122693Y060581D01*
X122666Y060576D01*
X122638Y060575D01*
X122610Y060578D01*
X122583Y060585D01*
X122557Y060595D01*
X122533Y060609D01*
X122511Y060626D01*
X122492Y060646D01*
X122475Y060669D01*
X122462Y060694D01*
X122453Y060720D01*
X122447Y060747D01*
X122445Y060775D01*
X120685Y060775D02*
X120687Y060823D01*
X120693Y060871D01*
X120703Y060918D01*
X120716Y060964D01*
X120733Y061009D01*
X120754Y061052D01*
X120779Y061094D01*
X120806Y061133D01*
X120837Y061170D01*
X120871Y061205D01*
X120907Y061236D01*
X120946Y061265D01*
X120987Y061290D01*
X121030Y061312D01*
X121074Y061330D01*
X121120Y061344D01*
X121167Y061355D01*
X121215Y061362D01*
X121263Y061365D01*
X121311Y061364D01*
X121359Y061359D01*
X121406Y061350D01*
X121453Y061338D01*
X121498Y061321D01*
X121542Y061301D01*
X121584Y061278D01*
X121624Y061251D01*
X121661Y061221D01*
X121696Y061188D01*
X121729Y061152D01*
X121758Y061114D01*
X121784Y061073D01*
X121807Y061031D01*
X121826Y060987D01*
X121841Y060941D01*
X121853Y060895D01*
X121861Y060847D01*
X121865Y060799D01*
X121865Y060751D01*
X121861Y060703D01*
X121853Y060655D01*
X121841Y060609D01*
X121826Y060563D01*
X121807Y060519D01*
X121784Y060477D01*
X121758Y060436D01*
X121729Y060398D01*
X121696Y060362D01*
X121661Y060329D01*
X121624Y060299D01*
X121584Y060272D01*
X121542Y060249D01*
X121498Y060229D01*
X121453Y060212D01*
X121406Y060200D01*
X121359Y060191D01*
X121311Y060186D01*
X121263Y060185D01*
X121215Y060188D01*
X121167Y060195D01*
X121120Y060206D01*
X121074Y060220D01*
X121030Y060238D01*
X120987Y060260D01*
X120946Y060285D01*
X120907Y060314D01*
X120871Y060345D01*
X120837Y060380D01*
X120806Y060417D01*
X120779Y060456D01*
X120754Y060498D01*
X120733Y060541D01*
X120716Y060586D01*
X120703Y060632D01*
X120693Y060679D01*
X120687Y060727D01*
X120685Y060775D01*
X120685Y062775D02*
X120687Y062823D01*
X120693Y062871D01*
X120703Y062918D01*
X120716Y062964D01*
X120733Y063009D01*
X120754Y063052D01*
X120779Y063094D01*
X120806Y063133D01*
X120837Y063170D01*
X120871Y063205D01*
X120907Y063236D01*
X120946Y063265D01*
X120987Y063290D01*
X121030Y063312D01*
X121074Y063330D01*
X121120Y063344D01*
X121167Y063355D01*
X121215Y063362D01*
X121263Y063365D01*
X121311Y063364D01*
X121359Y063359D01*
X121406Y063350D01*
X121453Y063338D01*
X121498Y063321D01*
X121542Y063301D01*
X121584Y063278D01*
X121624Y063251D01*
X121661Y063221D01*
X121696Y063188D01*
X121729Y063152D01*
X121758Y063114D01*
X121784Y063073D01*
X121807Y063031D01*
X121826Y062987D01*
X121841Y062941D01*
X121853Y062895D01*
X121861Y062847D01*
X121865Y062799D01*
X121865Y062751D01*
X121861Y062703D01*
X121853Y062655D01*
X121841Y062609D01*
X121826Y062563D01*
X121807Y062519D01*
X121784Y062477D01*
X121758Y062436D01*
X121729Y062398D01*
X121696Y062362D01*
X121661Y062329D01*
X121624Y062299D01*
X121584Y062272D01*
X121542Y062249D01*
X121498Y062229D01*
X121453Y062212D01*
X121406Y062200D01*
X121359Y062191D01*
X121311Y062186D01*
X121263Y062185D01*
X121215Y062188D01*
X121167Y062195D01*
X121120Y062206D01*
X121074Y062220D01*
X121030Y062238D01*
X120987Y062260D01*
X120946Y062285D01*
X120907Y062314D01*
X120871Y062345D01*
X120837Y062380D01*
X120806Y062417D01*
X120779Y062456D01*
X120754Y062498D01*
X120733Y062541D01*
X120716Y062586D01*
X120703Y062632D01*
X120693Y062679D01*
X120687Y062727D01*
X120685Y062775D01*
X122445Y062775D02*
X122447Y062803D01*
X122453Y062830D01*
X122462Y062856D01*
X122475Y062881D01*
X122492Y062904D01*
X122511Y062924D01*
X122533Y062941D01*
X122557Y062955D01*
X122583Y062965D01*
X122610Y062972D01*
X122638Y062975D01*
X122666Y062974D01*
X122693Y062969D01*
X122720Y062960D01*
X122745Y062948D01*
X122768Y062933D01*
X122789Y062914D01*
X122807Y062893D01*
X122822Y062869D01*
X122833Y062843D01*
X122841Y062817D01*
X122845Y062789D01*
X122845Y062761D01*
X122841Y062733D01*
X122833Y062707D01*
X122822Y062681D01*
X122807Y062657D01*
X122789Y062636D01*
X122768Y062617D01*
X122745Y062602D01*
X122720Y062590D01*
X122693Y062581D01*
X122666Y062576D01*
X122638Y062575D01*
X122610Y062578D01*
X122583Y062585D01*
X122557Y062595D01*
X122533Y062609D01*
X122511Y062626D01*
X122492Y062646D01*
X122475Y062669D01*
X122462Y062694D01*
X122453Y062720D01*
X122447Y062747D01*
X122445Y062775D01*
X120685Y064775D02*
X120687Y064823D01*
X120693Y064871D01*
X120703Y064918D01*
X120716Y064964D01*
X120733Y065009D01*
X120754Y065052D01*
X120779Y065094D01*
X120806Y065133D01*
X120837Y065170D01*
X120871Y065205D01*
X120907Y065236D01*
X120946Y065265D01*
X120987Y065290D01*
X121030Y065312D01*
X121074Y065330D01*
X121120Y065344D01*
X121167Y065355D01*
X121215Y065362D01*
X121263Y065365D01*
X121311Y065364D01*
X121359Y065359D01*
X121406Y065350D01*
X121453Y065338D01*
X121498Y065321D01*
X121542Y065301D01*
X121584Y065278D01*
X121624Y065251D01*
X121661Y065221D01*
X121696Y065188D01*
X121729Y065152D01*
X121758Y065114D01*
X121784Y065073D01*
X121807Y065031D01*
X121826Y064987D01*
X121841Y064941D01*
X121853Y064895D01*
X121861Y064847D01*
X121865Y064799D01*
X121865Y064751D01*
X121861Y064703D01*
X121853Y064655D01*
X121841Y064609D01*
X121826Y064563D01*
X121807Y064519D01*
X121784Y064477D01*
X121758Y064436D01*
X121729Y064398D01*
X121696Y064362D01*
X121661Y064329D01*
X121624Y064299D01*
X121584Y064272D01*
X121542Y064249D01*
X121498Y064229D01*
X121453Y064212D01*
X121406Y064200D01*
X121359Y064191D01*
X121311Y064186D01*
X121263Y064185D01*
X121215Y064188D01*
X121167Y064195D01*
X121120Y064206D01*
X121074Y064220D01*
X121030Y064238D01*
X120987Y064260D01*
X120946Y064285D01*
X120907Y064314D01*
X120871Y064345D01*
X120837Y064380D01*
X120806Y064417D01*
X120779Y064456D01*
X120754Y064498D01*
X120733Y064541D01*
X120716Y064586D01*
X120703Y064632D01*
X120693Y064679D01*
X120687Y064727D01*
X120685Y064775D01*
X126598Y072525D02*
X126598Y072975D01*
X127856Y072975D01*
X127856Y072525D01*
X126598Y072525D01*
X132000Y074125D02*
X132200Y074125D01*
X132300Y074125D01*
X132300Y074275D01*
X132200Y074275D01*
X132200Y074775D01*
X132300Y074775D01*
X132300Y074925D01*
X133550Y074925D01*
X133450Y075025D01*
X133550Y075125D01*
X132300Y075125D01*
X132300Y074925D01*
X132200Y074775D02*
X132200Y075275D01*
X132300Y075275D01*
X132300Y075125D01*
X132200Y075275D02*
X132200Y075775D01*
X132300Y075775D01*
X132300Y075925D01*
X132200Y075925D01*
X132200Y075775D01*
X132200Y075925D02*
X132000Y075925D01*
X132000Y075125D01*
X132050Y075125D01*
X132050Y074925D01*
X132000Y074925D01*
X132000Y074125D01*
X132200Y074125D02*
X132200Y074275D01*
X132300Y074125D02*
X133600Y074125D01*
X133600Y074875D01*
X133550Y074925D01*
X133550Y075125D02*
X133600Y075175D01*
X133600Y075925D01*
X132300Y075925D01*
X133600Y075925D02*
X133900Y075925D01*
X133900Y075625D01*
X133950Y075625D01*
X133950Y075425D01*
X133900Y075425D01*
X133900Y075125D01*
X133850Y075125D01*
X133850Y074925D01*
X133900Y074925D01*
X133900Y074625D01*
X133950Y074625D01*
X133950Y074425D01*
X133900Y074425D01*
X133900Y074125D01*
X133600Y074125D01*
X135813Y074525D02*
X136055Y074525D01*
X136055Y073935D02*
X137045Y075115D01*
X137045Y074525D02*
X137237Y074525D01*
X137305Y057775D02*
X137795Y057455D01*
X137795Y057775D02*
X137305Y057455D01*
X116215Y056509D02*
X116215Y055800D01*
X115585Y055800D02*
X115585Y056509D01*
X114680Y055775D02*
X114120Y055775D01*
X114120Y055275D02*
X114680Y055275D01*
X102975Y054538D02*
X102611Y053930D01*
X102070Y054253D02*
X102434Y054862D01*
X068680Y055150D02*
X068120Y055150D01*
X068120Y055650D02*
X068680Y055650D01*
X052680Y063025D02*
X052120Y063025D01*
X052120Y063525D02*
X052680Y063525D01*
X053120Y066775D02*
X053680Y066775D01*
X053680Y067275D02*
X053120Y067275D01*
X052880Y069340D02*
X053920Y069340D01*
X053920Y069960D02*
X052880Y069960D01*
X053041Y070170D02*
X053770Y070170D01*
X053770Y071130D02*
X053041Y071130D01*
X052375Y071835D02*
X051666Y071835D01*
X051666Y072465D02*
X052375Y072465D01*
X049775Y071555D02*
X049775Y070995D01*
X049275Y070995D02*
X049275Y071555D01*
X049525Y072745D02*
X049525Y073305D01*
X049025Y073305D02*
X049025Y072745D01*
X056585Y075925D02*
X056585Y076634D01*
X057215Y076634D02*
X057215Y075925D01*
X057643Y075460D02*
X060283Y075460D01*
X060306Y075458D01*
X060329Y075453D01*
X060351Y075444D01*
X060371Y075431D01*
X060389Y075416D01*
X060404Y075398D01*
X060417Y075378D01*
X060426Y075356D01*
X060431Y075333D01*
X060433Y075310D01*
X060433Y070490D01*
X060431Y070467D01*
X060426Y070444D01*
X060417Y070422D01*
X060404Y070402D01*
X060389Y070384D01*
X060371Y070369D01*
X060351Y070356D01*
X060329Y070347D01*
X060306Y070342D01*
X060283Y070340D01*
X059463Y070340D01*
X058463Y070340D01*
X057643Y070340D01*
X057620Y070342D01*
X057597Y070347D01*
X057575Y070356D01*
X057555Y070369D01*
X057537Y070384D01*
X057522Y070402D01*
X057509Y070422D01*
X057500Y070444D01*
X057495Y070467D01*
X057493Y070490D01*
X057493Y075310D01*
X057495Y075333D01*
X057500Y075356D01*
X057509Y075378D01*
X057522Y075398D01*
X057537Y075416D01*
X057555Y075431D01*
X057575Y075444D01*
X057597Y075453D01*
X057620Y075458D01*
X057643Y075460D01*
X061960Y073009D02*
X061960Y072300D01*
X062590Y072300D02*
X062590Y073009D01*
X062275Y071055D02*
X062275Y070495D01*
X061775Y070495D02*
X061775Y071055D01*
X061465Y068660D02*
X061465Y068140D01*
X062585Y068140D01*
X062585Y068660D01*
X061465Y068660D01*
X059145Y068505D02*
X058416Y068505D01*
X058416Y067545D02*
X059145Y067545D01*
X059463Y070340D02*
X059461Y070384D01*
X059455Y070427D01*
X059446Y070469D01*
X059433Y070511D01*
X059416Y070551D01*
X059396Y070590D01*
X059373Y070627D01*
X059346Y070661D01*
X059317Y070694D01*
X059284Y070723D01*
X059250Y070750D01*
X059213Y070773D01*
X059174Y070793D01*
X059134Y070810D01*
X059092Y070823D01*
X059050Y070832D01*
X059007Y070838D01*
X058963Y070840D01*
X058919Y070838D01*
X058876Y070832D01*
X058834Y070823D01*
X058792Y070810D01*
X058752Y070793D01*
X058713Y070773D01*
X058676Y070750D01*
X058642Y070723D01*
X058609Y070694D01*
X058580Y070661D01*
X058553Y070627D01*
X058530Y070590D01*
X058510Y070551D01*
X058493Y070511D01*
X058480Y070469D01*
X058471Y070427D01*
X058465Y070384D01*
X058463Y070340D01*
X052936Y078338D02*
X052614Y078338D01*
X052614Y078838D02*
X052936Y078838D01*
X053114Y079963D02*
X053436Y079963D01*
X053436Y080463D02*
X053114Y080463D01*
X050045Y079710D02*
X049005Y079710D01*
X049005Y079090D02*
X050045Y079090D01*
X036025Y069425D02*
X036025Y068675D01*
X035986Y068673D01*
X035947Y068667D01*
X035909Y068658D01*
X035872Y068645D01*
X035836Y068628D01*
X035803Y068608D01*
X035771Y068584D01*
X035742Y068558D01*
X035716Y068529D01*
X035692Y068497D01*
X035672Y068464D01*
X035655Y068428D01*
X035642Y068391D01*
X035633Y068353D01*
X035627Y068314D01*
X035625Y068275D01*
X035627Y068236D01*
X035633Y068197D01*
X035642Y068159D01*
X035655Y068122D01*
X035672Y068086D01*
X035692Y068053D01*
X035716Y068021D01*
X035742Y067992D01*
X035771Y067966D01*
X035803Y067942D01*
X035836Y067922D01*
X035872Y067905D01*
X035909Y067892D01*
X035947Y067883D01*
X035986Y067877D01*
X036025Y067875D01*
X036025Y067125D01*
X032025Y067125D01*
X032025Y069425D01*
X036025Y069425D01*
X035305Y065400D02*
X034745Y065400D01*
X034745Y064900D02*
X035305Y064900D01*
X031555Y061025D02*
X030995Y061025D01*
X030995Y060525D02*
X031555Y060525D01*
X031430Y075150D02*
X030870Y075150D01*
X030870Y075650D02*
X031430Y075650D01*
X033074Y026683D02*
X033277Y026683D01*
X032773Y022558D02*
X035074Y022558D01*
D11*
X041616Y045415D02*
X041712Y045415D01*
X041761Y045463D01*
X041862Y045463D02*
X041862Y045657D01*
X041910Y045705D01*
X042055Y045705D01*
X042055Y045415D01*
X041910Y045415D01*
X041862Y045463D01*
X041761Y045657D02*
X041712Y045705D01*
X041616Y045705D01*
X041567Y045657D01*
X041567Y045608D01*
X041616Y045560D01*
X041567Y045512D01*
X041567Y045463D01*
X041616Y045415D01*
X041616Y045560D02*
X041664Y045560D01*
X042157Y045415D02*
X042350Y045415D01*
X042253Y045415D02*
X042253Y045705D01*
X042350Y045608D01*
D12*
X042870Y044502D03*
X042870Y044187D03*
X042870Y043872D03*
X042870Y043557D03*
X042870Y043243D03*
X042870Y042928D03*
X042870Y042613D03*
X042870Y042298D03*
X039680Y042298D03*
X039680Y042613D03*
X039680Y042928D03*
X039680Y043243D03*
X039680Y043557D03*
X039680Y043872D03*
X039680Y044187D03*
X039680Y044502D03*
D13*
X040173Y044995D03*
X040488Y044995D03*
X040803Y044995D03*
X041118Y044995D03*
X041432Y044995D03*
X041747Y044995D03*
X042062Y044995D03*
X042377Y044995D03*
X042377Y041805D03*
X042062Y041805D03*
X041747Y041805D03*
X041432Y041805D03*
X041118Y041805D03*
X040803Y041805D03*
X040488Y041805D03*
X040173Y041805D03*
D14*
X031640Y017800D02*
X031640Y017500D01*
X032160Y017500D02*
X032160Y017790D01*
X033058Y016355D02*
X033058Y016279D01*
X033365Y015972D01*
X033365Y015895D01*
X033519Y015972D02*
X033596Y015895D01*
X033749Y015895D01*
X033826Y015972D01*
X033826Y016279D01*
X033749Y016355D01*
X033596Y016355D01*
X033519Y016279D01*
X033365Y016355D02*
X033058Y016355D01*
X033979Y015895D02*
X034286Y015895D01*
X034133Y015895D02*
X034133Y016355D01*
X034286Y016202D01*
X036020Y024228D02*
X036020Y024535D01*
X036020Y024382D02*
X036480Y024382D01*
X036327Y024228D01*
X036480Y024689D02*
X036480Y024919D01*
X036404Y024996D01*
X036250Y024996D01*
X036173Y024919D01*
X036173Y024689D01*
X036020Y024689D02*
X036480Y024689D01*
X036173Y024842D02*
X036020Y024996D01*
X036097Y025149D02*
X036020Y025226D01*
X036020Y025379D01*
X036097Y025456D01*
X036173Y025456D01*
X036250Y025379D01*
X036250Y025303D01*
X036250Y025379D02*
X036327Y025456D01*
X036404Y025456D01*
X036480Y025379D01*
X036480Y025226D01*
X036404Y025149D01*
X036480Y025610D02*
X036250Y025610D01*
X036327Y025763D01*
X036327Y025840D01*
X036250Y025917D01*
X036097Y025917D01*
X036020Y025840D01*
X036020Y025686D01*
X036097Y025610D01*
X036480Y025610D02*
X036480Y025917D01*
X040733Y025983D02*
X040733Y026289D01*
X040733Y026136D02*
X041193Y026136D01*
X041039Y025983D01*
X040886Y026443D02*
X040886Y026673D01*
X040963Y026750D01*
X041116Y026750D01*
X041193Y026673D01*
X041193Y026443D01*
X040733Y026443D01*
X040886Y026596D02*
X040733Y026750D01*
X040733Y026903D02*
X040733Y027210D01*
X040733Y027057D02*
X041193Y027057D01*
X041039Y026903D01*
X041116Y027364D02*
X041193Y027440D01*
X041193Y027594D01*
X041116Y027671D01*
X041039Y027671D01*
X040733Y027364D01*
X040733Y027671D01*
X042210Y025355D02*
X042133Y025279D01*
X042133Y025202D01*
X042210Y025125D01*
X042364Y025125D01*
X042440Y025202D01*
X042440Y025279D01*
X042364Y025355D01*
X042210Y025355D01*
X042210Y025125D02*
X042133Y025048D01*
X042133Y024972D01*
X042210Y024895D01*
X042364Y024895D01*
X042440Y024972D01*
X042440Y025048D01*
X042364Y025125D01*
X042594Y025048D02*
X042594Y024972D01*
X042671Y024895D01*
X042824Y024895D01*
X042901Y024972D01*
X043054Y024895D02*
X043208Y025048D01*
X043131Y025048D02*
X043361Y025048D01*
X043361Y024895D02*
X043361Y025355D01*
X043131Y025355D01*
X043054Y025279D01*
X043054Y025125D01*
X043131Y025048D01*
X042901Y025279D02*
X042824Y025355D01*
X042671Y025355D01*
X042594Y025279D01*
X042594Y025202D01*
X042671Y025125D01*
X042594Y025048D01*
X042671Y025125D02*
X042747Y025125D01*
X043515Y024895D02*
X043822Y024895D01*
X043668Y024895D02*
X043668Y025355D01*
X043822Y025202D01*
X042255Y024352D02*
X042102Y024505D01*
X042102Y024045D01*
X042255Y024045D02*
X041948Y024045D01*
X041795Y024198D02*
X041641Y024045D01*
X041488Y024198D01*
X041488Y024505D01*
X041334Y024505D02*
X041027Y024505D01*
X041181Y024505D02*
X041181Y024045D01*
X040874Y024045D02*
X040567Y024352D01*
X040567Y024429D01*
X040644Y024505D01*
X040797Y024505D01*
X040874Y024429D01*
X040874Y024045D02*
X040567Y024045D01*
X041795Y024198D02*
X041795Y024505D01*
X046590Y021670D02*
X046590Y021610D01*
X046650Y021550D01*
X046770Y021550D01*
X046830Y021610D01*
X046830Y021670D01*
X046770Y021730D01*
X046650Y021730D01*
X046590Y021670D01*
X046650Y021550D02*
X046590Y021490D01*
X046590Y021430D01*
X046650Y021370D01*
X046770Y021370D01*
X046830Y021430D01*
X046830Y021490D01*
X046770Y021550D01*
X049695Y021421D02*
X049772Y021498D01*
X049848Y021498D01*
X049925Y021421D01*
X049925Y021191D01*
X049772Y021191D01*
X049695Y021268D01*
X049695Y021421D01*
X049772Y021651D02*
X049695Y021728D01*
X049695Y021881D01*
X049772Y021958D01*
X049848Y021958D01*
X049925Y021881D01*
X049925Y021651D01*
X049772Y021651D01*
X049925Y021651D02*
X050079Y021805D01*
X050155Y021958D01*
X050155Y021498D02*
X050079Y021344D01*
X049925Y021191D01*
X049925Y021037D02*
X049848Y020961D01*
X049848Y020730D01*
X049695Y020730D02*
X050155Y020730D01*
X050155Y020961D01*
X050079Y021037D01*
X049925Y021037D01*
X049848Y020884D02*
X049695Y021037D01*
X049695Y020577D02*
X049695Y020270D01*
X049779Y020167D02*
X049472Y019860D01*
X049395Y019860D01*
X049472Y019706D02*
X049548Y019706D01*
X049625Y019629D01*
X049625Y019399D01*
X049472Y019399D01*
X049395Y019476D01*
X049395Y019629D01*
X049472Y019706D01*
X049779Y019553D02*
X049625Y019399D01*
X049625Y019246D02*
X049548Y019169D01*
X049548Y018939D01*
X049395Y018939D02*
X049855Y018939D01*
X049855Y019169D01*
X049779Y019246D01*
X049625Y019246D01*
X049548Y019092D02*
X049395Y019246D01*
X049395Y018785D02*
X049395Y018478D01*
X049395Y018632D02*
X049855Y018632D01*
X049702Y018478D01*
X049779Y019553D02*
X049855Y019706D01*
X049855Y019860D02*
X049855Y020167D01*
X049779Y020167D01*
X050002Y020270D02*
X050155Y020423D01*
X049695Y020423D01*
X052269Y022795D02*
X052269Y023255D01*
X052499Y023025D01*
X052192Y023025D01*
X052652Y023255D02*
X052959Y023255D01*
X052806Y023255D02*
X052806Y022795D01*
X053113Y022948D02*
X053266Y022795D01*
X053420Y022948D01*
X053420Y023255D01*
X053727Y023255D02*
X053727Y022795D01*
X053880Y022795D02*
X053573Y022795D01*
X053880Y023102D02*
X053727Y023255D01*
X053113Y023255D02*
X053113Y022948D01*
X054592Y023030D02*
X054899Y023030D01*
X054899Y022800D01*
X054745Y022877D01*
X054669Y022877D01*
X054592Y022800D01*
X054592Y022647D01*
X054669Y022570D01*
X054822Y022570D01*
X054899Y022647D01*
X055052Y022647D02*
X055052Y022723D01*
X055129Y022800D01*
X055359Y022800D01*
X055359Y022647D01*
X055282Y022570D01*
X055129Y022570D01*
X055052Y022647D01*
X055206Y022954D02*
X055052Y023030D01*
X055206Y022954D02*
X055359Y022800D01*
X055513Y022800D02*
X055589Y022723D01*
X055820Y022723D01*
X055820Y022570D02*
X055820Y023030D01*
X055589Y023030D01*
X055513Y022954D01*
X055513Y022800D01*
X055666Y022723D02*
X055513Y022570D01*
X055973Y022570D02*
X056280Y022570D01*
X056127Y022570D02*
X056127Y023030D01*
X056280Y022877D01*
X057349Y023495D02*
X057349Y023572D01*
X057042Y023879D01*
X057042Y023955D01*
X057349Y023955D01*
X057502Y023879D02*
X057579Y023955D01*
X057809Y023955D01*
X057809Y023495D01*
X057579Y023495D01*
X057502Y023572D01*
X057502Y023879D01*
X057558Y023805D02*
X057712Y023729D01*
X057865Y023575D01*
X057635Y023575D01*
X057558Y023498D01*
X057558Y023422D01*
X057635Y023345D01*
X057789Y023345D01*
X057865Y023422D01*
X057865Y023575D01*
X057963Y023648D02*
X057963Y023955D01*
X058096Y023805D02*
X058326Y023805D01*
X058326Y023345D01*
X058096Y023345D01*
X058019Y023422D01*
X058019Y023729D01*
X058096Y023805D01*
X057963Y023648D02*
X058116Y023495D01*
X058270Y023648D01*
X058270Y023955D01*
X058479Y023805D02*
X058479Y023498D01*
X058633Y023345D01*
X058786Y023498D01*
X058786Y023805D01*
X058730Y023802D02*
X058577Y023955D01*
X058577Y023495D01*
X058730Y023495D02*
X058423Y023495D01*
X058940Y023345D02*
X059247Y023345D01*
X059093Y023345D02*
X059093Y023805D01*
X059247Y023652D01*
X056364Y024714D02*
X055903Y024714D01*
X055903Y024867D02*
X055903Y024560D01*
X056210Y024560D02*
X056364Y024714D01*
X056364Y025021D02*
X056364Y025251D01*
X056287Y025328D01*
X056133Y025328D01*
X056057Y025251D01*
X056057Y025021D01*
X056057Y025174D02*
X055903Y025328D01*
X055903Y025481D02*
X055903Y025788D01*
X055903Y025635D02*
X056364Y025635D01*
X056210Y025481D01*
X056364Y025021D02*
X055903Y025021D01*
X055702Y025814D02*
X055855Y025967D01*
X055395Y025967D01*
X055395Y025814D02*
X055395Y026121D01*
X055395Y026274D02*
X055855Y026274D01*
X055855Y026504D01*
X055779Y026581D01*
X055625Y026581D01*
X055548Y026504D01*
X055548Y026274D01*
X055548Y026428D02*
X055395Y026581D01*
X055472Y026735D02*
X055395Y026811D01*
X055395Y026965D01*
X055472Y027042D01*
X055625Y027042D01*
X055702Y026965D01*
X055702Y026888D01*
X055625Y026735D01*
X055855Y026735D01*
X055855Y027042D01*
X055119Y027898D02*
X055272Y028052D01*
X054812Y028052D01*
X054812Y028205D02*
X054812Y027898D01*
X054812Y028359D02*
X055272Y028359D01*
X055272Y028589D01*
X055195Y028666D01*
X055042Y028666D01*
X054965Y028589D01*
X054965Y028359D01*
X054965Y028512D02*
X054812Y028666D01*
X054812Y028819D02*
X054812Y029126D01*
X054812Y028973D02*
X055272Y028973D01*
X055119Y028819D01*
X055119Y029280D02*
X055195Y029280D01*
X055272Y029356D01*
X055272Y029510D01*
X055195Y029586D01*
X055119Y029586D01*
X055042Y029510D01*
X055042Y029356D01*
X055119Y029280D01*
X055042Y029356D02*
X054965Y029280D01*
X054888Y029280D01*
X054812Y029356D01*
X054812Y029510D01*
X054888Y029586D01*
X054965Y029586D01*
X055042Y029510D01*
X055495Y030539D02*
X055495Y030846D01*
X055495Y030999D02*
X055495Y031229D01*
X055572Y031306D01*
X055879Y031306D01*
X055955Y031229D01*
X055955Y030999D01*
X055495Y030999D01*
X055495Y030692D02*
X055955Y030692D01*
X055802Y030539D01*
X055802Y031460D02*
X055955Y031613D01*
X055495Y031613D01*
X055495Y031460D02*
X055495Y031767D01*
X055500Y032515D02*
X055800Y032515D01*
X056127Y032550D02*
X056127Y032397D01*
X056204Y032320D01*
X056357Y032320D01*
X056434Y032397D01*
X056434Y032550D02*
X056281Y032627D01*
X056204Y032627D01*
X056127Y032550D01*
X056127Y032780D02*
X056434Y032780D01*
X056434Y032550D01*
X056588Y032397D02*
X056664Y032320D01*
X056818Y032320D01*
X056895Y032397D01*
X056895Y032704D01*
X056818Y032780D01*
X056664Y032780D01*
X056588Y032704D01*
X056445Y033195D02*
X056445Y033502D01*
X056445Y033348D02*
X056905Y033348D01*
X056752Y033195D01*
X056829Y033655D02*
X056522Y033655D01*
X056445Y033732D01*
X056445Y033886D01*
X056522Y033962D01*
X056522Y034116D02*
X056598Y034116D01*
X056675Y034193D01*
X056675Y034346D01*
X056598Y034423D01*
X056522Y034423D01*
X056445Y034346D01*
X056445Y034193D01*
X056522Y034116D01*
X056675Y034193D02*
X056752Y034116D01*
X056829Y034116D01*
X056905Y034193D01*
X056905Y034346D01*
X056829Y034423D01*
X056752Y034423D01*
X056675Y034346D01*
X056829Y033962D02*
X056905Y033886D01*
X056905Y033732D01*
X056829Y033655D01*
X056285Y033625D02*
X056285Y033915D01*
X055765Y033925D02*
X055765Y033625D01*
X055410Y033625D02*
X055410Y033915D01*
X054890Y033925D02*
X054890Y033625D01*
X054655Y033607D02*
X054579Y033530D01*
X054272Y033530D01*
X054195Y033607D01*
X054195Y033761D01*
X054272Y033837D01*
X054272Y033991D02*
X054195Y034068D01*
X054195Y034221D01*
X054272Y034298D01*
X054579Y034298D01*
X054655Y034221D01*
X054655Y034068D01*
X054579Y033991D01*
X054502Y033991D01*
X054425Y034068D01*
X054425Y034298D01*
X054579Y033837D02*
X054655Y033761D01*
X054655Y033607D01*
X054655Y033223D02*
X054195Y033223D01*
X054195Y033070D02*
X054195Y033377D01*
X054502Y033070D02*
X054655Y033223D01*
X055510Y033035D02*
X055800Y033035D01*
X057202Y032780D02*
X057202Y032320D01*
X057355Y032320D02*
X057048Y032320D01*
X057355Y032627D02*
X057202Y032780D01*
X058908Y032804D02*
X058908Y032497D01*
X058985Y032420D01*
X059139Y032420D01*
X059215Y032497D01*
X059139Y032650D02*
X058908Y032650D01*
X058908Y032804D02*
X058985Y032880D01*
X059139Y032880D01*
X059215Y032804D01*
X059215Y032727D01*
X059139Y032650D01*
X059369Y032650D02*
X059446Y032573D01*
X059676Y032573D01*
X059676Y032420D02*
X059676Y032880D01*
X059446Y032880D01*
X059369Y032804D01*
X059369Y032650D01*
X059522Y032573D02*
X059369Y032420D01*
X059829Y032420D02*
X060136Y032420D01*
X059983Y032420D02*
X059983Y032880D01*
X060136Y032727D01*
X059814Y033620D02*
X059968Y033773D01*
X059508Y033773D01*
X059508Y033620D02*
X059508Y033927D01*
X059508Y034080D02*
X059968Y034080D01*
X059968Y034311D01*
X059891Y034387D01*
X059738Y034387D01*
X059661Y034311D01*
X059661Y034080D01*
X059661Y034234D02*
X059508Y034387D01*
X059397Y034302D02*
X058937Y034302D01*
X058937Y034455D02*
X058937Y034148D01*
X059244Y034148D02*
X059397Y034302D01*
X059508Y034541D02*
X059814Y034848D01*
X059891Y034848D01*
X059968Y034771D01*
X059968Y034618D01*
X059891Y034541D01*
X059508Y034541D02*
X059508Y034848D01*
X059397Y034839D02*
X059320Y034916D01*
X059167Y034916D01*
X059090Y034839D01*
X059090Y034609D01*
X059090Y034762D02*
X058937Y034916D01*
X058937Y035069D02*
X059244Y035376D01*
X059320Y035376D01*
X059397Y035299D01*
X059397Y035146D01*
X059320Y035069D01*
X059508Y035001D02*
X059814Y035308D01*
X059891Y035308D01*
X059968Y035231D01*
X059968Y035078D01*
X059891Y035001D01*
X059508Y035001D02*
X059508Y035308D01*
X059508Y035462D02*
X059814Y035462D01*
X059968Y035615D01*
X059814Y035768D01*
X059508Y035768D01*
X059397Y035760D02*
X059397Y035606D01*
X059320Y035530D01*
X059397Y035760D02*
X059320Y035836D01*
X059244Y035836D01*
X058937Y035530D01*
X058937Y035836D01*
X058937Y035376D02*
X058937Y035069D01*
X058937Y034609D02*
X059397Y034609D01*
X059397Y034839D01*
X059738Y035462D02*
X059738Y035768D01*
X056822Y035577D02*
X056668Y035730D01*
X056668Y035270D01*
X056515Y035270D02*
X056822Y035270D01*
X056361Y035270D02*
X056361Y035730D01*
X056131Y035730D01*
X056054Y035654D01*
X056054Y035500D01*
X056131Y035423D01*
X056361Y035423D01*
X056208Y035423D02*
X056054Y035270D01*
X055901Y035270D02*
X055594Y035577D01*
X055594Y035654D01*
X055671Y035730D01*
X055824Y035730D01*
X055901Y035654D01*
X055901Y035270D02*
X055594Y035270D01*
X055440Y035270D02*
X055440Y035347D01*
X055133Y035654D01*
X055133Y035730D01*
X055440Y035730D01*
X054697Y035577D02*
X054543Y035730D01*
X054543Y035270D01*
X054390Y035270D02*
X054697Y035270D01*
X054236Y035270D02*
X054236Y035730D01*
X054006Y035730D01*
X053929Y035654D01*
X053929Y035500D01*
X054006Y035423D01*
X054236Y035423D01*
X054083Y035423D02*
X053929Y035270D01*
X053776Y035270D02*
X053469Y035577D01*
X053469Y035654D01*
X053546Y035730D01*
X053699Y035730D01*
X053776Y035654D01*
X053776Y035270D02*
X053469Y035270D01*
X053315Y035347D02*
X053239Y035270D01*
X053085Y035270D01*
X053008Y035347D01*
X053008Y035423D01*
X053085Y035500D01*
X053315Y035500D01*
X053315Y035347D01*
X053315Y035500D02*
X053162Y035654D01*
X053008Y035730D01*
X052272Y035135D02*
X052195Y035211D01*
X052119Y035211D01*
X052042Y035135D01*
X051965Y035211D01*
X051888Y035211D01*
X051812Y035135D01*
X051812Y034981D01*
X051888Y034905D01*
X051812Y034751D02*
X051812Y034444D01*
X052119Y034751D01*
X052195Y034751D01*
X052272Y034674D01*
X052272Y034521D01*
X052195Y034444D01*
X052195Y034291D02*
X052042Y034291D01*
X051965Y034214D01*
X051965Y033984D01*
X051965Y034137D02*
X051812Y034291D01*
X051812Y033984D02*
X052272Y033984D01*
X052272Y034214D01*
X052195Y034291D01*
X051812Y033830D02*
X051812Y033523D01*
X051812Y033677D02*
X052272Y033677D01*
X052119Y033523D01*
X051480Y033609D02*
X051404Y033685D01*
X051250Y033685D01*
X051173Y033609D01*
X051173Y033378D01*
X051020Y033378D02*
X051480Y033378D01*
X051480Y033609D01*
X051404Y033839D02*
X051480Y033916D01*
X051480Y034069D01*
X051404Y034146D01*
X051327Y034146D01*
X051020Y033839D01*
X051020Y034146D01*
X051097Y034299D02*
X051020Y034376D01*
X051020Y034529D01*
X051097Y034606D01*
X051173Y034606D01*
X051250Y034529D01*
X051250Y034453D01*
X051250Y034529D02*
X051327Y034606D01*
X051404Y034606D01*
X051480Y034529D01*
X051480Y034376D01*
X051404Y034299D01*
X051327Y034760D02*
X051480Y034913D01*
X051327Y035067D01*
X051020Y035067D01*
X051250Y035067D02*
X051250Y034760D01*
X051327Y034760D02*
X051020Y034760D01*
X052042Y035058D02*
X052042Y035135D01*
X052272Y035135D02*
X052272Y034981D01*
X052195Y034905D01*
X051020Y033685D02*
X051173Y033532D01*
X051020Y033225D02*
X051020Y032918D01*
X051020Y033071D02*
X051480Y033071D01*
X051327Y032918D01*
X052585Y031230D02*
X052739Y031230D01*
X052815Y031154D01*
X052815Y031077D01*
X052739Y031000D01*
X052508Y031000D01*
X052508Y030847D02*
X052508Y031154D01*
X052585Y031230D01*
X052969Y031230D02*
X053122Y031154D01*
X053276Y031000D01*
X053046Y031000D01*
X052969Y030923D01*
X052969Y030847D01*
X053046Y030770D01*
X053199Y030770D01*
X053276Y030847D01*
X053276Y031000D01*
X053429Y031000D02*
X053506Y030923D01*
X053736Y030923D01*
X053736Y030770D02*
X053736Y031230D01*
X053506Y031230D01*
X053429Y031154D01*
X053429Y031000D01*
X053583Y030923D02*
X053429Y030770D01*
X053890Y030770D02*
X054197Y030770D01*
X054043Y030770D02*
X054043Y031230D01*
X054197Y031077D01*
X052815Y030847D02*
X052739Y030770D01*
X052585Y030770D01*
X052508Y030847D01*
X052280Y030756D02*
X051820Y030756D01*
X052050Y030833D02*
X052050Y030526D01*
X052280Y030756D01*
X052280Y030219D02*
X051820Y030219D01*
X051820Y030066D02*
X051820Y030373D01*
X052127Y030066D02*
X052280Y030219D01*
X052204Y029912D02*
X052050Y029912D01*
X051973Y029836D01*
X051973Y029605D01*
X051820Y029605D02*
X052280Y029605D01*
X052280Y029836D01*
X052204Y029912D01*
X051973Y029759D02*
X051820Y029912D01*
X051820Y029452D02*
X051820Y029145D01*
X051820Y029298D02*
X052280Y029298D01*
X052127Y029145D01*
X056046Y028738D02*
X056046Y028447D01*
X056566Y028438D02*
X056566Y028738D01*
X056937Y028468D02*
X056937Y028008D01*
X057090Y028008D02*
X056784Y028008D01*
X057090Y028314D02*
X056937Y028468D01*
X057244Y028391D02*
X057321Y028468D01*
X057474Y028468D01*
X057551Y028391D01*
X057551Y028084D01*
X057474Y028008D01*
X057321Y028008D01*
X057244Y028084D01*
X057704Y028008D02*
X058011Y028008D01*
X057858Y028008D02*
X057858Y028468D01*
X058011Y028314D01*
X059070Y028520D02*
X059070Y028827D01*
X059070Y028980D02*
X059530Y028980D01*
X059530Y029211D01*
X059454Y029287D01*
X059300Y029287D01*
X059223Y029211D01*
X059223Y028980D01*
X059223Y029134D02*
X059070Y029287D01*
X059070Y029441D02*
X059070Y029748D01*
X059070Y029594D02*
X059530Y029594D01*
X059377Y029441D01*
X059454Y029901D02*
X059530Y029978D01*
X059530Y030131D01*
X059454Y030208D01*
X059377Y030208D01*
X059300Y030131D01*
X059223Y030208D01*
X059147Y030208D01*
X059070Y030131D01*
X059070Y029978D01*
X059147Y029901D01*
X059300Y030055D02*
X059300Y030131D01*
X059245Y030278D02*
X059399Y030432D01*
X059322Y030432D02*
X059552Y030432D01*
X059552Y030278D02*
X059552Y030739D01*
X059322Y030739D01*
X059245Y030662D01*
X059245Y030508D01*
X059322Y030432D01*
X059092Y030585D02*
X058938Y030739D01*
X058938Y030278D01*
X058785Y030278D02*
X059092Y030278D01*
X058631Y030278D02*
X058631Y030355D01*
X058324Y030662D01*
X058324Y030739D01*
X058631Y030739D01*
X059705Y030278D02*
X060012Y030278D01*
X059859Y030278D02*
X059859Y030739D01*
X060012Y030585D01*
X059530Y028673D02*
X059070Y028673D01*
X059377Y028520D02*
X059530Y028673D01*
X065464Y026820D02*
X065770Y026513D01*
X065694Y026437D01*
X065540Y026437D01*
X065464Y026513D01*
X065464Y026820D01*
X065540Y026897D01*
X065694Y026897D01*
X065770Y026820D01*
X065770Y026513D01*
X065924Y026437D02*
X066231Y026437D01*
X065924Y026744D01*
X065924Y026820D01*
X066001Y026897D01*
X066154Y026897D01*
X066231Y026820D01*
X066384Y026820D02*
X066384Y026667D01*
X066461Y026590D01*
X066691Y026590D01*
X066538Y026590D02*
X066384Y026437D01*
X066691Y026437D02*
X066691Y026897D01*
X066461Y026897D01*
X066384Y026820D01*
X066845Y026437D02*
X067152Y026437D01*
X066998Y026437D02*
X066998Y026897D01*
X067152Y026744D01*
X069633Y026668D02*
X070093Y026668D01*
X070093Y026898D01*
X070016Y026975D01*
X069863Y026975D01*
X069786Y026898D01*
X069786Y026668D01*
X069786Y026821D02*
X069633Y026975D01*
X069633Y027128D02*
X069633Y027435D01*
X069633Y027282D02*
X070093Y027282D01*
X069939Y027128D01*
X070078Y027447D02*
X070078Y027738D01*
X070016Y027742D02*
X069863Y027589D01*
X069863Y027819D01*
X069786Y027896D01*
X069709Y027896D01*
X069633Y027819D01*
X069633Y027665D01*
X069709Y027589D01*
X069863Y027589D01*
X070016Y027742D02*
X070093Y027896D01*
X070597Y027738D02*
X070597Y027438D01*
X070999Y027419D02*
X070999Y027572D01*
X071076Y027649D01*
X071383Y027649D01*
X071460Y027572D01*
X071460Y027419D01*
X071383Y027342D01*
X071306Y027342D01*
X071229Y027419D01*
X071229Y027649D01*
X071091Y027748D02*
X071091Y028055D01*
X071091Y028208D02*
X071551Y028208D01*
X071551Y028439D01*
X071474Y028515D01*
X071321Y028515D01*
X071244Y028439D01*
X071244Y028208D01*
X071244Y028362D02*
X071091Y028515D01*
X071167Y028669D02*
X071091Y028745D01*
X071091Y028899D01*
X071167Y028976D01*
X071244Y028976D01*
X071321Y028899D01*
X071321Y028822D01*
X071321Y028899D02*
X071398Y028976D01*
X071474Y028976D01*
X071551Y028899D01*
X071551Y028745D01*
X071474Y028669D01*
X071551Y027901D02*
X071091Y027901D01*
X071398Y027748D02*
X071551Y027901D01*
X070999Y027419D02*
X071076Y027342D01*
X070999Y027189D02*
X070999Y026882D01*
X070999Y027035D02*
X071460Y027035D01*
X071306Y026882D01*
X071229Y026728D02*
X071153Y026651D01*
X071153Y026421D01*
X071153Y026575D02*
X070999Y026728D01*
X071229Y026728D02*
X071383Y026728D01*
X071460Y026651D01*
X071460Y026421D01*
X070999Y026421D01*
X070999Y026268D02*
X070999Y025961D01*
X070999Y026114D02*
X071460Y026114D01*
X071306Y025961D01*
X070093Y026361D02*
X069633Y026361D01*
X069633Y026208D02*
X069633Y026514D01*
X069939Y026208D02*
X070093Y026361D01*
X071696Y024716D02*
X071696Y024639D01*
X071773Y024563D01*
X071926Y024563D01*
X072003Y024639D01*
X072003Y024716D01*
X071926Y024793D01*
X071773Y024793D01*
X071696Y024716D01*
X071773Y024563D02*
X071696Y024486D01*
X071696Y024409D01*
X071773Y024333D01*
X071926Y024333D01*
X072003Y024409D01*
X072003Y024486D01*
X071926Y024563D01*
X072156Y024563D02*
X072233Y024486D01*
X072463Y024486D01*
X072310Y024486D02*
X072156Y024333D01*
X072156Y024563D02*
X072156Y024716D01*
X072233Y024793D01*
X072463Y024793D01*
X072463Y024333D01*
X072617Y024333D02*
X072924Y024333D01*
X072770Y024333D02*
X072770Y024793D01*
X072924Y024639D01*
X076828Y025572D02*
X076828Y025863D01*
X077347Y025863D02*
X077347Y025563D01*
X077828Y025572D02*
X077828Y025863D01*
X078347Y025863D02*
X078347Y025563D01*
X080358Y027733D02*
X080358Y028039D01*
X080358Y027886D02*
X080818Y027886D01*
X080664Y027733D01*
X080511Y028193D02*
X080511Y028423D01*
X080588Y028500D01*
X080741Y028500D01*
X080818Y028423D01*
X080818Y028193D01*
X080358Y028193D01*
X080511Y028346D02*
X080358Y028500D01*
X080358Y028653D02*
X080358Y028960D01*
X080358Y028807D02*
X080818Y028807D01*
X080664Y028653D01*
X080664Y029114D02*
X080818Y029267D01*
X080358Y029267D01*
X080358Y029114D02*
X080358Y029421D01*
X079968Y029523D02*
X079891Y029600D01*
X079738Y029600D01*
X079661Y029523D01*
X079661Y029293D01*
X079661Y029446D02*
X079508Y029600D01*
X079508Y029753D02*
X079508Y030060D01*
X079508Y029907D02*
X079968Y029907D01*
X079814Y029753D01*
X079968Y029523D02*
X079968Y029293D01*
X079508Y029293D01*
X079508Y029139D02*
X079508Y028833D01*
X079508Y028986D02*
X079968Y028986D01*
X079814Y028833D01*
X079738Y030214D02*
X079814Y030367D01*
X079814Y030444D01*
X079738Y030521D01*
X079584Y030521D01*
X079508Y030444D01*
X079508Y030290D01*
X079584Y030214D01*
X079738Y030214D02*
X079968Y030214D01*
X079968Y030521D01*
X078535Y032375D02*
X078535Y032665D01*
X078015Y032675D02*
X078015Y032375D01*
X075355Y032439D02*
X075355Y032669D01*
X075279Y032746D01*
X075125Y032746D01*
X075048Y032669D01*
X075048Y032439D01*
X074895Y032439D02*
X075355Y032439D01*
X075355Y032132D02*
X074895Y032132D01*
X074895Y032285D02*
X074895Y031978D01*
X075202Y031978D02*
X075355Y032132D01*
X075048Y032592D02*
X074895Y032746D01*
X074895Y032899D02*
X075202Y033206D01*
X075279Y033206D01*
X075355Y033129D01*
X075355Y032976D01*
X075279Y032899D01*
X074895Y032899D02*
X074895Y033206D01*
X074785Y033228D02*
X074785Y032938D01*
X074895Y033360D02*
X074895Y033667D01*
X074895Y033513D02*
X075355Y033513D01*
X075202Y033360D01*
X075136Y034108D02*
X075443Y034108D01*
X075289Y034108D02*
X075289Y034568D01*
X075443Y034414D01*
X074982Y034261D02*
X074752Y034261D01*
X074675Y034338D01*
X074675Y034491D01*
X074752Y034568D01*
X074982Y034568D01*
X074982Y034108D01*
X074829Y034261D02*
X074675Y034108D01*
X074522Y034108D02*
X074215Y034414D01*
X074215Y034491D01*
X074292Y034568D01*
X074445Y034568D01*
X074522Y034491D01*
X074522Y034108D02*
X074215Y034108D01*
X074061Y034184D02*
X074061Y034261D01*
X073985Y034338D01*
X073831Y034338D01*
X073754Y034261D01*
X073754Y034184D01*
X073831Y034108D01*
X073985Y034108D01*
X074061Y034184D01*
X073985Y034338D02*
X074061Y034414D01*
X074061Y034491D01*
X073985Y034568D01*
X073831Y034568D01*
X073754Y034491D01*
X073754Y034414D01*
X073831Y034338D01*
X074265Y033238D02*
X074265Y032938D01*
X072387Y035466D02*
X072080Y035466D01*
X071927Y035466D02*
X071927Y035926D01*
X071697Y035926D01*
X071620Y035849D01*
X071620Y035696D01*
X071697Y035619D01*
X071927Y035619D01*
X071774Y035619D02*
X071620Y035466D01*
X071467Y035466D02*
X071160Y035773D01*
X071160Y035849D01*
X071236Y035926D01*
X071390Y035926D01*
X071467Y035849D01*
X071467Y035466D02*
X071160Y035466D01*
X071006Y035696D02*
X070699Y035696D01*
X070776Y035466D02*
X070776Y035926D01*
X071006Y035696D01*
X072234Y035926D02*
X072234Y035466D01*
X072387Y035773D02*
X072234Y035926D01*
X069568Y036005D02*
X069568Y036236D01*
X069491Y036312D01*
X069338Y036312D01*
X069261Y036236D01*
X069261Y036005D01*
X069108Y036005D02*
X069568Y036005D01*
X069568Y035698D02*
X069108Y035698D01*
X069108Y035545D02*
X069108Y035852D01*
X069261Y036159D02*
X069108Y036312D01*
X069108Y036466D02*
X069414Y036773D01*
X069491Y036773D01*
X069568Y036696D01*
X069568Y036543D01*
X069491Y036466D01*
X069108Y036466D02*
X069108Y036773D01*
X069184Y036926D02*
X069108Y037003D01*
X069108Y037156D01*
X069184Y037233D01*
X069491Y037233D01*
X069568Y037156D01*
X069568Y037003D01*
X069491Y036926D01*
X069414Y036926D01*
X069338Y037003D01*
X069338Y037233D01*
X069568Y035698D02*
X069414Y035545D01*
X067325Y035585D02*
X067171Y035739D01*
X067171Y035278D01*
X067018Y035278D02*
X067325Y035278D01*
X066865Y035278D02*
X066865Y035739D01*
X066634Y035739D01*
X066558Y035662D01*
X066558Y035508D01*
X066634Y035432D01*
X066865Y035432D01*
X066711Y035432D02*
X066558Y035278D01*
X066404Y035278D02*
X066097Y035585D01*
X066097Y035662D01*
X066174Y035739D01*
X066327Y035739D01*
X066404Y035662D01*
X066404Y035278D02*
X066097Y035278D01*
X065944Y035355D02*
X065867Y035278D01*
X065714Y035278D01*
X065637Y035355D01*
X065637Y035508D01*
X065714Y035585D01*
X065790Y035585D01*
X065944Y035508D01*
X065944Y035739D01*
X065637Y035739D01*
X063093Y034953D02*
X062939Y035106D01*
X062633Y035106D01*
X062863Y035106D02*
X062863Y034799D01*
X062939Y034799D02*
X062633Y034799D01*
X062709Y034646D02*
X062633Y034569D01*
X062633Y034415D01*
X062709Y034339D01*
X062863Y034339D02*
X062939Y034492D01*
X062939Y034569D01*
X062863Y034646D01*
X062709Y034646D01*
X062939Y034799D02*
X063093Y034953D01*
X063093Y034646D02*
X063093Y034339D01*
X062863Y034339D01*
X062939Y034185D02*
X062633Y033878D01*
X062633Y034185D01*
X062939Y034185D02*
X063016Y034185D01*
X063093Y034108D01*
X063093Y033955D01*
X063016Y033878D01*
X063016Y033725D02*
X062863Y033725D01*
X062786Y033648D01*
X062786Y033418D01*
X062786Y033571D02*
X062633Y033725D01*
X062633Y033418D02*
X063093Y033418D01*
X063093Y033648D01*
X063016Y033725D01*
X062633Y033264D02*
X062633Y032958D01*
X062633Y033111D02*
X063093Y033111D01*
X062939Y032958D01*
X068845Y031523D02*
X068845Y031216D01*
X069152Y031523D01*
X069229Y031523D01*
X069305Y031446D01*
X069305Y031293D01*
X069229Y031216D01*
X069229Y031062D02*
X069305Y030986D01*
X069305Y030755D01*
X068845Y030755D01*
X068845Y030986D01*
X068922Y031062D01*
X069229Y031062D01*
X068845Y030602D02*
X068845Y030295D01*
X068845Y030448D02*
X069305Y030448D01*
X069152Y030295D01*
X074069Y029939D02*
X074069Y029633D01*
X074069Y029863D02*
X074376Y029863D01*
X074376Y029939D02*
X074222Y030093D01*
X074069Y029939D01*
X074376Y029939D02*
X074376Y029633D01*
X074606Y029633D02*
X074606Y030093D01*
X074836Y029863D01*
X074529Y029863D01*
X074990Y029939D02*
X074990Y030016D01*
X075067Y030093D01*
X075220Y030093D01*
X075297Y030016D01*
X075450Y030016D02*
X075450Y029863D01*
X075527Y029786D01*
X075757Y029786D01*
X075604Y029786D02*
X075450Y029633D01*
X075297Y029633D02*
X074990Y029939D01*
X074990Y029633D02*
X075297Y029633D01*
X075450Y030016D02*
X075527Y030093D01*
X075757Y030093D01*
X075757Y029633D01*
X075911Y029633D02*
X076218Y029633D01*
X076064Y029633D02*
X076064Y030093D01*
X076218Y029939D01*
X082740Y025218D02*
X082740Y025141D01*
X083047Y024834D01*
X083047Y024758D01*
X083200Y024758D02*
X083354Y024911D01*
X083277Y024911D02*
X083507Y024911D01*
X083507Y024758D02*
X083507Y025218D01*
X083277Y025218D01*
X083200Y025141D01*
X083200Y024988D01*
X083277Y024911D01*
X083047Y025218D02*
X082740Y025218D01*
X083661Y024758D02*
X083968Y024758D01*
X083814Y024758D02*
X083814Y025218D01*
X083968Y025064D01*
X096758Y028970D02*
X097065Y028970D01*
X096758Y029277D01*
X096758Y029354D01*
X096835Y029430D01*
X096989Y029430D01*
X097065Y029354D01*
X097219Y029430D02*
X097372Y029430D01*
X097296Y029430D02*
X097296Y029047D01*
X097372Y028970D01*
X097449Y028970D01*
X097526Y029047D01*
X097679Y029200D02*
X097986Y029200D01*
X097756Y029430D01*
X097756Y028970D01*
X099225Y034020D02*
X099225Y034327D01*
X099148Y034480D02*
X099148Y034711D01*
X099225Y034787D01*
X099379Y034787D01*
X099455Y034711D01*
X099455Y034480D01*
X098995Y034480D01*
X099148Y034634D02*
X098995Y034787D01*
X099072Y034941D02*
X098995Y035018D01*
X098995Y035171D01*
X099072Y035248D01*
X099148Y035248D01*
X099225Y035171D01*
X099225Y035094D01*
X099225Y035171D02*
X099302Y035248D01*
X099379Y035248D01*
X099455Y035171D01*
X099455Y035018D01*
X099379Y034941D01*
X099379Y035401D02*
X099455Y035478D01*
X099455Y035631D01*
X099379Y035708D01*
X099072Y035401D01*
X098995Y035478D01*
X098995Y035631D01*
X099072Y035708D01*
X099379Y035708D01*
X099302Y035862D02*
X098995Y035862D01*
X099225Y035862D02*
X099225Y036168D01*
X099302Y036168D02*
X098995Y036168D01*
X099302Y036168D02*
X099455Y036015D01*
X099302Y035862D01*
X099379Y035401D02*
X099072Y035401D01*
X098995Y034250D02*
X099455Y034250D01*
X099225Y034020D01*
X097425Y037120D02*
X097425Y037580D01*
X097655Y037350D01*
X097348Y037350D01*
X097195Y037197D02*
X097118Y037120D01*
X097041Y037120D01*
X096964Y037197D01*
X096964Y037580D01*
X096888Y037580D02*
X097041Y037580D01*
X096734Y037504D02*
X096657Y037580D01*
X096504Y037580D01*
X096427Y037504D01*
X096427Y037427D01*
X096504Y037350D01*
X096427Y037273D01*
X096427Y037197D01*
X096504Y037120D01*
X096657Y037120D01*
X096734Y037197D01*
X096581Y037350D02*
X096504Y037350D01*
X099633Y038472D02*
X099710Y038395D01*
X099864Y038395D01*
X099940Y038472D01*
X099940Y038625D02*
X099787Y038702D01*
X099710Y038702D01*
X099633Y038625D01*
X099633Y038472D01*
X099940Y038625D02*
X099940Y038855D01*
X099633Y038855D01*
X100247Y038855D02*
X100247Y038395D01*
X100094Y038395D02*
X100401Y038395D01*
X100554Y038395D02*
X100708Y038548D01*
X100631Y038548D02*
X100861Y038548D01*
X100861Y038395D02*
X100861Y038855D01*
X100631Y038855D01*
X100554Y038779D01*
X100554Y038625D01*
X100631Y038548D01*
X100401Y038702D02*
X100247Y038855D01*
X101015Y038625D02*
X101322Y038625D01*
X101091Y038855D01*
X101091Y038395D01*
X105044Y044570D02*
X104967Y044647D01*
X104967Y044723D01*
X105044Y044800D01*
X105274Y044800D01*
X105274Y044647D01*
X105197Y044570D01*
X105044Y044570D01*
X105274Y044800D02*
X105120Y044954D01*
X104967Y045030D01*
X105581Y045030D02*
X105581Y044570D01*
X105734Y044570D02*
X105427Y044570D01*
X105734Y044877D02*
X105581Y045030D01*
X105888Y044954D02*
X105888Y044800D01*
X105964Y044723D01*
X106195Y044723D01*
X106195Y044570D02*
X106195Y045030D01*
X105964Y045030D01*
X105888Y044954D01*
X106041Y044723D02*
X105888Y044570D01*
X106348Y044800D02*
X106655Y044800D01*
X106425Y045030D01*
X106425Y044570D01*
X110308Y043166D02*
X110308Y043089D01*
X110385Y043013D01*
X110308Y042936D01*
X110308Y042859D01*
X110385Y042783D01*
X110539Y042783D01*
X110615Y042859D01*
X110769Y042859D02*
X110769Y043166D01*
X110846Y043243D01*
X111076Y043243D01*
X111076Y042783D01*
X110846Y042783D01*
X110769Y042859D01*
X110462Y043013D02*
X110385Y043013D01*
X110308Y043166D02*
X110385Y043243D01*
X110539Y043243D01*
X110615Y043166D01*
X111229Y043243D02*
X111229Y042936D01*
X111383Y042783D01*
X111536Y042936D01*
X111536Y043243D01*
X111766Y043243D02*
X111997Y043013D01*
X111690Y043013D01*
X111766Y042783D02*
X111766Y043243D01*
X113131Y043254D02*
X113131Y043312D01*
X113189Y043370D01*
X113306Y043370D01*
X113364Y043312D01*
X113490Y043312D02*
X113490Y043195D01*
X113548Y043137D01*
X113723Y043137D01*
X113606Y043137D02*
X113490Y043020D01*
X113364Y043020D02*
X113131Y043254D01*
X113131Y043020D02*
X113364Y043020D01*
X113490Y043312D02*
X113548Y043370D01*
X113723Y043370D01*
X113723Y043020D01*
X113907Y043020D02*
X113907Y043370D01*
X114082Y043195D01*
X113849Y043195D01*
X119183Y039180D02*
X119490Y039180D01*
X119490Y038950D01*
X119337Y039027D01*
X119260Y039027D01*
X119183Y038950D01*
X119183Y038797D01*
X119260Y038720D01*
X119414Y038720D01*
X119490Y038797D01*
X119644Y038797D02*
X119721Y038720D01*
X119951Y038720D01*
X119951Y039180D01*
X119721Y039180D01*
X119644Y039104D01*
X119644Y038797D01*
X120104Y038873D02*
X120104Y039180D01*
X120104Y038873D02*
X120258Y038720D01*
X120411Y038873D01*
X120411Y039180D01*
X120641Y039180D02*
X120872Y038950D01*
X120565Y038950D01*
X120641Y038720D02*
X120641Y039180D01*
X119125Y036830D02*
X119355Y036600D01*
X119048Y036600D01*
X118895Y036523D02*
X118741Y036370D01*
X118588Y036523D01*
X118588Y036830D01*
X118434Y036830D02*
X118204Y036830D01*
X118127Y036754D01*
X118127Y036447D01*
X118204Y036370D01*
X118434Y036370D01*
X118434Y036830D01*
X118895Y036830D02*
X118895Y036523D01*
X119125Y036370D02*
X119125Y036830D01*
X117974Y036600D02*
X117667Y036600D01*
X117744Y036370D02*
X117744Y036830D01*
X117974Y036600D01*
X127054Y035695D02*
X127361Y035695D01*
X127208Y035695D02*
X127208Y036155D01*
X127361Y036002D01*
X127515Y035695D02*
X127822Y035695D01*
X127975Y035695D02*
X128129Y035848D01*
X128052Y035848D02*
X128282Y035848D01*
X128282Y035695D02*
X128282Y036155D01*
X128052Y036155D01*
X127975Y036079D01*
X127975Y035925D01*
X128052Y035848D01*
X127822Y036002D02*
X127668Y036155D01*
X127668Y035695D01*
X128436Y035925D02*
X128743Y035925D01*
X128512Y036155D01*
X128512Y035695D01*
X128927Y035454D02*
X129004Y035530D01*
X129157Y035530D01*
X129234Y035454D01*
X129234Y035377D01*
X129157Y035300D01*
X128927Y035300D01*
X128927Y035147D02*
X128927Y035454D01*
X128927Y035147D02*
X129004Y035070D01*
X129157Y035070D01*
X129234Y035147D01*
X129388Y035070D02*
X129541Y035223D01*
X129464Y035223D02*
X129695Y035223D01*
X129695Y035070D02*
X129695Y035530D01*
X129464Y035530D01*
X129388Y035454D01*
X129388Y035300D01*
X129464Y035223D01*
X129848Y035300D02*
X130155Y035300D01*
X129925Y035530D01*
X129925Y035070D01*
X131342Y035822D02*
X131419Y035745D01*
X131572Y035745D01*
X131649Y035822D01*
X131342Y036129D01*
X131342Y035822D01*
X131342Y036129D02*
X131419Y036205D01*
X131572Y036205D01*
X131649Y036129D01*
X131649Y035822D01*
X131802Y035745D02*
X132109Y035745D01*
X131956Y035745D02*
X131956Y036205D01*
X132109Y036052D01*
X132263Y036129D02*
X132263Y035975D01*
X132339Y035898D01*
X132570Y035898D01*
X132570Y035745D02*
X132570Y036205D01*
X132339Y036205D01*
X132263Y036129D01*
X132416Y035898D02*
X132263Y035745D01*
X132723Y035975D02*
X133030Y035975D01*
X132800Y036205D01*
X132800Y035745D01*
X136292Y034504D02*
X136292Y034427D01*
X136369Y034350D01*
X136522Y034350D01*
X136599Y034427D01*
X136599Y034504D01*
X136522Y034580D01*
X136369Y034580D01*
X136292Y034504D01*
X136369Y034350D02*
X136292Y034273D01*
X136292Y034197D01*
X136369Y034120D01*
X136522Y034120D01*
X136599Y034197D01*
X136599Y034273D01*
X136522Y034350D01*
X136752Y034197D02*
X136752Y034504D01*
X136829Y034580D01*
X137059Y034580D01*
X137059Y034120D01*
X136829Y034120D01*
X136752Y034197D01*
X137213Y034273D02*
X137213Y034580D01*
X137213Y034273D02*
X137366Y034120D01*
X137520Y034273D01*
X137520Y034580D01*
X137750Y034580D02*
X137980Y034350D01*
X137673Y034350D01*
X137750Y034120D02*
X137750Y034580D01*
X128692Y028260D02*
X128385Y028260D01*
X128232Y028183D02*
X128078Y028030D01*
X127925Y028183D01*
X127925Y028490D01*
X127771Y028490D02*
X127541Y028490D01*
X127464Y028414D01*
X127464Y028107D01*
X127541Y028030D01*
X127771Y028030D01*
X127771Y028490D01*
X128232Y028490D02*
X128232Y028183D01*
X128462Y028030D02*
X128462Y028490D01*
X128692Y028260D01*
X127311Y028337D02*
X127157Y028490D01*
X127157Y028030D01*
X127004Y028030D02*
X127311Y028030D01*
X126850Y028030D02*
X126543Y028337D01*
X126543Y028414D01*
X126620Y028490D01*
X126774Y028490D01*
X126850Y028414D01*
X126850Y028030D02*
X126543Y028030D01*
X118763Y027381D02*
X118456Y027381D01*
X118302Y027305D02*
X118149Y027151D01*
X117995Y027305D01*
X117995Y027611D01*
X117842Y027611D02*
X117612Y027611D01*
X117535Y027535D01*
X117535Y027228D01*
X117612Y027151D01*
X117842Y027151D01*
X117842Y027611D01*
X118302Y027611D02*
X118302Y027305D01*
X118532Y027151D02*
X118532Y027611D01*
X118763Y027381D01*
X117381Y027458D02*
X117228Y027611D01*
X117228Y027151D01*
X117381Y027151D02*
X117074Y027151D01*
X116921Y027151D02*
X116614Y027151D01*
X116768Y027151D02*
X116768Y027611D01*
X116921Y027458D01*
X116812Y025705D02*
X116658Y025705D01*
X116582Y025629D01*
X116888Y025322D01*
X116812Y025245D01*
X116658Y025245D01*
X116582Y025322D01*
X116582Y025629D01*
X116812Y025705D02*
X116888Y025629D01*
X116888Y025322D01*
X117042Y025245D02*
X117349Y025245D01*
X117195Y025245D02*
X117195Y025705D01*
X117349Y025552D01*
X117502Y025629D02*
X117579Y025705D01*
X117809Y025705D01*
X117809Y025245D01*
X117579Y025245D01*
X117502Y025322D01*
X117502Y025629D01*
X117963Y025705D02*
X117963Y025398D01*
X118116Y025245D01*
X118270Y025398D01*
X118270Y025705D01*
X118500Y025705D02*
X118730Y025475D01*
X118423Y025475D01*
X118500Y025245D02*
X118500Y025705D01*
X118539Y022680D02*
X118615Y022604D01*
X118615Y022527D01*
X118539Y022450D01*
X118308Y022450D01*
X118308Y022297D02*
X118308Y022604D01*
X118385Y022680D01*
X118539Y022680D01*
X118769Y022604D02*
X118846Y022680D01*
X119076Y022680D01*
X119076Y022220D01*
X118846Y022220D01*
X118769Y022297D01*
X118769Y022604D01*
X118615Y022297D02*
X118539Y022220D01*
X118385Y022220D01*
X118308Y022297D01*
X119229Y022373D02*
X119229Y022680D01*
X119229Y022373D02*
X119383Y022220D01*
X119536Y022373D01*
X119536Y022680D01*
X119766Y022680D02*
X119997Y022450D01*
X119690Y022450D01*
X119766Y022220D02*
X119766Y022680D01*
X120885Y045220D02*
X120808Y045297D01*
X120808Y045373D01*
X120885Y045450D01*
X121115Y045450D01*
X121115Y045297D01*
X121039Y045220D01*
X120885Y045220D01*
X121115Y045450D02*
X120962Y045604D01*
X120808Y045680D01*
X121269Y045604D02*
X121346Y045680D01*
X121576Y045680D01*
X121576Y045220D01*
X121346Y045220D01*
X121269Y045297D01*
X121269Y045604D01*
X121729Y045680D02*
X121729Y045373D01*
X121883Y045220D01*
X122036Y045373D01*
X122036Y045680D01*
X122266Y045680D02*
X122497Y045450D01*
X122190Y045450D01*
X122266Y045220D02*
X122266Y045680D01*
X116655Y049975D02*
X116348Y049975D01*
X116195Y049822D02*
X116118Y049745D01*
X116041Y049745D01*
X115964Y049822D01*
X115964Y050205D01*
X115888Y050205D02*
X116041Y050205D01*
X115734Y049975D02*
X115427Y049975D01*
X115504Y049745D02*
X115504Y050205D01*
X115734Y049975D01*
X116425Y049745D02*
X116425Y050205D01*
X116655Y049975D01*
X114550Y056445D02*
X114550Y056905D01*
X114780Y056675D01*
X114473Y056675D01*
X114320Y056598D02*
X114089Y056598D01*
X114013Y056675D01*
X114013Y056829D01*
X114089Y056905D01*
X114320Y056905D01*
X114320Y056445D01*
X114166Y056598D02*
X114013Y056445D01*
X113859Y056445D02*
X113552Y056445D01*
X113706Y056445D02*
X113706Y056905D01*
X113859Y056752D01*
X113399Y056675D02*
X113092Y056675D01*
X113169Y056445D02*
X113169Y056905D01*
X113399Y056675D01*
X116533Y057054D02*
X116840Y056747D01*
X116840Y056670D01*
X116994Y056670D02*
X117301Y056670D01*
X117454Y056670D02*
X117608Y056823D01*
X117531Y056823D02*
X117761Y056823D01*
X117761Y056670D02*
X117761Y057130D01*
X117531Y057130D01*
X117454Y057054D01*
X117454Y056900D01*
X117531Y056823D01*
X117301Y056977D02*
X117147Y057130D01*
X117147Y056670D01*
X116840Y057130D02*
X116533Y057130D01*
X116533Y057054D01*
X117915Y056900D02*
X118222Y056900D01*
X117991Y057130D01*
X117991Y056670D01*
X103057Y055611D02*
X102750Y055611D01*
X102597Y055458D02*
X102520Y055381D01*
X102443Y055381D01*
X102367Y055458D01*
X102367Y055842D01*
X102443Y055842D02*
X102290Y055842D01*
X102137Y055688D02*
X101983Y055842D01*
X101983Y055381D01*
X101830Y055381D02*
X102137Y055381D01*
X102827Y055381D02*
X102827Y055842D01*
X103057Y055611D01*
X134745Y048951D02*
X134822Y048951D01*
X135129Y049258D01*
X135205Y049258D01*
X135205Y048951D01*
X135129Y048798D02*
X135205Y048721D01*
X135205Y048491D01*
X134745Y048491D01*
X134745Y048721D01*
X134822Y048798D01*
X135129Y048798D01*
X135205Y048337D02*
X134898Y048337D01*
X134745Y048184D01*
X134898Y048030D01*
X135205Y048030D01*
X135205Y047800D02*
X134975Y047570D01*
X134975Y047877D01*
X134745Y047800D02*
X135205Y047800D01*
X069572Y019500D02*
X069265Y019500D01*
X069111Y019423D02*
X068881Y019423D01*
X068804Y019500D01*
X068804Y019654D01*
X068881Y019730D01*
X069111Y019730D01*
X069111Y019270D01*
X068958Y019423D02*
X068804Y019270D01*
X068651Y019270D02*
X068344Y019270D01*
X068302Y019355D02*
X068302Y019431D01*
X068225Y019508D01*
X068072Y019508D01*
X067995Y019431D01*
X067995Y019278D01*
X068072Y019201D01*
X068190Y019270D02*
X067883Y019577D01*
X067883Y019654D01*
X067960Y019730D01*
X068114Y019730D01*
X068190Y019654D01*
X068455Y019508D02*
X068455Y019201D01*
X068225Y019201D01*
X068302Y019355D01*
X068190Y019270D02*
X067883Y019270D01*
X068072Y019048D02*
X068379Y019048D01*
X068455Y018971D01*
X068455Y018741D01*
X067995Y018741D01*
X067995Y018971D01*
X068072Y019048D01*
X068148Y018587D02*
X068455Y018587D01*
X068148Y018587D02*
X067995Y018434D01*
X068148Y018280D01*
X068455Y018280D01*
X068455Y017973D02*
X067995Y017973D01*
X067995Y017820D02*
X067995Y018127D01*
X068302Y017820D02*
X068455Y017973D01*
X068497Y019270D02*
X068497Y019730D01*
X068651Y019577D01*
X069341Y019730D02*
X069572Y019500D01*
X069341Y019270D02*
X069341Y019730D01*
X067652Y021428D02*
X067805Y021582D01*
X067345Y021582D01*
X067345Y021735D02*
X067345Y021428D01*
X067498Y021889D02*
X067345Y022042D01*
X067498Y022196D01*
X067805Y022196D01*
X067805Y022349D02*
X067805Y022579D01*
X067729Y022656D01*
X067422Y022656D01*
X067345Y022579D01*
X067345Y022349D01*
X067805Y022349D01*
X067805Y021889D02*
X067498Y021889D01*
X067345Y022810D02*
X067652Y023117D01*
X067729Y023117D01*
X067805Y023040D01*
X067805Y022886D01*
X067729Y022810D01*
X067345Y022810D02*
X067345Y023117D01*
X066772Y023109D02*
X066772Y023339D01*
X066695Y023416D01*
X066542Y023416D01*
X066465Y023339D01*
X066465Y023109D01*
X066465Y023262D02*
X066312Y023416D01*
X066542Y023569D02*
X066542Y023876D01*
X066772Y023799D02*
X066542Y023569D01*
X066312Y023799D02*
X066772Y023799D01*
X066772Y023109D02*
X066312Y023109D01*
X066312Y022955D02*
X066312Y022648D01*
X066312Y022802D02*
X066772Y022802D01*
X066619Y022648D01*
X064705Y022690D02*
X064245Y022690D01*
X064245Y022537D02*
X064245Y022843D01*
X064552Y022537D02*
X064705Y022690D01*
X064705Y022230D02*
X064245Y022230D01*
X064245Y022383D02*
X064245Y022076D01*
X064322Y021923D02*
X064629Y021923D01*
X064705Y021846D01*
X064705Y021616D01*
X064245Y021616D01*
X064245Y021846D01*
X064322Y021923D01*
X064552Y022076D02*
X064705Y022230D01*
X064705Y021462D02*
X064398Y021462D01*
X064245Y021309D01*
X064398Y021155D01*
X064705Y021155D01*
X064705Y020848D02*
X064245Y020848D01*
X064245Y020695D02*
X064245Y021002D01*
X064552Y020695D02*
X064705Y020848D01*
X065220Y019165D02*
X065680Y019165D01*
X065450Y018935D01*
X065450Y019242D01*
X065297Y018781D02*
X065604Y018781D01*
X065680Y018704D01*
X065680Y018474D01*
X065220Y018474D01*
X065220Y018704D01*
X065297Y018781D01*
X065373Y018321D02*
X065680Y018321D01*
X065373Y018321D02*
X065220Y018167D01*
X065373Y018014D01*
X065680Y018014D01*
X065680Y017707D02*
X065220Y017707D01*
X065220Y017860D02*
X065220Y017553D01*
X065527Y017553D02*
X065680Y017707D01*
X063530Y015710D02*
X062770Y015710D01*
X062770Y015090D02*
X063530Y015090D01*
X063397Y014930D02*
X063397Y014470D01*
X063244Y014470D02*
X063551Y014470D01*
X063704Y014547D02*
X063781Y014470D01*
X063934Y014470D01*
X064011Y014547D01*
X064011Y014854D01*
X063934Y014930D01*
X063781Y014930D01*
X063704Y014854D01*
X063551Y014777D02*
X063397Y014930D01*
X063090Y014700D02*
X062860Y014700D01*
X062783Y014623D01*
X062783Y014547D01*
X062860Y014470D01*
X063014Y014470D01*
X063090Y014547D01*
X063090Y014700D01*
X062937Y014854D01*
X062783Y014930D01*
X064165Y014470D02*
X064472Y014470D01*
X064318Y014470D02*
X064318Y014930D01*
X064472Y014777D01*
X068395Y014515D02*
X069155Y014515D01*
X069155Y013535D02*
X068395Y013535D01*
X068235Y013255D02*
X068465Y013025D01*
X068158Y013025D01*
X068235Y012795D02*
X068235Y013255D01*
X068619Y013179D02*
X068696Y013255D01*
X068849Y013255D01*
X068926Y013179D01*
X068926Y012872D01*
X068849Y012795D01*
X068696Y012795D01*
X068619Y012872D01*
X069079Y013025D02*
X069386Y013025D01*
X069156Y013255D01*
X069156Y012795D01*
X060955Y017423D02*
X060495Y017423D01*
X060495Y017270D02*
X060495Y017577D01*
X060495Y017730D02*
X060955Y017730D01*
X060955Y017961D01*
X060879Y018037D01*
X060725Y018037D01*
X060648Y017961D01*
X060648Y017730D01*
X060648Y017884D02*
X060495Y018037D01*
X060572Y018191D02*
X060495Y018268D01*
X060495Y018421D01*
X060572Y018498D01*
X060648Y018498D01*
X060725Y018421D01*
X060725Y018191D01*
X060572Y018191D01*
X060725Y018191D02*
X060879Y018344D01*
X060955Y018498D01*
X060725Y018651D02*
X060725Y018958D01*
X060495Y018881D02*
X060955Y018881D01*
X060725Y018651D01*
X059880Y018755D02*
X059880Y018986D01*
X059804Y019062D01*
X059650Y019062D01*
X059573Y018986D01*
X059573Y018755D01*
X059420Y018755D02*
X059880Y018755D01*
X059880Y018448D02*
X059420Y018448D01*
X059420Y018295D02*
X059420Y018602D01*
X059573Y018909D02*
X059420Y019062D01*
X059497Y019216D02*
X059420Y019293D01*
X059420Y019446D01*
X059497Y019523D01*
X059573Y019523D01*
X059650Y019446D01*
X059650Y019216D01*
X059497Y019216D01*
X059650Y019216D02*
X059804Y019369D01*
X059880Y019523D01*
X059804Y019676D02*
X059880Y019753D01*
X059880Y019906D01*
X059804Y019983D01*
X059727Y019983D01*
X059420Y019676D01*
X059420Y019983D01*
X059880Y018448D02*
X059727Y018295D01*
X060802Y017270D02*
X060955Y017423D01*
X032822Y033395D02*
X032515Y033395D01*
X032668Y033395D02*
X032668Y033855D01*
X032822Y033702D01*
X032361Y033855D02*
X032361Y033395D01*
X032361Y033548D02*
X032131Y033548D01*
X032054Y033625D01*
X032054Y033779D01*
X032131Y033855D01*
X032361Y033855D01*
X032208Y033548D02*
X032054Y033395D01*
X031901Y033472D02*
X031824Y033395D01*
X031671Y033395D01*
X031594Y033472D01*
X031594Y033548D01*
X031671Y033625D01*
X031747Y033625D01*
X031671Y033625D02*
X031594Y033702D01*
X031594Y033779D01*
X031671Y033855D01*
X031824Y033855D01*
X031901Y033779D01*
X031440Y033625D02*
X031133Y033625D01*
X031210Y033395D02*
X031210Y033855D01*
X031440Y033625D01*
X034044Y038320D02*
X034197Y038320D01*
X034274Y038397D01*
X034427Y038397D02*
X034504Y038320D01*
X034657Y038320D01*
X034734Y038397D01*
X034888Y038320D02*
X035041Y038473D01*
X034964Y038473D02*
X035195Y038473D01*
X035195Y038320D02*
X035195Y038780D01*
X034964Y038780D01*
X034888Y038704D01*
X034888Y038550D01*
X034964Y038473D01*
X034734Y038704D02*
X034657Y038780D01*
X034504Y038780D01*
X034427Y038704D01*
X034427Y038627D01*
X034504Y038550D01*
X034427Y038473D01*
X034427Y038397D01*
X034504Y038550D02*
X034581Y038550D01*
X034274Y038704D02*
X034197Y038780D01*
X034044Y038780D01*
X033967Y038704D01*
X033967Y038627D01*
X034044Y038550D01*
X033967Y038473D01*
X033967Y038397D01*
X034044Y038320D01*
X034044Y038550D02*
X034120Y038550D01*
X035348Y038320D02*
X035655Y038320D01*
X035502Y038320D02*
X035502Y038780D01*
X035655Y038627D01*
X036328Y042072D02*
X036328Y042363D01*
X036847Y042363D02*
X036847Y042063D01*
X037008Y042036D02*
X037468Y042036D01*
X037314Y041883D01*
X037008Y041883D02*
X037008Y042189D01*
X037084Y042343D02*
X037008Y042420D01*
X037008Y042573D01*
X037084Y042650D01*
X037008Y042803D02*
X037008Y043110D01*
X037008Y042957D02*
X037468Y042957D01*
X037314Y042803D01*
X037391Y042650D02*
X037468Y042573D01*
X037468Y042420D01*
X037391Y042343D01*
X037084Y042343D01*
X037008Y043264D02*
X037314Y043571D01*
X037391Y043571D01*
X037468Y043494D01*
X037468Y043340D01*
X037391Y043264D01*
X037008Y043264D02*
X037008Y043571D01*
X031578Y061195D02*
X031425Y061195D01*
X031348Y061272D01*
X031348Y061348D01*
X031425Y061425D01*
X031502Y061425D01*
X031425Y061425D02*
X031348Y061502D01*
X031348Y061579D01*
X031425Y061655D01*
X031578Y061655D01*
X031655Y061579D01*
X031655Y061272D02*
X031578Y061195D01*
X031195Y061195D02*
X031195Y061655D01*
X030964Y061655D01*
X030888Y061579D01*
X030888Y061425D01*
X030964Y061348D01*
X031195Y061348D01*
X031041Y061348D02*
X030888Y061195D01*
X030734Y061272D02*
X030657Y061195D01*
X030504Y061195D01*
X030427Y061272D01*
X030427Y061348D01*
X030504Y061425D01*
X030734Y061425D01*
X030734Y061272D01*
X030734Y061425D02*
X030581Y061579D01*
X030427Y061655D01*
X034835Y064270D02*
X034835Y064730D01*
X035065Y064500D01*
X034758Y064500D01*
X035219Y064500D02*
X035296Y064423D01*
X035526Y064423D01*
X035526Y064270D02*
X035526Y064730D01*
X035296Y064730D01*
X035219Y064654D01*
X035219Y064500D01*
X035372Y064423D02*
X035219Y064270D01*
X035679Y064347D02*
X035756Y064270D01*
X035909Y064270D01*
X035986Y064347D01*
X035833Y064500D02*
X035756Y064500D01*
X035679Y064423D01*
X035679Y064347D01*
X035756Y064500D02*
X035679Y064577D01*
X035679Y064654D01*
X035756Y064730D01*
X035909Y064730D01*
X035986Y064654D01*
X036272Y067095D02*
X036195Y067172D01*
X036195Y067325D01*
X036272Y067402D01*
X036348Y067402D01*
X036425Y067325D01*
X036425Y067248D01*
X036425Y067325D02*
X036502Y067402D01*
X036579Y067402D01*
X036655Y067325D01*
X036655Y067172D01*
X036579Y067095D01*
X036655Y067555D02*
X036655Y067786D01*
X036579Y067862D01*
X036272Y067862D01*
X036195Y067786D01*
X036195Y067555D01*
X036655Y067555D01*
X036502Y068016D02*
X036655Y068169D01*
X036195Y068169D01*
X036195Y068016D02*
X036195Y068323D01*
X048645Y070314D02*
X048952Y070621D01*
X049029Y070621D01*
X049105Y070544D01*
X049105Y070391D01*
X049029Y070314D01*
X048645Y070314D02*
X048645Y070621D01*
X048645Y070774D02*
X049105Y070774D01*
X049105Y071004D01*
X049029Y071081D01*
X048875Y071081D01*
X048798Y071004D01*
X048798Y070774D01*
X048798Y070928D02*
X048645Y071081D01*
X048722Y071235D02*
X048645Y071311D01*
X048645Y071465D01*
X048722Y071542D01*
X048875Y071542D01*
X048952Y071465D01*
X048952Y071388D01*
X048875Y071235D01*
X049105Y071235D01*
X049105Y071542D01*
X048779Y072064D02*
X048855Y072141D01*
X048855Y072294D01*
X048779Y072371D01*
X048702Y072371D01*
X048395Y072064D01*
X048395Y072371D01*
X048395Y072524D02*
X048855Y072524D01*
X048855Y072754D01*
X048779Y072831D01*
X048625Y072831D01*
X048548Y072754D01*
X048548Y072524D01*
X048548Y072678D02*
X048395Y072831D01*
X048472Y072985D02*
X048395Y073061D01*
X048395Y073215D01*
X048472Y073292D01*
X048548Y073292D01*
X048625Y073215D01*
X048625Y072985D01*
X048472Y072985D01*
X048625Y072985D02*
X048779Y073138D01*
X048855Y073292D01*
X050902Y074247D02*
X050979Y074170D01*
X051132Y074170D01*
X051209Y074247D01*
X051363Y074247D02*
X051439Y074170D01*
X051593Y074170D01*
X051670Y074247D01*
X051670Y074554D01*
X051593Y074630D01*
X051439Y074630D01*
X051363Y074554D01*
X051209Y074554D02*
X051132Y074630D01*
X050979Y074630D01*
X050902Y074554D01*
X050902Y074477D01*
X050979Y074400D01*
X050902Y074323D01*
X050902Y074247D01*
X050979Y074400D02*
X051056Y074400D01*
X050938Y074828D02*
X051238Y074828D01*
X051238Y075347D02*
X050947Y075347D01*
X051008Y075608D02*
X050931Y075684D01*
X051008Y075608D02*
X051162Y075608D01*
X051238Y075684D01*
X051238Y075991D01*
X051162Y076068D01*
X051008Y076068D01*
X050931Y075991D01*
X050778Y075914D02*
X050624Y076068D01*
X050624Y075608D01*
X050471Y075608D02*
X050778Y075608D01*
X051392Y075608D02*
X051699Y075608D01*
X051392Y075914D01*
X051392Y075991D01*
X051468Y076068D01*
X051622Y076068D01*
X051699Y075991D01*
X051238Y076765D02*
X050938Y076765D01*
X050947Y077285D02*
X051238Y077285D01*
X051155Y077545D02*
X051002Y077545D01*
X050925Y077622D01*
X050772Y077545D02*
X050465Y077852D01*
X050465Y077929D01*
X050542Y078005D01*
X050695Y078005D01*
X050772Y077929D01*
X050925Y077929D02*
X051002Y078005D01*
X051155Y078005D01*
X051232Y077929D01*
X051232Y077622D01*
X051155Y077545D01*
X051386Y077545D02*
X051693Y077545D01*
X051386Y077852D01*
X051386Y077929D01*
X051462Y078005D01*
X051616Y078005D01*
X051693Y077929D01*
X050772Y077545D02*
X050465Y077545D01*
X053196Y079220D02*
X053503Y079220D01*
X053196Y079527D01*
X053196Y079604D01*
X053273Y079680D01*
X053426Y079680D01*
X053503Y079604D01*
X053656Y079604D02*
X053656Y079450D01*
X053733Y079373D01*
X053963Y079373D01*
X053963Y079220D02*
X053963Y079680D01*
X053733Y079680D01*
X053656Y079604D01*
X053810Y079373D02*
X053656Y079220D01*
X053724Y078805D02*
X053724Y078345D01*
X053571Y078345D02*
X053878Y078345D01*
X054031Y078345D02*
X054185Y078498D01*
X054108Y078498D02*
X054338Y078498D01*
X054338Y078345D02*
X054338Y078805D01*
X054108Y078805D01*
X054031Y078729D01*
X054031Y078575D01*
X054108Y078498D01*
X053878Y078652D02*
X053724Y078805D01*
X054117Y079220D02*
X054424Y079220D01*
X054117Y079527D01*
X054117Y079604D01*
X054193Y079680D01*
X054347Y079680D01*
X054424Y079604D01*
X054568Y078805D02*
X054722Y078805D01*
X054799Y078729D01*
X054568Y078805D02*
X054492Y078729D01*
X054492Y078652D01*
X054799Y078345D01*
X054492Y078345D01*
X054482Y076630D02*
X054252Y076630D01*
X054175Y076554D01*
X054175Y076247D01*
X054252Y076170D01*
X054482Y076170D01*
X054482Y076630D01*
X054636Y076554D02*
X054712Y076630D01*
X054866Y076630D01*
X054943Y076554D01*
X054636Y076554D02*
X054636Y076477D01*
X054943Y076170D01*
X054636Y076170D01*
X054022Y076170D02*
X053715Y076170D01*
X053868Y076170D02*
X053868Y076630D01*
X054022Y076477D01*
X052130Y074554D02*
X052053Y074630D01*
X051900Y074630D01*
X051823Y074554D01*
X051823Y074477D01*
X052130Y074170D01*
X051823Y074170D01*
X051800Y073910D02*
X051500Y073910D01*
X051500Y073390D02*
X051790Y073390D01*
X051815Y071680D02*
X051815Y071450D01*
X051662Y071527D01*
X051585Y071527D01*
X051508Y071450D01*
X051508Y071297D01*
X051585Y071220D01*
X051739Y071220D01*
X051815Y071297D01*
X052046Y071297D02*
X052046Y071680D01*
X052122Y071680D02*
X051969Y071680D01*
X051815Y071680D02*
X051508Y071680D01*
X052046Y071297D02*
X052122Y071220D01*
X052199Y071220D01*
X052276Y071297D01*
X052429Y071220D02*
X052736Y071220D01*
X052429Y071527D01*
X052429Y071604D01*
X052506Y071680D01*
X052659Y071680D01*
X052736Y071604D01*
X053027Y071525D02*
X053334Y071525D01*
X053104Y071755D01*
X053104Y071295D01*
X053488Y071372D02*
X053564Y071295D01*
X053718Y071295D01*
X053795Y071372D01*
X053795Y071679D01*
X053718Y071755D01*
X053564Y071755D01*
X053488Y071679D01*
X053948Y071679D02*
X054025Y071755D01*
X054178Y071755D01*
X054255Y071679D01*
X053948Y071679D02*
X053948Y071602D01*
X054255Y071295D01*
X053948Y071295D01*
X054590Y070530D02*
X054590Y069770D01*
X055210Y069770D02*
X055210Y070530D01*
X055300Y071140D02*
X055000Y071140D01*
X055010Y071660D02*
X055300Y071660D01*
X052586Y070829D02*
X052509Y070905D01*
X052356Y070905D01*
X052279Y070829D01*
X052279Y070752D01*
X052586Y070445D01*
X052279Y070445D01*
X052126Y070522D02*
X052049Y070445D01*
X051972Y070445D01*
X051896Y070522D01*
X051896Y070905D01*
X051972Y070905D02*
X051819Y070905D01*
X051665Y070829D02*
X051589Y070905D01*
X051435Y070905D01*
X051358Y070829D01*
X051358Y070752D01*
X051435Y070675D01*
X051358Y070598D01*
X051358Y070522D01*
X051435Y070445D01*
X051589Y070445D01*
X051665Y070522D01*
X051512Y070675D02*
X051435Y070675D01*
X051346Y069930D02*
X051576Y069930D01*
X051576Y069470D01*
X051346Y069470D01*
X051269Y069547D01*
X051269Y069854D01*
X051346Y069930D01*
X051115Y069854D02*
X051039Y069930D01*
X050885Y069930D01*
X050808Y069854D01*
X050808Y069777D01*
X051115Y069470D01*
X050808Y069470D01*
X051729Y069623D02*
X051883Y069470D01*
X052036Y069623D01*
X052036Y069930D01*
X052190Y069854D02*
X052266Y069930D01*
X052420Y069930D01*
X052497Y069854D01*
X052190Y069854D02*
X052190Y069777D01*
X052497Y069470D01*
X052190Y069470D01*
X051729Y069623D02*
X051729Y069930D01*
X052245Y067905D02*
X052245Y067445D01*
X052092Y067445D02*
X052399Y067445D01*
X052552Y067522D02*
X052629Y067445D01*
X052782Y067445D01*
X052859Y067522D01*
X053013Y067445D02*
X053166Y067598D01*
X053089Y067598D02*
X053320Y067598D01*
X053320Y067445D02*
X053320Y067905D01*
X053089Y067905D01*
X053013Y067829D01*
X053013Y067675D01*
X053089Y067598D01*
X052859Y067829D02*
X052782Y067905D01*
X052629Y067905D01*
X052552Y067829D01*
X052552Y067752D01*
X052629Y067675D01*
X052552Y067598D01*
X052552Y067522D01*
X052629Y067675D02*
X052706Y067675D01*
X052399Y067752D02*
X052245Y067905D01*
X053473Y067445D02*
X053780Y067445D01*
X053627Y067445D02*
X053627Y067905D01*
X053780Y067752D01*
X054229Y068420D02*
X054382Y068420D01*
X054459Y068497D01*
X054459Y068650D02*
X054306Y068727D01*
X054229Y068727D01*
X054152Y068650D01*
X054152Y068497D01*
X054229Y068420D01*
X054459Y068650D02*
X054459Y068880D01*
X054152Y068880D01*
X054613Y068804D02*
X054689Y068880D01*
X054843Y068880D01*
X054920Y068804D01*
X054920Y068497D01*
X054843Y068420D01*
X054689Y068420D01*
X054613Y068497D01*
X055073Y068420D02*
X055380Y068420D01*
X055073Y068727D01*
X055073Y068804D01*
X055150Y068880D01*
X055303Y068880D01*
X055380Y068804D01*
X058435Y067405D02*
X058665Y067175D01*
X058358Y067175D01*
X058435Y066945D02*
X058435Y067405D01*
X058819Y067405D02*
X058972Y067405D01*
X058896Y067405D02*
X058896Y067022D01*
X058972Y066945D01*
X059049Y066945D01*
X059126Y067022D01*
X059279Y066945D02*
X059586Y066945D01*
X059279Y067252D01*
X059279Y067329D01*
X059356Y067405D01*
X059509Y067405D01*
X059586Y067329D01*
X061408Y067170D02*
X061715Y067170D01*
X061562Y067170D02*
X061562Y067630D01*
X061715Y067477D01*
X061869Y067630D02*
X062176Y067630D01*
X062329Y067630D02*
X062329Y067323D01*
X062483Y067170D01*
X062636Y067323D01*
X062636Y067630D01*
X062790Y067554D02*
X062866Y067630D01*
X063020Y067630D01*
X063097Y067554D01*
X062790Y067554D02*
X062790Y067477D01*
X063097Y067170D01*
X062790Y067170D01*
X062022Y067170D02*
X062022Y067630D01*
X062520Y070064D02*
X062827Y070371D01*
X062904Y070371D01*
X062980Y070294D01*
X062980Y070141D01*
X062904Y070064D01*
X062520Y070064D02*
X062520Y070371D01*
X062520Y070524D02*
X062980Y070524D01*
X062980Y070754D01*
X062904Y070831D01*
X062750Y070831D01*
X062673Y070754D01*
X062673Y070524D01*
X062673Y070678D02*
X062520Y070831D01*
X062597Y070985D02*
X062520Y071061D01*
X062520Y071215D01*
X062597Y071292D01*
X062673Y071292D01*
X062750Y071215D01*
X062750Y071138D01*
X062750Y071215D02*
X062827Y071292D01*
X062904Y071292D01*
X062980Y071215D01*
X062980Y071061D01*
X062904Y070985D01*
X063030Y073870D02*
X062723Y074177D01*
X062723Y074254D01*
X062800Y074330D01*
X062953Y074330D01*
X063030Y074254D01*
X063030Y073870D02*
X062723Y073870D01*
X062570Y073947D02*
X062493Y073870D01*
X062416Y073870D01*
X062339Y073947D01*
X062339Y074330D01*
X062263Y074330D02*
X062416Y074330D01*
X062109Y074254D02*
X062032Y074330D01*
X061879Y074330D01*
X061802Y074254D01*
X061802Y074177D01*
X062109Y073870D01*
X061802Y073870D01*
X058405Y076120D02*
X058098Y076427D01*
X058098Y076504D01*
X058175Y076580D01*
X058328Y076580D01*
X058405Y076504D01*
X058405Y076120D02*
X058098Y076120D01*
X057945Y076197D02*
X057868Y076120D01*
X057791Y076120D01*
X057714Y076197D01*
X057714Y076580D01*
X057638Y076580D02*
X057791Y076580D01*
X057484Y076427D02*
X057331Y076580D01*
X057331Y076120D01*
X057484Y076120D02*
X057177Y076120D01*
X050497Y079970D02*
X050190Y080277D01*
X050190Y080354D01*
X050266Y080430D01*
X050420Y080430D01*
X050497Y080354D01*
X050497Y079970D02*
X050190Y079970D01*
X050036Y080123D02*
X049883Y079970D01*
X049729Y080123D01*
X049729Y080430D01*
X049576Y080430D02*
X049346Y080430D01*
X049269Y080354D01*
X049269Y080047D01*
X049346Y079970D01*
X049576Y079970D01*
X049576Y080430D01*
X050036Y080430D02*
X050036Y080123D01*
X049115Y079970D02*
X048808Y079970D01*
X048962Y079970D02*
X048962Y080430D01*
X049115Y080277D01*
X031530Y076204D02*
X031453Y076280D01*
X031300Y076280D01*
X031223Y076204D01*
X031223Y076127D01*
X031300Y076050D01*
X031223Y075973D01*
X031223Y075897D01*
X031300Y075820D01*
X031453Y075820D01*
X031530Y075897D01*
X031377Y076050D02*
X031300Y076050D01*
X031070Y075973D02*
X030839Y075973D01*
X030763Y076050D01*
X030763Y076204D01*
X030839Y076280D01*
X031070Y076280D01*
X031070Y075820D01*
X030916Y075973D02*
X030763Y075820D01*
X030609Y075897D02*
X030532Y075820D01*
X030379Y075820D01*
X030302Y075897D01*
X030302Y076050D01*
X030379Y076127D01*
X030456Y076127D01*
X030609Y076050D01*
X030609Y076280D01*
X030302Y076280D01*
X052133Y062779D02*
X052440Y062472D01*
X052364Y062395D01*
X052210Y062395D01*
X052133Y062472D01*
X052133Y062779D01*
X052210Y062855D01*
X052364Y062855D01*
X052440Y062779D01*
X052440Y062472D01*
X052594Y062472D02*
X052671Y062395D01*
X052824Y062395D01*
X052901Y062472D01*
X053054Y062395D02*
X053208Y062548D01*
X053131Y062548D02*
X053361Y062548D01*
X053361Y062395D02*
X053361Y062855D01*
X053131Y062855D01*
X053054Y062779D01*
X053054Y062625D01*
X053131Y062548D01*
X052901Y062779D02*
X052824Y062855D01*
X052671Y062855D01*
X052594Y062779D01*
X052594Y062702D01*
X052671Y062625D01*
X052594Y062548D01*
X052594Y062472D01*
X052671Y062625D02*
X052747Y062625D01*
X053515Y062395D02*
X053822Y062395D01*
X053668Y062395D02*
X053668Y062855D01*
X053822Y062702D01*
X067092Y056204D02*
X067169Y056280D01*
X067322Y056280D01*
X067399Y056204D01*
X067552Y056204D02*
X067552Y056127D01*
X067629Y056050D01*
X067552Y055973D01*
X067552Y055897D01*
X067629Y055820D01*
X067782Y055820D01*
X067859Y055897D01*
X068013Y055820D02*
X068166Y055973D01*
X068089Y055973D02*
X068320Y055973D01*
X068320Y055820D02*
X068320Y056280D01*
X068089Y056280D01*
X068013Y056204D01*
X068013Y056050D01*
X068089Y055973D01*
X067859Y056204D02*
X067782Y056280D01*
X067629Y056280D01*
X067552Y056204D01*
X067629Y056050D02*
X067706Y056050D01*
X067399Y055820D02*
X067092Y056127D01*
X067092Y056204D01*
X067092Y055820D02*
X067399Y055820D01*
X068473Y055820D02*
X068780Y055820D01*
X068627Y055820D02*
X068627Y056280D01*
X068780Y056127D01*
D15*
X036588Y042500D03*
X036588Y041930D03*
X055150Y034057D03*
X055150Y033487D03*
X056025Y033487D03*
X056025Y034057D03*
X056307Y028875D03*
X056307Y028305D03*
X070338Y027875D03*
X070338Y027305D03*
X077088Y026000D03*
X077088Y025430D03*
X078088Y025430D03*
X078088Y026000D03*
X078275Y032237D03*
X078275Y032807D03*
X074525Y032800D03*
X074525Y033370D03*
X031900Y017932D03*
X031900Y017362D03*
D16*
X052666Y027714D02*
X054634Y027714D01*
X054634Y031336D01*
X052666Y031336D01*
X052666Y027714D01*
X056666Y028086D02*
X056666Y024464D01*
X058634Y024464D01*
X058634Y028086D01*
X056666Y028086D01*
X056666Y028214D02*
X058634Y028214D01*
X058634Y031836D01*
X056666Y031836D01*
X056666Y028214D01*
X054634Y031464D02*
X052666Y031464D01*
X052666Y035086D01*
X054634Y035086D01*
X054634Y031464D01*
X056666Y031964D02*
X058634Y031964D01*
X058634Y035586D01*
X056666Y035586D01*
X056666Y031964D01*
X065416Y031464D02*
X067384Y031464D01*
X067384Y035086D01*
X065416Y035086D01*
X065416Y031464D01*
X065416Y031336D02*
X065416Y027714D01*
X067384Y027714D01*
X067384Y031336D01*
X065416Y031336D01*
X070353Y031651D02*
X072322Y031651D01*
X072322Y035274D01*
X070353Y035274D01*
X070353Y031651D01*
X070603Y031399D02*
X070603Y027776D01*
X072572Y027776D01*
X072572Y031399D01*
X070603Y031399D01*
X070478Y027524D02*
X070478Y023901D01*
X072447Y023901D01*
X072447Y027524D01*
X070478Y027524D01*
X067384Y027586D02*
X065416Y027586D01*
X065416Y023964D01*
X067384Y023964D01*
X067384Y027586D01*
X120875Y058385D02*
X121665Y059175D01*
X120865Y060415D02*
X121665Y061165D01*
X120875Y062385D02*
X121665Y063175D01*
X120865Y064415D02*
X121665Y065165D01*
X136145Y066895D02*
X136275Y067025D01*
X136775Y067025D02*
X136895Y066895D01*
X137045Y073735D02*
X136055Y073735D01*
X136055Y073935D01*
X136055Y074525D01*
X136055Y075315D01*
X137045Y075315D01*
X137045Y075115D01*
X137045Y074525D01*
X137045Y073735D01*
X042306Y069669D02*
X042306Y068901D01*
X040494Y068901D01*
X040494Y069669D01*
X042306Y069669D01*
X041715Y069275D02*
X041302Y069570D01*
X041302Y068999D01*
X041715Y069275D01*
X042181Y072901D02*
X040369Y072901D01*
X040369Y073669D01*
X042181Y073669D01*
X042181Y072901D01*
X041590Y073275D02*
X041177Y072999D01*
X041177Y073570D01*
X041590Y073275D01*
D17*
X041610Y073275D03*
X041735Y069275D03*
X057650Y032771D03*
X053650Y032271D03*
X057650Y029021D03*
X057650Y027279D03*
X053650Y028521D03*
X066400Y028521D03*
X066400Y026779D03*
X071463Y024709D03*
X071588Y028584D03*
X071338Y032459D03*
X066400Y032271D03*
D18*
X065553Y033338D03*
X064873Y033338D03*
X056740Y034775D03*
X056060Y034775D03*
X055115Y034775D03*
X054435Y034775D03*
X053115Y031650D03*
X052435Y031650D03*
X055560Y022150D03*
X056240Y022150D03*
X067810Y020150D03*
X068490Y020150D03*
X075623Y025088D03*
X076303Y025088D03*
X078998Y025088D03*
X079678Y025088D03*
X035240Y037775D03*
X034560Y037775D03*
X068060Y055400D03*
X068740Y055400D03*
X052740Y063275D03*
X052060Y063275D03*
X053060Y067025D03*
X053740Y067025D03*
X035365Y065150D03*
X034685Y065150D03*
X031615Y060775D03*
X030935Y060775D03*
X030810Y075400D03*
X031490Y075400D03*
X114060Y055525D03*
X114740Y055525D03*
X129185Y034025D03*
X129865Y034025D03*
D19*
X069268Y035025D03*
X068158Y035025D03*
X059580Y031900D03*
X058470Y031900D03*
D20*
X058525Y029865D03*
X058525Y029185D03*
X056275Y026990D03*
X056275Y026310D03*
X052775Y029810D03*
X052775Y030490D03*
X044275Y025115D03*
X044275Y024435D03*
X049275Y020990D03*
X049275Y020310D03*
X050275Y020240D03*
X050275Y019560D03*
X036900Y025310D03*
X036900Y025990D03*
X032900Y033435D03*
X032900Y034115D03*
X069338Y029303D03*
X069338Y028623D03*
X074963Y030623D03*
X074963Y031303D03*
X075775Y033060D03*
X075775Y033740D03*
X077838Y030053D03*
X077838Y029373D03*
X104400Y044185D03*
X104400Y044865D03*
X062025Y070435D03*
X062025Y071115D03*
X049525Y070935D03*
X049525Y071615D03*
X049275Y072685D03*
X049275Y073365D03*
D21*
X042289Y073881D02*
X042214Y073806D01*
X042064Y073806D01*
X041989Y073881D01*
X041989Y073956D01*
X042064Y074031D01*
X042139Y074031D01*
X042064Y074031D02*
X041989Y074107D01*
X041989Y074182D01*
X042064Y074257D01*
X042214Y074257D01*
X042289Y074182D01*
X041829Y074257D02*
X041829Y073956D01*
X041679Y073806D01*
X041529Y073956D01*
X041529Y074257D01*
X041369Y074257D02*
X041143Y074257D01*
X041068Y074182D01*
X041068Y073881D01*
X041143Y073806D01*
X041369Y073806D01*
X041369Y074257D01*
X041275Y074025D02*
X027275Y074025D01*
X027275Y058525D01*
X041275Y058525D01*
X041275Y074025D01*
X040908Y074031D02*
X040758Y074107D01*
X040683Y074107D01*
X040608Y074031D01*
X040608Y073881D01*
X040683Y073806D01*
X040833Y073806D01*
X040908Y073881D01*
X040908Y074031D02*
X040908Y074257D01*
X040608Y074257D01*
X040733Y070257D02*
X040883Y070182D01*
X041033Y070031D01*
X040808Y070031D01*
X040733Y069956D01*
X040733Y069881D01*
X040808Y069806D01*
X040958Y069806D01*
X041033Y069881D01*
X041033Y070031D01*
X041193Y069881D02*
X041193Y070182D01*
X041268Y070257D01*
X041494Y070257D01*
X041494Y069806D01*
X041268Y069806D01*
X041193Y069881D01*
X041654Y069956D02*
X041654Y070257D01*
X041954Y070257D02*
X041954Y069956D01*
X041804Y069806D01*
X041654Y069956D01*
X042114Y069956D02*
X042114Y069881D01*
X042189Y069806D01*
X042339Y069806D01*
X042414Y069881D01*
X042264Y070031D02*
X042189Y070031D01*
X042114Y069956D01*
X042189Y070031D02*
X042114Y070107D01*
X042114Y070182D01*
X042189Y070257D01*
X042339Y070257D01*
X042414Y070182D01*
X058841Y075875D02*
X059142Y075875D01*
X058841Y076175D01*
X058841Y076250D01*
X058917Y076325D01*
X059067Y076325D01*
X059142Y076250D01*
X059302Y076250D02*
X059377Y076325D01*
X059602Y076325D01*
X059602Y075875D01*
X059377Y075875D01*
X059302Y075950D01*
X059302Y076250D01*
X059762Y076250D02*
X059837Y076325D01*
X059987Y076325D01*
X060063Y076250D01*
X059762Y076250D02*
X059762Y076175D01*
X060063Y075875D01*
X059762Y075875D01*
X101200Y044015D02*
X101200Y043715D01*
X101200Y043865D02*
X101650Y043865D01*
X101500Y043715D01*
X104673Y043274D02*
X104400Y043251D01*
X104400Y043251D01*
X104127Y043274D01*
X104126Y043275D01*
X104131Y043307D01*
X104140Y043339D01*
X104152Y043369D01*
X104168Y043397D01*
X104187Y043424D01*
X104209Y043448D01*
X104233Y043469D01*
X104260Y043487D01*
X104289Y043502D01*
X104320Y043513D01*
X104351Y043521D01*
X104384Y043525D01*
X104416Y043525D01*
X104449Y043521D01*
X104480Y043513D01*
X104511Y043502D01*
X104540Y043487D01*
X104567Y043469D01*
X104591Y043448D01*
X104613Y043424D01*
X104632Y043397D01*
X104648Y043369D01*
X104660Y043339D01*
X104669Y043307D01*
X104674Y043275D01*
X104627Y043275D01*
X104622Y043303D01*
X104613Y043331D01*
X104601Y043357D01*
X104586Y043382D01*
X104568Y043405D01*
X104547Y043425D01*
X104523Y043442D01*
X104498Y043456D01*
X104471Y043467D01*
X104443Y043474D01*
X104414Y043478D01*
X104386Y043478D01*
X104357Y043474D01*
X104329Y043467D01*
X104302Y043456D01*
X104277Y043442D01*
X104253Y043425D01*
X104232Y043405D01*
X104214Y043382D01*
X104199Y043357D01*
X104187Y043331D01*
X104178Y043303D01*
X104173Y043275D01*
X104221Y043275D01*
X104226Y043300D01*
X104235Y043325D01*
X104247Y043347D01*
X104263Y043368D01*
X104281Y043387D01*
X104302Y043402D01*
X104325Y043415D01*
X104349Y043424D01*
X104374Y043429D01*
X104400Y043431D01*
X104426Y043429D01*
X104451Y043424D01*
X104475Y043415D01*
X104498Y043402D01*
X104519Y043387D01*
X104537Y043368D01*
X104553Y043347D01*
X104565Y043325D01*
X104574Y043300D01*
X104579Y043275D01*
X104532Y043275D01*
X104526Y043296D01*
X104517Y043316D01*
X104505Y043334D01*
X104490Y043350D01*
X104472Y043363D01*
X104453Y043373D01*
X104432Y043380D01*
X104411Y043384D01*
X104389Y043384D01*
X104368Y043380D01*
X104347Y043373D01*
X104328Y043363D01*
X104310Y043350D01*
X104295Y043334D01*
X104283Y043316D01*
X104274Y043296D01*
X104268Y043275D01*
X104317Y043275D01*
X104323Y043291D01*
X104332Y043305D01*
X104345Y043317D01*
X104359Y043327D01*
X104375Y043333D01*
X104391Y043337D01*
X104409Y043337D01*
X104425Y043333D01*
X104441Y043327D01*
X104455Y043317D01*
X104468Y043305D01*
X104477Y043291D01*
X104483Y043275D01*
X104432Y043273D01*
X104425Y043281D01*
X104416Y043287D01*
X104405Y043290D01*
X104395Y043290D01*
X104384Y043287D01*
X104375Y043281D01*
X104368Y043273D01*
X104127Y043026D02*
X104400Y043049D01*
X104400Y043049D01*
X104673Y043026D01*
X104674Y043025D01*
X104669Y042993D01*
X104660Y042961D01*
X104648Y042931D01*
X104632Y042903D01*
X104613Y042876D01*
X104591Y042852D01*
X104567Y042831D01*
X104540Y042813D01*
X104511Y042798D01*
X104480Y042787D01*
X104449Y042779D01*
X104416Y042775D01*
X104384Y042775D01*
X104351Y042779D01*
X104320Y042787D01*
X104289Y042798D01*
X104260Y042813D01*
X104233Y042831D01*
X104209Y042852D01*
X104187Y042876D01*
X104168Y042903D01*
X104152Y042931D01*
X104140Y042961D01*
X104131Y042993D01*
X104126Y043025D01*
X104173Y043025D01*
X104178Y042997D01*
X104187Y042969D01*
X104199Y042943D01*
X104214Y042918D01*
X104232Y042895D01*
X104253Y042875D01*
X104277Y042858D01*
X104302Y042844D01*
X104329Y042833D01*
X104357Y042826D01*
X104386Y042822D01*
X104414Y042822D01*
X104443Y042826D01*
X104471Y042833D01*
X104498Y042844D01*
X104523Y042858D01*
X104547Y042875D01*
X104568Y042895D01*
X104586Y042918D01*
X104601Y042943D01*
X104613Y042969D01*
X104622Y042997D01*
X104627Y043025D01*
X104579Y043025D01*
X104574Y043000D01*
X104565Y042975D01*
X104553Y042953D01*
X104537Y042932D01*
X104519Y042913D01*
X104498Y042898D01*
X104475Y042885D01*
X104451Y042876D01*
X104426Y042871D01*
X104400Y042869D01*
X104374Y042871D01*
X104349Y042876D01*
X104325Y042885D01*
X104302Y042898D01*
X104281Y042913D01*
X104263Y042932D01*
X104247Y042953D01*
X104235Y042975D01*
X104226Y043000D01*
X104221Y043025D01*
X104268Y043025D01*
X104274Y043004D01*
X104283Y042984D01*
X104295Y042966D01*
X104310Y042950D01*
X104328Y042937D01*
X104347Y042927D01*
X104368Y042920D01*
X104389Y042916D01*
X104411Y042916D01*
X104432Y042920D01*
X104453Y042927D01*
X104472Y042937D01*
X104490Y042950D01*
X104505Y042966D01*
X104517Y042984D01*
X104526Y043004D01*
X104532Y043025D01*
X104483Y043025D01*
X104477Y043009D01*
X104468Y042995D01*
X104455Y042983D01*
X104441Y042973D01*
X104425Y042967D01*
X104409Y042963D01*
X104391Y042963D01*
X104375Y042967D01*
X104359Y042973D01*
X104345Y042983D01*
X104332Y042995D01*
X104323Y043009D01*
X104317Y043025D01*
X104368Y043027D01*
X104375Y043019D01*
X104384Y043013D01*
X104395Y043010D01*
X104405Y043010D01*
X104416Y043013D01*
X104425Y043019D01*
X104432Y043027D01*
X104407Y042300D02*
X104257Y042300D01*
X104332Y042300D02*
X104332Y041850D01*
X104407Y041850D02*
X104257Y041850D01*
X104642Y041925D02*
X104642Y042300D01*
X104717Y042300D02*
X104567Y042300D01*
X104642Y041925D02*
X104717Y041850D01*
X104792Y041850D01*
X104867Y041925D01*
X104423Y040774D02*
X104150Y040751D01*
X104150Y040751D01*
X103877Y040774D01*
X103876Y040775D01*
X103881Y040807D01*
X103890Y040839D01*
X103902Y040869D01*
X103918Y040897D01*
X103937Y040924D01*
X103959Y040948D01*
X103983Y040969D01*
X104010Y040987D01*
X104039Y041002D01*
X104070Y041013D01*
X104101Y041021D01*
X104134Y041025D01*
X104166Y041025D01*
X104199Y041021D01*
X104230Y041013D01*
X104261Y041002D01*
X104290Y040987D01*
X104317Y040969D01*
X104341Y040948D01*
X104363Y040924D01*
X104382Y040897D01*
X104398Y040869D01*
X104410Y040839D01*
X104419Y040807D01*
X104424Y040775D01*
X104377Y040775D01*
X104372Y040803D01*
X104363Y040831D01*
X104351Y040857D01*
X104336Y040882D01*
X104318Y040905D01*
X104297Y040925D01*
X104273Y040942D01*
X104248Y040956D01*
X104221Y040967D01*
X104193Y040974D01*
X104164Y040978D01*
X104136Y040978D01*
X104107Y040974D01*
X104079Y040967D01*
X104052Y040956D01*
X104027Y040942D01*
X104003Y040925D01*
X103982Y040905D01*
X103964Y040882D01*
X103949Y040857D01*
X103937Y040831D01*
X103928Y040803D01*
X103923Y040775D01*
X103971Y040775D01*
X103976Y040800D01*
X103985Y040825D01*
X103997Y040847D01*
X104013Y040868D01*
X104031Y040887D01*
X104052Y040902D01*
X104075Y040915D01*
X104099Y040924D01*
X104124Y040929D01*
X104150Y040931D01*
X104176Y040929D01*
X104201Y040924D01*
X104225Y040915D01*
X104248Y040902D01*
X104269Y040887D01*
X104287Y040868D01*
X104303Y040847D01*
X104315Y040825D01*
X104324Y040800D01*
X104329Y040775D01*
X104282Y040775D01*
X104276Y040796D01*
X104267Y040816D01*
X104255Y040834D01*
X104240Y040850D01*
X104222Y040863D01*
X104203Y040873D01*
X104182Y040880D01*
X104161Y040884D01*
X104139Y040884D01*
X104118Y040880D01*
X104097Y040873D01*
X104078Y040863D01*
X104060Y040850D01*
X104045Y040834D01*
X104033Y040816D01*
X104024Y040796D01*
X104018Y040775D01*
X104067Y040775D01*
X104073Y040791D01*
X104082Y040805D01*
X104095Y040817D01*
X104109Y040827D01*
X104125Y040833D01*
X104141Y040837D01*
X104159Y040837D01*
X104175Y040833D01*
X104191Y040827D01*
X104205Y040817D01*
X104218Y040805D01*
X104227Y040791D01*
X104233Y040775D01*
X104182Y040773D01*
X104175Y040781D01*
X104166Y040787D01*
X104155Y040790D01*
X104145Y040790D01*
X104134Y040787D01*
X104125Y040781D01*
X104118Y040773D01*
X103877Y040526D02*
X104150Y040549D01*
X104150Y040549D01*
X104423Y040526D01*
X104424Y040525D01*
X104419Y040493D01*
X104410Y040461D01*
X104398Y040431D01*
X104382Y040403D01*
X104363Y040376D01*
X104341Y040352D01*
X104317Y040331D01*
X104290Y040313D01*
X104261Y040298D01*
X104230Y040287D01*
X104199Y040279D01*
X104166Y040275D01*
X104134Y040275D01*
X104101Y040279D01*
X104070Y040287D01*
X104039Y040298D01*
X104010Y040313D01*
X103983Y040331D01*
X103959Y040352D01*
X103937Y040376D01*
X103918Y040403D01*
X103902Y040431D01*
X103890Y040461D01*
X103881Y040493D01*
X103876Y040525D01*
X103923Y040525D01*
X103928Y040497D01*
X103937Y040469D01*
X103949Y040443D01*
X103964Y040418D01*
X103982Y040395D01*
X104003Y040375D01*
X104027Y040358D01*
X104052Y040344D01*
X104079Y040333D01*
X104107Y040326D01*
X104136Y040322D01*
X104164Y040322D01*
X104193Y040326D01*
X104221Y040333D01*
X104248Y040344D01*
X104273Y040358D01*
X104297Y040375D01*
X104318Y040395D01*
X104336Y040418D01*
X104351Y040443D01*
X104363Y040469D01*
X104372Y040497D01*
X104377Y040525D01*
X104329Y040525D01*
X104324Y040500D01*
X104315Y040475D01*
X104303Y040453D01*
X104287Y040432D01*
X104269Y040413D01*
X104248Y040398D01*
X104225Y040385D01*
X104201Y040376D01*
X104176Y040371D01*
X104150Y040369D01*
X104124Y040371D01*
X104099Y040376D01*
X104075Y040385D01*
X104052Y040398D01*
X104031Y040413D01*
X104013Y040432D01*
X103997Y040453D01*
X103985Y040475D01*
X103976Y040500D01*
X103971Y040525D01*
X104018Y040525D01*
X104024Y040504D01*
X104033Y040484D01*
X104045Y040466D01*
X104060Y040450D01*
X104078Y040437D01*
X104097Y040427D01*
X104118Y040420D01*
X104139Y040416D01*
X104161Y040416D01*
X104182Y040420D01*
X104203Y040427D01*
X104222Y040437D01*
X104240Y040450D01*
X104255Y040466D01*
X104267Y040484D01*
X104276Y040504D01*
X104282Y040525D01*
X104233Y040525D01*
X104227Y040509D01*
X104218Y040495D01*
X104205Y040483D01*
X104191Y040473D01*
X104175Y040467D01*
X104159Y040463D01*
X104141Y040463D01*
X104125Y040467D01*
X104109Y040473D01*
X104095Y040483D01*
X104082Y040495D01*
X104073Y040509D01*
X104067Y040525D01*
X104118Y040527D01*
X104125Y040519D01*
X104134Y040513D01*
X104145Y040510D01*
X104155Y040510D01*
X104166Y040513D01*
X104175Y040519D01*
X104182Y040527D01*
X104085Y039800D02*
X104310Y039800D01*
X104310Y039350D01*
X104085Y039350D01*
X104010Y039425D01*
X104010Y039725D01*
X104085Y039800D01*
X104471Y039800D02*
X104621Y039800D01*
X104546Y039800D02*
X104546Y039425D01*
X104621Y039350D01*
X104696Y039350D01*
X104771Y039425D01*
X107135Y038913D02*
X107135Y038838D01*
X107210Y038763D01*
X107135Y038688D01*
X107135Y038613D01*
X107210Y038538D01*
X107360Y038538D01*
X107435Y038613D01*
X107596Y038613D02*
X107596Y038913D01*
X107671Y038988D01*
X107896Y038988D01*
X107896Y038538D01*
X107671Y038538D01*
X107596Y038613D01*
X107435Y038913D02*
X107360Y038988D01*
X107210Y038988D01*
X107135Y038913D01*
X107210Y038763D02*
X107285Y038763D01*
X108056Y038988D02*
X108206Y038988D01*
X108131Y038988D02*
X108131Y038613D01*
X108206Y038538D01*
X108281Y038538D01*
X108356Y038613D01*
X106940Y039776D02*
X107213Y039799D01*
X107213Y039799D01*
X107486Y039776D01*
X107487Y039775D01*
X107482Y039743D01*
X107473Y039711D01*
X107461Y039681D01*
X107445Y039653D01*
X107426Y039626D01*
X107404Y039602D01*
X107380Y039581D01*
X107353Y039563D01*
X107324Y039548D01*
X107293Y039537D01*
X107262Y039529D01*
X107229Y039525D01*
X107197Y039525D01*
X107164Y039529D01*
X107133Y039537D01*
X107102Y039548D01*
X107073Y039563D01*
X107046Y039581D01*
X107022Y039602D01*
X107000Y039626D01*
X106981Y039653D01*
X106965Y039681D01*
X106953Y039711D01*
X106944Y039743D01*
X106939Y039775D01*
X106986Y039775D01*
X106991Y039747D01*
X107000Y039719D01*
X107012Y039693D01*
X107027Y039668D01*
X107045Y039645D01*
X107066Y039625D01*
X107090Y039608D01*
X107115Y039594D01*
X107142Y039583D01*
X107170Y039576D01*
X107199Y039572D01*
X107227Y039572D01*
X107256Y039576D01*
X107284Y039583D01*
X107311Y039594D01*
X107336Y039608D01*
X107360Y039625D01*
X107381Y039645D01*
X107399Y039668D01*
X107414Y039693D01*
X107426Y039719D01*
X107435Y039747D01*
X107440Y039775D01*
X107392Y039775D01*
X107387Y039750D01*
X107378Y039725D01*
X107366Y039703D01*
X107350Y039682D01*
X107332Y039663D01*
X107311Y039648D01*
X107288Y039635D01*
X107264Y039626D01*
X107239Y039621D01*
X107213Y039619D01*
X107187Y039621D01*
X107162Y039626D01*
X107138Y039635D01*
X107115Y039648D01*
X107094Y039663D01*
X107076Y039682D01*
X107060Y039703D01*
X107048Y039725D01*
X107039Y039750D01*
X107034Y039775D01*
X107081Y039775D01*
X107087Y039754D01*
X107096Y039734D01*
X107108Y039716D01*
X107123Y039700D01*
X107141Y039687D01*
X107160Y039677D01*
X107181Y039670D01*
X107202Y039666D01*
X107224Y039666D01*
X107245Y039670D01*
X107266Y039677D01*
X107285Y039687D01*
X107303Y039700D01*
X107318Y039716D01*
X107330Y039734D01*
X107339Y039754D01*
X107345Y039775D01*
X107296Y039775D01*
X107290Y039759D01*
X107281Y039745D01*
X107268Y039733D01*
X107254Y039723D01*
X107238Y039717D01*
X107222Y039713D01*
X107204Y039713D01*
X107188Y039717D01*
X107172Y039723D01*
X107158Y039733D01*
X107145Y039745D01*
X107136Y039759D01*
X107130Y039775D01*
X107181Y039777D01*
X107188Y039769D01*
X107197Y039763D01*
X107208Y039760D01*
X107218Y039760D01*
X107229Y039763D01*
X107238Y039769D01*
X107245Y039777D01*
X107486Y040024D02*
X107213Y040001D01*
X107213Y040001D01*
X106940Y040024D01*
X106939Y040025D01*
X106944Y040057D01*
X106953Y040089D01*
X106965Y040119D01*
X106981Y040147D01*
X107000Y040174D01*
X107022Y040198D01*
X107046Y040219D01*
X107073Y040237D01*
X107102Y040252D01*
X107133Y040263D01*
X107164Y040271D01*
X107197Y040275D01*
X107229Y040275D01*
X107262Y040271D01*
X107293Y040263D01*
X107324Y040252D01*
X107353Y040237D01*
X107380Y040219D01*
X107404Y040198D01*
X107426Y040174D01*
X107445Y040147D01*
X107461Y040119D01*
X107473Y040089D01*
X107482Y040057D01*
X107487Y040025D01*
X107440Y040025D01*
X107435Y040053D01*
X107426Y040081D01*
X107414Y040107D01*
X107399Y040132D01*
X107381Y040155D01*
X107360Y040175D01*
X107336Y040192D01*
X107311Y040206D01*
X107284Y040217D01*
X107256Y040224D01*
X107227Y040228D01*
X107199Y040228D01*
X107170Y040224D01*
X107142Y040217D01*
X107115Y040206D01*
X107090Y040192D01*
X107066Y040175D01*
X107045Y040155D01*
X107027Y040132D01*
X107012Y040107D01*
X107000Y040081D01*
X106991Y040053D01*
X106986Y040025D01*
X107034Y040025D01*
X107039Y040050D01*
X107048Y040075D01*
X107060Y040097D01*
X107076Y040118D01*
X107094Y040137D01*
X107115Y040152D01*
X107138Y040165D01*
X107162Y040174D01*
X107187Y040179D01*
X107213Y040181D01*
X107239Y040179D01*
X107264Y040174D01*
X107288Y040165D01*
X107311Y040152D01*
X107332Y040137D01*
X107350Y040118D01*
X107366Y040097D01*
X107378Y040075D01*
X107387Y040050D01*
X107392Y040025D01*
X107345Y040025D01*
X107339Y040046D01*
X107330Y040066D01*
X107318Y040084D01*
X107303Y040100D01*
X107285Y040113D01*
X107266Y040123D01*
X107245Y040130D01*
X107224Y040134D01*
X107202Y040134D01*
X107181Y040130D01*
X107160Y040123D01*
X107141Y040113D01*
X107123Y040100D01*
X107108Y040084D01*
X107096Y040066D01*
X107087Y040046D01*
X107081Y040025D01*
X107130Y040025D01*
X107136Y040041D01*
X107145Y040055D01*
X107158Y040067D01*
X107172Y040077D01*
X107188Y040083D01*
X107204Y040087D01*
X107222Y040087D01*
X107238Y040083D01*
X107254Y040077D01*
X107268Y040067D01*
X107281Y040055D01*
X107290Y040041D01*
X107296Y040025D01*
X107245Y040023D01*
X107238Y040031D01*
X107229Y040037D01*
X107218Y040040D01*
X107208Y040040D01*
X107197Y040037D01*
X107188Y040031D01*
X107181Y040023D01*
X101359Y040275D02*
X101134Y040275D01*
X101059Y040350D01*
X101059Y040650D01*
X101134Y040725D01*
X101359Y040725D01*
X101359Y040275D01*
X100899Y040275D02*
X100748Y040275D01*
X100823Y040275D02*
X100823Y040725D01*
X100748Y040725D02*
X100899Y040725D01*
X100592Y040650D02*
X100592Y040575D01*
X100517Y040500D01*
X100366Y040500D01*
X100291Y040425D01*
X100291Y040350D01*
X100366Y040275D01*
X100517Y040275D01*
X100592Y040350D01*
X100592Y040650D02*
X100517Y040725D01*
X100366Y040725D01*
X100291Y040650D01*
X100131Y040725D02*
X100131Y040275D01*
X100131Y040425D02*
X099906Y040425D01*
X099831Y040500D01*
X099831Y040650D01*
X099906Y040725D01*
X100131Y040725D01*
X099671Y040725D02*
X099671Y040275D01*
X099371Y040275D01*
X099210Y040275D02*
X098910Y040575D01*
X098910Y040650D01*
X098985Y040725D01*
X099135Y040725D01*
X099210Y040650D01*
X099375Y040865D02*
X099300Y040940D01*
X099300Y041090D01*
X099375Y041165D01*
X099450Y041165D01*
X099525Y041090D01*
X099525Y040865D01*
X099375Y040865D01*
X099525Y040865D02*
X099675Y041015D01*
X099750Y041165D01*
X099210Y040275D02*
X098910Y040275D01*
X077725Y032915D02*
X077725Y032765D01*
X077650Y032690D01*
X077350Y032690D01*
X077650Y032990D01*
X077350Y032990D01*
X077275Y032915D01*
X077275Y032765D01*
X077350Y032690D01*
X077275Y032529D02*
X077275Y032229D01*
X077275Y032379D02*
X077725Y032379D01*
X077575Y032229D01*
X077650Y032069D02*
X077725Y031994D01*
X077725Y031844D01*
X077650Y031769D01*
X077350Y031769D01*
X077275Y031844D01*
X077275Y031994D01*
X077350Y032069D01*
X077275Y031609D02*
X077275Y031308D01*
X077275Y031459D02*
X077725Y031459D01*
X077575Y031308D01*
X075600Y032271D02*
X075150Y032271D01*
X075150Y032121D02*
X075150Y032421D01*
X075225Y032581D02*
X075150Y032656D01*
X075150Y032807D01*
X075225Y032882D01*
X075150Y033042D02*
X075150Y033342D01*
X075150Y033192D02*
X075600Y033192D01*
X075450Y033042D01*
X075525Y032882D02*
X075600Y032807D01*
X075600Y032656D01*
X075525Y032581D01*
X075225Y032581D01*
X075600Y032271D02*
X075450Y032121D01*
X075450Y033502D02*
X075600Y033652D01*
X075150Y033652D01*
X075150Y033502D02*
X075150Y033802D01*
X077650Y032990D02*
X077725Y032915D01*
X069788Y028302D02*
X069713Y028152D01*
X069563Y028002D01*
X069563Y028227D01*
X069488Y028302D01*
X069413Y028302D01*
X069338Y028227D01*
X069338Y028077D01*
X069413Y028002D01*
X069563Y028002D01*
X069713Y027842D02*
X069788Y027767D01*
X069788Y027617D01*
X069713Y027542D01*
X069413Y027542D01*
X069338Y027617D01*
X069338Y027767D01*
X069413Y027842D01*
X069338Y027382D02*
X069338Y027081D01*
X069338Y027231D02*
X069788Y027231D01*
X069638Y027081D01*
X076838Y024602D02*
X077288Y024602D01*
X077063Y024377D01*
X077063Y024677D01*
X077213Y024217D02*
X077288Y024142D01*
X077288Y023992D01*
X077213Y023917D01*
X076913Y023917D01*
X076838Y023992D01*
X076838Y024142D01*
X076913Y024217D01*
X076838Y023757D02*
X076838Y023456D01*
X076838Y023606D02*
X077288Y023606D01*
X077138Y023456D01*
X077838Y023456D02*
X077838Y023757D01*
X077838Y023606D02*
X078288Y023606D01*
X078138Y023456D01*
X078213Y023917D02*
X077913Y023917D01*
X077838Y023992D01*
X077838Y024142D01*
X077913Y024217D01*
X077913Y024377D02*
X077838Y024452D01*
X077838Y024602D01*
X077913Y024677D01*
X077988Y024677D01*
X078063Y024602D01*
X078063Y024527D01*
X078063Y024602D02*
X078138Y024677D01*
X078213Y024677D01*
X078288Y024602D01*
X078288Y024452D01*
X078213Y024377D01*
X078213Y024217D02*
X078288Y024142D01*
X078288Y023992D01*
X078213Y023917D01*
X063075Y021996D02*
X063075Y021696D01*
X063075Y021536D02*
X063075Y021386D01*
X063075Y021461D02*
X062700Y021461D01*
X062625Y021386D01*
X062625Y021310D01*
X062700Y021235D01*
X062700Y021075D02*
X062625Y021000D01*
X062625Y020850D01*
X062700Y020775D01*
X062850Y020850D02*
X062850Y021000D01*
X062775Y021075D01*
X062700Y021075D01*
X062850Y020850D02*
X062925Y020775D01*
X063000Y020775D01*
X063075Y020850D01*
X063075Y021000D01*
X063000Y021075D01*
X062700Y021696D02*
X063000Y021996D01*
X063075Y021996D01*
X062700Y021696D02*
X062625Y021696D01*
X062423Y021524D02*
X062150Y021501D01*
X062150Y021501D01*
X061877Y021524D01*
X061876Y021525D01*
X061881Y021557D01*
X061890Y021589D01*
X061902Y021619D01*
X061918Y021647D01*
X061937Y021674D01*
X061959Y021698D01*
X061983Y021719D01*
X062010Y021737D01*
X062039Y021752D01*
X062070Y021763D01*
X062101Y021771D01*
X062134Y021775D01*
X062166Y021775D01*
X062199Y021771D01*
X062230Y021763D01*
X062261Y021752D01*
X062290Y021737D01*
X062317Y021719D01*
X062341Y021698D01*
X062363Y021674D01*
X062382Y021647D01*
X062398Y021619D01*
X062410Y021589D01*
X062419Y021557D01*
X062424Y021525D01*
X062377Y021525D01*
X062372Y021553D01*
X062363Y021581D01*
X062351Y021607D01*
X062336Y021632D01*
X062318Y021655D01*
X062297Y021675D01*
X062273Y021692D01*
X062248Y021706D01*
X062221Y021717D01*
X062193Y021724D01*
X062164Y021728D01*
X062136Y021728D01*
X062107Y021724D01*
X062079Y021717D01*
X062052Y021706D01*
X062027Y021692D01*
X062003Y021675D01*
X061982Y021655D01*
X061964Y021632D01*
X061949Y021607D01*
X061937Y021581D01*
X061928Y021553D01*
X061923Y021525D01*
X061971Y021525D01*
X061976Y021550D01*
X061985Y021575D01*
X061997Y021597D01*
X062013Y021618D01*
X062031Y021637D01*
X062052Y021652D01*
X062075Y021665D01*
X062099Y021674D01*
X062124Y021679D01*
X062150Y021681D01*
X062176Y021679D01*
X062201Y021674D01*
X062225Y021665D01*
X062248Y021652D01*
X062269Y021637D01*
X062287Y021618D01*
X062303Y021597D01*
X062315Y021575D01*
X062324Y021550D01*
X062329Y021525D01*
X062282Y021525D01*
X062276Y021546D01*
X062267Y021566D01*
X062255Y021584D01*
X062240Y021600D01*
X062222Y021613D01*
X062203Y021623D01*
X062182Y021630D01*
X062161Y021634D01*
X062139Y021634D01*
X062118Y021630D01*
X062097Y021623D01*
X062078Y021613D01*
X062060Y021600D01*
X062045Y021584D01*
X062033Y021566D01*
X062024Y021546D01*
X062018Y021525D01*
X062067Y021525D01*
X062073Y021541D01*
X062082Y021555D01*
X062095Y021567D01*
X062109Y021577D01*
X062125Y021583D01*
X062141Y021587D01*
X062159Y021587D01*
X062175Y021583D01*
X062191Y021577D01*
X062205Y021567D01*
X062218Y021555D01*
X062227Y021541D01*
X062233Y021525D01*
X062182Y021523D01*
X062175Y021531D01*
X062166Y021537D01*
X062155Y021540D01*
X062145Y021540D01*
X062134Y021537D01*
X062125Y021531D01*
X062118Y021523D01*
X061877Y021276D02*
X062150Y021299D01*
X062150Y021299D01*
X062423Y021276D01*
X062424Y021275D01*
X062419Y021243D01*
X062410Y021211D01*
X062398Y021181D01*
X062382Y021153D01*
X062363Y021126D01*
X062341Y021102D01*
X062317Y021081D01*
X062290Y021063D01*
X062261Y021048D01*
X062230Y021037D01*
X062199Y021029D01*
X062166Y021025D01*
X062134Y021025D01*
X062101Y021029D01*
X062070Y021037D01*
X062039Y021048D01*
X062010Y021063D01*
X061983Y021081D01*
X061959Y021102D01*
X061937Y021126D01*
X061918Y021153D01*
X061902Y021181D01*
X061890Y021211D01*
X061881Y021243D01*
X061876Y021275D01*
X061923Y021275D01*
X061928Y021247D01*
X061937Y021219D01*
X061949Y021193D01*
X061964Y021168D01*
X061982Y021145D01*
X062003Y021125D01*
X062027Y021108D01*
X062052Y021094D01*
X062079Y021083D01*
X062107Y021076D01*
X062136Y021072D01*
X062164Y021072D01*
X062193Y021076D01*
X062221Y021083D01*
X062248Y021094D01*
X062273Y021108D01*
X062297Y021125D01*
X062318Y021145D01*
X062336Y021168D01*
X062351Y021193D01*
X062363Y021219D01*
X062372Y021247D01*
X062377Y021275D01*
X062329Y021275D01*
X062324Y021250D01*
X062315Y021225D01*
X062303Y021203D01*
X062287Y021182D01*
X062269Y021163D01*
X062248Y021148D01*
X062225Y021135D01*
X062201Y021126D01*
X062176Y021121D01*
X062150Y021119D01*
X062124Y021121D01*
X062099Y021126D01*
X062075Y021135D01*
X062052Y021148D01*
X062031Y021163D01*
X062013Y021182D01*
X061997Y021203D01*
X061985Y021225D01*
X061976Y021250D01*
X061971Y021275D01*
X062018Y021275D01*
X062024Y021254D01*
X062033Y021234D01*
X062045Y021216D01*
X062060Y021200D01*
X062078Y021187D01*
X062097Y021177D01*
X062118Y021170D01*
X062139Y021166D01*
X062161Y021166D01*
X062182Y021170D01*
X062203Y021177D01*
X062222Y021187D01*
X062240Y021200D01*
X062255Y021216D01*
X062267Y021234D01*
X062276Y021254D01*
X062282Y021275D01*
X062233Y021275D01*
X062227Y021259D01*
X062218Y021245D01*
X062205Y021233D01*
X062191Y021223D01*
X062175Y021217D01*
X062159Y021213D01*
X062141Y021213D01*
X062125Y021217D01*
X062109Y021223D01*
X062095Y021233D01*
X062082Y021245D01*
X062073Y021259D01*
X062067Y021275D01*
X062118Y021277D01*
X062125Y021269D01*
X062134Y021263D01*
X062145Y021260D01*
X062155Y021260D01*
X062166Y021263D01*
X062175Y021269D01*
X062182Y021277D01*
X062000Y020371D02*
X061925Y020371D01*
X061850Y020296D01*
X061850Y020146D01*
X061925Y020071D01*
X062000Y020071D01*
X062075Y020146D01*
X062075Y020296D01*
X062000Y020371D01*
X061850Y020296D02*
X061775Y020371D01*
X061700Y020371D01*
X061625Y020296D01*
X061625Y020146D01*
X061700Y020071D01*
X061775Y020071D01*
X061850Y020146D01*
X062075Y019911D02*
X062075Y019761D01*
X062075Y019836D02*
X061700Y019836D01*
X061625Y019761D01*
X061625Y019685D01*
X061700Y019610D01*
X061700Y019450D02*
X061625Y019375D01*
X061625Y019225D01*
X061700Y019150D01*
X061850Y019225D02*
X061850Y019375D01*
X061775Y019450D01*
X061700Y019450D01*
X061850Y019225D02*
X061925Y019150D01*
X062000Y019150D01*
X062075Y019225D01*
X062075Y019375D01*
X062000Y019450D01*
X060877Y019651D02*
X061150Y019674D01*
X061150Y019674D01*
X061423Y019651D01*
X061424Y019650D01*
X061419Y019618D01*
X061410Y019586D01*
X061398Y019556D01*
X061382Y019528D01*
X061363Y019501D01*
X061341Y019477D01*
X061317Y019456D01*
X061290Y019438D01*
X061261Y019423D01*
X061230Y019412D01*
X061199Y019404D01*
X061166Y019400D01*
X061134Y019400D01*
X061101Y019404D01*
X061070Y019412D01*
X061039Y019423D01*
X061010Y019438D01*
X060983Y019456D01*
X060959Y019477D01*
X060937Y019501D01*
X060918Y019528D01*
X060902Y019556D01*
X060890Y019586D01*
X060881Y019618D01*
X060876Y019650D01*
X060923Y019650D01*
X060928Y019622D01*
X060937Y019594D01*
X060949Y019568D01*
X060964Y019543D01*
X060982Y019520D01*
X061003Y019500D01*
X061027Y019483D01*
X061052Y019469D01*
X061079Y019458D01*
X061107Y019451D01*
X061136Y019447D01*
X061164Y019447D01*
X061193Y019451D01*
X061221Y019458D01*
X061248Y019469D01*
X061273Y019483D01*
X061297Y019500D01*
X061318Y019520D01*
X061336Y019543D01*
X061351Y019568D01*
X061363Y019594D01*
X061372Y019622D01*
X061377Y019650D01*
X061329Y019650D01*
X061324Y019625D01*
X061315Y019600D01*
X061303Y019578D01*
X061287Y019557D01*
X061269Y019538D01*
X061248Y019523D01*
X061225Y019510D01*
X061201Y019501D01*
X061176Y019496D01*
X061150Y019494D01*
X061124Y019496D01*
X061099Y019501D01*
X061075Y019510D01*
X061052Y019523D01*
X061031Y019538D01*
X061013Y019557D01*
X060997Y019578D01*
X060985Y019600D01*
X060976Y019625D01*
X060971Y019650D01*
X061018Y019650D01*
X061024Y019629D01*
X061033Y019609D01*
X061045Y019591D01*
X061060Y019575D01*
X061078Y019562D01*
X061097Y019552D01*
X061118Y019545D01*
X061139Y019541D01*
X061161Y019541D01*
X061182Y019545D01*
X061203Y019552D01*
X061222Y019562D01*
X061240Y019575D01*
X061255Y019591D01*
X061267Y019609D01*
X061276Y019629D01*
X061282Y019650D01*
X061233Y019650D01*
X061227Y019634D01*
X061218Y019620D01*
X061205Y019608D01*
X061191Y019598D01*
X061175Y019592D01*
X061159Y019588D01*
X061141Y019588D01*
X061125Y019592D01*
X061109Y019598D01*
X061095Y019608D01*
X061082Y019620D01*
X061073Y019634D01*
X061067Y019650D01*
X061118Y019652D01*
X061125Y019644D01*
X061134Y019638D01*
X061145Y019635D01*
X061155Y019635D01*
X061166Y019638D01*
X061175Y019644D01*
X061182Y019652D01*
X061423Y019899D02*
X061150Y019876D01*
X061150Y019876D01*
X060877Y019899D01*
X060876Y019900D01*
X060881Y019932D01*
X060890Y019964D01*
X060902Y019994D01*
X060918Y020022D01*
X060937Y020049D01*
X060959Y020073D01*
X060983Y020094D01*
X061010Y020112D01*
X061039Y020127D01*
X061070Y020138D01*
X061101Y020146D01*
X061134Y020150D01*
X061166Y020150D01*
X061199Y020146D01*
X061230Y020138D01*
X061261Y020127D01*
X061290Y020112D01*
X061317Y020094D01*
X061341Y020073D01*
X061363Y020049D01*
X061382Y020022D01*
X061398Y019994D01*
X061410Y019964D01*
X061419Y019932D01*
X061424Y019900D01*
X061377Y019900D01*
X061372Y019928D01*
X061363Y019956D01*
X061351Y019982D01*
X061336Y020007D01*
X061318Y020030D01*
X061297Y020050D01*
X061273Y020067D01*
X061248Y020081D01*
X061221Y020092D01*
X061193Y020099D01*
X061164Y020103D01*
X061136Y020103D01*
X061107Y020099D01*
X061079Y020092D01*
X061052Y020081D01*
X061027Y020067D01*
X061003Y020050D01*
X060982Y020030D01*
X060964Y020007D01*
X060949Y019982D01*
X060937Y019956D01*
X060928Y019928D01*
X060923Y019900D01*
X060971Y019900D01*
X060976Y019925D01*
X060985Y019950D01*
X060997Y019972D01*
X061013Y019993D01*
X061031Y020012D01*
X061052Y020027D01*
X061075Y020040D01*
X061099Y020049D01*
X061124Y020054D01*
X061150Y020056D01*
X061176Y020054D01*
X061201Y020049D01*
X061225Y020040D01*
X061248Y020027D01*
X061269Y020012D01*
X061287Y019993D01*
X061303Y019972D01*
X061315Y019950D01*
X061324Y019925D01*
X061329Y019900D01*
X061282Y019900D01*
X061276Y019921D01*
X061267Y019941D01*
X061255Y019959D01*
X061240Y019975D01*
X061222Y019988D01*
X061203Y019998D01*
X061182Y020005D01*
X061161Y020009D01*
X061139Y020009D01*
X061118Y020005D01*
X061097Y019998D01*
X061078Y019988D01*
X061060Y019975D01*
X061045Y019959D01*
X061033Y019941D01*
X061024Y019921D01*
X061018Y019900D01*
X061067Y019900D01*
X061073Y019916D01*
X061082Y019930D01*
X061095Y019942D01*
X061109Y019952D01*
X061125Y019958D01*
X061141Y019962D01*
X061159Y019962D01*
X061175Y019958D01*
X061191Y019952D01*
X061205Y019942D01*
X061218Y019930D01*
X061227Y019916D01*
X061233Y019900D01*
X061182Y019898D01*
X061175Y019906D01*
X061166Y019912D01*
X061155Y019915D01*
X061145Y019915D01*
X061134Y019912D01*
X061125Y019906D01*
X061118Y019898D01*
X050356Y016350D02*
X050356Y016275D01*
X050281Y016200D01*
X050131Y016200D01*
X050056Y016125D01*
X050056Y016050D01*
X050131Y015975D01*
X050281Y015975D01*
X050356Y016050D01*
X050356Y016350D02*
X050281Y016425D01*
X050131Y016425D01*
X050056Y016350D01*
X049746Y016425D02*
X049596Y016425D01*
X049671Y016425D02*
X049671Y016050D01*
X049746Y015975D01*
X049821Y015975D01*
X049896Y016050D01*
X049435Y016050D02*
X049360Y015975D01*
X049210Y015975D01*
X049135Y016050D01*
X049135Y016200D01*
X049210Y016275D01*
X049285Y016275D01*
X049435Y016200D01*
X049435Y016425D01*
X049135Y016425D01*
X049526Y017173D02*
X049549Y016900D01*
X049549Y016900D01*
X049526Y016627D01*
X049525Y016626D01*
X049493Y016631D01*
X049461Y016640D01*
X049431Y016652D01*
X049403Y016668D01*
X049376Y016687D01*
X049352Y016709D01*
X049331Y016733D01*
X049313Y016760D01*
X049298Y016789D01*
X049287Y016820D01*
X049279Y016851D01*
X049275Y016884D01*
X049275Y016916D01*
X049279Y016949D01*
X049287Y016980D01*
X049298Y017011D01*
X049313Y017040D01*
X049331Y017067D01*
X049352Y017091D01*
X049376Y017113D01*
X049403Y017132D01*
X049431Y017148D01*
X049461Y017160D01*
X049493Y017169D01*
X049525Y017174D01*
X049525Y017127D01*
X049497Y017122D01*
X049469Y017113D01*
X049443Y017101D01*
X049418Y017086D01*
X049395Y017068D01*
X049375Y017047D01*
X049358Y017023D01*
X049344Y016998D01*
X049333Y016971D01*
X049326Y016943D01*
X049322Y016914D01*
X049322Y016886D01*
X049326Y016857D01*
X049333Y016829D01*
X049344Y016802D01*
X049358Y016777D01*
X049375Y016753D01*
X049395Y016732D01*
X049418Y016714D01*
X049443Y016699D01*
X049469Y016687D01*
X049497Y016678D01*
X049525Y016673D01*
X049525Y016721D01*
X049500Y016726D01*
X049475Y016735D01*
X049453Y016747D01*
X049432Y016763D01*
X049413Y016781D01*
X049398Y016802D01*
X049385Y016825D01*
X049376Y016849D01*
X049371Y016874D01*
X049369Y016900D01*
X049371Y016926D01*
X049376Y016951D01*
X049385Y016975D01*
X049398Y016998D01*
X049413Y017019D01*
X049432Y017037D01*
X049453Y017053D01*
X049475Y017065D01*
X049500Y017074D01*
X049525Y017079D01*
X049525Y017032D01*
X049504Y017026D01*
X049484Y017017D01*
X049466Y017005D01*
X049450Y016990D01*
X049437Y016972D01*
X049427Y016953D01*
X049420Y016932D01*
X049416Y016911D01*
X049416Y016889D01*
X049420Y016868D01*
X049427Y016847D01*
X049437Y016828D01*
X049450Y016810D01*
X049466Y016795D01*
X049484Y016783D01*
X049504Y016774D01*
X049525Y016768D01*
X049525Y016817D01*
X049509Y016823D01*
X049495Y016832D01*
X049483Y016845D01*
X049473Y016859D01*
X049467Y016875D01*
X049463Y016891D01*
X049463Y016909D01*
X049467Y016925D01*
X049473Y016941D01*
X049483Y016955D01*
X049495Y016968D01*
X049509Y016977D01*
X049525Y016983D01*
X049527Y016932D01*
X049519Y016925D01*
X049513Y016916D01*
X049510Y016905D01*
X049510Y016895D01*
X049513Y016884D01*
X049519Y016875D01*
X049527Y016868D01*
X049774Y016627D02*
X049751Y016900D01*
X049751Y016900D01*
X049774Y017173D01*
X049775Y017174D01*
X049807Y017169D01*
X049839Y017160D01*
X049869Y017148D01*
X049897Y017132D01*
X049924Y017113D01*
X049948Y017091D01*
X049969Y017067D01*
X049987Y017040D01*
X050002Y017011D01*
X050013Y016980D01*
X050021Y016949D01*
X050025Y016916D01*
X050025Y016884D01*
X050021Y016851D01*
X050013Y016820D01*
X050002Y016789D01*
X049987Y016760D01*
X049969Y016733D01*
X049948Y016709D01*
X049924Y016687D01*
X049897Y016668D01*
X049869Y016652D01*
X049839Y016640D01*
X049807Y016631D01*
X049775Y016626D01*
X049775Y016673D01*
X049803Y016678D01*
X049831Y016687D01*
X049857Y016699D01*
X049882Y016714D01*
X049905Y016732D01*
X049925Y016753D01*
X049942Y016777D01*
X049956Y016802D01*
X049967Y016829D01*
X049974Y016857D01*
X049978Y016886D01*
X049978Y016914D01*
X049974Y016943D01*
X049967Y016971D01*
X049956Y016998D01*
X049942Y017023D01*
X049925Y017047D01*
X049905Y017068D01*
X049882Y017086D01*
X049857Y017101D01*
X049831Y017113D01*
X049803Y017122D01*
X049775Y017127D01*
X049775Y017079D01*
X049800Y017074D01*
X049825Y017065D01*
X049847Y017053D01*
X049868Y017037D01*
X049887Y017019D01*
X049902Y016998D01*
X049915Y016975D01*
X049924Y016951D01*
X049929Y016926D01*
X049931Y016900D01*
X049929Y016874D01*
X049924Y016849D01*
X049915Y016825D01*
X049902Y016802D01*
X049887Y016781D01*
X049868Y016763D01*
X049847Y016747D01*
X049825Y016735D01*
X049800Y016726D01*
X049775Y016721D01*
X049775Y016768D01*
X049796Y016774D01*
X049816Y016783D01*
X049834Y016795D01*
X049850Y016810D01*
X049863Y016828D01*
X049873Y016847D01*
X049880Y016868D01*
X049884Y016889D01*
X049884Y016911D01*
X049880Y016932D01*
X049873Y016953D01*
X049863Y016972D01*
X049850Y016990D01*
X049834Y017005D01*
X049816Y017017D01*
X049796Y017026D01*
X049775Y017032D01*
X049775Y016983D01*
X049791Y016977D01*
X049805Y016968D01*
X049817Y016955D01*
X049827Y016941D01*
X049833Y016925D01*
X049837Y016909D01*
X049837Y016891D01*
X049833Y016875D01*
X049827Y016859D01*
X049817Y016845D01*
X049805Y016832D01*
X049791Y016823D01*
X049775Y016817D01*
X049773Y016868D01*
X049781Y016875D01*
X049787Y016884D01*
X049790Y016895D01*
X049790Y016905D01*
X049787Y016916D01*
X049781Y016925D01*
X049773Y016932D01*
X047860Y019970D02*
X046440Y019970D01*
X046440Y021830D01*
X047860Y021830D01*
X047860Y019970D01*
X047850Y022000D02*
X047925Y022075D01*
X047925Y022375D01*
X047850Y022450D01*
X047700Y022450D01*
X047625Y022375D01*
X047625Y022075D01*
X047700Y022000D01*
X047850Y022000D01*
X047775Y022150D02*
X047625Y022000D01*
X047465Y022075D02*
X047390Y022000D01*
X047239Y022000D01*
X047164Y022075D01*
X047164Y022150D01*
X047239Y022225D01*
X047314Y022225D01*
X047239Y022225D02*
X047164Y022300D01*
X047164Y022375D01*
X047239Y022450D01*
X047390Y022450D01*
X047465Y022375D01*
X047274Y022252D02*
X047251Y022525D01*
X047251Y022525D01*
X047274Y022798D01*
X047275Y022799D01*
X047307Y022794D01*
X047339Y022785D01*
X047369Y022773D01*
X047397Y022757D01*
X047424Y022738D01*
X047448Y022716D01*
X047469Y022692D01*
X047487Y022665D01*
X047502Y022636D01*
X047513Y022605D01*
X047521Y022574D01*
X047525Y022541D01*
X047525Y022509D01*
X047521Y022476D01*
X047513Y022445D01*
X047502Y022414D01*
X047487Y022385D01*
X047469Y022358D01*
X047448Y022334D01*
X047424Y022312D01*
X047397Y022293D01*
X047369Y022277D01*
X047339Y022265D01*
X047307Y022256D01*
X047275Y022251D01*
X047275Y022298D01*
X047303Y022303D01*
X047331Y022312D01*
X047357Y022324D01*
X047382Y022339D01*
X047405Y022357D01*
X047425Y022378D01*
X047442Y022402D01*
X047456Y022427D01*
X047467Y022454D01*
X047474Y022482D01*
X047478Y022511D01*
X047478Y022539D01*
X047474Y022568D01*
X047467Y022596D01*
X047456Y022623D01*
X047442Y022648D01*
X047425Y022672D01*
X047405Y022693D01*
X047382Y022711D01*
X047357Y022726D01*
X047331Y022738D01*
X047303Y022747D01*
X047275Y022752D01*
X047275Y022704D01*
X047300Y022699D01*
X047325Y022690D01*
X047347Y022678D01*
X047368Y022662D01*
X047387Y022644D01*
X047402Y022623D01*
X047415Y022600D01*
X047424Y022576D01*
X047429Y022551D01*
X047431Y022525D01*
X047429Y022499D01*
X047424Y022474D01*
X047415Y022450D01*
X047402Y022427D01*
X047387Y022406D01*
X047368Y022388D01*
X047347Y022372D01*
X047325Y022360D01*
X047300Y022351D01*
X047275Y022346D01*
X047275Y022393D01*
X047296Y022399D01*
X047316Y022408D01*
X047334Y022420D01*
X047350Y022435D01*
X047363Y022453D01*
X047373Y022472D01*
X047380Y022493D01*
X047384Y022514D01*
X047384Y022536D01*
X047380Y022557D01*
X047373Y022578D01*
X047363Y022597D01*
X047350Y022615D01*
X047334Y022630D01*
X047316Y022642D01*
X047296Y022651D01*
X047275Y022657D01*
X047275Y022608D01*
X047291Y022602D01*
X047305Y022593D01*
X047317Y022580D01*
X047327Y022566D01*
X047333Y022550D01*
X047337Y022534D01*
X047337Y022516D01*
X047333Y022500D01*
X047327Y022484D01*
X047317Y022470D01*
X047305Y022457D01*
X047291Y022448D01*
X047275Y022442D01*
X047273Y022493D01*
X047281Y022500D01*
X047287Y022509D01*
X047290Y022520D01*
X047290Y022530D01*
X047287Y022541D01*
X047281Y022550D01*
X047273Y022557D01*
X047026Y022798D02*
X047049Y022525D01*
X047049Y022525D01*
X047026Y022252D01*
X047025Y022251D01*
X046993Y022256D01*
X046961Y022265D01*
X046931Y022277D01*
X046903Y022293D01*
X046876Y022312D01*
X046852Y022334D01*
X046831Y022358D01*
X046813Y022385D01*
X046798Y022414D01*
X046787Y022445D01*
X046779Y022476D01*
X046775Y022509D01*
X046775Y022541D01*
X046779Y022574D01*
X046787Y022605D01*
X046798Y022636D01*
X046813Y022665D01*
X046831Y022692D01*
X046852Y022716D01*
X046876Y022738D01*
X046903Y022757D01*
X046931Y022773D01*
X046961Y022785D01*
X046993Y022794D01*
X047025Y022799D01*
X047025Y022752D01*
X046997Y022747D01*
X046969Y022738D01*
X046943Y022726D01*
X046918Y022711D01*
X046895Y022693D01*
X046875Y022672D01*
X046858Y022648D01*
X046844Y022623D01*
X046833Y022596D01*
X046826Y022568D01*
X046822Y022539D01*
X046822Y022511D01*
X046826Y022482D01*
X046833Y022454D01*
X046844Y022427D01*
X046858Y022402D01*
X046875Y022378D01*
X046895Y022357D01*
X046918Y022339D01*
X046943Y022324D01*
X046969Y022312D01*
X046997Y022303D01*
X047025Y022298D01*
X047025Y022346D01*
X047000Y022351D01*
X046975Y022360D01*
X046953Y022372D01*
X046932Y022388D01*
X046913Y022406D01*
X046898Y022427D01*
X046885Y022450D01*
X046876Y022474D01*
X046871Y022499D01*
X046869Y022525D01*
X046871Y022551D01*
X046876Y022576D01*
X046885Y022600D01*
X046898Y022623D01*
X046913Y022644D01*
X046932Y022662D01*
X046953Y022678D01*
X046975Y022690D01*
X047000Y022699D01*
X047025Y022704D01*
X047025Y022657D01*
X047004Y022651D01*
X046984Y022642D01*
X046966Y022630D01*
X046950Y022615D01*
X046937Y022597D01*
X046927Y022578D01*
X046920Y022557D01*
X046916Y022536D01*
X046916Y022514D01*
X046920Y022493D01*
X046927Y022472D01*
X046937Y022453D01*
X046950Y022435D01*
X046966Y022420D01*
X046984Y022408D01*
X047004Y022399D01*
X047025Y022393D01*
X047025Y022442D01*
X047009Y022448D01*
X046995Y022457D01*
X046983Y022470D01*
X046973Y022484D01*
X046967Y022500D01*
X046963Y022516D01*
X046963Y022534D01*
X046967Y022550D01*
X046973Y022566D01*
X046983Y022580D01*
X046995Y022593D01*
X047009Y022602D01*
X047025Y022608D01*
X047027Y022557D01*
X047019Y022550D01*
X047013Y022541D01*
X047010Y022530D01*
X047010Y022520D01*
X047013Y022509D01*
X047019Y022500D01*
X047027Y022493D01*
X047164Y023000D02*
X047089Y023075D01*
X047089Y023450D01*
X047164Y023450D02*
X047014Y023450D01*
X046854Y023225D02*
X046629Y023225D01*
X046554Y023150D01*
X046554Y023075D01*
X046629Y023000D01*
X046779Y023000D01*
X046854Y023075D01*
X046854Y023225D01*
X046704Y023375D01*
X046554Y023450D01*
X046851Y023922D02*
X048199Y023922D01*
X048199Y026128D01*
X046851Y026128D01*
X046851Y023922D01*
X047525Y024080D02*
X047525Y025931D01*
X047525Y025694D02*
X047525Y024356D01*
X047550Y023450D02*
X047700Y023450D01*
X047775Y023375D01*
X047775Y023300D01*
X047700Y023225D01*
X047550Y023225D01*
X047475Y023150D01*
X047475Y023075D01*
X047550Y023000D01*
X047700Y023000D01*
X047775Y023075D01*
X047475Y023375D02*
X047550Y023450D01*
X047315Y023075D02*
X047240Y023000D01*
X047164Y023000D01*
X039449Y022753D02*
X039449Y020547D01*
X038101Y020547D01*
X038101Y022753D01*
X039449Y022753D01*
X038775Y022556D02*
X038775Y020705D01*
X038775Y020981D02*
X038775Y022319D01*
X034875Y026425D02*
X034575Y026425D01*
X034725Y026425D02*
X034725Y026875D01*
X034875Y026725D01*
X034415Y026800D02*
X034340Y026875D01*
X034189Y026875D01*
X034114Y026800D01*
X034114Y026500D01*
X034189Y026425D01*
X034340Y026425D01*
X034415Y026500D01*
X034415Y026800D01*
X033954Y026875D02*
X033954Y026425D01*
X033954Y026575D02*
X033654Y026875D01*
X033494Y026800D02*
X033419Y026875D01*
X033269Y026875D01*
X033194Y026800D01*
X033194Y026725D01*
X033269Y026650D01*
X033194Y026575D01*
X033194Y026500D01*
X033269Y026425D01*
X033419Y026425D01*
X033494Y026500D01*
X033654Y026425D02*
X033879Y026650D01*
X033344Y026650D02*
X033269Y026650D01*
X032875Y030425D02*
X032575Y030425D01*
X032725Y030425D02*
X032725Y030875D01*
X032875Y030725D01*
X032415Y030800D02*
X032415Y030500D01*
X032340Y030425D01*
X032189Y030425D01*
X032114Y030500D01*
X032114Y030800D01*
X032189Y030875D01*
X032340Y030875D01*
X032415Y030800D01*
X031954Y030875D02*
X031954Y030425D01*
X031954Y030575D02*
X031654Y030875D01*
X031494Y030800D02*
X031419Y030875D01*
X031269Y030875D01*
X031194Y030800D01*
X031194Y030725D01*
X031494Y030425D01*
X031194Y030425D01*
X031654Y030425D02*
X031879Y030650D01*
X031939Y038800D02*
X031864Y038875D01*
X031864Y039175D01*
X031939Y039250D01*
X032090Y039250D01*
X032165Y039175D01*
X032165Y038875D01*
X032090Y038800D01*
X031939Y038800D01*
X031704Y038800D02*
X031704Y039250D01*
X031629Y039025D02*
X031404Y038800D01*
X031244Y038800D02*
X030944Y038800D01*
X031094Y038800D02*
X031094Y039250D01*
X031244Y039100D01*
X031404Y039250D02*
X031704Y038950D01*
X032325Y038800D02*
X032625Y038800D01*
X032475Y038800D02*
X032475Y039250D01*
X032625Y039100D01*
X119850Y058925D02*
X120300Y058925D01*
X120300Y059150D01*
X120225Y059225D01*
X120075Y059225D01*
X120000Y059150D01*
X120000Y058925D01*
X119850Y059385D02*
X120000Y059536D01*
X119850Y059686D01*
X120300Y059686D01*
X120225Y059846D02*
X119925Y059846D01*
X119850Y059921D01*
X119850Y060071D01*
X119925Y060146D01*
X120225Y060146D01*
X120300Y060071D01*
X120300Y059921D01*
X120225Y059846D01*
X120300Y059385D02*
X119850Y059385D01*
X122030Y060070D02*
X122330Y060370D01*
X122405Y060370D01*
X122480Y060295D01*
X122480Y060145D01*
X122405Y060070D01*
X122030Y060070D02*
X122030Y060370D01*
X122050Y062050D02*
X122050Y062350D01*
X122050Y062200D02*
X122500Y062200D01*
X122350Y062050D01*
X120300Y062800D02*
X120300Y063025D01*
X120225Y063100D01*
X120075Y063100D01*
X120000Y063025D01*
X120000Y062800D01*
X119850Y062800D02*
X120300Y062800D01*
X120300Y063260D02*
X119850Y063260D01*
X120000Y063411D01*
X119850Y063561D01*
X120300Y063561D01*
X120225Y063721D02*
X120300Y063796D01*
X120300Y063946D01*
X120225Y064021D01*
X119925Y063721D01*
X119850Y063796D01*
X119850Y063946D01*
X119925Y064021D01*
X120225Y064021D01*
X120300Y064181D02*
X119850Y064181D01*
X119850Y064481D01*
X120075Y064331D02*
X120075Y064181D01*
X120300Y064181D02*
X120300Y064481D01*
X120225Y063721D02*
X119925Y063721D01*
X122030Y064070D02*
X122330Y064370D01*
X122405Y064370D01*
X122480Y064295D01*
X122480Y064145D01*
X122405Y064070D01*
X122030Y064070D02*
X122030Y064370D01*
X122050Y058350D02*
X122050Y058050D01*
X122050Y058200D02*
X122500Y058200D01*
X122350Y058050D01*
X131528Y067950D02*
X131755Y067950D01*
X131642Y067950D02*
X131642Y068290D01*
X131755Y068177D01*
X132135Y073821D02*
X132135Y074048D01*
X132135Y073934D02*
X132475Y073934D01*
X132362Y073821D01*
X130000Y041275D02*
X130000Y040825D01*
X129700Y040825D01*
X129540Y040825D02*
X129239Y040825D01*
X129079Y040825D02*
X128854Y040825D01*
X128779Y040900D01*
X128779Y041200D01*
X128854Y041275D01*
X129079Y041275D01*
X129079Y040825D01*
X129389Y041050D02*
X129540Y041050D01*
X129540Y041275D02*
X129540Y040825D01*
X129540Y041275D02*
X129239Y041275D01*
X128619Y041200D02*
X128544Y041275D01*
X128394Y041275D01*
X128319Y041200D01*
X128319Y041125D01*
X128619Y040825D01*
X128319Y040825D01*
X127800Y040375D02*
X128025Y040150D01*
X127725Y040150D01*
X127800Y039925D02*
X127800Y040375D01*
X127800Y039375D02*
X127725Y039300D01*
X127725Y039225D01*
X127800Y039150D01*
X127725Y039075D01*
X127725Y039000D01*
X127800Y038925D01*
X127950Y038925D01*
X128025Y039000D01*
X127875Y039150D02*
X127800Y039150D01*
X127800Y039375D02*
X127950Y039375D01*
X128025Y039300D01*
X129725Y038475D02*
X129725Y038025D01*
X129875Y038025D02*
X129575Y038025D01*
X129875Y038325D02*
X129725Y038475D01*
D22*
X077338Y029393D03*
X077338Y028283D03*
X073088Y033158D03*
X073088Y034268D03*
X058900Y019330D03*
X058900Y018220D03*
X045213Y026658D03*
X045213Y027768D03*
D23*
X055368Y032775D03*
X055938Y032775D03*
X055438Y071400D03*
X054868Y071400D03*
X051932Y073650D03*
X051362Y073650D03*
X051375Y075087D03*
X050805Y075087D03*
X050805Y077025D03*
X051375Y077025D03*
D24*
X049772Y079164D02*
X049772Y079636D01*
X049378Y079400D01*
X049772Y079164D01*
X053756Y075786D02*
X055169Y075786D01*
X055169Y072014D01*
X053756Y072014D01*
X053756Y075786D01*
X053943Y072306D02*
X053945Y072328D01*
X053951Y072350D01*
X053960Y072370D01*
X053973Y072388D01*
X053989Y072404D01*
X054007Y072417D01*
X054027Y072426D01*
X054049Y072432D01*
X054071Y072434D01*
X054093Y072432D01*
X054115Y072426D01*
X054135Y072417D01*
X054153Y072404D01*
X054169Y072388D01*
X054182Y072370D01*
X054191Y072350D01*
X054197Y072328D01*
X054199Y072306D01*
X054197Y072284D01*
X054191Y072262D01*
X054182Y072242D01*
X054169Y072224D01*
X054153Y072208D01*
X054135Y072195D01*
X054115Y072186D01*
X054093Y072180D01*
X054071Y072178D01*
X054049Y072180D01*
X054027Y072186D01*
X054007Y072195D01*
X053989Y072208D01*
X053973Y072224D01*
X053960Y072242D01*
X053951Y072262D01*
X053945Y072284D01*
X053943Y072306D01*
X053153Y069886D02*
X053153Y069414D01*
X053547Y069650D01*
X053153Y069886D01*
X108878Y042963D02*
X109272Y043199D01*
X109272Y042726D01*
X108878Y042963D01*
X119878Y039650D02*
X120272Y039886D01*
X120272Y039414D01*
X119878Y039650D01*
X118636Y035647D02*
X118164Y035647D01*
X118400Y035253D01*
X118636Y035647D01*
X127113Y027460D02*
X127507Y027696D01*
X127507Y027224D01*
X127113Y027460D01*
X118897Y024511D02*
X118897Y024039D01*
X118503Y024275D01*
X118897Y024511D01*
X118897Y023511D02*
X118897Y023039D01*
X118503Y023275D01*
X118897Y023511D01*
X116783Y026183D02*
X117117Y026517D01*
X116671Y026629D01*
X116783Y026183D01*
X135539Y034397D02*
X136011Y034397D01*
X135775Y034003D01*
X135539Y034397D01*
X123136Y045278D02*
X122664Y045278D01*
X122900Y045672D01*
X123136Y045278D01*
X134378Y046775D02*
X134772Y046539D01*
X134772Y047011D01*
X134378Y046775D01*
X069773Y031845D02*
X069773Y029955D01*
X069576Y029955D01*
X069576Y031845D01*
X068277Y031845D01*
X068277Y029955D01*
X069576Y029955D01*
X069576Y031845D02*
X069773Y031845D01*
X058272Y024511D02*
X057878Y024275D01*
X058272Y024039D01*
X058272Y024511D01*
X057903Y023261D02*
X057903Y022789D01*
X058297Y023025D01*
X057903Y023261D01*
X053750Y022565D02*
X051390Y022565D01*
X051390Y019985D01*
X053750Y019985D01*
X053750Y022565D01*
X051350Y022285D02*
X051350Y020265D01*
X051070Y020265D01*
X050890Y020445D01*
X050890Y022105D01*
X051070Y022285D01*
X051350Y022285D01*
X042625Y021235D02*
X042625Y023815D01*
X040265Y023815D01*
X040265Y021235D01*
X042625Y021235D01*
X040225Y021515D02*
X040225Y023535D01*
X039945Y023535D01*
X039765Y023355D01*
X039765Y021695D01*
X039945Y021515D01*
X040225Y021515D01*
X055027Y030330D02*
X055027Y032220D01*
X056326Y032220D01*
X056326Y030330D01*
X056523Y030330D01*
X056523Y032220D01*
X056326Y032220D01*
X056326Y030330D02*
X055027Y030330D01*
X063539Y021522D02*
X064011Y021522D01*
X063775Y021128D01*
X063539Y021522D01*
X066150Y018922D02*
X066386Y018528D01*
X065914Y018528D01*
X066150Y018922D01*
X067289Y018647D02*
X067761Y018647D01*
X067525Y018253D01*
X067289Y018647D01*
X068039Y022403D02*
X068511Y022403D01*
X068275Y022797D01*
X068039Y022403D01*
D25*
X068021Y030150D03*
X068021Y030650D03*
X068021Y031150D03*
X068021Y031650D03*
X070029Y031650D03*
X070029Y031150D03*
X070029Y030650D03*
X070029Y030150D03*
X056779Y030525D03*
X056779Y031025D03*
X056779Y031525D03*
X056779Y032025D03*
X054771Y032025D03*
X054771Y031525D03*
X054771Y031025D03*
X054771Y030525D03*
D26*
X120275Y067525D03*
X120275Y071525D03*
X128025Y071525D03*
X128025Y067525D03*
D27*
X126375Y067525D03*
X121925Y067525D03*
X121925Y071525D03*
X126375Y071525D03*
D28*
X126000Y072275D03*
X126000Y070775D03*
X126000Y068275D03*
X126000Y066775D03*
X122300Y066775D03*
X122300Y068275D03*
X122300Y070775D03*
X122300Y072275D03*
D29*
X121750Y072300D03*
X120400Y072300D03*
X120400Y070750D03*
X121750Y070750D03*
X121750Y068300D03*
X120400Y068300D03*
X120400Y066750D03*
X121750Y066750D03*
X126550Y066750D03*
X127900Y066750D03*
X127900Y068300D03*
X126550Y068300D03*
X126550Y070750D03*
X127900Y070750D03*
X127900Y072300D03*
X126550Y072300D03*
D30*
X124150Y072411D03*
X124150Y070639D03*
X124150Y068411D03*
X124150Y066639D03*
D31*
X121050Y067525D03*
X121050Y071525D03*
X127250Y071525D03*
X127250Y067525D03*
D32*
X125525Y062900D02*
X125025Y062900D01*
X124525Y062900D01*
X124525Y062550D02*
X125025Y062550D01*
X125525Y062550D01*
X136525Y058375D02*
X137025Y058375D01*
X137525Y058375D01*
X137525Y058025D02*
X137025Y058025D01*
X136525Y058025D01*
D33*
X034812Y025653D03*
X032812Y029778D03*
X032562Y038153D03*
D34*
X033379Y037772D03*
X033379Y036772D03*
X033379Y035772D03*
X030171Y035778D03*
X030171Y036778D03*
X030171Y037778D03*
X030421Y029403D03*
X030421Y028403D03*
X030421Y027403D03*
X032421Y025278D03*
X032421Y024278D03*
X032421Y023278D03*
X035629Y023272D03*
X035629Y024272D03*
X035629Y025272D03*
X033629Y027397D03*
X033629Y028397D03*
X033629Y029397D03*
D35*
X132150Y067525D03*
X133150Y067525D03*
X132900Y074525D03*
X132900Y075525D03*
D36*
G36*
X103150Y054777D02*
X102999Y054525D01*
X102410Y054877D01*
X102561Y055129D01*
X103150Y054777D01*
G37*
G36*
X102637Y053919D02*
X102486Y053667D01*
X101897Y054019D01*
X102048Y054271D01*
X102637Y053919D01*
G37*
X113023Y043900D03*
X114023Y043900D03*
X131027Y036650D03*
X132027Y036650D03*
X052523Y072150D03*
X051523Y072150D03*
D37*
X052780Y069650D03*
X054020Y069650D03*
X050145Y079400D03*
X048905Y079400D03*
X108405Y042963D03*
X109645Y042963D03*
X119405Y039650D03*
X120645Y039650D03*
X133905Y046775D03*
X135145Y046775D03*
X127880Y027460D03*
X126640Y027460D03*
X119270Y024275D03*
X119270Y023275D03*
X118030Y023275D03*
X118030Y024275D03*
G36*
X117051Y025769D02*
X116895Y025925D01*
X117375Y026405D01*
X117531Y026249D01*
X117051Y025769D01*
G37*
G36*
X116175Y026645D02*
X116019Y026801D01*
X116499Y027281D01*
X116655Y027125D01*
X116175Y026645D01*
G37*
X058770Y023025D03*
X057530Y023025D03*
X057405Y024275D03*
X058645Y024275D03*
D38*
X057805Y024275D03*
X058370Y023025D03*
X108805Y042963D03*
X119805Y039650D03*
X134305Y046775D03*
X127040Y027460D03*
X118430Y024275D03*
X118430Y023275D03*
G36*
X116485Y026377D02*
X116315Y026547D01*
X116753Y026985D01*
X116923Y026815D01*
X116485Y026377D01*
G37*
X053620Y069650D03*
X049305Y079400D03*
D39*
X118400Y036020D03*
X118400Y034780D03*
X122900Y044905D03*
X122900Y046145D03*
X135775Y034770D03*
X135775Y033530D03*
X068275Y023270D03*
X068275Y022030D03*
X067525Y019020D03*
X066150Y019395D03*
X066150Y018155D03*
X067525Y017780D03*
X063775Y020655D03*
X063775Y021895D03*
D40*
X063775Y021055D03*
X066150Y018995D03*
X067525Y018180D03*
X068275Y022870D03*
X118400Y035180D03*
X122900Y045745D03*
X135775Y033930D03*
D41*
X047840Y025655D02*
X047840Y024395D01*
X047210Y024395D01*
X047210Y025655D01*
X047840Y025655D01*
X039090Y022280D02*
X039090Y021020D01*
X038460Y021020D01*
X038460Y022280D01*
X039090Y022280D01*
D42*
X038775Y021650D03*
X047525Y025025D03*
D43*
X047525Y025045D03*
X038775Y021670D03*
D44*
X038353Y020192D02*
X038390Y020155D01*
X038390Y020082D01*
X038353Y020045D01*
X038390Y019971D02*
X038390Y019824D01*
X038170Y019824D01*
X038170Y019750D02*
X038170Y019603D01*
X038170Y019677D02*
X038390Y019677D01*
X038317Y019603D01*
X038280Y019824D02*
X038280Y019898D01*
X038170Y020045D02*
X038317Y020192D01*
X038353Y020192D01*
X038170Y020192D02*
X038170Y020045D01*
X047500Y021610D02*
X047502Y021633D01*
X047508Y021655D01*
X047517Y021677D01*
X047530Y021696D01*
X047545Y021713D01*
X047563Y021727D01*
X047584Y021738D01*
X047606Y021746D01*
X047628Y021750D01*
X047652Y021750D01*
X047674Y021746D01*
X047696Y021738D01*
X047717Y021727D01*
X047735Y021713D01*
X047750Y021696D01*
X047763Y021677D01*
X047772Y021655D01*
X047778Y021633D01*
X047780Y021610D01*
X047778Y021587D01*
X047772Y021565D01*
X047763Y021543D01*
X047750Y021524D01*
X047735Y021507D01*
X047717Y021493D01*
X047696Y021482D01*
X047674Y021474D01*
X047652Y021470D01*
X047628Y021470D01*
X047606Y021474D01*
X047584Y021482D01*
X047563Y021493D01*
X047545Y021507D01*
X047530Y021524D01*
X047517Y021543D01*
X047508Y021565D01*
X047502Y021587D01*
X047500Y021610D01*
X048295Y025103D02*
X048295Y025250D01*
X048295Y025177D02*
X048515Y025177D01*
X048442Y025103D01*
X048405Y025324D02*
X048405Y025398D01*
X048515Y025324D02*
X048515Y025471D01*
X048405Y025545D02*
X048405Y025692D01*
X048295Y025655D02*
X048515Y025655D01*
X048405Y025545D01*
X048295Y025324D02*
X048515Y025324D01*
X057633Y070350D02*
X057633Y075450D01*
D45*
X043235Y023425D03*
X043235Y021625D03*
X054360Y022175D03*
X054360Y020375D03*
D46*
X053940Y021275D03*
X042815Y022525D03*
D47*
X040225Y022527D02*
X039765Y022527D01*
X039765Y022604D02*
X040225Y022604D01*
X040225Y022681D02*
X039765Y022681D01*
X039765Y022758D02*
X040225Y022758D01*
X040225Y022836D02*
X039765Y022836D01*
X039765Y022913D02*
X040225Y022913D01*
X040225Y022990D02*
X039765Y022990D01*
X039765Y023067D02*
X040225Y023067D01*
X040225Y023144D02*
X039765Y023144D01*
X039765Y023221D02*
X040225Y023221D01*
X040225Y023298D02*
X039765Y023298D01*
X039765Y023355D02*
X039765Y021695D01*
X039945Y021515D01*
X040225Y021515D01*
X040225Y023535D01*
X039945Y023535D01*
X039765Y023355D01*
X039786Y023376D02*
X040225Y023376D01*
X040225Y023453D02*
X039863Y023453D01*
X039940Y023530D02*
X040225Y023530D01*
X040225Y022450D02*
X039765Y022450D01*
X039765Y022373D02*
X040225Y022373D01*
X040225Y022295D02*
X039765Y022295D01*
X039765Y022218D02*
X040225Y022218D01*
X040225Y022141D02*
X039765Y022141D01*
X039765Y022064D02*
X040225Y022064D01*
X040225Y021987D02*
X039765Y021987D01*
X039765Y021910D02*
X040225Y021910D01*
X040225Y021832D02*
X039765Y021832D01*
X039765Y021755D02*
X040225Y021755D01*
X040225Y021678D02*
X039782Y021678D01*
X039859Y021601D02*
X040225Y021601D01*
X040225Y021524D02*
X039936Y021524D01*
X050890Y021524D02*
X051350Y021524D01*
X051350Y021601D02*
X050890Y021601D01*
X050890Y021678D02*
X051350Y021678D01*
X051350Y021755D02*
X050890Y021755D01*
X050890Y021832D02*
X051350Y021832D01*
X051350Y021910D02*
X050890Y021910D01*
X050890Y021987D02*
X051350Y021987D01*
X051350Y022064D02*
X050890Y022064D01*
X050890Y022105D02*
X050890Y020445D01*
X051070Y020265D01*
X051350Y020265D01*
X051350Y022285D01*
X051070Y022285D01*
X050890Y022105D01*
X050926Y022141D02*
X051350Y022141D01*
X051350Y022218D02*
X051003Y022218D01*
X050890Y021447D02*
X051350Y021447D01*
X051350Y021369D02*
X050890Y021369D01*
X050890Y021292D02*
X051350Y021292D01*
X051350Y021215D02*
X050890Y021215D01*
X050890Y021138D02*
X051350Y021138D01*
X051350Y021061D02*
X050890Y021061D01*
X050890Y020984D02*
X051350Y020984D01*
X051350Y020906D02*
X050890Y020906D01*
X050890Y020829D02*
X051350Y020829D01*
X051350Y020752D02*
X050890Y020752D01*
X050890Y020675D02*
X051350Y020675D01*
X051350Y020598D02*
X050890Y020598D01*
X050890Y020521D02*
X051350Y020521D01*
X051350Y020444D02*
X050891Y020444D01*
X050969Y020366D02*
X051350Y020366D01*
X051350Y020289D02*
X051046Y020289D01*
D48*
X052362Y033276D03*
X052942Y033276D03*
X058420Y033774D03*
X059000Y033774D03*
X127795Y034024D03*
X128375Y034024D03*
X053563Y080212D03*
X052983Y080212D03*
X053063Y078587D03*
X052483Y078587D03*
D49*
X052898Y070653D03*
X053908Y070653D03*
X058273Y068028D03*
X059283Y068028D03*
X068253Y014023D03*
X069297Y014027D03*
D50*
X042394Y069265D03*
X040406Y069265D03*
X040281Y073265D03*
X042269Y073265D03*
D51*
X126900Y065775D02*
X126900Y056775D01*
X133900Y056775D01*
X133900Y065775D01*
X126900Y065775D01*
X128400Y063275D02*
X128400Y062275D01*
X128402Y062231D01*
X128408Y062188D01*
X128417Y062146D01*
X128430Y062104D01*
X128447Y062064D01*
X128467Y062025D01*
X128490Y061988D01*
X128517Y061954D01*
X128546Y061921D01*
X128579Y061892D01*
X128613Y061865D01*
X128650Y061842D01*
X128689Y061822D01*
X128729Y061805D01*
X128771Y061792D01*
X128813Y061783D01*
X128856Y061777D01*
X128900Y061775D01*
X128944Y061777D01*
X128987Y061783D01*
X129029Y061792D01*
X129071Y061805D01*
X129111Y061822D01*
X129150Y061842D01*
X129187Y061865D01*
X129221Y061892D01*
X129254Y061921D01*
X129283Y061954D01*
X129310Y061988D01*
X129333Y062025D01*
X129353Y062064D01*
X129370Y062104D01*
X129383Y062146D01*
X129392Y062188D01*
X129398Y062231D01*
X129400Y062275D01*
X129402Y062231D01*
X129408Y062188D01*
X129417Y062146D01*
X129430Y062104D01*
X129447Y062064D01*
X129467Y062025D01*
X129490Y061988D01*
X129517Y061954D01*
X129546Y061921D01*
X129579Y061892D01*
X129613Y061865D01*
X129650Y061842D01*
X129689Y061822D01*
X129729Y061805D01*
X129771Y061792D01*
X129813Y061783D01*
X129856Y061777D01*
X129900Y061775D01*
X129944Y061777D01*
X129987Y061783D01*
X130029Y061792D01*
X130071Y061805D01*
X130111Y061822D01*
X130150Y061842D01*
X130187Y061865D01*
X130221Y061892D01*
X130254Y061921D01*
X130283Y061954D01*
X130310Y061988D01*
X130333Y062025D01*
X130353Y062064D01*
X130370Y062104D01*
X130383Y062146D01*
X130392Y062188D01*
X130398Y062231D01*
X130400Y062275D01*
X130402Y062231D01*
X130408Y062188D01*
X130417Y062146D01*
X130430Y062104D01*
X130447Y062064D01*
X130467Y062025D01*
X130490Y061988D01*
X130517Y061954D01*
X130546Y061921D01*
X130579Y061892D01*
X130613Y061865D01*
X130650Y061842D01*
X130689Y061822D01*
X130729Y061805D01*
X130771Y061792D01*
X130813Y061783D01*
X130856Y061777D01*
X130900Y061775D01*
X130944Y061777D01*
X130987Y061783D01*
X131029Y061792D01*
X131071Y061805D01*
X131111Y061822D01*
X131150Y061842D01*
X131187Y061865D01*
X131221Y061892D01*
X131254Y061921D01*
X131283Y061954D01*
X131310Y061988D01*
X131333Y062025D01*
X131353Y062064D01*
X131370Y062104D01*
X131383Y062146D01*
X131392Y062188D01*
X131398Y062231D01*
X131400Y062275D01*
X131402Y062231D01*
X131408Y062188D01*
X131417Y062146D01*
X131430Y062104D01*
X131447Y062064D01*
X131467Y062025D01*
X131490Y061988D01*
X131517Y061954D01*
X131546Y061921D01*
X131579Y061892D01*
X131613Y061865D01*
X131650Y061842D01*
X131689Y061822D01*
X131729Y061805D01*
X131771Y061792D01*
X131813Y061783D01*
X131856Y061777D01*
X131900Y061775D01*
X131944Y061777D01*
X131987Y061783D01*
X132029Y061792D01*
X132071Y061805D01*
X132111Y061822D01*
X132150Y061842D01*
X132187Y061865D01*
X132221Y061892D01*
X132254Y061921D01*
X132283Y061954D01*
X132310Y061988D01*
X132333Y062025D01*
X132353Y062064D01*
X132370Y062104D01*
X132383Y062146D01*
X132392Y062188D01*
X132398Y062231D01*
X132400Y062275D01*
X132400Y063275D01*
X132400Y061275D02*
X128400Y061275D01*
X128400Y060275D02*
X128400Y059275D01*
X128400Y060275D02*
X128402Y060319D01*
X128408Y060362D01*
X128417Y060404D01*
X128430Y060446D01*
X128447Y060486D01*
X128467Y060525D01*
X128490Y060562D01*
X128517Y060596D01*
X128546Y060629D01*
X128579Y060658D01*
X128613Y060685D01*
X128650Y060708D01*
X128689Y060728D01*
X128729Y060745D01*
X128771Y060758D01*
X128813Y060767D01*
X128856Y060773D01*
X128900Y060775D01*
X128944Y060773D01*
X128987Y060767D01*
X129029Y060758D01*
X129071Y060745D01*
X129111Y060728D01*
X129150Y060708D01*
X129187Y060685D01*
X129221Y060658D01*
X129254Y060629D01*
X129283Y060596D01*
X129310Y060562D01*
X129333Y060525D01*
X129353Y060486D01*
X129370Y060446D01*
X129383Y060404D01*
X129392Y060362D01*
X129398Y060319D01*
X129400Y060275D01*
X129402Y060319D01*
X129408Y060362D01*
X129417Y060404D01*
X129430Y060446D01*
X129447Y060486D01*
X129467Y060525D01*
X129490Y060562D01*
X129517Y060596D01*
X129546Y060629D01*
X129579Y060658D01*
X129613Y060685D01*
X129650Y060708D01*
X129689Y060728D01*
X129729Y060745D01*
X129771Y060758D01*
X129813Y060767D01*
X129856Y060773D01*
X129900Y060775D01*
X129944Y060773D01*
X129987Y060767D01*
X130029Y060758D01*
X130071Y060745D01*
X130111Y060728D01*
X130150Y060708D01*
X130187Y060685D01*
X130221Y060658D01*
X130254Y060629D01*
X130283Y060596D01*
X130310Y060562D01*
X130333Y060525D01*
X130353Y060486D01*
X130370Y060446D01*
X130383Y060404D01*
X130392Y060362D01*
X130398Y060319D01*
X130400Y060275D01*
X130402Y060319D01*
X130408Y060362D01*
X130417Y060404D01*
X130430Y060446D01*
X130447Y060486D01*
X130467Y060525D01*
X130490Y060562D01*
X130517Y060596D01*
X130546Y060629D01*
X130579Y060658D01*
X130613Y060685D01*
X130650Y060708D01*
X130689Y060728D01*
X130729Y060745D01*
X130771Y060758D01*
X130813Y060767D01*
X130856Y060773D01*
X130900Y060775D01*
X130944Y060773D01*
X130987Y060767D01*
X131029Y060758D01*
X131071Y060745D01*
X131111Y060728D01*
X131150Y060708D01*
X131187Y060685D01*
X131221Y060658D01*
X131254Y060629D01*
X131283Y060596D01*
X131310Y060562D01*
X131333Y060525D01*
X131353Y060486D01*
X131370Y060446D01*
X131383Y060404D01*
X131392Y060362D01*
X131398Y060319D01*
X131400Y060275D01*
X131402Y060319D01*
X131408Y060362D01*
X131417Y060404D01*
X131430Y060446D01*
X131447Y060486D01*
X131467Y060525D01*
X131490Y060562D01*
X131517Y060596D01*
X131546Y060629D01*
X131579Y060658D01*
X131613Y060685D01*
X131650Y060708D01*
X131689Y060728D01*
X131729Y060745D01*
X131771Y060758D01*
X131813Y060767D01*
X131856Y060773D01*
X131900Y060775D01*
X131944Y060773D01*
X131987Y060767D01*
X132029Y060758D01*
X132071Y060745D01*
X132111Y060728D01*
X132150Y060708D01*
X132187Y060685D01*
X132221Y060658D01*
X132254Y060629D01*
X132283Y060596D01*
X132310Y060562D01*
X132333Y060525D01*
X132353Y060486D01*
X132370Y060446D01*
X132383Y060404D01*
X132392Y060362D01*
X132398Y060319D01*
X132400Y060275D01*
X132400Y059275D01*
D52*
X130150Y040150D03*
X129150Y040150D03*
X129150Y039150D03*
X130150Y039150D03*
X128150Y039150D03*
X128150Y040150D03*
X100525Y041900D03*
X099525Y041900D03*
X099525Y042900D03*
X100525Y042900D03*
X100525Y043900D03*
X099525Y043900D03*
D53*
X101650Y039527D03*
X101650Y038527D03*
X098400Y036523D03*
X098400Y035523D03*
X097275Y035523D03*
X097275Y036523D03*
X098150Y029652D03*
X098150Y028652D03*
X115900Y048273D03*
X115900Y049273D03*
X115900Y055652D03*
X115900Y056652D03*
X062275Y072152D03*
X062275Y073152D03*
X056900Y075777D03*
X056900Y076777D03*
X060025Y018398D03*
X060025Y017398D03*
D54*
X060458Y070650D03*
X060458Y071150D03*
X060458Y071650D03*
X060458Y072150D03*
X060458Y072650D03*
X060458Y073150D03*
X060458Y073650D03*
X060458Y074150D03*
X060458Y074650D03*
X060458Y075150D03*
X057468Y075150D03*
X057468Y074650D03*
X057468Y074150D03*
X057468Y073650D03*
X057468Y073150D03*
X057468Y072650D03*
X057468Y072150D03*
X057468Y071650D03*
X057468Y071150D03*
X057468Y070650D03*
D55*
X057153Y070650D03*
X057153Y071150D03*
X057153Y071650D03*
X057153Y072150D03*
X057153Y072650D03*
X057153Y073150D03*
X057153Y073650D03*
X057153Y074150D03*
X057153Y074650D03*
X057153Y075150D03*
X060773Y075150D03*
X060773Y074650D03*
X060773Y074150D03*
X060773Y073650D03*
X060773Y073150D03*
X060773Y072650D03*
X060773Y072150D03*
X060773Y071650D03*
X060773Y071150D03*
X060773Y070650D03*
D56*
X055411Y072150D03*
X055411Y072650D03*
X055411Y073150D03*
X055411Y073650D03*
X055411Y074150D03*
X055411Y074650D03*
X055411Y075150D03*
X055411Y075650D03*
X053514Y075650D03*
X053514Y075150D03*
X053514Y074650D03*
X053514Y074150D03*
X053514Y073650D03*
X053514Y073150D03*
X053514Y072650D03*
X053514Y072150D03*
D57*
X061655Y068795D03*
X062395Y068795D03*
X062025Y068005D03*
D58*
X054900Y069628D03*
X054900Y070672D03*
D59*
X062628Y015400D03*
X063672Y015400D03*
D60*
X048080Y020150D03*
X048080Y020650D03*
X048080Y021150D03*
X048080Y021650D03*
X046220Y021650D03*
X046220Y021150D03*
X046220Y020650D03*
X046220Y020150D03*
M02*
