G75*
G70*
%OFA0B0*%
%FSLAX24Y24*%
%IPPOS*%
%LPD*%
%AMOC8*
5,1,8,0,0,1.08239X$1,22.5*
%
%ADD10C,0.1300*%
%ADD11C,0.0828*%
%ADD12C,0.0833*%
%ADD13C,0.1080*%
%ADD14OC8,0.0913*%
%ADD15OC8,0.0873*%
%ADD16C,0.0907*%
%ADD17C,0.0167*%
%ADD18C,0.0833*%
%ADD19C,0.0907*%
%ADD20C,0.0986*%
%ADD21C,0.0867*%
%ADD22R,0.0631X0.0789*%
%ADD23OC8,0.0833*%
%ADD24R,0.0983X0.0983*%
%ADD25C,0.0790*%
%ADD26R,0.0983X0.0983*%
%ADD27C,0.0913*%
%ADD28C,0.0953*%
%ADD29C,0.1261*%
%ADD30C,0.0840*%
%ADD31C,0.1223*%
%ADD32C,0.1080*%
%ADD33OC8,0.1080*%
%ADD34C,0.0913*%
%ADD35C,0.4804*%
%ADD36R,0.0833X0.0833*%
%ADD37C,0.1694*%
%ADD38C,0.2049*%
%ADD39C,0.1340*%
%ADD40C,0.1655*%
%ADD41R,0.1375X0.3625*%
%ADD42C,0.1261*%
%ADD43R,0.0552X0.0789*%
%ADD44C,0.1182*%
%ADD45R,0.1182X0.1182*%
%ADD46C,0.0983*%
%ADD47R,0.1080X0.1080*%
%ADD48R,0.1655X0.1655*%
%ADD49C,0.1064*%
%ADD50C,0.0867*%
%ADD51C,0.0216*%
%ADD52C,0.1143*%
%ADD53C,0.0986*%
%ADD54C,0.0990*%
%ADD55C,0.0940*%
%ADD56OC8,0.0907*%
%ADD57R,0.1580X0.1580*%
D10*
X094275Y040275D03*
X105650Y027025D03*
X119025Y040650D03*
X131650Y040275D03*
D11*
X121775Y033525D03*
X120775Y033525D03*
X119775Y033525D03*
X118775Y033525D03*
X117775Y033525D03*
X116650Y033525D03*
X116650Y028525D03*
X117775Y028525D03*
X118775Y028525D03*
X119775Y028525D03*
X120775Y028525D03*
X121775Y028525D03*
X120275Y027025D03*
X119275Y027025D03*
X118275Y027025D03*
X112650Y024400D03*
X112650Y020400D03*
X098650Y021025D03*
X098650Y023025D03*
X095963Y031025D03*
X095963Y033025D03*
X109275Y046775D03*
X110525Y048025D03*
X111650Y048025D03*
X112650Y048025D03*
X113650Y048025D03*
X114650Y048025D03*
X115650Y048025D03*
X112275Y046775D03*
X106213Y050650D03*
X106275Y052025D03*
X106275Y053025D03*
X106275Y054525D03*
X103275Y054525D03*
X103275Y053025D03*
X103275Y052025D03*
X103213Y050650D03*
X110463Y053025D03*
X111463Y053025D03*
X112463Y053025D03*
X113588Y053025D03*
X114775Y053025D03*
X115713Y053025D03*
X122775Y053025D03*
X123775Y053025D03*
X124900Y053025D03*
X126025Y053025D03*
X127025Y053025D03*
X127963Y053025D03*
X127900Y048025D03*
X126900Y048025D03*
X125900Y048025D03*
X124900Y048025D03*
X123900Y048025D03*
X122775Y048025D03*
X106275Y056775D03*
X103275Y056775D03*
X096275Y057650D03*
X096275Y055650D03*
X060150Y038025D03*
X060150Y037025D03*
X060150Y036025D03*
X060400Y033525D03*
X060400Y032525D03*
X060400Y031525D03*
X060400Y029525D03*
X060400Y028525D03*
X060400Y027525D03*
X055025Y027650D03*
X055025Y028650D03*
X055025Y029650D03*
X055025Y031400D03*
X055025Y032400D03*
X055025Y033400D03*
X055025Y036025D03*
X055025Y037025D03*
X055025Y038025D03*
X049525Y038025D03*
X049525Y037025D03*
X049525Y036025D03*
X049525Y033525D03*
X049525Y032525D03*
X049525Y031525D03*
X049525Y029400D03*
X049525Y028400D03*
X049525Y027400D03*
X044088Y027838D03*
X044088Y026838D03*
X044088Y028838D03*
X044088Y030963D03*
X044088Y031963D03*
X044088Y032963D03*
X044088Y035963D03*
X044088Y036963D03*
X044088Y037963D03*
X039900Y036150D03*
X039025Y038525D03*
X035900Y036150D03*
X035025Y038525D03*
X035025Y028650D03*
X039025Y028650D03*
X029900Y026650D03*
X029900Y025525D03*
X025900Y025525D03*
X025900Y026650D03*
X055650Y050525D03*
X055650Y054525D03*
X040025Y058650D03*
X036025Y058650D03*
X035775Y053025D03*
X034900Y052025D03*
X032775Y053025D03*
X036900Y052025D03*
D12*
X035900Y054148D02*
X035900Y054902D01*
X034900Y054902D02*
X034900Y054148D01*
X033900Y054148D02*
X033900Y054902D01*
X032900Y054902D02*
X032900Y054148D01*
X032900Y057148D02*
X032900Y057902D01*
X033900Y057902D02*
X033900Y057148D01*
X034900Y057148D02*
X034900Y057902D01*
X035900Y057902D02*
X035900Y057148D01*
X045523Y051650D02*
X046277Y051650D01*
X046277Y050650D02*
X045523Y050650D01*
X045523Y049650D02*
X046277Y049650D01*
X046277Y048650D02*
X045523Y048650D01*
X045523Y047650D02*
X046277Y047650D01*
X046277Y046650D02*
X045523Y046650D01*
X045523Y045650D02*
X046277Y045650D01*
X046277Y044650D02*
X045523Y044650D01*
X048523Y044650D02*
X049277Y044650D01*
X049277Y045650D02*
X048523Y045650D01*
X048523Y046650D02*
X049277Y046650D01*
X049277Y047650D02*
X048523Y047650D01*
X048523Y048650D02*
X049277Y048650D01*
X049277Y049650D02*
X048523Y049650D01*
X048523Y050650D02*
X049277Y050650D01*
X049277Y051650D02*
X048523Y051650D01*
X051648Y059525D02*
X052402Y059525D01*
X052402Y060525D02*
X051648Y060525D01*
X051648Y061525D02*
X052402Y061525D01*
X054525Y064523D02*
X054525Y065277D01*
X054525Y068523D02*
X054525Y069277D01*
X097398Y057275D02*
X098152Y057275D01*
X098152Y056275D02*
X097398Y056275D01*
X097398Y055275D02*
X098152Y055275D01*
X098152Y054275D02*
X097398Y054275D01*
X097398Y053275D02*
X098152Y053275D01*
X098152Y052275D02*
X097398Y052275D01*
X097398Y051275D02*
X098152Y051275D01*
X098152Y050275D02*
X097398Y050275D01*
X100398Y050275D02*
X101152Y050275D01*
X101152Y051275D02*
X100398Y051275D01*
X100398Y052275D02*
X101152Y052275D01*
X101152Y053275D02*
X100398Y053275D01*
X100398Y054275D02*
X101152Y054275D01*
X101152Y055275D02*
X100398Y055275D01*
X100398Y056275D02*
X101152Y056275D01*
X101152Y057275D02*
X100398Y057275D01*
X099902Y045025D02*
X099148Y045025D01*
X099148Y044025D02*
X099902Y044025D01*
X102148Y044025D02*
X102902Y044025D01*
X102902Y043025D02*
X102148Y043025D01*
X102148Y042025D02*
X102902Y042025D01*
X102902Y041025D02*
X102148Y041025D01*
X102148Y040025D02*
X102902Y040025D01*
X102902Y039025D02*
X102148Y039025D01*
X099902Y039025D02*
X099148Y039025D01*
X099148Y040025D02*
X099902Y040025D01*
X099902Y041025D02*
X099148Y041025D01*
X100023Y037025D02*
X100777Y037025D01*
X100777Y036025D02*
X100023Y036025D01*
X100023Y035025D02*
X100777Y035025D01*
X101273Y035150D02*
X102027Y035150D01*
X102027Y034150D02*
X101273Y034150D01*
X100777Y034025D02*
X100023Y034025D01*
X100023Y033025D02*
X100777Y033025D01*
X101273Y033150D02*
X102027Y033150D01*
X102027Y032150D02*
X101273Y032150D01*
X100777Y032025D02*
X100023Y032025D01*
X100023Y031025D02*
X100777Y031025D01*
X101273Y031150D02*
X102027Y031150D01*
X102027Y030150D02*
X101273Y030150D01*
X100777Y030025D02*
X100023Y030025D01*
X101273Y029150D02*
X102027Y029150D01*
X104273Y029150D02*
X105027Y029150D01*
X105027Y030150D02*
X104273Y030150D01*
X104273Y031150D02*
X105027Y031150D01*
X105027Y032150D02*
X104273Y032150D01*
X104273Y033150D02*
X105027Y033150D01*
X105027Y034150D02*
X104273Y034150D01*
X104273Y035150D02*
X105027Y035150D01*
X105027Y036150D02*
X104273Y036150D01*
X102027Y036150D02*
X101273Y036150D01*
X097777Y036025D02*
X097023Y036025D01*
X097023Y035025D02*
X097777Y035025D01*
X097777Y034025D02*
X097023Y034025D01*
X097023Y033025D02*
X097777Y033025D01*
X097777Y032025D02*
X097023Y032025D01*
X097023Y031025D02*
X097777Y031025D01*
X097777Y030025D02*
X097023Y030025D01*
X099773Y027025D02*
X100527Y027025D01*
X100527Y026025D02*
X099773Y026025D01*
X099773Y025025D02*
X100527Y025025D01*
X100527Y024025D02*
X099773Y024025D01*
X099773Y023025D02*
X100527Y023025D01*
X100527Y022025D02*
X099773Y022025D01*
X099773Y021025D02*
X100527Y021025D01*
X100527Y020025D02*
X099773Y020025D01*
X102773Y020025D02*
X103527Y020025D01*
X103527Y021025D02*
X102773Y021025D01*
X102773Y022025D02*
X103527Y022025D01*
X103527Y023025D02*
X102773Y023025D01*
X102773Y024025D02*
X103527Y024025D01*
X103527Y025025D02*
X102773Y025025D01*
X102773Y026025D02*
X103527Y026025D01*
X103527Y027025D02*
X102773Y027025D01*
X107648Y026025D02*
X108402Y026025D01*
X108402Y025025D02*
X107648Y025025D01*
X107648Y024025D02*
X108402Y024025D01*
X108402Y023025D02*
X107648Y023025D01*
X107648Y022025D02*
X108402Y022025D01*
X108402Y021025D02*
X107648Y021025D01*
X107648Y020025D02*
X108402Y020025D01*
X108402Y019025D02*
X107648Y019025D01*
X110648Y019025D02*
X111402Y019025D01*
X111402Y020025D02*
X110648Y020025D01*
X110648Y021025D02*
X111402Y021025D01*
X111402Y022025D02*
X110648Y022025D01*
X110648Y023025D02*
X111402Y023025D01*
X111402Y024025D02*
X110648Y024025D01*
X110648Y025025D02*
X111402Y025025D01*
X111402Y026025D02*
X110648Y026025D01*
X097777Y037025D02*
X097023Y037025D01*
X102148Y045025D02*
X102902Y045025D01*
X126273Y069400D02*
X127027Y069400D01*
X127027Y071400D02*
X126273Y071400D01*
X063150Y023402D02*
X063150Y022648D01*
X062150Y022648D02*
X062150Y023402D01*
X061150Y023402D02*
X061150Y022648D01*
X034568Y028687D02*
X033832Y028530D01*
X033624Y029509D02*
X034361Y029665D01*
X034153Y030643D02*
X033416Y030487D01*
X031218Y030020D02*
X030482Y029863D01*
X030689Y028885D02*
X031426Y029041D01*
X031634Y028063D02*
X030897Y027907D01*
X030976Y034339D02*
X031717Y034470D01*
X031544Y035455D02*
X030802Y035324D01*
X030628Y036309D02*
X031370Y036440D01*
X033583Y036830D02*
X034324Y036961D01*
X034498Y035976D02*
X033756Y035845D01*
X033930Y034860D02*
X034672Y034991D01*
X034523Y039400D02*
X035277Y039400D01*
X035277Y040400D02*
X034523Y040400D01*
X034523Y041400D02*
X035277Y041400D01*
X032277Y041400D02*
X031523Y041400D01*
X031523Y040400D02*
X032277Y040400D01*
X032277Y039400D02*
X031523Y039400D01*
D13*
X116675Y068025D02*
X116675Y069025D01*
X118675Y069025D02*
X118675Y068025D01*
X122875Y068025D02*
X122875Y069025D01*
X124875Y069025D02*
X124875Y068025D01*
X124875Y072025D02*
X124875Y073025D01*
X122875Y073025D02*
X122875Y072025D01*
X118675Y072025D02*
X118675Y073025D01*
X116675Y073025D02*
X116675Y072025D01*
D14*
X022525Y021775D03*
X022525Y027775D03*
X022525Y029025D03*
X024025Y031025D03*
X024025Y033025D03*
X022525Y035025D03*
X022650Y036525D03*
X024025Y037775D03*
X024025Y039775D03*
X022650Y042525D03*
X030025Y039775D03*
X030025Y037775D03*
X030025Y033025D03*
X030025Y031025D03*
X036650Y027150D03*
X036650Y026150D03*
X036650Y025150D03*
X036650Y024150D03*
X036650Y023150D03*
X037650Y023150D03*
X037650Y024150D03*
X037650Y025150D03*
X037650Y026150D03*
X037650Y027150D03*
X058525Y040275D03*
X058525Y041275D03*
X059525Y041275D03*
X060525Y041275D03*
X060525Y040275D03*
X059525Y040275D03*
X061525Y040275D03*
X061525Y041275D03*
X057400Y045525D03*
X057400Y046525D03*
X058400Y046525D03*
X058400Y047525D03*
X057400Y047525D03*
X029150Y050775D03*
X023150Y050775D03*
X023400Y060150D03*
X020650Y060150D03*
X020650Y066150D03*
X023400Y066150D03*
X028025Y068650D03*
X028025Y072650D03*
X046025Y066400D03*
X096150Y044900D03*
X096150Y043900D03*
X097150Y043900D03*
X097150Y042900D03*
X096150Y042900D03*
X121650Y058900D03*
X121650Y064900D03*
X128775Y068275D03*
X130025Y068275D03*
X133650Y064025D03*
X133650Y058025D03*
X126275Y041150D03*
X125275Y041150D03*
X125275Y040150D03*
X062150Y022025D03*
D15*
X043900Y064025D03*
X040900Y064025D03*
D16*
X051987Y064025D02*
X052813Y064025D01*
X052813Y065025D02*
X051987Y065025D01*
X051987Y066025D02*
X052813Y066025D01*
X019438Y040525D02*
X018612Y040525D01*
X018612Y039525D02*
X019438Y039525D01*
X019438Y038525D02*
X018612Y038525D01*
X018612Y033275D02*
X019438Y033275D01*
X019438Y032275D02*
X018612Y032275D01*
X018612Y031275D02*
X019438Y031275D01*
X019438Y026025D02*
X018612Y026025D01*
X018612Y025025D02*
X019438Y025025D01*
X019438Y024025D02*
X018612Y024025D01*
D17*
X046367Y065002D02*
X046283Y065086D01*
X046559Y065086D01*
X046753Y064892D01*
X046753Y064616D01*
X046559Y064422D01*
X046283Y064422D01*
X046089Y064616D01*
X046089Y064892D01*
X046283Y065086D01*
X046335Y064961D01*
X046507Y064961D01*
X046628Y064840D01*
X046628Y064668D01*
X046507Y064547D01*
X046335Y064547D01*
X046214Y064668D01*
X046214Y064840D01*
X046335Y064961D01*
X046387Y064836D01*
X046455Y064836D01*
X046503Y064788D01*
X046503Y064720D01*
X046455Y064672D01*
X046387Y064672D01*
X046339Y064720D01*
X046339Y064788D01*
X046387Y064836D01*
X052666Y067120D02*
X052750Y067036D01*
X052478Y067084D01*
X052321Y067309D01*
X052369Y067581D01*
X052594Y067738D01*
X052866Y067690D01*
X053023Y067465D01*
X052975Y067193D01*
X052750Y067036D01*
X052720Y067168D01*
X052551Y067198D01*
X052453Y067339D01*
X052483Y067508D01*
X052624Y067606D01*
X052793Y067576D01*
X052891Y067435D01*
X052861Y067266D01*
X052720Y067168D01*
X052691Y067300D01*
X052624Y067312D01*
X052585Y067368D01*
X052597Y067435D01*
X052653Y067474D01*
X052720Y067462D01*
X052759Y067406D01*
X052747Y067339D01*
X052691Y067300D01*
X050372Y070396D02*
X050456Y070312D01*
X050184Y070360D01*
X050027Y070585D01*
X050075Y070857D01*
X050300Y071014D01*
X050572Y070966D01*
X050729Y070741D01*
X050681Y070469D01*
X050456Y070312D01*
X050426Y070444D01*
X050257Y070474D01*
X050159Y070615D01*
X050189Y070784D01*
X050330Y070882D01*
X050499Y070852D01*
X050597Y070711D01*
X050567Y070542D01*
X050426Y070444D01*
X050397Y070576D01*
X050330Y070588D01*
X050291Y070644D01*
X050303Y070711D01*
X050359Y070750D01*
X050426Y070738D01*
X050465Y070682D01*
X050453Y070615D01*
X050397Y070576D01*
D18*
X048775Y071325D03*
X049088Y069338D03*
X050025Y065475D03*
X047129Y064046D03*
X038400Y056725D03*
X028900Y057525D03*
X039650Y041400D03*
X054088Y075200D03*
X054088Y077100D03*
D19*
X053892Y079483D03*
X053892Y080521D03*
X052845Y080521D03*
X052845Y079483D03*
X027525Y075775D03*
X027525Y073775D03*
X029025Y041650D03*
X025025Y041650D03*
X025025Y034900D03*
X029025Y034900D03*
X029525Y028025D03*
X025525Y028025D03*
D20*
X131197Y065525D02*
X132103Y065525D01*
X132103Y067525D02*
X131197Y067525D01*
X131197Y069525D02*
X132103Y069525D01*
X134197Y069525D02*
X135103Y069525D01*
X135103Y067525D02*
X134197Y067525D01*
X134197Y065525D02*
X135103Y065525D01*
X135103Y075525D02*
X134197Y075525D01*
X132103Y075525D02*
X131197Y075525D01*
D21*
X129919Y075525D02*
X129131Y075525D01*
X129131Y076525D02*
X129919Y076525D01*
X044419Y051650D02*
X043631Y051650D01*
X043631Y050650D02*
X044419Y050650D01*
X044419Y049650D02*
X043631Y049650D01*
X043631Y048650D02*
X044419Y048650D01*
D22*
X132731Y074525D03*
X134069Y074525D03*
D23*
X130400Y055588D03*
X130400Y054463D03*
X129150Y054525D03*
X129150Y055525D03*
X127900Y055588D03*
X127900Y054463D03*
X126650Y054463D03*
X126650Y055588D03*
X125400Y055588D03*
X125400Y054463D03*
X124150Y054525D03*
X124150Y055525D03*
X122900Y055525D03*
X122900Y054525D03*
X121650Y054525D03*
X121650Y055525D03*
X120400Y055525D03*
X120400Y054525D03*
X118150Y054525D03*
X118150Y055525D03*
X116900Y055525D03*
X116900Y054525D03*
X115650Y054463D03*
X115650Y055588D03*
X114400Y055588D03*
X114400Y054463D03*
X113150Y054463D03*
X113150Y055588D03*
X111900Y055525D03*
X111900Y054525D03*
X110650Y054525D03*
X110650Y055525D03*
X109400Y055525D03*
X109400Y054525D03*
X108150Y054525D03*
X108150Y055525D03*
X102275Y056400D03*
X102275Y050400D03*
X106150Y040525D03*
X108150Y040525D03*
X121900Y040900D03*
X122900Y040900D03*
X127463Y040900D03*
X128463Y040900D03*
X127775Y034150D03*
X126775Y034150D03*
X062025Y070025D03*
X059025Y070025D03*
X050025Y064075D03*
X049088Y067338D03*
X048775Y072725D03*
X034025Y061775D03*
X034025Y058775D03*
X028900Y058525D03*
X038400Y055325D03*
X030900Y065650D03*
X027900Y065650D03*
X038650Y041400D03*
X045025Y034775D03*
X050025Y034775D03*
D24*
X107065Y036420D03*
X107065Y038380D03*
X111985Y038380D03*
X113565Y038380D03*
X113565Y036420D03*
X111985Y036420D03*
X118485Y036420D03*
X118485Y038380D03*
X118485Y042920D03*
X120065Y042920D03*
X120065Y044880D03*
X118485Y044880D03*
X113565Y044880D03*
X111985Y044880D03*
X111985Y042920D03*
X113565Y042920D03*
X107065Y042920D03*
X107065Y044880D03*
X124985Y044880D03*
X126565Y044880D03*
X126565Y042920D03*
X124985Y042920D03*
X131485Y042920D03*
X131485Y044880D03*
X131485Y025380D03*
X131485Y023420D03*
X126565Y023420D03*
X124985Y023420D03*
X124985Y025380D03*
X126565Y025380D03*
X120065Y025380D03*
X118485Y025380D03*
X118485Y023420D03*
X120065Y023420D03*
X113565Y023420D03*
X113565Y025380D03*
D25*
X116025Y026170D03*
X116025Y022630D03*
X122525Y022630D03*
X122525Y026170D03*
X129025Y026170D03*
X130277Y029648D03*
X127773Y032152D03*
X127773Y036148D03*
X130277Y038652D03*
X129025Y042130D03*
X129025Y045670D03*
X122525Y045670D03*
X122525Y042130D03*
X121273Y038652D03*
X123777Y036148D03*
X116025Y035630D03*
X116025Y039170D03*
X116025Y042130D03*
X116025Y045670D03*
X109525Y045670D03*
X109525Y042130D03*
X109525Y039170D03*
X109525Y035630D03*
X129025Y022630D03*
D26*
G36*
X127284Y028468D02*
X127978Y029162D01*
X128672Y028468D01*
X127978Y027774D01*
X127284Y028468D01*
G37*
G36*
X125899Y029853D02*
X126593Y030547D01*
X127287Y029853D01*
X126593Y029159D01*
X125899Y029853D01*
G37*
G36*
X129378Y033332D02*
X130072Y034026D01*
X130766Y033332D01*
X130072Y032638D01*
X129378Y033332D01*
G37*
G36*
X130763Y031947D02*
X131457Y032641D01*
X132151Y031947D01*
X131457Y031253D01*
X130763Y031947D01*
G37*
G36*
X130072Y034274D02*
X129378Y034968D01*
X130072Y035662D01*
X130766Y034968D01*
X130072Y034274D01*
G37*
G36*
X131457Y035659D02*
X130763Y036353D01*
X131457Y037047D01*
X132151Y036353D01*
X131457Y035659D01*
G37*
G36*
X126593Y037753D02*
X125899Y038447D01*
X126593Y039141D01*
X127287Y038447D01*
X126593Y037753D01*
G37*
G36*
X125651Y038447D02*
X124957Y037753D01*
X124263Y038447D01*
X124957Y039141D01*
X125651Y038447D01*
G37*
G36*
X124266Y039832D02*
X123572Y039138D01*
X122878Y039832D01*
X123572Y040526D01*
X124266Y039832D01*
G37*
G36*
X127978Y039138D02*
X127284Y039832D01*
X127978Y040526D01*
X128672Y039832D01*
X127978Y039138D01*
G37*
G36*
X122172Y034968D02*
X121478Y034274D01*
X120784Y034968D01*
X121478Y035662D01*
X122172Y034968D01*
G37*
G36*
X120787Y036353D02*
X120093Y035659D01*
X119399Y036353D01*
X120093Y037047D01*
X120787Y036353D01*
G37*
D27*
X046192Y068650D02*
X045358Y068650D01*
X045358Y069650D02*
X046192Y069650D01*
X046192Y070650D02*
X045358Y070650D01*
X045358Y075650D02*
X046192Y075650D01*
X046192Y076650D02*
X045358Y076650D01*
X045358Y077650D02*
X046192Y077650D01*
X038650Y062692D02*
X038650Y061858D01*
X037650Y061858D02*
X037650Y062692D01*
X036650Y062692D02*
X036650Y061858D01*
X031650Y062108D02*
X031650Y062942D01*
X030650Y062942D02*
X030650Y062108D01*
X029650Y062108D02*
X029650Y062942D01*
X043608Y046650D02*
X044442Y046650D01*
X044442Y045650D02*
X043608Y045650D01*
X043608Y044650D02*
X044442Y044650D01*
D28*
X031150Y053525D03*
X029400Y054525D03*
X031150Y057525D03*
X025400Y054525D03*
X022150Y050775D03*
X018150Y050775D03*
X115901Y051254D03*
X117399Y047546D03*
D29*
X026525Y056309D02*
X026525Y057491D01*
X023585Y057491D02*
X023585Y056309D01*
X020635Y056309D02*
X020635Y057491D01*
X017685Y057491D02*
X017685Y056309D01*
D30*
X061025Y055525D03*
X062025Y055525D03*
X062025Y054525D03*
X061025Y054525D03*
X061025Y053525D03*
X062025Y053525D03*
X062025Y052525D03*
X061025Y052525D03*
X062025Y056525D03*
D31*
X037650Y060625D03*
X030650Y060625D03*
X020675Y039525D03*
X020675Y032275D03*
X020675Y025025D03*
D32*
X026525Y058525D03*
X026525Y062900D03*
X050150Y075275D03*
X125025Y064775D03*
X129025Y064775D03*
X129025Y059775D03*
X125025Y059775D03*
D33*
X050150Y077275D03*
D34*
X058400Y045525D03*
X097150Y044900D03*
X126275Y040150D03*
D35*
X109525Y030900D03*
D36*
X099525Y042025D03*
X099525Y043025D03*
D37*
X102189Y047650D03*
X094709Y047650D03*
D38*
X098449Y047650D03*
X024275Y071775D03*
X019525Y071775D03*
D39*
X094838Y018376D03*
X129877Y018376D03*
X129877Y079400D03*
D40*
X128525Y072838D03*
X117713Y075150D03*
D41*
X120275Y077463D03*
X126025Y077463D03*
D42*
X055770Y081525D03*
X051030Y081525D03*
X025025Y066150D03*
X018775Y066150D03*
X018775Y059900D03*
X025025Y059900D03*
X019025Y047150D03*
X030025Y044525D03*
X020650Y035900D03*
X024400Y025150D03*
D43*
X096275Y038685D03*
X096275Y039865D03*
D44*
X055791Y019082D02*
X055011Y018303D01*
X054039Y019299D02*
X054818Y020078D01*
X052456Y019247D02*
X052456Y018145D01*
X050881Y019295D02*
X050102Y020074D01*
X049102Y019082D02*
X049881Y018303D01*
X047447Y019082D02*
X046667Y018303D01*
X045695Y019299D02*
X046475Y020078D01*
X044112Y019247D02*
X044112Y018145D01*
X042538Y019295D02*
X041758Y020074D01*
X040758Y019082D02*
X041538Y018303D01*
D45*
X042148Y014762D03*
X043132Y014762D03*
X045104Y014762D03*
X046088Y014762D03*
X050492Y014762D03*
X051476Y014762D03*
X053447Y014762D03*
X054432Y014762D03*
D46*
X026650Y022698D02*
X026650Y023602D01*
X024650Y023602D02*
X024650Y022698D01*
D47*
X029313Y068875D03*
X029313Y075175D03*
X043487Y075962D03*
X043487Y077537D03*
X043487Y073994D03*
X043487Y072419D03*
X043487Y070450D03*
X043487Y068875D03*
D48*
X043880Y066513D03*
D49*
X028338Y049025D03*
D50*
X036356Y049025D03*
D51*
X048873Y059679D02*
X048765Y059787D01*
X049123Y059787D01*
X049375Y059535D01*
X049375Y059177D01*
X049123Y058925D01*
X048765Y058925D01*
X048513Y059177D01*
X048513Y059535D01*
X048765Y059787D01*
X048832Y059625D01*
X049056Y059625D01*
X049213Y059468D01*
X049213Y059244D01*
X049056Y059087D01*
X048832Y059087D01*
X048675Y059244D01*
X048675Y059468D01*
X048832Y059625D01*
X048899Y059463D01*
X048989Y059463D01*
X049051Y059401D01*
X049051Y059311D01*
X048989Y059249D01*
X048899Y059249D01*
X048837Y059311D01*
X048837Y059401D01*
X048899Y059463D01*
X046785Y061767D02*
X046677Y061875D01*
X047035Y061875D01*
X047287Y061623D01*
X047287Y061265D01*
X047035Y061013D01*
X046677Y061013D01*
X046425Y061265D01*
X046425Y061623D01*
X046677Y061875D01*
X046744Y061713D01*
X046968Y061713D01*
X047125Y061556D01*
X047125Y061332D01*
X046968Y061175D01*
X046744Y061175D01*
X046587Y061332D01*
X046587Y061556D01*
X046744Y061713D01*
X046811Y061551D01*
X046901Y061551D01*
X046963Y061489D01*
X046963Y061399D01*
X046901Y061337D01*
X046811Y061337D01*
X046749Y061399D01*
X046749Y061489D01*
X046811Y061551D01*
D52*
X028187Y045056D02*
X028187Y043994D01*
X026613Y043994D02*
X026613Y045056D01*
X023937Y045056D02*
X023937Y043994D01*
X022363Y043994D02*
X022363Y045056D01*
X019687Y045056D02*
X019687Y043994D01*
X018113Y043994D02*
X018113Y045056D01*
X019369Y052613D02*
X020431Y052613D01*
X020431Y054187D02*
X019369Y054187D01*
X117619Y060113D02*
X118681Y060113D01*
X118681Y061687D02*
X117619Y061687D01*
X117619Y064488D02*
X118681Y064488D01*
X118681Y066062D02*
X117619Y066062D01*
D53*
X124775Y056525D03*
X121025Y053650D03*
X122275Y051900D03*
X123900Y050525D03*
X124900Y049775D03*
X125900Y048900D03*
X127400Y049025D03*
X127650Y050650D03*
X126525Y050463D03*
X126900Y051525D03*
X125775Y051525D03*
X129775Y050650D03*
X130900Y051525D03*
X123463Y046650D03*
X122025Y046775D03*
X119025Y048900D03*
X118150Y049775D03*
X119025Y051213D03*
X118025Y051900D03*
X118650Y053400D03*
X113900Y050525D03*
X113275Y049025D03*
X111650Y050025D03*
X111025Y052025D03*
X109275Y052525D03*
X109275Y053400D03*
X109525Y050775D03*
X108400Y050275D03*
X109400Y049150D03*
X108650Y048400D03*
X104588Y046525D03*
X104650Y045338D03*
X109525Y040650D03*
X113025Y040650D03*
X105338Y038150D03*
X102275Y037400D03*
X097650Y038150D03*
X096150Y040588D03*
X095025Y035400D03*
X094275Y034025D03*
X095025Y032588D03*
X106400Y034525D03*
X114775Y032150D03*
X114775Y030275D03*
X116025Y029775D03*
X115525Y027400D03*
X122275Y029775D03*
X118025Y032150D03*
X125588Y033275D03*
X128650Y027525D03*
X133025Y027525D03*
X116525Y046775D03*
X107150Y055150D03*
X105275Y055650D03*
X096463Y051275D03*
X094025Y051275D03*
X092516Y045525D03*
X058150Y027650D03*
X057213Y026775D03*
X058150Y024650D03*
X057213Y032025D03*
X056775Y069025D03*
X062775Y069025D03*
D54*
X063775Y071525D03*
X063775Y073025D03*
X057150Y076400D03*
X055275Y071525D03*
X056275Y067150D03*
X058525Y067150D03*
X058525Y063400D03*
X055525Y062525D03*
X056275Y059650D03*
X056275Y058150D03*
X054650Y058900D03*
X054025Y056025D03*
X052150Y055275D03*
X050775Y054775D03*
X050275Y056025D03*
X048525Y056025D03*
X047400Y057650D03*
X050525Y061275D03*
X056275Y056025D03*
X057150Y055275D03*
X053900Y052775D03*
X052900Y051900D03*
X051900Y053400D03*
X050275Y051150D03*
X048525Y052400D03*
X047400Y052525D03*
X054775Y051525D03*
X056525Y051400D03*
X056525Y047900D03*
X055650Y047275D03*
X054775Y045025D03*
X055650Y044400D03*
X053900Y044275D03*
X052900Y043400D03*
X051900Y042650D03*
X053400Y041900D03*
X054525Y040775D03*
X052775Y039400D03*
X051775Y040025D03*
X048775Y041900D03*
X047275Y040775D03*
X044900Y041400D03*
X044900Y040025D03*
X050275Y043150D03*
X050775Y045400D03*
X057400Y041400D03*
X058525Y039400D03*
X059400Y046400D03*
X062400Y046400D03*
X062900Y049525D03*
X062900Y054525D03*
X063525Y059650D03*
X059400Y058900D03*
X062650Y062525D03*
X061650Y063400D03*
X050525Y067400D03*
X044150Y034775D03*
X040900Y034775D03*
D55*
X046088Y031963D03*
X046088Y027775D03*
X046088Y026775D03*
X046463Y025400D03*
X050963Y025400D03*
X041025Y025525D03*
X039025Y027525D03*
D56*
X117400Y050525D03*
D57*
X092650Y058275D03*
X116650Y078525D03*
X131150Y080775D03*
X135150Y076775D03*
X135150Y021025D03*
X131150Y017025D03*
X093650Y017025D03*
X092650Y021025D03*
M02*
