G75*
G70*
%OFA0B0*%
%FSLAX24Y24*%
%IPPOS*%
%LPD*%
%AMOC8*
5,1,8,0,0,1.08239X$1,22.5*
%
%ADD10C,0.0150*%
%ADD11C,0.0240*%
%ADD12R,0.0500X0.0220*%
%ADD13R,0.0220X0.0500*%
%ADD14R,0.0591X0.0512*%
%ADD15C,0.0827*%
%ADD16R,0.0512X0.0591*%
%ADD17R,0.0709X0.0472*%
%ADD18R,0.0787X0.0630*%
%ADD19R,0.0630X0.0512*%
%ADD20R,0.0630X0.0709*%
%ADD21R,0.0512X0.0630*%
%ADD22R,0.0630X0.0787*%
%ADD23C,0.0832*%
%ADD24OC8,0.1000*%
%ADD25C,0.1000*%
%ADD26R,0.0866X0.0236*%
%ADD27C,0.1000*%
%ADD28C,0.0110*%
%ADD29OC8,0.0912*%
%ADD30C,0.0080*%
%ADD31OC8,0.0872*%
%ADD32C,0.0906*%
%ADD33OC8,0.0832*%
%ADD34C,0.0832*%
%ADD35C,0.0906*%
%ADD36C,0.0982*%
%ADD37C,0.0984*%
%ADD38C,0.0070*%
%ADD39C,0.0866*%
%ADD40C,0.0100*%
%ADD41R,0.0982X0.0982*%
%ADD42R,0.0982X0.0982*%
%ADD43R,0.0551X0.0709*%
%ADD44R,0.0709X0.0551*%
%ADD45C,0.0952*%
%ADD46C,0.0912*%
%ADD47C,0.1181*%
%ADD48R,0.0630X0.1063*%
%ADD49C,0.1222*%
%ADD50R,0.0709X0.0669*%
%ADD51C,0.0912*%
%ADD52R,0.0472X0.0709*%
%ADD53R,0.0630X0.0460*%
%ADD54R,0.0832X0.0832*%
%ADD55C,0.1575*%
%ADD56C,0.1181*%
%ADD57R,0.0800X0.0260*%
%ADD58R,0.0600X0.0250*%
%ADD59R,0.0591X0.0394*%
%ADD60R,0.0394X0.0551*%
%ADD61R,0.0709X0.0709*%
%ADD62R,0.0709X0.0630*%
%ADD63R,0.0460X0.0630*%
%ADD64R,0.1100X0.0900*%
%ADD65R,0.0600X0.0240*%
%ADD66R,0.2441X0.2126*%
%ADD67R,0.0630X0.0394*%
%ADD68C,0.1102*%
%ADD69R,0.1102X0.1102*%
%ADD70R,0.1000X0.1000*%
%ADD71R,0.1575X0.1575*%
%ADD72C,0.1969*%
%ADD73C,0.0984*%
%ADD74C,0.0160*%
%ADD75C,0.0320*%
%ADD76C,0.0400*%
%ADD77C,0.0500*%
%ADD78C,0.0860*%
%ADD79C,0.0200*%
%ADD80C,0.0700*%
%ADD81C,0.0660*%
%ADD82C,0.0910*%
%ADD83C,0.0120*%
%ADD84C,0.0560*%
%ADD85C,0.0860*%
%ADD86C,0.0118*%
%ADD87OC8,0.0827*%
%ADD88C,0.0130*%
%ADD89C,0.0394*%
%ADD90R,0.1500X0.1500*%
D10*
X029304Y021567D02*
X029445Y021425D01*
X029729Y021425D01*
X029871Y021567D01*
X029871Y021709D01*
X029729Y021850D01*
X029445Y021850D01*
X029304Y021709D01*
X029304Y021567D01*
X029445Y021850D02*
X029304Y021992D01*
X029304Y022134D01*
X029445Y022276D01*
X029729Y022276D01*
X029871Y022134D01*
X029871Y021992D01*
X029729Y021850D01*
X030224Y021425D02*
X030792Y021425D01*
X030508Y021425D02*
X030508Y022276D01*
X030792Y021992D01*
X031145Y021850D02*
X031712Y021850D01*
X032066Y021567D02*
X032208Y021425D01*
X032491Y021425D01*
X032633Y021567D01*
X032066Y022134D01*
X032066Y021567D01*
X032066Y022134D02*
X032208Y022276D01*
X032491Y022276D01*
X032633Y022134D01*
X032633Y021567D01*
X032987Y022134D02*
X033554Y021567D01*
X033554Y021425D01*
X033908Y021425D02*
X034475Y021425D01*
X034191Y021425D02*
X034191Y022276D01*
X034475Y021992D01*
X034828Y021425D02*
X035396Y021425D01*
X035112Y021425D02*
X035112Y022276D01*
X035396Y021992D01*
X033554Y022276D02*
X032987Y022276D01*
X032987Y022134D01*
X097429Y020884D02*
X097429Y020742D01*
X097570Y020600D01*
X097429Y020459D01*
X097429Y020317D01*
X097570Y020175D01*
X097854Y020175D01*
X097996Y020317D01*
X098349Y020175D02*
X098633Y020459D01*
X098491Y020459D02*
X098917Y020459D01*
X098917Y020175D02*
X098917Y021026D01*
X098491Y021026D01*
X098349Y020884D01*
X098349Y020600D01*
X098491Y020459D01*
X097996Y020884D02*
X097854Y021026D01*
X097570Y021026D01*
X097429Y020884D01*
X097570Y020600D02*
X097712Y020600D01*
X100191Y020600D02*
X100191Y020317D01*
X100333Y020175D01*
X100616Y020175D01*
X100758Y020317D01*
X100758Y020600D02*
X100475Y020742D01*
X100333Y020742D01*
X100191Y020600D01*
X100191Y021026D02*
X100758Y021026D01*
X100758Y020600D01*
X101112Y020175D02*
X101679Y020175D01*
X101395Y020175D02*
X101395Y021026D01*
X101679Y020742D01*
X102033Y020600D02*
X102600Y020600D01*
X102953Y020600D02*
X103521Y020600D01*
X103095Y021026D01*
X103095Y020175D01*
X103874Y020884D02*
X104441Y020317D01*
X104441Y020175D01*
X104795Y020175D02*
X105362Y020175D01*
X105079Y020175D02*
X105079Y021026D01*
X105362Y020742D01*
X105716Y020175D02*
X106283Y020175D01*
X105999Y020175D02*
X105999Y021026D01*
X106283Y020742D01*
X104441Y021026D02*
X103874Y021026D01*
X103874Y020884D01*
D11*
X104150Y021600D02*
X107025Y021475D01*
X108025Y021475D01*
X108025Y022475D02*
X103150Y022475D01*
X103150Y023475D02*
X108025Y023475D01*
X108025Y024475D02*
X103150Y024475D01*
X103150Y025475D02*
X108025Y025475D01*
X108025Y026475D02*
X103150Y026475D01*
X103150Y027475D02*
X104775Y027225D01*
X106525Y027225D01*
X108025Y027475D01*
X108025Y028475D02*
X107150Y028475D01*
X106275Y027850D01*
X105025Y027850D01*
X104150Y028475D01*
X103150Y028475D01*
X103150Y029475D02*
X101525Y029475D01*
X101650Y031600D01*
X101650Y032600D02*
X100400Y032475D01*
X100400Y033475D02*
X101650Y033600D01*
X101650Y034600D02*
X100400Y034475D01*
X100400Y035475D02*
X101650Y035600D01*
X101650Y036600D02*
X100400Y036475D01*
X100400Y037475D02*
X101650Y037600D01*
X101650Y038600D02*
X100400Y038475D01*
X098463Y038475D02*
X097400Y038475D01*
X095025Y037850D01*
X095025Y038885D01*
X095400Y039475D02*
X097400Y039475D01*
X097650Y040600D02*
X095025Y040065D01*
X093900Y040065D02*
X092516Y041449D01*
X092516Y047975D01*
X092525Y051350D01*
X095025Y053100D01*
X095025Y055850D01*
X096400Y057225D01*
X096650Y057225D01*
X097775Y057725D01*
X097775Y056725D02*
X096775Y056475D01*
X095650Y055350D01*
X095650Y052475D01*
X093275Y050975D01*
X093275Y048600D01*
X096150Y047350D01*
X096150Y046350D02*
X095150Y045975D01*
X095150Y045100D01*
X097829Y042475D01*
X098275Y041885D02*
X098463Y041475D01*
X099525Y041475D01*
X099525Y042475D02*
X100650Y042725D01*
X100775Y043800D01*
X100775Y043850D02*
X100775Y044350D01*
X100775Y044400D02*
X101400Y044350D01*
X101400Y042975D01*
X100775Y041850D01*
X100775Y040725D01*
X101338Y040225D02*
X101338Y041850D01*
X101650Y042225D01*
X102525Y042475D01*
X103838Y043050D01*
X103900Y043100D02*
X103900Y043600D01*
X103838Y043650D02*
X102525Y043475D01*
X102525Y044475D02*
X104400Y044475D01*
X104900Y044350D02*
X104900Y042725D01*
X104275Y041975D01*
X102963Y040600D01*
X103588Y040038D02*
X105025Y041475D01*
X106025Y041475D01*
X107150Y042600D01*
X107150Y043350D01*
X107525Y043725D01*
X108525Y043725D01*
X109525Y043100D01*
X108150Y042975D02*
X107065Y040830D01*
X105338Y040600D02*
X107065Y038870D01*
X106025Y038350D02*
X104650Y038600D01*
X106025Y038350D02*
X107400Y037475D01*
X113775Y037475D01*
X115025Y038181D01*
X115775Y036350D01*
X115775Y034600D01*
X114775Y032725D01*
X116025Y032225D02*
X116650Y035975D01*
X117213Y035475D02*
X117213Y034850D01*
X116775Y032600D01*
X116775Y031725D01*
X116650Y030975D01*
X117150Y030350D02*
X117150Y030225D01*
X116900Y030100D01*
X116525Y030100D01*
X115775Y030725D01*
X115150Y030725D01*
X114775Y030350D01*
X114606Y027725D01*
X115275Y027475D01*
X115276Y026851D01*
X115275Y024600D01*
X113275Y024600D01*
X112650Y024975D01*
X112275Y025850D01*
X111900Y026475D01*
X111025Y026475D01*
X111025Y025475D02*
X109650Y025725D01*
X109650Y028725D01*
X110150Y029100D01*
X111150Y029600D01*
X112275Y029975D01*
X112927Y030448D01*
X114775Y034600D01*
X116025Y032225D02*
X114650Y031225D01*
X112400Y028975D01*
X111025Y028475D01*
X111025Y027475D02*
X112025Y027475D01*
X112650Y026850D01*
X114150Y026850D01*
X114606Y026725D01*
X115944Y026725D02*
X117025Y024725D01*
X120900Y024725D01*
X122525Y026850D01*
X125775Y026850D01*
X126565Y027830D01*
X127900Y027600D02*
X127900Y026600D01*
X127170Y025870D01*
X127150Y024100D02*
X129775Y027725D01*
X129775Y029100D01*
X131025Y030350D01*
X131025Y031225D01*
X132650Y033725D01*
X132650Y034850D01*
X132400Y035350D01*
X132400Y036931D01*
X131150Y037475D02*
X131150Y035475D01*
X128900Y033225D01*
X122025Y033225D01*
X120775Y031850D01*
X120775Y030975D01*
X120275Y029475D01*
X119900Y028725D02*
X120775Y028725D01*
X122900Y029975D01*
X128650Y029975D01*
X128525Y029100D02*
X129525Y029725D01*
X129525Y030850D01*
X129150Y031475D01*
X128150Y032350D01*
X126593Y032303D01*
X127978Y030918D02*
X124554Y030910D01*
X123216Y030910D02*
X122275Y032225D01*
X121650Y033850D02*
X119775Y031850D01*
X119775Y030975D01*
X118775Y030975D02*
X118775Y031850D01*
X121400Y034475D01*
X126338Y034475D01*
X127463Y035350D01*
X128588Y035600D01*
X129150Y034975D02*
X128025Y033850D01*
X121650Y033850D01*
X121150Y035100D02*
X122150Y035100D01*
X123650Y036225D01*
X123650Y037788D01*
X122900Y038725D01*
X121900Y041600D01*
X121150Y042975D01*
X121900Y043350D02*
X123150Y039850D01*
X124400Y038850D01*
X124378Y037475D01*
X125047Y037475D02*
X125776Y037475D01*
X125775Y038600D01*
X127560Y040100D01*
X128150Y040725D02*
X128150Y039350D01*
X128400Y038850D01*
X128400Y038225D01*
X127775Y036600D01*
X126775Y036600D02*
X126524Y037475D01*
X125775Y038600D02*
X123525Y040725D01*
X124900Y042225D01*
X125275Y042600D01*
X125275Y043600D02*
X123650Y043850D01*
X122900Y043350D01*
X120650Y040850D02*
X123025Y037850D01*
X123025Y036725D01*
X121775Y035975D01*
X121275Y036475D02*
X121150Y036600D01*
X119275Y036600D01*
X118775Y035975D01*
X117775Y035975D02*
X117775Y037100D01*
X116900Y039475D01*
X116900Y041725D01*
X116400Y042350D01*
X112525Y042350D01*
X112150Y042725D01*
X112150Y043475D01*
X112525Y043850D01*
X114525Y043850D01*
X116900Y046350D01*
X116900Y047100D01*
X118400Y048975D01*
X120025Y048975D01*
X121025Y050600D01*
X121025Y056100D01*
X121650Y056975D01*
X121650Y057975D02*
X120400Y056975D01*
X119650Y057350D01*
X119650Y059600D01*
X112025Y059600D01*
X111025Y059975D01*
X109400Y059975D01*
X109400Y057975D01*
X108775Y057600D02*
X108150Y056975D01*
X107900Y056225D01*
X107900Y055100D01*
X108275Y053850D01*
X109525Y053225D01*
X110525Y053600D02*
X110176Y052291D01*
X110150Y052225D01*
X110150Y051725D01*
X110525Y050475D01*
X109275Y049975D01*
X108275Y049975D01*
X106213Y052038D01*
X106213Y053100D01*
X106900Y053350D02*
X106525Y053850D01*
X106900Y053350D02*
X106900Y052350D01*
X108025Y051100D01*
X108650Y050850D01*
X108338Y051725D02*
X107525Y052600D01*
X107275Y053600D01*
X106900Y054850D01*
X106275Y055475D01*
X105775Y056225D02*
X105275Y055850D01*
X105775Y056225D02*
X107025Y056225D01*
X107713Y053725D01*
X108400Y052725D01*
X108338Y051725D02*
X109400Y051600D01*
X110900Y051600D02*
X110900Y052975D01*
X112025Y054100D01*
X112463Y055475D01*
X112525Y056350D01*
X113025Y056100D02*
X113150Y056913D01*
X112650Y057475D02*
X112525Y057350D01*
X111900Y057975D02*
X113150Y058038D01*
X114400Y058038D01*
X115650Y058038D01*
X116900Y057975D01*
X118150Y057975D01*
X118400Y058850D02*
X113025Y058850D01*
X112525Y059010D01*
X111399Y058975D01*
X110651Y058975D02*
X110650Y057975D01*
X111900Y057975D01*
X114400Y056913D02*
X114213Y055850D01*
X114775Y055475D02*
X115901Y053704D01*
X116775Y053725D02*
X116775Y054350D01*
X115713Y055475D01*
X116650Y055975D02*
X115650Y056913D01*
X116400Y057475D02*
X116900Y056975D01*
X116650Y055975D02*
X118025Y054350D01*
X119025Y053663D02*
X116775Y053725D01*
X116775Y053350D01*
X116400Y052975D01*
X113900Y052975D01*
X113150Y053475D02*
X113150Y052225D01*
X112150Y052225D01*
X111650Y052475D01*
X111650Y050475D01*
X111025Y051100D02*
X110900Y051600D01*
X110525Y050475D02*
X110650Y049475D01*
X110150Y048225D01*
X110150Y046913D01*
X110775Y046350D01*
X114275Y046350D01*
X114775Y045850D01*
X114775Y044975D01*
X114275Y044475D01*
X112025Y044475D01*
X111400Y043850D01*
X111400Y042475D01*
X112150Y041725D01*
X115025Y041725D01*
X115150Y041600D01*
X116025Y040600D01*
X116025Y039850D01*
X117213Y036600D01*
X118025Y034600D02*
X119275Y034975D01*
X119775Y035975D01*
X120525Y035350D02*
X120775Y035975D01*
X120525Y035350D02*
X117275Y032225D01*
X117275Y031600D01*
X117775Y031850D02*
X121150Y035100D01*
X122525Y036975D02*
X122525Y037600D01*
X120150Y040350D01*
X119400Y039725D02*
X119400Y041725D01*
X118150Y041725D01*
X117319Y043100D01*
X115981Y043100D02*
X117525Y045225D01*
X117525Y045975D01*
X117900Y046350D01*
X120650Y046350D01*
X121150Y046725D01*
X121150Y049475D01*
X121525Y050350D01*
X121525Y055100D01*
X122775Y055475D01*
X123150Y056100D02*
X123775Y055475D01*
X124338Y055975D02*
X124775Y056475D01*
X124775Y057475D01*
X124150Y057975D02*
X125400Y058038D01*
X126650Y058038D01*
X127900Y058038D01*
X129150Y056975D01*
X130400Y058038D01*
X131150Y057975D01*
X131775Y057350D01*
X131775Y052600D01*
X132900Y051350D01*
X132900Y045225D01*
X133963Y044038D01*
X133963Y033038D01*
X132275Y030475D01*
X132275Y029225D01*
X132525Y028975D01*
X132525Y025225D01*
X129275Y022850D01*
X112650Y022850D01*
X113400Y023975D02*
X118025Y023975D01*
X118400Y024100D01*
X127150Y024100D01*
X128900Y023475D02*
X130400Y024600D01*
X130400Y028975D01*
X131650Y030100D01*
X131650Y030850D01*
X133275Y033225D01*
X133275Y040413D01*
X128740Y040100D02*
X128963Y042413D01*
X128463Y043350D01*
X127463Y043350D02*
X126275Y043600D01*
X126275Y042600D02*
X128150Y040725D01*
X125047Y037475D02*
X125588Y035725D01*
X118775Y030975D02*
X118275Y029475D01*
X118650Y028725D02*
X117150Y028725D01*
X115525Y029850D01*
X113873Y029502D02*
X113565Y028971D01*
X115944Y027725D02*
X116275Y027725D01*
X117150Y026850D01*
X119400Y026850D01*
X120065Y027830D01*
X119900Y028725D02*
X119275Y029475D01*
X118650Y028725D01*
X117775Y030975D02*
X117775Y031850D01*
X113400Y023975D02*
X111025Y024475D01*
X111025Y023475D02*
X128900Y023475D01*
X131900Y022725D02*
X135900Y022725D01*
X135900Y024600D01*
X131900Y022725D02*
X131900Y018725D01*
X129775Y018725D01*
X127900Y027600D02*
X128525Y029100D01*
X133025Y029975D02*
X134525Y032100D01*
X134525Y051309D01*
X133150Y052600D01*
X133150Y058225D01*
X131775Y059600D01*
X119650Y059600D01*
X120400Y058975D02*
X120400Y057975D01*
X120400Y058975D02*
X124775Y058975D01*
X129150Y058975D01*
X129150Y057975D01*
X127900Y056913D02*
X127275Y057475D01*
X126650Y056913D02*
X127275Y056225D01*
X128400Y056225D01*
X129025Y055725D01*
X129025Y051975D01*
X127400Y051475D01*
X127400Y052350D02*
X128400Y052350D01*
X128400Y054975D01*
X127963Y055475D01*
X127775Y054600D02*
X127775Y053850D01*
X127650Y053100D01*
X127400Y052350D02*
X126525Y052913D01*
X125650Y052975D02*
X125900Y051350D01*
X125900Y050475D01*
X126650Y049475D01*
X128275Y048600D01*
X128275Y047850D01*
X129275Y046600D01*
X129650Y047350D02*
X129650Y048413D01*
X127400Y049975D01*
X126900Y050475D01*
X126150Y048975D02*
X124900Y050475D01*
X124900Y052225D01*
X124900Y054038D01*
X125463Y054788D01*
X124900Y054975D02*
X124150Y054100D01*
X123650Y053975D01*
X123025Y053350D01*
X123025Y051850D01*
X123275Y050975D01*
X122775Y050475D02*
X122275Y051725D01*
X122275Y054350D01*
X123900Y054600D01*
X124338Y054975D01*
X124900Y054975D02*
X124900Y055475D01*
X125463Y056100D02*
X125400Y056913D01*
X126025Y055475D02*
X126900Y053975D01*
X127775Y054600D02*
X127025Y055475D01*
X125775Y053975D02*
X125650Y052975D01*
X123900Y052975D02*
X123900Y050475D01*
X124275Y049350D01*
X124275Y048350D01*
X122775Y045975D01*
X122213Y046038D02*
X123150Y047975D01*
X123463Y049100D01*
X123400Y049975D02*
X122025Y049225D01*
X121775Y048225D01*
X121775Y046600D01*
X121650Y045975D01*
X120065Y047330D02*
X119525Y048306D01*
X119525Y049644D02*
X120150Y050350D01*
X120525Y050975D01*
X120525Y054850D01*
X119150Y056600D01*
X119150Y058100D01*
X118400Y058850D01*
X121025Y056100D02*
X123150Y056100D01*
X122900Y057975D02*
X124150Y057975D01*
X119900Y054475D02*
X118650Y055850D01*
X119900Y054475D02*
X119900Y051225D01*
X119400Y050475D01*
X118400Y050475D01*
X118025Y050850D01*
X116775Y050850D01*
X116400Y050100D01*
X115400Y049475D01*
X114650Y049475D01*
X114650Y050475D01*
X114275Y051225D02*
X113650Y050475D01*
X114275Y051225D02*
X115900Y051225D01*
X116650Y051475D01*
X119025Y051350D01*
X118150Y052225D02*
X117650Y051975D01*
X116525Y051975D01*
X115775Y051725D01*
X114275Y051725D01*
X113275Y051475D01*
X112525Y051635D01*
X113275Y051475D02*
X112650Y050475D01*
X112275Y049225D02*
X113650Y049225D01*
X114650Y049475D01*
X114025Y048350D02*
X111150Y048350D01*
X110740Y047350D01*
X111150Y048350D02*
X111150Y049725D01*
X109275Y049225D02*
X107900Y049475D01*
X104275Y053100D01*
X104275Y052100D02*
X107650Y048725D01*
X108650Y047975D01*
X109560Y047350D01*
X107065Y047330D02*
X106319Y046413D01*
X105650Y046913D02*
X105650Y044725D01*
X105400Y043975D01*
X105400Y042350D01*
X104900Y041975D01*
X103400Y041725D02*
X102525Y041475D01*
X102275Y039850D02*
X102650Y039225D01*
X103900Y037100D02*
X104650Y036600D01*
X104650Y035600D02*
X103775Y035850D01*
X104650Y034600D02*
X105650Y034975D01*
X106400Y036975D01*
X104650Y033600D02*
X103775Y033725D01*
X098900Y034850D02*
X097400Y034475D01*
X097400Y035475D02*
X095963Y035475D01*
X095025Y035038D02*
X095025Y034100D01*
X095963Y033475D01*
X096338Y032475D01*
X097400Y032475D01*
X097650Y031850D01*
X099025Y028725D01*
X100150Y028475D01*
X100150Y027475D02*
X099150Y027475D01*
X095525Y032225D01*
X095275Y032600D01*
X094775Y033190D02*
X094275Y033850D01*
X094275Y036475D01*
X097400Y036475D01*
X097400Y037475D02*
X096275Y037475D01*
X095775Y037100D01*
X094775Y037100D01*
X093900Y037475D01*
X093525Y037100D01*
X093525Y033413D01*
X094213Y032600D01*
X094775Y032010D02*
X095025Y031600D01*
X098900Y026475D01*
X100150Y026475D01*
X100150Y025475D02*
X101525Y025850D01*
X101525Y021600D01*
X104150Y021600D01*
X100150Y022475D02*
X099150Y022850D01*
X098650Y023475D01*
X098025Y024475D02*
X100150Y024475D01*
X100150Y025475D02*
X098650Y025475D01*
X098025Y024475D02*
X097275Y027350D01*
X092775Y033100D01*
X092775Y038725D01*
X093525Y039475D01*
X093900Y038885D02*
X093900Y037475D01*
X097650Y040600D02*
X096150Y043038D01*
X098275Y043065D02*
X098275Y043475D01*
X099525Y043475D01*
X099525Y044475D02*
X100775Y044400D01*
X101025Y045475D02*
X099525Y045475D01*
X098900Y045475D01*
X098275Y044850D01*
X098275Y043475D01*
X097150Y045350D02*
X098150Y045850D01*
X098150Y047600D01*
X096400Y048850D01*
X096400Y051600D01*
X097775Y052725D01*
X099025Y053100D01*
X099025Y054975D01*
X099400Y057350D01*
X099400Y057725D02*
X098775Y058100D01*
X098775Y058725D01*
X097775Y058725D01*
X097400Y058725D01*
X096275Y058100D01*
X096275Y060100D02*
X096900Y060475D01*
X098900Y060475D01*
X099650Y059725D01*
X099650Y058850D01*
X099453Y058356D01*
X099775Y057975D01*
X100775Y057725D02*
X101400Y057600D01*
X102900Y056225D01*
X103525Y056225D01*
X103275Y056975D02*
X102275Y057725D01*
X101275Y058725D01*
X100775Y058725D01*
X100775Y059725D02*
X099650Y059725D01*
X101275Y060975D02*
X095588Y060975D01*
X094025Y056100D01*
X094025Y053725D01*
X096463Y053725D02*
X097775Y053725D01*
X099525Y053975D02*
X099525Y052350D01*
X100275Y051600D01*
X100775Y052725D02*
X101525Y052100D01*
X102275Y052850D02*
X101525Y053725D01*
X100775Y053725D01*
X100775Y054725D02*
X101525Y054725D01*
X103213Y053100D01*
X103275Y054475D02*
X101150Y055725D01*
X100775Y055725D01*
X100775Y056725D02*
X101275Y056725D01*
X102775Y055475D01*
X103275Y055475D01*
X104775Y056475D02*
X105275Y056850D01*
X106275Y056975D01*
X105525Y057350D02*
X104275Y057350D01*
X102275Y058850D01*
X103275Y059225D02*
X101275Y060975D01*
X104900Y060038D02*
X104900Y058725D01*
X105275Y058100D01*
X105525Y057350D02*
X106150Y057850D01*
X107150Y057600D01*
X107275Y058538D02*
X108150Y057975D01*
X108775Y058475D02*
X108025Y059225D01*
X106275Y059225D01*
X105963Y058538D02*
X105525Y058975D01*
X105525Y059663D01*
X105838Y059975D01*
X109400Y059975D01*
X111275Y060600D02*
X105463Y060600D01*
X104900Y060038D01*
X105963Y058538D02*
X107275Y058538D01*
X109400Y056975D02*
X108400Y056100D01*
X108400Y055163D01*
X108525Y054475D01*
X109025Y054225D01*
X110275Y054225D01*
X111025Y054475D01*
X110525Y053600D01*
X109275Y054975D02*
X109275Y055850D01*
X112525Y053850D02*
X113025Y054725D01*
X112525Y053850D02*
X112525Y052815D01*
X113150Y052225D02*
X115650Y052225D01*
X116525Y052475D01*
X116775Y052475D01*
X117400Y052975D01*
X114213Y054975D02*
X113150Y053475D01*
X117399Y049996D02*
X117400Y048975D01*
X117150Y048600D01*
X116150Y047350D01*
X114775Y047350D01*
X114025Y048350D02*
X116525Y049225D01*
X115981Y043100D02*
X113025Y043100D01*
X105650Y046913D02*
X105775Y047600D01*
X105775Y048413D01*
X105150Y048975D01*
X104588Y048975D01*
X104150Y049725D02*
X103400Y048475D01*
X102525Y047475D01*
X101900Y048350D01*
X101025Y048349D01*
X101025Y047601D02*
X101025Y046900D01*
X101025Y046300D02*
X101025Y045475D01*
X102525Y045475D01*
X102525Y044475D01*
X104900Y044350D02*
X104981Y044556D01*
X104981Y046413D01*
X104650Y047788D01*
X104150Y049725D02*
X104150Y050850D01*
X103400Y051600D01*
X098775Y056100D02*
X097775Y055725D01*
X098775Y056100D02*
X098900Y056600D01*
X098847Y057344D01*
X093025Y061475D02*
X091900Y061475D01*
X091900Y060350D01*
X111275Y060600D02*
X112525Y060190D01*
X114525Y061475D02*
X115900Y061475D01*
X115900Y062725D01*
X129775Y053100D02*
X129650Y052475D01*
X129650Y049850D01*
X130150Y048600D01*
X130650Y049225D02*
X130650Y047350D01*
X130713Y046288D01*
X131485Y047330D02*
X131485Y048890D01*
X131819Y050225D01*
X130481Y050225D02*
X130650Y049225D01*
X130481Y050225D02*
X130900Y051225D01*
X130900Y053975D01*
X127650Y048100D02*
X126150Y048975D01*
X127650Y048100D02*
X127650Y047725D01*
X099525Y046475D02*
X099525Y045475D01*
X099338Y030850D02*
X100150Y029475D01*
X101525Y029475D02*
X101525Y025850D01*
X092900Y022725D02*
X092900Y018725D01*
X094775Y018725D01*
X092900Y022725D02*
X091900Y022725D01*
X091900Y023850D01*
X064400Y024100D02*
X064400Y027600D01*
X062900Y029100D01*
X060900Y029100D01*
X060525Y028725D01*
X060525Y027600D01*
X060150Y027100D01*
X060150Y026526D01*
X060150Y027100D02*
X057900Y027100D01*
X057525Y026975D01*
X055150Y026975D01*
X054900Y026725D01*
X054325Y026725D01*
X053725Y026725D02*
X053350Y027100D01*
X051025Y027100D01*
X050600Y026675D01*
X050600Y025975D01*
X049820Y025225D01*
X049820Y024725D01*
X049820Y024225D01*
X049820Y023725D01*
X048588Y023913D02*
X048400Y023725D01*
X048400Y022485D01*
X047057Y021142D01*
X043575Y022975D02*
X043575Y023850D01*
X043700Y024009D01*
X044916Y025225D01*
X043575Y023850D02*
X043274Y023850D01*
X042526Y023850D02*
X042525Y023851D01*
X042525Y024601D01*
X042401Y025225D02*
X042525Y025349D01*
X042525Y026294D01*
X042401Y025225D02*
X041605Y025225D01*
X040825Y025975D01*
X040225Y025975D02*
X040225Y026675D01*
X040525Y026975D01*
X041650Y026975D01*
X041775Y027100D01*
X044975Y027100D01*
X045100Y026975D01*
X045700Y026975D02*
X046768Y026975D01*
X047877Y028084D01*
X048572Y028084D01*
X048588Y028100D01*
X048588Y028413D01*
X048900Y028725D01*
X049775Y028725D01*
X050275Y029225D01*
X050775Y029225D01*
X051275Y029725D01*
X051275Y031475D01*
X050025Y032600D01*
X049400Y032600D01*
X049400Y033350D02*
X049525Y033975D01*
X049525Y034975D01*
X050338Y035226D01*
X050338Y035974D02*
X049525Y035975D01*
X049024Y036196D01*
X048995Y036225D01*
X047674Y036225D01*
X047674Y035725D02*
X048400Y035725D01*
X048569Y035556D01*
X048569Y034600D01*
X048444Y034475D01*
X048444Y033663D01*
X047168Y033725D02*
X047106Y033663D01*
X047106Y034475D01*
X047275Y034475D01*
X047275Y035225D01*
X046838Y035225D01*
X046838Y037038D01*
X046985Y037538D01*
X047025Y037578D01*
X047025Y038328D01*
X046650Y038328D01*
X047025Y038328D02*
X047275Y038328D01*
X047275Y039850D01*
X047901Y040475D02*
X047900Y038997D01*
X047900Y038328D02*
X047275Y038328D01*
X046650Y038997D02*
X046650Y041350D01*
X048775Y043475D01*
X048775Y044350D01*
X049775Y044600D02*
X049275Y045350D01*
X049275Y045975D01*
X049775Y046475D01*
X051275Y046475D01*
X051150Y045475D02*
X051150Y043975D01*
X053650Y042350D01*
X053650Y041475D01*
X052650Y040475D01*
X052650Y037475D01*
X053400Y036725D01*
X053400Y029725D01*
X054150Y030300D02*
X055025Y030100D01*
X055100Y029100D01*
X054731Y028100D01*
X056069Y028100D02*
X056319Y029056D01*
X056275Y029100D01*
X055700Y029100D01*
X056275Y029100D02*
X057088Y029100D01*
X057213Y029225D01*
X059525Y029225D01*
X060400Y029975D01*
X060400Y030975D02*
X060400Y031975D01*
X060400Y030975D02*
X059275Y031101D01*
X059275Y031849D02*
X059297Y032631D01*
X059400Y032631D01*
X059400Y032975D01*
X059400Y033424D01*
X059400Y032975D02*
X061650Y032975D01*
X062275Y033600D01*
X062275Y035350D01*
X061775Y035850D01*
X061775Y041350D01*
X061525Y041600D01*
X061525Y042725D01*
X059525Y043725D02*
X059525Y044475D01*
X059275Y044725D01*
X057775Y044725D01*
X057400Y044350D01*
X057400Y043850D01*
X056525Y044475D02*
X057400Y045350D01*
X060400Y045350D01*
X061525Y046475D01*
X061525Y051100D01*
X059275Y051725D01*
X054889Y051725D01*
X054834Y051100D02*
X058900Y051100D01*
X060150Y050725D01*
X060150Y047600D01*
X059150Y046600D01*
X056650Y046600D01*
X055275Y045225D01*
X055275Y041725D01*
X056099Y040901D01*
X056099Y039725D01*
X056025Y038974D01*
X056025Y038226D02*
X055025Y038225D01*
X055025Y038475D01*
X055025Y039475D01*
X055025Y038475D02*
X054274Y038475D01*
X053526Y038475D02*
X053526Y039601D01*
X054400Y040475D01*
X055025Y040475D01*
X056650Y040975D02*
X056650Y041475D01*
X055900Y042225D01*
X055900Y044850D01*
X057025Y045975D01*
X059775Y045975D01*
X060740Y046940D01*
X060740Y049975D01*
X059560Y049975D02*
X058400Y049975D01*
X054735Y052350D02*
X054713Y052328D01*
X054735Y052975D02*
X054713Y052997D01*
X054735Y052975D02*
X055525Y052975D01*
X058275Y052975D01*
X059150Y053100D01*
X060775Y053100D01*
X062650Y053100D01*
X060775Y053100D02*
X060731Y053144D01*
X060731Y053975D01*
X061025Y054975D02*
X059525Y055100D01*
X060525Y056225D02*
X058650Y058475D01*
X056275Y058475D01*
X056400Y057600D01*
X056400Y056850D01*
X055900Y055850D01*
X055525Y054850D01*
X056525Y053850D01*
X055525Y054850D02*
X054650Y054850D01*
X053900Y055225D02*
X055650Y056975D01*
X055400Y057600D01*
X055400Y058725D01*
X055900Y059225D01*
X058525Y059225D01*
X058900Y059225D01*
X060400Y057475D01*
X061025Y056975D01*
X060525Y056225D02*
X061025Y055975D01*
X062025Y055975D02*
X063150Y055975D01*
X063775Y056600D01*
X063775Y057475D01*
X063525Y057725D01*
X063525Y062100D01*
X060900Y064100D02*
X058525Y061725D01*
X058525Y059225D01*
X059275Y059850D02*
X059115Y060100D01*
X059275Y059850D02*
X061025Y057975D01*
X062025Y057975D02*
X060400Y059725D01*
X060400Y060225D01*
X059400Y061350D01*
X057935Y062135D02*
X060275Y064475D01*
X060275Y064850D01*
X059775Y064975D02*
X057275Y062475D01*
X057275Y061475D01*
X056275Y060600D01*
X056650Y059725D02*
X055525Y059725D01*
X054900Y059100D01*
X054900Y057600D01*
X053275Y055850D01*
X052900Y054350D01*
X052150Y054850D02*
X052150Y053725D01*
X051650Y054475D02*
X050463Y055663D01*
X051775Y056975D01*
X052150Y057725D01*
X052400Y058225D01*
X052400Y060475D01*
X057025Y065225D01*
X057025Y069184D01*
X057650Y069100D02*
X057650Y064725D01*
X054650Y061725D01*
X054650Y061350D01*
X053150Y059725D01*
X053150Y057600D01*
X051900Y055850D01*
X052525Y055225D02*
X052775Y056225D01*
X054025Y057725D01*
X054025Y058475D01*
X054150Y059475D01*
X055025Y060350D01*
X056275Y062100D01*
X056275Y062350D01*
X059275Y065350D01*
X059275Y067850D01*
X060900Y067850D02*
X060900Y064100D01*
X058525Y065850D02*
X058525Y069850D01*
X056650Y070931D02*
X055525Y071475D01*
X055775Y071475D01*
X054275Y071100D01*
X053150Y071350D01*
X052400Y072225D01*
X051775Y074225D01*
X051399Y072725D02*
X051650Y071350D01*
X052650Y070850D01*
X053775Y069725D01*
X056025Y069725D01*
X056150Y069850D01*
X056650Y072269D02*
X057076Y072695D01*
X057076Y073100D01*
X057024Y073975D01*
X057024Y074725D01*
X057274Y074725D01*
X057274Y075725D02*
X058733Y075725D01*
X058733Y076725D02*
X058150Y076725D01*
X057775Y076225D01*
X057274Y076225D01*
X055151Y076225D02*
X053399Y076225D01*
X053990Y074725D02*
X055151Y074725D01*
X056276Y073975D02*
X055849Y073225D01*
X055974Y073100D01*
X055849Y073225D02*
X054349Y073225D01*
X054490Y072635D02*
X053650Y072635D01*
X053400Y072725D01*
X053650Y072635D02*
X053766Y072519D01*
X054490Y072635D02*
X055356Y072394D01*
X056650Y072269D01*
X058733Y073225D02*
X059025Y073225D01*
X059025Y072475D01*
X061775Y072850D02*
X061775Y073475D01*
X062150Y073725D01*
X062693Y073725D01*
X062693Y074725D02*
X063775Y074725D01*
X064150Y074725D01*
X064525Y075100D01*
X064525Y075975D01*
X064150Y076350D01*
X064150Y077850D01*
X063775Y078225D01*
X063525Y077725D02*
X063525Y076725D01*
X062693Y076725D01*
X062693Y076225D02*
X063525Y076225D01*
X063525Y076725D01*
X063525Y077725D02*
X062693Y077725D01*
X063775Y075475D02*
X063525Y075225D01*
X062693Y075225D01*
X063775Y074725D02*
X063775Y073975D01*
X063524Y072475D02*
X063525Y071974D01*
X062775Y071475D01*
X062776Y072475D02*
X062025Y072475D01*
X061967Y072417D01*
X062025Y072475D02*
X061775Y072850D01*
X058733Y077725D02*
X058900Y078260D01*
X055151Y078225D02*
X054088Y079289D01*
X054088Y079550D01*
X053212Y079600D01*
X054895Y081163D02*
X055118Y080932D01*
X055650Y082725D02*
X055588Y082788D01*
X055520Y082788D01*
X055151Y077725D02*
X054163Y077725D01*
X054088Y077650D01*
X053212Y077663D01*
X051399Y072725D02*
X051399Y072601D01*
X041900Y077475D02*
X041775Y077350D01*
X052525Y064975D02*
X055525Y064975D01*
X052525Y064975D02*
X052025Y064475D01*
X052025Y063975D01*
X052025Y062975D02*
X049775Y062975D01*
X052025Y061975D02*
X051525Y060974D01*
X051525Y060226D02*
X051525Y058850D01*
X050775Y057225D01*
X050025Y057725D02*
X050275Y058475D01*
X050025Y057725D02*
X049400Y056975D01*
X043525Y056975D01*
X040650Y054350D01*
X040650Y043350D01*
X039025Y041350D01*
X039025Y040975D01*
X041025Y042350D02*
X041025Y039530D01*
X039900Y038600D01*
X043150Y039850D02*
X043150Y036100D01*
X043838Y035413D01*
X044088Y035413D01*
X044088Y034413D01*
X043213Y034287D01*
X043213Y033538D02*
X044088Y033413D01*
X044400Y033475D01*
X045088Y033100D02*
X045088Y032924D01*
X045190Y031975D01*
X044690Y032225D01*
X043650Y032225D01*
X043213Y031788D01*
X043213Y031099D01*
X043213Y030351D02*
X044088Y030288D01*
X044088Y031288D01*
X045150Y030225D02*
X044088Y029288D01*
X045150Y030225D02*
X046088Y030225D01*
X047043Y030225D01*
X047225Y029413D01*
X047825Y029413D02*
X048382Y030225D01*
X049525Y029850D01*
X050463Y030175D01*
X050463Y030775D02*
X049525Y030850D01*
X049525Y031100D01*
X048712Y031100D01*
X047963Y031100D02*
X046672Y031225D01*
X046661Y032725D01*
X046003Y032332D02*
X045860Y031975D01*
X045860Y033475D01*
X045838Y033475D01*
X045860Y033475D02*
X046610Y033725D01*
X047168Y033725D01*
X046400Y034725D02*
X046088Y034413D01*
X046400Y034725D02*
X046400Y036725D01*
X045626Y036725D01*
X045376Y036749D01*
X045025Y037225D01*
X044150Y037225D01*
X044088Y038413D02*
X044088Y039413D01*
X044088Y040413D02*
X044963Y040412D01*
X044088Y040413D02*
X043713Y040413D01*
X043150Y039850D01*
X042338Y041288D02*
X042650Y041975D01*
X042650Y049600D01*
X043150Y050100D01*
X045900Y050100D01*
X045900Y051100D02*
X046650Y051100D01*
X047150Y050600D01*
X047150Y046475D01*
X044900Y043850D01*
X045775Y042100D02*
X047275Y043225D01*
X045775Y042100D02*
X045775Y041600D01*
X043900Y041600D01*
X045775Y041600D02*
X045775Y039526D01*
X045775Y038424D02*
X045775Y037953D01*
X046315Y037538D01*
X046400Y037015D01*
X046400Y036725D01*
X045626Y035725D02*
X044088Y035725D01*
X044088Y035413D01*
X045088Y035225D02*
X045088Y034026D01*
X045088Y035225D02*
X045626Y035225D01*
X047275Y035225D02*
X047674Y035225D01*
X049024Y036196D02*
X049024Y037225D01*
X050025Y037225D01*
X049025Y037226D02*
X049525Y038475D01*
X049525Y039475D02*
X048900Y039475D01*
X048650Y039225D01*
X048650Y037976D01*
X048276Y037225D01*
X047776Y036725D01*
X047674Y036725D01*
X049024Y037225D02*
X049025Y037226D01*
X050900Y036350D02*
X050900Y041225D01*
X050400Y041725D01*
X050400Y045100D01*
X050275Y045600D01*
X049775Y044600D02*
X049775Y042975D01*
X047901Y041101D01*
X047901Y040475D01*
X048649Y040475D02*
X049525Y040475D01*
X049525Y039475D01*
X050900Y036350D02*
X051775Y035475D01*
X051775Y029225D01*
X051275Y028725D01*
X050650Y028725D01*
X050025Y028100D01*
X049400Y028100D01*
X049139Y027839D01*
X049139Y026975D01*
X048588Y026413D02*
X048588Y023913D01*
X047790Y026123D02*
X048036Y026975D01*
X048588Y027538D02*
X048588Y028100D01*
X046088Y029225D02*
X046088Y030225D01*
X046003Y031225D02*
X046003Y032332D01*
X043213Y033163D02*
X043025Y032975D01*
X043025Y032600D01*
X042025Y031725D01*
X042025Y030100D01*
X039275Y028225D01*
X039275Y027350D01*
X038525Y026600D01*
X037650Y026600D01*
X036650Y027600D02*
X035735Y027600D01*
X035025Y031100D02*
X034200Y031059D01*
X039445Y025225D02*
X040225Y025975D01*
X039445Y025225D02*
X039445Y024725D01*
X039445Y024225D01*
X039445Y023725D01*
X041605Y023725D02*
X042401Y023725D01*
X042526Y023850D01*
X041605Y024225D02*
X041605Y024725D01*
X041605Y025225D01*
X051200Y025975D02*
X051980Y025225D01*
X052400Y025645D01*
X052400Y026294D01*
X051980Y025225D02*
X051980Y024725D01*
X052524Y024725D01*
X052775Y024849D01*
X052775Y024101D02*
X052524Y023725D01*
X051980Y023725D01*
X051980Y024225D02*
X051980Y024725D01*
X052775Y024101D02*
X053526Y024100D01*
X054274Y024100D02*
X054463Y023913D01*
X057109Y022850D02*
X055401Y021142D01*
X057109Y022850D02*
X058900Y022850D01*
X059650Y023600D01*
X063900Y023600D01*
X064400Y024100D01*
X063150Y025475D02*
X062701Y027100D01*
X062649Y028225D01*
X061901Y028225D02*
X061194Y028225D01*
X061599Y027100D02*
X061150Y025475D01*
X060150Y025424D01*
X059179Y024327D01*
X058790Y024327D01*
X058790Y026123D02*
X059150Y026510D01*
X059150Y027690D02*
X059856Y028225D01*
X056865Y027565D02*
X056775Y027475D01*
X056735Y030100D02*
X056775Y030799D01*
X056150Y031350D02*
X055775Y031725D01*
X055775Y033100D01*
X055025Y033850D01*
X055025Y034850D01*
X054150Y034976D01*
X054150Y035724D02*
X055025Y035850D01*
X055650Y035725D01*
X056501Y035725D01*
X056501Y036225D02*
X055775Y036225D01*
X055025Y036975D01*
X055025Y038225D01*
X055615Y037350D02*
X055876Y037350D01*
X056501Y036725D01*
X057065Y037475D01*
X056775Y037765D01*
X056775Y037850D01*
X057650Y038265D02*
X057735Y037475D01*
X057713Y035225D01*
X058150Y035225D01*
X058150Y033975D01*
X057944Y033600D01*
X057944Y032725D01*
X058628Y032631D01*
X057944Y032725D02*
X057944Y031769D01*
X057525Y031350D01*
X056775Y031901D02*
X056606Y032725D01*
X056606Y033600D01*
X056275Y033931D01*
X056275Y035225D01*
X056501Y035225D01*
X057275Y034975D02*
X057213Y034475D01*
X057275Y034975D02*
X057275Y036725D01*
X056501Y036725D01*
X058549Y036725D02*
X058549Y037622D01*
X059775Y037622D01*
X060150Y038475D01*
X060150Y038975D01*
X060150Y039475D01*
X060150Y038975D02*
X059615Y038975D01*
X058435Y038975D02*
X057901Y038948D01*
X057900Y038949D01*
X057900Y040725D01*
X057400Y041225D01*
X057400Y041725D01*
X056525Y042600D01*
X056525Y044475D01*
X054525Y045225D02*
X054525Y043225D01*
X054525Y045225D02*
X055400Y046350D01*
X055650Y046850D01*
X060150Y040475D02*
X061025Y040475D01*
X061025Y037725D01*
X060253Y036953D01*
X059775Y036953D01*
X060150Y036225D01*
X060400Y035975D01*
X060400Y034975D01*
X061400Y034849D01*
X061400Y034101D02*
X060400Y033975D01*
X058150Y033975D01*
X058150Y035225D02*
X058549Y035225D01*
X058549Y035725D02*
X059400Y035725D01*
X059400Y034526D01*
X060150Y036225D02*
X058549Y036225D01*
X057901Y038948D02*
X057650Y038935D01*
X055025Y032100D02*
X055025Y031100D01*
X055275Y031100D01*
X056065Y030310D01*
X056065Y030100D01*
X055025Y031100D02*
X054150Y030900D01*
X049525Y031100D02*
X049525Y031850D01*
X043213Y033163D02*
X043213Y033538D01*
X041900Y042350D02*
X041900Y053975D01*
X043775Y055725D01*
X049275Y055725D01*
X051150Y053975D01*
X052150Y054850D02*
X052525Y055225D01*
X050463Y055663D02*
X049650Y056350D01*
X043650Y056350D01*
X041275Y054100D01*
X041275Y042975D01*
X041025Y042350D01*
X039650Y043850D02*
X040025Y044350D01*
X040025Y054600D01*
X043400Y057600D01*
X049025Y057600D01*
X049400Y057975D01*
X049400Y058975D01*
X049025Y059350D01*
X046525Y059350D01*
X046525Y062725D01*
X046775Y062975D01*
X056650Y059725D02*
X057935Y060100D01*
X057935Y062135D01*
X057150Y057725D02*
X057275Y057475D01*
X057275Y057476D02*
X057219Y057420D01*
X057165Y057362D01*
X057115Y057301D01*
X057068Y057237D01*
X057023Y057172D01*
X056982Y057104D01*
X056944Y057035D01*
X056910Y056964D01*
X056879Y056891D01*
X056852Y056817D01*
X056828Y056741D01*
X056808Y056665D01*
X056792Y056587D01*
X056779Y056509D01*
X056770Y056431D01*
X056765Y056352D01*
X056764Y056273D01*
X056767Y056194D01*
X056773Y056115D01*
X056783Y056037D01*
X056797Y055959D01*
X056815Y055882D01*
X056837Y055806D01*
X056862Y055731D01*
X056891Y055657D01*
X056923Y055585D01*
X056958Y055514D01*
X056998Y055446D01*
X057040Y055379D01*
X057085Y055314D01*
X057134Y055252D01*
X057186Y055192D01*
X057240Y055134D01*
X057297Y055080D01*
X057357Y055028D01*
X057419Y054979D01*
X057483Y054933D01*
X057550Y054890D01*
X057618Y054851D01*
X057689Y054815D01*
X057761Y054782D01*
X057834Y054753D01*
X057909Y054727D01*
X057985Y054706D01*
X058062Y054687D01*
X058139Y054673D01*
X058218Y054662D01*
X058297Y054655D01*
X058376Y054652D01*
X058455Y054653D01*
X058534Y054657D01*
X058612Y054666D01*
X058690Y054678D01*
X058768Y054694D01*
X058844Y054713D01*
X058920Y054737D01*
X058994Y054764D01*
X059067Y054794D01*
X059139Y054828D01*
X059208Y054866D01*
X059276Y054906D01*
X059342Y054950D01*
X059405Y054997D01*
X059466Y055047D01*
X059525Y055100D01*
X048900Y054100D02*
X048525Y054850D01*
X062150Y025475D02*
X062150Y024475D01*
X119525Y078100D02*
X120150Y078100D01*
X119525Y078100D02*
X119525Y078725D01*
X119525Y081100D02*
X119525Y081725D01*
X118775Y081725D01*
X116900Y081725D02*
X115900Y081725D01*
X115900Y080725D01*
X126150Y078100D02*
X126775Y078100D01*
X126775Y078475D01*
X126775Y081225D02*
X126775Y081725D01*
X128150Y081725D01*
X129150Y083975D01*
X131900Y083975D01*
X131900Y079975D01*
X132525Y079975D01*
X135150Y079975D02*
X135900Y079975D01*
X135900Y078725D01*
D12*
G36*
X054753Y050989D02*
X054401Y050637D01*
X054245Y050793D01*
X054597Y051145D01*
X054753Y050989D01*
G37*
G36*
X054531Y051211D02*
X054179Y050859D01*
X054023Y051015D01*
X054375Y051367D01*
X054531Y051211D01*
G37*
G36*
X054308Y051434D02*
X053956Y051082D01*
X053800Y051238D01*
X054152Y051590D01*
X054308Y051434D01*
G37*
G36*
X054085Y051657D02*
X053733Y051305D01*
X053577Y051461D01*
X053929Y051813D01*
X054085Y051657D01*
G37*
G36*
X053863Y051879D02*
X053511Y051527D01*
X053355Y051683D01*
X053707Y052035D01*
X053863Y051879D01*
G37*
G36*
X053640Y052102D02*
X053288Y051750D01*
X053132Y051906D01*
X053484Y052258D01*
X053640Y052102D01*
G37*
G36*
X053417Y052325D02*
X053065Y051973D01*
X052909Y052129D01*
X053261Y052481D01*
X053417Y052325D01*
G37*
G36*
X053195Y052547D02*
X052843Y052195D01*
X052687Y052351D01*
X053039Y052703D01*
X053195Y052547D01*
G37*
G36*
X050805Y050157D02*
X050453Y049805D01*
X050297Y049961D01*
X050649Y050313D01*
X050805Y050157D01*
G37*
G36*
X051027Y049935D02*
X050675Y049583D01*
X050519Y049739D01*
X050871Y050091D01*
X051027Y049935D01*
G37*
G36*
X051250Y049712D02*
X050898Y049360D01*
X050742Y049516D01*
X051094Y049868D01*
X051250Y049712D01*
G37*
G36*
X051473Y049489D02*
X051121Y049137D01*
X050965Y049293D01*
X051317Y049645D01*
X051473Y049489D01*
G37*
G36*
X051695Y049267D02*
X051343Y048915D01*
X051187Y049071D01*
X051539Y049423D01*
X051695Y049267D01*
G37*
G36*
X051918Y049044D02*
X051566Y048692D01*
X051410Y048848D01*
X051762Y049200D01*
X051918Y049044D01*
G37*
G36*
X052141Y048821D02*
X051789Y048469D01*
X051633Y048625D01*
X051985Y048977D01*
X052141Y048821D01*
G37*
G36*
X052363Y048599D02*
X052011Y048247D01*
X051855Y048403D01*
X052207Y048755D01*
X052363Y048599D01*
G37*
D13*
G36*
X053195Y048403D02*
X053039Y048247D01*
X052687Y048599D01*
X052843Y048755D01*
X053195Y048403D01*
G37*
G36*
X053417Y048625D02*
X053261Y048469D01*
X052909Y048821D01*
X053065Y048977D01*
X053417Y048625D01*
G37*
G36*
X053640Y048848D02*
X053484Y048692D01*
X053132Y049044D01*
X053288Y049200D01*
X053640Y048848D01*
G37*
G36*
X053863Y049071D02*
X053707Y048915D01*
X053355Y049267D01*
X053511Y049423D01*
X053863Y049071D01*
G37*
G36*
X054085Y049293D02*
X053929Y049137D01*
X053577Y049489D01*
X053733Y049645D01*
X054085Y049293D01*
G37*
G36*
X054308Y049516D02*
X054152Y049360D01*
X053800Y049712D01*
X053956Y049868D01*
X054308Y049516D01*
G37*
G36*
X054531Y049739D02*
X054375Y049583D01*
X054023Y049935D01*
X054179Y050091D01*
X054531Y049739D01*
G37*
G36*
X054753Y049961D02*
X054597Y049805D01*
X054245Y050157D01*
X054401Y050313D01*
X054753Y049961D01*
G37*
G36*
X052363Y052351D02*
X052207Y052195D01*
X051855Y052547D01*
X052011Y052703D01*
X052363Y052351D01*
G37*
G36*
X052141Y052129D02*
X051985Y051973D01*
X051633Y052325D01*
X051789Y052481D01*
X052141Y052129D01*
G37*
G36*
X051918Y051906D02*
X051762Y051750D01*
X051410Y052102D01*
X051566Y052258D01*
X051918Y051906D01*
G37*
G36*
X051695Y051683D02*
X051539Y051527D01*
X051187Y051879D01*
X051343Y052035D01*
X051695Y051683D01*
G37*
G36*
X051473Y051461D02*
X051317Y051305D01*
X050965Y051657D01*
X051121Y051813D01*
X051473Y051461D01*
G37*
G36*
X051250Y051238D02*
X051094Y051082D01*
X050742Y051434D01*
X050898Y051590D01*
X051250Y051238D01*
G37*
G36*
X051027Y051015D02*
X050871Y050859D01*
X050519Y051211D01*
X050675Y051367D01*
X051027Y051015D01*
G37*
G36*
X050805Y050793D02*
X050649Y050637D01*
X050297Y050989D01*
X050453Y051145D01*
X050805Y050793D01*
G37*
D14*
X054713Y052328D03*
X054713Y052997D03*
X057650Y038935D03*
X057650Y038265D03*
X059775Y037622D03*
X059775Y036953D03*
X047900Y038328D03*
X047900Y038997D03*
X046650Y038997D03*
X046650Y038328D03*
D15*
X044088Y038413D03*
X044088Y039413D03*
X044088Y040413D03*
X039900Y038600D03*
X039025Y040975D03*
X035900Y038600D03*
X035025Y040975D03*
X044088Y035413D03*
X044088Y034413D03*
X044088Y033413D03*
X044088Y031288D03*
X044088Y030288D03*
X044088Y029288D03*
X039025Y031100D03*
X035025Y031100D03*
X029900Y029100D03*
X029900Y027975D03*
X025900Y027975D03*
X025900Y029100D03*
X049525Y029850D03*
X049525Y030850D03*
X049525Y031850D03*
X049525Y033975D03*
X049525Y034975D03*
X049525Y035975D03*
X049525Y038475D03*
X049525Y039475D03*
X049525Y040475D03*
X055025Y040475D03*
X055025Y039475D03*
X055025Y038475D03*
X055025Y035850D03*
X055025Y034850D03*
X055025Y033850D03*
X055025Y032100D03*
X055025Y031100D03*
X055025Y030100D03*
X060400Y029975D03*
X060400Y030975D03*
X060400Y031975D03*
X060400Y033975D03*
X060400Y034975D03*
X060400Y035975D03*
X060150Y038475D03*
X060150Y039475D03*
X060150Y040475D03*
X055650Y052975D03*
X055650Y056975D03*
X061025Y056975D03*
X062025Y056975D03*
X062025Y055975D03*
X061025Y055975D03*
X061025Y054975D03*
X062025Y054975D03*
X062025Y057975D03*
X061025Y057975D03*
X062025Y058975D03*
X040025Y061100D03*
X036025Y061100D03*
X035775Y055475D03*
X034900Y054475D03*
X032775Y055475D03*
X036900Y054475D03*
X036356Y051475D03*
X096275Y058100D03*
X096275Y060100D03*
X103275Y059225D03*
X106275Y059225D03*
X106275Y056975D03*
X106275Y055475D03*
X106275Y054475D03*
X106213Y053100D03*
X103213Y053100D03*
X103275Y054475D03*
X103275Y055475D03*
X103275Y056975D03*
X110463Y055475D03*
X111463Y055475D03*
X112463Y055475D03*
X113588Y055475D03*
X114775Y055475D03*
X115713Y055475D03*
X115650Y050475D03*
X114650Y050475D03*
X113650Y050475D03*
X112650Y050475D03*
X111650Y050475D03*
X110525Y050475D03*
X109275Y049225D03*
X112275Y049225D03*
X122775Y050475D03*
X123900Y050475D03*
X124900Y050475D03*
X125900Y050475D03*
X126900Y050475D03*
X127900Y050475D03*
X127963Y055475D03*
X127025Y055475D03*
X126025Y055475D03*
X124900Y055475D03*
X123775Y055475D03*
X122775Y055475D03*
X121775Y035975D03*
X120775Y035975D03*
X119775Y035975D03*
X118775Y035975D03*
X117775Y035975D03*
X116650Y035975D03*
X116650Y030975D03*
X117775Y030975D03*
X118775Y030975D03*
X119775Y030975D03*
X120775Y030975D03*
X121775Y030975D03*
X120275Y029475D03*
X119275Y029475D03*
X118275Y029475D03*
X112650Y026850D03*
X112650Y022850D03*
X098650Y023475D03*
X098650Y025475D03*
X095963Y033475D03*
X095963Y035475D03*
D16*
X124378Y037475D03*
X125047Y037475D03*
X059297Y032631D03*
X058628Y032631D03*
X056735Y030100D03*
X056065Y030100D03*
X046672Y031225D03*
X046003Y031225D03*
X045860Y031975D03*
X045190Y031975D03*
X046315Y037538D03*
X046985Y037538D03*
X057065Y037475D03*
X057735Y037475D03*
X035735Y027600D03*
X035065Y027600D03*
X056276Y073975D03*
X057024Y073975D03*
X053399Y076225D03*
X052651Y076225D03*
X052463Y077663D03*
X053212Y077663D03*
X053212Y079600D03*
X052463Y079600D03*
D17*
X052810Y074725D03*
X053990Y074725D03*
G36*
X099231Y057526D02*
X098867Y056920D01*
X098463Y057162D01*
X098827Y057768D01*
X099231Y057526D01*
G37*
G36*
X099837Y058538D02*
X099473Y057932D01*
X099069Y058174D01*
X099433Y058780D01*
X099837Y058538D01*
G37*
X109560Y047350D03*
X110740Y047350D03*
X127560Y040100D03*
X128740Y040100D03*
X059615Y038975D03*
X058435Y038975D03*
X055615Y037350D03*
X054435Y037350D03*
D18*
X059400Y034526D03*
X059400Y033424D03*
X056775Y031901D03*
X056775Y030799D03*
X045088Y032924D03*
X045088Y034026D03*
X045775Y038424D03*
X045775Y039526D03*
D19*
X044963Y039663D03*
X044963Y038974D03*
X044963Y038226D03*
X044963Y040412D03*
X050338Y035974D03*
X050338Y035226D03*
X054150Y034976D03*
X054150Y035724D03*
X056025Y038226D03*
X056025Y038974D03*
X061400Y034849D03*
X061400Y034101D03*
X059275Y031849D03*
X059275Y031101D03*
X052775Y024849D03*
X052775Y024101D03*
X043213Y030351D03*
X043213Y031099D03*
X043213Y033538D03*
X043213Y034287D03*
X042525Y025349D03*
X042525Y024601D03*
X051525Y060226D03*
X051525Y060974D03*
X101025Y048349D03*
X101025Y047601D03*
D20*
X057201Y039725D03*
X056099Y039725D03*
X055974Y073100D03*
X057076Y073100D03*
D21*
X051399Y072725D03*
X050651Y072725D03*
X062776Y072475D03*
X063524Y072475D03*
X062649Y060600D03*
X061901Y060600D03*
X058274Y053850D03*
X057526Y053850D03*
X048649Y040475D03*
X047901Y040475D03*
X048276Y037225D03*
X049024Y037225D03*
X053526Y038475D03*
X054274Y038475D03*
X048712Y031100D03*
X047963Y031100D03*
X043274Y023850D03*
X042526Y023850D03*
X053526Y024100D03*
X054274Y024100D03*
X061901Y028225D03*
X062649Y028225D03*
X110651Y058975D03*
X111399Y058975D03*
X125776Y037475D03*
X126524Y037475D03*
D22*
X063201Y068100D03*
X062099Y068100D03*
X047764Y032725D03*
X046661Y032725D03*
X048036Y026975D03*
X049139Y026975D03*
D23*
X003191Y001350D02*
X002359Y001350D01*
X005359Y001350D02*
X006191Y001350D01*
X030859Y030349D02*
X031673Y030521D01*
X031465Y031500D02*
X030651Y031327D01*
X030443Y032305D02*
X031257Y032478D01*
X033377Y032929D02*
X034191Y033101D01*
X034399Y032123D02*
X033585Y031950D01*
X033793Y030972D02*
X034607Y031145D01*
X033891Y037303D02*
X034710Y037448D01*
X034537Y038433D02*
X033718Y038288D01*
X033544Y039273D02*
X034363Y039418D01*
X031409Y038897D02*
X030590Y038752D01*
X030763Y037767D02*
X031582Y037912D01*
X031756Y036927D02*
X030937Y036782D01*
X031484Y041850D02*
X032316Y041850D01*
X032316Y042850D02*
X031484Y042850D01*
X031484Y043850D02*
X032316Y043850D01*
X034484Y043850D02*
X035316Y043850D01*
X035316Y042850D02*
X034484Y042850D01*
X034484Y041850D02*
X035316Y041850D01*
X045484Y047100D02*
X046316Y047100D01*
X046316Y048100D02*
X045484Y048100D01*
X045484Y049100D02*
X046316Y049100D01*
X046316Y050100D02*
X045484Y050100D01*
X045484Y051100D02*
X046316Y051100D01*
X046316Y052100D02*
X045484Y052100D01*
X045484Y053100D02*
X046316Y053100D01*
X046316Y054100D02*
X045484Y054100D01*
X048484Y054100D02*
X049316Y054100D01*
X049316Y053100D02*
X048484Y053100D01*
X048484Y052100D02*
X049316Y052100D01*
X049316Y051100D02*
X048484Y051100D01*
X048484Y050100D02*
X049316Y050100D01*
X049316Y049100D02*
X048484Y049100D01*
X048484Y048100D02*
X049316Y048100D01*
X049316Y047100D02*
X048484Y047100D01*
X035900Y056559D02*
X035900Y057391D01*
X034900Y057391D02*
X034900Y056559D01*
X033900Y056559D02*
X033900Y057391D01*
X032900Y057391D02*
X032900Y056559D01*
X032900Y059559D02*
X032900Y060391D01*
X033900Y060391D02*
X033900Y059559D01*
X034900Y059559D02*
X034900Y060391D01*
X035900Y060391D02*
X035900Y059559D01*
X051609Y061975D02*
X052441Y061975D01*
X052441Y062975D02*
X051609Y062975D01*
X051609Y063975D02*
X052441Y063975D01*
X054275Y066684D02*
X054275Y067516D01*
X054275Y070684D02*
X054275Y071516D01*
X097359Y059725D02*
X098191Y059725D01*
X098191Y058725D02*
X097359Y058725D01*
X097359Y057725D02*
X098191Y057725D01*
X098191Y056725D02*
X097359Y056725D01*
X097359Y055725D02*
X098191Y055725D01*
X098191Y054725D02*
X097359Y054725D01*
X097359Y053725D02*
X098191Y053725D01*
X098191Y052725D02*
X097359Y052725D01*
X100359Y052725D02*
X101191Y052725D01*
X101191Y053725D02*
X100359Y053725D01*
X100359Y054725D02*
X101191Y054725D01*
X101191Y055725D02*
X100359Y055725D01*
X100359Y056725D02*
X101191Y056725D01*
X101191Y057725D02*
X100359Y057725D01*
X100359Y058725D02*
X101191Y058725D01*
X101191Y059725D02*
X100359Y059725D01*
X099941Y047475D02*
X099109Y047475D01*
X099109Y046475D02*
X099941Y046475D01*
X102109Y046475D02*
X102941Y046475D01*
X102941Y045475D02*
X102109Y045475D01*
X102109Y044475D02*
X102941Y044475D01*
X102941Y043475D02*
X102109Y043475D01*
X102109Y042475D02*
X102941Y042475D01*
X102941Y041475D02*
X102109Y041475D01*
X099941Y041475D02*
X099109Y041475D01*
X099109Y042475D02*
X099941Y042475D01*
X099941Y043475D02*
X099109Y043475D01*
X099984Y039475D02*
X100816Y039475D01*
X101234Y038600D02*
X102066Y038600D01*
X102066Y037600D02*
X101234Y037600D01*
X100816Y037475D02*
X099984Y037475D01*
X099984Y036475D02*
X100816Y036475D01*
X101234Y036600D02*
X102066Y036600D01*
X102066Y035600D02*
X101234Y035600D01*
X100816Y035475D02*
X099984Y035475D01*
X099984Y034475D02*
X100816Y034475D01*
X101234Y034600D02*
X102066Y034600D01*
X102066Y033600D02*
X101234Y033600D01*
X100816Y033475D02*
X099984Y033475D01*
X099984Y032475D02*
X100816Y032475D01*
X101234Y032600D02*
X102066Y032600D01*
X102066Y031600D02*
X101234Y031600D01*
X104234Y031600D02*
X105066Y031600D01*
X105066Y032600D02*
X104234Y032600D01*
X104234Y033600D02*
X105066Y033600D01*
X105066Y034600D02*
X104234Y034600D01*
X104234Y035600D02*
X105066Y035600D01*
X105066Y036600D02*
X104234Y036600D01*
X104234Y037600D02*
X105066Y037600D01*
X105066Y038600D02*
X104234Y038600D01*
X100816Y038475D02*
X099984Y038475D01*
X097816Y038475D02*
X096984Y038475D01*
X096984Y037475D02*
X097816Y037475D01*
X097816Y036475D02*
X096984Y036475D01*
X096984Y035475D02*
X097816Y035475D01*
X097816Y034475D02*
X096984Y034475D01*
X096984Y033475D02*
X097816Y033475D01*
X097816Y032475D02*
X096984Y032475D01*
X099734Y029475D02*
X100566Y029475D01*
X100566Y028475D02*
X099734Y028475D01*
X099734Y027475D02*
X100566Y027475D01*
X100566Y026475D02*
X099734Y026475D01*
X099734Y025475D02*
X100566Y025475D01*
X100566Y024475D02*
X099734Y024475D01*
X099734Y023475D02*
X100566Y023475D01*
X100566Y022475D02*
X099734Y022475D01*
X102734Y022475D02*
X103566Y022475D01*
X103566Y023475D02*
X102734Y023475D01*
X102734Y024475D02*
X103566Y024475D01*
X103566Y025475D02*
X102734Y025475D01*
X102734Y026475D02*
X103566Y026475D01*
X103566Y027475D02*
X102734Y027475D01*
X102734Y028475D02*
X103566Y028475D01*
X103566Y029475D02*
X102734Y029475D01*
X107609Y028475D02*
X108441Y028475D01*
X108441Y027475D02*
X107609Y027475D01*
X107609Y026475D02*
X108441Y026475D01*
X108441Y025475D02*
X107609Y025475D01*
X107609Y024475D02*
X108441Y024475D01*
X108441Y023475D02*
X107609Y023475D01*
X107609Y022475D02*
X108441Y022475D01*
X108441Y021475D02*
X107609Y021475D01*
X110609Y021475D02*
X111441Y021475D01*
X111441Y022475D02*
X110609Y022475D01*
X110609Y023475D02*
X111441Y023475D01*
X111441Y024475D02*
X110609Y024475D01*
X110609Y025475D02*
X111441Y025475D01*
X111441Y026475D02*
X110609Y026475D01*
X110609Y027475D02*
X111441Y027475D01*
X111441Y028475D02*
X110609Y028475D01*
X097816Y039475D02*
X096984Y039475D01*
X102109Y047475D02*
X102941Y047475D01*
X126234Y071850D02*
X127066Y071850D01*
X127066Y073850D02*
X126234Y073850D01*
X063150Y025891D02*
X063150Y025059D01*
X062150Y025059D02*
X062150Y025891D01*
X061150Y025891D02*
X061150Y025059D01*
D24*
X049775Y062975D03*
X050150Y079725D03*
D25*
X050150Y077725D03*
X046775Y062975D03*
X026525Y060975D03*
X026525Y065350D03*
X125025Y067225D03*
X129025Y067225D03*
X129025Y062225D03*
X125025Y062225D03*
D26*
X058549Y036725D03*
X058549Y036225D03*
X058549Y035725D03*
X058549Y035225D03*
X056501Y035225D03*
X056501Y035725D03*
X056501Y036225D03*
X056501Y036725D03*
X047674Y036725D03*
X047674Y036225D03*
X047674Y035725D03*
X047674Y035225D03*
X045626Y035225D03*
X045626Y035725D03*
X045626Y036225D03*
X045626Y036725D03*
D27*
X021275Y055475D02*
X019900Y054850D01*
X021275Y055475D02*
X023585Y059350D01*
X025400Y056975D01*
X020635Y059350D02*
X019900Y056850D01*
X018150Y055975D01*
X018150Y053225D01*
X017685Y059350D02*
X017150Y061475D01*
X017150Y064350D01*
X018775Y068600D01*
X019525Y074225D01*
X021900Y076725D01*
X023400Y076725D01*
X026525Y079850D01*
X030025Y079850D01*
X024275Y074225D02*
X025150Y073350D01*
X025775Y072850D01*
X025775Y070225D01*
X026088Y069913D01*
X025025Y068600D01*
X023400Y068600D01*
X020650Y068600D02*
X018775Y068600D01*
X026088Y069913D02*
X027900Y068100D01*
X025025Y062350D02*
X023400Y062600D01*
X020650Y062600D01*
X018775Y062350D01*
X116675Y070475D02*
X116675Y071475D01*
X118675Y071475D02*
X118675Y070475D01*
X122875Y070475D02*
X122875Y071475D01*
X124875Y071475D02*
X124875Y070475D01*
X124875Y074475D02*
X124875Y075475D01*
X122875Y075475D02*
X122875Y074475D01*
X118675Y074475D02*
X118675Y075475D01*
X116675Y075475D02*
X116675Y074475D01*
D28*
X119971Y074580D02*
X120365Y074580D01*
X120168Y074580D02*
X120168Y075171D01*
X120365Y074974D01*
X120615Y075171D02*
X121009Y075171D01*
X121009Y074580D01*
X121260Y074678D02*
X121358Y074580D01*
X121555Y074580D01*
X121654Y074678D01*
X121457Y074875D02*
X121358Y074875D01*
X121260Y074777D01*
X121260Y074678D01*
X121358Y074875D02*
X121260Y074974D01*
X121260Y075072D01*
X121358Y075171D01*
X121555Y075171D01*
X121654Y075072D01*
X121009Y074875D02*
X120812Y074875D01*
X120884Y071296D02*
X120490Y071296D01*
X120240Y071197D02*
X120141Y071296D01*
X119944Y071296D01*
X119846Y071197D01*
X119846Y071099D01*
X120240Y070705D01*
X119846Y070705D01*
X120687Y071000D02*
X120884Y071000D01*
X121135Y070902D02*
X121135Y070803D01*
X121233Y070705D01*
X121430Y070705D01*
X121529Y070803D01*
X121332Y071000D02*
X121233Y071000D01*
X121135Y070902D01*
X121233Y071000D02*
X121135Y071099D01*
X121135Y071197D01*
X121233Y071296D01*
X121430Y071296D01*
X121529Y071197D01*
X120884Y071296D02*
X120884Y070705D01*
X122180Y065288D02*
X122180Y064894D01*
X122180Y065091D02*
X122771Y065091D01*
X122574Y064894D01*
X122672Y064643D02*
X122771Y064545D01*
X122771Y064348D01*
X122672Y064250D01*
X122278Y064250D01*
X122180Y064348D01*
X122180Y064545D01*
X122278Y064643D01*
X122278Y063999D02*
X122180Y063900D01*
X122180Y063703D01*
X122278Y063605D01*
X122475Y063802D02*
X122475Y063900D01*
X122377Y063999D01*
X122278Y063999D01*
X122475Y063900D02*
X122574Y063999D01*
X122672Y063999D01*
X122771Y063900D01*
X122771Y063703D01*
X122672Y063605D01*
X126668Y062546D02*
X126668Y061955D01*
X126865Y061955D02*
X126471Y061955D01*
X126865Y062349D02*
X126668Y062546D01*
X127115Y061955D02*
X127509Y061955D01*
X127509Y062546D01*
X134280Y062995D02*
X134378Y062896D01*
X134280Y062995D02*
X134280Y063192D01*
X134378Y063290D01*
X134477Y063290D01*
X134575Y063192D01*
X134575Y063093D01*
X134575Y063192D02*
X134674Y063290D01*
X134772Y063290D01*
X134871Y063192D01*
X134871Y062995D01*
X134772Y062896D01*
X134772Y063541D02*
X134378Y063541D01*
X134280Y063639D01*
X134280Y063836D01*
X134378Y063935D01*
X134280Y064185D02*
X134674Y064579D01*
X134772Y064579D01*
X134871Y064481D01*
X134871Y064284D01*
X134772Y064185D01*
X134772Y063935D02*
X134871Y063836D01*
X134871Y063639D01*
X134772Y063541D01*
X134280Y064185D02*
X134280Y064579D01*
D29*
X133650Y066475D03*
X133650Y060475D03*
X121650Y061350D03*
X121650Y067350D03*
X096150Y047350D03*
X096150Y046350D03*
X097150Y046350D03*
X097150Y045350D03*
X096150Y045350D03*
X125275Y043600D03*
X125275Y042600D03*
X126275Y043600D03*
X061525Y043725D03*
X061525Y042725D03*
X060525Y042725D03*
X059525Y042725D03*
X059525Y043725D03*
X060525Y043725D03*
X058525Y043725D03*
X058525Y042725D03*
X057400Y047975D03*
X057400Y048975D03*
X058400Y048975D03*
X058400Y049975D03*
X057400Y049975D03*
X046525Y068600D03*
X028025Y071100D03*
X023400Y068600D03*
X020650Y068600D03*
X020650Y062600D03*
X023400Y062600D03*
X023150Y053225D03*
X029150Y053225D03*
X022650Y044975D03*
X024025Y042225D03*
X024025Y040225D03*
X022650Y038975D03*
X022525Y037475D03*
X024025Y035475D03*
X024025Y033475D03*
X022525Y031475D03*
X022525Y030225D03*
X030025Y033475D03*
X030025Y035475D03*
X030025Y040225D03*
X030025Y042225D03*
X036650Y029600D03*
X036650Y028600D03*
X036650Y027600D03*
X036650Y026600D03*
X036650Y025600D03*
X037650Y025600D03*
X037650Y026600D03*
X037650Y027600D03*
X037650Y028600D03*
X037650Y029600D03*
X022525Y024225D03*
X062150Y024475D03*
X028025Y075100D03*
D30*
X126269Y074735D02*
X126550Y074735D01*
X126409Y074735D02*
X126409Y074315D01*
X126730Y074315D02*
X126870Y074455D01*
X126800Y074455D02*
X127010Y074455D01*
X127010Y074315D02*
X127010Y074735D01*
X126800Y074735D01*
X126730Y074665D01*
X126730Y074525D01*
X126800Y074455D01*
D31*
X043900Y066475D03*
X040900Y066475D03*
D32*
X038650Y065178D02*
X038650Y064272D01*
X037650Y064272D02*
X037650Y065178D01*
X036650Y065178D02*
X036650Y064272D01*
X031650Y064522D02*
X031650Y065428D01*
X030650Y065428D02*
X030650Y064522D01*
X029650Y064522D02*
X029650Y065428D01*
X051697Y067475D02*
X052603Y067475D01*
X052603Y068475D02*
X051697Y068475D01*
X051697Y069475D02*
X052603Y069475D01*
X019478Y042975D02*
X018572Y042975D01*
X018572Y041975D02*
X019478Y041975D01*
X019478Y040975D02*
X018572Y040975D01*
X018572Y035725D02*
X019478Y035725D01*
X019478Y034725D02*
X018572Y034725D01*
X018572Y033725D02*
X019478Y033725D01*
X019478Y028475D02*
X018572Y028475D01*
X018572Y027475D02*
X019478Y027475D01*
X019478Y026475D02*
X018572Y026475D01*
D33*
X045025Y037225D03*
X050025Y037225D03*
X038650Y043850D03*
X038400Y057775D03*
X034025Y061225D03*
X034025Y064225D03*
X030900Y068100D03*
X027900Y068100D03*
X028900Y060975D03*
X048025Y067100D03*
X048963Y069663D03*
X048775Y075175D03*
X059025Y072475D03*
X062025Y072475D03*
X102275Y058850D03*
X108150Y057975D03*
X108150Y056975D03*
X109400Y056975D03*
X109400Y057975D03*
X110650Y057975D03*
X110650Y056975D03*
X111900Y056975D03*
X111900Y057975D03*
X113150Y058038D03*
X113150Y056913D03*
X114400Y056913D03*
X114400Y058038D03*
X115650Y058038D03*
X115650Y056913D03*
X116900Y056975D03*
X116900Y057975D03*
X118150Y057975D03*
X118150Y056975D03*
X120400Y056975D03*
X120400Y057975D03*
X121650Y057975D03*
X121650Y056975D03*
X122900Y056975D03*
X122900Y057975D03*
X124150Y057975D03*
X124150Y056975D03*
X125400Y056913D03*
X125400Y058038D03*
X126650Y058038D03*
X126650Y056913D03*
X127900Y056913D03*
X127900Y058038D03*
X129150Y057975D03*
X129150Y056975D03*
X130400Y056913D03*
X130400Y058038D03*
X128463Y043350D03*
X127463Y043350D03*
X122900Y043350D03*
X121900Y043350D03*
X126775Y036600D03*
X127775Y036600D03*
X108150Y042975D03*
X106150Y042975D03*
X102275Y052850D03*
D34*
X054088Y077650D03*
X054088Y079550D03*
X048775Y073775D03*
X048963Y071663D03*
X049025Y067100D03*
X038400Y059175D03*
X028900Y059975D03*
X039650Y043850D03*
D35*
X029025Y044100D03*
X025025Y044100D03*
X025025Y037350D03*
X029025Y037350D03*
X029525Y030475D03*
X025525Y030475D03*
X057213Y029225D03*
X058150Y030100D03*
X058150Y027100D03*
X057213Y034475D03*
X092516Y047975D03*
X094025Y053725D03*
X096463Y053725D03*
X104588Y048975D03*
X104650Y047788D03*
X108650Y050850D03*
X109400Y051600D03*
X108400Y052725D03*
X109525Y053225D03*
X109275Y054975D03*
X109275Y055850D03*
X111025Y054475D03*
X111650Y052475D03*
X113275Y051475D03*
X113900Y052975D03*
X118150Y052225D03*
X119025Y051350D03*
X119025Y053663D03*
X118025Y054350D03*
X118650Y055850D03*
X121025Y056100D03*
X122275Y054350D03*
X123900Y052975D03*
X124900Y052225D03*
X125900Y051350D03*
X127400Y051475D03*
X126525Y052913D03*
X126900Y053975D03*
X125775Y053975D03*
X127650Y053100D03*
X129775Y053100D03*
X130900Y053975D03*
X124775Y058975D03*
X123463Y049100D03*
X122025Y049225D03*
X116525Y049225D03*
X113025Y043100D03*
X109525Y043100D03*
X105338Y040600D03*
X102275Y039850D03*
X097650Y040600D03*
X095025Y037850D03*
X094275Y036475D03*
X095025Y035038D03*
X106400Y036975D03*
X114775Y034600D03*
X114775Y032725D03*
X116025Y032225D03*
X115525Y029850D03*
X118025Y034600D03*
X122275Y032225D03*
X125588Y035725D03*
X128650Y029975D03*
X133025Y029975D03*
X096150Y043038D03*
X107150Y057600D03*
X105275Y058100D03*
X062775Y071475D03*
X055525Y071475D03*
X053892Y081933D03*
X053892Y082971D03*
X052845Y082971D03*
X052845Y081933D03*
X027525Y078225D03*
X027525Y076225D03*
D36*
X020391Y056850D02*
X019409Y056850D01*
X019409Y054850D02*
X020391Y054850D01*
X019900Y047591D02*
X019900Y046609D01*
X017900Y046609D02*
X017900Y047591D01*
X022150Y047591D02*
X022150Y046609D01*
X024150Y046609D02*
X024150Y047591D01*
X026400Y047591D02*
X026400Y046609D01*
X028400Y046609D02*
X028400Y047591D01*
X026650Y026091D02*
X026650Y025109D01*
X024650Y025109D02*
X024650Y026091D01*
X117409Y062225D02*
X118391Y062225D01*
X118391Y064225D02*
X117409Y064225D01*
X117409Y066225D02*
X118391Y066225D01*
X118391Y068225D02*
X117409Y068225D01*
D37*
X131158Y067975D02*
X132142Y067975D01*
X132142Y069975D02*
X131158Y069975D01*
X131158Y071975D02*
X132142Y071975D01*
X134158Y071975D02*
X135142Y071975D01*
X135142Y069975D02*
X134158Y069975D01*
X134158Y067975D02*
X135142Y067975D01*
X135142Y077975D02*
X134158Y077975D01*
X132142Y077975D02*
X131158Y077975D01*
D38*
X132683Y073611D02*
X132683Y073020D01*
X132880Y073020D02*
X132486Y073020D01*
X132880Y073414D02*
X132683Y073611D01*
X133094Y073611D02*
X133487Y073217D01*
X133389Y073315D02*
X133094Y073020D01*
X133487Y073020D02*
X133487Y073611D01*
X133898Y073611D02*
X133898Y073020D01*
X134095Y073020D02*
X133701Y073020D01*
X134095Y073414D02*
X133898Y073611D01*
D39*
X129775Y071408D02*
X129775Y070542D01*
X128775Y070542D02*
X128775Y071408D01*
X129092Y077975D02*
X129958Y077975D01*
X129958Y078975D02*
X129092Y078975D01*
X044458Y054100D02*
X043592Y054100D01*
X043592Y053100D02*
X044458Y053100D01*
X044458Y052100D02*
X043592Y052100D01*
X043592Y051100D02*
X044458Y051100D01*
D40*
X112525Y056350D02*
X112525Y057350D01*
X112650Y057475D02*
X116400Y057475D01*
X114213Y055850D02*
X114213Y054975D01*
X124338Y054975D02*
X124338Y055975D01*
X125463Y056100D02*
X125463Y054788D01*
X124775Y057475D02*
X127275Y057475D01*
X127392Y070560D02*
X127205Y070747D01*
X127019Y070560D01*
X127019Y071120D01*
X127392Y071120D02*
X127392Y070560D01*
X127626Y070653D02*
X127720Y070560D01*
X127907Y070560D01*
X128000Y070653D01*
X127907Y070840D02*
X127720Y070840D01*
X127626Y070747D01*
X127626Y070653D01*
X127907Y070840D02*
X128000Y070934D01*
X128000Y071027D01*
X127907Y071120D01*
X127720Y071120D01*
X127626Y071027D01*
X128150Y076362D02*
X128523Y076362D01*
X128757Y076455D02*
X128757Y077015D01*
X129131Y077015D02*
X129131Y076455D01*
X128944Y076642D01*
X128757Y076455D01*
X129365Y076548D02*
X129365Y076922D01*
X129458Y077015D01*
X129645Y077015D01*
X129739Y076922D01*
X129739Y076548D01*
X129645Y076455D01*
X129458Y076455D01*
X129365Y076548D01*
X129973Y076735D02*
X130066Y076642D01*
X130346Y076642D01*
X130346Y076455D02*
X130346Y077015D01*
X130066Y077015D01*
X129973Y076922D01*
X129973Y076735D01*
X127915Y076829D02*
X127822Y076735D01*
X127635Y076735D01*
X127542Y076642D01*
X127542Y076548D01*
X127635Y076455D01*
X127822Y076455D01*
X127915Y076548D01*
X127915Y076829D02*
X127915Y076922D01*
X127822Y077015D01*
X127635Y077015D01*
X127542Y076922D01*
X127308Y077015D02*
X127308Y076455D01*
X127121Y076642D01*
X126934Y076455D01*
X126934Y077015D01*
D41*
X126565Y047330D03*
X124985Y047330D03*
X124985Y045370D03*
X126565Y045370D03*
X131485Y045370D03*
X131485Y047330D03*
X120065Y047330D03*
X118485Y047330D03*
X118485Y045370D03*
X120065Y045370D03*
X118485Y040830D03*
X118485Y038870D03*
X113565Y038870D03*
X111985Y038870D03*
X111985Y040830D03*
X113565Y040830D03*
X113565Y045370D03*
X111985Y045370D03*
X111985Y047330D03*
X113565Y047330D03*
X107065Y047330D03*
X107065Y045370D03*
X107065Y040830D03*
X107065Y038870D03*
X113565Y027830D03*
X113565Y025870D03*
X118485Y025870D03*
X120065Y025870D03*
X120065Y027830D03*
X118485Y027830D03*
X124985Y027830D03*
X126565Y027830D03*
X126565Y025870D03*
X124985Y025870D03*
X131485Y025870D03*
X131485Y027830D03*
D42*
G36*
X127284Y030918D02*
X127978Y031612D01*
X128672Y030918D01*
X127978Y030224D01*
X127284Y030918D01*
G37*
G36*
X125899Y032303D02*
X126593Y032997D01*
X127287Y032303D01*
X126593Y031609D01*
X125899Y032303D01*
G37*
G36*
X129378Y035782D02*
X130072Y036476D01*
X130766Y035782D01*
X130072Y035088D01*
X129378Y035782D01*
G37*
G36*
X130072Y036724D02*
X129378Y037418D01*
X130072Y038112D01*
X130766Y037418D01*
X130072Y036724D01*
G37*
G36*
X131457Y038109D02*
X130763Y038803D01*
X131457Y039497D01*
X132151Y038803D01*
X131457Y038109D01*
G37*
G36*
X126593Y040203D02*
X125899Y040897D01*
X126593Y041591D01*
X127287Y040897D01*
X126593Y040203D01*
G37*
G36*
X125651Y040897D02*
X124957Y040203D01*
X124263Y040897D01*
X124957Y041591D01*
X125651Y040897D01*
G37*
G36*
X124266Y042282D02*
X123572Y041588D01*
X122878Y042282D01*
X123572Y042976D01*
X124266Y042282D01*
G37*
G36*
X127978Y041588D02*
X127284Y042282D01*
X127978Y042976D01*
X128672Y042282D01*
X127978Y041588D01*
G37*
G36*
X122172Y037418D02*
X121478Y036724D01*
X120784Y037418D01*
X121478Y038112D01*
X122172Y037418D01*
G37*
G36*
X120787Y038803D02*
X120093Y038109D01*
X119399Y038803D01*
X120093Y039497D01*
X120787Y038803D01*
G37*
G36*
X130763Y034397D02*
X131457Y035091D01*
X132151Y034397D01*
X131457Y033703D01*
X130763Y034397D01*
G37*
D43*
X124554Y030910D03*
X123216Y030910D03*
X115944Y027725D03*
X115944Y026725D03*
X114606Y026725D03*
X114606Y027725D03*
G36*
X113818Y029058D02*
X113429Y029447D01*
X113928Y029946D01*
X114317Y029557D01*
X113818Y029058D01*
G37*
G36*
X112872Y030004D02*
X112483Y030393D01*
X112982Y030892D01*
X113371Y030503D01*
X112872Y030004D01*
G37*
X115981Y043100D03*
X117319Y043100D03*
X106319Y046413D03*
X104981Y046413D03*
X130481Y050225D03*
X131819Y050225D03*
X062069Y053975D03*
X060731Y053975D03*
X048444Y034475D03*
X048444Y033663D03*
X047106Y033663D03*
X047106Y034475D03*
X047043Y030225D03*
X048382Y030225D03*
X054731Y028100D03*
X056069Y028100D03*
X059856Y028225D03*
X061194Y028225D03*
X057944Y032725D03*
X057944Y033600D03*
X056606Y033600D03*
X056606Y032725D03*
X051944Y081975D03*
X050606Y081975D03*
D44*
X056650Y072269D03*
X056650Y070931D03*
X115025Y039519D03*
X115025Y038181D03*
X119525Y048306D03*
X119525Y049644D03*
X132400Y038269D03*
X132400Y036931D03*
D45*
X117399Y049996D03*
X115901Y053704D03*
X031150Y055975D03*
X029400Y056975D03*
X031150Y059975D03*
X025400Y056975D03*
X022150Y053225D03*
X018150Y053225D03*
D46*
X043569Y049100D02*
X044481Y049100D01*
X044481Y048100D02*
X043569Y048100D01*
X043569Y047100D02*
X044481Y047100D01*
X045319Y071100D02*
X046231Y071100D01*
X046231Y072100D02*
X045319Y072100D01*
X045319Y073100D02*
X046231Y073100D01*
X046231Y078100D02*
X045319Y078100D01*
X045319Y079100D02*
X046231Y079100D01*
X046231Y080100D02*
X045319Y080100D01*
D47*
X026525Y059941D02*
X026525Y058759D01*
X023585Y058759D02*
X023585Y059941D01*
X020635Y059941D02*
X020635Y058759D01*
X017685Y058759D02*
X017685Y059941D01*
X106533Y033350D02*
X106537Y033497D01*
X106547Y033643D01*
X106565Y033789D01*
X106590Y033934D01*
X106623Y034077D01*
X106662Y034219D01*
X106708Y034358D01*
X106761Y034495D01*
X106820Y034629D01*
X106886Y034760D01*
X106959Y034888D01*
X107037Y035012D01*
X107122Y035132D01*
X107212Y035248D01*
X107308Y035359D01*
X107409Y035466D01*
X107516Y035567D01*
X107627Y035663D01*
X107743Y035753D01*
X107863Y035838D01*
X107987Y035916D01*
X108115Y035989D01*
X108246Y036055D01*
X108380Y036114D01*
X108517Y036167D01*
X108656Y036213D01*
X108798Y036252D01*
X108941Y036285D01*
X109086Y036310D01*
X109232Y036328D01*
X109378Y036338D01*
X109525Y036342D01*
X109672Y036338D01*
X109818Y036328D01*
X109964Y036310D01*
X110109Y036285D01*
X110252Y036252D01*
X110394Y036213D01*
X110533Y036167D01*
X110670Y036114D01*
X110804Y036055D01*
X110935Y035989D01*
X111063Y035916D01*
X111187Y035838D01*
X111307Y035753D01*
X111423Y035663D01*
X111534Y035567D01*
X111641Y035466D01*
X111742Y035359D01*
X111838Y035248D01*
X111928Y035132D01*
X112013Y035012D01*
X112091Y034888D01*
X112164Y034760D01*
X112230Y034629D01*
X112289Y034495D01*
X112342Y034358D01*
X112388Y034219D01*
X112427Y034077D01*
X112460Y033934D01*
X112485Y033789D01*
X112503Y033643D01*
X112513Y033497D01*
X112517Y033350D01*
X112513Y033203D01*
X112503Y033057D01*
X112485Y032911D01*
X112460Y032766D01*
X112427Y032623D01*
X112388Y032481D01*
X112342Y032342D01*
X112289Y032205D01*
X112230Y032071D01*
X112164Y031940D01*
X112091Y031812D01*
X112013Y031688D01*
X111928Y031568D01*
X111838Y031452D01*
X111742Y031341D01*
X111641Y031234D01*
X111534Y031133D01*
X111423Y031037D01*
X111307Y030947D01*
X111187Y030862D01*
X111063Y030784D01*
X110935Y030711D01*
X110804Y030645D01*
X110670Y030586D01*
X110533Y030533D01*
X110394Y030487D01*
X110252Y030448D01*
X110109Y030415D01*
X109964Y030390D01*
X109818Y030372D01*
X109672Y030362D01*
X109525Y030358D01*
X109378Y030362D01*
X109232Y030372D01*
X109086Y030390D01*
X108941Y030415D01*
X108798Y030448D01*
X108656Y030487D01*
X108517Y030533D01*
X108380Y030586D01*
X108246Y030645D01*
X108115Y030711D01*
X107987Y030784D01*
X107863Y030862D01*
X107743Y030947D01*
X107627Y031037D01*
X107516Y031133D01*
X107409Y031234D01*
X107308Y031341D01*
X107212Y031452D01*
X107122Y031568D01*
X107037Y031688D01*
X106959Y031812D01*
X106886Y031940D01*
X106820Y032071D01*
X106761Y032205D01*
X106708Y032342D01*
X106662Y032481D01*
X106623Y032623D01*
X106590Y032766D01*
X106565Y032911D01*
X106547Y033057D01*
X106537Y033203D01*
X106533Y033350D01*
D48*
X062701Y027100D03*
X061599Y027100D03*
D49*
X020675Y027475D03*
X020675Y034725D03*
X020675Y041975D03*
X030650Y063075D03*
X037650Y063075D03*
D50*
X044843Y074600D03*
X044843Y075850D03*
X046457Y075850D03*
X046457Y074600D03*
D51*
X058400Y047975D03*
X097150Y047350D03*
X126275Y042600D03*
D52*
X112525Y051635D03*
X112525Y052815D03*
X112525Y059010D03*
X112525Y060190D03*
X098275Y043065D03*
X098275Y041885D03*
X095025Y040065D03*
X093900Y040065D03*
X093900Y038885D03*
X095025Y038885D03*
X094775Y033190D03*
X094775Y032010D03*
X059150Y027690D03*
X059150Y026510D03*
X073025Y074760D03*
X073025Y075940D03*
X058900Y078260D03*
X058900Y079440D03*
D53*
X101025Y046900D03*
X101025Y046300D03*
X100775Y044400D03*
X100775Y043800D03*
X103838Y043650D03*
X103838Y043050D03*
X054150Y030900D03*
X054150Y030300D03*
X050463Y030175D03*
X050463Y030775D03*
D54*
X099525Y044475D03*
X099525Y045475D03*
D55*
X128525Y075288D03*
X117713Y077600D03*
D56*
X055770Y083975D03*
X051030Y083975D03*
X025025Y068600D03*
X018775Y068600D03*
X018775Y062350D03*
X025025Y062350D03*
X019025Y049600D03*
X030025Y047100D03*
X020650Y038350D03*
X024400Y027600D03*
D57*
X058733Y073225D03*
X058733Y073725D03*
X058733Y074225D03*
X058733Y074725D03*
X058733Y075225D03*
X058733Y075725D03*
X058733Y076225D03*
X058733Y076725D03*
X058733Y077225D03*
X058733Y077725D03*
X062693Y077725D03*
X062693Y077225D03*
X062693Y076725D03*
X062693Y076225D03*
X062693Y075725D03*
X062693Y075225D03*
X062693Y074725D03*
X062693Y074225D03*
X062693Y073725D03*
X062693Y073225D03*
D58*
X057274Y074725D03*
X057274Y075225D03*
X057274Y075725D03*
X057274Y076225D03*
X057274Y076725D03*
X057274Y077225D03*
X057274Y077725D03*
X057274Y078225D03*
X055151Y078225D03*
X055151Y077725D03*
X055151Y077225D03*
X055151Y076725D03*
X055151Y076225D03*
X055151Y075725D03*
X055151Y075225D03*
X055151Y074725D03*
D59*
X054895Y081163D03*
X054155Y081163D03*
X054780Y082788D03*
X055520Y082788D03*
D60*
X063025Y069908D03*
X063399Y069042D03*
X062651Y069042D03*
D61*
X053650Y072635D03*
X053650Y073815D03*
X057935Y060100D03*
X059115Y060100D03*
X059560Y049975D03*
X060740Y049975D03*
D62*
X060150Y026526D03*
X060150Y025424D03*
D63*
X054325Y026725D03*
X053725Y026725D03*
X051200Y025975D03*
X050600Y025975D03*
X051475Y022850D03*
X052075Y022850D03*
X045700Y026975D03*
X045100Y026975D03*
X047225Y029413D03*
X047825Y029413D03*
X040825Y025975D03*
X040225Y025975D03*
X042975Y022975D03*
X043575Y022975D03*
X055100Y029100D03*
X055700Y029100D03*
D64*
X052400Y027906D03*
X052400Y026294D03*
X042525Y026294D03*
X042525Y027906D03*
D65*
X041605Y025225D03*
X041605Y024725D03*
X041605Y024225D03*
X041605Y023725D03*
X039445Y023725D03*
X039445Y024225D03*
X039445Y024725D03*
X039445Y025225D03*
X049820Y025225D03*
X049820Y024725D03*
X049820Y024225D03*
X049820Y023725D03*
X051980Y023725D03*
X051980Y024225D03*
X051980Y024725D03*
X051980Y025225D03*
D66*
X055916Y025225D03*
X044916Y025225D03*
D67*
X047790Y024327D03*
X047790Y026123D03*
X058790Y026123D03*
X058790Y024327D03*
D68*
X055791Y021532D02*
X055011Y020753D01*
X054039Y021749D02*
X054818Y022528D01*
X052456Y021697D02*
X052456Y020595D01*
X050881Y021745D02*
X050102Y022524D01*
X049102Y021532D02*
X049881Y020753D01*
X047447Y021532D02*
X046667Y020753D01*
X045695Y021749D02*
X046475Y022528D01*
X044112Y021697D02*
X044112Y020595D01*
X042538Y021745D02*
X041758Y022524D01*
X040758Y021532D02*
X041538Y020753D01*
D69*
X042148Y017212D03*
X043132Y017212D03*
X045104Y017212D03*
X046088Y017212D03*
X050492Y017212D03*
X051476Y017212D03*
X053447Y017212D03*
X054432Y017212D03*
D70*
X043487Y071325D03*
X043487Y072900D03*
X043487Y074869D03*
X043487Y076444D03*
X043487Y078412D03*
X043487Y079987D03*
X029313Y077625D03*
X029313Y071325D03*
D71*
X043880Y068963D03*
D72*
X024275Y074225D03*
X019525Y074225D03*
D73*
X028338Y051475D03*
D74*
X041900Y042350D02*
X041650Y041725D01*
X041650Y035600D01*
X041400Y035225D01*
X041400Y033225D01*
X039525Y031475D01*
X039025Y031100D01*
X041025Y030475D02*
X041025Y032225D01*
X041900Y032975D01*
X041900Y034975D01*
X042150Y035350D01*
X042150Y040975D01*
X042338Y041288D01*
X042650Y040225D02*
X042650Y035100D01*
X042400Y034725D01*
X042400Y032725D01*
X041525Y031975D01*
X041525Y030350D01*
X038650Y028350D01*
X038650Y027850D01*
X038400Y027600D01*
X037650Y027600D01*
X037650Y028600D02*
X038275Y028600D01*
X041025Y030475D01*
X042525Y030725D02*
X042525Y029850D01*
X039775Y027975D01*
X039775Y026975D01*
X038275Y025600D01*
X037650Y025600D01*
X042525Y030725D02*
X042899Y031099D01*
X043213Y031099D01*
X044400Y033475D02*
X045838Y033475D01*
X047106Y033663D02*
X047231Y033538D01*
X047231Y032207D01*
X047400Y032038D01*
X048213Y032038D01*
X048650Y032913D01*
X049088Y033038D01*
X049400Y033350D01*
X049400Y032600D02*
X049025Y032600D01*
X048525Y031725D01*
X048150Y031725D01*
X047963Y031538D01*
X047963Y031100D01*
X047764Y032725D02*
X048569Y033656D01*
X048444Y033663D01*
X045626Y036225D02*
X044900Y036225D01*
X044338Y036413D01*
X043963Y036413D01*
X043525Y036850D01*
X043525Y038225D01*
X043713Y038413D01*
X044088Y038413D01*
X044274Y038226D01*
X044963Y038226D01*
X044963Y038974D02*
X046650Y038997D01*
X044963Y039663D02*
X044338Y039663D01*
X044088Y039413D01*
X044962Y040413D02*
X044963Y040412D01*
X043900Y041600D02*
X042650Y040225D01*
X051150Y045475D02*
X052150Y046725D01*
X052775Y048100D01*
X052941Y048501D01*
X053163Y048723D02*
X053400Y048486D01*
X053400Y048100D01*
X052650Y046850D01*
X052650Y046475D01*
X052900Y045850D01*
X053150Y046600D02*
X053150Y046975D01*
X053775Y047975D01*
X053775Y048557D01*
X053386Y048946D01*
X053609Y049169D02*
X054150Y048627D01*
X054150Y047975D01*
X054025Y047600D01*
X053900Y046725D01*
X053775Y045975D02*
X053150Y046600D01*
X053775Y045975D02*
X053775Y045725D01*
X053400Y045225D01*
X052775Y044975D01*
X051900Y045100D01*
X051275Y046475D02*
X051900Y047225D01*
X052150Y047850D01*
X052525Y048350D01*
X052525Y049100D01*
X053650Y050225D01*
X053650Y050932D01*
X054054Y051336D01*
X053831Y051559D02*
X054123Y051850D01*
X054373Y052100D01*
X054601Y052328D01*
X054713Y052328D01*
X054735Y052350D02*
X059900Y052350D01*
X058275Y052975D02*
X058274Y053850D01*
X057526Y053850D02*
X056525Y053850D01*
X054775Y053975D02*
X054150Y053600D01*
X053650Y053225D01*
X053650Y052268D01*
X053386Y052004D01*
X053609Y051781D02*
X054025Y052198D01*
X054025Y052725D01*
X054297Y052997D01*
X054713Y052997D01*
X053150Y052659D02*
X053150Y053475D01*
X054650Y054850D01*
X053150Y052659D02*
X052941Y052449D01*
X053163Y052227D02*
X052650Y051714D01*
X052650Y051350D01*
X052914Y051086D01*
X053609Y051781D01*
X053831Y051559D02*
X053275Y051002D01*
X053275Y050557D01*
X051664Y048946D01*
X051318Y048600D01*
X051150Y048600D01*
X050900Y048850D01*
X050900Y049073D01*
X051219Y049391D01*
X051441Y049169D02*
X051775Y049502D01*
X051775Y049975D01*
X051802Y049975D01*
X052914Y051086D01*
X052400Y051850D02*
X052525Y051975D01*
X052525Y052975D01*
X052150Y053725D01*
X051650Y054475D02*
X051650Y052909D01*
X052109Y052449D01*
X051887Y052227D02*
X052264Y051850D01*
X052400Y051850D01*
X051664Y052004D02*
X051150Y052518D01*
X051150Y053975D01*
X050275Y053600D02*
X050525Y052698D01*
X051441Y051781D01*
X051219Y051559D02*
X049677Y053100D01*
X048900Y053100D01*
X048900Y052100D02*
X050232Y052100D01*
X050996Y051336D01*
X050773Y051113D02*
X050411Y051475D01*
X050150Y051475D01*
X049775Y051100D01*
X048900Y051100D01*
X048900Y050100D02*
X049760Y050100D01*
X050551Y050891D01*
X050551Y050059D02*
X049591Y049100D01*
X048900Y049100D01*
X048900Y048100D02*
X049650Y048100D01*
X050400Y048850D01*
X050400Y049464D01*
X050773Y049837D01*
X050996Y049614D02*
X051357Y049975D01*
X051775Y049975D01*
X053831Y049391D02*
X054998Y048225D01*
X055025Y048225D01*
X056275Y047475D01*
X056775Y047100D01*
X058025Y047100D01*
X058275Y047350D01*
X058400Y047975D01*
X057400Y047975D02*
X054943Y048725D01*
X054054Y049614D01*
X054277Y049837D02*
X055014Y049100D01*
X055650Y048975D01*
X057400Y048975D01*
X058400Y048975D02*
X059400Y048850D01*
X057400Y049975D02*
X056525Y050350D01*
X055650Y049725D02*
X054834Y049725D01*
X054499Y050059D01*
X054499Y050891D02*
X054834Y051100D01*
X054277Y051113D02*
X054889Y051725D01*
X051887Y048723D02*
X051264Y048100D01*
X050775Y047850D01*
X051525Y047475D02*
X051900Y048291D01*
X052109Y048501D01*
X051525Y047475D02*
X051150Y047100D01*
X048900Y047100D01*
X045900Y047100D02*
X044025Y047100D01*
X044025Y048100D02*
X045900Y048100D01*
X045900Y049100D02*
X044025Y049100D01*
X044025Y052100D02*
X045900Y052100D01*
X045900Y053100D02*
X044025Y053100D01*
X054775Y047475D02*
X054775Y046475D01*
X053525Y044600D01*
X053400Y044350D01*
X056650Y040975D02*
X056650Y037975D01*
X056775Y037850D01*
X057235Y038265D02*
X057025Y038475D01*
X057025Y039549D01*
X057201Y039725D01*
X057235Y038265D02*
X057650Y038265D01*
X058690Y038265D01*
X059025Y038600D01*
X059025Y040600D01*
X060525Y042100D01*
X060525Y042725D01*
X053400Y029725D02*
X054025Y028475D01*
X054025Y027725D01*
X048588Y027538D02*
X048588Y026413D01*
X093525Y039475D02*
X095400Y039475D01*
X098463Y038475D02*
X098463Y041475D01*
X098900Y040725D02*
X100775Y040725D01*
X101338Y040225D02*
X099338Y040225D01*
X099338Y030850D01*
X095275Y032600D02*
X094213Y032600D01*
X098900Y034850D02*
X098900Y040725D01*
X099525Y042475D02*
X097829Y042475D01*
X102963Y040600D02*
X102963Y037850D01*
X103775Y035850D01*
X103900Y037100D02*
X103275Y038100D01*
X103275Y040350D01*
X104900Y041975D01*
X104400Y042725D02*
X103400Y041725D01*
X104400Y042725D02*
X104400Y044475D01*
X103588Y040038D02*
X103588Y038288D01*
X104650Y037600D01*
X102650Y037475D02*
X103400Y034475D01*
X103775Y033725D01*
X120150Y040350D02*
X120150Y043600D01*
X121650Y045975D01*
X122213Y046038D02*
X120650Y043538D01*
X120650Y040850D01*
X121150Y042975D02*
X121150Y043475D01*
X122775Y045975D01*
X127650Y047725D02*
X129150Y045725D01*
X129588Y044788D01*
X129588Y043788D01*
X129338Y043288D01*
X129338Y039788D01*
X128775Y038100D01*
X128775Y036100D01*
X128588Y035600D01*
X129150Y034975D02*
X129150Y037913D01*
X129650Y038975D01*
X129650Y040163D01*
X129713Y040600D01*
X129713Y043225D01*
X129900Y043600D01*
X129900Y045225D01*
X129275Y046600D01*
X129650Y047350D02*
X130213Y045225D01*
X130213Y043475D01*
X130025Y043100D01*
X130025Y041975D01*
X130838Y041475D01*
X130838Y040663D01*
X130150Y040288D01*
X130150Y038475D01*
X131150Y037475D01*
X131400Y037725D02*
X130525Y038600D01*
X130525Y039850D01*
X131400Y037725D02*
X132400Y036931D01*
X133275Y040413D02*
X133525Y041538D01*
X133525Y043663D01*
X132150Y044600D01*
X130838Y044600D01*
X130838Y045038D01*
X130713Y046288D01*
X130525Y045350D02*
X130150Y047350D01*
X130150Y048600D01*
X130525Y045350D02*
X130525Y044225D01*
X132025Y044225D01*
X133025Y043475D01*
X133025Y041725D01*
X122525Y036975D02*
X121400Y036475D01*
X121275Y036475D01*
X103400Y051600D02*
X100275Y051600D01*
X101525Y052100D02*
X104275Y052100D01*
X104275Y053100D02*
X104275Y055600D01*
X103525Y056225D01*
X104775Y056475D02*
X104775Y053850D01*
X106525Y053850D01*
X106275Y054475D02*
X105275Y054975D01*
X105275Y055850D01*
X099775Y057975D02*
X099525Y053975D01*
X099400Y057350D02*
X099400Y057725D01*
X063775Y078225D02*
X062150Y078225D01*
X060150Y076225D01*
X060150Y075600D01*
X059650Y075100D01*
X059650Y073975D01*
X059400Y073725D01*
X058733Y073725D01*
X058733Y074225D02*
X058213Y074225D01*
X058088Y074100D01*
X058088Y070975D01*
X057650Y069975D01*
X057650Y069100D01*
X057025Y069184D02*
X057025Y069975D01*
X057650Y071225D01*
X057650Y073350D01*
X057775Y073475D01*
X057775Y074475D01*
X058025Y074725D01*
X058733Y074725D01*
X058733Y075225D02*
X059150Y075225D01*
X059650Y075725D01*
X059650Y078475D01*
X059275Y078850D01*
X058525Y078850D01*
X057275Y079600D01*
X056650Y079600D01*
X056275Y079225D01*
X056275Y078975D01*
X056525Y078350D01*
X056525Y076350D01*
X055775Y075725D01*
X055151Y075725D01*
X055151Y075225D02*
X055775Y075225D01*
X055775Y074600D01*
X055275Y073975D01*
X054349Y073225D02*
X053150Y073225D01*
X052810Y073565D01*
X052810Y074725D01*
X053400Y075975D02*
X053400Y076226D01*
X053399Y076225D01*
X055151Y076725D02*
X055775Y076725D01*
X056150Y077100D01*
X056150Y078350D01*
X055650Y079350D01*
X055650Y082725D01*
X052845Y081933D02*
X051944Y081975D01*
X055118Y080932D02*
X055118Y079257D01*
X055775Y078350D01*
X055775Y077475D01*
X055525Y077225D01*
X055151Y077225D01*
X057274Y078225D02*
X057150Y078850D01*
X058560Y079315D02*
X058900Y079440D01*
X061900Y077225D02*
X062693Y077225D01*
X061900Y077225D02*
X060650Y075975D01*
X060650Y075350D01*
X060025Y074725D01*
X060025Y073475D01*
X059900Y073350D01*
X059900Y070975D01*
X059275Y069600D01*
X059275Y067850D01*
X060275Y068600D02*
X060275Y064850D01*
X059775Y064975D02*
X059775Y069100D01*
X060400Y070475D01*
X060400Y074350D01*
X061150Y075100D01*
X061150Y075600D01*
X061775Y076225D01*
X062693Y076225D01*
X062693Y075725D02*
X062025Y075725D01*
X061650Y075350D01*
X061650Y074850D01*
X060900Y074100D01*
X060900Y069975D01*
X060275Y068600D01*
X060900Y068225D02*
X061400Y069350D01*
X061400Y071975D01*
X061275Y072100D01*
X061275Y073725D01*
X061775Y074225D01*
X062693Y074225D01*
X062693Y073225D02*
X063150Y073225D01*
X063524Y072851D01*
X063524Y072475D01*
X062775Y073225D02*
X062693Y073225D01*
X062025Y072475D02*
X061900Y071600D01*
X061900Y070600D01*
X063025Y069908D01*
X063399Y069042D02*
X063201Y068100D01*
X062650Y068725D02*
X062650Y064975D01*
X060900Y067850D02*
X060900Y068225D01*
X062650Y068725D02*
X062651Y069042D01*
X059025Y070975D02*
X058525Y069850D01*
X059025Y070975D02*
X059025Y072475D01*
D75*
X052810Y074725D02*
X052651Y076009D01*
X052651Y076225D01*
X051775Y076975D02*
X051775Y074225D01*
X051775Y076975D02*
X051525Y077225D01*
X051525Y080100D01*
X050606Y081019D01*
X050606Y081975D01*
X051275Y081475D02*
X052463Y080287D01*
X052463Y079600D01*
X052463Y077663D01*
X054155Y081163D02*
X054155Y081670D01*
X053892Y081933D01*
X054075Y082788D02*
X054780Y082788D01*
X054075Y082788D02*
X053892Y082971D01*
X055770Y083975D02*
X056275Y083095D01*
X056275Y080690D01*
X058525Y079440D01*
X058900Y079440D01*
X051275Y081475D02*
X051275Y083975D01*
X052150Y067475D02*
X054275Y067100D01*
X061650Y067651D02*
X061650Y065850D01*
X061650Y061600D01*
X061901Y061349D01*
X061901Y060600D01*
X062025Y058975D01*
X062900Y059600D02*
X062900Y056975D01*
X062900Y059600D02*
X062649Y059851D01*
X062649Y060600D01*
X062649Y062599D01*
X062650Y064975D01*
X061650Y067651D02*
X062099Y068100D01*
X047400Y054975D02*
X046650Y055100D01*
X044525Y055100D01*
X044025Y054600D01*
X044025Y054100D01*
X043025Y054100D01*
X042650Y053725D01*
X042650Y051475D01*
X043025Y051100D01*
X044025Y051100D01*
X047400Y051600D02*
X047650Y051225D01*
X047650Y045600D01*
X045900Y043350D01*
X044900Y042475D01*
X039650Y043850D02*
X038275Y041850D01*
X038275Y039725D01*
X039025Y038975D01*
X039025Y037975D01*
X040900Y037225D01*
X036650Y037850D02*
X036150Y037475D01*
X035900Y038600D02*
X034926Y037501D01*
X034301Y037376D01*
X034127Y038360D02*
X034900Y038725D01*
X035626Y039475D01*
X036650Y039475D01*
X035025Y040975D02*
X034900Y041850D01*
X031900Y041850D02*
X031400Y040600D01*
X030025Y040225D01*
X033992Y032037D02*
X035212Y032662D01*
X035525Y032975D01*
X039445Y023725D02*
X039445Y022845D01*
X041148Y021142D01*
X042148Y022134D02*
X042975Y022975D01*
X046085Y022138D02*
X047790Y023843D01*
X047790Y024327D01*
X049025Y023350D02*
X049400Y023725D01*
X049820Y023725D01*
X049025Y023350D02*
X049025Y021609D01*
X049492Y021142D01*
X050492Y022134D02*
X051475Y022850D01*
X052075Y022850D02*
X053400Y022850D01*
X054463Y023913D01*
X055650Y025225D01*
X055916Y025225D01*
X055765Y023475D02*
X057937Y023475D01*
X058790Y024327D01*
X055765Y023475D02*
X054429Y022138D01*
X057900Y027100D02*
X058150Y027100D01*
X057900Y028100D02*
X056865Y027565D01*
X057900Y028100D02*
X058525Y028100D01*
X059150Y027690D01*
X058150Y030100D02*
X056735Y030100D01*
X054150Y035724D02*
X054150Y037190D01*
X054435Y037350D01*
X054025Y037350D01*
X053525Y037850D01*
X053525Y038474D01*
X053526Y038475D01*
X052775Y041850D02*
X051775Y042475D01*
X058525Y042725D02*
X058525Y043725D01*
X058525Y042725D02*
X058525Y041850D01*
X059525Y042725D02*
X059525Y043725D01*
X060525Y043725D02*
X060525Y042725D01*
X061525Y042725D02*
X061525Y043725D01*
X047400Y051600D02*
X047400Y054975D01*
X055525Y052975D02*
X055650Y052975D01*
X130525Y039850D02*
X133025Y041725D01*
D76*
X115025Y039519D02*
X114589Y040830D01*
X064400Y055850D02*
X064400Y058225D01*
X064275Y058350D01*
X064275Y061225D01*
X064400Y061350D01*
X064400Y062725D01*
X063900Y063225D01*
X063900Y067100D01*
X064400Y067600D01*
X064400Y069850D01*
X062775Y071475D01*
X052651Y076225D02*
X052463Y077663D01*
X048975Y075275D02*
X048775Y075175D01*
X048975Y075275D02*
X047275Y076975D01*
X045025Y076975D01*
X044400Y077475D01*
X041900Y077475D01*
X043487Y078412D02*
X045775Y078100D01*
X044843Y075850D02*
X043487Y076444D01*
X043487Y074869D02*
X044843Y074600D01*
X046457Y074600D02*
X046457Y075850D01*
X048775Y073775D02*
X049775Y072150D01*
X050775Y070600D01*
X052150Y069475D01*
X052150Y067475D02*
X049900Y067475D01*
X049025Y067100D01*
X045775Y071100D02*
X043487Y071325D01*
X043487Y072900D02*
X045775Y073100D01*
X050525Y073475D02*
X050651Y072725D01*
X045775Y080100D02*
X043487Y079987D01*
X029400Y077538D02*
X029313Y077625D01*
X025025Y068600D02*
X025025Y067225D01*
X026525Y065350D01*
X026525Y060975D02*
X026525Y059350D01*
X028900Y059975D02*
X031150Y059975D01*
X033900Y056975D02*
X033900Y056100D01*
X033275Y055475D01*
X032775Y055475D01*
X039275Y054850D02*
X039275Y045100D01*
X038650Y043850D01*
X037900Y042850D01*
X036775Y042850D01*
X036650Y042725D01*
X036650Y039475D01*
X036650Y037850D01*
X036150Y037476D02*
X036030Y037381D01*
X035915Y037280D01*
X035805Y037174D01*
X035700Y037063D01*
X035601Y036947D01*
X035507Y036826D01*
X035419Y036701D01*
X035336Y036572D01*
X035261Y036439D01*
X035191Y036303D01*
X035128Y036164D01*
X035072Y036021D01*
X035023Y035877D01*
X034981Y035730D01*
X034945Y035581D01*
X034917Y035431D01*
X034896Y035279D01*
X034882Y035127D01*
X034876Y034974D01*
X034876Y034821D01*
X034884Y034668D01*
X034900Y034516D01*
X034922Y034365D01*
X034952Y034215D01*
X034989Y034067D01*
X035032Y033920D01*
X035083Y033776D01*
X035141Y033634D01*
X035205Y033495D01*
X035275Y033360D01*
X035353Y033228D01*
X035436Y033099D01*
X035525Y032975D01*
X036275Y032225D01*
X036650Y028600D02*
X037650Y028600D01*
X037650Y027600D02*
X036650Y027600D01*
X036650Y026600D02*
X035525Y026600D01*
X035400Y026600D01*
X036650Y026600D02*
X037650Y026600D01*
X037650Y025600D02*
X036650Y025600D01*
X035400Y025225D02*
X035400Y025100D01*
X031275Y028725D02*
X030650Y027975D01*
X029900Y027975D01*
X031275Y028725D02*
X031266Y030435D01*
X030850Y032391D02*
X030025Y032225D01*
X028025Y031600D01*
X028025Y024225D01*
X027275Y023475D01*
X024525Y023475D01*
X022525Y024225D01*
X031275Y034100D02*
X031775Y035100D01*
X031346Y036855D01*
X031025Y038725D02*
X027775Y038725D01*
X026650Y037600D01*
X026650Y037475D01*
X031025Y038725D02*
X030999Y038824D01*
X034900Y042850D02*
X036775Y042850D01*
X039275Y054850D02*
X043275Y058475D01*
X045525Y058475D01*
X059900Y052350D02*
X062275Y052350D01*
X062900Y051975D01*
X062650Y053100D02*
X063275Y053725D01*
X063275Y054725D01*
X064400Y055850D01*
X062400Y048850D02*
X062275Y048725D01*
X062275Y045975D01*
X060525Y044225D01*
X060525Y043725D01*
X041150Y027906D02*
X041025Y027975D01*
X045900Y025225D02*
X047900Y025225D01*
X056900Y025225D02*
X058900Y025225D01*
D77*
X052400Y027906D02*
X051213Y027906D01*
X050963Y027850D01*
X046463Y027850D02*
X045963Y027913D01*
X042525Y027906D01*
X041150Y027906D01*
X036275Y030850D02*
X036275Y032225D01*
X036275Y030850D02*
X035065Y029640D01*
X035065Y027600D01*
X035065Y027060D01*
X035525Y026600D01*
X035400Y026600D02*
X035400Y025225D01*
X035400Y023960D01*
X042148Y017212D01*
X026650Y025600D02*
X026650Y026725D01*
X025900Y027975D01*
X025900Y028600D01*
X025775Y028725D01*
X021900Y028725D01*
X020650Y027475D01*
X019025Y027475D01*
X019025Y026475D02*
X022525Y024225D01*
X019025Y028475D02*
X022525Y030225D01*
X025525Y030475D01*
X025900Y029100D02*
X025900Y028600D01*
X024150Y031475D02*
X022525Y031475D01*
X019025Y033725D01*
X020650Y037475D02*
X022525Y037475D01*
X025025Y037350D01*
X026650Y037475D02*
X026650Y033600D01*
X024150Y031475D01*
X029525Y030475D02*
X029525Y029725D01*
X029900Y029100D01*
X025025Y038975D02*
X022650Y038975D01*
X019025Y040975D01*
X022650Y044975D02*
X025025Y044100D01*
X027025Y043975D02*
X028275Y045225D01*
X030275Y045225D01*
X031525Y043850D01*
X031900Y043850D01*
X027025Y043975D02*
X027025Y040850D01*
X025025Y038975D01*
X036356Y051475D02*
X036900Y054475D01*
X036900Y056975D01*
X037725Y057725D01*
X038400Y057775D01*
X036900Y056975D02*
X035900Y056975D01*
X034900Y056975D02*
X034900Y055475D01*
X034900Y054475D01*
X034900Y055475D02*
X035775Y055475D01*
X032900Y056975D02*
X032900Y057850D01*
X033600Y058425D01*
X036600Y058425D01*
X037475Y059175D01*
X038400Y059175D01*
X032900Y059975D02*
X031150Y059975D01*
X030650Y063075D02*
X030650Y064975D01*
X030900Y067225D01*
X030900Y068100D01*
X031650Y064975D02*
X034025Y064225D01*
X045525Y058475D02*
X048525Y058475D01*
X046775Y062975D02*
X046775Y063475D01*
X049025Y066225D01*
X049025Y067100D01*
X050025Y068475D02*
X048963Y069663D01*
X050025Y068475D02*
X052150Y068475D01*
X054775Y068475D01*
X055525Y067725D01*
X055525Y064975D01*
X048963Y071663D02*
X046525Y069100D01*
X046525Y068600D01*
X045775Y072100D02*
X048525Y072100D01*
X048963Y071663D01*
X048775Y073775D02*
X047325Y074600D01*
X046457Y074600D01*
X050151Y076099D02*
X050525Y075350D01*
X050525Y073475D01*
X050151Y076099D02*
X050150Y077725D01*
X048900Y077725D01*
X047150Y079100D01*
X045775Y079100D01*
X047525Y081600D02*
X047775Y081600D01*
X050150Y083975D01*
X051030Y083975D01*
X051275Y083975D01*
X052838Y083975D01*
X052845Y082971D01*
X052838Y083975D02*
X055770Y083975D01*
X062025Y056975D02*
X062900Y056975D01*
X062025Y054975D02*
X062069Y053975D01*
X062900Y051975D02*
X062275Y050975D01*
X062275Y048975D01*
X062400Y048850D01*
X032900Y056975D02*
X031150Y055975D01*
X029150Y053225D01*
X131457Y038803D02*
X132400Y038269D01*
D78*
X130072Y037418D02*
X130072Y035782D01*
X126593Y040897D02*
X124957Y040897D01*
X123572Y042282D02*
X124025Y042850D01*
X123775Y045350D02*
X124985Y045370D01*
X126565Y045370D01*
X127900Y045350D01*
X126650Y046725D02*
X126565Y047330D01*
X124985Y047330D02*
X125025Y046725D01*
X120065Y047330D02*
X119775Y047350D01*
X118485Y047330D02*
X118088Y047350D01*
X118485Y045370D02*
X120065Y045370D01*
X118485Y040830D02*
X117650Y040850D01*
X118485Y038870D02*
X118937Y037418D01*
X121478Y037418D01*
X114589Y040830D02*
X113565Y040830D01*
X111985Y040830D02*
X111525Y040850D01*
X109025Y040850D02*
X107065Y040830D01*
X111985Y038870D02*
X113565Y038870D01*
X113565Y045370D02*
X111985Y045370D01*
X111985Y047330D02*
X112338Y047350D01*
X113565Y047330D02*
X114775Y047350D01*
X107775Y047350D02*
X107065Y047330D01*
X131485Y045370D02*
X131838Y045975D01*
X131463Y028725D02*
X131485Y027830D01*
X131525Y026475D02*
X131485Y025870D01*
X127170Y025870D02*
X126565Y025870D01*
X124985Y025870D01*
X123275Y025850D01*
X120065Y025870D02*
X118485Y025870D01*
X117525Y025850D01*
X117400Y027850D02*
X118485Y027830D01*
X114275Y025475D02*
X113565Y025870D01*
X113565Y027830D02*
X113565Y028971D01*
X126588Y028725D02*
X126565Y027830D01*
X054429Y022138D02*
X052456Y021146D01*
X052456Y017212D01*
X054432Y017212D01*
X052456Y017212D02*
X050492Y017212D01*
X046088Y017212D01*
X044112Y017212D01*
X044112Y021146D01*
X046085Y022138D01*
X044112Y017212D02*
X042148Y017212D01*
X024650Y025600D02*
X024400Y027600D01*
X019025Y028475D02*
X017400Y029475D01*
X017400Y034725D01*
X017400Y041975D01*
X017400Y046600D01*
X017900Y047100D01*
X019900Y047100D02*
X019900Y049100D01*
X019025Y049600D01*
X019900Y049100D02*
X024150Y049100D01*
X024150Y047100D01*
X026400Y047100D01*
X028400Y047100D02*
X030025Y047100D01*
X029025Y044100D02*
X030025Y042225D01*
X024025Y042225D02*
X024025Y041850D01*
X020675Y041975D01*
X019025Y041975D01*
X017400Y041975D01*
X019025Y042975D02*
X022650Y044975D01*
X022150Y047100D01*
X024025Y041850D02*
X024025Y040225D01*
X020650Y038350D02*
X020650Y037475D01*
X019025Y035725D01*
X019025Y034725D02*
X017400Y034725D01*
X019025Y034725D02*
X020675Y034725D01*
X023400Y034725D01*
X024025Y034600D01*
X024025Y033475D01*
X024025Y034600D02*
X024025Y035475D01*
X029025Y037350D02*
X029775Y035850D01*
X030025Y035475D01*
D79*
X056150Y031350D02*
X057525Y031350D01*
D80*
X052650Y028850D02*
X052400Y027906D01*
X052650Y028850D02*
X052650Y035850D01*
X051775Y036725D01*
X051775Y042475D01*
X039025Y029975D02*
X037650Y029600D01*
X036650Y029600D01*
X028338Y051475D02*
X029150Y053225D01*
X025650Y053225D02*
X029400Y056975D01*
X025650Y053225D02*
X023150Y053225D01*
X022150Y053225D01*
X028900Y060975D02*
X029275Y061600D01*
X029275Y063975D01*
X029650Y064975D01*
X028025Y064225D02*
X027275Y063475D01*
X028025Y064225D02*
X028025Y065975D01*
X029313Y067263D01*
X031650Y070475D02*
X035150Y066100D01*
X035150Y063100D01*
X035216Y062710D01*
X036275Y062725D01*
X037650Y063075D01*
X037650Y064725D01*
X036650Y064725D02*
X036650Y066600D01*
X036650Y068100D01*
X034275Y071100D01*
X034275Y075850D01*
X030275Y079850D01*
X030025Y079850D01*
X029313Y077625D02*
X029313Y077312D01*
X031650Y074975D01*
X031650Y070475D01*
X036650Y066600D02*
X039650Y066600D01*
X040900Y066475D01*
X042400Y063725D01*
X042275Y060600D01*
X039200Y057775D01*
X038400Y057775D01*
X035900Y059975D02*
X036025Y061100D01*
X034900Y059975D02*
X035025Y062600D01*
X035216Y062710D01*
X035025Y062600D02*
X033150Y062600D01*
X032525Y061600D01*
X029275Y061600D01*
X034025Y061225D02*
X033900Y059975D01*
X040025Y061100D02*
X040025Y062975D01*
X038650Y064725D01*
X043900Y066475D02*
X043880Y068963D01*
X046369Y066475D01*
X046872Y066005D01*
X045525Y064725D01*
X045525Y058475D01*
X047400Y060100D02*
X047400Y061350D01*
X050525Y066475D01*
X048025Y067100D02*
X047381Y066488D01*
X047368Y066475D01*
X047381Y066488D02*
X046872Y066005D01*
X048025Y067100D02*
X048025Y068940D01*
X048146Y069061D01*
X048013Y068963D01*
X048146Y069061D02*
X048963Y069663D01*
X043880Y068963D02*
X043869Y068975D01*
X042400Y068975D01*
X041775Y069600D01*
X041775Y077350D01*
X041775Y080975D01*
X042400Y081600D01*
X047525Y081600D01*
D81*
X050150Y079725D01*
X029313Y077625D02*
X027525Y078225D01*
X027525Y076225D02*
X028025Y075100D01*
X029313Y071325D02*
X028025Y071100D01*
X029313Y071325D02*
X029313Y067263D01*
X027275Y063475D02*
X026150Y063475D01*
X025025Y062350D01*
X107065Y045370D02*
X110525Y045370D01*
X110525Y038870D01*
X107065Y038870D01*
X110525Y038870D02*
X111985Y038870D01*
X111985Y045370D02*
X110525Y045370D01*
X120065Y027830D02*
X124985Y027830D01*
D82*
X062400Y048850D03*
X059400Y048850D03*
X056525Y050350D03*
X055650Y049725D03*
X054775Y047475D03*
X055650Y046850D03*
X053900Y046725D03*
X052900Y045850D03*
X051900Y045100D03*
X053400Y044350D03*
X054525Y043225D03*
X052775Y041850D03*
X051775Y042475D03*
X048775Y044350D03*
X047275Y043225D03*
X044900Y043850D03*
X044900Y042475D03*
X050275Y045600D03*
X050775Y047850D03*
X057400Y043850D03*
X058525Y041850D03*
X044150Y037225D03*
X040900Y037225D03*
X062900Y051975D03*
X062900Y056975D03*
X057150Y057725D03*
X056275Y058475D03*
X056275Y060600D03*
X056275Y062100D03*
X054650Y061350D03*
X054025Y058475D03*
X052150Y057725D03*
X050775Y057225D03*
X050275Y058475D03*
X048525Y058475D03*
X047400Y060100D03*
X051900Y055850D03*
X052900Y054350D03*
X053900Y055225D03*
X054775Y053975D03*
X056525Y053850D03*
X050275Y053600D03*
X048525Y054850D03*
X047400Y054975D03*
X059400Y061350D03*
X063525Y062100D03*
X062650Y064975D03*
X061650Y065850D03*
X058525Y065850D03*
X055525Y064975D03*
X050525Y066475D03*
X056150Y069850D03*
X058525Y069850D03*
X055275Y073975D03*
X050525Y073475D03*
X057150Y078850D03*
X063775Y075475D03*
X063775Y073975D03*
D83*
X053650Y073815D02*
X053400Y074225D01*
X053400Y075975D01*
X108775Y058475D02*
X108775Y057600D01*
X113025Y056100D02*
X113025Y054725D01*
X102650Y039225D02*
X102650Y037475D01*
X117213Y036600D02*
X117213Y035475D01*
X056775Y027475D02*
X054275Y027475D01*
X054025Y027725D01*
D84*
X119400Y039725D02*
X120093Y038803D01*
D85*
X050963Y027850D03*
X046463Y027850D03*
X046088Y029225D03*
X046088Y030225D03*
X041025Y027975D03*
X039025Y029975D03*
X046088Y034413D03*
D86*
X111150Y049725D02*
X111025Y051100D01*
X123275Y050975D02*
X123400Y049975D01*
D87*
X117400Y052975D03*
D88*
X117275Y031600D02*
X117150Y030350D01*
D89*
X031275Y034100D02*
X030025Y033475D01*
D90*
X092650Y023475D03*
X093650Y019475D03*
X131150Y019475D03*
X135150Y023475D03*
X092650Y060725D03*
X116650Y080975D03*
X131150Y083225D03*
X135150Y079225D03*
M02*
