G75*
G70*
%OFA0B0*%
%FSLAX24Y24*%
%IPPOS*%
%LPD*%
%AMOC8*
5,1,8,0,0,1.08239X$1,22.5*
%
%ADD10C,0.1300*%
%ADD11R,0.0580X0.0300*%
%ADD12R,0.0300X0.0580*%
%ADD13R,0.0671X0.0592*%
%ADD14C,0.0907*%
%ADD15R,0.0592X0.0671*%
%ADD16R,0.0789X0.0552*%
%ADD17R,0.0867X0.0710*%
%ADD18R,0.0710X0.0592*%
%ADD19R,0.0710X0.0789*%
%ADD20R,0.0592X0.0710*%
%ADD21R,0.0710X0.0867*%
%ADD22C,0.0912*%
%ADD23OC8,0.1080*%
%ADD24C,0.1080*%
%ADD25R,0.0946X0.0316*%
%ADD26C,0.1080*%
%ADD27OC8,0.0992*%
%ADD28OC8,0.0952*%
%ADD29C,0.0986*%
%ADD30OC8,0.0912*%
%ADD31C,0.0912*%
%ADD32C,0.0986*%
%ADD33C,0.1062*%
%ADD34C,0.1064*%
%ADD35C,0.0946*%
%ADD36R,0.1062X0.1062*%
%ADD37C,0.0790*%
%ADD38R,0.1062X0.1062*%
%ADD39R,0.0631X0.0789*%
%ADD40R,0.0789X0.0631*%
%ADD41C,0.1032*%
%ADD42C,0.0992*%
%ADD43C,0.1261*%
%ADD44R,0.0710X0.1143*%
%ADD45C,0.1302*%
%ADD46R,0.0789X0.0749*%
%ADD47C,0.0992*%
%ADD48C,0.4804*%
%ADD49R,0.0552X0.0789*%
%ADD50R,0.0710X0.0540*%
%ADD51R,0.0720X0.0060*%
%ADD52R,0.0912X0.0912*%
%ADD53C,0.1694*%
%ADD54C,0.2049*%
%ADD55C,0.1340*%
%ADD56C,0.1655*%
%ADD57C,0.1261*%
%ADD58R,0.0880X0.0340*%
%ADD59R,0.0680X0.0330*%
%ADD60R,0.0671X0.0474*%
%ADD61R,0.0474X0.0631*%
%ADD62R,0.0789X0.0789*%
%ADD63R,0.0789X0.0710*%
%ADD64R,0.0540X0.0710*%
%ADD65R,0.0060X0.0720*%
%ADD66R,0.1180X0.0980*%
%ADD67R,0.0680X0.0320*%
%ADD68R,0.2521X0.2206*%
%ADD69R,0.0710X0.0474*%
%ADD70C,0.1182*%
%ADD71R,0.1182X0.1182*%
%ADD72R,0.1080X0.1080*%
%ADD73R,0.1655X0.1655*%
%ADD74C,0.1064*%
%ADD75C,0.0990*%
%ADD76C,0.0940*%
%ADD77OC8,0.0907*%
%ADD78R,0.1580X0.1580*%
D10*
X094275Y042725D03*
X105650Y029475D03*
X119025Y043100D03*
X131650Y042725D03*
D11*
G36*
X054810Y050989D02*
X054401Y050580D01*
X054188Y050793D01*
X054597Y051202D01*
X054810Y050989D01*
G37*
G36*
X054588Y051211D02*
X054179Y050802D01*
X053966Y051015D01*
X054375Y051424D01*
X054588Y051211D01*
G37*
G36*
X054365Y051434D02*
X053956Y051025D01*
X053743Y051238D01*
X054152Y051647D01*
X054365Y051434D01*
G37*
G36*
X054142Y051657D02*
X053733Y051248D01*
X053520Y051461D01*
X053929Y051870D01*
X054142Y051657D01*
G37*
G36*
X053920Y051879D02*
X053511Y051470D01*
X053298Y051683D01*
X053707Y052092D01*
X053920Y051879D01*
G37*
G36*
X053697Y052102D02*
X053288Y051693D01*
X053075Y051906D01*
X053484Y052315D01*
X053697Y052102D01*
G37*
G36*
X053474Y052325D02*
X053065Y051916D01*
X052852Y052129D01*
X053261Y052538D01*
X053474Y052325D01*
G37*
G36*
X053252Y052547D02*
X052843Y052138D01*
X052630Y052351D01*
X053039Y052760D01*
X053252Y052547D01*
G37*
G36*
X050862Y050157D02*
X050453Y049748D01*
X050240Y049961D01*
X050649Y050370D01*
X050862Y050157D01*
G37*
G36*
X051084Y049935D02*
X050675Y049526D01*
X050462Y049739D01*
X050871Y050148D01*
X051084Y049935D01*
G37*
G36*
X051307Y049712D02*
X050898Y049303D01*
X050685Y049516D01*
X051094Y049925D01*
X051307Y049712D01*
G37*
G36*
X051530Y049489D02*
X051121Y049080D01*
X050908Y049293D01*
X051317Y049702D01*
X051530Y049489D01*
G37*
G36*
X051752Y049267D02*
X051343Y048858D01*
X051130Y049071D01*
X051539Y049480D01*
X051752Y049267D01*
G37*
G36*
X051975Y049044D02*
X051566Y048635D01*
X051353Y048848D01*
X051762Y049257D01*
X051975Y049044D01*
G37*
G36*
X052198Y048821D02*
X051789Y048412D01*
X051576Y048625D01*
X051985Y049034D01*
X052198Y048821D01*
G37*
G36*
X052420Y048599D02*
X052011Y048190D01*
X051798Y048403D01*
X052207Y048812D01*
X052420Y048599D01*
G37*
D12*
G36*
X053252Y048403D02*
X053039Y048190D01*
X052630Y048599D01*
X052843Y048812D01*
X053252Y048403D01*
G37*
G36*
X053474Y048625D02*
X053261Y048412D01*
X052852Y048821D01*
X053065Y049034D01*
X053474Y048625D01*
G37*
G36*
X053697Y048848D02*
X053484Y048635D01*
X053075Y049044D01*
X053288Y049257D01*
X053697Y048848D01*
G37*
G36*
X053920Y049071D02*
X053707Y048858D01*
X053298Y049267D01*
X053511Y049480D01*
X053920Y049071D01*
G37*
G36*
X054142Y049293D02*
X053929Y049080D01*
X053520Y049489D01*
X053733Y049702D01*
X054142Y049293D01*
G37*
G36*
X054365Y049516D02*
X054152Y049303D01*
X053743Y049712D01*
X053956Y049925D01*
X054365Y049516D01*
G37*
G36*
X054588Y049739D02*
X054375Y049526D01*
X053966Y049935D01*
X054179Y050148D01*
X054588Y049739D01*
G37*
G36*
X054810Y049961D02*
X054597Y049748D01*
X054188Y050157D01*
X054401Y050370D01*
X054810Y049961D01*
G37*
G36*
X052420Y052351D02*
X052207Y052138D01*
X051798Y052547D01*
X052011Y052760D01*
X052420Y052351D01*
G37*
G36*
X052198Y052129D02*
X051985Y051916D01*
X051576Y052325D01*
X051789Y052538D01*
X052198Y052129D01*
G37*
G36*
X051975Y051906D02*
X051762Y051693D01*
X051353Y052102D01*
X051566Y052315D01*
X051975Y051906D01*
G37*
G36*
X051752Y051683D02*
X051539Y051470D01*
X051130Y051879D01*
X051343Y052092D01*
X051752Y051683D01*
G37*
G36*
X051530Y051461D02*
X051317Y051248D01*
X050908Y051657D01*
X051121Y051870D01*
X051530Y051461D01*
G37*
G36*
X051307Y051238D02*
X051094Y051025D01*
X050685Y051434D01*
X050898Y051647D01*
X051307Y051238D01*
G37*
G36*
X051084Y051015D02*
X050871Y050802D01*
X050462Y051211D01*
X050675Y051424D01*
X051084Y051015D01*
G37*
G36*
X050862Y050793D02*
X050649Y050580D01*
X050240Y050989D01*
X050453Y051202D01*
X050862Y050793D01*
G37*
D13*
X054713Y052328D03*
X054713Y052997D03*
X057650Y038935D03*
X057650Y038265D03*
X059775Y037622D03*
X059775Y036953D03*
X047900Y038328D03*
X047900Y038997D03*
X046650Y038997D03*
X046650Y038328D03*
D14*
X044088Y038413D03*
X044088Y039413D03*
X044088Y040413D03*
X039900Y038600D03*
X039025Y040975D03*
X035900Y038600D03*
X035025Y040975D03*
X044088Y035413D03*
X044088Y034413D03*
X044088Y033413D03*
X044088Y031288D03*
X044088Y030288D03*
X044088Y029288D03*
X039025Y031100D03*
X035025Y031100D03*
X029900Y029100D03*
X029900Y027975D03*
X025900Y027975D03*
X025900Y029100D03*
X049525Y029850D03*
X049525Y030850D03*
X049525Y031850D03*
X049525Y033975D03*
X049525Y034975D03*
X049525Y035975D03*
X049525Y038475D03*
X049525Y039475D03*
X049525Y040475D03*
X055025Y040475D03*
X055025Y039475D03*
X055025Y038475D03*
X055025Y035850D03*
X055025Y034850D03*
X055025Y033850D03*
X055025Y032100D03*
X055025Y031100D03*
X055025Y030100D03*
X060400Y029975D03*
X060400Y030975D03*
X060400Y031975D03*
X060400Y033975D03*
X060400Y034975D03*
X060400Y035975D03*
X060150Y038475D03*
X060150Y039475D03*
X060150Y040475D03*
X055650Y052975D03*
X055650Y056975D03*
X061025Y056975D03*
X062025Y056975D03*
X062025Y055975D03*
X061025Y055975D03*
X061025Y054975D03*
X062025Y054975D03*
X062025Y057975D03*
X061025Y057975D03*
X062025Y058975D03*
X040025Y061100D03*
X036025Y061100D03*
X035775Y055475D03*
X034900Y054475D03*
X032775Y055475D03*
X036900Y054475D03*
X036356Y051475D03*
X096275Y058100D03*
X096275Y060100D03*
X103275Y059225D03*
X106275Y059225D03*
X106275Y056975D03*
X106275Y055475D03*
X106275Y054475D03*
X106213Y053100D03*
X103213Y053100D03*
X103275Y054475D03*
X103275Y055475D03*
X103275Y056975D03*
X110463Y055475D03*
X111463Y055475D03*
X112463Y055475D03*
X113588Y055475D03*
X114775Y055475D03*
X115713Y055475D03*
X115650Y050475D03*
X114650Y050475D03*
X113650Y050475D03*
X112650Y050475D03*
X111650Y050475D03*
X110525Y050475D03*
X109275Y049225D03*
X112275Y049225D03*
X122775Y050475D03*
X123900Y050475D03*
X124900Y050475D03*
X125900Y050475D03*
X126900Y050475D03*
X127900Y050475D03*
X127963Y055475D03*
X127025Y055475D03*
X126025Y055475D03*
X124900Y055475D03*
X123775Y055475D03*
X122775Y055475D03*
X121775Y035975D03*
X120775Y035975D03*
X119775Y035975D03*
X118775Y035975D03*
X117775Y035975D03*
X116650Y035975D03*
X116650Y030975D03*
X117775Y030975D03*
X118775Y030975D03*
X119775Y030975D03*
X120775Y030975D03*
X121775Y030975D03*
X120275Y029475D03*
X119275Y029475D03*
X118275Y029475D03*
X112650Y026850D03*
X112650Y022850D03*
X098650Y023475D03*
X098650Y025475D03*
X095963Y033475D03*
X095963Y035475D03*
D15*
X124378Y037475D03*
X125047Y037475D03*
X059297Y032631D03*
X058628Y032631D03*
X056735Y030100D03*
X056065Y030100D03*
X046672Y031225D03*
X046003Y031225D03*
X045860Y031975D03*
X045190Y031975D03*
X046315Y037538D03*
X046985Y037538D03*
X057065Y037475D03*
X057735Y037475D03*
X035735Y027600D03*
X035065Y027600D03*
X056276Y073975D03*
X057024Y073975D03*
X053399Y076225D03*
X052651Y076225D03*
X052463Y077663D03*
X053212Y077663D03*
X053212Y079600D03*
X052463Y079600D03*
D16*
X052810Y074725D03*
X053990Y074725D03*
G36*
X099286Y057540D02*
X098881Y056865D01*
X098408Y057148D01*
X098813Y057823D01*
X099286Y057540D01*
G37*
G36*
X099892Y058552D02*
X099487Y057877D01*
X099014Y058160D01*
X099419Y058835D01*
X099892Y058552D01*
G37*
X109560Y047350D03*
X110740Y047350D03*
X127560Y040100D03*
X128740Y040100D03*
X059615Y038975D03*
X058435Y038975D03*
X055615Y037350D03*
X054435Y037350D03*
D17*
X059400Y034526D03*
X059400Y033424D03*
X056775Y031901D03*
X056775Y030799D03*
X045088Y032924D03*
X045088Y034026D03*
X045775Y038424D03*
X045775Y039526D03*
D18*
X044963Y039663D03*
X044963Y038974D03*
X044963Y038226D03*
X044963Y040412D03*
X050338Y035974D03*
X050338Y035226D03*
X054150Y034976D03*
X054150Y035724D03*
X056025Y038226D03*
X056025Y038974D03*
X061400Y034849D03*
X061400Y034101D03*
X059275Y031849D03*
X059275Y031101D03*
X052775Y024849D03*
X052775Y024101D03*
X043213Y030351D03*
X043213Y031099D03*
X043213Y033538D03*
X043213Y034287D03*
X042525Y025349D03*
X042525Y024601D03*
X051525Y060226D03*
X051525Y060974D03*
X101025Y048349D03*
X101025Y047601D03*
D19*
X057201Y039725D03*
X056099Y039725D03*
X055974Y073100D03*
X057076Y073100D03*
D20*
X051399Y072725D03*
X050651Y072725D03*
X062776Y072475D03*
X063524Y072475D03*
X062649Y060600D03*
X061901Y060600D03*
X058274Y053850D03*
X057526Y053850D03*
X048649Y040475D03*
X047901Y040475D03*
X048276Y037225D03*
X049024Y037225D03*
X053526Y038475D03*
X054274Y038475D03*
X048712Y031100D03*
X047963Y031100D03*
X043274Y023850D03*
X042526Y023850D03*
X053526Y024100D03*
X054274Y024100D03*
X061901Y028225D03*
X062649Y028225D03*
X110651Y058975D03*
X111399Y058975D03*
X125776Y037475D03*
X126524Y037475D03*
D21*
X063201Y068100D03*
X062099Y068100D03*
X047764Y032725D03*
X046661Y032725D03*
X048036Y026975D03*
X049139Y026975D03*
D22*
X003191Y001350D02*
X002359Y001350D01*
X005359Y001350D02*
X006191Y001350D01*
X030859Y030349D02*
X031673Y030521D01*
X031465Y031500D02*
X030651Y031327D01*
X030443Y032305D02*
X031257Y032478D01*
X033377Y032929D02*
X034191Y033101D01*
X034399Y032123D02*
X033585Y031950D01*
X033793Y030972D02*
X034607Y031145D01*
X033891Y037303D02*
X034710Y037448D01*
X034537Y038433D02*
X033718Y038288D01*
X033544Y039273D02*
X034363Y039418D01*
X031409Y038897D02*
X030590Y038752D01*
X030763Y037767D02*
X031582Y037912D01*
X031756Y036927D02*
X030937Y036782D01*
X031484Y041850D02*
X032316Y041850D01*
X032316Y042850D02*
X031484Y042850D01*
X031484Y043850D02*
X032316Y043850D01*
X034484Y043850D02*
X035316Y043850D01*
X035316Y042850D02*
X034484Y042850D01*
X034484Y041850D02*
X035316Y041850D01*
X045484Y047100D02*
X046316Y047100D01*
X046316Y048100D02*
X045484Y048100D01*
X045484Y049100D02*
X046316Y049100D01*
X046316Y050100D02*
X045484Y050100D01*
X045484Y051100D02*
X046316Y051100D01*
X046316Y052100D02*
X045484Y052100D01*
X045484Y053100D02*
X046316Y053100D01*
X046316Y054100D02*
X045484Y054100D01*
X048484Y054100D02*
X049316Y054100D01*
X049316Y053100D02*
X048484Y053100D01*
X048484Y052100D02*
X049316Y052100D01*
X049316Y051100D02*
X048484Y051100D01*
X048484Y050100D02*
X049316Y050100D01*
X049316Y049100D02*
X048484Y049100D01*
X048484Y048100D02*
X049316Y048100D01*
X049316Y047100D02*
X048484Y047100D01*
X035900Y056559D02*
X035900Y057391D01*
X034900Y057391D02*
X034900Y056559D01*
X033900Y056559D02*
X033900Y057391D01*
X032900Y057391D02*
X032900Y056559D01*
X032900Y059559D02*
X032900Y060391D01*
X033900Y060391D02*
X033900Y059559D01*
X034900Y059559D02*
X034900Y060391D01*
X035900Y060391D02*
X035900Y059559D01*
X051609Y061975D02*
X052441Y061975D01*
X052441Y062975D02*
X051609Y062975D01*
X051609Y063975D02*
X052441Y063975D01*
X054275Y066684D02*
X054275Y067516D01*
X054275Y070684D02*
X054275Y071516D01*
X097359Y059725D02*
X098191Y059725D01*
X098191Y058725D02*
X097359Y058725D01*
X097359Y057725D02*
X098191Y057725D01*
X098191Y056725D02*
X097359Y056725D01*
X097359Y055725D02*
X098191Y055725D01*
X098191Y054725D02*
X097359Y054725D01*
X097359Y053725D02*
X098191Y053725D01*
X098191Y052725D02*
X097359Y052725D01*
X100359Y052725D02*
X101191Y052725D01*
X101191Y053725D02*
X100359Y053725D01*
X100359Y054725D02*
X101191Y054725D01*
X101191Y055725D02*
X100359Y055725D01*
X100359Y056725D02*
X101191Y056725D01*
X101191Y057725D02*
X100359Y057725D01*
X100359Y058725D02*
X101191Y058725D01*
X101191Y059725D02*
X100359Y059725D01*
X099941Y047475D02*
X099109Y047475D01*
X099109Y046475D02*
X099941Y046475D01*
X102109Y046475D02*
X102941Y046475D01*
X102941Y045475D02*
X102109Y045475D01*
X102109Y044475D02*
X102941Y044475D01*
X102941Y043475D02*
X102109Y043475D01*
X102109Y042475D02*
X102941Y042475D01*
X102941Y041475D02*
X102109Y041475D01*
X099941Y041475D02*
X099109Y041475D01*
X099109Y042475D02*
X099941Y042475D01*
X099941Y043475D02*
X099109Y043475D01*
X099984Y039475D02*
X100816Y039475D01*
X101234Y038600D02*
X102066Y038600D01*
X102066Y037600D02*
X101234Y037600D01*
X100816Y037475D02*
X099984Y037475D01*
X099984Y036475D02*
X100816Y036475D01*
X101234Y036600D02*
X102066Y036600D01*
X102066Y035600D02*
X101234Y035600D01*
X100816Y035475D02*
X099984Y035475D01*
X099984Y034475D02*
X100816Y034475D01*
X101234Y034600D02*
X102066Y034600D01*
X102066Y033600D02*
X101234Y033600D01*
X100816Y033475D02*
X099984Y033475D01*
X099984Y032475D02*
X100816Y032475D01*
X101234Y032600D02*
X102066Y032600D01*
X102066Y031600D02*
X101234Y031600D01*
X104234Y031600D02*
X105066Y031600D01*
X105066Y032600D02*
X104234Y032600D01*
X104234Y033600D02*
X105066Y033600D01*
X105066Y034600D02*
X104234Y034600D01*
X104234Y035600D02*
X105066Y035600D01*
X105066Y036600D02*
X104234Y036600D01*
X104234Y037600D02*
X105066Y037600D01*
X105066Y038600D02*
X104234Y038600D01*
X100816Y038475D02*
X099984Y038475D01*
X097816Y038475D02*
X096984Y038475D01*
X096984Y037475D02*
X097816Y037475D01*
X097816Y036475D02*
X096984Y036475D01*
X096984Y035475D02*
X097816Y035475D01*
X097816Y034475D02*
X096984Y034475D01*
X096984Y033475D02*
X097816Y033475D01*
X097816Y032475D02*
X096984Y032475D01*
X099734Y029475D02*
X100566Y029475D01*
X100566Y028475D02*
X099734Y028475D01*
X099734Y027475D02*
X100566Y027475D01*
X100566Y026475D02*
X099734Y026475D01*
X099734Y025475D02*
X100566Y025475D01*
X100566Y024475D02*
X099734Y024475D01*
X099734Y023475D02*
X100566Y023475D01*
X100566Y022475D02*
X099734Y022475D01*
X102734Y022475D02*
X103566Y022475D01*
X103566Y023475D02*
X102734Y023475D01*
X102734Y024475D02*
X103566Y024475D01*
X103566Y025475D02*
X102734Y025475D01*
X102734Y026475D02*
X103566Y026475D01*
X103566Y027475D02*
X102734Y027475D01*
X102734Y028475D02*
X103566Y028475D01*
X103566Y029475D02*
X102734Y029475D01*
X107609Y028475D02*
X108441Y028475D01*
X108441Y027475D02*
X107609Y027475D01*
X107609Y026475D02*
X108441Y026475D01*
X108441Y025475D02*
X107609Y025475D01*
X107609Y024475D02*
X108441Y024475D01*
X108441Y023475D02*
X107609Y023475D01*
X107609Y022475D02*
X108441Y022475D01*
X108441Y021475D02*
X107609Y021475D01*
X110609Y021475D02*
X111441Y021475D01*
X111441Y022475D02*
X110609Y022475D01*
X110609Y023475D02*
X111441Y023475D01*
X111441Y024475D02*
X110609Y024475D01*
X110609Y025475D02*
X111441Y025475D01*
X111441Y026475D02*
X110609Y026475D01*
X110609Y027475D02*
X111441Y027475D01*
X111441Y028475D02*
X110609Y028475D01*
X097816Y039475D02*
X096984Y039475D01*
X102109Y047475D02*
X102941Y047475D01*
X126234Y071850D02*
X127066Y071850D01*
X127066Y073850D02*
X126234Y073850D01*
X063150Y025891D02*
X063150Y025059D01*
X062150Y025059D02*
X062150Y025891D01*
X061150Y025891D02*
X061150Y025059D01*
D23*
X049775Y062975D03*
X050150Y079725D03*
D24*
X050150Y077725D03*
X046775Y062975D03*
X026525Y060975D03*
X026525Y065350D03*
X125025Y067225D03*
X129025Y067225D03*
X129025Y062225D03*
X125025Y062225D03*
D25*
X058549Y036725D03*
X058549Y036225D03*
X058549Y035725D03*
X058549Y035225D03*
X056501Y035225D03*
X056501Y035725D03*
X056501Y036225D03*
X056501Y036725D03*
X047674Y036725D03*
X047674Y036225D03*
X047674Y035725D03*
X047674Y035225D03*
X045626Y035225D03*
X045626Y035725D03*
X045626Y036225D03*
X045626Y036725D03*
D26*
X116675Y070475D02*
X116675Y071475D01*
X118675Y071475D02*
X118675Y070475D01*
X122875Y070475D02*
X122875Y071475D01*
X124875Y071475D02*
X124875Y070475D01*
X124875Y074475D02*
X124875Y075475D01*
X122875Y075475D02*
X122875Y074475D01*
X118675Y074475D02*
X118675Y075475D01*
X116675Y075475D02*
X116675Y074475D01*
D27*
X121650Y067350D03*
X121650Y061350D03*
X133650Y060475D03*
X133650Y066475D03*
X126275Y043600D03*
X125275Y043600D03*
X125275Y042600D03*
X097150Y045350D03*
X096150Y045350D03*
X096150Y046350D03*
X097150Y046350D03*
X096150Y047350D03*
X061525Y043725D03*
X061525Y042725D03*
X060525Y042725D03*
X059525Y042725D03*
X059525Y043725D03*
X060525Y043725D03*
X058525Y043725D03*
X058525Y042725D03*
X057400Y047975D03*
X057400Y048975D03*
X058400Y048975D03*
X058400Y049975D03*
X057400Y049975D03*
X046525Y068600D03*
X028025Y071100D03*
X023400Y068600D03*
X020650Y068600D03*
X020650Y062600D03*
X023400Y062600D03*
X023150Y053225D03*
X029150Y053225D03*
X022650Y044975D03*
X024025Y042225D03*
X024025Y040225D03*
X022650Y038975D03*
X022525Y037475D03*
X024025Y035475D03*
X024025Y033475D03*
X022525Y031475D03*
X022525Y030225D03*
X030025Y033475D03*
X030025Y035475D03*
X030025Y040225D03*
X030025Y042225D03*
X036650Y029600D03*
X036650Y028600D03*
X036650Y027600D03*
X036650Y026600D03*
X036650Y025600D03*
X037650Y025600D03*
X037650Y026600D03*
X037650Y027600D03*
X037650Y028600D03*
X037650Y029600D03*
X022525Y024225D03*
X062150Y024475D03*
X028025Y075100D03*
D28*
X040900Y066475D03*
X043900Y066475D03*
D29*
X038650Y065178D02*
X038650Y064272D01*
X037650Y064272D02*
X037650Y065178D01*
X036650Y065178D02*
X036650Y064272D01*
X031650Y064522D02*
X031650Y065428D01*
X030650Y065428D02*
X030650Y064522D01*
X029650Y064522D02*
X029650Y065428D01*
X051697Y067475D02*
X052603Y067475D01*
X052603Y068475D02*
X051697Y068475D01*
X051697Y069475D02*
X052603Y069475D01*
X019478Y042975D02*
X018572Y042975D01*
X018572Y041975D02*
X019478Y041975D01*
X019478Y040975D02*
X018572Y040975D01*
X018572Y035725D02*
X019478Y035725D01*
X019478Y034725D02*
X018572Y034725D01*
X018572Y033725D02*
X019478Y033725D01*
X019478Y028475D02*
X018572Y028475D01*
X018572Y027475D02*
X019478Y027475D01*
X019478Y026475D02*
X018572Y026475D01*
D30*
X045025Y037225D03*
X050025Y037225D03*
X038650Y043850D03*
X038400Y057775D03*
X034025Y061225D03*
X034025Y064225D03*
X030900Y068100D03*
X027900Y068100D03*
X028900Y060975D03*
X048025Y067100D03*
X048963Y069663D03*
X048775Y075175D03*
X059025Y072475D03*
X062025Y072475D03*
X102275Y058850D03*
X108150Y057975D03*
X108150Y056975D03*
X109400Y056975D03*
X109400Y057975D03*
X110650Y057975D03*
X110650Y056975D03*
X111900Y056975D03*
X111900Y057975D03*
X113150Y058038D03*
X113150Y056913D03*
X114400Y056913D03*
X114400Y058038D03*
X115650Y058038D03*
X115650Y056913D03*
X116900Y056975D03*
X116900Y057975D03*
X118150Y057975D03*
X118150Y056975D03*
X120400Y056975D03*
X120400Y057975D03*
X121650Y057975D03*
X121650Y056975D03*
X122900Y056975D03*
X122900Y057975D03*
X124150Y057975D03*
X124150Y056975D03*
X125400Y056913D03*
X125400Y058038D03*
X126650Y058038D03*
X126650Y056913D03*
X127900Y056913D03*
X127900Y058038D03*
X129150Y057975D03*
X129150Y056975D03*
X130400Y056913D03*
X130400Y058038D03*
X128463Y043350D03*
X127463Y043350D03*
X122900Y043350D03*
X121900Y043350D03*
X126775Y036600D03*
X127775Y036600D03*
X108150Y042975D03*
X106150Y042975D03*
X102275Y052850D03*
D31*
X054088Y077650D03*
X054088Y079550D03*
X048775Y073775D03*
X048963Y071663D03*
X049025Y067100D03*
X038400Y059175D03*
X028900Y059975D03*
X039650Y043850D03*
D32*
X029025Y044100D03*
X025025Y044100D03*
X025025Y037350D03*
X029025Y037350D03*
X029525Y030475D03*
X025525Y030475D03*
X057213Y029225D03*
X058150Y030100D03*
X058150Y027100D03*
X057213Y034475D03*
X092516Y047975D03*
X094025Y053725D03*
X096463Y053725D03*
X104588Y048975D03*
X104650Y047788D03*
X108650Y050850D03*
X109400Y051600D03*
X108400Y052725D03*
X109525Y053225D03*
X109275Y054975D03*
X109275Y055850D03*
X111025Y054475D03*
X111650Y052475D03*
X113275Y051475D03*
X113900Y052975D03*
X118150Y052225D03*
X119025Y051350D03*
X119025Y053663D03*
X118025Y054350D03*
X118650Y055850D03*
X121025Y056100D03*
X122275Y054350D03*
X123900Y052975D03*
X124900Y052225D03*
X125900Y051350D03*
X127400Y051475D03*
X126525Y052913D03*
X126900Y053975D03*
X125775Y053975D03*
X127650Y053100D03*
X129775Y053100D03*
X130900Y053975D03*
X124775Y058975D03*
X123463Y049100D03*
X122025Y049225D03*
X116525Y049225D03*
X113025Y043100D03*
X109525Y043100D03*
X105338Y040600D03*
X102275Y039850D03*
X097650Y040600D03*
X095025Y037850D03*
X094275Y036475D03*
X095025Y035038D03*
X106400Y036975D03*
X114775Y034600D03*
X114775Y032725D03*
X116025Y032225D03*
X115525Y029850D03*
X118025Y034600D03*
X122275Y032225D03*
X125588Y035725D03*
X128650Y029975D03*
X133025Y029975D03*
X096150Y043038D03*
X107150Y057600D03*
X105275Y058100D03*
X062775Y071475D03*
X055525Y071475D03*
X053892Y081933D03*
X053892Y082971D03*
X052845Y082971D03*
X052845Y081933D03*
X027525Y078225D03*
X027525Y076225D03*
D33*
X020391Y056850D02*
X019409Y056850D01*
X019409Y054850D02*
X020391Y054850D01*
X019900Y047591D02*
X019900Y046609D01*
X017900Y046609D02*
X017900Y047591D01*
X022150Y047591D02*
X022150Y046609D01*
X024150Y046609D02*
X024150Y047591D01*
X026400Y047591D02*
X026400Y046609D01*
X028400Y046609D02*
X028400Y047591D01*
X026650Y026091D02*
X026650Y025109D01*
X024650Y025109D02*
X024650Y026091D01*
X117409Y062225D02*
X118391Y062225D01*
X118391Y064225D02*
X117409Y064225D01*
X117409Y066225D02*
X118391Y066225D01*
X118391Y068225D02*
X117409Y068225D01*
D34*
X131158Y067975D02*
X132142Y067975D01*
X132142Y069975D02*
X131158Y069975D01*
X131158Y071975D02*
X132142Y071975D01*
X134158Y071975D02*
X135142Y071975D01*
X135142Y069975D02*
X134158Y069975D01*
X134158Y067975D02*
X135142Y067975D01*
X135142Y077975D02*
X134158Y077975D01*
X132142Y077975D02*
X131158Y077975D01*
D35*
X129958Y077975D02*
X129092Y077975D01*
X129092Y078975D02*
X129958Y078975D01*
X129775Y071408D02*
X129775Y070542D01*
X128775Y070542D02*
X128775Y071408D01*
X044458Y054100D02*
X043592Y054100D01*
X043592Y053100D02*
X044458Y053100D01*
X044458Y052100D02*
X043592Y052100D01*
X043592Y051100D02*
X044458Y051100D01*
D36*
X107065Y047330D03*
X107065Y045370D03*
X111985Y045370D03*
X113565Y045370D03*
X113565Y047330D03*
X111985Y047330D03*
X118485Y047330D03*
X120065Y047330D03*
X120065Y045370D03*
X118485Y045370D03*
X118485Y040830D03*
X118485Y038870D03*
X113565Y038870D03*
X111985Y038870D03*
X111985Y040830D03*
X113565Y040830D03*
X107065Y040830D03*
X107065Y038870D03*
X113565Y027830D03*
X113565Y025870D03*
X118485Y025870D03*
X120065Y025870D03*
X120065Y027830D03*
X118485Y027830D03*
X124985Y027830D03*
X126565Y027830D03*
X126565Y025870D03*
X124985Y025870D03*
X131485Y025870D03*
X131485Y027830D03*
X131485Y045370D03*
X131485Y047330D03*
X126565Y047330D03*
X124985Y047330D03*
X124985Y045370D03*
X126565Y045370D03*
D37*
X129025Y044580D03*
X130277Y041102D03*
X127773Y038598D03*
X123777Y038598D03*
X121273Y041102D03*
X122525Y044580D03*
X122525Y048120D03*
X116025Y048120D03*
X116025Y044580D03*
X116025Y041620D03*
X116025Y038080D03*
X109525Y038080D03*
X109525Y041620D03*
X109525Y044580D03*
X109525Y048120D03*
X129025Y048120D03*
X127773Y034602D03*
X130277Y032098D03*
X129025Y028620D03*
X129025Y025080D03*
X122525Y025080D03*
X122525Y028620D03*
X116025Y028620D03*
X116025Y025080D03*
D38*
G36*
X125843Y032303D02*
X126593Y033053D01*
X127343Y032303D01*
X126593Y031553D01*
X125843Y032303D01*
G37*
G36*
X127228Y030918D02*
X127978Y031668D01*
X128728Y030918D01*
X127978Y030168D01*
X127228Y030918D01*
G37*
G36*
X130707Y034397D02*
X131457Y035147D01*
X132207Y034397D01*
X131457Y033647D01*
X130707Y034397D01*
G37*
G36*
X129322Y035782D02*
X130072Y036532D01*
X130822Y035782D01*
X130072Y035032D01*
X129322Y035782D01*
G37*
G36*
X130072Y036668D02*
X129322Y037418D01*
X130072Y038168D01*
X130822Y037418D01*
X130072Y036668D01*
G37*
G36*
X131457Y038053D02*
X130707Y038803D01*
X131457Y039553D01*
X132207Y038803D01*
X131457Y038053D01*
G37*
G36*
X126593Y040147D02*
X125843Y040897D01*
X126593Y041647D01*
X127343Y040897D01*
X126593Y040147D01*
G37*
G36*
X125707Y040897D02*
X124957Y040147D01*
X124207Y040897D01*
X124957Y041647D01*
X125707Y040897D01*
G37*
G36*
X124322Y042282D02*
X123572Y041532D01*
X122822Y042282D01*
X123572Y043032D01*
X124322Y042282D01*
G37*
G36*
X127978Y041532D02*
X127228Y042282D01*
X127978Y043032D01*
X128728Y042282D01*
X127978Y041532D01*
G37*
G36*
X122228Y037418D02*
X121478Y036668D01*
X120728Y037418D01*
X121478Y038168D01*
X122228Y037418D01*
G37*
G36*
X120843Y038803D02*
X120093Y038053D01*
X119343Y038803D01*
X120093Y039553D01*
X120843Y038803D01*
G37*
D39*
X117319Y043100D03*
X115981Y043100D03*
X106319Y046413D03*
X104981Y046413D03*
X123216Y030910D03*
X124554Y030910D03*
X115944Y027725D03*
X115944Y026725D03*
X114606Y026725D03*
X114606Y027725D03*
G36*
X113818Y029001D02*
X113372Y029447D01*
X113928Y030003D01*
X114374Y029557D01*
X113818Y029001D01*
G37*
G36*
X112872Y029947D02*
X112426Y030393D01*
X112982Y030949D01*
X113428Y030503D01*
X112872Y029947D01*
G37*
X130481Y050225D03*
X131819Y050225D03*
X062069Y053975D03*
X060731Y053975D03*
X048444Y034475D03*
X048444Y033663D03*
X047106Y033663D03*
X047106Y034475D03*
X047043Y030225D03*
X048382Y030225D03*
X054731Y028100D03*
X056069Y028100D03*
X059856Y028225D03*
X061194Y028225D03*
X057944Y032725D03*
X057944Y033600D03*
X056606Y033600D03*
X056606Y032725D03*
X051944Y081975D03*
X050606Y081975D03*
D40*
X056650Y072269D03*
X056650Y070931D03*
X115025Y039519D03*
X115025Y038181D03*
X119525Y048306D03*
X119525Y049644D03*
X132400Y038269D03*
X132400Y036931D03*
D41*
X117399Y049996D03*
X115901Y053704D03*
X031150Y055975D03*
X029400Y056975D03*
X031150Y059975D03*
X025400Y056975D03*
X022150Y053225D03*
X018150Y053225D03*
D42*
X043569Y049100D02*
X044481Y049100D01*
X044481Y048100D02*
X043569Y048100D01*
X043569Y047100D02*
X044481Y047100D01*
X045319Y071100D02*
X046231Y071100D01*
X046231Y072100D02*
X045319Y072100D01*
X045319Y073100D02*
X046231Y073100D01*
X046231Y078100D02*
X045319Y078100D01*
X045319Y079100D02*
X046231Y079100D01*
X046231Y080100D02*
X045319Y080100D01*
D43*
X026525Y059941D02*
X026525Y058759D01*
X023585Y058759D02*
X023585Y059941D01*
X020635Y059941D02*
X020635Y058759D01*
X017685Y058759D02*
X017685Y059941D01*
D44*
X061599Y027100D03*
X062701Y027100D03*
D45*
X020675Y027475D03*
X020675Y034725D03*
X020675Y041975D03*
X030650Y063075D03*
X037650Y063075D03*
D46*
X044843Y074600D03*
X044843Y075850D03*
X046457Y075850D03*
X046457Y074600D03*
D47*
X058400Y047975D03*
X097150Y047350D03*
X126275Y042600D03*
D48*
X109525Y033350D03*
D49*
X098275Y041885D03*
X098275Y043065D03*
X095025Y040065D03*
X093900Y040065D03*
X093900Y038885D03*
X095025Y038885D03*
X094775Y033190D03*
X094775Y032010D03*
X112525Y051635D03*
X112525Y052815D03*
X112525Y059010D03*
X112525Y060190D03*
X073025Y074760D03*
X073025Y075940D03*
X058900Y078260D03*
X058900Y079440D03*
X059150Y027690D03*
X059150Y026510D03*
D50*
X054150Y030300D03*
X054150Y030900D03*
X050463Y030775D03*
X050463Y030175D03*
X100775Y043800D03*
X100775Y044400D03*
X101025Y046300D03*
X101025Y046900D03*
X103838Y043650D03*
X103838Y043050D03*
D51*
X103838Y043350D03*
X100775Y044100D03*
X101025Y046600D03*
X054150Y030600D03*
X050463Y030475D03*
D52*
X099525Y044475D03*
X099525Y045475D03*
D53*
X102189Y050100D03*
X094709Y050100D03*
D54*
X098449Y050100D03*
X024275Y074225D03*
X019525Y074225D03*
D55*
X094838Y020826D03*
X129877Y020826D03*
X129877Y081850D03*
D56*
X128525Y075288D03*
X117713Y077600D03*
D57*
X055770Y083975D03*
X051030Y083975D03*
X025025Y068600D03*
X018775Y068600D03*
X018775Y062350D03*
X025025Y062350D03*
X019025Y049600D03*
X030025Y047100D03*
X020650Y038350D03*
X024400Y027600D03*
D58*
X058733Y073225D03*
X058733Y073725D03*
X058733Y074225D03*
X058733Y074725D03*
X058733Y075225D03*
X058733Y075725D03*
X058733Y076225D03*
X058733Y076725D03*
X058733Y077225D03*
X058733Y077725D03*
X062693Y077725D03*
X062693Y077225D03*
X062693Y076725D03*
X062693Y076225D03*
X062693Y075725D03*
X062693Y075225D03*
X062693Y074725D03*
X062693Y074225D03*
X062693Y073725D03*
X062693Y073225D03*
D59*
X057274Y074725D03*
X057274Y075225D03*
X057274Y075725D03*
X057274Y076225D03*
X057274Y076725D03*
X057274Y077225D03*
X057274Y077725D03*
X057274Y078225D03*
X055151Y078225D03*
X055151Y077725D03*
X055151Y077225D03*
X055151Y076725D03*
X055151Y076225D03*
X055151Y075725D03*
X055151Y075225D03*
X055151Y074725D03*
D60*
X054895Y081163D03*
X054155Y081163D03*
X054780Y082788D03*
X055520Y082788D03*
D61*
X063025Y069908D03*
X063399Y069042D03*
X062651Y069042D03*
D62*
X053650Y072635D03*
X053650Y073815D03*
X057935Y060100D03*
X059115Y060100D03*
X059560Y049975D03*
X060740Y049975D03*
D63*
X060150Y026526D03*
X060150Y025424D03*
D64*
X054325Y026725D03*
X053725Y026725D03*
X051200Y025975D03*
X050600Y025975D03*
X051475Y022850D03*
X052075Y022850D03*
X045700Y026975D03*
X045100Y026975D03*
X047225Y029413D03*
X047825Y029413D03*
X040825Y025975D03*
X040225Y025975D03*
X042975Y022975D03*
X043575Y022975D03*
X055100Y029100D03*
X055700Y029100D03*
D65*
X055400Y029100D03*
X054025Y026725D03*
X050900Y025975D03*
X051775Y022850D03*
X045400Y026975D03*
X047525Y029413D03*
X040525Y025975D03*
X043275Y022975D03*
D66*
X042525Y026294D03*
X042525Y027906D03*
X052400Y027906D03*
X052400Y026294D03*
D67*
X051980Y025225D03*
X051980Y024725D03*
X051980Y024225D03*
X051980Y023725D03*
X049820Y023725D03*
X049820Y024225D03*
X049820Y024725D03*
X049820Y025225D03*
X041605Y025225D03*
X041605Y024725D03*
X041605Y024225D03*
X041605Y023725D03*
X039445Y023725D03*
X039445Y024225D03*
X039445Y024725D03*
X039445Y025225D03*
D68*
X044916Y025225D03*
X055916Y025225D03*
D69*
X058790Y024327D03*
X058790Y026123D03*
X047790Y026123D03*
X047790Y024327D03*
D70*
X046475Y022528D02*
X045695Y021749D01*
X046667Y020753D02*
X047447Y021532D01*
X049102Y021532D02*
X049881Y020753D01*
X050881Y021745D02*
X050102Y022524D01*
X052456Y021697D02*
X052456Y020595D01*
X054039Y021749D02*
X054818Y022528D01*
X055791Y021532D02*
X055011Y020753D01*
X044112Y020595D02*
X044112Y021697D01*
X042538Y021745D02*
X041758Y022524D01*
X040758Y021532D02*
X041538Y020753D01*
D71*
X042148Y017212D03*
X043132Y017212D03*
X045104Y017212D03*
X046088Y017212D03*
X050492Y017212D03*
X051476Y017212D03*
X053447Y017212D03*
X054432Y017212D03*
D72*
X043487Y071325D03*
X043487Y072900D03*
X043487Y074869D03*
X043487Y076444D03*
X043487Y078412D03*
X043487Y079987D03*
X029313Y077625D03*
X029313Y071325D03*
D73*
X043880Y068963D03*
D74*
X028338Y051475D03*
D75*
X044900Y043850D03*
X047275Y043225D03*
X048775Y044350D03*
X050275Y045600D03*
X051900Y045100D03*
X052900Y045850D03*
X053900Y046725D03*
X054775Y047475D03*
X055650Y046850D03*
X053400Y044350D03*
X054525Y043225D03*
X052775Y041850D03*
X051775Y042475D03*
X057400Y043850D03*
X058525Y041850D03*
X050775Y047850D03*
X055650Y049725D03*
X056525Y050350D03*
X059400Y048850D03*
X062400Y048850D03*
X062900Y051975D03*
X062900Y056975D03*
X057150Y057725D03*
X056275Y058475D03*
X056275Y060600D03*
X056275Y062100D03*
X054650Y061350D03*
X054025Y058475D03*
X052150Y057725D03*
X050775Y057225D03*
X050275Y058475D03*
X048525Y058475D03*
X047400Y060100D03*
X051900Y055850D03*
X052900Y054350D03*
X053900Y055225D03*
X054775Y053975D03*
X056525Y053850D03*
X050275Y053600D03*
X048525Y054850D03*
X047400Y054975D03*
X059400Y061350D03*
X063525Y062100D03*
X062650Y064975D03*
X061650Y065850D03*
X058525Y065850D03*
X055525Y064975D03*
X050525Y066475D03*
X056150Y069850D03*
X058525Y069850D03*
X055275Y073975D03*
X050525Y073475D03*
X057150Y078850D03*
X063775Y075475D03*
X063775Y073975D03*
X044900Y042475D03*
X044150Y037225D03*
X040900Y037225D03*
D76*
X046088Y034413D03*
X046088Y030225D03*
X046088Y029225D03*
X046463Y027850D03*
X050963Y027850D03*
X041025Y027975D03*
X039025Y029975D03*
D77*
X117400Y052975D03*
D78*
X092650Y060725D03*
X116650Y080975D03*
X131150Y083225D03*
X135150Y079225D03*
X135150Y023475D03*
X131150Y019475D03*
X093650Y019475D03*
X092650Y023475D03*
M02*
