G75*
G70*
%OFA0B0*%
%FSLAX24Y24*%
%IPPOS*%
%LPD*%
%AMOC8*
5,1,8,0,0,1.08239X$1,22.5*
%
%ADD10C,0.0060*%
%ADD11C,0.0051*%
%ADD12C,0.0110*%
%ADD13C,0.0150*%
%ADD14C,0.0827*%
%ADD15C,0.0832*%
%ADD16OC8,0.1000*%
%ADD17C,0.1000*%
%ADD18C,0.1000*%
%ADD19OC8,0.0912*%
%ADD20OC8,0.0872*%
%ADD21C,0.0906*%
%ADD22OC8,0.0832*%
%ADD23C,0.0832*%
%ADD24C,0.0906*%
%ADD25C,0.0982*%
%ADD26C,0.0984*%
%ADD27C,0.0866*%
%ADD28R,0.0551X0.0709*%
%ADD29C,0.0100*%
%ADD30R,0.0982X0.0982*%
%ADD31R,0.0982X0.0982*%
%ADD32C,0.0952*%
%ADD33C,0.0912*%
%ADD34C,0.1181*%
%ADD35C,0.1222*%
%ADD36C,0.0912*%
%ADD37R,0.0832X0.0832*%
%ADD38C,0.1575*%
%ADD39C,0.1181*%
%ADD40R,0.0472X0.0709*%
%ADD41C,0.1102*%
%ADD42R,0.1102X0.1102*%
%ADD43R,0.1000X0.1000*%
%ADD44R,0.1575X0.1575*%
%ADD45C,0.1969*%
%ADD46C,0.0984*%
%ADD47C,0.0160*%
%ADD48C,0.0910*%
%ADD49C,0.0500*%
%ADD50C,0.0240*%
%ADD51C,0.0860*%
%ADD52C,0.0120*%
%ADD53OC8,0.0827*%
%ADD54C,0.0320*%
%ADD55R,0.1500X0.1500*%
D10*
X052555Y040380D02*
X052875Y040380D01*
X052982Y040487D01*
X052875Y040594D01*
X052662Y040594D01*
X052555Y040700D01*
X052662Y040807D01*
X052982Y040807D01*
X053200Y040914D02*
X053306Y041021D01*
X053520Y041021D01*
X053627Y040914D01*
X053627Y040807D01*
X053200Y040380D01*
X053627Y040380D01*
X050502Y041505D02*
X050075Y041505D01*
X050288Y041505D02*
X050288Y042146D01*
X050075Y041932D01*
X049857Y041932D02*
X049537Y041932D01*
X049430Y041825D01*
X049537Y041719D01*
X049750Y041719D01*
X049857Y041612D01*
X049750Y041505D01*
X049430Y041505D01*
X044019Y042325D02*
X043805Y042325D01*
X043912Y042539D02*
X044019Y042646D01*
X043912Y042539D02*
X043912Y042005D01*
X060680Y041932D02*
X060680Y041291D01*
X060680Y041505D02*
X061000Y041505D01*
X061107Y041612D01*
X061107Y041825D01*
X061000Y041932D01*
X060680Y041932D01*
X061325Y041932D02*
X061325Y041505D01*
X061325Y041719D02*
X061538Y041932D01*
X061645Y041932D01*
X108555Y040271D02*
X108555Y039630D01*
X108555Y039950D02*
X108769Y039950D01*
X108555Y040271D02*
X108982Y040271D01*
X109306Y040057D02*
X109520Y040057D01*
X109627Y039950D01*
X109627Y039630D01*
X109306Y039630D01*
X109200Y039737D01*
X109306Y039844D01*
X109627Y039844D01*
X109844Y040057D02*
X110164Y040057D01*
X110271Y039950D01*
X110271Y039630D01*
X109844Y039630D02*
X109844Y040057D01*
X114555Y040057D02*
X114662Y039950D01*
X114875Y039950D01*
X114982Y039844D01*
X114982Y039737D01*
X114875Y039630D01*
X114662Y039630D01*
X114555Y039737D01*
X114555Y040057D02*
X114555Y040164D01*
X114662Y040271D01*
X114875Y040271D01*
X114982Y040164D01*
X115200Y040057D02*
X115520Y040057D01*
X115627Y039950D01*
X115627Y039737D01*
X115520Y039630D01*
X115200Y039630D01*
X115200Y039416D02*
X115200Y040057D01*
X115844Y039950D02*
X115951Y040057D01*
X116164Y040057D01*
X116271Y039950D01*
X116271Y039844D01*
X115844Y039844D01*
X115844Y039950D02*
X115844Y039737D01*
X115951Y039630D01*
X116164Y039630D01*
X116489Y039737D02*
X116489Y039950D01*
X116595Y040057D01*
X116809Y040057D01*
X116916Y039950D01*
X116916Y039844D01*
X116489Y039844D01*
X116489Y039737D02*
X116595Y039630D01*
X116809Y039630D01*
X117133Y039737D02*
X117240Y039630D01*
X117560Y039630D01*
X117560Y040271D01*
X117560Y040057D02*
X117240Y040057D01*
X117133Y039950D01*
X117133Y039737D01*
X121180Y039818D02*
X121180Y040458D01*
X121500Y040458D01*
X121607Y040351D01*
X121607Y040138D01*
X121500Y040031D01*
X121180Y040031D01*
X121825Y040031D02*
X122038Y040245D01*
X122145Y040245D01*
X122362Y040138D02*
X122468Y040245D01*
X122682Y040245D01*
X122789Y040138D01*
X122789Y040031D01*
X122362Y040031D01*
X122362Y039924D02*
X122362Y040138D01*
X122362Y039924D02*
X122468Y039818D01*
X122682Y039818D01*
X123006Y039818D02*
X123006Y040458D01*
X123113Y040245D02*
X123326Y040245D01*
X123433Y040138D01*
X123433Y039818D01*
X123006Y040138D02*
X123113Y040245D01*
X121825Y040245D02*
X121825Y039818D01*
X127493Y040049D02*
X127599Y039943D01*
X127813Y039943D01*
X127920Y040049D01*
X127920Y040156D01*
X127813Y040263D01*
X127599Y040263D01*
X127493Y040370D01*
X127493Y040476D01*
X127599Y040583D01*
X127813Y040583D01*
X127920Y040476D01*
X128137Y040370D02*
X128457Y040370D01*
X128564Y040263D01*
X128564Y040049D01*
X128457Y039943D01*
X128137Y039943D01*
X128137Y039729D02*
X128137Y040370D01*
X128368Y039771D02*
X128368Y039130D01*
X128795Y039130D01*
X129012Y039130D02*
X129439Y039557D01*
X129657Y039557D02*
X129870Y039557D01*
X129763Y039664D02*
X129763Y039237D01*
X129870Y039130D01*
X129439Y039130D02*
X129012Y039557D01*
X128795Y039771D02*
X128368Y039771D01*
X128368Y039450D02*
X128581Y039450D01*
X128888Y039943D02*
X128782Y040049D01*
X128782Y040263D01*
X128888Y040370D01*
X129102Y040370D01*
X129209Y040263D01*
X129209Y040156D01*
X128782Y040156D01*
X128888Y039943D02*
X129102Y039943D01*
X129426Y040049D02*
X129426Y040263D01*
X129533Y040370D01*
X129746Y040370D01*
X129853Y040263D01*
X129853Y040156D01*
X129426Y040156D01*
X129426Y040049D02*
X129533Y039943D01*
X129746Y039943D01*
X130071Y040049D02*
X130071Y040263D01*
X130177Y040370D01*
X130498Y040370D01*
X130498Y040583D02*
X130498Y039943D01*
X130177Y039943D01*
X130071Y040049D01*
X129019Y045987D02*
X129019Y046414D01*
X129232Y046200D02*
X128805Y046200D01*
X122857Y046325D02*
X122430Y046325D01*
X116232Y046325D02*
X115805Y046325D01*
X116019Y046112D02*
X116019Y046539D01*
X109732Y046325D02*
X109305Y046325D01*
X127180Y033539D02*
X127287Y033646D01*
X127500Y033646D01*
X127607Y033539D01*
X127500Y033325D02*
X127607Y033219D01*
X127607Y033112D01*
X127500Y033005D01*
X127287Y033005D01*
X127180Y033112D01*
X127287Y033325D02*
X127500Y033325D01*
X127287Y033325D02*
X127180Y033432D01*
X127180Y033539D01*
X127825Y033325D02*
X127825Y033112D01*
X127931Y033005D01*
X128145Y033005D01*
X128252Y033112D01*
X128252Y033325D01*
X128145Y033432D01*
X127931Y033432D01*
X127825Y033325D01*
X128469Y033005D02*
X128683Y033005D01*
X128576Y033005D02*
X128576Y033646D01*
X128469Y033646D01*
X128899Y033325D02*
X129006Y033432D01*
X129326Y033432D01*
X129326Y033646D02*
X129326Y033005D01*
X129006Y033005D01*
X128899Y033112D01*
X128899Y033325D01*
X129543Y033325D02*
X129650Y033432D01*
X129864Y033432D01*
X129970Y033325D01*
X129970Y033219D01*
X129543Y033219D01*
X129543Y033325D02*
X129543Y033112D01*
X129650Y033005D01*
X129864Y033005D01*
X130188Y033005D02*
X130188Y033432D01*
X130401Y033432D02*
X130508Y033432D01*
X130401Y033432D02*
X130188Y033219D01*
X130725Y033005D02*
X131152Y033432D01*
X131152Y033539D01*
X131045Y033646D01*
X130832Y033646D01*
X130725Y033539D01*
X130725Y033005D02*
X131152Y033005D01*
X129701Y027271D02*
X129701Y026630D01*
X129381Y026630D01*
X129274Y026737D01*
X129274Y026950D01*
X129381Y027057D01*
X129701Y027057D01*
X129918Y026950D02*
X130025Y027057D01*
X130239Y027057D01*
X130345Y026950D01*
X130345Y026844D01*
X129918Y026844D01*
X129918Y026950D02*
X129918Y026737D01*
X130025Y026630D01*
X130239Y026630D01*
X130563Y026630D02*
X130563Y027057D01*
X130563Y026844D02*
X130776Y027057D01*
X130883Y027057D01*
X129058Y026630D02*
X128844Y026630D01*
X128951Y026630D02*
X128951Y027271D01*
X128844Y027271D01*
X128627Y026950D02*
X128520Y027057D01*
X128306Y027057D01*
X128200Y026950D01*
X128200Y026737D01*
X128306Y026630D01*
X128520Y026630D01*
X128627Y026737D01*
X128627Y026950D01*
X127982Y026844D02*
X127982Y026737D01*
X127875Y026630D01*
X127662Y026630D01*
X127555Y026737D01*
X127662Y026950D02*
X127875Y026950D01*
X127982Y026844D01*
X127982Y027164D02*
X127875Y027271D01*
X127662Y027271D01*
X127555Y027164D01*
X127555Y027057D01*
X127662Y026950D01*
X122732Y026825D02*
X122305Y026825D01*
X122519Y026612D02*
X122519Y027039D01*
X116232Y026825D02*
X115805Y026825D01*
D11*
X071062Y015350D02*
X068275Y015350D01*
X070275Y015350D02*
X070377Y016374D01*
X070401Y016374D02*
X070275Y015350D01*
X070173Y016374D01*
X070149Y016374D02*
X070401Y016374D01*
X070326Y016374D02*
X070275Y015350D01*
X070224Y016374D01*
X070149Y016374D02*
X070275Y015350D01*
X070275Y086600D01*
X070377Y085576D01*
X070401Y085576D02*
X070275Y086600D01*
X070173Y085576D01*
X070149Y085576D02*
X070401Y085576D01*
X070326Y085576D02*
X070275Y086600D01*
X070224Y085576D01*
X070149Y085576D02*
X070275Y086600D01*
X071062Y086600D02*
X063963Y086600D01*
X062437Y086725D02*
X060400Y086725D01*
X061650Y086725D02*
X061752Y085701D01*
X061776Y085701D02*
X061650Y086725D01*
X061548Y085701D01*
X061524Y085701D02*
X061776Y085701D01*
X061701Y085701D02*
X061650Y086725D01*
X061599Y085701D01*
X061524Y085701D02*
X061650Y086725D01*
X061650Y084678D01*
X065025Y082600D02*
X065025Y093512D01*
X065025Y092725D02*
X064001Y092623D01*
X064001Y092599D02*
X065025Y092725D01*
X064001Y092827D01*
X064001Y092851D02*
X064001Y092599D01*
X064001Y092674D02*
X065025Y092725D01*
X064001Y092776D01*
X064001Y092851D02*
X065025Y092725D01*
X016650Y092725D01*
X017674Y092623D01*
X017674Y092599D02*
X016650Y092725D01*
X017674Y092827D01*
X017674Y092851D02*
X017674Y092599D01*
X017674Y092674D02*
X016650Y092725D01*
X017674Y092776D01*
X017674Y092851D02*
X016650Y092725D01*
X016650Y093512D02*
X016650Y082975D01*
X012276Y085701D02*
X012150Y086725D01*
X012252Y085701D01*
X012276Y085701D02*
X012024Y085701D01*
X012150Y086725D01*
X012048Y085701D01*
X012099Y085701D02*
X012150Y086725D01*
X012201Y085701D01*
X012150Y086725D02*
X012150Y076725D01*
X012252Y077749D01*
X012276Y077749D02*
X012150Y076725D01*
X012048Y077749D01*
X012024Y077749D02*
X012276Y077749D01*
X012201Y077749D02*
X012150Y076725D01*
X012099Y077749D01*
X012024Y077749D02*
X012150Y076725D01*
X012275Y076725D02*
X011363Y076725D01*
X011363Y086725D02*
X016650Y086725D01*
X049150Y087850D02*
X072437Y087850D01*
X071650Y087850D02*
X071548Y088874D01*
X071524Y088874D02*
X071776Y088874D01*
X071650Y087850D01*
X071752Y088874D01*
X071701Y088874D02*
X071650Y087850D01*
X071599Y088874D01*
X071524Y088874D02*
X071650Y087850D01*
X071650Y093807D01*
X061650Y092836D02*
X061650Y087975D01*
X061752Y088999D01*
X061776Y088999D02*
X061650Y087975D01*
X061548Y088999D01*
X061524Y088999D02*
X061776Y088999D01*
X061701Y088999D02*
X061650Y087975D01*
X061599Y088999D01*
X061524Y088999D02*
X061650Y087975D01*
X062437Y087975D02*
X056400Y087975D01*
X050025Y081850D02*
X072437Y081850D01*
X071650Y081850D02*
X071548Y080826D01*
X071524Y080826D02*
X071776Y080826D01*
X071650Y081850D01*
X071752Y080826D01*
X071701Y080826D02*
X071650Y081850D01*
X071599Y080826D01*
X071524Y080826D02*
X071650Y081850D01*
X071650Y079803D01*
X021025Y056850D02*
X014113Y056850D01*
X014900Y056850D02*
X015002Y057874D01*
X015026Y057874D02*
X014900Y056850D01*
X014798Y057874D01*
X014774Y057874D02*
X015026Y057874D01*
X014951Y057874D02*
X014900Y056850D01*
X014849Y057874D01*
X014774Y057874D02*
X014900Y056850D01*
X014900Y061711D01*
X014900Y054850D02*
X015002Y053826D01*
X015026Y053826D02*
X014900Y054850D01*
X014798Y053826D01*
X014774Y053826D02*
X015026Y053826D01*
X014951Y053826D02*
X014900Y054850D01*
X014849Y053826D01*
X014774Y053826D02*
X014900Y054850D01*
X014900Y052803D01*
X014113Y054850D02*
X021650Y054850D01*
X014650Y044086D02*
X014650Y039225D01*
X014752Y040249D01*
X014776Y040249D02*
X014650Y039225D01*
X014548Y040249D01*
X014524Y040249D02*
X014776Y040249D01*
X014701Y040249D02*
X014650Y039225D01*
X014599Y040249D01*
X014524Y040249D02*
X014650Y039225D01*
X013863Y039225D02*
X019525Y039225D01*
X019150Y037475D02*
X013863Y037475D01*
X014650Y037475D02*
X014752Y036451D01*
X014776Y036451D02*
X014650Y037475D01*
X014548Y036451D01*
X014524Y036451D02*
X014776Y036451D01*
X014701Y036451D02*
X014650Y037475D01*
X014599Y036451D01*
X014524Y036451D02*
X014650Y037475D01*
X014650Y035428D01*
X012400Y036836D02*
X012400Y031975D01*
X012502Y032999D01*
X012526Y032999D02*
X012400Y031975D01*
X012298Y032999D01*
X012274Y032999D02*
X012526Y032999D01*
X012451Y032999D02*
X012400Y031975D01*
X012349Y032999D01*
X012274Y032999D02*
X012400Y031975D01*
X011613Y031975D02*
X020650Y031975D01*
X020275Y030225D02*
X011613Y030225D01*
X012400Y030225D02*
X012502Y029201D01*
X012526Y029201D02*
X012400Y030225D01*
X012298Y029201D01*
X012274Y029201D02*
X012526Y029201D01*
X012451Y029201D02*
X012400Y030225D01*
X012349Y029201D01*
X012274Y029201D02*
X012400Y030225D01*
X012400Y028178D01*
X011900Y027432D02*
X011900Y021475D01*
X012002Y022499D01*
X012026Y022499D02*
X011900Y021475D01*
X011798Y022499D01*
X011774Y022499D02*
X012026Y022499D01*
X011951Y022499D02*
X011900Y021475D01*
X011849Y022499D01*
X011774Y022499D02*
X011900Y021475D01*
X011113Y021475D02*
X018775Y021475D01*
X022572Y016350D02*
X024619Y016350D01*
X023595Y016248D01*
X023595Y016224D02*
X024619Y016350D01*
X023595Y016452D01*
X023595Y016476D02*
X023595Y016224D01*
X023595Y016299D02*
X024619Y016350D01*
X023595Y016401D01*
X023595Y016476D02*
X024619Y016350D01*
X024619Y015563D02*
X024619Y026756D01*
X026650Y026788D02*
X026650Y015563D01*
X026650Y016350D02*
X027674Y016248D01*
X027674Y016224D02*
X026650Y016350D01*
X027674Y016452D01*
X027674Y016476D02*
X027674Y016224D01*
X027674Y016299D02*
X026650Y016350D01*
X027674Y016401D01*
X027674Y016476D02*
X026650Y016350D01*
X031511Y016350D01*
X021650Y011600D02*
X021650Y006438D01*
X021650Y007225D02*
X022674Y007123D01*
X022674Y007099D02*
X021650Y007225D01*
X022674Y007327D01*
X022674Y007351D02*
X022674Y007099D01*
X022674Y007174D02*
X021650Y007225D01*
X022674Y007276D01*
X022674Y007351D02*
X021650Y007225D01*
X059900Y007225D01*
X058876Y007123D01*
X058876Y007099D02*
X059900Y007225D01*
X058876Y007327D01*
X058876Y007351D02*
X058876Y007099D01*
X058876Y007174D02*
X059900Y007225D01*
X058876Y007276D01*
X058876Y007351D02*
X059900Y007225D01*
X059900Y006438D02*
X059900Y013725D01*
X054482Y011975D02*
X048525Y011975D01*
X049549Y011873D01*
X049549Y011849D02*
X048525Y011975D01*
X049549Y012077D01*
X049549Y012101D02*
X049549Y011849D01*
X049549Y011924D02*
X048525Y011975D01*
X049549Y012026D01*
X049549Y012101D02*
X048525Y011975D01*
X048525Y011188D02*
X048525Y014538D01*
X043744Y014381D02*
X043744Y011188D01*
X043744Y011975D02*
X042720Y011873D01*
X042720Y011849D02*
X043744Y011975D01*
X042720Y012077D01*
X042720Y012101D02*
X042720Y011849D01*
X042720Y011924D02*
X043744Y011975D01*
X042720Y012026D01*
X042720Y012101D02*
X043744Y011975D01*
X041697Y011975D01*
X013775Y015475D02*
X011113Y015475D01*
X011900Y015475D02*
X012002Y014451D01*
X012026Y014451D02*
X011900Y015475D01*
X011798Y014451D01*
X011774Y014451D02*
X012026Y014451D01*
X011951Y014451D02*
X011900Y015475D01*
X011849Y014451D01*
X011774Y014451D02*
X011900Y015475D01*
X011900Y013428D01*
D12*
X011451Y022554D02*
X011451Y023400D01*
X011451Y022977D02*
X010182Y022977D01*
X010605Y022554D01*
X010817Y023822D02*
X010605Y024245D01*
X010605Y024457D01*
X010817Y024668D01*
X011240Y024668D01*
X011451Y024457D01*
X011451Y024034D01*
X011240Y023822D01*
X010817Y023822D02*
X010182Y023822D01*
X010182Y024668D01*
X010394Y025726D02*
X010182Y025937D01*
X010182Y026360D01*
X010394Y026572D01*
X010605Y026572D01*
X011451Y025726D01*
X011451Y026572D01*
X010817Y026994D02*
X010817Y027840D01*
X011451Y027629D02*
X010182Y027629D01*
X010817Y026994D01*
X011240Y025303D02*
X011451Y025303D01*
X011451Y025091D01*
X011240Y025091D01*
X011240Y025303D01*
X011317Y033054D02*
X011317Y033900D01*
X011740Y034322D02*
X011740Y034534D01*
X011951Y034534D01*
X011951Y034322D01*
X011740Y034322D01*
X011951Y033688D02*
X010682Y033688D01*
X011317Y033054D01*
X011317Y034957D02*
X010682Y035591D01*
X011951Y035591D01*
X011317Y035803D02*
X011317Y034957D01*
X011317Y036226D02*
X011105Y036649D01*
X011105Y036860D01*
X011317Y037072D01*
X011740Y037072D01*
X011951Y036860D01*
X011951Y036437D01*
X011740Y036226D01*
X011317Y036226D02*
X010682Y036226D01*
X010682Y037072D01*
X013567Y040304D02*
X013567Y041150D01*
X013990Y041572D02*
X013990Y041784D01*
X014201Y041784D01*
X014201Y041572D01*
X013990Y041572D01*
X014201Y040938D02*
X012932Y040938D01*
X013567Y040304D01*
X013567Y042207D02*
X013567Y043053D01*
X013567Y043476D02*
X013355Y043899D01*
X013355Y044110D01*
X013567Y044322D01*
X013990Y044322D01*
X014201Y044110D01*
X014201Y043687D01*
X013990Y043476D01*
X013567Y043476D02*
X012932Y043476D01*
X012932Y044322D01*
X012932Y042841D02*
X013567Y042207D01*
X014201Y042841D02*
X012932Y042841D01*
X013182Y057929D02*
X013817Y057929D01*
X013605Y058352D01*
X013605Y058563D01*
X013817Y058775D01*
X014240Y058775D01*
X014451Y058563D01*
X014451Y058140D01*
X014240Y057929D01*
X013182Y057929D02*
X013182Y058775D01*
X013394Y059832D02*
X013182Y060043D01*
X013182Y060466D01*
X013394Y060678D01*
X014240Y059832D01*
X014451Y060043D01*
X014451Y060466D01*
X014240Y060678D01*
X013394Y060678D01*
X013394Y061101D02*
X013605Y061101D01*
X013817Y061312D01*
X013817Y061735D01*
X014028Y061947D01*
X014240Y061947D01*
X014451Y061735D01*
X014451Y061312D01*
X014240Y061101D01*
X014028Y061101D01*
X013817Y061312D01*
X013817Y061735D02*
X013605Y061947D01*
X013394Y061947D01*
X013182Y061735D01*
X013182Y061312D01*
X013394Y061101D01*
X013394Y059832D02*
X014240Y059832D01*
X014240Y059409D02*
X014451Y059409D01*
X014451Y059197D01*
X014240Y059197D01*
X014240Y059409D01*
X011701Y079861D02*
X010855Y080707D01*
X010644Y080707D01*
X010432Y080496D01*
X010432Y080073D01*
X010644Y079861D01*
X011701Y079861D02*
X011701Y080707D01*
X011490Y081130D02*
X011701Y081342D01*
X011701Y081765D01*
X011490Y081976D01*
X011067Y081976D01*
X010855Y081765D01*
X010855Y081553D01*
X011067Y081130D01*
X010432Y081130D01*
X010432Y081976D01*
X011490Y082399D02*
X011490Y082610D01*
X011701Y082610D01*
X011701Y082399D01*
X011490Y082399D01*
X011067Y083033D02*
X011067Y083879D01*
X011701Y083668D02*
X010432Y083668D01*
X011067Y083033D01*
X037877Y093174D02*
X038723Y093174D01*
X038300Y093174D02*
X038300Y094443D01*
X037877Y094020D01*
X039146Y094231D02*
X039358Y094443D01*
X039781Y094443D01*
X039992Y094231D01*
X039992Y094020D01*
X039146Y093174D01*
X039992Y093174D01*
X040415Y093174D02*
X041261Y094020D01*
X041261Y094231D01*
X041050Y094443D01*
X040626Y094443D01*
X040415Y094231D01*
X040415Y093174D02*
X041261Y093174D01*
X041684Y093174D02*
X041895Y093174D01*
X041895Y093385D01*
X041684Y093385D01*
X041684Y093174D01*
X042318Y093385D02*
X042318Y093597D01*
X042530Y093808D01*
X042953Y093808D01*
X043164Y093597D01*
X043164Y093385D01*
X042953Y093174D01*
X042530Y093174D01*
X042318Y093385D01*
X042530Y093808D02*
X042318Y094020D01*
X042318Y094231D01*
X042530Y094443D01*
X042953Y094443D01*
X043164Y094231D01*
X043164Y094020D01*
X042953Y093808D01*
X043587Y093385D02*
X043587Y093174D01*
X043587Y093385D02*
X044433Y094231D01*
X044433Y094443D01*
X043587Y094443D01*
X059932Y092860D02*
X059932Y092437D01*
X060144Y092226D01*
X060355Y092226D01*
X060567Y092437D01*
X060567Y092860D01*
X060778Y093072D01*
X060990Y093072D01*
X061201Y092860D01*
X061201Y092437D01*
X060990Y092226D01*
X060778Y092226D01*
X060567Y092437D01*
X060567Y092860D02*
X060355Y093072D01*
X060144Y093072D01*
X059932Y092860D01*
X061201Y091803D02*
X061201Y090957D01*
X061201Y091380D02*
X059932Y091380D01*
X060355Y090957D01*
X060990Y090534D02*
X061201Y090534D01*
X061201Y090322D01*
X060990Y090322D01*
X060990Y090534D01*
X060990Y089900D02*
X061201Y089688D01*
X061201Y089265D01*
X060990Y089054D01*
X060567Y089477D02*
X060567Y089688D01*
X060778Y089900D01*
X060990Y089900D01*
X060567Y089688D02*
X060355Y089900D01*
X060144Y089900D01*
X059932Y089688D01*
X059932Y089265D01*
X060144Y089054D01*
X069932Y089352D02*
X071201Y089352D01*
X071201Y088929D02*
X071201Y089775D01*
X070990Y090197D02*
X071201Y090409D01*
X071201Y090832D01*
X070990Y091043D01*
X070567Y091043D01*
X070355Y090832D01*
X070355Y090620D01*
X070567Y090197D01*
X069932Y090197D01*
X069932Y091043D01*
X070144Y092101D02*
X069932Y092312D01*
X069932Y092735D01*
X070144Y092947D01*
X070355Y092947D01*
X071201Y092101D01*
X071201Y092947D01*
X070567Y093369D02*
X070567Y094215D01*
X071201Y094004D02*
X069932Y094004D01*
X070567Y093369D01*
X070990Y091678D02*
X071201Y091678D01*
X071201Y091466D01*
X070990Y091466D01*
X070990Y091678D01*
X069932Y089352D02*
X070355Y088929D01*
X069615Y054571D02*
X069826Y054359D01*
X069826Y053936D01*
X069615Y053724D01*
X069403Y053724D01*
X069192Y053936D01*
X069192Y054359D01*
X069403Y054571D01*
X069615Y054571D01*
X069192Y054359D02*
X068980Y054571D01*
X068769Y054571D01*
X068557Y054359D01*
X068557Y053936D01*
X068769Y053724D01*
X068980Y053724D01*
X069192Y053936D01*
X069192Y053302D02*
X069192Y052667D01*
X068980Y052456D01*
X068769Y052456D01*
X068557Y052667D01*
X068557Y053090D01*
X068769Y053302D01*
X069615Y053302D01*
X069826Y053090D01*
X069826Y052667D01*
X069615Y052456D01*
X069615Y052033D02*
X069826Y052033D01*
X069826Y051821D01*
X069615Y051821D01*
X069615Y052033D01*
X069615Y051399D02*
X069826Y051187D01*
X069826Y050764D01*
X069615Y050552D01*
X068769Y051399D01*
X069615Y051399D01*
X068769Y051399D02*
X068557Y051187D01*
X068557Y050764D01*
X068769Y050552D01*
X069615Y050552D01*
X069615Y050130D02*
X069826Y049918D01*
X069826Y049495D01*
X069615Y049284D01*
X069403Y049284D01*
X069192Y049495D01*
X069192Y049918D01*
X069403Y050130D01*
X069615Y050130D01*
X069192Y049918D02*
X068980Y050130D01*
X068769Y050130D01*
X068557Y049918D01*
X068557Y049495D01*
X068769Y049284D01*
X068980Y049284D01*
X069192Y049495D01*
X069826Y048861D02*
X069826Y048015D01*
X069826Y048438D02*
X068557Y048438D01*
X068980Y048015D01*
X031747Y018068D02*
X031324Y017856D01*
X030901Y017433D01*
X031535Y017433D01*
X031747Y017222D01*
X031747Y017010D01*
X031535Y016799D01*
X031112Y016799D01*
X030901Y017010D01*
X030901Y017433D01*
X030478Y016799D02*
X029632Y016799D01*
X030055Y016799D02*
X030055Y018068D01*
X029632Y017645D01*
X029209Y017010D02*
X029209Y016799D01*
X028997Y016799D01*
X028997Y017010D01*
X029209Y017010D01*
X028575Y017010D02*
X028575Y017433D01*
X028363Y017645D01*
X028152Y017645D01*
X027729Y017433D01*
X027729Y018068D01*
X028575Y018068D01*
X028575Y017010D02*
X028363Y016799D01*
X027940Y016799D01*
X027729Y017010D01*
X038363Y008731D02*
X038363Y008520D01*
X038575Y008308D01*
X039209Y008308D01*
X039209Y007885D02*
X039209Y008731D01*
X038998Y008943D01*
X038575Y008943D01*
X038363Y008731D01*
X038363Y007885D02*
X038575Y007674D01*
X038998Y007674D01*
X039209Y007885D01*
X039632Y007885D02*
X039632Y007674D01*
X039632Y007885D02*
X040478Y008731D01*
X040478Y008943D01*
X039632Y008943D01*
X040901Y007885D02*
X041112Y007885D01*
X041112Y007674D01*
X040901Y007674D01*
X040901Y007885D01*
X041535Y007674D02*
X042381Y007674D01*
X041958Y007674D02*
X041958Y008943D01*
X041535Y008520D01*
X042804Y008308D02*
X043438Y008308D01*
X043650Y008097D01*
X043650Y007885D01*
X043438Y007674D01*
X043015Y007674D01*
X042804Y007885D01*
X042804Y008308D01*
X043227Y008731D01*
X043650Y008943D01*
X049604Y012424D02*
X050450Y012424D01*
X050872Y012424D02*
X051718Y013270D01*
X051718Y013481D01*
X051507Y013693D01*
X051084Y013693D01*
X050872Y013481D01*
X050027Y013693D02*
X050027Y012424D01*
X050872Y012424D02*
X051718Y012424D01*
X052141Y012424D02*
X052353Y012424D01*
X052353Y012635D01*
X052141Y012635D01*
X052141Y012424D01*
X052776Y012424D02*
X053622Y012424D01*
X053199Y012424D02*
X053199Y013693D01*
X052776Y013270D01*
X054044Y013058D02*
X054890Y013058D01*
X054679Y012424D02*
X054679Y013693D01*
X054044Y013058D01*
X050027Y013693D02*
X049604Y013270D01*
D13*
X094724Y023709D02*
X095008Y023425D01*
X094724Y023709D02*
X095575Y023709D01*
X095575Y023992D02*
X095575Y023425D01*
X095575Y024346D02*
X095575Y024913D01*
X095575Y024629D02*
X094724Y024629D01*
X095008Y024346D01*
X094724Y025267D02*
X094724Y025834D01*
X094866Y025834D01*
X095433Y025267D01*
X095575Y025267D01*
X095150Y026187D02*
X095150Y026755D01*
X095150Y027108D02*
X095150Y027675D01*
X095008Y028029D02*
X094724Y028313D01*
X095575Y028313D01*
X095575Y028596D02*
X095575Y028029D01*
X095433Y028950D02*
X095575Y029092D01*
X095575Y029375D01*
X095433Y029517D01*
X095150Y029517D01*
X095008Y029375D01*
X095008Y029233D01*
X095150Y028950D01*
X094724Y028950D01*
X094724Y029517D01*
X094724Y030791D02*
X094724Y031217D01*
X094866Y031358D01*
X095150Y031358D01*
X095291Y031217D01*
X095291Y030791D01*
X095291Y031075D02*
X095575Y031358D01*
X095433Y031712D02*
X095575Y031854D01*
X095575Y032137D01*
X095433Y032279D01*
X095291Y032279D01*
X095150Y032137D01*
X095150Y031996D01*
X095150Y032137D02*
X095008Y032279D01*
X094866Y032279D01*
X094724Y032137D01*
X094724Y031854D01*
X094866Y031712D01*
X094724Y030791D02*
X095575Y030791D01*
X095575Y026613D02*
X094724Y026613D01*
X095150Y026187D01*
D14*
X098650Y025475D03*
X098650Y023475D03*
X095963Y033475D03*
X095963Y035475D03*
X112650Y026850D03*
X112650Y022850D03*
X118275Y029475D03*
X119275Y029475D03*
X120275Y029475D03*
X120775Y030975D03*
X119775Y030975D03*
X118775Y030975D03*
X117775Y030975D03*
X116650Y030975D03*
X121775Y030975D03*
X121775Y035975D03*
X120775Y035975D03*
X119775Y035975D03*
X118775Y035975D03*
X117775Y035975D03*
X116650Y035975D03*
X112275Y049225D03*
X112650Y050475D03*
X111650Y050475D03*
X110525Y050475D03*
X109275Y049225D03*
X113650Y050475D03*
X114650Y050475D03*
X115650Y050475D03*
X115713Y055475D03*
X114775Y055475D03*
X113588Y055475D03*
X112463Y055475D03*
X111463Y055475D03*
X110463Y055475D03*
X106275Y055475D03*
X106275Y054475D03*
X106213Y053100D03*
X103213Y053100D03*
X103275Y054475D03*
X103275Y055475D03*
X103275Y056975D03*
X106275Y056975D03*
X106275Y059225D03*
X103275Y059225D03*
X096275Y060100D03*
X096275Y058100D03*
X122775Y055475D03*
X123775Y055475D03*
X124900Y055475D03*
X126025Y055475D03*
X127025Y055475D03*
X127963Y055475D03*
X127900Y050475D03*
X126900Y050475D03*
X125900Y050475D03*
X124900Y050475D03*
X123900Y050475D03*
X122775Y050475D03*
X062025Y054975D03*
X061025Y054975D03*
X061025Y055975D03*
X062025Y055975D03*
X062025Y056975D03*
X061025Y056975D03*
X061025Y057975D03*
X062025Y057975D03*
X062025Y058975D03*
X055650Y056975D03*
X055650Y052975D03*
X040025Y061100D03*
X036025Y061100D03*
X035775Y055475D03*
X034900Y054475D03*
X032775Y055475D03*
X036900Y054475D03*
X036356Y051475D03*
X035025Y040975D03*
X035900Y038600D03*
X039025Y040975D03*
X039900Y038600D03*
X044088Y038413D03*
X044088Y039413D03*
X044088Y040413D03*
X049525Y040475D03*
X049525Y039475D03*
X049525Y038475D03*
X049525Y035975D03*
X049525Y034975D03*
X049525Y033975D03*
X049525Y031850D03*
X049525Y030850D03*
X049525Y029850D03*
X055025Y030100D03*
X055025Y031100D03*
X055025Y032100D03*
X055025Y033850D03*
X055025Y034850D03*
X055025Y035850D03*
X055025Y038475D03*
X055025Y039475D03*
X055025Y040475D03*
X060150Y040475D03*
X060150Y039475D03*
X060150Y038475D03*
X060400Y035975D03*
X060400Y034975D03*
X060400Y033975D03*
X060400Y031975D03*
X060400Y030975D03*
X060400Y029975D03*
X044088Y030288D03*
X044088Y031288D03*
X044088Y029288D03*
X039025Y031100D03*
X035025Y031100D03*
X029900Y029100D03*
X029900Y027975D03*
X025900Y027975D03*
X025900Y029100D03*
X044088Y033413D03*
X044088Y034413D03*
X044088Y035413D03*
D15*
X003191Y001350D02*
X002359Y001350D01*
X005359Y001350D02*
X006191Y001350D01*
X030859Y030349D02*
X031673Y030521D01*
X031465Y031500D02*
X030651Y031327D01*
X030443Y032305D02*
X031257Y032478D01*
X033377Y032929D02*
X034191Y033101D01*
X034399Y032123D02*
X033585Y031950D01*
X033793Y030972D02*
X034607Y031145D01*
X033891Y037303D02*
X034710Y037448D01*
X034537Y038433D02*
X033718Y038288D01*
X033544Y039273D02*
X034363Y039418D01*
X031409Y038897D02*
X030590Y038752D01*
X030763Y037767D02*
X031582Y037912D01*
X031756Y036927D02*
X030937Y036782D01*
X031484Y041850D02*
X032316Y041850D01*
X032316Y042850D02*
X031484Y042850D01*
X031484Y043850D02*
X032316Y043850D01*
X034484Y043850D02*
X035316Y043850D01*
X035316Y042850D02*
X034484Y042850D01*
X034484Y041850D02*
X035316Y041850D01*
X045484Y047100D02*
X046316Y047100D01*
X046316Y048100D02*
X045484Y048100D01*
X045484Y049100D02*
X046316Y049100D01*
X046316Y050100D02*
X045484Y050100D01*
X045484Y051100D02*
X046316Y051100D01*
X046316Y052100D02*
X045484Y052100D01*
X045484Y053100D02*
X046316Y053100D01*
X046316Y054100D02*
X045484Y054100D01*
X048484Y054100D02*
X049316Y054100D01*
X049316Y053100D02*
X048484Y053100D01*
X048484Y052100D02*
X049316Y052100D01*
X049316Y051100D02*
X048484Y051100D01*
X048484Y050100D02*
X049316Y050100D01*
X049316Y049100D02*
X048484Y049100D01*
X048484Y048100D02*
X049316Y048100D01*
X049316Y047100D02*
X048484Y047100D01*
X035900Y056559D02*
X035900Y057391D01*
X034900Y057391D02*
X034900Y056559D01*
X033900Y056559D02*
X033900Y057391D01*
X032900Y057391D02*
X032900Y056559D01*
X032900Y059559D02*
X032900Y060391D01*
X033900Y060391D02*
X033900Y059559D01*
X034900Y059559D02*
X034900Y060391D01*
X035900Y060391D02*
X035900Y059559D01*
X051609Y061975D02*
X052441Y061975D01*
X052441Y062975D02*
X051609Y062975D01*
X051609Y063975D02*
X052441Y063975D01*
X054275Y066684D02*
X054275Y067516D01*
X054275Y070684D02*
X054275Y071516D01*
X097359Y059725D02*
X098191Y059725D01*
X098191Y058725D02*
X097359Y058725D01*
X097359Y057725D02*
X098191Y057725D01*
X098191Y056725D02*
X097359Y056725D01*
X097359Y055725D02*
X098191Y055725D01*
X098191Y054725D02*
X097359Y054725D01*
X097359Y053725D02*
X098191Y053725D01*
X098191Y052725D02*
X097359Y052725D01*
X100359Y052725D02*
X101191Y052725D01*
X101191Y053725D02*
X100359Y053725D01*
X100359Y054725D02*
X101191Y054725D01*
X101191Y055725D02*
X100359Y055725D01*
X100359Y056725D02*
X101191Y056725D01*
X101191Y057725D02*
X100359Y057725D01*
X100359Y058725D02*
X101191Y058725D01*
X101191Y059725D02*
X100359Y059725D01*
X099941Y047475D02*
X099109Y047475D01*
X099109Y046475D02*
X099941Y046475D01*
X102109Y046475D02*
X102941Y046475D01*
X102941Y045475D02*
X102109Y045475D01*
X102109Y044475D02*
X102941Y044475D01*
X102941Y043475D02*
X102109Y043475D01*
X102109Y042475D02*
X102941Y042475D01*
X102941Y041475D02*
X102109Y041475D01*
X099941Y041475D02*
X099109Y041475D01*
X099109Y042475D02*
X099941Y042475D01*
X099941Y043475D02*
X099109Y043475D01*
X099984Y039475D02*
X100816Y039475D01*
X101234Y038600D02*
X102066Y038600D01*
X102066Y037600D02*
X101234Y037600D01*
X100816Y037475D02*
X099984Y037475D01*
X099984Y036475D02*
X100816Y036475D01*
X101234Y036600D02*
X102066Y036600D01*
X102066Y035600D02*
X101234Y035600D01*
X100816Y035475D02*
X099984Y035475D01*
X099984Y034475D02*
X100816Y034475D01*
X101234Y034600D02*
X102066Y034600D01*
X102066Y033600D02*
X101234Y033600D01*
X100816Y033475D02*
X099984Y033475D01*
X099984Y032475D02*
X100816Y032475D01*
X101234Y032600D02*
X102066Y032600D01*
X102066Y031600D02*
X101234Y031600D01*
X104234Y031600D02*
X105066Y031600D01*
X105066Y032600D02*
X104234Y032600D01*
X104234Y033600D02*
X105066Y033600D01*
X105066Y034600D02*
X104234Y034600D01*
X104234Y035600D02*
X105066Y035600D01*
X105066Y036600D02*
X104234Y036600D01*
X104234Y037600D02*
X105066Y037600D01*
X105066Y038600D02*
X104234Y038600D01*
X100816Y038475D02*
X099984Y038475D01*
X097816Y038475D02*
X096984Y038475D01*
X096984Y037475D02*
X097816Y037475D01*
X097816Y036475D02*
X096984Y036475D01*
X096984Y035475D02*
X097816Y035475D01*
X097816Y034475D02*
X096984Y034475D01*
X096984Y033475D02*
X097816Y033475D01*
X097816Y032475D02*
X096984Y032475D01*
X099734Y029475D02*
X100566Y029475D01*
X100566Y028475D02*
X099734Y028475D01*
X099734Y027475D02*
X100566Y027475D01*
X100566Y026475D02*
X099734Y026475D01*
X099734Y025475D02*
X100566Y025475D01*
X100566Y024475D02*
X099734Y024475D01*
X099734Y023475D02*
X100566Y023475D01*
X100566Y022475D02*
X099734Y022475D01*
X102734Y022475D02*
X103566Y022475D01*
X103566Y023475D02*
X102734Y023475D01*
X102734Y024475D02*
X103566Y024475D01*
X103566Y025475D02*
X102734Y025475D01*
X102734Y026475D02*
X103566Y026475D01*
X103566Y027475D02*
X102734Y027475D01*
X102734Y028475D02*
X103566Y028475D01*
X103566Y029475D02*
X102734Y029475D01*
X107609Y028475D02*
X108441Y028475D01*
X108441Y027475D02*
X107609Y027475D01*
X107609Y026475D02*
X108441Y026475D01*
X108441Y025475D02*
X107609Y025475D01*
X107609Y024475D02*
X108441Y024475D01*
X108441Y023475D02*
X107609Y023475D01*
X107609Y022475D02*
X108441Y022475D01*
X108441Y021475D02*
X107609Y021475D01*
X110609Y021475D02*
X111441Y021475D01*
X111441Y022475D02*
X110609Y022475D01*
X110609Y023475D02*
X111441Y023475D01*
X111441Y024475D02*
X110609Y024475D01*
X110609Y025475D02*
X111441Y025475D01*
X111441Y026475D02*
X110609Y026475D01*
X110609Y027475D02*
X111441Y027475D01*
X111441Y028475D02*
X110609Y028475D01*
X097816Y039475D02*
X096984Y039475D01*
X102109Y047475D02*
X102941Y047475D01*
X126234Y071850D02*
X127066Y071850D01*
X127066Y073850D02*
X126234Y073850D01*
X063150Y025891D02*
X063150Y025059D01*
X062150Y025059D02*
X062150Y025891D01*
X061150Y025891D02*
X061150Y025059D01*
D16*
X049775Y062975D03*
X050150Y079725D03*
D17*
X050150Y077725D03*
X046775Y062975D03*
X026525Y060975D03*
X026525Y065350D03*
X125025Y067225D03*
X129025Y067225D03*
X129025Y062225D03*
X125025Y062225D03*
D18*
X124875Y070475D02*
X124875Y071475D01*
X124875Y070975D02*
X122900Y070975D01*
X122875Y071475D02*
X122875Y070475D01*
X118675Y070475D02*
X118675Y071475D01*
X118525Y070975D02*
X116675Y070975D01*
X116675Y074975D01*
X116675Y076813D01*
X117713Y077600D01*
X118675Y075475D02*
X118675Y074475D01*
X118650Y074975D02*
X116675Y074975D01*
X116675Y075475D02*
X116675Y074475D01*
X116675Y071475D02*
X116675Y070475D01*
X122025Y074975D02*
X124875Y074975D01*
X124875Y075475D02*
X124875Y074475D01*
X122875Y074475D02*
X122875Y075475D01*
D19*
X121650Y067350D03*
X121650Y061350D03*
X133650Y060475D03*
X133650Y066475D03*
X126275Y043600D03*
X125275Y043600D03*
X125275Y042600D03*
X097150Y045350D03*
X096150Y045350D03*
X096150Y046350D03*
X097150Y046350D03*
X096150Y047350D03*
X061525Y043725D03*
X061525Y042725D03*
X060525Y042725D03*
X059525Y042725D03*
X059525Y043725D03*
X060525Y043725D03*
X058525Y043725D03*
X058525Y042725D03*
X057400Y047975D03*
X057400Y048975D03*
X058400Y048975D03*
X058400Y049975D03*
X057400Y049975D03*
X046525Y068600D03*
X028025Y071100D03*
X023400Y068600D03*
X020650Y068600D03*
X020650Y062600D03*
X023400Y062600D03*
X023150Y053225D03*
X029150Y053225D03*
X022650Y044975D03*
X024025Y042225D03*
X024025Y040225D03*
X022650Y038975D03*
X022525Y037475D03*
X024025Y035475D03*
X024025Y033475D03*
X022525Y031475D03*
X022525Y030225D03*
X030025Y033475D03*
X030025Y035475D03*
X030025Y040225D03*
X030025Y042225D03*
X036650Y029600D03*
X036650Y028600D03*
X036650Y027600D03*
X036650Y026600D03*
X036650Y025600D03*
X037650Y025600D03*
X037650Y026600D03*
X037650Y027600D03*
X037650Y028600D03*
X037650Y029600D03*
X022525Y024225D03*
X062150Y024475D03*
X028025Y075100D03*
D20*
X040900Y066475D03*
X043900Y066475D03*
D21*
X038650Y065178D02*
X038650Y064272D01*
X037650Y064272D02*
X037650Y065178D01*
X036650Y065178D02*
X036650Y064272D01*
X031650Y064522D02*
X031650Y065428D01*
X030650Y065428D02*
X030650Y064522D01*
X029650Y064522D02*
X029650Y065428D01*
X051697Y067475D02*
X052603Y067475D01*
X052603Y068475D02*
X051697Y068475D01*
X051697Y069475D02*
X052603Y069475D01*
X019478Y042975D02*
X018572Y042975D01*
X018572Y041975D02*
X019478Y041975D01*
X019478Y040975D02*
X018572Y040975D01*
X018572Y035725D02*
X019478Y035725D01*
X019478Y034725D02*
X018572Y034725D01*
X018572Y033725D02*
X019478Y033725D01*
X019478Y028475D02*
X018572Y028475D01*
X018572Y027475D02*
X019478Y027475D01*
X019478Y026475D02*
X018572Y026475D01*
D22*
X045025Y037225D03*
X050025Y037225D03*
X038650Y043850D03*
X038400Y057775D03*
X034025Y061225D03*
X034025Y064225D03*
X030900Y068100D03*
X027900Y068100D03*
X028900Y060975D03*
X048025Y067100D03*
X048963Y069663D03*
X048775Y075175D03*
X059025Y072475D03*
X062025Y072475D03*
X102275Y058850D03*
X108150Y057975D03*
X108150Y056975D03*
X109400Y056975D03*
X109400Y057975D03*
X110650Y057975D03*
X110650Y056975D03*
X111900Y056975D03*
X111900Y057975D03*
X113150Y058038D03*
X113150Y056913D03*
X114400Y056913D03*
X114400Y058038D03*
X115650Y058038D03*
X115650Y056913D03*
X116900Y056975D03*
X116900Y057975D03*
X118150Y057975D03*
X118150Y056975D03*
X120400Y056975D03*
X120400Y057975D03*
X121650Y057975D03*
X121650Y056975D03*
X122900Y056975D03*
X122900Y057975D03*
X124150Y057975D03*
X124150Y056975D03*
X125400Y056913D03*
X125400Y058038D03*
X126650Y058038D03*
X126650Y056913D03*
X127900Y056913D03*
X127900Y058038D03*
X129150Y057975D03*
X129150Y056975D03*
X130400Y056913D03*
X130400Y058038D03*
X128463Y043350D03*
X127463Y043350D03*
X122900Y043350D03*
X121900Y043350D03*
X126775Y036600D03*
X127775Y036600D03*
X108150Y042975D03*
X106150Y042975D03*
X102275Y052850D03*
D23*
X054088Y077650D03*
X054088Y079550D03*
X048775Y073775D03*
X048963Y071663D03*
X049025Y067100D03*
X038400Y059175D03*
X028900Y059975D03*
X039650Y043850D03*
D24*
X029025Y044100D03*
X025025Y044100D03*
X025025Y037350D03*
X029025Y037350D03*
X029525Y030475D03*
X025525Y030475D03*
X057213Y029225D03*
X058150Y030100D03*
X058150Y027100D03*
X057213Y034475D03*
X092516Y047975D03*
X094025Y053725D03*
X096463Y053725D03*
X104588Y048975D03*
X104650Y047788D03*
X108650Y050850D03*
X109400Y051600D03*
X108400Y052725D03*
X109525Y053225D03*
X109275Y054975D03*
X109275Y055850D03*
X111025Y054475D03*
X111650Y052475D03*
X113275Y051475D03*
X113900Y052975D03*
X118150Y052225D03*
X119025Y051350D03*
X119025Y053663D03*
X118025Y054350D03*
X118650Y055850D03*
X121025Y056100D03*
X122275Y054350D03*
X123900Y052975D03*
X124900Y052225D03*
X125900Y051350D03*
X127400Y051475D03*
X126525Y052913D03*
X126900Y053975D03*
X125775Y053975D03*
X127650Y053100D03*
X129775Y053100D03*
X130900Y053975D03*
X124775Y058975D03*
X123463Y049100D03*
X122025Y049225D03*
X116525Y049225D03*
X113025Y043100D03*
X109525Y043100D03*
X105338Y040600D03*
X102275Y039850D03*
X097650Y040600D03*
X095025Y037850D03*
X094275Y036475D03*
X095025Y035038D03*
X106400Y036975D03*
X114775Y034600D03*
X114775Y032725D03*
X116025Y032225D03*
X115525Y029850D03*
X118025Y034600D03*
X122275Y032225D03*
X125588Y035725D03*
X128650Y029975D03*
X133025Y029975D03*
X096150Y043038D03*
X107150Y057600D03*
X105275Y058100D03*
X062775Y071475D03*
X055525Y071475D03*
X053892Y081933D03*
X053892Y082971D03*
X052845Y082971D03*
X052845Y081933D03*
X027525Y078225D03*
X027525Y076225D03*
D25*
X020391Y056850D02*
X019409Y056850D01*
X019409Y054850D02*
X020391Y054850D01*
X019900Y047591D02*
X019900Y046609D01*
X017900Y046609D02*
X017900Y047591D01*
X022150Y047591D02*
X022150Y046609D01*
X024150Y046609D02*
X024150Y047591D01*
X026400Y047591D02*
X026400Y046609D01*
X028400Y046609D02*
X028400Y047591D01*
X026650Y026091D02*
X026650Y025109D01*
X024650Y025109D02*
X024650Y026091D01*
X117409Y062225D02*
X118391Y062225D01*
X118391Y064225D02*
X117409Y064225D01*
X117409Y066225D02*
X118391Y066225D01*
X118391Y068225D02*
X117409Y068225D01*
D26*
X131158Y067975D02*
X132142Y067975D01*
X132142Y069975D02*
X131158Y069975D01*
X131158Y071975D02*
X132142Y071975D01*
X134158Y071975D02*
X135142Y071975D01*
X135142Y069975D02*
X134158Y069975D01*
X134158Y067975D02*
X135142Y067975D01*
X135142Y077975D02*
X134158Y077975D01*
X132142Y077975D02*
X131158Y077975D01*
D27*
X129958Y077975D02*
X129092Y077975D01*
X129092Y078975D02*
X129958Y078975D01*
X129775Y071408D02*
X129775Y070542D01*
X128775Y070542D02*
X128775Y071408D01*
X044458Y054100D02*
X043592Y054100D01*
X043592Y053100D02*
X044458Y053100D01*
X044458Y052100D02*
X043592Y052100D01*
X043592Y051100D02*
X044458Y051100D01*
D28*
X132731Y076975D03*
X134069Y076975D03*
D29*
X134267Y076035D02*
X134173Y075942D01*
X134173Y075849D01*
X134267Y075755D01*
X134547Y075755D01*
X134547Y075568D02*
X134547Y075942D01*
X134453Y076035D01*
X134267Y076035D01*
X133939Y075942D02*
X133846Y076035D01*
X133565Y076035D01*
X133565Y075475D01*
X133846Y075475D01*
X133939Y075568D01*
X133939Y075942D01*
X134173Y075568D02*
X134267Y075475D01*
X134453Y075475D01*
X134547Y075568D01*
X133331Y075662D02*
X133331Y076035D01*
X133331Y075662D02*
X133145Y075475D01*
X132958Y075662D01*
X132958Y076035D01*
X132724Y075942D02*
X132724Y075849D01*
X132630Y075755D01*
X132724Y075662D01*
X132724Y075568D01*
X132630Y075475D01*
X132443Y075475D01*
X132350Y075568D01*
X132537Y075755D02*
X132630Y075755D01*
X132724Y075942D02*
X132630Y076035D01*
X132443Y076035D01*
X132350Y075942D01*
X111275Y058975D02*
X111275Y057475D01*
D30*
X111985Y047330D03*
X113565Y047330D03*
X113565Y045370D03*
X111985Y045370D03*
X107065Y045370D03*
X107065Y047330D03*
X107065Y040830D03*
X107065Y038870D03*
X111985Y038870D03*
X113565Y038870D03*
X113565Y040830D03*
X111985Y040830D03*
X118485Y040830D03*
X118485Y038870D03*
X118485Y045370D03*
X120065Y045370D03*
X120065Y047330D03*
X118485Y047330D03*
X124985Y047330D03*
X126565Y047330D03*
X126565Y045370D03*
X124985Y045370D03*
X131485Y045370D03*
X131485Y047330D03*
X131485Y027830D03*
X131485Y025870D03*
X126565Y025870D03*
X124985Y025870D03*
X124985Y027830D03*
X126565Y027830D03*
X120065Y027830D03*
X118485Y027830D03*
X118485Y025870D03*
X120065Y025870D03*
X113565Y025870D03*
X113565Y027830D03*
D31*
G36*
X125899Y032303D02*
X126593Y032997D01*
X127287Y032303D01*
X126593Y031609D01*
X125899Y032303D01*
G37*
G36*
X127284Y030918D02*
X127978Y031612D01*
X128672Y030918D01*
X127978Y030224D01*
X127284Y030918D01*
G37*
G36*
X130763Y034397D02*
X131457Y035091D01*
X132151Y034397D01*
X131457Y033703D01*
X130763Y034397D01*
G37*
G36*
X129378Y035782D02*
X130072Y036476D01*
X130766Y035782D01*
X130072Y035088D01*
X129378Y035782D01*
G37*
G36*
X130072Y036724D02*
X129378Y037418D01*
X130072Y038112D01*
X130766Y037418D01*
X130072Y036724D01*
G37*
G36*
X131457Y038109D02*
X130763Y038803D01*
X131457Y039497D01*
X132151Y038803D01*
X131457Y038109D01*
G37*
G36*
X126593Y040203D02*
X125899Y040897D01*
X126593Y041591D01*
X127287Y040897D01*
X126593Y040203D01*
G37*
G36*
X125651Y040897D02*
X124957Y040203D01*
X124263Y040897D01*
X124957Y041591D01*
X125651Y040897D01*
G37*
G36*
X124266Y042282D02*
X123572Y041588D01*
X122878Y042282D01*
X123572Y042976D01*
X124266Y042282D01*
G37*
G36*
X127978Y041588D02*
X127284Y042282D01*
X127978Y042976D01*
X128672Y042282D01*
X127978Y041588D01*
G37*
G36*
X122172Y037418D02*
X121478Y036724D01*
X120784Y037418D01*
X121478Y038112D01*
X122172Y037418D01*
G37*
G36*
X120787Y038803D02*
X120093Y038109D01*
X119399Y038803D01*
X120093Y039497D01*
X120787Y038803D01*
G37*
D32*
X117399Y049996D03*
X115901Y053704D03*
X031150Y055975D03*
X029400Y056975D03*
X031150Y059975D03*
X025400Y056975D03*
X022150Y053225D03*
X018150Y053225D03*
D33*
X043569Y049100D02*
X044481Y049100D01*
X044481Y048100D02*
X043569Y048100D01*
X043569Y047100D02*
X044481Y047100D01*
X045319Y071100D02*
X046231Y071100D01*
X046231Y072100D02*
X045319Y072100D01*
X045319Y073100D02*
X046231Y073100D01*
X046231Y078100D02*
X045319Y078100D01*
X045319Y079100D02*
X046231Y079100D01*
X046231Y080100D02*
X045319Y080100D01*
D34*
X026525Y059941D02*
X026525Y058759D01*
X023585Y058759D02*
X023585Y059941D01*
X020635Y059941D02*
X020635Y058759D01*
X017685Y058759D02*
X017685Y059941D01*
X106533Y033350D02*
X106537Y033497D01*
X106547Y033643D01*
X106565Y033789D01*
X106590Y033934D01*
X106623Y034077D01*
X106662Y034219D01*
X106708Y034358D01*
X106761Y034495D01*
X106820Y034629D01*
X106886Y034760D01*
X106959Y034888D01*
X107037Y035012D01*
X107122Y035132D01*
X107212Y035248D01*
X107308Y035359D01*
X107409Y035466D01*
X107516Y035567D01*
X107627Y035663D01*
X107743Y035753D01*
X107863Y035838D01*
X107987Y035916D01*
X108115Y035989D01*
X108246Y036055D01*
X108380Y036114D01*
X108517Y036167D01*
X108656Y036213D01*
X108798Y036252D01*
X108941Y036285D01*
X109086Y036310D01*
X109232Y036328D01*
X109378Y036338D01*
X109525Y036342D01*
X109672Y036338D01*
X109818Y036328D01*
X109964Y036310D01*
X110109Y036285D01*
X110252Y036252D01*
X110394Y036213D01*
X110533Y036167D01*
X110670Y036114D01*
X110804Y036055D01*
X110935Y035989D01*
X111063Y035916D01*
X111187Y035838D01*
X111307Y035753D01*
X111423Y035663D01*
X111534Y035567D01*
X111641Y035466D01*
X111742Y035359D01*
X111838Y035248D01*
X111928Y035132D01*
X112013Y035012D01*
X112091Y034888D01*
X112164Y034760D01*
X112230Y034629D01*
X112289Y034495D01*
X112342Y034358D01*
X112388Y034219D01*
X112427Y034077D01*
X112460Y033934D01*
X112485Y033789D01*
X112503Y033643D01*
X112513Y033497D01*
X112517Y033350D01*
X112513Y033203D01*
X112503Y033057D01*
X112485Y032911D01*
X112460Y032766D01*
X112427Y032623D01*
X112388Y032481D01*
X112342Y032342D01*
X112289Y032205D01*
X112230Y032071D01*
X112164Y031940D01*
X112091Y031812D01*
X112013Y031688D01*
X111928Y031568D01*
X111838Y031452D01*
X111742Y031341D01*
X111641Y031234D01*
X111534Y031133D01*
X111423Y031037D01*
X111307Y030947D01*
X111187Y030862D01*
X111063Y030784D01*
X110935Y030711D01*
X110804Y030645D01*
X110670Y030586D01*
X110533Y030533D01*
X110394Y030487D01*
X110252Y030448D01*
X110109Y030415D01*
X109964Y030390D01*
X109818Y030372D01*
X109672Y030362D01*
X109525Y030358D01*
X109378Y030362D01*
X109232Y030372D01*
X109086Y030390D01*
X108941Y030415D01*
X108798Y030448D01*
X108656Y030487D01*
X108517Y030533D01*
X108380Y030586D01*
X108246Y030645D01*
X108115Y030711D01*
X107987Y030784D01*
X107863Y030862D01*
X107743Y030947D01*
X107627Y031037D01*
X107516Y031133D01*
X107409Y031234D01*
X107308Y031341D01*
X107212Y031452D01*
X107122Y031568D01*
X107037Y031688D01*
X106959Y031812D01*
X106886Y031940D01*
X106820Y032071D01*
X106761Y032205D01*
X106708Y032342D01*
X106662Y032481D01*
X106623Y032623D01*
X106590Y032766D01*
X106565Y032911D01*
X106547Y033057D01*
X106537Y033203D01*
X106533Y033350D01*
D35*
X037650Y063075D03*
X030650Y063075D03*
X020675Y041975D03*
X020675Y034725D03*
X020675Y027475D03*
D36*
X058400Y047975D03*
X097150Y047350D03*
X126275Y042600D03*
D37*
X099525Y044475D03*
X099525Y045475D03*
D38*
X128525Y075288D03*
X117713Y077600D03*
D39*
X055770Y083975D03*
X051030Y083975D03*
X025025Y068600D03*
X018775Y068600D03*
X018775Y062350D03*
X025025Y062350D03*
X019025Y049600D03*
X030025Y047100D03*
X020650Y038350D03*
X024400Y027600D03*
D40*
X096275Y041135D03*
X096275Y042315D03*
D41*
X055791Y021532D02*
X055011Y020753D01*
X054039Y021749D02*
X054818Y022528D01*
X052456Y021697D02*
X052456Y020595D01*
X050881Y021745D02*
X050102Y022524D01*
X049102Y021532D02*
X049881Y020753D01*
X047447Y021532D02*
X046667Y020753D01*
X045695Y021749D02*
X046475Y022528D01*
X044112Y021697D02*
X044112Y020595D01*
X042538Y021745D02*
X041758Y022524D01*
X040758Y021532D02*
X041538Y020753D01*
D42*
X042148Y017212D03*
X043132Y017212D03*
X045104Y017212D03*
X046088Y017212D03*
X050492Y017212D03*
X051476Y017212D03*
X053447Y017212D03*
X054432Y017212D03*
D43*
X043487Y071325D03*
X043487Y072900D03*
X043487Y074869D03*
X043487Y076444D03*
X043487Y078412D03*
X043487Y079987D03*
X029313Y077625D03*
X029313Y071325D03*
D44*
X043880Y068963D03*
D45*
X024275Y074225D03*
X019525Y074225D03*
D46*
X028338Y051475D03*
D47*
X030025Y047100D02*
X030025Y046225D01*
X028275Y044475D01*
X028275Y040850D01*
X025775Y038350D01*
X020650Y038350D01*
X017025Y031225D02*
X024400Y027600D01*
X017025Y031225D02*
X017025Y048475D01*
X019025Y049600D01*
X026525Y060975D02*
X026525Y065350D01*
X047400Y060100D02*
X047400Y054975D01*
X048525Y054850D02*
X048525Y058475D01*
X050275Y058475D02*
X054025Y058475D01*
X052150Y057725D02*
X057150Y057725D01*
X056275Y058475D02*
X056275Y060600D01*
X056275Y062100D02*
X063525Y062100D01*
X059400Y061350D02*
X054650Y061350D01*
X055525Y064975D02*
X062650Y064975D01*
X061650Y065850D02*
X058525Y065850D01*
X058525Y069850D02*
X056150Y069850D01*
X055525Y071475D02*
X062775Y071475D01*
X063775Y073975D02*
X055275Y073975D01*
X050525Y073475D02*
X050525Y066475D01*
X050775Y057225D02*
X050775Y054850D01*
X051150Y054475D01*
X051150Y053100D01*
X050775Y052725D01*
X050775Y047850D01*
X050150Y048350D02*
X049900Y047850D01*
X049900Y047475D01*
X050275Y047100D01*
X050275Y045600D01*
X051900Y045100D02*
X051900Y055850D01*
X052900Y054350D02*
X052900Y045850D01*
X053900Y046725D02*
X053900Y055225D01*
X054775Y053975D02*
X054775Y047475D01*
X055650Y046850D02*
X055650Y049725D01*
X056525Y050350D02*
X056525Y053850D01*
X050275Y053600D02*
X050150Y053475D01*
X050150Y048350D01*
X048775Y044350D02*
X053400Y044350D01*
X053775Y043600D02*
X054275Y044100D01*
X057150Y044100D01*
X057400Y043850D01*
X058525Y041850D02*
X052775Y041850D01*
X051775Y042475D02*
X044900Y042475D01*
X047275Y043225D02*
X054525Y043225D01*
X053775Y043600D02*
X048275Y043600D01*
X047650Y044225D01*
X046900Y044225D01*
X046525Y043850D01*
X044900Y043850D01*
X059400Y048850D02*
X062400Y048850D01*
X062900Y051975D02*
X062900Y056975D01*
X063775Y075475D02*
X057150Y078850D01*
X113775Y058600D02*
X113775Y056413D01*
X115025Y056475D02*
X115025Y058600D01*
X122150Y055100D02*
X123275Y054600D01*
X124985Y047330D02*
X120065Y047330D01*
X118485Y047330D02*
X113565Y047330D01*
X113565Y045370D02*
X118485Y045370D01*
X120065Y045370D02*
X124985Y045370D01*
X126565Y045370D02*
X131485Y045370D01*
X131485Y047330D02*
X126565Y047330D01*
X127978Y042282D02*
X130707Y041657D01*
X131457Y038803D01*
X130072Y037418D02*
X127218Y038043D01*
X126593Y040897D01*
X124957Y040897D02*
X121478Y037418D01*
X120093Y038803D02*
X120593Y041657D01*
X123572Y042282D01*
X118485Y040830D02*
X113565Y040830D01*
X111985Y040830D02*
X107065Y040830D01*
X106025Y041100D02*
X106025Y039850D01*
X106338Y038225D02*
X106338Y042350D01*
X113565Y038870D02*
X118485Y038870D01*
X127093Y035282D02*
X130072Y035782D01*
X131457Y034397D02*
X131332Y031668D01*
X127978Y030918D01*
X126593Y032303D02*
X127093Y035282D01*
X126565Y027830D02*
X131485Y027830D01*
X131485Y025870D02*
X126565Y025870D01*
X124985Y025870D02*
X120065Y025870D01*
X118485Y025870D02*
X113565Y025870D01*
X113565Y027830D02*
X118485Y027830D01*
X096650Y041725D02*
X095900Y041725D01*
X050963Y027850D02*
X046463Y027850D01*
D48*
X044150Y037225D03*
X040900Y037225D03*
X044900Y042475D03*
X047275Y043225D03*
X048775Y044350D03*
X050275Y045600D03*
X051900Y045100D03*
X052900Y045850D03*
X053900Y046725D03*
X054775Y047475D03*
X055650Y046850D03*
X053400Y044350D03*
X054525Y043225D03*
X052775Y041850D03*
X051775Y042475D03*
X057400Y043850D03*
X058525Y041850D03*
X050775Y047850D03*
X055650Y049725D03*
X056525Y050350D03*
X059400Y048850D03*
X062400Y048850D03*
X062900Y051975D03*
X062900Y056975D03*
X057150Y057725D03*
X056275Y058475D03*
X056275Y060600D03*
X056275Y062100D03*
X054650Y061350D03*
X054025Y058475D03*
X052150Y057725D03*
X050775Y057225D03*
X050275Y058475D03*
X048525Y058475D03*
X047400Y060100D03*
X051900Y055850D03*
X052900Y054350D03*
X053900Y055225D03*
X054775Y053975D03*
X056525Y053850D03*
X050275Y053600D03*
X048525Y054850D03*
X047400Y054975D03*
X059400Y061350D03*
X063525Y062100D03*
X062650Y064975D03*
X061650Y065850D03*
X058525Y065850D03*
X055525Y064975D03*
X050525Y066475D03*
X056150Y069850D03*
X058525Y069850D03*
X055275Y073975D03*
X050525Y073475D03*
X057150Y078850D03*
X063775Y075475D03*
X063775Y073975D03*
X044900Y043850D03*
D49*
X095963Y035475D02*
X097400Y035475D01*
X100400Y039475D02*
X101338Y039475D01*
X102525Y043475D02*
X103900Y043475D01*
X097838Y054725D02*
X096650Y054725D01*
X117900Y062225D02*
X121650Y061350D01*
X125025Y062225D01*
X126150Y065600D02*
X128525Y063600D01*
X131900Y063600D01*
X133650Y060475D01*
X130650Y062225D01*
X129025Y062225D01*
X129400Y065350D02*
X131900Y065350D01*
X133650Y066475D01*
X130650Y066475D01*
X129025Y067225D01*
X127775Y066600D02*
X127775Y068600D01*
X126650Y071850D01*
X127650Y073350D02*
X128775Y072225D01*
X128775Y070975D01*
X129025Y069725D01*
X129525Y069100D01*
X131650Y067975D01*
X134650Y067975D01*
X134650Y069975D02*
X131650Y069975D01*
X129775Y070975D01*
X129775Y073475D01*
X128525Y075288D01*
X127650Y073350D02*
X126650Y073850D01*
X125525Y073350D01*
X124775Y072975D01*
X122150Y072975D01*
X121400Y072225D01*
X121400Y069850D01*
X119775Y066850D01*
X117900Y066225D01*
X117900Y068225D02*
X119275Y068725D01*
X120150Y070100D01*
X120150Y073225D01*
X122025Y074975D01*
X124875Y070975D02*
X126150Y068225D01*
X126150Y065600D01*
X127775Y066600D02*
X129400Y065350D01*
X125025Y067225D02*
X121650Y067350D01*
X120150Y064225D01*
X117900Y064225D01*
X131650Y077975D02*
X132731Y076975D01*
X134069Y076975D02*
X134650Y077975D01*
X134338Y078600D01*
X133963Y079100D01*
X130963Y079100D01*
X129525Y078975D01*
X129525Y077975D02*
X131650Y077975D01*
X100150Y028475D02*
X098838Y028475D01*
X098838Y022475D02*
X100150Y022475D01*
D50*
X101650Y022850D01*
X101650Y028850D01*
X101650Y030100D01*
X102400Y030850D01*
X106150Y030850D01*
X107775Y029350D01*
X109400Y029100D01*
X111525Y029350D01*
X113400Y031225D01*
X113900Y033100D01*
X114400Y033600D01*
X123400Y033600D01*
X125588Y035725D01*
X122275Y032225D02*
X116025Y032225D01*
X114775Y032725D02*
X115525Y029850D01*
X114775Y034600D02*
X118025Y034600D01*
X128650Y029975D02*
X133025Y029975D01*
X135900Y024600D02*
X135900Y022725D01*
X131900Y022725D01*
X131900Y018725D01*
X129775Y018725D01*
X106400Y036975D02*
X106338Y038225D01*
X106025Y039850D02*
X102275Y039850D01*
X100400Y039475D02*
X099525Y039225D01*
X098900Y038600D01*
X098900Y035475D01*
X098900Y032225D01*
X099525Y031600D01*
X101650Y031600D01*
X101650Y028850D02*
X100150Y028475D01*
X092900Y022725D02*
X091900Y022725D01*
X091900Y023850D01*
X092900Y022725D02*
X092900Y018725D01*
X094775Y018725D01*
X095025Y035038D02*
X095025Y037850D01*
X095025Y040850D01*
X095900Y041725D01*
X096275Y041135D02*
X096810Y041135D01*
X098400Y042725D01*
X098400Y046350D01*
X097150Y046350D01*
X097150Y045350D02*
X097150Y042350D01*
X096650Y041725D01*
X096275Y041135D02*
X095963Y040697D01*
X095963Y035475D01*
X097400Y035475D02*
X098900Y035475D01*
X094275Y036475D02*
X092775Y037975D01*
X092775Y044850D01*
X095275Y047350D01*
X096150Y047350D01*
X097150Y047350D02*
X096775Y048350D01*
X095775Y048350D01*
X094775Y047975D01*
X092516Y047975D01*
X096150Y045350D02*
X096150Y043038D01*
X096275Y042315D01*
X097650Y040600D02*
X105338Y040600D01*
X106025Y041100D02*
X105400Y041850D01*
X105400Y047225D01*
X106025Y048850D01*
X106025Y050975D01*
X105088Y053225D01*
X105088Y057538D01*
X105275Y058100D01*
X106275Y058100D02*
X107650Y058975D01*
X111275Y058975D01*
X111275Y057475D02*
X111900Y056975D01*
X111775Y056225D02*
X113025Y056225D01*
X111775Y056225D02*
X110650Y056975D01*
X110900Y056225D02*
X111463Y055475D01*
X112588Y054225D01*
X115150Y054225D01*
X116150Y054475D01*
X116900Y054475D01*
X117775Y055350D01*
X118900Y054975D01*
X120400Y054975D01*
X121025Y056100D01*
X122150Y056225D02*
X122150Y055100D01*
X122275Y054350D02*
X118025Y054350D01*
X116775Y053725D01*
X116525Y052975D01*
X115150Y052975D01*
X114275Y053725D01*
X112400Y053725D01*
X111025Y054475D01*
X109900Y054350D02*
X110463Y055475D01*
X110150Y056225D02*
X110900Y056225D01*
X110150Y056225D02*
X109275Y055850D01*
X109275Y054975D01*
X109275Y055850D02*
X107775Y055850D01*
X107150Y057600D01*
X106275Y058100D02*
X106275Y056975D01*
X104525Y058788D02*
X105588Y059850D01*
X112525Y059850D01*
X113775Y058600D01*
X115025Y058600D02*
X113150Y060475D01*
X105025Y060475D01*
X103963Y059413D01*
X103963Y052538D01*
X104588Y050975D01*
X104588Y048975D01*
X105400Y048600D02*
X104650Y047788D01*
X103900Y047225D02*
X103650Y048225D01*
X103650Y048850D01*
X104025Y049725D01*
X104025Y050850D01*
X102900Y051975D01*
X099900Y051975D01*
X099525Y052350D01*
X099525Y053975D01*
X098775Y054725D01*
X097775Y054725D01*
X097775Y053725D02*
X096463Y053725D01*
X094025Y053725D01*
X098900Y048225D02*
X098400Y047725D01*
X098400Y046350D01*
X098900Y048225D02*
X100263Y048225D01*
X101400Y047475D01*
X102525Y047475D01*
X103900Y047225D02*
X103900Y043475D01*
X106088Y043725D02*
X106150Y042975D01*
X106338Y042350D01*
X106088Y043725D02*
X106088Y047475D01*
X107400Y051225D01*
X107400Y053100D01*
X108150Y053725D01*
X109900Y054350D01*
X109525Y053225D02*
X113150Y053225D01*
X113900Y052975D01*
X113400Y054725D02*
X113025Y054975D01*
X113400Y054725D02*
X115400Y054725D01*
X116525Y054975D01*
X117525Y056475D01*
X117775Y055975D02*
X117775Y055350D01*
X117775Y055975D02*
X118150Y056975D01*
X118900Y056725D02*
X118900Y058725D01*
X117525Y058725D01*
X118900Y058725D02*
X122275Y058725D01*
X122275Y057600D02*
X122900Y056975D01*
X122150Y056225D02*
X123775Y056225D01*
X124150Y056975D01*
X124775Y056225D02*
X124900Y055475D01*
X124400Y054725D02*
X129650Y054725D01*
X130400Y056913D01*
X130900Y053975D02*
X126900Y053975D01*
X125775Y053975D02*
X123525Y054350D01*
X123275Y054600D01*
X123775Y055475D02*
X124400Y054725D01*
X124650Y053663D02*
X126525Y052913D01*
X127900Y051975D01*
X128775Y050975D01*
X128775Y049975D01*
X127900Y049100D01*
X123463Y049100D01*
X122525Y049850D02*
X121150Y050225D01*
X118650Y050225D01*
X117775Y051100D01*
X116775Y051100D01*
X116025Y051350D01*
X115150Y051350D01*
X114650Y050475D01*
X113650Y050475D02*
X113400Y049850D01*
X109900Y049850D01*
X108650Y050850D01*
X109400Y051600D02*
X110025Y051225D01*
X111900Y051225D01*
X113275Y051475D01*
X111650Y052475D02*
X109025Y052475D01*
X108400Y052725D01*
X105400Y050975D02*
X105400Y048600D01*
X107065Y047330D02*
X111985Y047330D01*
X116525Y049225D02*
X122025Y049225D01*
X122525Y049850D02*
X126650Y049850D01*
X126900Y050475D01*
X127400Y051475D02*
X125150Y052975D01*
X123900Y052975D01*
X117400Y052975D01*
X118150Y052225D02*
X124900Y052225D01*
X125900Y051350D02*
X119025Y051350D01*
X119025Y053663D02*
X124650Y053663D01*
X127650Y053100D02*
X129775Y053100D01*
X118650Y055850D02*
X118900Y056725D01*
X115900Y061475D02*
X114525Y061475D01*
X115900Y061475D02*
X115900Y062725D01*
X104525Y058788D02*
X104525Y052975D01*
X105400Y050975D01*
X109525Y043100D02*
X113025Y043100D01*
X091900Y060350D02*
X091900Y061475D01*
X093025Y061475D01*
X119525Y078100D02*
X120150Y078100D01*
X119525Y078100D02*
X119525Y078725D01*
X119525Y081100D02*
X119525Y081725D01*
X118775Y081725D01*
X116900Y081725D02*
X115900Y081725D01*
X115900Y080725D01*
X126275Y078100D02*
X126775Y078100D01*
X126775Y078475D01*
X126775Y081225D02*
X126775Y081725D01*
X128150Y081725D01*
X129150Y083975D01*
X131900Y083975D01*
X131900Y079975D01*
X132525Y079975D01*
X135150Y079975D02*
X135900Y079975D01*
X135900Y078725D01*
X057213Y034475D02*
X057213Y029225D01*
X046088Y029225D01*
X046088Y030225D02*
X046088Y034413D01*
X044150Y037225D02*
X040900Y037225D01*
D51*
X046088Y034413D03*
X046088Y030225D03*
X046088Y029225D03*
X046463Y027850D03*
X050963Y027850D03*
X041025Y027975D03*
X039025Y029975D03*
D52*
X041025Y027975D01*
X113025Y054975D02*
X113025Y056225D01*
X117525Y056475D02*
X117525Y058725D01*
X122275Y058725D02*
X122275Y057600D01*
X124775Y056225D02*
X124775Y058975D01*
D53*
X117400Y052975D03*
D54*
X114775Y055475D02*
X115025Y056475D01*
X113775Y056413D02*
X113588Y055475D01*
X058150Y030100D02*
X058150Y027100D01*
D55*
X092650Y023475D03*
X093650Y019475D03*
X131150Y019475D03*
X135150Y023475D03*
X092650Y060725D03*
X116650Y080975D03*
X131150Y083225D03*
X135150Y079225D03*
M02*
