%
M48
M72
T01C0.0315
T02C0.0320
T03C0.0354
T04C0.0394
T05C0.0400
T06C0.0440
T07C0.0470
T08C0.0472
T09C0.0520
T10C0.0551
T11C0.0591
T12C0.0710
T13C0.0787
T14C0.1220
T15C0.1260
T16C0.1300
T17C0.1614
T18C0.1969
T19C0.4724
%
T01
X25650Y21150
X22025Y23775
X30275Y23775
X53650Y24775
X53650Y25775
X53650Y26775
X55463Y27713
X53650Y28525
X53650Y29525
X53650Y30525
X55463Y29650
X57650Y30025
X57650Y29025
X57650Y27275
X57650Y26275
X57650Y25275
X57650Y31025
X57650Y32775
X57650Y33775
X57650Y34775
X53650Y34275
X53650Y33275
X53650Y32275
X66400Y32275
X66400Y33275
X66400Y34275
X66400Y30525
X66400Y29525
X66400Y28525
X66400Y26775
X66400Y25775
X66400Y24775
X69650Y16275
X68900Y15775
X69650Y15275
X79713Y24088
X80713Y24088
X81713Y24088
X81713Y26088
X80713Y26088
X79713Y26088
X79713Y29088
X80713Y29088
X81713Y29088
X96025Y20025
X102025Y20400
X102025Y22400
X97025Y16025
X116025Y19400
X116025Y23400
X118900Y26400
X120025Y27525
X121150Y27525
X122150Y27525
X123150Y27525
X124150Y27525
X125150Y27525
X125650Y28775
X123650Y26025
X122650Y26025
X121650Y26025
X119400Y28775
X118150Y29275
X118150Y31150
X120025Y32525
X121150Y32525
X122150Y32525
X123150Y32525
X124150Y32525
X125150Y32525
X128963Y32275
X121400Y31150
X132025Y26525
X136400Y26525
X138525Y20025
X134525Y16025
X109900Y33400
X105650Y36400
X108713Y37150
X112900Y39650
X116400Y39650
X108025Y44338
X107963Y45525
X112025Y47400
X112775Y48150
X111775Y49275
X112900Y49775
X112650Y51525
X112650Y52400
X113838Y52025
X114838Y52025
X115838Y52025
X116963Y52025
X118150Y52025
X119088Y52025
X121400Y50900
X122400Y50213
X121525Y48775
X120775Y49525
X122400Y47900
X119900Y45775
X119025Y47025
X118025Y47025
X117025Y47025
X116025Y47025
X115025Y47025
X113900Y47025
X112650Y45775
X115650Y45775
X116650Y48025
X117275Y49525
X115025Y49025
X114400Y51025
X109650Y51025
X109650Y52025
X109650Y53525
X110525Y54150
X108650Y54650
X109650Y55775
X106650Y55775
X106650Y53525
X106650Y52025
X106650Y51025
X106588Y49650
X109588Y49650
X99838Y50275
X97400Y50275
X99650Y54650
X99650Y56650
X96025Y57275
X95891Y44525
X99525Y39588
X101025Y37150
X98400Y34400
X97650Y33025
X99338Y32025
X98400Y31588
X99338Y30025
X125400Y45775
X126838Y45650
X127275Y47025
X128275Y47025
X129275Y47025
X129275Y47900
X128275Y48775
X127275Y49525
X129150Y50525
X130275Y50525
X129900Y49463
X131025Y49650
X133150Y49650
X134275Y50525
X131338Y52025
X130400Y52025
X129400Y52025
X128275Y52025
X127150Y52025
X126150Y52025
X125650Y50900
X124400Y52650
X122025Y52400
X128150Y55525
X130775Y48025
X130275Y47025
X131275Y47025
X126150Y47025
X138525Y75775
X134525Y79775
X120025Y77525
X71150Y60025
X70400Y59525
X71150Y59025
X46856Y52525
X34400Y48025
X34400Y47025
X33400Y47025
X33400Y46025
X34400Y46025
X34400Y45025
X33400Y45025
X33400Y44025
X34400Y44025
X23775Y45900
X35900Y62650
X37900Y62650
X38400Y76150
X40400Y76150
T02
X36400Y75650
X35400Y75650
X26275Y72900
X26275Y70900
X45838Y67463
X46525Y68900
X46525Y69900
X46525Y71825
X46525Y73225
X48838Y67463
X51588Y66213
X51588Y64213
X54525Y65900
X57525Y65900
X57350Y75838
X55450Y75838
X42975Y55275
X41575Y55275
X42025Y49150
X41025Y49150
X43025Y49150
X44025Y49150
X45025Y49150
X46025Y49150
X47025Y49150
X48025Y49150
X48025Y46150
X47025Y46150
X46025Y46150
X45025Y46150
X44025Y46150
X43025Y46150
X42025Y46150
X41025Y46150
X71525Y13775
X74525Y13775
X100775Y29025
X100775Y30025
X100775Y31025
X100775Y32025
X100775Y33025
X100775Y34025
X100775Y35025
X100775Y36025
X103775Y36025
X103775Y35025
X103775Y34025
X103775Y33025
X103775Y32025
X103775Y31025
X103775Y30025
X103775Y29025
X105025Y29150
X105025Y28150
X105025Y30150
X105025Y31150
X105025Y32150
X105025Y33150
X105025Y34150
X105025Y35150
X108025Y35150
X108025Y34150
X108025Y33150
X108025Y32150
X108025Y31150
X108025Y30150
X108025Y29150
X108025Y28150
X106525Y26400
X106525Y25400
X106525Y24400
X106525Y23400
X106525Y22400
X106525Y21400
X106525Y20400
X106525Y19400
X103525Y19400
X103525Y20400
X103525Y21400
X103525Y22400
X103525Y23400
X103525Y24400
X103525Y25400
X103525Y26400
X111400Y25025
X111400Y24025
X111400Y23025
X111400Y22025
X111400Y21025
X111400Y20025
X111400Y19025
X111400Y18025
X114400Y18025
X114400Y19025
X114400Y20025
X114400Y21025
X114400Y22025
X114400Y23025
X114400Y24025
X114400Y25025
X130150Y33150
X131150Y33150
X130838Y39900
X131838Y39900
X126275Y39900
X125275Y39900
X111525Y39525
X109525Y39525
X105900Y39025
X105900Y38025
X105900Y40025
X105900Y41025
X105900Y42025
X105900Y43025
X105900Y44025
X102900Y44025
X102900Y43025
X102900Y42025
X102900Y41025
X102900Y40025
X102900Y39025
X102900Y38025
X104150Y49275
X104150Y50275
X104150Y51275
X104150Y52275
X104150Y53275
X104150Y54275
X104150Y55275
X104150Y56275
X105650Y55400
X101150Y55275
X101150Y54275
X101150Y53275
X101150Y52275
X101150Y51275
X101150Y50275
X101150Y49275
X105650Y49400
X111525Y53525
X111525Y54525
X112775Y54525
X112775Y53525
X114025Y53525
X114025Y54525
X115275Y54525
X115275Y53525
X116525Y53463
X116525Y54588
X117775Y54588
X117775Y53463
X119025Y53463
X119025Y54588
X120275Y54525
X120275Y53525
X121525Y53525
X121525Y54525
X123775Y54525
X123775Y53525
X125025Y53525
X125025Y54525
X126275Y54525
X126275Y53525
X127525Y53525
X127525Y54525
X128775Y54588
X128775Y53463
X130025Y53463
X130025Y54588
X131275Y54588
X131275Y53463
X132525Y53525
X132525Y54525
X133775Y54588
X133775Y53463
X130025Y68400
X130025Y70400
X101150Y56275
T03
X132150Y67525
X133150Y67525
X132900Y74525
X132900Y75525
X49275Y57650
X48275Y57650
X46025Y57525
X45025Y57525
T04
X39275Y59275
X39275Y61275
X39275Y63275
X39275Y65275
X39275Y67275
X39275Y69275
X39275Y71275
X39275Y73275
X43775Y72400
X43775Y71400
X43775Y70400
X36025Y77650
X33900Y77650
X29275Y73275
X26150Y68025
X26150Y66025
X23275Y66025
X29275Y65275
X29275Y63275
X29275Y61275
X29275Y59275
X29400Y56775
X28400Y56775
X30400Y56775
X34275Y56525
X35275Y56525
X36275Y56525
X27400Y50525
X25400Y50525
X25400Y45900
X23775Y41525
X27775Y41525
X27775Y34275
X23775Y34275
X20025Y34400
X17275Y33150
X17275Y32150
X17275Y31150
X17275Y25900
X17275Y24900
X17275Y23900
X24150Y27025
X28150Y27025
X17275Y38400
X17275Y39400
X17275Y40400
X17025Y59775
X23275Y59775
X17025Y66025
X51095Y79358
X51095Y80396
X52142Y80396
X52142Y79358
X77275Y69025
X77275Y66025
X128400Y63775
X132400Y63775
X132400Y58775
X128400Y58775
T05
X125025Y57900
X125025Y63900
X137025Y63025
X137025Y57025
X129650Y40150
X129650Y39150
X128650Y39150
X128650Y40150
X100525Y41900
X99525Y41900
X99525Y42900
X100525Y42900
X100525Y43900
X99525Y43900
X47400Y62650
X47400Y64650
X43150Y65275
X43150Y66275
X43150Y67275
X43150Y61400
X43150Y60400
X43150Y59400
X26275Y59400
X21650Y60025
X18900Y60025
X26275Y63400
X21650Y66025
X18900Y66025
X27495Y78775
X28575Y78775
X29655Y78775
X30735Y78775
X31815Y78775
X32895Y78775
X33975Y78775
X35055Y78775
X34515Y79775
X33435Y79775
X32355Y79775
X31275Y79775
X30195Y79775
X29115Y79775
X28035Y79775
X29275Y47150
X29275Y46150
X29275Y45150
X30275Y45150
X30275Y46150
X30275Y47150
X20775Y42150
X22775Y39400
X22775Y37275
X20775Y36150
X22051Y34219
X22775Y32150
X22775Y30025
X19999Y28581
X20900Y27025
X23150Y24900
X23150Y22650
X20900Y21025
X26995Y19900
X28075Y19900
X29155Y19900
X30235Y19900
X31315Y19900
X32395Y19900
X33475Y19900
X34555Y19900
X34015Y18900
X32935Y18900
X31855Y18900
X30775Y18900
X29695Y18900
X28615Y18900
X27535Y18900
X29150Y22650
X29150Y24900
X28775Y30025
X28775Y32150
X28775Y37275
X28775Y39400
T06
X24150Y50525
X20400Y50525
X16400Y50525
X24150Y54525
X38275Y66525
X38275Y70525
X119276Y50254
X120774Y46546
T07
X121860Y43880
X123440Y43880
X123440Y41920
X121860Y41920
X116940Y41920
X115360Y41920
X115360Y43880
X116940Y43880
X110440Y43880
X110440Y41920
X110440Y37380
X110440Y35420
X115360Y35420
X116940Y35420
X116940Y37380
X115360Y37380
X121860Y37380
X121860Y35420
X123468Y35353
X124853Y33968
X128332Y37447
X129968Y37447
X131353Y38832
X129940Y41920
X128360Y41920
X128360Y43880
X129940Y43880
X134860Y43880
X134860Y41920
X126947Y38832
X133447Y33968
X134832Y35353
X133447Y32332
X134832Y30947
X129968Y28853
X131353Y27468
X129940Y24380
X128360Y24380
X128360Y22420
X129940Y22420
X134860Y22420
X134860Y24380
X123440Y24380
X121860Y24380
X121860Y22420
X123440Y22420
X116940Y22420
X116940Y24380
X121275Y58775
X121275Y60775
X121275Y62775
X121275Y64775
X21400Y45900
X21400Y43900
X17025Y43900
X17025Y45900
X18150Y52275
X18150Y54275
T08
X38838Y52525
X120050Y67525
X122050Y67525
X126250Y67525
X128250Y67525
X128250Y71525
X126250Y71525
X122050Y71525
X120050Y71525
X135025Y68525
X138025Y68525
X138025Y66525
X138025Y64525
X135025Y64525
X135025Y66525
X135025Y74525
X138025Y74525
T09
X24775Y56775
X21835Y56775
X18885Y56775
X15935Y56775
T10
X40867Y18934
X39867Y17942
X42831Y17946
X44804Y18938
X45776Y17942
X48242Y17942
X49242Y18934
X51206Y17946
X53179Y18938
X54151Y17942
X53182Y14012
X52197Y14012
X50226Y14012
X49242Y14012
X44807Y14012
X43822Y14012
X41851Y14012
X40867Y14012
T11
X131900Y71838
X121088Y74150
X54020Y81400
X49280Y81400
T12
X34275Y52625
X28775Y52625
X18925Y39400
X18925Y32150
X18925Y24900
X112900Y34630
X112900Y38170
X112900Y41130
X112900Y44670
X119400Y44670
X119400Y41130
X119400Y38170
X119400Y34630
X124648Y37652
X127152Y35148
X131148Y35148
X133652Y37652
X132400Y41130
X132400Y44670
X125900Y44670
X125900Y41130
X131148Y31152
X133652Y28648
X132400Y25170
X132400Y21630
X125900Y21630
X125900Y25170
X119400Y25170
X119400Y21630
T13
X22525Y71650
X17775Y71650
T14
X97650Y39275
X109025Y26025
X122400Y39650
X135025Y39275
T15
X133252Y17376
X98213Y17376
X133252Y78400
T16
X24215Y19400
X37335Y19400
X37835Y79275
X24715Y79275
T17
X98084Y46650
X105564Y46650
T18
X101824Y46650
T19
X112900Y29900
M30
