G75*
G70*
%OFA0B0*%
%FSLAX24Y24*%
%IPPOS*%
%LPD*%
%AMOC8*
5,1,8,0,0,1.08239X$1,22.5*
%
%ADD10C,0.0060*%
%ADD11C,0.0051*%
%ADD12C,0.0110*%
%ADD13C,0.0150*%
%ADD14C,0.0748*%
%ADD15C,0.0753*%
%ADD16C,0.1000*%
%ADD17OC8,0.0833*%
%ADD18OC8,0.0793*%
%ADD19C,0.0827*%
%ADD20C,0.0151*%
%ADD21C,0.0753*%
%ADD22C,0.0827*%
%ADD23C,0.0906*%
%ADD24C,0.0787*%
%ADD25R,0.0551X0.0709*%
%ADD26C,0.0100*%
%ADD27OC8,0.0753*%
%ADD28R,0.0903X0.0903*%
%ADD29R,0.0903X0.0903*%
%ADD30C,0.0833*%
%ADD31C,0.0873*%
%ADD32C,0.1181*%
%ADD33C,0.0760*%
%ADD34C,0.1143*%
%ADD35C,0.1000*%
%ADD36OC8,0.1000*%
%ADD37C,0.0833*%
%ADD38R,0.0753X0.0753*%
%ADD39C,0.1575*%
%ADD40C,0.1181*%
%ADD41R,0.0472X0.0709*%
%ADD42C,0.1102*%
%ADD43R,0.1102X0.1102*%
%ADD44C,0.0903*%
%ADD45R,0.1000X0.1000*%
%ADD46R,0.1575X0.1575*%
%ADD47C,0.1969*%
%ADD48C,0.0984*%
%ADD49C,0.0787*%
%ADD50C,0.0200*%
%ADD51C,0.1063*%
%ADD52C,0.0906*%
%ADD53C,0.0160*%
%ADD54C,0.0910*%
%ADD55C,0.0500*%
%ADD56C,0.0240*%
%ADD57C,0.0860*%
%ADD58C,0.0120*%
%ADD59OC8,0.0827*%
%ADD60C,0.0320*%
%ADD61R,0.1500X0.1500*%
D10*
X052555Y037930D02*
X052875Y037930D01*
X052982Y038037D01*
X052875Y038144D01*
X052662Y038144D01*
X052555Y038250D01*
X052662Y038357D01*
X052982Y038357D01*
X053200Y038464D02*
X053306Y038571D01*
X053520Y038571D01*
X053627Y038464D01*
X053627Y038357D01*
X053200Y037930D01*
X053627Y037930D01*
X050502Y039055D02*
X050075Y039055D01*
X050288Y039055D02*
X050288Y039696D01*
X050075Y039482D01*
X049857Y039482D02*
X049537Y039482D01*
X049430Y039375D01*
X049537Y039269D01*
X049750Y039269D01*
X049857Y039162D01*
X049750Y039055D01*
X049430Y039055D01*
X044019Y039875D02*
X043805Y039875D01*
X043912Y040089D02*
X044019Y040196D01*
X043912Y040089D02*
X043912Y039555D01*
X060680Y039482D02*
X061000Y039482D01*
X061107Y039375D01*
X061107Y039162D01*
X061000Y039055D01*
X060680Y039055D01*
X060680Y038841D02*
X060680Y039482D01*
X061325Y039482D02*
X061325Y039055D01*
X061325Y039269D02*
X061538Y039482D01*
X061645Y039482D01*
X108555Y037821D02*
X108555Y037180D01*
X108555Y037500D02*
X108769Y037500D01*
X108555Y037821D02*
X108982Y037821D01*
X109306Y037607D02*
X109520Y037607D01*
X109627Y037500D01*
X109627Y037180D01*
X109306Y037180D01*
X109200Y037287D01*
X109306Y037394D01*
X109627Y037394D01*
X109844Y037607D02*
X110164Y037607D01*
X110271Y037500D01*
X110271Y037180D01*
X109844Y037180D02*
X109844Y037607D01*
X114555Y037607D02*
X114662Y037500D01*
X114875Y037500D01*
X114982Y037394D01*
X114982Y037287D01*
X114875Y037180D01*
X114662Y037180D01*
X114555Y037287D01*
X114555Y037607D02*
X114555Y037714D01*
X114662Y037821D01*
X114875Y037821D01*
X114982Y037714D01*
X115200Y037607D02*
X115520Y037607D01*
X115627Y037500D01*
X115627Y037287D01*
X115520Y037180D01*
X115200Y037180D01*
X115200Y036966D02*
X115200Y037607D01*
X115844Y037500D02*
X115951Y037607D01*
X116164Y037607D01*
X116271Y037500D01*
X116271Y037394D01*
X115844Y037394D01*
X115844Y037500D02*
X115844Y037287D01*
X115951Y037180D01*
X116164Y037180D01*
X116489Y037287D02*
X116489Y037500D01*
X116595Y037607D01*
X116809Y037607D01*
X116916Y037500D01*
X116916Y037394D01*
X116489Y037394D01*
X116489Y037287D02*
X116595Y037180D01*
X116809Y037180D01*
X117133Y037287D02*
X117133Y037500D01*
X117240Y037607D01*
X117560Y037607D01*
X117560Y037821D02*
X117560Y037180D01*
X117240Y037180D01*
X117133Y037287D01*
X121180Y037368D02*
X121180Y038008D01*
X121500Y038008D01*
X121607Y037901D01*
X121607Y037688D01*
X121500Y037581D01*
X121180Y037581D01*
X121825Y037581D02*
X122038Y037795D01*
X122145Y037795D01*
X122362Y037688D02*
X122468Y037795D01*
X122682Y037795D01*
X122789Y037688D01*
X122789Y037581D01*
X122362Y037581D01*
X122362Y037474D02*
X122362Y037688D01*
X122362Y037474D02*
X122468Y037368D01*
X122682Y037368D01*
X123006Y037368D02*
X123006Y038008D01*
X123113Y037795D02*
X123326Y037795D01*
X123433Y037688D01*
X123433Y037368D01*
X123006Y037688D02*
X123113Y037795D01*
X121825Y037795D02*
X121825Y037368D01*
X127493Y037599D02*
X127599Y037493D01*
X127813Y037493D01*
X127920Y037599D01*
X127920Y037706D01*
X127813Y037813D01*
X127599Y037813D01*
X127493Y037920D01*
X127493Y038026D01*
X127599Y038133D01*
X127813Y038133D01*
X127920Y038026D01*
X128137Y037920D02*
X128457Y037920D01*
X128564Y037813D01*
X128564Y037599D01*
X128457Y037493D01*
X128137Y037493D01*
X128137Y037279D02*
X128137Y037920D01*
X128368Y037321D02*
X128368Y036680D01*
X128795Y036680D01*
X129012Y036680D02*
X129439Y037107D01*
X129657Y037107D02*
X129870Y037107D01*
X129763Y037214D02*
X129763Y036787D01*
X129870Y036680D01*
X129439Y036680D02*
X129012Y037107D01*
X128795Y037321D02*
X128368Y037321D01*
X128368Y037000D02*
X128581Y037000D01*
X128888Y037493D02*
X128782Y037599D01*
X128782Y037813D01*
X128888Y037920D01*
X129102Y037920D01*
X129209Y037813D01*
X129209Y037706D01*
X128782Y037706D01*
X128888Y037493D02*
X129102Y037493D01*
X129426Y037599D02*
X129426Y037813D01*
X129533Y037920D01*
X129746Y037920D01*
X129853Y037813D01*
X129853Y037706D01*
X129426Y037706D01*
X129426Y037599D02*
X129533Y037493D01*
X129746Y037493D01*
X130071Y037599D02*
X130071Y037813D01*
X130177Y037920D01*
X130498Y037920D01*
X130498Y038133D02*
X130498Y037493D01*
X130177Y037493D01*
X130071Y037599D01*
X129019Y043537D02*
X129019Y043964D01*
X129232Y043750D02*
X128805Y043750D01*
X122857Y043875D02*
X122430Y043875D01*
X116232Y043875D02*
X115805Y043875D01*
X116019Y043662D02*
X116019Y044089D01*
X109732Y043875D02*
X109305Y043875D01*
X127180Y031089D02*
X127180Y030982D01*
X127287Y030875D01*
X127500Y030875D01*
X127607Y030769D01*
X127607Y030662D01*
X127500Y030555D01*
X127287Y030555D01*
X127180Y030662D01*
X127180Y031089D02*
X127287Y031196D01*
X127500Y031196D01*
X127607Y031089D01*
X127825Y030875D02*
X127825Y030662D01*
X127931Y030555D01*
X128145Y030555D01*
X128252Y030662D01*
X128252Y030875D01*
X128145Y030982D01*
X127931Y030982D01*
X127825Y030875D01*
X128469Y030555D02*
X128683Y030555D01*
X128576Y030555D02*
X128576Y031196D01*
X128469Y031196D01*
X128899Y030875D02*
X129006Y030982D01*
X129326Y030982D01*
X129326Y031196D02*
X129326Y030555D01*
X129006Y030555D01*
X128899Y030662D01*
X128899Y030875D01*
X129543Y030875D02*
X129543Y030662D01*
X129650Y030555D01*
X129864Y030555D01*
X129970Y030769D02*
X129543Y030769D01*
X129543Y030875D02*
X129650Y030982D01*
X129864Y030982D01*
X129970Y030875D01*
X129970Y030769D01*
X130188Y030769D02*
X130401Y030982D01*
X130508Y030982D01*
X130725Y031089D02*
X130832Y031196D01*
X131045Y031196D01*
X131152Y031089D01*
X131152Y030982D01*
X130725Y030555D01*
X131152Y030555D01*
X130188Y030555D02*
X130188Y030982D01*
X129701Y024821D02*
X129701Y024180D01*
X129381Y024180D01*
X129274Y024287D01*
X129274Y024500D01*
X129381Y024607D01*
X129701Y024607D01*
X129918Y024500D02*
X130025Y024607D01*
X130239Y024607D01*
X130345Y024500D01*
X130345Y024394D01*
X129918Y024394D01*
X129918Y024500D02*
X129918Y024287D01*
X130025Y024180D01*
X130239Y024180D01*
X130563Y024180D02*
X130563Y024607D01*
X130563Y024394D02*
X130776Y024607D01*
X130883Y024607D01*
X129058Y024180D02*
X128844Y024180D01*
X128951Y024180D02*
X128951Y024821D01*
X128844Y024821D01*
X128627Y024500D02*
X128520Y024607D01*
X128306Y024607D01*
X128200Y024500D01*
X128200Y024287D01*
X128306Y024180D01*
X128520Y024180D01*
X128627Y024287D01*
X128627Y024500D01*
X127982Y024394D02*
X127982Y024287D01*
X127875Y024180D01*
X127662Y024180D01*
X127555Y024287D01*
X127662Y024500D02*
X127875Y024500D01*
X127982Y024394D01*
X127982Y024714D02*
X127875Y024821D01*
X127662Y024821D01*
X127555Y024714D01*
X127555Y024607D01*
X127662Y024500D01*
X122732Y024375D02*
X122305Y024375D01*
X122519Y024162D02*
X122519Y024589D01*
X116232Y024375D02*
X115805Y024375D01*
D11*
X011900Y013025D02*
X011900Y010978D01*
X011951Y012001D02*
X011900Y013025D01*
X012002Y012001D01*
X012026Y012001D02*
X011900Y013025D01*
X011798Y012001D01*
X011774Y012001D02*
X012026Y012001D01*
X011849Y012001D02*
X011900Y013025D01*
X011774Y012001D01*
X011113Y013025D02*
X013775Y013025D01*
X021650Y009150D02*
X021650Y003988D01*
X021650Y004775D02*
X022674Y004673D01*
X022674Y004649D02*
X021650Y004775D01*
X022674Y004877D01*
X022674Y004901D02*
X022674Y004649D01*
X022674Y004724D02*
X021650Y004775D01*
X022674Y004826D01*
X022674Y004901D02*
X021650Y004775D01*
X059900Y004775D01*
X058876Y004673D01*
X058876Y004649D02*
X059900Y004775D01*
X058876Y004877D01*
X058876Y004901D02*
X058876Y004649D01*
X058876Y004724D02*
X059900Y004775D01*
X058876Y004826D01*
X058876Y004901D02*
X059900Y004775D01*
X059900Y003988D02*
X059900Y011275D01*
X054482Y009525D02*
X048525Y009525D01*
X049549Y009423D01*
X049549Y009399D02*
X048525Y009525D01*
X049549Y009627D01*
X049549Y009651D02*
X049549Y009399D01*
X049549Y009474D02*
X048525Y009525D01*
X049549Y009576D01*
X049549Y009651D02*
X048525Y009525D01*
X048525Y008738D02*
X048525Y012088D01*
X043744Y011931D02*
X043744Y008738D01*
X043744Y009525D02*
X042720Y009423D01*
X042720Y009399D02*
X043744Y009525D01*
X042720Y009627D01*
X042720Y009651D02*
X042720Y009399D01*
X042720Y009474D02*
X043744Y009525D01*
X042720Y009576D01*
X042720Y009651D02*
X043744Y009525D01*
X041697Y009525D01*
X049775Y002650D02*
X050799Y002548D01*
X050799Y002524D02*
X049775Y002650D01*
X050799Y002752D01*
X050799Y002776D02*
X050799Y002524D01*
X050799Y002599D02*
X049775Y002650D01*
X050799Y002701D01*
X050799Y002776D02*
X049775Y002650D01*
X056275Y002650D01*
X055251Y002548D01*
X055251Y002524D02*
X056275Y002650D01*
X055251Y002752D01*
X055251Y002776D02*
X055251Y002524D01*
X055251Y002599D02*
X056275Y002650D01*
X055251Y002701D01*
X055251Y002776D02*
X056275Y002650D01*
X056275Y001863D02*
X056275Y097150D01*
X054025Y093437D02*
X054025Y082775D01*
X056400Y085525D02*
X062437Y085525D01*
X061650Y085525D02*
X061752Y086549D01*
X061776Y086549D02*
X061650Y085525D01*
X061548Y086549D01*
X061524Y086549D02*
X061776Y086549D01*
X061701Y086549D02*
X061650Y085525D01*
X061599Y086549D01*
X061524Y086549D02*
X061650Y085525D01*
X061650Y090386D01*
X064001Y090377D02*
X065025Y090275D01*
X064001Y090173D01*
X064001Y090149D02*
X065025Y090275D01*
X064001Y090224D01*
X064001Y090149D02*
X064001Y090401D01*
X065025Y090275D01*
X064001Y090326D01*
X065025Y090275D02*
X016650Y090275D01*
X017674Y090173D01*
X017674Y090149D02*
X016650Y090275D01*
X017674Y090377D01*
X017674Y090401D02*
X017674Y090149D01*
X017674Y090224D02*
X016650Y090275D01*
X017674Y090326D01*
X017674Y090401D02*
X016650Y090275D01*
X016650Y091062D02*
X016650Y080525D01*
X012276Y083251D02*
X012150Y084275D01*
X012252Y083251D01*
X012276Y083251D02*
X012024Y083251D01*
X012150Y084275D01*
X012048Y083251D01*
X012099Y083251D02*
X012150Y084275D01*
X012201Y083251D01*
X012150Y084275D02*
X012150Y074275D01*
X012252Y075299D01*
X012276Y075299D02*
X012150Y074275D01*
X012048Y075299D01*
X012024Y075299D02*
X012276Y075299D01*
X012201Y075299D02*
X012150Y074275D01*
X012099Y075299D01*
X012024Y075299D02*
X012150Y074275D01*
X012275Y074275D02*
X011363Y074275D01*
X011363Y084275D02*
X016650Y084275D01*
X049150Y085400D02*
X072437Y085400D01*
X071650Y085400D02*
X071548Y086424D01*
X071524Y086424D02*
X071776Y086424D01*
X071650Y085400D01*
X071752Y086424D01*
X071701Y086424D02*
X071650Y085400D01*
X071599Y086424D01*
X071524Y086424D02*
X071650Y085400D01*
X071650Y091357D01*
X065025Y091062D02*
X065025Y080150D01*
X064900Y079775D02*
X064900Y093437D01*
X064900Y092650D02*
X063876Y092548D01*
X063876Y092524D02*
X064900Y092650D01*
X063876Y092752D01*
X063876Y092776D02*
X063876Y092524D01*
X063876Y092599D02*
X064900Y092650D01*
X063876Y092701D01*
X063876Y092776D02*
X064900Y092650D01*
X054025Y092650D01*
X055049Y092548D01*
X055049Y092524D02*
X054025Y092650D01*
X055049Y092752D01*
X055049Y092776D02*
X055049Y092524D01*
X055049Y092599D02*
X054025Y092650D01*
X055049Y092701D01*
X055049Y092776D02*
X054025Y092650D01*
X049775Y093150D02*
X049775Y001863D01*
X068275Y012900D02*
X071062Y012900D01*
X070275Y012900D02*
X070377Y013924D01*
X070401Y013924D02*
X070275Y012900D01*
X070173Y013924D01*
X070149Y013924D02*
X070401Y013924D01*
X070326Y013924D02*
X070275Y012900D01*
X070224Y013924D01*
X070149Y013924D02*
X070275Y012900D01*
X070275Y084150D01*
X070377Y083126D01*
X070401Y083126D02*
X070275Y084150D01*
X070173Y083126D01*
X070149Y083126D02*
X070401Y083126D01*
X070326Y083126D02*
X070275Y084150D01*
X070224Y083126D01*
X070149Y083126D02*
X070275Y084150D01*
X071062Y084150D02*
X063963Y084150D01*
X062437Y084275D02*
X060400Y084275D01*
X061650Y084275D02*
X061752Y083251D01*
X061776Y083251D02*
X061650Y084275D01*
X061548Y083251D01*
X061524Y083251D02*
X061776Y083251D01*
X061701Y083251D02*
X061650Y084275D01*
X061599Y083251D01*
X061524Y083251D02*
X061650Y084275D01*
X061650Y082228D01*
X071650Y079400D02*
X071650Y077353D01*
X071701Y078376D02*
X071650Y079400D01*
X071752Y078376D01*
X071776Y078376D02*
X071650Y079400D01*
X071548Y078376D01*
X071524Y078376D02*
X071776Y078376D01*
X071599Y078376D02*
X071650Y079400D01*
X071524Y078376D01*
X072437Y079400D02*
X050025Y079400D01*
X014900Y059261D02*
X014900Y054400D01*
X015002Y055424D01*
X015026Y055424D02*
X014900Y054400D01*
X014798Y055424D01*
X014774Y055424D02*
X015026Y055424D01*
X014951Y055424D02*
X014900Y054400D01*
X014849Y055424D01*
X014774Y055424D02*
X014900Y054400D01*
X014113Y054400D02*
X021025Y054400D01*
X021650Y052400D02*
X014113Y052400D01*
X014900Y052400D02*
X015002Y051376D01*
X015026Y051376D02*
X014900Y052400D01*
X014798Y051376D01*
X014774Y051376D02*
X015026Y051376D01*
X014951Y051376D02*
X014900Y052400D01*
X014849Y051376D01*
X014774Y051376D02*
X014900Y052400D01*
X014900Y050353D01*
X014650Y041636D02*
X014650Y036775D01*
X014752Y037799D01*
X014776Y037799D02*
X014650Y036775D01*
X014548Y037799D01*
X014524Y037799D02*
X014776Y037799D01*
X014701Y037799D02*
X014650Y036775D01*
X014599Y037799D01*
X014524Y037799D02*
X014650Y036775D01*
X013863Y036775D02*
X019525Y036775D01*
X019150Y035025D02*
X013863Y035025D01*
X014650Y035025D02*
X014752Y034001D01*
X014776Y034001D02*
X014650Y035025D01*
X014548Y034001D01*
X014524Y034001D02*
X014776Y034001D01*
X014701Y034001D02*
X014650Y035025D01*
X014599Y034001D01*
X014524Y034001D02*
X014650Y035025D01*
X014650Y032978D01*
X012400Y034386D02*
X012400Y029525D01*
X012502Y030549D01*
X012526Y030549D02*
X012400Y029525D01*
X012298Y030549D01*
X012274Y030549D02*
X012526Y030549D01*
X012451Y030549D02*
X012400Y029525D01*
X012349Y030549D01*
X012274Y030549D02*
X012400Y029525D01*
X011613Y029525D02*
X020650Y029525D01*
X020275Y027775D02*
X011613Y027775D01*
X012400Y027775D02*
X012502Y026751D01*
X012526Y026751D02*
X012400Y027775D01*
X012298Y026751D01*
X012274Y026751D02*
X012526Y026751D01*
X012451Y026751D02*
X012400Y027775D01*
X012349Y026751D01*
X012274Y026751D02*
X012400Y027775D01*
X012400Y025728D01*
X011900Y024982D02*
X011900Y019025D01*
X012002Y020049D01*
X012026Y020049D02*
X011900Y019025D01*
X011798Y020049D01*
X011774Y020049D02*
X012026Y020049D01*
X011951Y020049D02*
X011900Y019025D01*
X011849Y020049D01*
X011774Y020049D02*
X011900Y019025D01*
X011113Y019025D02*
X018775Y019025D01*
X023595Y014026D02*
X023595Y013774D01*
X024619Y013900D01*
X023595Y013798D01*
X023595Y013849D02*
X024619Y013900D01*
X023595Y014002D01*
X023595Y014026D02*
X024619Y013900D01*
X023595Y013951D01*
X022572Y013900D02*
X024619Y013900D01*
X024619Y013113D02*
X024619Y024306D01*
X026650Y024338D02*
X026650Y013113D01*
X026650Y013900D02*
X027674Y013798D01*
X027674Y013774D02*
X026650Y013900D01*
X027674Y014002D01*
X027674Y014026D02*
X027674Y013774D01*
X027674Y013849D02*
X026650Y013900D01*
X027674Y013951D01*
X027674Y014026D02*
X026650Y013900D01*
X031511Y013900D01*
X135900Y078900D02*
X135900Y092562D01*
X135900Y091775D02*
X134876Y091673D01*
X134876Y091649D02*
X135900Y091775D01*
X134876Y091877D01*
X134876Y091901D02*
X134876Y091649D01*
X134876Y091724D02*
X135900Y091775D01*
X134876Y091826D01*
X134876Y091901D02*
X135900Y091775D01*
X124900Y091775D01*
X125924Y091673D01*
X125924Y091649D02*
X124900Y091775D01*
X125924Y091877D01*
X125924Y091901D02*
X125924Y091649D01*
X125924Y091724D02*
X124900Y091775D01*
X125924Y091826D01*
X125924Y091901D02*
X124900Y091775D01*
X124900Y092562D02*
X124900Y080900D01*
D12*
X127988Y092224D02*
X128834Y093070D01*
X128834Y093281D01*
X128623Y093493D01*
X128200Y093493D01*
X127988Y093281D01*
X127988Y092224D02*
X128834Y092224D01*
X129257Y092224D02*
X129257Y092435D01*
X130103Y093281D01*
X130103Y093493D01*
X129257Y093493D01*
X131160Y093281D02*
X131160Y093070D01*
X131372Y092858D01*
X132006Y092858D01*
X132006Y092435D02*
X132006Y093281D01*
X131795Y093493D01*
X131372Y093493D01*
X131160Y093281D01*
X131160Y092435D02*
X131372Y092224D01*
X131795Y092224D01*
X132006Y092435D01*
X132429Y092858D02*
X133275Y092858D01*
X133063Y092224D02*
X133063Y093493D01*
X132429Y092858D01*
X130737Y092435D02*
X130737Y092224D01*
X130526Y092224D01*
X130526Y092435D01*
X130737Y092435D01*
X071201Y091554D02*
X069932Y091554D01*
X070567Y090919D01*
X070567Y091765D01*
X070355Y090497D02*
X070144Y090497D01*
X069932Y090285D01*
X069932Y089862D01*
X070144Y089651D01*
X070355Y090497D02*
X071201Y089651D01*
X071201Y090497D01*
X071201Y089228D02*
X071201Y089016D01*
X070990Y089016D01*
X070990Y089228D01*
X071201Y089228D01*
X070990Y088593D02*
X071201Y088382D01*
X071201Y087959D01*
X070990Y087747D01*
X070567Y087747D02*
X070355Y088170D01*
X070355Y088382D01*
X070567Y088593D01*
X070990Y088593D01*
X070567Y087747D02*
X069932Y087747D01*
X069932Y088593D01*
X069932Y086902D02*
X071201Y086902D01*
X071201Y086479D02*
X071201Y087325D01*
X070355Y086479D02*
X069932Y086902D01*
X061201Y086815D02*
X060990Y086604D01*
X061201Y086815D02*
X061201Y087238D01*
X060990Y087450D01*
X060778Y087450D01*
X060567Y087238D01*
X060567Y087027D01*
X060567Y087238D02*
X060355Y087450D01*
X060144Y087450D01*
X059932Y087238D01*
X059932Y086815D01*
X060144Y086604D01*
X060990Y087872D02*
X060990Y088084D01*
X061201Y088084D01*
X061201Y087872D01*
X060990Y087872D01*
X061201Y088507D02*
X061201Y089353D01*
X061201Y088930D02*
X059932Y088930D01*
X060355Y088507D01*
X060355Y089776D02*
X060144Y089776D01*
X059932Y089987D01*
X059932Y090410D01*
X060144Y090622D01*
X060355Y090622D01*
X060567Y090410D01*
X060567Y089987D01*
X060355Y089776D01*
X060567Y089987D02*
X060778Y089776D01*
X060990Y089776D01*
X061201Y089987D01*
X061201Y090410D01*
X060990Y090622D01*
X060778Y090622D01*
X060567Y090410D01*
X060434Y093099D02*
X060857Y093099D01*
X061069Y093310D01*
X061069Y093522D01*
X060857Y093733D01*
X060223Y093733D01*
X060223Y093310D01*
X060434Y093099D01*
X059800Y093099D02*
X059588Y093099D01*
X059588Y093310D01*
X059800Y093310D01*
X059800Y093099D01*
X060223Y093733D02*
X060646Y094156D01*
X061069Y094368D01*
X061491Y094156D02*
X061703Y094368D01*
X062126Y094368D01*
X062337Y094156D01*
X062337Y093945D01*
X061491Y093099D01*
X062337Y093099D01*
X059165Y094156D02*
X058319Y093310D01*
X058319Y093099D01*
X057897Y093099D02*
X057051Y093099D01*
X057897Y093945D01*
X057897Y094156D01*
X057685Y094368D01*
X057262Y094368D01*
X057051Y094156D01*
X058319Y094368D02*
X059165Y094368D01*
X059165Y094156D01*
X044433Y091993D02*
X044433Y091781D01*
X043587Y090935D01*
X043587Y090724D01*
X043164Y090935D02*
X042953Y090724D01*
X042530Y090724D01*
X042318Y090935D01*
X042318Y091147D01*
X042530Y091358D01*
X042953Y091358D01*
X043164Y091147D01*
X043164Y090935D01*
X042953Y091358D02*
X043164Y091570D01*
X043164Y091781D01*
X042953Y091993D01*
X042530Y091993D01*
X042318Y091781D01*
X042318Y091570D01*
X042530Y091358D01*
X041895Y090935D02*
X041895Y090724D01*
X041684Y090724D01*
X041684Y090935D01*
X041895Y090935D01*
X041261Y090724D02*
X040415Y090724D01*
X041261Y091570D01*
X041261Y091781D01*
X041050Y091993D01*
X040626Y091993D01*
X040415Y091781D01*
X039992Y091781D02*
X039781Y091993D01*
X039358Y091993D01*
X039146Y091781D01*
X039992Y091781D02*
X039992Y091570D01*
X039146Y090724D01*
X039992Y090724D01*
X038723Y090724D02*
X037877Y090724D01*
X038300Y090724D02*
X038300Y091993D01*
X037877Y091570D01*
X043587Y091993D02*
X044433Y091993D01*
X011701Y081218D02*
X010432Y081218D01*
X011067Y080583D01*
X011067Y081429D01*
X011490Y080160D02*
X011701Y080160D01*
X011701Y079949D01*
X011490Y079949D01*
X011490Y080160D01*
X011490Y079526D02*
X011067Y079526D01*
X010855Y079315D01*
X010855Y079103D01*
X011067Y078680D01*
X010432Y078680D01*
X010432Y079526D01*
X011490Y079526D02*
X011701Y079315D01*
X011701Y078892D01*
X011490Y078680D01*
X011701Y078257D02*
X011701Y077411D01*
X010855Y078257D01*
X010644Y078257D01*
X010432Y078046D01*
X010432Y077623D01*
X010644Y077411D01*
X013394Y059497D02*
X013605Y059497D01*
X013817Y059285D01*
X013817Y058862D01*
X013605Y058651D01*
X013394Y058651D01*
X013182Y058862D01*
X013182Y059285D01*
X013394Y059497D01*
X013817Y059285D02*
X014028Y059497D01*
X014240Y059497D01*
X014451Y059285D01*
X014451Y058862D01*
X014240Y058651D01*
X014028Y058651D01*
X013817Y058862D01*
X014240Y058228D02*
X014451Y058016D01*
X014451Y057593D01*
X014240Y057382D01*
X013394Y058228D01*
X014240Y058228D01*
X014240Y057382D02*
X013394Y057382D01*
X013182Y057593D01*
X013182Y058016D01*
X013394Y058228D01*
X014240Y056959D02*
X014451Y056959D01*
X014451Y056747D01*
X014240Y056747D01*
X014240Y056959D01*
X014240Y056325D02*
X014451Y056113D01*
X014451Y055690D01*
X014240Y055479D01*
X013817Y055479D02*
X013605Y055902D01*
X013605Y056113D01*
X013817Y056325D01*
X014240Y056325D01*
X013817Y055479D02*
X013182Y055479D01*
X013182Y056325D01*
X012932Y041872D02*
X012932Y041026D01*
X013567Y041026D01*
X013355Y041449D01*
X013355Y041660D01*
X013567Y041872D01*
X013990Y041872D01*
X014201Y041660D01*
X014201Y041237D01*
X013990Y041026D01*
X013567Y040603D02*
X013567Y039757D01*
X012932Y040391D01*
X014201Y040391D01*
X014201Y039334D02*
X014201Y039122D01*
X013990Y039122D01*
X013990Y039334D01*
X014201Y039334D01*
X014201Y038488D02*
X012932Y038488D01*
X013567Y037854D01*
X013567Y038700D01*
X011740Y034622D02*
X011951Y034410D01*
X011951Y033987D01*
X011740Y033776D01*
X011317Y033776D02*
X011105Y034199D01*
X011105Y034410D01*
X011317Y034622D01*
X011740Y034622D01*
X011317Y033776D02*
X010682Y033776D01*
X010682Y034622D01*
X011317Y033353D02*
X011317Y032507D01*
X010682Y033141D01*
X011951Y033141D01*
X011951Y032084D02*
X011951Y031872D01*
X011740Y031872D01*
X011740Y032084D01*
X011951Y032084D01*
X011951Y031238D02*
X010682Y031238D01*
X011317Y030604D01*
X011317Y031450D01*
X010817Y025390D02*
X010817Y024544D01*
X010182Y025179D01*
X011451Y025179D01*
X011451Y024122D02*
X011451Y023276D01*
X010605Y024122D01*
X010394Y024122D01*
X010182Y023910D01*
X010182Y023487D01*
X010394Y023276D01*
X011240Y022853D02*
X011451Y022853D01*
X011451Y022641D01*
X011240Y022641D01*
X011240Y022853D01*
X011240Y022218D02*
X011451Y022007D01*
X011451Y021584D01*
X011240Y021372D01*
X010817Y021372D02*
X010605Y021795D01*
X010605Y022007D01*
X010817Y022218D01*
X011240Y022218D01*
X010817Y021372D02*
X010182Y021372D01*
X010182Y022218D01*
X011451Y020950D02*
X011451Y020104D01*
X011451Y020527D02*
X010182Y020527D01*
X010605Y020104D01*
X027729Y015618D02*
X027729Y014983D01*
X028152Y015195D01*
X028363Y015195D01*
X028575Y014983D01*
X028575Y014560D01*
X028363Y014349D01*
X027940Y014349D01*
X027729Y014560D01*
X027729Y015618D02*
X028575Y015618D01*
X029632Y015195D02*
X030055Y015618D01*
X030055Y014349D01*
X029632Y014349D02*
X030478Y014349D01*
X030901Y014560D02*
X031112Y014349D01*
X031535Y014349D01*
X031747Y014560D01*
X031747Y014772D01*
X031535Y014983D01*
X030901Y014983D01*
X030901Y014560D01*
X030901Y014983D02*
X031324Y015406D01*
X031747Y015618D01*
X029209Y014560D02*
X029209Y014349D01*
X028997Y014349D01*
X028997Y014560D01*
X029209Y014560D01*
X038363Y006281D02*
X038363Y006070D01*
X038575Y005858D01*
X039209Y005858D01*
X039209Y005435D02*
X039209Y006281D01*
X038998Y006493D01*
X038575Y006493D01*
X038363Y006281D01*
X038363Y005435D02*
X038575Y005224D01*
X038998Y005224D01*
X039209Y005435D01*
X039632Y005435D02*
X039632Y005224D01*
X039632Y005435D02*
X040478Y006281D01*
X040478Y006493D01*
X039632Y006493D01*
X040901Y005435D02*
X041112Y005435D01*
X041112Y005224D01*
X040901Y005224D01*
X040901Y005435D01*
X041535Y005224D02*
X042381Y005224D01*
X041958Y005224D02*
X041958Y006493D01*
X041535Y006070D01*
X042804Y005858D02*
X043438Y005858D01*
X043650Y005647D01*
X043650Y005435D01*
X043438Y005224D01*
X043015Y005224D01*
X042804Y005435D01*
X042804Y005858D01*
X043227Y006281D01*
X043650Y006493D01*
X049604Y009974D02*
X050450Y009974D01*
X050872Y009974D02*
X051718Y010820D01*
X051718Y011031D01*
X051507Y011243D01*
X051084Y011243D01*
X050872Y011031D01*
X050027Y011243D02*
X050027Y009974D01*
X050872Y009974D02*
X051718Y009974D01*
X052141Y009974D02*
X052353Y009974D01*
X052353Y010185D01*
X052141Y010185D01*
X052141Y009974D01*
X052776Y009974D02*
X053622Y009974D01*
X053199Y009974D02*
X053199Y011243D01*
X052776Y010820D01*
X054044Y010608D02*
X054890Y010608D01*
X054679Y009974D02*
X054679Y011243D01*
X054044Y010608D01*
X050027Y011243D02*
X049604Y010820D01*
X051036Y004368D02*
X051036Y003099D01*
X050613Y003099D02*
X051459Y003099D01*
X051882Y003310D02*
X052093Y003099D01*
X052516Y003099D01*
X052728Y003310D01*
X052728Y003522D01*
X052516Y003733D01*
X051882Y003733D01*
X051882Y003310D01*
X051882Y003733D02*
X052305Y004156D01*
X052728Y004368D01*
X053785Y004368D02*
X053785Y003733D01*
X054208Y003945D01*
X054420Y003945D01*
X054631Y003733D01*
X054631Y003310D01*
X054420Y003099D01*
X053997Y003099D01*
X053785Y003310D01*
X053362Y003310D02*
X053362Y003099D01*
X053151Y003099D01*
X053151Y003310D01*
X053362Y003310D01*
X053785Y004368D02*
X054631Y004368D01*
X055054Y003945D02*
X055477Y004368D01*
X055477Y003099D01*
X055054Y003099D02*
X055900Y003099D01*
X051036Y004368D02*
X050613Y003945D01*
X068980Y045565D02*
X068557Y045988D01*
X069826Y045988D01*
X069826Y045565D02*
X069826Y046411D01*
X069615Y046834D02*
X069403Y046834D01*
X069192Y047045D01*
X069192Y047468D01*
X069403Y047680D01*
X069615Y047680D01*
X069826Y047468D01*
X069826Y047045D01*
X069615Y046834D01*
X069192Y047045D02*
X068980Y046834D01*
X068769Y046834D01*
X068557Y047045D01*
X068557Y047468D01*
X068769Y047680D01*
X068980Y047680D01*
X069192Y047468D01*
X069615Y048102D02*
X068769Y048949D01*
X069615Y048949D01*
X069826Y048737D01*
X069826Y048314D01*
X069615Y048102D01*
X068769Y048102D01*
X068557Y048314D01*
X068557Y048737D01*
X068769Y048949D01*
X069615Y049371D02*
X069615Y049583D01*
X069826Y049583D01*
X069826Y049371D01*
X069615Y049371D01*
X069615Y050006D02*
X069826Y050217D01*
X069826Y050640D01*
X069615Y050852D01*
X068769Y050852D01*
X068557Y050640D01*
X068557Y050217D01*
X068769Y050006D01*
X068980Y050006D01*
X069192Y050217D01*
X069192Y050852D01*
X069403Y051274D02*
X069192Y051486D01*
X069192Y051909D01*
X069403Y052121D01*
X069615Y052121D01*
X069826Y051909D01*
X069826Y051486D01*
X069615Y051274D01*
X069403Y051274D01*
X069192Y051486D02*
X068980Y051274D01*
X068769Y051274D01*
X068557Y051486D01*
X068557Y051909D01*
X068769Y052121D01*
X068980Y052121D01*
X069192Y051909D01*
D13*
X094724Y029687D02*
X094866Y029829D01*
X095008Y029829D01*
X095150Y029687D01*
X095291Y029829D01*
X095433Y029829D01*
X095575Y029687D01*
X095575Y029404D01*
X095433Y029262D01*
X095575Y028908D02*
X095291Y028625D01*
X095291Y028767D02*
X095291Y028341D01*
X095575Y028341D02*
X094724Y028341D01*
X094724Y028767D01*
X094866Y028908D01*
X095150Y028908D01*
X095291Y028767D01*
X094866Y029262D02*
X094724Y029404D01*
X094724Y029687D01*
X095150Y029687D02*
X095150Y029546D01*
X095150Y027067D02*
X095433Y027067D01*
X095575Y026925D01*
X095575Y026642D01*
X095433Y026500D01*
X095150Y026500D02*
X095008Y026783D01*
X095008Y026925D01*
X095150Y027067D01*
X094724Y027067D02*
X094724Y026500D01*
X095150Y026500D01*
X095575Y026146D02*
X095575Y025579D01*
X095575Y025863D02*
X094724Y025863D01*
X095008Y025579D01*
X095150Y025225D02*
X095150Y024658D01*
X095150Y024305D02*
X095150Y023737D01*
X094724Y024163D01*
X095575Y024163D01*
X094866Y023384D02*
X095433Y022817D01*
X095575Y022817D01*
X095575Y022463D02*
X095575Y021896D01*
X095575Y022179D02*
X094724Y022179D01*
X095008Y021896D01*
X095575Y021542D02*
X095575Y020975D01*
X095575Y021259D02*
X094724Y021259D01*
X095008Y020975D01*
X094724Y022817D02*
X094724Y023384D01*
X094866Y023384D01*
D14*
X098650Y023025D03*
X098650Y021025D03*
X112650Y020400D03*
X112650Y024400D03*
X116650Y028525D03*
X117775Y028525D03*
X118775Y028525D03*
X119775Y028525D03*
X120775Y028525D03*
X121775Y028525D03*
X120275Y027025D03*
X119275Y027025D03*
X118275Y027025D03*
X117775Y033525D03*
X118775Y033525D03*
X119775Y033525D03*
X120775Y033525D03*
X121775Y033525D03*
X116650Y033525D03*
X095963Y033025D03*
X095963Y031025D03*
X109275Y046775D03*
X110525Y048025D03*
X111650Y048025D03*
X112650Y048025D03*
X113650Y048025D03*
X114650Y048025D03*
X115650Y048025D03*
X112275Y046775D03*
X106213Y050650D03*
X106275Y052025D03*
X106275Y053025D03*
X106275Y054525D03*
X103275Y054525D03*
X103275Y053025D03*
X103275Y052025D03*
X103213Y050650D03*
X110463Y053025D03*
X111463Y053025D03*
X112463Y053025D03*
X113588Y053025D03*
X114775Y053025D03*
X115713Y053025D03*
X122775Y053025D03*
X123775Y053025D03*
X124900Y053025D03*
X126025Y053025D03*
X127025Y053025D03*
X127963Y053025D03*
X127900Y048025D03*
X126900Y048025D03*
X125900Y048025D03*
X124900Y048025D03*
X123900Y048025D03*
X122775Y048025D03*
X106275Y056775D03*
X103275Y056775D03*
X096275Y057650D03*
X096275Y055650D03*
X060150Y038025D03*
X060150Y037025D03*
X060150Y036025D03*
X060400Y033525D03*
X060400Y032525D03*
X060400Y031525D03*
X060400Y029525D03*
X060400Y028525D03*
X060400Y027525D03*
X055025Y027650D03*
X055025Y028650D03*
X055025Y029650D03*
X055025Y031400D03*
X055025Y032400D03*
X055025Y033400D03*
X055025Y036025D03*
X055025Y037025D03*
X055025Y038025D03*
X049525Y038025D03*
X049525Y037025D03*
X049525Y036025D03*
X049525Y033525D03*
X049525Y032525D03*
X049525Y031525D03*
X049525Y029400D03*
X049525Y028400D03*
X049525Y027400D03*
X044088Y027838D03*
X044088Y026838D03*
X044088Y028838D03*
X044088Y030963D03*
X044088Y031963D03*
X044088Y032963D03*
X044088Y035963D03*
X044088Y036963D03*
X044088Y037963D03*
X039900Y036150D03*
X039025Y038525D03*
X035900Y036150D03*
X035025Y038525D03*
X035025Y028650D03*
X039025Y028650D03*
X029900Y026650D03*
X029900Y025525D03*
X025900Y025525D03*
X025900Y026650D03*
X055650Y050525D03*
X055650Y054525D03*
X040025Y058650D03*
X036025Y058650D03*
X035775Y053025D03*
X034900Y052025D03*
X032775Y053025D03*
X036900Y052025D03*
D15*
X035900Y054148D02*
X035900Y054902D01*
X034900Y054902D02*
X034900Y054148D01*
X033900Y054148D02*
X033900Y054902D01*
X032900Y054902D02*
X032900Y054148D01*
X032900Y057148D02*
X032900Y057902D01*
X033900Y057902D02*
X033900Y057148D01*
X034900Y057148D02*
X034900Y057902D01*
X035900Y057902D02*
X035900Y057148D01*
X045523Y051650D02*
X046277Y051650D01*
X046277Y050650D02*
X045523Y050650D01*
X045523Y049650D02*
X046277Y049650D01*
X046277Y048650D02*
X045523Y048650D01*
X045523Y047650D02*
X046277Y047650D01*
X046277Y046650D02*
X045523Y046650D01*
X045523Y045650D02*
X046277Y045650D01*
X046277Y044650D02*
X045523Y044650D01*
X048523Y044650D02*
X049277Y044650D01*
X049277Y045650D02*
X048523Y045650D01*
X048523Y046650D02*
X049277Y046650D01*
X049277Y047650D02*
X048523Y047650D01*
X048523Y048650D02*
X049277Y048650D01*
X049277Y049650D02*
X048523Y049650D01*
X048523Y050650D02*
X049277Y050650D01*
X049277Y051650D02*
X048523Y051650D01*
X051648Y059525D02*
X052402Y059525D01*
X052402Y060525D02*
X051648Y060525D01*
X051648Y061525D02*
X052402Y061525D01*
X054525Y064523D02*
X054525Y065277D01*
X054525Y068523D02*
X054525Y069277D01*
X097398Y057275D02*
X098152Y057275D01*
X098152Y056275D02*
X097398Y056275D01*
X097398Y055275D02*
X098152Y055275D01*
X098152Y054275D02*
X097398Y054275D01*
X097398Y053275D02*
X098152Y053275D01*
X098152Y052275D02*
X097398Y052275D01*
X097398Y051275D02*
X098152Y051275D01*
X098152Y050275D02*
X097398Y050275D01*
X100398Y050275D02*
X101152Y050275D01*
X101152Y051275D02*
X100398Y051275D01*
X100398Y052275D02*
X101152Y052275D01*
X101152Y053275D02*
X100398Y053275D01*
X100398Y054275D02*
X101152Y054275D01*
X101152Y055275D02*
X100398Y055275D01*
X100398Y056275D02*
X101152Y056275D01*
X101152Y057275D02*
X100398Y057275D01*
X099902Y045025D02*
X099148Y045025D01*
X099148Y044025D02*
X099902Y044025D01*
X102148Y044025D02*
X102902Y044025D01*
X102902Y043025D02*
X102148Y043025D01*
X102148Y042025D02*
X102902Y042025D01*
X102902Y041025D02*
X102148Y041025D01*
X102148Y040025D02*
X102902Y040025D01*
X102902Y039025D02*
X102148Y039025D01*
X099902Y039025D02*
X099148Y039025D01*
X099148Y040025D02*
X099902Y040025D01*
X099902Y041025D02*
X099148Y041025D01*
X100023Y037025D02*
X100777Y037025D01*
X100777Y036025D02*
X100023Y036025D01*
X100023Y035025D02*
X100777Y035025D01*
X101273Y035150D02*
X102027Y035150D01*
X102027Y034150D02*
X101273Y034150D01*
X100777Y034025D02*
X100023Y034025D01*
X100023Y033025D02*
X100777Y033025D01*
X101273Y033150D02*
X102027Y033150D01*
X102027Y032150D02*
X101273Y032150D01*
X100777Y032025D02*
X100023Y032025D01*
X100023Y031025D02*
X100777Y031025D01*
X101273Y031150D02*
X102027Y031150D01*
X102027Y030150D02*
X101273Y030150D01*
X100777Y030025D02*
X100023Y030025D01*
X101273Y029150D02*
X102027Y029150D01*
X104273Y029150D02*
X105027Y029150D01*
X105027Y030150D02*
X104273Y030150D01*
X104273Y031150D02*
X105027Y031150D01*
X105027Y032150D02*
X104273Y032150D01*
X104273Y033150D02*
X105027Y033150D01*
X105027Y034150D02*
X104273Y034150D01*
X104273Y035150D02*
X105027Y035150D01*
X105027Y036150D02*
X104273Y036150D01*
X102027Y036150D02*
X101273Y036150D01*
X097777Y036025D02*
X097023Y036025D01*
X097023Y035025D02*
X097777Y035025D01*
X097777Y034025D02*
X097023Y034025D01*
X097023Y033025D02*
X097777Y033025D01*
X097777Y032025D02*
X097023Y032025D01*
X097023Y031025D02*
X097777Y031025D01*
X097777Y030025D02*
X097023Y030025D01*
X099773Y027025D02*
X100527Y027025D01*
X100527Y026025D02*
X099773Y026025D01*
X099773Y025025D02*
X100527Y025025D01*
X100527Y024025D02*
X099773Y024025D01*
X099773Y023025D02*
X100527Y023025D01*
X100527Y022025D02*
X099773Y022025D01*
X099773Y021025D02*
X100527Y021025D01*
X100527Y020025D02*
X099773Y020025D01*
X102773Y020025D02*
X103527Y020025D01*
X103527Y021025D02*
X102773Y021025D01*
X102773Y022025D02*
X103527Y022025D01*
X103527Y023025D02*
X102773Y023025D01*
X102773Y024025D02*
X103527Y024025D01*
X103527Y025025D02*
X102773Y025025D01*
X102773Y026025D02*
X103527Y026025D01*
X103527Y027025D02*
X102773Y027025D01*
X107648Y026025D02*
X108402Y026025D01*
X108402Y025025D02*
X107648Y025025D01*
X107648Y024025D02*
X108402Y024025D01*
X108402Y023025D02*
X107648Y023025D01*
X107648Y022025D02*
X108402Y022025D01*
X108402Y021025D02*
X107648Y021025D01*
X107648Y020025D02*
X108402Y020025D01*
X108402Y019025D02*
X107648Y019025D01*
X110648Y019025D02*
X111402Y019025D01*
X111402Y020025D02*
X110648Y020025D01*
X110648Y021025D02*
X111402Y021025D01*
X111402Y022025D02*
X110648Y022025D01*
X110648Y023025D02*
X111402Y023025D01*
X111402Y024025D02*
X110648Y024025D01*
X110648Y025025D02*
X111402Y025025D01*
X111402Y026025D02*
X110648Y026025D01*
X097777Y037025D02*
X097023Y037025D01*
X102148Y045025D02*
X102902Y045025D01*
X126273Y069400D02*
X127027Y069400D01*
X127027Y071400D02*
X126273Y071400D01*
X063150Y023402D02*
X063150Y022648D01*
X062150Y022648D02*
X062150Y023402D01*
X061150Y023402D02*
X061150Y022648D01*
X034568Y028687D02*
X033832Y028530D01*
X033624Y029509D02*
X034361Y029665D01*
X034153Y030643D02*
X033416Y030487D01*
X031218Y030020D02*
X030482Y029863D01*
X030689Y028885D02*
X031426Y029041D01*
X031634Y028063D02*
X030897Y027907D01*
X030976Y034339D02*
X031717Y034470D01*
X031544Y035455D02*
X030802Y035324D01*
X030628Y036309D02*
X031370Y036440D01*
X033583Y036830D02*
X034324Y036961D01*
X034498Y035976D02*
X033756Y035845D01*
X033930Y034860D02*
X034672Y034991D01*
X034523Y039400D02*
X035277Y039400D01*
X035277Y040400D02*
X034523Y040400D01*
X034523Y041400D02*
X035277Y041400D01*
X032277Y041400D02*
X031523Y041400D01*
X031523Y040400D02*
X032277Y040400D01*
X032277Y039400D02*
X031523Y039400D01*
D16*
X116675Y068025D02*
X116675Y069025D01*
X116675Y068525D02*
X116675Y072525D01*
X116675Y074363D01*
X117713Y075150D01*
X118675Y073025D02*
X118675Y072025D01*
X118650Y072525D02*
X116675Y072525D01*
X116675Y073025D02*
X116675Y072025D01*
X118675Y069025D02*
X118675Y068025D01*
X118525Y068525D02*
X116675Y068525D01*
X122875Y069025D02*
X122875Y068025D01*
X122900Y068525D02*
X124875Y068525D01*
X124875Y069025D02*
X124875Y068025D01*
X124875Y072025D02*
X124875Y073025D01*
X124875Y072525D02*
X122025Y072525D01*
X122875Y073025D02*
X122875Y072025D01*
D17*
X128775Y068275D03*
X130025Y068275D03*
X133650Y064025D03*
X133650Y058025D03*
X121650Y058900D03*
X121650Y064900D03*
X096150Y044900D03*
X096150Y043900D03*
X097150Y043900D03*
X097150Y042900D03*
X096150Y042900D03*
X125275Y041150D03*
X125275Y040150D03*
X126275Y041150D03*
X061525Y041275D03*
X061525Y040275D03*
X060525Y040275D03*
X059525Y040275D03*
X059525Y041275D03*
X060525Y041275D03*
X058525Y041275D03*
X058525Y040275D03*
X057400Y045525D03*
X057400Y046525D03*
X058400Y046525D03*
X058400Y047525D03*
X057400Y047525D03*
X029150Y050775D03*
X023150Y050775D03*
X022650Y042525D03*
X024025Y039775D03*
X024025Y037775D03*
X022650Y036525D03*
X022525Y035025D03*
X024025Y033025D03*
X024025Y031025D03*
X022525Y029025D03*
X022525Y027775D03*
X030025Y031025D03*
X030025Y033025D03*
X030025Y037775D03*
X030025Y039775D03*
X036650Y027150D03*
X036650Y026150D03*
X036650Y025150D03*
X036650Y024150D03*
X036650Y023150D03*
X037650Y023150D03*
X037650Y024150D03*
X037650Y025150D03*
X037650Y026150D03*
X037650Y027150D03*
X022525Y021775D03*
X062150Y022025D03*
X023400Y060150D03*
X020650Y060150D03*
X020650Y066150D03*
X023400Y066150D03*
X028025Y068650D03*
X028025Y072650D03*
X046025Y066400D03*
D18*
X043900Y064025D03*
X040900Y064025D03*
D19*
X051987Y064025D02*
X052813Y064025D01*
X052813Y065025D02*
X051987Y065025D01*
X051987Y066025D02*
X052813Y066025D01*
X019438Y040525D02*
X018612Y040525D01*
X018612Y039525D02*
X019438Y039525D01*
X019438Y038525D02*
X018612Y038525D01*
X018612Y033275D02*
X019438Y033275D01*
X019438Y032275D02*
X018612Y032275D01*
X018612Y031275D02*
X019438Y031275D01*
X019438Y026025D02*
X018612Y026025D01*
X018612Y025025D02*
X019438Y025025D01*
X019438Y024025D02*
X018612Y024025D01*
D20*
X046372Y064978D02*
X046296Y065054D01*
X046546Y065054D01*
X046721Y064879D01*
X046721Y064629D01*
X046546Y064454D01*
X046296Y064454D01*
X046121Y064629D01*
X046121Y064879D01*
X046296Y065054D01*
X046344Y064942D01*
X046498Y064942D01*
X046609Y064831D01*
X046609Y064677D01*
X046498Y064566D01*
X046344Y064566D01*
X046233Y064677D01*
X046233Y064831D01*
X046344Y064942D01*
X046390Y064828D01*
X046452Y064828D01*
X046495Y064785D01*
X046495Y064723D01*
X046452Y064680D01*
X046390Y064680D01*
X046347Y064723D01*
X046347Y064785D01*
X046390Y064828D01*
X052667Y067146D02*
X052743Y067070D01*
X052497Y067113D01*
X052355Y067316D01*
X052398Y067562D01*
X052601Y067704D01*
X052847Y067661D01*
X052989Y067458D01*
X052946Y067212D01*
X052743Y067070D01*
X052715Y067189D01*
X052563Y067216D01*
X052474Y067344D01*
X052501Y067496D01*
X052629Y067585D01*
X052781Y067558D01*
X052870Y067430D01*
X052843Y067278D01*
X052715Y067189D01*
X052689Y067308D01*
X052629Y067319D01*
X052593Y067370D01*
X052604Y067430D01*
X052655Y067466D01*
X052715Y067455D01*
X052751Y067404D01*
X052740Y067344D01*
X052689Y067308D01*
X050373Y070422D02*
X050449Y070346D01*
X050203Y070389D01*
X050061Y070592D01*
X050104Y070838D01*
X050307Y070980D01*
X050553Y070937D01*
X050695Y070734D01*
X050652Y070488D01*
X050449Y070346D01*
X050421Y070465D01*
X050269Y070492D01*
X050180Y070620D01*
X050207Y070772D01*
X050335Y070861D01*
X050487Y070834D01*
X050576Y070706D01*
X050549Y070554D01*
X050421Y070465D01*
X050395Y070584D01*
X050335Y070595D01*
X050299Y070646D01*
X050310Y070706D01*
X050361Y070742D01*
X050421Y070731D01*
X050457Y070680D01*
X050446Y070620D01*
X050395Y070584D01*
D21*
X048775Y071325D03*
X049088Y069338D03*
X050025Y065475D03*
X047129Y064046D03*
X038400Y056725D03*
X028900Y057525D03*
X039650Y041400D03*
X054088Y075200D03*
X054088Y077100D03*
D22*
X053892Y079483D03*
X053892Y080521D03*
X052845Y080521D03*
X052845Y079483D03*
X027525Y075775D03*
X027525Y073775D03*
X029025Y041650D03*
X025025Y041650D03*
X025025Y034900D03*
X029025Y034900D03*
X029525Y028025D03*
X025525Y028025D03*
D23*
X131197Y065525D02*
X132103Y065525D01*
X132103Y067525D02*
X131197Y067525D01*
X131197Y069525D02*
X132103Y069525D01*
X134197Y069525D02*
X135103Y069525D01*
X135103Y067525D02*
X134197Y067525D01*
X134197Y065525D02*
X135103Y065525D01*
X135103Y075525D02*
X134197Y075525D01*
X132103Y075525D02*
X131197Y075525D01*
D24*
X129919Y075525D02*
X129131Y075525D01*
X129131Y076525D02*
X129919Y076525D01*
X044419Y051650D02*
X043631Y051650D01*
X043631Y050650D02*
X044419Y050650D01*
X044419Y049650D02*
X043631Y049650D01*
X043631Y048650D02*
X044419Y048650D01*
D25*
X132731Y074525D03*
X134069Y074525D03*
D26*
X134267Y073585D02*
X134173Y073492D01*
X134173Y073399D01*
X134267Y073305D01*
X134547Y073305D01*
X134547Y073118D02*
X134547Y073492D01*
X134453Y073585D01*
X134267Y073585D01*
X133939Y073492D02*
X133846Y073585D01*
X133565Y073585D01*
X133565Y073025D01*
X133846Y073025D01*
X133939Y073118D01*
X133939Y073492D01*
X134173Y073118D02*
X134267Y073025D01*
X134453Y073025D01*
X134547Y073118D01*
X133331Y073212D02*
X133331Y073585D01*
X133331Y073212D02*
X133145Y073025D01*
X132958Y073212D01*
X132958Y073585D01*
X132724Y073492D02*
X132630Y073585D01*
X132443Y073585D01*
X132350Y073492D01*
X132537Y073305D02*
X132630Y073305D01*
X132724Y073212D01*
X132724Y073118D01*
X132630Y073025D01*
X132443Y073025D01*
X132350Y073118D01*
X132630Y073305D02*
X132724Y073399D01*
X132724Y073492D01*
X111275Y056525D02*
X111275Y055025D01*
D27*
X110650Y055525D03*
X110650Y054525D03*
X109400Y054525D03*
X109400Y055525D03*
X108150Y055525D03*
X108150Y054525D03*
X111900Y054525D03*
X111900Y055525D03*
X113150Y055588D03*
X113150Y054463D03*
X114400Y054463D03*
X114400Y055588D03*
X115650Y055588D03*
X115650Y054463D03*
X116900Y054525D03*
X116900Y055525D03*
X118150Y055525D03*
X118150Y054525D03*
X120400Y054525D03*
X120400Y055525D03*
X121650Y055525D03*
X121650Y054525D03*
X122900Y054525D03*
X122900Y055525D03*
X124150Y055525D03*
X124150Y054525D03*
X125400Y054463D03*
X125400Y055588D03*
X126650Y055588D03*
X126650Y054463D03*
X127900Y054463D03*
X127900Y055588D03*
X129150Y055525D03*
X129150Y054525D03*
X130400Y054463D03*
X130400Y055588D03*
X128463Y040900D03*
X127463Y040900D03*
X122900Y040900D03*
X121900Y040900D03*
X126775Y034150D03*
X127775Y034150D03*
X108150Y040525D03*
X106150Y040525D03*
X102275Y050400D03*
X102275Y056400D03*
X062025Y070025D03*
X059025Y070025D03*
X050025Y064075D03*
X049088Y067338D03*
X048775Y072725D03*
X034025Y061775D03*
X034025Y058775D03*
X028900Y058525D03*
X038400Y055325D03*
X030900Y065650D03*
X027900Y065650D03*
X038650Y041400D03*
X045025Y034775D03*
X050025Y034775D03*
D28*
X107065Y036420D03*
X107065Y038380D03*
X111985Y038380D03*
X113565Y038380D03*
X113565Y036420D03*
X111985Y036420D03*
X118485Y036420D03*
X118485Y038380D03*
X118485Y042920D03*
X120065Y042920D03*
X120065Y044880D03*
X118485Y044880D03*
X113565Y044880D03*
X111985Y044880D03*
X111985Y042920D03*
X113565Y042920D03*
X107065Y042920D03*
X107065Y044880D03*
X124985Y044880D03*
X126565Y044880D03*
X126565Y042920D03*
X124985Y042920D03*
X131485Y042920D03*
X131485Y044880D03*
X131485Y025380D03*
X131485Y023420D03*
X126565Y023420D03*
X124985Y023420D03*
X124985Y025380D03*
X126565Y025380D03*
X120065Y025380D03*
X118485Y025380D03*
X118485Y023420D03*
X120065Y023420D03*
X113565Y023420D03*
X113565Y025380D03*
D29*
G36*
X125956Y029853D02*
X126593Y030490D01*
X127230Y029853D01*
X126593Y029216D01*
X125956Y029853D01*
G37*
G36*
X127341Y028468D02*
X127978Y029105D01*
X128615Y028468D01*
X127978Y027831D01*
X127341Y028468D01*
G37*
G36*
X130820Y031947D02*
X131457Y032584D01*
X132094Y031947D01*
X131457Y031310D01*
X130820Y031947D01*
G37*
G36*
X129435Y033332D02*
X130072Y033969D01*
X130709Y033332D01*
X130072Y032695D01*
X129435Y033332D01*
G37*
G36*
X130072Y034331D02*
X129435Y034968D01*
X130072Y035605D01*
X130709Y034968D01*
X130072Y034331D01*
G37*
G36*
X131457Y035716D02*
X130820Y036353D01*
X131457Y036990D01*
X132094Y036353D01*
X131457Y035716D01*
G37*
G36*
X126593Y037810D02*
X125956Y038447D01*
X126593Y039084D01*
X127230Y038447D01*
X126593Y037810D01*
G37*
G36*
X125594Y038447D02*
X124957Y037810D01*
X124320Y038447D01*
X124957Y039084D01*
X125594Y038447D01*
G37*
G36*
X124209Y039832D02*
X123572Y039195D01*
X122935Y039832D01*
X123572Y040469D01*
X124209Y039832D01*
G37*
G36*
X127978Y039195D02*
X127341Y039832D01*
X127978Y040469D01*
X128615Y039832D01*
X127978Y039195D01*
G37*
G36*
X122115Y034968D02*
X121478Y034331D01*
X120841Y034968D01*
X121478Y035605D01*
X122115Y034968D01*
G37*
G36*
X120730Y036353D02*
X120093Y035716D01*
X119456Y036353D01*
X120093Y036990D01*
X120730Y036353D01*
G37*
D30*
X046192Y068650D02*
X045358Y068650D01*
X045358Y069650D02*
X046192Y069650D01*
X046192Y070650D02*
X045358Y070650D01*
X045358Y075650D02*
X046192Y075650D01*
X046192Y076650D02*
X045358Y076650D01*
X045358Y077650D02*
X046192Y077650D01*
X038650Y062692D02*
X038650Y061858D01*
X037650Y061858D02*
X037650Y062692D01*
X036650Y062692D02*
X036650Y061858D01*
X031650Y062108D02*
X031650Y062942D01*
X030650Y062942D02*
X030650Y062108D01*
X029650Y062108D02*
X029650Y062942D01*
X043608Y046650D02*
X044442Y046650D01*
X044442Y045650D02*
X043608Y045650D01*
X043608Y044650D02*
X044442Y044650D01*
D31*
X031150Y053525D03*
X029400Y054525D03*
X031150Y057525D03*
X025400Y054525D03*
X022150Y050775D03*
X018150Y050775D03*
X115901Y051254D03*
X117399Y047546D03*
D32*
X106533Y030900D02*
X106537Y031047D01*
X106547Y031193D01*
X106565Y031339D01*
X106590Y031484D01*
X106623Y031627D01*
X106662Y031769D01*
X106708Y031908D01*
X106761Y032045D01*
X106820Y032179D01*
X106886Y032310D01*
X106959Y032438D01*
X107037Y032562D01*
X107122Y032682D01*
X107212Y032798D01*
X107308Y032909D01*
X107409Y033016D01*
X107516Y033117D01*
X107627Y033213D01*
X107743Y033303D01*
X107863Y033388D01*
X107987Y033466D01*
X108115Y033539D01*
X108246Y033605D01*
X108380Y033664D01*
X108517Y033717D01*
X108656Y033763D01*
X108798Y033802D01*
X108941Y033835D01*
X109086Y033860D01*
X109232Y033878D01*
X109378Y033888D01*
X109525Y033892D01*
X109672Y033888D01*
X109818Y033878D01*
X109964Y033860D01*
X110109Y033835D01*
X110252Y033802D01*
X110394Y033763D01*
X110533Y033717D01*
X110670Y033664D01*
X110804Y033605D01*
X110935Y033539D01*
X111063Y033466D01*
X111187Y033388D01*
X111307Y033303D01*
X111423Y033213D01*
X111534Y033117D01*
X111641Y033016D01*
X111742Y032909D01*
X111838Y032798D01*
X111928Y032682D01*
X112013Y032562D01*
X112091Y032438D01*
X112164Y032310D01*
X112230Y032179D01*
X112289Y032045D01*
X112342Y031908D01*
X112388Y031769D01*
X112427Y031627D01*
X112460Y031484D01*
X112485Y031339D01*
X112503Y031193D01*
X112513Y031047D01*
X112517Y030900D01*
X112513Y030753D01*
X112503Y030607D01*
X112485Y030461D01*
X112460Y030316D01*
X112427Y030173D01*
X112388Y030031D01*
X112342Y029892D01*
X112289Y029755D01*
X112230Y029621D01*
X112164Y029490D01*
X112091Y029362D01*
X112013Y029238D01*
X111928Y029118D01*
X111838Y029002D01*
X111742Y028891D01*
X111641Y028784D01*
X111534Y028683D01*
X111423Y028587D01*
X111307Y028497D01*
X111187Y028412D01*
X111063Y028334D01*
X110935Y028261D01*
X110804Y028195D01*
X110670Y028136D01*
X110533Y028083D01*
X110394Y028037D01*
X110252Y027998D01*
X110109Y027965D01*
X109964Y027940D01*
X109818Y027922D01*
X109672Y027912D01*
X109525Y027908D01*
X109378Y027912D01*
X109232Y027922D01*
X109086Y027940D01*
X108941Y027965D01*
X108798Y027998D01*
X108656Y028037D01*
X108517Y028083D01*
X108380Y028136D01*
X108246Y028195D01*
X108115Y028261D01*
X107987Y028334D01*
X107863Y028412D01*
X107743Y028497D01*
X107627Y028587D01*
X107516Y028683D01*
X107409Y028784D01*
X107308Y028891D01*
X107212Y029002D01*
X107122Y029118D01*
X107037Y029238D01*
X106959Y029362D01*
X106886Y029490D01*
X106820Y029621D01*
X106761Y029755D01*
X106708Y029892D01*
X106662Y030031D01*
X106623Y030173D01*
X106590Y030316D01*
X106565Y030461D01*
X106547Y030607D01*
X106537Y030753D01*
X106533Y030900D01*
X026525Y056309D02*
X026525Y057491D01*
X023585Y057491D02*
X023585Y056309D01*
X020635Y056309D02*
X020635Y057491D01*
X017685Y057491D02*
X017685Y056309D01*
D33*
X061025Y055525D03*
X062025Y055525D03*
X062025Y054525D03*
X061025Y054525D03*
X061025Y053525D03*
X062025Y053525D03*
X062025Y052525D03*
X061025Y052525D03*
X062025Y056525D03*
D34*
X037650Y060625D03*
X030650Y060625D03*
X020675Y039525D03*
X020675Y032275D03*
X020675Y025025D03*
D35*
X026525Y058525D03*
X026525Y062900D03*
X050150Y075275D03*
X125025Y064775D03*
X129025Y064775D03*
X129025Y059775D03*
X125025Y059775D03*
D36*
X050150Y077275D03*
D37*
X058400Y045525D03*
X097150Y044900D03*
X126275Y040150D03*
D38*
X099525Y042025D03*
X099525Y043025D03*
D39*
X128525Y072838D03*
X117713Y075150D03*
D40*
X055770Y081525D03*
X051030Y081525D03*
X025025Y066150D03*
X018775Y066150D03*
X018775Y059900D03*
X025025Y059900D03*
X019025Y047150D03*
X030025Y044525D03*
X020650Y035900D03*
X024400Y025150D03*
D41*
X096275Y038685D03*
X096275Y039865D03*
D42*
X055791Y019082D02*
X055011Y018303D01*
X054039Y019299D02*
X054818Y020078D01*
X052456Y019247D02*
X052456Y018145D01*
X050881Y019295D02*
X050102Y020074D01*
X049102Y019082D02*
X049881Y018303D01*
X047447Y019082D02*
X046667Y018303D01*
X045695Y019299D02*
X046475Y020078D01*
X044112Y019247D02*
X044112Y018145D01*
X042538Y019295D02*
X041758Y020074D01*
X040758Y019082D02*
X041538Y018303D01*
D43*
X042148Y014762D03*
X043132Y014762D03*
X045104Y014762D03*
X046088Y014762D03*
X050492Y014762D03*
X051476Y014762D03*
X053447Y014762D03*
X054432Y014762D03*
D44*
X026650Y022698D02*
X026650Y023602D01*
X024650Y023602D02*
X024650Y022698D01*
D45*
X029313Y068875D03*
X029313Y075175D03*
X043487Y075962D03*
X043487Y077537D03*
X043487Y073994D03*
X043487Y072419D03*
X043487Y070450D03*
X043487Y068875D03*
D46*
X043880Y066513D03*
D47*
X024275Y071775D03*
X019525Y071775D03*
D48*
X028338Y049025D03*
D49*
X036356Y049025D03*
D50*
X048878Y059655D02*
X048778Y059755D01*
X049110Y059755D01*
X049343Y059522D01*
X049343Y059190D01*
X049110Y058957D01*
X048778Y058957D01*
X048545Y059190D01*
X048545Y059522D01*
X048778Y059755D01*
X048841Y059605D01*
X049047Y059605D01*
X049193Y059459D01*
X049193Y059253D01*
X049047Y059107D01*
X048841Y059107D01*
X048695Y059253D01*
X048695Y059459D01*
X048841Y059605D01*
X048903Y059455D01*
X048985Y059455D01*
X049043Y059397D01*
X049043Y059315D01*
X048985Y059257D01*
X048903Y059257D01*
X048845Y059315D01*
X048845Y059397D01*
X048903Y059455D01*
X046790Y061743D02*
X046690Y061843D01*
X047022Y061843D01*
X047255Y061610D01*
X047255Y061278D01*
X047022Y061045D01*
X046690Y061045D01*
X046457Y061278D01*
X046457Y061610D01*
X046690Y061843D01*
X046753Y061693D01*
X046959Y061693D01*
X047105Y061547D01*
X047105Y061341D01*
X046959Y061195D01*
X046753Y061195D01*
X046607Y061341D01*
X046607Y061547D01*
X046753Y061693D01*
X046815Y061543D01*
X046897Y061543D01*
X046955Y061485D01*
X046955Y061403D01*
X046897Y061345D01*
X046815Y061345D01*
X046757Y061403D01*
X046757Y061485D01*
X046815Y061543D01*
D51*
X028187Y045056D02*
X028187Y043994D01*
X026613Y043994D02*
X026613Y045056D01*
X023937Y045056D02*
X023937Y043994D01*
X022363Y043994D02*
X022363Y045056D01*
X019687Y045056D02*
X019687Y043994D01*
X018113Y043994D02*
X018113Y045056D01*
X019369Y052613D02*
X020431Y052613D01*
X020431Y054187D02*
X019369Y054187D01*
X117619Y060113D02*
X118681Y060113D01*
X118681Y061687D02*
X117619Y061687D01*
X117619Y064488D02*
X118681Y064488D01*
X118681Y066062D02*
X117619Y066062D01*
D52*
X124775Y056525D03*
X121025Y053650D03*
X122275Y051900D03*
X123900Y050525D03*
X124900Y049775D03*
X125900Y048900D03*
X127400Y049025D03*
X127650Y050650D03*
X126525Y050463D03*
X126900Y051525D03*
X125775Y051525D03*
X129775Y050650D03*
X130900Y051525D03*
X123463Y046650D03*
X122025Y046775D03*
X119025Y048900D03*
X118150Y049775D03*
X119025Y051213D03*
X118025Y051900D03*
X118650Y053400D03*
X113900Y050525D03*
X113275Y049025D03*
X111650Y050025D03*
X111025Y052025D03*
X109275Y052525D03*
X109275Y053400D03*
X109525Y050775D03*
X108400Y050275D03*
X109400Y049150D03*
X108650Y048400D03*
X104588Y046525D03*
X104650Y045338D03*
X109525Y040650D03*
X113025Y040650D03*
X105338Y038150D03*
X102275Y037400D03*
X097650Y038150D03*
X096150Y040588D03*
X095025Y035400D03*
X094275Y034025D03*
X095025Y032588D03*
X106400Y034525D03*
X114775Y032150D03*
X114775Y030275D03*
X116025Y029775D03*
X115525Y027400D03*
X122275Y029775D03*
X118025Y032150D03*
X125588Y033275D03*
X128650Y027525D03*
X133025Y027525D03*
X116525Y046775D03*
X107150Y055150D03*
X105275Y055650D03*
X096463Y051275D03*
X094025Y051275D03*
X092516Y045525D03*
X058150Y027650D03*
X057213Y026775D03*
X058150Y024650D03*
X057213Y032025D03*
X056775Y069025D03*
X062775Y069025D03*
D53*
X056775Y069025D01*
X056275Y067150D02*
X058525Y067150D01*
X058525Y063400D02*
X061650Y063400D01*
X062650Y062525D02*
X055525Y062525D01*
X056275Y059650D02*
X063525Y059650D01*
X059400Y058900D02*
X054650Y058900D01*
X056275Y058150D02*
X056275Y056025D01*
X057150Y055275D02*
X052150Y055275D01*
X050775Y054775D02*
X050775Y052400D01*
X051150Y052025D01*
X051150Y050650D01*
X050775Y050275D01*
X050775Y045400D01*
X050150Y045900D02*
X049900Y045400D01*
X049900Y045025D01*
X050275Y044650D01*
X050275Y043150D01*
X051900Y042650D02*
X051900Y053400D01*
X052900Y051900D02*
X052900Y043400D01*
X053900Y044275D02*
X053900Y052775D01*
X054775Y051525D02*
X054775Y045025D01*
X055650Y044400D02*
X055650Y047275D01*
X056525Y047900D02*
X056525Y051400D01*
X050275Y051150D02*
X050150Y051025D01*
X050150Y045900D01*
X048775Y041900D02*
X053400Y041900D01*
X053775Y041150D02*
X054275Y041650D01*
X057150Y041650D01*
X057400Y041400D01*
X058525Y039400D02*
X052775Y039400D01*
X051775Y040025D02*
X044900Y040025D01*
X044900Y041400D02*
X046525Y041400D01*
X046900Y041775D01*
X047650Y041775D01*
X048275Y041150D01*
X053775Y041150D01*
X054525Y040775D02*
X047275Y040775D01*
X059400Y046400D02*
X062400Y046400D01*
X062900Y049525D02*
X062900Y054525D01*
X054025Y056025D02*
X050275Y056025D01*
X048525Y056025D02*
X048525Y052400D01*
X047400Y052525D02*
X047400Y057650D01*
X050525Y061275D02*
X050525Y067400D01*
X055275Y071525D02*
X063775Y071525D01*
X063775Y073025D02*
X057150Y076400D01*
X026525Y062900D02*
X026525Y058525D01*
X019025Y047150D02*
X017025Y046025D01*
X017025Y028775D01*
X024400Y025150D01*
X025775Y035900D02*
X020650Y035900D01*
X025775Y035900D02*
X028275Y038400D01*
X028275Y042025D01*
X030025Y043775D01*
X030025Y044525D01*
X046463Y025400D02*
X050963Y025400D01*
X095900Y039275D02*
X096650Y039275D01*
X106025Y038650D02*
X106025Y037400D01*
X107065Y038380D02*
X111985Y038380D01*
X113565Y038380D02*
X118485Y038380D01*
X120593Y039207D02*
X123572Y039832D01*
X124957Y038447D02*
X121478Y034968D01*
X120093Y036353D02*
X120593Y039207D01*
X118485Y036420D02*
X113565Y036420D01*
X106338Y035775D02*
X106338Y039900D01*
X113565Y042920D02*
X118485Y042920D01*
X120065Y042920D02*
X124985Y042920D01*
X126565Y042920D02*
X131485Y042920D01*
X131485Y044880D02*
X126565Y044880D01*
X124985Y044880D02*
X120065Y044880D01*
X118485Y044880D02*
X113565Y044880D01*
X122150Y052650D02*
X123275Y052150D01*
X115025Y054025D02*
X115025Y056150D01*
X113775Y056150D02*
X113775Y053963D01*
X127978Y039832D02*
X130707Y039207D01*
X131457Y036353D01*
X130072Y034968D02*
X127218Y035593D01*
X126593Y038447D01*
X127093Y032832D02*
X130072Y033332D01*
X131457Y031947D02*
X131332Y029218D01*
X127978Y028468D01*
X126593Y029853D02*
X127093Y032832D01*
X126565Y025380D02*
X131485Y025380D01*
X131485Y023420D02*
X126565Y023420D01*
X124985Y023420D02*
X120065Y023420D01*
X118485Y023420D02*
X113565Y023420D01*
X113565Y025380D02*
X118485Y025380D01*
D54*
X062400Y046400D03*
X059400Y046400D03*
X056525Y047900D03*
X055650Y047275D03*
X054775Y045025D03*
X055650Y044400D03*
X053900Y044275D03*
X052900Y043400D03*
X051900Y042650D03*
X053400Y041900D03*
X054525Y040775D03*
X052775Y039400D03*
X051775Y040025D03*
X048775Y041900D03*
X047275Y040775D03*
X044900Y041400D03*
X044900Y040025D03*
X050275Y043150D03*
X050775Y045400D03*
X057400Y041400D03*
X058525Y039400D03*
X044150Y034775D03*
X040900Y034775D03*
X062900Y049525D03*
X056525Y051400D03*
X054775Y051525D03*
X052900Y051900D03*
X053900Y052775D03*
X051900Y053400D03*
X050775Y054775D03*
X050275Y056025D03*
X048525Y056025D03*
X047400Y057650D03*
X052150Y055275D03*
X054025Y056025D03*
X056275Y056025D03*
X057150Y055275D03*
X056275Y058150D03*
X056275Y059650D03*
X054650Y058900D03*
X055525Y062525D03*
X058525Y063400D03*
X061650Y063400D03*
X062650Y062525D03*
X063525Y059650D03*
X059400Y058900D03*
X062900Y054525D03*
X050275Y051150D03*
X048525Y052400D03*
X047400Y052525D03*
X050525Y061275D03*
X050525Y067400D03*
X056275Y067150D03*
X058525Y067150D03*
X055275Y071525D03*
X057150Y076400D03*
X063775Y073025D03*
X063775Y071525D03*
D55*
X096650Y052275D02*
X097838Y052275D01*
X102525Y041025D02*
X103900Y041025D01*
X101338Y037025D02*
X100400Y037025D01*
X097400Y033025D02*
X095963Y033025D01*
X098838Y026025D02*
X100150Y026025D01*
X100150Y020025D02*
X098838Y020025D01*
X130650Y059775D02*
X133650Y058025D01*
X131900Y061150D01*
X128525Y061150D01*
X126150Y063150D01*
X126150Y065775D01*
X124875Y068525D01*
X126650Y069400D02*
X127775Y066150D01*
X127775Y064150D01*
X129400Y062900D01*
X131900Y062900D01*
X133650Y064025D01*
X130650Y064025D01*
X129025Y064775D01*
X129525Y066650D02*
X129025Y067275D01*
X128775Y067525D01*
X128775Y068275D01*
X128775Y069275D01*
X127650Y070900D01*
X126650Y071400D01*
X125525Y070900D01*
X124775Y070525D01*
X122150Y070525D01*
X121400Y069775D01*
X121400Y066775D01*
X119113Y064488D01*
X118150Y064488D01*
X118150Y066062D02*
X118687Y066062D01*
X120150Y067525D01*
X120150Y070775D01*
X122025Y072525D01*
X128525Y072838D02*
X130025Y069588D01*
X130025Y068275D01*
X130775Y067525D01*
X131650Y067525D01*
X134650Y067525D01*
X134650Y065525D02*
X131650Y065525D01*
X129525Y066650D01*
X125025Y064775D02*
X121650Y064900D01*
X121650Y063525D01*
X119812Y061687D01*
X118150Y061687D01*
X118150Y060113D02*
X120437Y060113D01*
X121650Y058900D01*
X125025Y059775D01*
X129025Y059775D02*
X130650Y059775D01*
X132731Y074525D02*
X131650Y075525D01*
X129525Y075525D01*
X129525Y076525D02*
X130963Y076650D01*
X133963Y076650D01*
X134338Y076150D01*
X134650Y075525D01*
X134069Y074525D01*
D56*
X135900Y076275D02*
X135900Y077525D01*
X135150Y077525D01*
X132525Y077525D02*
X131900Y077525D01*
X131900Y081525D01*
X129150Y081525D01*
X128150Y079275D01*
X126775Y079275D01*
X126775Y078775D01*
X126775Y076025D02*
X126775Y075650D01*
X126275Y075650D01*
X120150Y075650D02*
X119525Y075650D01*
X119525Y076275D01*
X115900Y078275D02*
X115900Y079275D01*
X116900Y079275D01*
X118775Y079275D02*
X119525Y079275D01*
X119525Y078650D01*
X115900Y060275D02*
X115900Y059025D01*
X114525Y059025D01*
X113150Y058025D02*
X115025Y056150D01*
X113775Y056150D02*
X112525Y057400D01*
X105588Y057400D01*
X104525Y056338D01*
X104525Y050525D01*
X105400Y048525D01*
X105400Y046150D01*
X104650Y045338D01*
X103900Y044775D02*
X103650Y045775D01*
X103650Y046400D01*
X104025Y047275D01*
X104025Y048400D01*
X102900Y049525D01*
X099900Y049525D01*
X099525Y049900D01*
X099525Y051525D01*
X098775Y052275D01*
X097775Y052275D01*
X097775Y051275D02*
X096463Y051275D01*
X094025Y051275D01*
X095775Y045900D02*
X094775Y045525D01*
X092516Y045525D01*
X095275Y044900D02*
X092775Y042400D01*
X092775Y035525D01*
X094275Y034025D01*
X095025Y035400D02*
X095025Y038400D01*
X095900Y039275D01*
X096275Y038685D02*
X096810Y038685D01*
X098400Y040275D01*
X098400Y043900D01*
X097150Y043900D01*
X097150Y042900D02*
X097150Y039900D01*
X096650Y039275D01*
X096275Y038685D02*
X095963Y038247D01*
X095963Y033025D01*
X095025Y032588D02*
X095025Y035400D01*
X097400Y033025D02*
X098900Y033025D01*
X098900Y036150D01*
X099525Y036775D01*
X100400Y037025D01*
X097650Y038150D02*
X105338Y038150D01*
X106025Y038650D02*
X105400Y039400D01*
X105400Y044775D01*
X106025Y046400D01*
X106025Y048525D01*
X105088Y050775D01*
X105088Y055088D01*
X105275Y055650D01*
X106275Y055650D02*
X107650Y056525D01*
X111275Y056525D01*
X111275Y055025D02*
X111900Y054525D01*
X111775Y053775D02*
X113025Y053775D01*
X111775Y053775D02*
X110650Y054525D01*
X110900Y053775D02*
X111463Y053025D01*
X112588Y051775D01*
X115150Y051775D01*
X116150Y052025D01*
X116900Y052025D01*
X117775Y052900D01*
X118900Y052525D01*
X120400Y052525D01*
X121025Y053650D01*
X122150Y053775D02*
X122150Y052650D01*
X122275Y051900D02*
X118025Y051900D01*
X116775Y051275D01*
X116525Y050525D01*
X115150Y050525D01*
X114275Y051275D01*
X112400Y051275D01*
X111025Y052025D01*
X109900Y051900D02*
X110463Y053025D01*
X110150Y053775D02*
X110900Y053775D01*
X110150Y053775D02*
X109275Y053400D01*
X109275Y052525D01*
X109275Y053400D02*
X107775Y053400D01*
X107150Y055150D01*
X106275Y055650D02*
X106275Y054525D01*
X108150Y051275D02*
X109900Y051900D01*
X109525Y050775D02*
X113150Y050775D01*
X113900Y050525D01*
X113275Y049025D02*
X111900Y048775D01*
X110025Y048775D01*
X109400Y049150D01*
X109025Y050025D02*
X108400Y050275D01*
X109025Y050025D02*
X111650Y050025D01*
X113650Y048025D02*
X113400Y047400D01*
X109900Y047400D01*
X108650Y048400D01*
X107400Y048775D02*
X107400Y050650D01*
X108150Y051275D01*
X107400Y048775D02*
X106088Y045025D01*
X106088Y041275D01*
X106150Y040525D01*
X106338Y039900D01*
X103900Y041025D02*
X103900Y044775D01*
X102525Y045025D02*
X101400Y045025D01*
X100263Y045775D01*
X098900Y045775D01*
X098400Y045275D01*
X098400Y043900D01*
X097150Y044900D02*
X096775Y045900D01*
X095775Y045900D01*
X096150Y044900D02*
X095275Y044900D01*
X096150Y042900D02*
X096150Y040588D01*
X096275Y039865D01*
X102275Y037400D02*
X106025Y037400D01*
X106338Y035775D02*
X106400Y034525D01*
X098900Y033025D02*
X098900Y029775D01*
X099525Y029150D01*
X101650Y029150D01*
X102400Y028400D02*
X101650Y027650D01*
X101650Y026400D01*
X101650Y020400D01*
X100150Y020025D01*
X094775Y016275D02*
X092900Y016275D01*
X092900Y020275D01*
X091900Y020275D01*
X091900Y021400D01*
X100150Y026025D02*
X101650Y026400D01*
X102400Y028400D02*
X106150Y028400D01*
X107775Y026900D01*
X109400Y026650D01*
X111525Y026900D01*
X113400Y028775D01*
X113900Y030650D01*
X114400Y031150D01*
X123400Y031150D01*
X125588Y033275D01*
X122275Y029775D02*
X116025Y029775D01*
X114775Y030275D02*
X115525Y027400D01*
X114775Y032150D02*
X118025Y032150D01*
X128650Y027525D02*
X133025Y027525D01*
X135900Y022150D02*
X135900Y020275D01*
X131900Y020275D01*
X131900Y016275D01*
X129775Y016275D01*
X113025Y040650D02*
X109525Y040650D01*
X111985Y044880D02*
X107065Y044880D01*
X104588Y046525D02*
X104588Y048525D01*
X103963Y050088D01*
X103963Y056963D01*
X105025Y058025D01*
X113150Y058025D01*
X117525Y056275D02*
X118900Y056275D01*
X118900Y054275D01*
X118650Y053400D01*
X117775Y053525D02*
X118150Y054525D01*
X117525Y054025D02*
X116525Y052525D01*
X115400Y052275D01*
X113400Y052275D01*
X113025Y052525D01*
X115150Y048900D02*
X114650Y048025D01*
X115150Y048900D02*
X116025Y048900D01*
X116775Y048650D01*
X117775Y048650D01*
X118650Y047775D01*
X121150Y047775D01*
X122525Y047400D01*
X126650Y047400D01*
X126900Y048025D01*
X127400Y049025D02*
X125150Y050525D01*
X123900Y050525D01*
X117400Y050525D01*
X118150Y049775D02*
X124900Y049775D01*
X125900Y048900D02*
X119025Y048900D01*
X119025Y051213D02*
X124650Y051213D01*
X126525Y050463D01*
X127900Y049525D01*
X128775Y048525D01*
X128775Y047525D01*
X127900Y046650D01*
X123463Y046650D01*
X122025Y046775D02*
X116525Y046775D01*
X123275Y052150D02*
X123525Y051900D01*
X125775Y051525D01*
X126900Y051525D02*
X130900Y051525D01*
X129775Y050650D02*
X127650Y050650D01*
X129650Y052275D02*
X124400Y052275D01*
X123775Y053025D01*
X123775Y053775D02*
X122150Y053775D01*
X122900Y054525D02*
X122275Y055150D01*
X122275Y056275D02*
X118900Y056275D01*
X117775Y053525D02*
X117775Y052900D01*
X123775Y053775D02*
X124150Y054525D01*
X124775Y053775D02*
X124900Y053025D01*
X129650Y052275D02*
X130400Y054463D01*
X093025Y059025D02*
X091900Y059025D01*
X091900Y057900D01*
X057213Y032025D02*
X057213Y026775D01*
X046088Y026775D01*
X046088Y027775D02*
X046088Y031963D01*
X044150Y034775D02*
X040900Y034775D01*
D57*
X046088Y031963D03*
X046088Y027775D03*
X046088Y026775D03*
X046463Y025400D03*
X050963Y025400D03*
X041025Y025525D03*
X039025Y027525D03*
D58*
X041025Y025525D01*
X113025Y052525D02*
X113025Y053775D01*
X117525Y054025D02*
X117525Y056275D01*
X122275Y056275D02*
X122275Y055150D01*
X124775Y053775D02*
X124775Y056525D01*
D59*
X117400Y050525D03*
D60*
X114775Y053025D02*
X115025Y054025D01*
X113775Y053963D02*
X113588Y053025D01*
X058150Y027650D02*
X058150Y024650D01*
D61*
X092650Y021025D03*
X093650Y017025D03*
X131150Y017025D03*
X135150Y021025D03*
X092650Y058275D03*
X116650Y078525D03*
X131150Y080775D03*
X135150Y076775D03*
M02*
