G75*
G70*
%OFA0B0*%
%FSLAX24Y24*%
%IPPOS*%
%LPD*%
%AMOC8*
5,1,8,0,0,1.08239X$1,22.5*
%
%ADD10C,0.0060*%
%ADD11R,0.0390X0.0180*%
%ADD12R,0.0180X0.0390*%
%ADD13C,0.0030*%
%ADD14C,0.0040*%
%ADD15R,0.0571X0.0295*%
%ADD16R,0.0295X0.0571*%
%ADD17R,0.0295X0.0689*%
%ADD18R,0.0720X0.0230*%
%ADD19R,0.0560X0.0140*%
%ADD20R,0.0295X0.0669*%
%ADD21C,0.0050*%
%ADD22R,0.0140X0.0560*%
%ADD23R,0.0230X0.0720*%
%ADD24C,0.0080*%
%ADD25R,0.0433X0.0193*%
%ADD26R,0.0150X0.1600*%
%ADD27R,0.0250X0.1600*%
%ADD28R,0.0500X0.0200*%
%ADD29R,0.0100X0.0050*%
%ADD30R,0.3150X0.0197*%
%ADD31R,0.0689X0.1772*%
%ADD32C,0.0160*%
%ADD33C,0.0100*%
%ADD34R,0.0220X0.0680*%
%ADD35R,0.0240X0.0620*%
%ADD36R,0.0680X0.0220*%
%ADD37R,0.0620X0.0240*%
%ADD38R,0.0256X0.0551*%
%ADD39R,0.0295X0.1024*%
%ADD40R,0.0551X0.0256*%
%ADD41R,0.0098X0.0531*%
%ADD42R,0.0118X0.0827*%
%ADD43C,0.0120*%
%ADD44R,0.0260X0.0260*%
%ADD45R,0.0200X0.0200*%
%ADD46R,0.0689X0.0295*%
%ADD47C,0.0020*%
%ADD48R,0.0050X0.0200*%
%ADD49R,0.0580X0.0200*%
%ADD50R,0.0404X0.0193*%
%ADD51R,0.0180X0.0230*%
%ADD52R,0.1024X0.0295*%
%ADD53R,0.0669X0.0295*%
%ADD54C,0.0028*%
%ADD55R,0.0236X0.0709*%
%ADD56R,0.0236X0.0433*%
%ADD57R,0.0400X0.0140*%
%ADD58R,0.1140X0.0340*%
%ADD59R,0.0300X0.0340*%
%ADD60C,0.0079*%
D10*
X039875Y023225D02*
X039875Y023825D01*
X039877Y023842D01*
X039881Y023859D01*
X039888Y023875D01*
X039898Y023889D01*
X039911Y023902D01*
X039925Y023912D01*
X039941Y023919D01*
X039958Y023923D01*
X039975Y023925D01*
X041075Y023925D01*
X041092Y023923D01*
X041109Y023919D01*
X041125Y023912D01*
X041139Y023902D01*
X041152Y023889D01*
X041162Y023875D01*
X041169Y023859D01*
X041173Y023842D01*
X041175Y023825D01*
X041175Y023225D01*
X041173Y023208D01*
X041169Y023191D01*
X041162Y023175D01*
X041152Y023161D01*
X041139Y023148D01*
X041125Y023138D01*
X041109Y023131D01*
X041092Y023127D01*
X041075Y023125D01*
X039975Y023125D01*
X039958Y023127D01*
X039941Y023131D01*
X039925Y023138D01*
X039911Y023148D01*
X039898Y023161D01*
X039888Y023175D01*
X039881Y023191D01*
X039877Y023208D01*
X039875Y023225D01*
X039925Y023525D02*
X040125Y023525D01*
X040925Y023525D02*
X041125Y023525D01*
X042275Y022805D02*
X042275Y022245D01*
X042775Y022245D02*
X042775Y022805D01*
X042620Y021650D02*
X043180Y021650D01*
X043180Y021150D02*
X042620Y021150D01*
X042725Y020925D02*
X043825Y020925D01*
X043842Y020923D01*
X043859Y020919D01*
X043875Y020912D01*
X043889Y020902D01*
X043902Y020889D01*
X043912Y020875D01*
X043919Y020859D01*
X043923Y020842D01*
X043925Y020825D01*
X043925Y020225D01*
X043923Y020208D01*
X043919Y020191D01*
X043912Y020175D01*
X043902Y020161D01*
X043889Y020148D01*
X043875Y020138D01*
X043859Y020131D01*
X043842Y020127D01*
X043825Y020125D01*
X042725Y020125D01*
X042708Y020127D01*
X042691Y020131D01*
X042675Y020138D01*
X042661Y020148D01*
X042648Y020161D01*
X042638Y020175D01*
X042631Y020191D01*
X042627Y020208D01*
X042625Y020225D01*
X042625Y020825D01*
X042627Y020842D01*
X042631Y020859D01*
X042638Y020875D01*
X042648Y020889D01*
X042661Y020902D01*
X042675Y020912D01*
X042691Y020919D01*
X042708Y020923D01*
X042725Y020925D01*
X042675Y020525D02*
X042875Y020525D01*
X043675Y020525D02*
X043875Y020525D01*
X044850Y024125D02*
X045950Y024125D01*
X045967Y024127D01*
X045984Y024131D01*
X046000Y024138D01*
X046014Y024148D01*
X046027Y024161D01*
X046037Y024175D01*
X046044Y024191D01*
X046048Y024208D01*
X046050Y024225D01*
X046050Y024825D01*
X046048Y024842D01*
X046044Y024859D01*
X046037Y024875D01*
X046027Y024889D01*
X046014Y024902D01*
X046000Y024912D01*
X045984Y024919D01*
X045967Y024923D01*
X045950Y024925D01*
X044850Y024925D01*
X044833Y024923D01*
X044816Y024919D01*
X044800Y024912D01*
X044786Y024902D01*
X044773Y024889D01*
X044763Y024875D01*
X044756Y024859D01*
X044752Y024842D01*
X044750Y024825D01*
X044750Y024225D01*
X044752Y024208D01*
X044756Y024191D01*
X044763Y024175D01*
X044773Y024161D01*
X044786Y024148D01*
X044800Y024138D01*
X044816Y024131D01*
X044833Y024127D01*
X044850Y024125D01*
X044800Y024525D02*
X045000Y024525D01*
X045800Y024525D02*
X046000Y024525D01*
X048138Y024195D02*
X049038Y024195D01*
X049038Y024855D02*
X048138Y024855D01*
X050250Y023825D02*
X050250Y023225D01*
X050252Y023208D01*
X050256Y023191D01*
X050263Y023175D01*
X050273Y023161D01*
X050286Y023148D01*
X050300Y023138D01*
X050316Y023131D01*
X050333Y023127D01*
X050350Y023125D01*
X051450Y023125D01*
X051467Y023127D01*
X051484Y023131D01*
X051500Y023138D01*
X051514Y023148D01*
X051527Y023161D01*
X051537Y023175D01*
X051544Y023191D01*
X051548Y023208D01*
X051550Y023225D01*
X051550Y023825D01*
X051548Y023842D01*
X051544Y023859D01*
X051537Y023875D01*
X051527Y023889D01*
X051514Y023902D01*
X051500Y023912D01*
X051484Y023919D01*
X051467Y023923D01*
X051450Y023925D01*
X050350Y023925D01*
X050333Y023923D01*
X050316Y023919D01*
X050300Y023912D01*
X050286Y023902D01*
X050273Y023889D01*
X050263Y023875D01*
X050256Y023859D01*
X050252Y023842D01*
X050250Y023825D01*
X050300Y023525D02*
X050500Y023525D01*
X051300Y023525D02*
X051500Y023525D01*
X052525Y022305D02*
X052525Y021745D01*
X053025Y021745D02*
X053025Y022305D01*
X053620Y021900D02*
X054180Y021900D01*
X054180Y021400D02*
X053620Y021400D01*
X052425Y020700D02*
X052425Y020100D01*
X052423Y020083D01*
X052419Y020066D01*
X052412Y020050D01*
X052402Y020036D01*
X052389Y020023D01*
X052375Y020013D01*
X052359Y020006D01*
X052342Y020002D01*
X052325Y020000D01*
X051225Y020000D01*
X051208Y020002D01*
X051191Y020006D01*
X051175Y020013D01*
X051161Y020023D01*
X051148Y020036D01*
X051138Y020050D01*
X051131Y020066D01*
X051127Y020083D01*
X051125Y020100D01*
X051125Y020700D01*
X051127Y020717D01*
X051131Y020734D01*
X051138Y020750D01*
X051148Y020764D01*
X051161Y020777D01*
X051175Y020787D01*
X051191Y020794D01*
X051208Y020798D01*
X051225Y020800D01*
X052325Y020800D01*
X052342Y020798D01*
X052359Y020794D01*
X052375Y020787D01*
X052389Y020777D01*
X052402Y020764D01*
X052412Y020750D01*
X052419Y020734D01*
X052423Y020717D01*
X052425Y020700D01*
X052375Y020400D02*
X052175Y020400D01*
X051375Y020400D02*
X051175Y020400D01*
X053475Y023875D02*
X054575Y023875D01*
X054592Y023877D01*
X054609Y023881D01*
X054625Y023888D01*
X054639Y023898D01*
X054652Y023911D01*
X054662Y023925D01*
X054669Y023941D01*
X054673Y023958D01*
X054675Y023975D01*
X054675Y024575D01*
X054673Y024592D01*
X054669Y024609D01*
X054662Y024625D01*
X054652Y024639D01*
X054639Y024652D01*
X054625Y024662D01*
X054609Y024669D01*
X054592Y024673D01*
X054575Y024675D01*
X053475Y024675D01*
X053458Y024673D01*
X053441Y024669D01*
X053425Y024662D01*
X053411Y024652D01*
X053398Y024639D01*
X053388Y024625D01*
X053381Y024609D01*
X053377Y024592D01*
X053375Y024575D01*
X053375Y023975D01*
X053377Y023958D01*
X053381Y023941D01*
X053388Y023925D01*
X053398Y023911D01*
X053411Y023898D01*
X053425Y023888D01*
X053441Y023881D01*
X053458Y023877D01*
X053475Y023875D01*
X053425Y024275D02*
X053625Y024275D01*
X054425Y024275D02*
X054625Y024275D01*
X054880Y025340D02*
X055920Y025340D01*
X055920Y025960D02*
X054880Y025960D01*
X054850Y026250D02*
X055950Y026250D01*
X055967Y026252D01*
X055984Y026256D01*
X056000Y026263D01*
X056014Y026273D01*
X056027Y026286D01*
X056037Y026300D01*
X056044Y026316D01*
X056048Y026333D01*
X056050Y026350D01*
X056050Y026950D01*
X056048Y026967D01*
X056044Y026984D01*
X056037Y027000D01*
X056027Y027014D01*
X056014Y027027D01*
X056000Y027037D01*
X055984Y027044D01*
X055967Y027048D01*
X055950Y027050D01*
X054850Y027050D01*
X054833Y027048D01*
X054816Y027044D01*
X054800Y027037D01*
X054786Y027027D01*
X054773Y027014D01*
X054763Y027000D01*
X054756Y026984D01*
X054752Y026967D01*
X054750Y026950D01*
X054750Y026350D01*
X054752Y026333D01*
X054756Y026316D01*
X054763Y026300D01*
X054773Y026286D01*
X054786Y026273D01*
X054800Y026263D01*
X054816Y026256D01*
X054833Y026252D01*
X054850Y026250D01*
X054800Y026650D02*
X055000Y026650D01*
X055800Y026650D02*
X056000Y026650D01*
X056239Y027400D02*
X056561Y027400D01*
X056561Y027900D02*
X056239Y027900D01*
X056445Y028450D02*
X056445Y029350D01*
X057105Y029350D02*
X057105Y028450D01*
X054550Y028700D02*
X054550Y027600D01*
X054548Y027583D01*
X054544Y027566D01*
X054537Y027550D01*
X054527Y027536D01*
X054514Y027523D01*
X054500Y027513D01*
X054484Y027506D01*
X054467Y027502D01*
X054450Y027500D01*
X053850Y027500D01*
X053833Y027502D01*
X053816Y027506D01*
X053800Y027513D01*
X053786Y027523D01*
X053773Y027536D01*
X053763Y027550D01*
X053756Y027566D01*
X053752Y027583D01*
X053750Y027600D01*
X053750Y028700D01*
X053752Y028717D01*
X053756Y028734D01*
X053763Y028750D01*
X053773Y028764D01*
X053786Y028777D01*
X053800Y028787D01*
X053816Y028794D01*
X053833Y028798D01*
X053850Y028800D01*
X054450Y028800D01*
X054467Y028798D01*
X054484Y028794D01*
X054500Y028787D01*
X054514Y028777D01*
X054527Y028764D01*
X054537Y028750D01*
X054544Y028734D01*
X054548Y028717D01*
X054550Y028700D01*
X054150Y028750D02*
X054150Y028550D01*
X054150Y027750D02*
X054150Y027550D01*
X050863Y027475D02*
X050863Y028575D01*
X050861Y028592D01*
X050857Y028609D01*
X050850Y028625D01*
X050840Y028639D01*
X050827Y028652D01*
X050813Y028662D01*
X050797Y028669D01*
X050780Y028673D01*
X050763Y028675D01*
X050163Y028675D01*
X050146Y028673D01*
X050129Y028669D01*
X050113Y028662D01*
X050099Y028652D01*
X050086Y028639D01*
X050076Y028625D01*
X050069Y028609D01*
X050065Y028592D01*
X050063Y028575D01*
X050063Y027475D01*
X050065Y027458D01*
X050069Y027441D01*
X050076Y027425D01*
X050086Y027411D01*
X050099Y027398D01*
X050113Y027388D01*
X050129Y027381D01*
X050146Y027377D01*
X050163Y027375D01*
X050763Y027375D01*
X050780Y027377D01*
X050797Y027381D01*
X050813Y027388D01*
X050827Y027398D01*
X050840Y027411D01*
X050850Y027425D01*
X050857Y027441D01*
X050861Y027458D01*
X050863Y027475D01*
X050463Y027425D02*
X050463Y027625D01*
X050463Y028425D02*
X050463Y028625D01*
X048618Y028400D02*
X048058Y028400D01*
X048233Y028085D02*
X047193Y028085D01*
X047193Y027465D02*
X048233Y027465D01*
X048075Y027363D02*
X046975Y027363D01*
X046958Y027361D01*
X046941Y027357D01*
X046925Y027350D01*
X046911Y027340D01*
X046898Y027327D01*
X046888Y027313D01*
X046881Y027297D01*
X046877Y027280D01*
X046875Y027263D01*
X046875Y026663D01*
X046877Y026646D01*
X046881Y026629D01*
X046888Y026613D01*
X046898Y026599D01*
X046911Y026586D01*
X046925Y026576D01*
X046941Y026569D01*
X046958Y026565D01*
X046975Y026563D01*
X048075Y026563D01*
X048092Y026565D01*
X048109Y026569D01*
X048125Y026576D01*
X048139Y026586D01*
X048152Y026599D01*
X048162Y026613D01*
X048169Y026629D01*
X048173Y026646D01*
X048175Y026663D01*
X048175Y027263D01*
X048173Y027280D01*
X048169Y027297D01*
X048162Y027313D01*
X048152Y027327D01*
X048139Y027340D01*
X048125Y027350D01*
X048109Y027357D01*
X048092Y027361D01*
X048075Y027363D01*
X048125Y026963D02*
X047925Y026963D01*
X047125Y026963D02*
X046925Y026963D01*
X048058Y028900D02*
X048618Y028900D01*
X047663Y029945D02*
X046763Y029945D01*
X046763Y030605D02*
X047663Y030605D01*
X047255Y030903D02*
X048295Y030903D01*
X048295Y031523D02*
X047255Y031523D01*
X047255Y031715D02*
X048295Y031715D01*
X048295Y032335D02*
X047255Y032335D01*
X045418Y031475D02*
X045418Y030575D01*
X044758Y030575D02*
X044758Y031475D01*
X043463Y031743D02*
X043463Y031183D01*
X042963Y031183D02*
X042963Y031743D01*
X042963Y028555D02*
X042963Y027995D01*
X043463Y027995D02*
X043463Y028555D01*
X050088Y032870D02*
X050088Y033430D01*
X050588Y033430D02*
X050588Y032870D01*
X048930Y034525D02*
X048370Y034525D01*
X048370Y035025D02*
X048930Y035025D01*
X048555Y037775D02*
X047995Y037775D01*
X047995Y038275D02*
X048555Y038275D01*
X046105Y036975D02*
X046105Y036075D01*
X045445Y036075D02*
X045445Y036975D01*
X045213Y037308D02*
X045213Y037868D01*
X044713Y037868D02*
X044713Y037308D01*
X044713Y036430D02*
X044713Y035870D01*
X045213Y035870D02*
X045213Y036430D01*
X053620Y036275D02*
X054180Y036275D01*
X054180Y035775D02*
X053620Y035775D01*
X054666Y035215D02*
X055375Y035215D01*
X055375Y034585D02*
X054666Y034585D01*
X054400Y033180D02*
X054400Y032620D01*
X053900Y032620D02*
X053900Y033180D01*
X056755Y031460D02*
X057795Y031460D01*
X057795Y030840D02*
X056755Y030840D01*
X056755Y030585D02*
X057795Y030585D01*
X057795Y029965D02*
X056755Y029965D01*
X059025Y029305D02*
X059025Y028745D01*
X059525Y028745D02*
X059525Y029305D01*
X059730Y031075D02*
X059730Y031975D01*
X059070Y031975D02*
X059070Y031075D01*
X061150Y031745D02*
X061150Y032305D01*
X061650Y032305D02*
X061650Y031745D01*
X060025Y034676D02*
X060025Y034999D01*
X059525Y034999D02*
X059525Y034676D01*
X059384Y036210D02*
X058675Y036210D01*
X058675Y036840D02*
X059384Y036840D01*
X056275Y036430D02*
X056275Y035870D01*
X055775Y035870D02*
X055775Y036430D01*
X052624Y046312D02*
X052426Y046312D01*
X050713Y048025D01*
X052525Y049837D01*
X054337Y048025D01*
X052624Y046312D01*
X052384Y046637D02*
X052386Y046660D01*
X052392Y046683D01*
X052401Y046704D01*
X052414Y046724D01*
X052430Y046741D01*
X052448Y046755D01*
X052468Y046766D01*
X052490Y046774D01*
X052513Y046778D01*
X052537Y046778D01*
X052560Y046774D01*
X052582Y046766D01*
X052602Y046755D01*
X052620Y046741D01*
X052636Y046724D01*
X052649Y046704D01*
X052658Y046683D01*
X052664Y046660D01*
X052666Y046637D01*
X052664Y046614D01*
X052658Y046591D01*
X052649Y046570D01*
X052636Y046550D01*
X052620Y046533D01*
X052602Y046519D01*
X052582Y046508D01*
X052560Y046500D01*
X052537Y046496D01*
X052513Y046496D01*
X052490Y046500D01*
X052468Y046508D01*
X052448Y046519D01*
X052430Y046533D01*
X052414Y046550D01*
X052401Y046570D01*
X052392Y046591D01*
X052386Y046614D01*
X052384Y046637D01*
X057620Y051150D02*
X058180Y051150D01*
X058180Y051650D02*
X057620Y051650D01*
X060880Y051835D02*
X061920Y051835D01*
X061920Y051215D02*
X060880Y051215D01*
X060520Y048005D02*
X059791Y048005D01*
X059791Y047045D02*
X060520Y047045D01*
X058895Y057170D02*
X058166Y057170D01*
X058166Y058130D02*
X058895Y058130D01*
X061995Y057900D02*
X062555Y057900D01*
X062555Y058400D02*
X061995Y058400D01*
X051775Y058430D02*
X051775Y057870D01*
X051275Y057870D02*
X051275Y058430D01*
X062200Y065320D02*
X063100Y065320D01*
X063100Y065980D02*
X062200Y065980D01*
X062465Y066765D02*
X063585Y066765D01*
X063585Y067285D01*
X062465Y067285D01*
X062465Y066765D01*
X062870Y069775D02*
X063430Y069775D01*
X063750Y069725D02*
X063750Y070825D01*
X063752Y070842D01*
X063756Y070859D01*
X063763Y070875D01*
X063773Y070889D01*
X063786Y070902D01*
X063800Y070912D01*
X063816Y070919D01*
X063833Y070923D01*
X063850Y070925D01*
X064450Y070925D01*
X064467Y070923D01*
X064484Y070919D01*
X064500Y070912D01*
X064514Y070902D01*
X064527Y070889D01*
X064537Y070875D01*
X064544Y070859D01*
X064548Y070842D01*
X064550Y070825D01*
X064550Y069725D01*
X064548Y069708D01*
X064544Y069691D01*
X064537Y069675D01*
X064527Y069661D01*
X064514Y069648D01*
X064500Y069638D01*
X064484Y069631D01*
X064467Y069627D01*
X064450Y069625D01*
X063850Y069625D01*
X063833Y069627D01*
X063816Y069631D01*
X063800Y069638D01*
X063786Y069648D01*
X063773Y069661D01*
X063763Y069675D01*
X063756Y069691D01*
X063752Y069708D01*
X063750Y069725D01*
X064150Y069675D02*
X064150Y069875D01*
X064150Y070675D02*
X064150Y070875D01*
X063430Y070275D02*
X062870Y070275D01*
X062183Y070615D02*
X062183Y075435D01*
X062181Y075458D01*
X062176Y075481D01*
X062167Y075503D01*
X062154Y075523D01*
X062139Y075541D01*
X062121Y075556D01*
X062101Y075569D01*
X062079Y075578D01*
X062056Y075583D01*
X062033Y075585D01*
X059393Y075585D01*
X059370Y075583D01*
X059347Y075578D01*
X059325Y075569D01*
X059305Y075556D01*
X059287Y075541D01*
X059272Y075523D01*
X059259Y075503D01*
X059250Y075481D01*
X059245Y075458D01*
X059243Y075435D01*
X059243Y070615D01*
X059245Y070592D01*
X059250Y070569D01*
X059259Y070547D01*
X059272Y070527D01*
X059287Y070509D01*
X059305Y070494D01*
X059325Y070481D01*
X059347Y070472D01*
X059370Y070467D01*
X059393Y070465D01*
X060213Y070465D01*
X061213Y070465D01*
X062033Y070465D01*
X062056Y070467D01*
X062079Y070472D01*
X062101Y070481D01*
X062121Y070494D01*
X062139Y070509D01*
X062154Y070527D01*
X062167Y070547D01*
X062176Y070569D01*
X062181Y070592D01*
X062183Y070615D01*
X061213Y070465D02*
X061211Y070509D01*
X061205Y070552D01*
X061196Y070594D01*
X061183Y070636D01*
X061166Y070676D01*
X061146Y070715D01*
X061123Y070752D01*
X061096Y070786D01*
X061067Y070819D01*
X061034Y070848D01*
X061000Y070875D01*
X060963Y070898D01*
X060924Y070918D01*
X060884Y070935D01*
X060842Y070948D01*
X060800Y070957D01*
X060757Y070963D01*
X060713Y070965D01*
X060669Y070963D01*
X060626Y070957D01*
X060584Y070948D01*
X060542Y070935D01*
X060502Y070918D01*
X060463Y070898D01*
X060426Y070875D01*
X060392Y070848D01*
X060359Y070819D01*
X060330Y070786D01*
X060303Y070752D01*
X060280Y070715D01*
X060260Y070676D01*
X060243Y070636D01*
X060230Y070594D01*
X060221Y070552D01*
X060215Y070509D01*
X060213Y070465D01*
X056085Y069545D02*
X056085Y068505D01*
X055465Y068505D02*
X055465Y069545D01*
X054630Y070405D02*
X054630Y071134D01*
X053670Y071134D02*
X053670Y070405D01*
X052930Y068775D02*
X052370Y068775D01*
X052370Y068275D02*
X052930Y068275D01*
X053416Y071960D02*
X054125Y071960D01*
X054125Y072590D02*
X053416Y072590D01*
X058585Y076050D02*
X058585Y076759D01*
X059215Y076759D02*
X059215Y076050D01*
X054686Y078463D02*
X054364Y078463D01*
X054364Y078963D02*
X054686Y078963D01*
X054989Y080088D02*
X055311Y080088D01*
X055311Y080588D02*
X054989Y080588D01*
X051795Y079835D02*
X050755Y079835D01*
X050755Y079215D02*
X051795Y079215D01*
X098695Y055253D02*
X099059Y055862D01*
X099600Y055538D02*
X099236Y054930D01*
X110745Y056275D02*
X111305Y056275D01*
X111305Y056775D02*
X110745Y056775D01*
X112210Y056800D02*
X112210Y057509D01*
X112840Y057509D02*
X112840Y056800D01*
X119950Y058350D02*
X119950Y065450D01*
X123350Y065450D01*
X123350Y058350D01*
X119950Y058350D01*
X121650Y059400D02*
X121650Y063550D01*
X121650Y063900D02*
X121650Y064400D01*
X121370Y064470D02*
X120880Y064150D01*
X120880Y064470D02*
X121370Y064150D01*
X123223Y067075D02*
X123223Y067525D01*
X124481Y067525D01*
X124481Y067075D01*
X123223Y067075D01*
X122875Y068525D02*
X122075Y068525D01*
X119475Y068525D01*
X118675Y068525D01*
X118327Y067525D02*
X117069Y067525D01*
X117069Y067075D01*
X118327Y067075D01*
X118327Y067525D01*
X116525Y067725D02*
X116525Y069025D01*
X116525Y069325D01*
X116425Y069325D02*
X116425Y069025D01*
X116425Y067725D01*
X116425Y069025D02*
X116525Y069025D01*
X117069Y069525D02*
X117069Y069975D01*
X118327Y069975D01*
X118327Y069525D01*
X117069Y069525D01*
X117069Y071075D02*
X117069Y071525D01*
X118327Y071525D01*
X118327Y071075D01*
X117069Y071075D01*
X116525Y071725D02*
X116525Y073025D01*
X116525Y073325D01*
X116425Y073325D02*
X116425Y073025D01*
X116425Y071725D01*
X116425Y073025D02*
X116525Y073025D01*
X117069Y073525D02*
X117069Y073975D01*
X118327Y073975D01*
X118327Y073525D01*
X117069Y073525D01*
X118675Y072525D02*
X119475Y072525D01*
X122075Y072525D01*
X122875Y072525D01*
X123223Y071525D02*
X123223Y071075D01*
X124481Y071075D01*
X124481Y071525D01*
X123223Y071525D01*
X123223Y069975D02*
X123223Y069525D01*
X124481Y069525D01*
X124481Y069975D01*
X123223Y069975D01*
X125025Y069325D02*
X125025Y068025D01*
X125025Y067725D01*
X125125Y067725D02*
X125125Y068025D01*
X125125Y069325D01*
X125650Y070400D02*
X125650Y070900D01*
X126150Y071400D01*
X126650Y071400D01*
X126900Y071150D01*
X127650Y070400D01*
X127650Y069900D01*
X126550Y071000D01*
X126150Y071400D01*
X125650Y070900D02*
X126750Y069800D01*
X127150Y069400D01*
X126650Y069400D01*
X126400Y069650D01*
X125650Y070400D01*
X127150Y069400D02*
X127650Y069900D01*
X125125Y071725D02*
X125125Y072025D01*
X125125Y073325D01*
X125025Y073325D02*
X125025Y072025D01*
X125025Y071725D01*
X125025Y072025D02*
X125125Y072025D01*
X124481Y073525D02*
X123223Y073525D01*
X123223Y073975D01*
X124481Y073975D01*
X124481Y073525D01*
X128625Y075125D02*
X128825Y075125D01*
X128925Y075125D01*
X128925Y075275D01*
X128825Y075275D01*
X128825Y075775D01*
X128925Y075775D01*
X128925Y075925D01*
X130175Y075925D01*
X130075Y076025D01*
X130175Y076125D01*
X128925Y076125D01*
X128925Y075925D01*
X128825Y075775D02*
X128825Y076275D01*
X128925Y076275D01*
X128925Y076125D01*
X128825Y076275D02*
X128825Y076775D01*
X128925Y076775D01*
X128925Y076925D01*
X128825Y076925D01*
X128825Y076775D01*
X128825Y076925D02*
X128625Y076925D01*
X128625Y076125D01*
X128675Y076125D01*
X128675Y075925D01*
X128625Y075925D01*
X128625Y075125D01*
X128825Y075125D02*
X128825Y075275D01*
X128925Y075125D02*
X130225Y075125D01*
X130225Y075875D01*
X130175Y075925D01*
X130175Y076125D02*
X130225Y076175D01*
X130225Y076925D01*
X128925Y076925D01*
X130225Y076925D02*
X130525Y076925D01*
X130525Y076625D01*
X130575Y076625D01*
X130575Y076425D01*
X130525Y076425D01*
X130525Y076125D01*
X130475Y076125D01*
X130475Y075925D01*
X130525Y075925D01*
X130525Y075625D01*
X130575Y075625D01*
X130575Y075425D01*
X130525Y075425D01*
X130525Y075125D01*
X130225Y075125D01*
X130710Y076505D02*
X135630Y076505D01*
X135630Y064985D01*
X130710Y064985D01*
X130710Y076505D01*
X132438Y075525D02*
X132680Y075525D01*
X132680Y074935D02*
X133670Y076115D01*
X133670Y075525D02*
X133862Y075525D01*
X133852Y069525D02*
X133520Y069525D01*
X133520Y067895D01*
X133703Y067525D01*
X133803Y067525D01*
X134000Y067525D02*
X134250Y067525D01*
X133520Y067145D02*
X133520Y065525D01*
X133852Y065525D01*
X132770Y065525D02*
X132468Y065525D01*
X132770Y065525D02*
X132770Y067145D01*
X132559Y067529D02*
X132461Y067529D01*
X132559Y067529D02*
X132756Y067923D01*
X132770Y067895D02*
X132770Y069525D01*
X132468Y069525D01*
X132300Y067525D02*
X132050Y067525D01*
X131950Y064575D02*
X135350Y064575D01*
X135350Y057475D01*
X131950Y057475D01*
X131950Y064575D01*
X133650Y063525D02*
X133650Y059375D01*
X133650Y059025D02*
X133650Y058525D01*
X133930Y058455D02*
X134420Y058775D01*
X134420Y058455D02*
X133930Y058775D01*
X125125Y068025D02*
X125025Y068025D01*
X112840Y050125D02*
X112840Y049416D01*
X112210Y049416D02*
X112210Y050125D01*
X119215Y047045D02*
X119215Y046005D01*
X119835Y046005D02*
X119835Y047045D01*
X117170Y040960D02*
X116130Y040960D01*
X116130Y040340D02*
X117170Y040340D01*
X115335Y036920D02*
X115335Y035880D01*
X114715Y035880D02*
X114715Y036920D01*
X106170Y043653D02*
X105130Y043653D01*
X105130Y044273D02*
X106170Y044273D01*
X109791Y044585D02*
X110500Y044585D01*
X110500Y045215D02*
X109791Y045215D01*
X104238Y041450D02*
X104238Y040350D01*
X104236Y040333D01*
X104232Y040316D01*
X104225Y040300D01*
X104215Y040286D01*
X104202Y040273D01*
X104188Y040263D01*
X104172Y040256D01*
X104155Y040252D01*
X104138Y040250D01*
X103538Y040250D01*
X103521Y040252D01*
X103504Y040256D01*
X103488Y040263D01*
X103474Y040273D01*
X103461Y040286D01*
X103451Y040300D01*
X103444Y040316D01*
X103440Y040333D01*
X103438Y040350D01*
X103438Y041450D01*
X103440Y041467D01*
X103444Y041484D01*
X103451Y041500D01*
X103461Y041514D01*
X103474Y041527D01*
X103488Y041537D01*
X103504Y041544D01*
X103521Y041548D01*
X103538Y041550D01*
X104138Y041550D01*
X104155Y041548D01*
X104172Y041544D01*
X104188Y041537D01*
X104202Y041527D01*
X104215Y041514D01*
X104225Y041500D01*
X104232Y041484D01*
X104236Y041467D01*
X104238Y041450D01*
X103838Y041500D02*
X103838Y041300D01*
X103838Y040500D02*
X103838Y040300D01*
X101175Y041100D02*
X101175Y042200D01*
X101173Y042217D01*
X101169Y042234D01*
X101162Y042250D01*
X101152Y042264D01*
X101139Y042277D01*
X101125Y042287D01*
X101109Y042294D01*
X101092Y042298D01*
X101075Y042300D01*
X100475Y042300D01*
X100458Y042298D01*
X100441Y042294D01*
X100425Y042287D01*
X100411Y042277D01*
X100398Y042264D01*
X100388Y042250D01*
X100381Y042234D01*
X100377Y042217D01*
X100375Y042200D01*
X100375Y041100D01*
X100377Y041083D01*
X100381Y041066D01*
X100388Y041050D01*
X100398Y041036D01*
X100411Y041023D01*
X100425Y041013D01*
X100441Y041006D01*
X100458Y041002D01*
X100475Y041000D01*
X101075Y041000D01*
X101092Y041002D01*
X101109Y041006D01*
X101125Y041013D01*
X101139Y041023D01*
X101152Y041036D01*
X101162Y041050D01*
X101169Y041066D01*
X101173Y041083D01*
X101175Y041100D01*
X100775Y041050D02*
X100775Y041250D01*
X100775Y042050D02*
X100775Y042250D01*
X100725Y043500D02*
X101325Y043500D01*
X101342Y043502D01*
X101359Y043506D01*
X101375Y043513D01*
X101389Y043523D01*
X101402Y043536D01*
X101412Y043550D01*
X101419Y043566D01*
X101423Y043583D01*
X101425Y043600D01*
X101425Y044700D01*
X101423Y044717D01*
X101419Y044734D01*
X101412Y044750D01*
X101402Y044764D01*
X101389Y044777D01*
X101375Y044787D01*
X101359Y044794D01*
X101342Y044798D01*
X101325Y044800D01*
X100725Y044800D01*
X100708Y044798D01*
X100691Y044794D01*
X100675Y044787D01*
X100661Y044777D01*
X100648Y044764D01*
X100638Y044750D01*
X100631Y044734D01*
X100627Y044717D01*
X100625Y044700D01*
X100625Y043600D01*
X100627Y043583D01*
X100631Y043566D01*
X100638Y043550D01*
X100648Y043536D01*
X100661Y043523D01*
X100675Y043513D01*
X100691Y043506D01*
X100708Y043502D01*
X100725Y043500D01*
X101025Y043550D02*
X101025Y043750D01*
X101025Y044550D02*
X101025Y044750D01*
X100775Y045245D02*
X100775Y045805D01*
X101275Y045805D02*
X101275Y045245D01*
X097650Y045150D02*
X097650Y044650D01*
X097400Y044400D01*
X097650Y044150D01*
X097650Y043650D01*
X097400Y043400D01*
X097650Y043150D01*
X097650Y042650D01*
X097400Y042400D01*
X095900Y042400D01*
X095650Y042650D01*
X095650Y043150D01*
X095900Y043400D01*
X095650Y043650D01*
X095650Y044150D01*
X095900Y044400D01*
X095650Y044650D01*
X095650Y045150D01*
X095900Y045400D01*
X097400Y045400D01*
X097650Y045150D01*
X097960Y040384D02*
X097960Y039675D01*
X098590Y039675D02*
X098590Y040384D01*
X095340Y037375D02*
X095340Y036666D01*
X094710Y036666D02*
X094710Y037375D01*
X094215Y037375D02*
X094215Y036666D01*
X093585Y036666D02*
X093585Y037375D01*
X094460Y030509D02*
X094460Y029800D01*
X095090Y029800D02*
X095090Y030509D01*
X112813Y027673D02*
X113548Y026938D01*
X113987Y027377D02*
X113252Y028112D01*
X114755Y025585D02*
X115795Y025585D01*
X115795Y024965D02*
X114755Y024965D01*
X114755Y024585D02*
X115795Y024585D01*
X115795Y023965D02*
X114755Y023965D01*
X123365Y028150D02*
X124405Y028150D01*
X124405Y028770D02*
X123365Y028770D01*
X124551Y034775D02*
X124874Y034775D01*
X124874Y035275D02*
X124551Y035275D01*
X125870Y035275D02*
X126430Y035275D01*
X126430Y034775D02*
X125870Y034775D01*
X127800Y037335D02*
X128509Y037335D01*
X128509Y037965D02*
X127800Y037965D01*
X126525Y039650D02*
X126025Y039650D01*
X125775Y039900D01*
X125525Y039650D01*
X125025Y039650D01*
X124775Y039900D01*
X124775Y041400D01*
X125025Y041650D01*
X125525Y041650D01*
X125775Y041400D01*
X126025Y041650D01*
X126525Y041650D01*
X126775Y041400D01*
X126775Y039900D01*
X126525Y039650D01*
X132090Y035670D02*
X132090Y034630D01*
X132710Y034630D02*
X132710Y035670D01*
X131670Y047465D02*
X130630Y047465D01*
X130630Y048085D02*
X131670Y048085D01*
X062555Y026025D02*
X061995Y026025D01*
X061995Y025525D02*
X062555Y025525D01*
X061045Y025465D02*
X060005Y025465D01*
X060005Y026085D02*
X061045Y026085D01*
X059465Y025009D02*
X059465Y024300D01*
X058835Y024300D02*
X058835Y025009D01*
D11*
G36*
X052378Y046192D02*
X052103Y045917D01*
X051976Y046044D01*
X052251Y046319D01*
X052378Y046192D01*
G37*
G36*
X052155Y046414D02*
X051880Y046139D01*
X051753Y046266D01*
X052028Y046541D01*
X052155Y046414D01*
G37*
G36*
X051932Y046637D02*
X051657Y046362D01*
X051530Y046489D01*
X051805Y046764D01*
X051932Y046637D01*
G37*
G36*
X051710Y046860D02*
X051435Y046585D01*
X051308Y046712D01*
X051583Y046987D01*
X051710Y046860D01*
G37*
G36*
X051487Y047083D02*
X051212Y046808D01*
X051085Y046935D01*
X051360Y047210D01*
X051487Y047083D01*
G37*
G36*
X051264Y047305D02*
X050989Y047030D01*
X050862Y047157D01*
X051137Y047432D01*
X051264Y047305D01*
G37*
G36*
X051041Y047528D02*
X050766Y047253D01*
X050639Y047380D01*
X050914Y047655D01*
X051041Y047528D01*
G37*
G36*
X050819Y047751D02*
X050544Y047476D01*
X050417Y047603D01*
X050692Y047878D01*
X050819Y047751D01*
G37*
G36*
X053074Y050006D02*
X052799Y049731D01*
X052672Y049858D01*
X052947Y050133D01*
X053074Y050006D01*
G37*
G36*
X053297Y049784D02*
X053022Y049509D01*
X052895Y049636D01*
X053170Y049911D01*
X053297Y049784D01*
G37*
G36*
X053520Y049561D02*
X053245Y049286D01*
X053118Y049413D01*
X053393Y049688D01*
X053520Y049561D01*
G37*
G36*
X053742Y049338D02*
X053467Y049063D01*
X053340Y049190D01*
X053615Y049465D01*
X053742Y049338D01*
G37*
G36*
X053965Y049115D02*
X053690Y048840D01*
X053563Y048967D01*
X053838Y049242D01*
X053965Y049115D01*
G37*
G36*
X054188Y048893D02*
X053913Y048618D01*
X053786Y048745D01*
X054061Y049020D01*
X054188Y048893D01*
G37*
G36*
X054411Y048670D02*
X054136Y048395D01*
X054009Y048522D01*
X054284Y048797D01*
X054411Y048670D01*
G37*
G36*
X054633Y048447D02*
X054358Y048172D01*
X054231Y048299D01*
X054506Y048574D01*
X054633Y048447D01*
G37*
D12*
G36*
X054633Y047603D02*
X054506Y047476D01*
X054231Y047751D01*
X054358Y047878D01*
X054633Y047603D01*
G37*
G36*
X054411Y047380D02*
X054284Y047253D01*
X054009Y047528D01*
X054136Y047655D01*
X054411Y047380D01*
G37*
G36*
X054188Y047157D02*
X054061Y047030D01*
X053786Y047305D01*
X053913Y047432D01*
X054188Y047157D01*
G37*
G36*
X053965Y046935D02*
X053838Y046808D01*
X053563Y047083D01*
X053690Y047210D01*
X053965Y046935D01*
G37*
G36*
X053742Y046712D02*
X053615Y046585D01*
X053340Y046860D01*
X053467Y046987D01*
X053742Y046712D01*
G37*
G36*
X053520Y046489D02*
X053393Y046362D01*
X053118Y046637D01*
X053245Y046764D01*
X053520Y046489D01*
G37*
G36*
X053297Y046266D02*
X053170Y046139D01*
X052895Y046414D01*
X053022Y046541D01*
X053297Y046266D01*
G37*
G36*
X053074Y046044D02*
X052947Y045917D01*
X052672Y046192D01*
X052799Y046319D01*
X053074Y046044D01*
G37*
G36*
X050819Y048299D02*
X050692Y048172D01*
X050417Y048447D01*
X050544Y048574D01*
X050819Y048299D01*
G37*
G36*
X051041Y048522D02*
X050914Y048395D01*
X050639Y048670D01*
X050766Y048797D01*
X051041Y048522D01*
G37*
G36*
X051264Y048745D02*
X051137Y048618D01*
X050862Y048893D01*
X050989Y049020D01*
X051264Y048745D01*
G37*
G36*
X051487Y048967D02*
X051360Y048840D01*
X051085Y049115D01*
X051212Y049242D01*
X051487Y048967D01*
G37*
G36*
X051710Y049190D02*
X051583Y049063D01*
X051308Y049338D01*
X051435Y049465D01*
X051710Y049190D01*
G37*
G36*
X051932Y049413D02*
X051805Y049286D01*
X051530Y049561D01*
X051657Y049688D01*
X051932Y049413D01*
G37*
G36*
X052155Y049636D02*
X052028Y049509D01*
X051753Y049784D01*
X051880Y049911D01*
X052155Y049636D01*
G37*
G36*
X052378Y049858D02*
X052251Y049731D01*
X051976Y050006D01*
X052103Y050133D01*
X052378Y049858D01*
G37*
D13*
X050749Y050364D02*
X050612Y050227D01*
X050680Y050295D02*
X050475Y050501D01*
X050612Y050501D01*
X050335Y050361D02*
X050232Y050258D01*
X050232Y050190D01*
X050369Y050053D01*
X050438Y050053D01*
X050540Y050155D01*
X050335Y050361D01*
X050161Y050118D02*
X050092Y050118D01*
X050024Y050050D01*
X050024Y049981D01*
X050058Y049947D01*
X050127Y049947D01*
X050127Y049879D01*
X050161Y049844D01*
X050229Y049844D01*
X050298Y049913D01*
X050298Y049981D01*
X050161Y049981D02*
X050127Y049947D01*
D14*
X034270Y024696D02*
X034270Y024389D01*
X034270Y024542D02*
X034730Y024542D01*
X034577Y024389D01*
X034654Y024849D02*
X034347Y024849D01*
X034270Y024926D01*
X034270Y025079D01*
X034347Y025156D01*
X034347Y025310D02*
X034270Y025310D01*
X034347Y025310D02*
X034654Y025617D01*
X034730Y025617D01*
X034730Y025310D01*
X034654Y025156D02*
X034730Y025079D01*
X034730Y024926D01*
X034654Y024849D01*
X035250Y024890D02*
X035540Y024890D01*
X035550Y025410D02*
X035250Y025410D01*
X038570Y023208D02*
X038570Y022901D01*
X038570Y023055D02*
X039030Y023055D01*
X038877Y022901D01*
X038800Y022748D02*
X038647Y022748D01*
X038570Y022671D01*
X038570Y022518D01*
X038647Y022441D01*
X038800Y022441D02*
X038877Y022594D01*
X038877Y022671D01*
X038800Y022748D01*
X039030Y022748D02*
X039030Y022441D01*
X038800Y022441D01*
X038800Y022287D02*
X038723Y022211D01*
X038723Y021980D01*
X038570Y021980D02*
X039030Y021980D01*
X039030Y022211D01*
X038954Y022287D01*
X038800Y022287D01*
X038723Y022134D02*
X038570Y022287D01*
X038570Y021827D02*
X038570Y021520D01*
X038570Y021673D02*
X039030Y021673D01*
X038877Y021520D01*
X039965Y022555D02*
X040025Y022495D01*
X040145Y022495D01*
X040205Y022555D01*
X040205Y022615D01*
X040145Y022675D01*
X040025Y022675D01*
X039965Y022615D01*
X039965Y022555D01*
X040025Y022675D02*
X039965Y022735D01*
X039965Y022795D01*
X040025Y022855D01*
X040145Y022855D01*
X040205Y022795D01*
X040205Y022735D01*
X040145Y022675D01*
X042427Y026045D02*
X042734Y026045D01*
X042581Y026045D02*
X042581Y026505D01*
X042734Y026352D01*
X042888Y026505D02*
X043194Y026505D01*
X043194Y026045D01*
X043348Y026045D02*
X043655Y026045D01*
X043501Y026045D02*
X043501Y026505D01*
X043655Y026352D01*
X043194Y026275D02*
X043041Y026275D01*
X042780Y028383D02*
X042473Y028383D01*
X042320Y028383D02*
X042320Y028843D01*
X042089Y028843D01*
X042013Y028766D01*
X042013Y028613D01*
X042089Y028536D01*
X042320Y028536D01*
X042166Y028536D02*
X042013Y028383D01*
X041859Y028383D02*
X041859Y028459D01*
X041552Y028766D01*
X041552Y028843D01*
X041859Y028843D01*
X042627Y028843D02*
X042627Y028383D01*
X042780Y028689D02*
X042627Y028843D01*
X042556Y030233D02*
X042556Y030693D01*
X042709Y030539D01*
X042863Y030463D02*
X042939Y030386D01*
X043170Y030386D01*
X043170Y030233D02*
X043170Y030693D01*
X042939Y030693D01*
X042863Y030616D01*
X042863Y030463D01*
X043016Y030386D02*
X042863Y030233D01*
X042709Y030233D02*
X042402Y030233D01*
X042249Y030233D02*
X041942Y030233D01*
X042095Y030233D02*
X042095Y030693D01*
X042249Y030539D01*
X042257Y031508D02*
X042257Y031968D01*
X042027Y031968D01*
X041950Y031891D01*
X041950Y031738D01*
X042027Y031661D01*
X042257Y031661D01*
X042104Y031661D02*
X041950Y031508D01*
X041797Y031508D02*
X041490Y031508D01*
X041643Y031508D02*
X041643Y031968D01*
X041797Y031814D01*
X041336Y031738D02*
X041336Y031968D01*
X041029Y031968D01*
X041106Y031814D02*
X041029Y031738D01*
X041029Y031584D01*
X041106Y031508D01*
X041260Y031508D01*
X041336Y031584D01*
X041336Y031738D02*
X041183Y031814D01*
X041106Y031814D01*
X042411Y031508D02*
X042718Y031508D01*
X042564Y031508D02*
X042564Y031968D01*
X042718Y031814D01*
X043477Y030693D02*
X043477Y030233D01*
X043630Y030233D02*
X043323Y030233D01*
X043630Y030539D02*
X043477Y030693D01*
X045385Y029785D02*
X045675Y029785D01*
X045675Y029265D02*
X045375Y029265D01*
X046188Y029035D02*
X046488Y029035D01*
X046478Y028515D02*
X046188Y028515D01*
X048346Y030045D02*
X048653Y030045D01*
X048346Y030352D01*
X048346Y030429D01*
X048423Y030505D01*
X048576Y030505D01*
X048653Y030429D01*
X048960Y030505D02*
X048960Y030045D01*
X049113Y030045D02*
X048806Y030045D01*
X049113Y030352D02*
X048960Y030505D01*
X049267Y030429D02*
X049267Y030275D01*
X049343Y030198D01*
X049574Y030198D01*
X049574Y030045D02*
X049574Y030505D01*
X049343Y030505D01*
X049267Y030429D01*
X049420Y030198D02*
X049267Y030045D01*
X049727Y030045D02*
X050034Y030045D01*
X049881Y030045D02*
X049881Y030505D01*
X050034Y030352D01*
X050135Y030783D02*
X050135Y031243D01*
X050365Y031013D01*
X050058Y031013D01*
X050135Y031345D02*
X050289Y031345D01*
X050365Y031422D01*
X050365Y031575D02*
X050212Y031652D01*
X050135Y031652D01*
X050058Y031575D01*
X050058Y031422D01*
X050135Y031345D01*
X050365Y031575D02*
X050365Y031805D01*
X050058Y031805D01*
X050519Y031729D02*
X050596Y031805D01*
X050826Y031805D01*
X050826Y031345D01*
X050596Y031345D01*
X050519Y031422D01*
X050519Y031729D01*
X050979Y031805D02*
X050979Y031498D01*
X051133Y031345D01*
X051286Y031498D01*
X051286Y031805D01*
X051593Y031805D02*
X051593Y031345D01*
X051593Y031243D02*
X051593Y030783D01*
X051440Y030783D02*
X051747Y030783D01*
X051747Y031089D02*
X051593Y031243D01*
X051440Y031345D02*
X051747Y031345D01*
X051747Y031652D02*
X051593Y031805D01*
X051286Y031243D02*
X051286Y030936D01*
X051133Y030783D01*
X050979Y030936D01*
X050979Y031243D01*
X050826Y031243D02*
X050596Y031243D01*
X050519Y031166D01*
X050519Y030859D01*
X050596Y030783D01*
X050826Y030783D01*
X050826Y031243D01*
X050733Y029855D02*
X050656Y029779D01*
X050656Y029625D01*
X050733Y029548D01*
X050963Y029548D01*
X050963Y029395D02*
X050963Y029855D01*
X050733Y029855D01*
X050503Y029779D02*
X050426Y029855D01*
X050273Y029855D01*
X050196Y029779D01*
X050196Y029702D01*
X050273Y029625D01*
X050426Y029625D01*
X050503Y029702D01*
X050503Y029779D01*
X050426Y029625D02*
X050503Y029548D01*
X050503Y029472D01*
X050426Y029395D01*
X050273Y029395D01*
X050196Y029472D01*
X050196Y029548D01*
X050273Y029625D01*
X050656Y029395D02*
X050810Y029548D01*
X051117Y029395D02*
X051424Y029395D01*
X051270Y029395D02*
X051270Y029855D01*
X051424Y029702D01*
X052917Y030129D02*
X053224Y029822D01*
X053224Y029745D01*
X053377Y029822D02*
X053377Y030129D01*
X053454Y030205D01*
X053684Y030205D01*
X053684Y029745D01*
X053454Y029745D01*
X053377Y029822D01*
X053224Y030205D02*
X052917Y030205D01*
X052917Y030129D01*
X053838Y030205D02*
X053838Y029898D01*
X053991Y029745D01*
X054145Y029898D01*
X054145Y030205D01*
X054452Y030205D02*
X054452Y029745D01*
X054605Y029745D02*
X054298Y029745D01*
X054605Y030052D02*
X054452Y030205D01*
X054619Y030370D02*
X054542Y030447D01*
X054542Y030523D01*
X054619Y030600D01*
X054849Y030600D01*
X054849Y030447D01*
X054772Y030370D01*
X054619Y030370D01*
X054849Y030600D02*
X054695Y030754D01*
X054542Y030830D01*
X055002Y030754D02*
X055079Y030830D01*
X055309Y030830D01*
X055309Y030370D01*
X055079Y030370D01*
X055002Y030447D01*
X055002Y030754D01*
X055463Y030830D02*
X055463Y030523D01*
X055616Y030370D01*
X055770Y030523D01*
X055770Y030830D01*
X056077Y030830D02*
X056077Y030370D01*
X056230Y030370D02*
X055923Y030370D01*
X056230Y030677D02*
X056077Y030830D01*
X057545Y029781D02*
X057622Y029858D01*
X057929Y029858D01*
X057622Y029551D01*
X057545Y029628D01*
X057545Y029781D01*
X057622Y029551D02*
X057929Y029551D01*
X058005Y029628D01*
X058005Y029781D01*
X057929Y029858D01*
X057545Y029398D02*
X057545Y029091D01*
X057545Y029244D02*
X058005Y029244D01*
X057852Y029091D01*
X057929Y028937D02*
X057775Y028937D01*
X057698Y028861D01*
X057698Y028630D01*
X057545Y028630D02*
X058005Y028630D01*
X058005Y028861D01*
X057929Y028937D01*
X057698Y028784D02*
X057545Y028937D01*
X057545Y028477D02*
X057545Y028170D01*
X057545Y028323D02*
X058005Y028323D01*
X057852Y028170D01*
X058702Y028030D02*
X058856Y027954D01*
X059009Y027800D01*
X058779Y027800D01*
X058702Y027723D01*
X058702Y027647D01*
X058779Y027570D01*
X058932Y027570D01*
X059009Y027647D01*
X059009Y027800D01*
X059163Y027800D02*
X059239Y027723D01*
X059470Y027723D01*
X059470Y027570D02*
X059470Y028030D01*
X059239Y028030D01*
X059163Y027954D01*
X059163Y027800D01*
X059316Y027723D02*
X059163Y027570D01*
X059623Y027570D02*
X059930Y027570D01*
X059777Y027570D02*
X059777Y028030D01*
X059930Y027877D01*
X060832Y027504D02*
X060832Y027427D01*
X060908Y027350D01*
X060832Y027273D01*
X060832Y027197D01*
X060908Y027120D01*
X061062Y027120D01*
X061138Y027197D01*
X061292Y027120D02*
X061599Y027120D01*
X061445Y027120D02*
X061445Y027580D01*
X061599Y027427D01*
X061752Y027504D02*
X061829Y027580D01*
X062059Y027580D01*
X062059Y027120D01*
X061829Y027120D01*
X061752Y027197D01*
X061752Y027504D01*
X062213Y027580D02*
X062213Y027273D01*
X062366Y027120D01*
X062520Y027273D01*
X062520Y027580D01*
X062750Y027580D02*
X062980Y027350D01*
X062673Y027350D01*
X062750Y027120D02*
X062750Y027580D01*
X061980Y028217D02*
X061520Y028217D01*
X061520Y028064D02*
X061520Y028371D01*
X061520Y028524D02*
X061980Y028524D01*
X061980Y028754D01*
X061904Y028831D01*
X061750Y028831D01*
X061673Y028754D01*
X061673Y028524D01*
X061673Y028678D02*
X061520Y028831D01*
X061597Y028985D02*
X061520Y029061D01*
X061520Y029215D01*
X061597Y029292D01*
X061750Y029292D01*
X061827Y029215D01*
X061827Y029138D01*
X061750Y028985D01*
X061980Y028985D01*
X061980Y029292D01*
X062420Y029539D02*
X062420Y029846D01*
X062420Y029999D02*
X062880Y029999D01*
X062880Y030229D01*
X062804Y030306D01*
X062650Y030306D01*
X062573Y030229D01*
X062573Y029999D01*
X062573Y030153D02*
X062420Y030306D01*
X062497Y030460D02*
X062420Y030536D01*
X062420Y030690D01*
X062497Y030767D01*
X062804Y030767D01*
X062880Y030690D01*
X062880Y030536D01*
X062804Y030460D01*
X062727Y030460D01*
X062650Y030536D01*
X062650Y030767D01*
X062520Y030853D02*
X062520Y031160D01*
X062520Y031007D02*
X062980Y031007D01*
X062827Y030853D01*
X062980Y031314D02*
X062980Y031544D01*
X062904Y031621D01*
X062750Y031621D01*
X062673Y031544D01*
X062673Y031314D01*
X062520Y031314D02*
X062980Y031314D01*
X062673Y031467D02*
X062520Y031621D01*
X062520Y031774D02*
X062520Y032081D01*
X062520Y031928D02*
X062980Y031928D01*
X062827Y031774D01*
X062904Y032235D02*
X062980Y032311D01*
X062980Y032465D01*
X062904Y032542D01*
X062827Y032542D01*
X062750Y032465D01*
X062673Y032542D01*
X062597Y032542D01*
X062520Y032465D01*
X062520Y032311D01*
X062597Y032235D01*
X062750Y032388D02*
X062750Y032465D01*
X062709Y033595D02*
X062402Y033595D01*
X062556Y033595D02*
X062556Y034055D01*
X062709Y033902D01*
X062863Y033979D02*
X062939Y034055D01*
X063170Y034055D01*
X063170Y033595D01*
X062939Y033595D01*
X062863Y033672D01*
X062863Y033979D01*
X063323Y033595D02*
X063630Y033595D01*
X063477Y033595D02*
X063477Y034055D01*
X063630Y033902D01*
X062286Y034645D02*
X061979Y034645D01*
X062133Y034645D02*
X062133Y035105D01*
X062286Y034952D01*
X061826Y035029D02*
X061826Y034722D01*
X061749Y034645D01*
X061596Y034645D01*
X061519Y034722D01*
X061365Y034722D02*
X061289Y034645D01*
X061135Y034645D01*
X061058Y034722D01*
X061058Y034875D01*
X061135Y034952D01*
X061212Y034952D01*
X061365Y034875D01*
X061365Y035105D01*
X061058Y035105D01*
X061064Y035370D02*
X061218Y035523D01*
X060758Y035523D01*
X060758Y035370D02*
X060758Y035677D01*
X060758Y035830D02*
X061218Y035830D01*
X061218Y036061D01*
X061141Y036137D01*
X060988Y036137D01*
X060911Y036061D01*
X060911Y035830D01*
X060911Y035984D02*
X060758Y036137D01*
X060758Y036291D02*
X061064Y036598D01*
X061141Y036598D01*
X061218Y036521D01*
X061218Y036368D01*
X061141Y036291D01*
X060758Y036291D02*
X060758Y036598D01*
X060758Y036751D02*
X061064Y037058D01*
X061141Y037058D01*
X061218Y036981D01*
X061218Y036828D01*
X061141Y036751D01*
X060758Y036751D02*
X060758Y037058D01*
X060758Y037212D02*
X061064Y037212D01*
X061218Y037365D01*
X061064Y037518D01*
X060758Y037518D01*
X060988Y037518D02*
X060988Y037212D01*
X059655Y037070D02*
X059348Y037070D01*
X059195Y037070D02*
X059195Y037530D01*
X058964Y037530D01*
X058888Y037454D01*
X058888Y037300D01*
X058964Y037223D01*
X059195Y037223D01*
X059041Y037223D02*
X058888Y037070D01*
X058734Y037070D02*
X058427Y037377D01*
X058427Y037454D01*
X058504Y037530D01*
X058657Y037530D01*
X058734Y037454D01*
X058734Y037070D02*
X058427Y037070D01*
X058274Y037070D02*
X058274Y037147D01*
X057967Y037454D01*
X057967Y037530D01*
X058274Y037530D01*
X058346Y038270D02*
X058269Y038347D01*
X058346Y038270D02*
X058499Y038270D01*
X058576Y038347D01*
X058576Y038654D01*
X058499Y038730D01*
X058346Y038730D01*
X058269Y038654D01*
X058115Y038654D02*
X058115Y038577D01*
X058039Y038500D01*
X057885Y038500D01*
X057808Y038423D01*
X057808Y038347D01*
X057885Y038270D01*
X058039Y038270D01*
X058115Y038347D01*
X058115Y038423D01*
X058039Y038500D01*
X057885Y038500D02*
X057808Y038577D01*
X057808Y038654D01*
X057885Y038730D01*
X058039Y038730D01*
X058115Y038654D01*
X058729Y038270D02*
X059036Y038270D01*
X058883Y038270D02*
X058883Y038730D01*
X059036Y038577D01*
X059502Y037530D02*
X059502Y037070D01*
X059655Y037377D02*
X059502Y037530D01*
X057910Y036290D02*
X057910Y036000D01*
X057390Y036000D02*
X057390Y036300D01*
X057030Y036965D02*
X056270Y036965D01*
X056270Y037585D02*
X057030Y037585D01*
X057077Y038320D02*
X057077Y038780D01*
X057230Y038627D01*
X057230Y038320D02*
X056923Y038320D01*
X056770Y038397D02*
X056693Y038320D01*
X056539Y038320D01*
X056463Y038397D01*
X056309Y038397D02*
X056232Y038320D01*
X056079Y038320D01*
X056002Y038397D01*
X056002Y038704D01*
X056079Y038780D01*
X056232Y038780D01*
X056309Y038704D01*
X056309Y038627D01*
X056232Y038550D01*
X056002Y038550D01*
X056463Y038704D02*
X056539Y038780D01*
X056693Y038780D01*
X056770Y038704D01*
X056770Y038397D01*
X055780Y039070D02*
X055473Y039070D01*
X055320Y039070D02*
X055320Y039530D01*
X055089Y039530D01*
X055013Y039454D01*
X055013Y039300D01*
X055089Y039223D01*
X055320Y039223D01*
X055166Y039223D02*
X055013Y039070D01*
X054859Y039070D02*
X054552Y039377D01*
X054552Y039454D01*
X054629Y039530D01*
X054782Y039530D01*
X054859Y039454D01*
X054859Y039070D02*
X054552Y039070D01*
X054399Y039147D02*
X054322Y039070D01*
X054169Y039070D01*
X054092Y039147D01*
X054092Y039223D01*
X054169Y039300D01*
X054399Y039300D01*
X054399Y039147D01*
X054399Y039300D02*
X054245Y039454D01*
X054092Y039530D01*
X055627Y039530D02*
X055627Y039070D01*
X055780Y039377D02*
X055627Y039530D01*
X054127Y037530D02*
X054127Y037070D01*
X054280Y037070D02*
X053973Y037070D01*
X053820Y037070D02*
X053820Y037530D01*
X053589Y037530D01*
X053513Y037454D01*
X053513Y037300D01*
X053589Y037223D01*
X053820Y037223D01*
X053666Y037223D02*
X053513Y037070D01*
X053359Y037070D02*
X053052Y037377D01*
X053052Y037454D01*
X053129Y037530D01*
X053282Y037530D01*
X053359Y037454D01*
X053359Y037070D02*
X053052Y037070D01*
X052899Y037147D02*
X052822Y037070D01*
X052669Y037070D01*
X052592Y037147D01*
X052592Y037223D01*
X052669Y037300D01*
X052745Y037300D01*
X052669Y037300D02*
X052592Y037377D01*
X052592Y037454D01*
X052669Y037530D01*
X052822Y037530D01*
X052899Y037454D01*
X052438Y037377D02*
X052285Y037530D01*
X052132Y037377D01*
X052132Y037070D01*
X052132Y037300D02*
X052438Y037300D01*
X052438Y037377D02*
X052438Y037070D01*
X051847Y038170D02*
X051540Y038170D01*
X051693Y038170D02*
X051693Y038630D01*
X051847Y038477D01*
X051386Y038630D02*
X051156Y038630D01*
X051079Y038554D01*
X051079Y038400D01*
X051156Y038323D01*
X051386Y038323D01*
X051386Y038170D02*
X051386Y038630D01*
X051233Y038323D02*
X051079Y038170D01*
X050926Y038170D02*
X050619Y038477D01*
X050619Y038554D01*
X050696Y038630D01*
X050849Y038630D01*
X050926Y038554D01*
X050926Y038170D02*
X050619Y038170D01*
X050465Y038247D02*
X050389Y038170D01*
X050235Y038170D01*
X050158Y038247D01*
X050158Y038554D01*
X050235Y038630D01*
X050389Y038630D01*
X050465Y038554D01*
X050465Y038477D01*
X050389Y038400D01*
X050158Y038400D01*
X048160Y036353D02*
X048160Y036063D01*
X047640Y036063D02*
X047640Y036363D01*
X046910Y036353D02*
X046910Y036063D01*
X046390Y036063D02*
X046390Y036363D01*
X046510Y035347D02*
X046800Y035347D01*
X046800Y034828D02*
X046500Y034828D01*
X043380Y034027D02*
X043227Y034180D01*
X043227Y033720D01*
X043380Y033720D02*
X043073Y033720D01*
X042920Y033720D02*
X042920Y034180D01*
X042689Y034180D01*
X042613Y034104D01*
X042613Y033797D01*
X042689Y033720D01*
X042920Y033720D01*
X042459Y033720D02*
X042152Y034027D01*
X042152Y034104D01*
X042229Y034180D01*
X042382Y034180D01*
X042459Y034104D01*
X042459Y033720D02*
X042152Y033720D01*
X042795Y035766D02*
X042795Y036073D01*
X042795Y036226D02*
X043255Y036226D01*
X043255Y036457D01*
X043179Y036533D01*
X043025Y036533D01*
X042948Y036457D01*
X042948Y036226D01*
X042948Y036380D02*
X042795Y036533D01*
X042795Y036687D02*
X043102Y036994D01*
X043179Y036994D01*
X043255Y036917D01*
X043255Y036763D01*
X043179Y036687D01*
X042795Y036687D02*
X042795Y036994D01*
X042872Y037147D02*
X042948Y037147D01*
X043025Y037224D01*
X043025Y037377D01*
X042948Y037454D01*
X042872Y037454D01*
X042795Y037377D01*
X042795Y037224D01*
X042872Y037147D01*
X043025Y037224D02*
X043102Y037147D01*
X043179Y037147D01*
X043255Y037224D01*
X043255Y037377D01*
X043179Y037454D01*
X043102Y037454D01*
X043025Y037377D01*
X042981Y038508D02*
X042981Y038968D01*
X043211Y038738D01*
X042904Y038738D01*
X042751Y038738D02*
X042444Y038738D01*
X042444Y038814D02*
X042444Y038508D01*
X042444Y038814D02*
X042597Y038968D01*
X042751Y038814D01*
X042751Y038508D01*
X043365Y038508D02*
X043672Y038508D01*
X043365Y038814D01*
X043365Y038891D01*
X043442Y038968D01*
X043595Y038968D01*
X043672Y038891D01*
X043825Y038891D02*
X043825Y038738D01*
X043902Y038661D01*
X044132Y038661D01*
X043979Y038661D02*
X043825Y038508D01*
X044132Y038508D02*
X044132Y038968D01*
X043902Y038968D01*
X043825Y038891D01*
X044286Y038508D02*
X044593Y038508D01*
X044439Y038508D02*
X044439Y038968D01*
X044593Y038814D01*
X044567Y039045D02*
X044874Y039045D01*
X045027Y039045D02*
X045334Y039045D01*
X045027Y039352D01*
X045027Y039429D01*
X045104Y039505D01*
X045257Y039505D01*
X045334Y039429D01*
X045488Y039429D02*
X045488Y039275D01*
X045564Y039198D01*
X045795Y039198D01*
X045795Y039045D02*
X045795Y039505D01*
X045564Y039505D01*
X045488Y039429D01*
X045641Y039198D02*
X045488Y039045D01*
X045948Y039045D02*
X046255Y039045D01*
X046102Y039045D02*
X046102Y039505D01*
X046255Y039352D01*
X044874Y039352D02*
X044720Y039505D01*
X044720Y039045D01*
X043255Y035919D02*
X042795Y035919D01*
X043102Y035766D02*
X043255Y035919D01*
X049882Y035627D02*
X049882Y035320D01*
X049882Y035550D02*
X050188Y035550D01*
X050188Y035627D02*
X050035Y035780D01*
X049882Y035627D01*
X050188Y035627D02*
X050188Y035320D01*
X050342Y035397D02*
X050419Y035320D01*
X050572Y035320D01*
X050649Y035397D01*
X050649Y035550D02*
X050495Y035627D01*
X050419Y035627D01*
X050342Y035550D01*
X050342Y035397D01*
X050649Y035550D02*
X050649Y035780D01*
X050342Y035780D01*
X050802Y035704D02*
X050879Y035780D01*
X051032Y035780D01*
X051109Y035704D01*
X051263Y035704D02*
X051263Y035550D01*
X051339Y035473D01*
X051570Y035473D01*
X051570Y035320D02*
X051570Y035780D01*
X051339Y035780D01*
X051263Y035704D01*
X051416Y035473D02*
X051263Y035320D01*
X051109Y035320D02*
X050802Y035627D01*
X050802Y035704D01*
X050802Y035320D02*
X051109Y035320D01*
X051723Y035320D02*
X052030Y035320D01*
X051877Y035320D02*
X051877Y035780D01*
X052030Y035627D01*
X052342Y035455D02*
X052649Y035455D01*
X052649Y035225D01*
X052495Y035302D01*
X052419Y035302D01*
X052342Y035225D01*
X052342Y035072D01*
X052419Y034995D01*
X052572Y034995D01*
X052649Y035072D01*
X052802Y035072D02*
X052879Y034995D01*
X053032Y034995D01*
X053109Y035072D01*
X053109Y035225D02*
X052956Y035302D01*
X052879Y035302D01*
X052802Y035225D01*
X052802Y035072D01*
X053109Y035225D02*
X053109Y035455D01*
X052802Y035455D01*
X053263Y035379D02*
X053263Y035225D01*
X053339Y035148D01*
X053570Y035148D01*
X053570Y034995D02*
X053570Y035455D01*
X053339Y035455D01*
X053263Y035379D01*
X053416Y035148D02*
X053263Y034995D01*
X053723Y034995D02*
X054030Y034995D01*
X053877Y034995D02*
X053877Y035455D01*
X054030Y035302D01*
X053877Y034030D02*
X053877Y033570D01*
X054030Y033570D02*
X053723Y033570D01*
X053570Y033570D02*
X053570Y034030D01*
X053339Y034030D01*
X053263Y033954D01*
X053263Y033800D01*
X053339Y033723D01*
X053570Y033723D01*
X053416Y033723D02*
X053263Y033570D01*
X053109Y033570D02*
X052802Y033570D01*
X052956Y033570D02*
X052956Y034030D01*
X053109Y033877D01*
X052649Y033800D02*
X052342Y033800D01*
X052419Y033570D02*
X052419Y034030D01*
X052649Y033800D01*
X051843Y033719D02*
X051383Y033719D01*
X051383Y033566D02*
X051383Y033873D01*
X051459Y034026D02*
X051383Y034103D01*
X051383Y034256D01*
X051459Y034333D01*
X051536Y034333D01*
X051613Y034256D01*
X051613Y034026D01*
X051459Y034026D01*
X051613Y034026D02*
X051766Y034180D01*
X051843Y034333D01*
X051843Y033719D02*
X051689Y033566D01*
X051613Y033412D02*
X051536Y033336D01*
X051536Y033105D01*
X051383Y033105D02*
X051843Y033105D01*
X051843Y033336D01*
X051766Y033412D01*
X051613Y033412D01*
X051536Y033259D02*
X051383Y033412D01*
X051383Y032952D02*
X051383Y032645D01*
X051383Y032798D02*
X051843Y032798D01*
X051689Y032645D01*
X053877Y034030D02*
X054030Y033877D01*
X057250Y034765D02*
X057550Y034765D01*
X057550Y035285D02*
X057260Y035285D01*
X054280Y037377D02*
X054127Y037530D01*
X061519Y035029D02*
X061596Y035105D01*
X061749Y035105D01*
X061826Y035029D01*
X061108Y030968D02*
X061108Y030508D01*
X061261Y030508D02*
X060954Y030508D01*
X060801Y030584D02*
X060724Y030508D01*
X060571Y030508D01*
X060494Y030584D01*
X060340Y030508D02*
X060034Y030508D01*
X060187Y030508D02*
X060187Y030968D01*
X060340Y030814D01*
X060494Y030891D02*
X060571Y030968D01*
X060724Y030968D01*
X060801Y030891D01*
X060801Y030584D01*
X061108Y030968D02*
X061261Y030814D01*
X062420Y029692D02*
X062880Y029692D01*
X062727Y029539D01*
X061980Y028217D02*
X061827Y028064D01*
X061138Y027504D02*
X061062Y027580D01*
X060908Y027580D01*
X060832Y027504D01*
X060908Y027350D02*
X060985Y027350D01*
X059405Y026552D02*
X059252Y026705D01*
X059252Y026245D01*
X059405Y026245D02*
X059098Y026245D01*
X058945Y026245D02*
X058945Y026705D01*
X058714Y026705D01*
X058638Y026629D01*
X058638Y026475D01*
X058714Y026398D01*
X058945Y026398D01*
X058791Y026398D02*
X058638Y026245D01*
X058484Y026475D02*
X058177Y026475D01*
X058024Y026475D02*
X057794Y026475D01*
X057717Y026398D01*
X057717Y026322D01*
X057794Y026245D01*
X057947Y026245D01*
X058024Y026322D01*
X058024Y026475D01*
X057870Y026629D01*
X057717Y026705D01*
X058254Y026705D02*
X058484Y026475D01*
X058254Y026245D02*
X058254Y026705D01*
X057804Y025180D02*
X057804Y024720D01*
X057957Y024720D02*
X057650Y024720D01*
X057497Y024873D02*
X057343Y024720D01*
X057190Y024873D01*
X057190Y025180D01*
X057036Y025180D02*
X056806Y025180D01*
X056729Y025104D01*
X056729Y024797D01*
X056806Y024720D01*
X057036Y024720D01*
X057036Y025180D01*
X057497Y025180D02*
X057497Y024873D01*
X057804Y025180D02*
X057957Y025027D01*
X056576Y025027D02*
X056422Y025180D01*
X056422Y024720D01*
X056269Y024720D02*
X056576Y024720D01*
X056115Y024720D02*
X055808Y024720D01*
X055962Y024720D02*
X055962Y025180D01*
X056115Y025027D01*
X054377Y023155D02*
X054377Y022695D01*
X054530Y022695D02*
X054223Y022695D01*
X054070Y022695D02*
X054070Y023155D01*
X053839Y023155D01*
X053763Y023079D01*
X053763Y022925D01*
X053839Y022848D01*
X054070Y022848D01*
X053916Y022848D02*
X053763Y022695D01*
X053609Y022772D02*
X053532Y022695D01*
X053379Y022695D01*
X053302Y022772D01*
X053302Y022925D01*
X053379Y023002D01*
X053456Y023002D01*
X053609Y022925D01*
X053609Y023155D01*
X053302Y023155D01*
X053149Y023155D02*
X052842Y023155D01*
X052842Y023079D01*
X053149Y022772D01*
X053149Y022695D01*
X054377Y023155D02*
X054530Y023002D01*
X053155Y026670D02*
X052848Y026670D01*
X053001Y026670D02*
X053001Y027130D01*
X053155Y026977D01*
X052694Y026900D02*
X052541Y026900D01*
X052694Y026670D02*
X052694Y027130D01*
X052388Y027130D01*
X052234Y026900D02*
X051927Y026900D01*
X052004Y026670D02*
X052004Y027130D01*
X052234Y026900D01*
X050043Y026802D02*
X049889Y026955D01*
X049889Y026495D01*
X049736Y026495D02*
X050043Y026495D01*
X049582Y026648D02*
X049429Y026495D01*
X049275Y026648D01*
X049275Y026955D01*
X049122Y026955D02*
X048892Y026955D01*
X048815Y026879D01*
X048815Y026572D01*
X048892Y026495D01*
X049122Y026495D01*
X049122Y026955D01*
X049582Y026955D02*
X049582Y026648D01*
X048661Y026495D02*
X048354Y026802D01*
X048354Y026879D01*
X048431Y026955D01*
X048585Y026955D01*
X048661Y026879D01*
X048661Y026495D02*
X048354Y026495D01*
X048417Y025505D02*
X048340Y025429D01*
X048340Y025352D01*
X048417Y025275D01*
X048340Y025198D01*
X048340Y025122D01*
X048417Y025045D01*
X048570Y025045D01*
X048647Y025122D01*
X048800Y025045D02*
X048954Y025198D01*
X048877Y025198D02*
X049107Y025198D01*
X049107Y025045D02*
X049107Y025505D01*
X048877Y025505D01*
X048800Y025429D01*
X048800Y025275D01*
X048877Y025198D01*
X048647Y025429D02*
X048570Y025505D01*
X048417Y025505D01*
X048417Y025275D02*
X048493Y025275D01*
X048186Y025198D02*
X048110Y025275D01*
X047956Y025275D01*
X047879Y025198D01*
X047879Y025122D01*
X047956Y025045D01*
X048110Y025045D01*
X048186Y025122D01*
X048186Y025198D01*
X048110Y025275D02*
X048186Y025352D01*
X048186Y025429D01*
X048110Y025505D01*
X047956Y025505D01*
X047879Y025429D01*
X047879Y025352D01*
X047956Y025275D01*
X049261Y025045D02*
X049568Y025045D01*
X049414Y025045D02*
X049414Y025505D01*
X049568Y025352D01*
X050400Y022855D02*
X050340Y022795D01*
X050340Y022735D01*
X050400Y022675D01*
X050520Y022675D01*
X050580Y022735D01*
X050580Y022795D01*
X050520Y022855D01*
X050400Y022855D01*
X050400Y022675D02*
X050340Y022615D01*
X050340Y022555D01*
X050400Y022495D01*
X050520Y022495D01*
X050580Y022555D01*
X050580Y022615D01*
X050520Y022675D01*
X053897Y017958D02*
X053973Y017958D01*
X054050Y017881D01*
X054050Y017651D01*
X053897Y017651D01*
X053820Y017728D01*
X053820Y017881D01*
X053897Y017958D01*
X054204Y017805D02*
X054050Y017651D01*
X054050Y017498D02*
X053897Y017498D01*
X053820Y017421D01*
X053820Y017268D01*
X053897Y017191D01*
X054050Y017191D02*
X054127Y017344D01*
X054127Y017421D01*
X054050Y017498D01*
X054280Y017498D02*
X054280Y017191D01*
X054050Y017191D01*
X054050Y017037D02*
X053973Y016961D01*
X053973Y016730D01*
X053820Y016730D02*
X054280Y016730D01*
X054280Y016961D01*
X054204Y017037D01*
X054050Y017037D01*
X053973Y016884D02*
X053820Y017037D01*
X053820Y016577D02*
X053820Y016270D01*
X053820Y016423D02*
X054280Y016423D01*
X054127Y016270D01*
X054204Y017805D02*
X054280Y017958D01*
X055817Y017977D02*
X055894Y017900D01*
X055817Y017823D01*
X055817Y017747D01*
X055894Y017670D01*
X056047Y017670D01*
X056124Y017747D01*
X055970Y017900D02*
X055894Y017900D01*
X055817Y017977D02*
X055817Y018054D01*
X055894Y018130D01*
X056047Y018130D01*
X056124Y018054D01*
X056277Y018130D02*
X056584Y018130D01*
X056431Y018130D02*
X056431Y017670D01*
X056738Y017823D02*
X056738Y018130D01*
X056738Y017823D02*
X056891Y017670D01*
X057045Y017823D01*
X057045Y018130D01*
X057352Y018130D02*
X057352Y017670D01*
X057505Y017670D02*
X057198Y017670D01*
X057505Y017977D02*
X057352Y018130D01*
X059783Y021720D02*
X060090Y021720D01*
X059783Y022027D01*
X059783Y022104D01*
X059860Y022180D01*
X060014Y022180D01*
X060090Y022104D01*
X060244Y022104D02*
X060321Y022180D01*
X060474Y022180D01*
X060551Y022104D01*
X060551Y021797D01*
X060474Y021720D01*
X060321Y021720D01*
X060244Y021797D01*
X060704Y021720D02*
X061011Y021720D01*
X060858Y021720D02*
X060858Y022180D01*
X061011Y022027D01*
X060460Y023145D02*
X060460Y023905D01*
X059840Y023905D02*
X059840Y023145D01*
X061770Y024160D02*
X062530Y024160D01*
X063360Y024670D02*
X063360Y025130D01*
X063590Y024900D01*
X063283Y024900D01*
X063744Y024747D02*
X063821Y024670D01*
X063974Y024670D01*
X064051Y024747D01*
X064051Y025054D01*
X063974Y025130D01*
X063821Y025130D01*
X063744Y025054D01*
X064204Y024900D02*
X064511Y024900D01*
X064281Y025130D01*
X064281Y024670D01*
X062530Y025140D02*
X061770Y025140D01*
X063258Y026020D02*
X063565Y026020D01*
X063258Y026327D01*
X063258Y026404D01*
X063335Y026480D01*
X063489Y026480D01*
X063565Y026404D01*
X063872Y026480D02*
X063872Y026020D01*
X063719Y026020D02*
X064026Y026020D01*
X064179Y026020D02*
X064333Y026173D01*
X064256Y026173D02*
X064486Y026173D01*
X064486Y026020D02*
X064486Y026480D01*
X064256Y026480D01*
X064179Y026404D01*
X064179Y026250D01*
X064256Y026173D01*
X064026Y026327D02*
X063872Y026480D01*
X064640Y026250D02*
X064947Y026250D01*
X064716Y026480D01*
X064716Y026020D01*
X059103Y029921D02*
X058813Y029921D01*
X058813Y030441D02*
X059113Y030441D01*
X043530Y017752D02*
X043377Y017905D01*
X043377Y017445D01*
X043530Y017445D02*
X043223Y017445D01*
X043070Y017445D02*
X043070Y017905D01*
X042839Y017905D01*
X042763Y017829D01*
X042763Y017675D01*
X042839Y017598D01*
X043070Y017598D01*
X042916Y017598D02*
X042763Y017445D01*
X042609Y017522D02*
X042532Y017445D01*
X042379Y017445D01*
X042302Y017522D01*
X042302Y017675D01*
X042379Y017752D01*
X042456Y017752D01*
X042609Y017675D01*
X042609Y017905D01*
X042302Y017905D01*
X042149Y017829D02*
X042072Y017905D01*
X041919Y017905D01*
X041842Y017829D01*
X041842Y017752D01*
X042149Y017445D01*
X041842Y017445D01*
X045158Y017400D02*
X045158Y017247D01*
X045235Y017170D01*
X045389Y017170D01*
X045465Y017247D01*
X045465Y017400D02*
X045312Y017477D01*
X045235Y017477D01*
X045158Y017400D01*
X045158Y017630D02*
X045465Y017630D01*
X045465Y017400D01*
X045619Y017630D02*
X045926Y017630D01*
X046079Y017630D02*
X046079Y017323D01*
X046233Y017170D01*
X046386Y017323D01*
X046386Y017630D01*
X046693Y017630D02*
X046693Y017170D01*
X046540Y017170D02*
X046847Y017170D01*
X046847Y017477D02*
X046693Y017630D01*
X045772Y017630D02*
X045772Y017170D01*
X093383Y029970D02*
X093690Y029970D01*
X093383Y030277D01*
X093383Y030354D01*
X093460Y030430D01*
X093614Y030430D01*
X093690Y030354D01*
X093844Y030430D02*
X093997Y030430D01*
X093921Y030430D02*
X093921Y030047D01*
X093997Y029970D01*
X094074Y029970D01*
X094151Y030047D01*
X094304Y030200D02*
X094611Y030200D01*
X094381Y030430D01*
X094381Y029970D01*
X095850Y035020D02*
X095850Y035327D01*
X095773Y035480D02*
X095773Y035711D01*
X095850Y035787D01*
X096004Y035787D01*
X096080Y035711D01*
X096080Y035480D01*
X095620Y035480D01*
X095773Y035634D02*
X095620Y035787D01*
X095697Y035941D02*
X095620Y036018D01*
X095620Y036171D01*
X095697Y036248D01*
X095773Y036248D01*
X095850Y036171D01*
X095850Y036094D01*
X095850Y036171D02*
X095927Y036248D01*
X096004Y036248D01*
X096080Y036171D01*
X096080Y036018D01*
X096004Y035941D01*
X096004Y036401D02*
X096080Y036478D01*
X096080Y036631D01*
X096004Y036708D01*
X095697Y036401D01*
X095620Y036478D01*
X095620Y036631D01*
X095697Y036708D01*
X096004Y036708D01*
X095927Y036862D02*
X095620Y036862D01*
X095850Y036862D02*
X095850Y037168D01*
X095927Y037168D02*
X095620Y037168D01*
X095927Y037168D02*
X096080Y037015D01*
X095927Y036862D01*
X096004Y036401D02*
X095697Y036401D01*
X095620Y035250D02*
X096080Y035250D01*
X095850Y035020D01*
X094050Y038120D02*
X094050Y038580D01*
X094280Y038350D01*
X093973Y038350D01*
X093820Y038197D02*
X093743Y038120D01*
X093666Y038120D01*
X093589Y038197D01*
X093589Y038580D01*
X093513Y038580D02*
X093666Y038580D01*
X093359Y038504D02*
X093282Y038580D01*
X093129Y038580D01*
X093052Y038504D01*
X093052Y038427D01*
X093129Y038350D01*
X093052Y038273D01*
X093052Y038197D01*
X093129Y038120D01*
X093282Y038120D01*
X093359Y038197D01*
X093206Y038350D02*
X093129Y038350D01*
X096258Y039472D02*
X096335Y039395D01*
X096489Y039395D01*
X096565Y039472D01*
X096565Y039625D02*
X096412Y039702D01*
X096335Y039702D01*
X096258Y039625D01*
X096258Y039472D01*
X096565Y039625D02*
X096565Y039855D01*
X096258Y039855D01*
X096872Y039855D02*
X096872Y039395D01*
X096719Y039395D02*
X097026Y039395D01*
X097179Y039395D02*
X097333Y039548D01*
X097256Y039548D02*
X097486Y039548D01*
X097486Y039395D02*
X097486Y039855D01*
X097256Y039855D01*
X097179Y039779D01*
X097179Y039625D01*
X097256Y039548D01*
X097026Y039702D02*
X096872Y039855D01*
X097640Y039625D02*
X097947Y039625D01*
X097716Y039855D01*
X097716Y039395D01*
X101669Y045570D02*
X101592Y045647D01*
X101592Y045723D01*
X101669Y045800D01*
X101899Y045800D01*
X101899Y045647D01*
X101822Y045570D01*
X101669Y045570D01*
X101899Y045800D02*
X101745Y045954D01*
X101592Y046030D01*
X102206Y046030D02*
X102206Y045570D01*
X102359Y045570D02*
X102052Y045570D01*
X102359Y045877D02*
X102206Y046030D01*
X102513Y045954D02*
X102513Y045800D01*
X102589Y045723D01*
X102820Y045723D01*
X102820Y045570D02*
X102820Y046030D01*
X102589Y046030D01*
X102513Y045954D01*
X102666Y045723D02*
X102513Y045570D01*
X102973Y045800D02*
X103280Y045800D01*
X103050Y046030D01*
X103050Y045570D01*
X106933Y044166D02*
X106933Y044089D01*
X107010Y044013D01*
X106933Y043936D01*
X106933Y043859D01*
X107010Y043783D01*
X107164Y043783D01*
X107240Y043859D01*
X107394Y043859D02*
X107394Y044166D01*
X107471Y044243D01*
X107701Y044243D01*
X107701Y043783D01*
X107471Y043783D01*
X107394Y043859D01*
X107087Y044013D02*
X107010Y044013D01*
X106933Y044166D02*
X107010Y044243D01*
X107164Y044243D01*
X107240Y044166D01*
X107854Y044243D02*
X107854Y043936D01*
X108008Y043783D01*
X108161Y043936D01*
X108161Y044243D01*
X108391Y044243D02*
X108622Y044013D01*
X108315Y044013D01*
X108391Y043783D02*
X108391Y044243D01*
X109756Y044254D02*
X109756Y044312D01*
X109814Y044370D01*
X109931Y044370D01*
X109989Y044312D01*
X110115Y044312D02*
X110115Y044195D01*
X110173Y044137D01*
X110348Y044137D01*
X110231Y044137D02*
X110115Y044020D01*
X109989Y044020D02*
X109756Y044254D01*
X109756Y044020D02*
X109989Y044020D01*
X110115Y044312D02*
X110173Y044370D01*
X110348Y044370D01*
X110348Y044020D01*
X110532Y044020D02*
X110532Y044370D01*
X110707Y044195D01*
X110474Y044195D01*
X115808Y040180D02*
X116115Y040180D01*
X116115Y039950D01*
X115962Y040027D01*
X115885Y040027D01*
X115808Y039950D01*
X115808Y039797D01*
X115885Y039720D01*
X116039Y039720D01*
X116115Y039797D01*
X116269Y039797D02*
X116269Y040104D01*
X116346Y040180D01*
X116576Y040180D01*
X116576Y039720D01*
X116346Y039720D01*
X116269Y039797D01*
X116729Y039873D02*
X116883Y039720D01*
X117036Y039873D01*
X117036Y040180D01*
X117266Y040180D02*
X117497Y039950D01*
X117190Y039950D01*
X117266Y039720D02*
X117266Y040180D01*
X116729Y040180D02*
X116729Y039873D01*
X115750Y037830D02*
X115980Y037600D01*
X115673Y037600D01*
X115520Y037523D02*
X115366Y037370D01*
X115213Y037523D01*
X115213Y037830D01*
X115059Y037830D02*
X114829Y037830D01*
X114752Y037754D01*
X114752Y037447D01*
X114829Y037370D01*
X115059Y037370D01*
X115059Y037830D01*
X115520Y037830D02*
X115520Y037523D01*
X115750Y037370D02*
X115750Y037830D01*
X114599Y037600D02*
X114292Y037600D01*
X114369Y037370D02*
X114369Y037830D01*
X114599Y037600D01*
X123679Y036695D02*
X123986Y036695D01*
X123833Y036695D02*
X123833Y037155D01*
X123986Y037002D01*
X124140Y036695D02*
X124447Y036695D01*
X124600Y036695D02*
X124754Y036848D01*
X124677Y036848D02*
X124907Y036848D01*
X124907Y036695D02*
X124907Y037155D01*
X124677Y037155D01*
X124600Y037079D01*
X124600Y036925D01*
X124677Y036848D01*
X124447Y037002D02*
X124293Y037155D01*
X124293Y036695D01*
X125061Y036925D02*
X125368Y036925D01*
X125137Y037155D01*
X125137Y036695D01*
X125552Y036454D02*
X125629Y036530D01*
X125782Y036530D01*
X125859Y036454D01*
X125859Y036377D01*
X125782Y036300D01*
X125552Y036300D01*
X125552Y036147D02*
X125552Y036454D01*
X125552Y036147D02*
X125629Y036070D01*
X125782Y036070D01*
X125859Y036147D01*
X126013Y036070D02*
X126166Y036223D01*
X126089Y036223D02*
X126320Y036223D01*
X126320Y036070D02*
X126320Y036530D01*
X126089Y036530D01*
X126013Y036454D01*
X126013Y036300D01*
X126089Y036223D01*
X126473Y036300D02*
X126780Y036300D01*
X126550Y036530D01*
X126550Y036070D01*
X127967Y036822D02*
X128044Y036745D01*
X128197Y036745D01*
X128274Y036822D01*
X127967Y037129D01*
X127967Y036822D01*
X127967Y037129D02*
X128044Y037205D01*
X128197Y037205D01*
X128274Y037129D01*
X128274Y036822D01*
X128427Y036745D02*
X128734Y036745D01*
X128581Y036745D02*
X128581Y037205D01*
X128734Y037052D01*
X128888Y037129D02*
X128888Y036975D01*
X128964Y036898D01*
X129195Y036898D01*
X129195Y036745D02*
X129195Y037205D01*
X128964Y037205D01*
X128888Y037129D01*
X129041Y036898D02*
X128888Y036745D01*
X129348Y036975D02*
X129655Y036975D01*
X129425Y037205D01*
X129425Y036745D01*
X132917Y035504D02*
X132917Y035427D01*
X132994Y035350D01*
X133147Y035350D01*
X133224Y035427D01*
X133224Y035504D01*
X133147Y035580D01*
X132994Y035580D01*
X132917Y035504D01*
X132994Y035350D02*
X132917Y035273D01*
X132917Y035197D01*
X132994Y035120D01*
X133147Y035120D01*
X133224Y035197D01*
X133224Y035273D01*
X133147Y035350D01*
X133377Y035197D02*
X133377Y035504D01*
X133454Y035580D01*
X133684Y035580D01*
X133684Y035120D01*
X133454Y035120D01*
X133377Y035197D01*
X133838Y035273D02*
X133838Y035580D01*
X133838Y035273D02*
X133991Y035120D01*
X134145Y035273D01*
X134145Y035580D01*
X134375Y035580D02*
X134605Y035350D01*
X134298Y035350D01*
X134375Y035120D02*
X134375Y035580D01*
X125317Y029260D02*
X125010Y029260D01*
X124857Y029183D02*
X124703Y029030D01*
X124550Y029183D01*
X124550Y029490D01*
X124396Y029490D02*
X124166Y029490D01*
X124089Y029414D01*
X124089Y029107D01*
X124166Y029030D01*
X124396Y029030D01*
X124396Y029490D01*
X124857Y029490D02*
X124857Y029183D01*
X125087Y029030D02*
X125087Y029490D01*
X125317Y029260D01*
X123936Y029337D02*
X123782Y029490D01*
X123782Y029030D01*
X123629Y029030D02*
X123936Y029030D01*
X123475Y029030D02*
X123168Y029337D01*
X123168Y029414D01*
X123245Y029490D01*
X123399Y029490D01*
X123475Y029414D01*
X123475Y029030D02*
X123168Y029030D01*
X115388Y028381D02*
X115081Y028381D01*
X114927Y028305D02*
X114774Y028151D01*
X114620Y028305D01*
X114620Y028611D01*
X114467Y028611D02*
X114237Y028611D01*
X114160Y028535D01*
X114160Y028228D01*
X114237Y028151D01*
X114467Y028151D01*
X114467Y028611D01*
X114927Y028611D02*
X114927Y028305D01*
X115157Y028151D02*
X115157Y028611D01*
X115388Y028381D01*
X114006Y028458D02*
X113853Y028611D01*
X113853Y028151D01*
X114006Y028151D02*
X113699Y028151D01*
X113546Y028151D02*
X113239Y028151D01*
X113393Y028151D02*
X113393Y028611D01*
X113546Y028458D01*
X113437Y026705D02*
X113283Y026705D01*
X113207Y026629D01*
X113513Y026322D01*
X113437Y026245D01*
X113283Y026245D01*
X113207Y026322D01*
X113207Y026629D01*
X113437Y026705D02*
X113513Y026629D01*
X113513Y026322D01*
X113667Y026245D02*
X113974Y026245D01*
X113820Y026245D02*
X113820Y026705D01*
X113974Y026552D01*
X114127Y026629D02*
X114204Y026705D01*
X114434Y026705D01*
X114434Y026245D01*
X114204Y026245D01*
X114127Y026322D01*
X114127Y026629D01*
X114588Y026705D02*
X114588Y026398D01*
X114741Y026245D01*
X114895Y026398D01*
X114895Y026705D01*
X115125Y026705D02*
X115355Y026475D01*
X115048Y026475D01*
X115125Y026245D02*
X115125Y026705D01*
X115164Y023680D02*
X115240Y023604D01*
X115240Y023527D01*
X115164Y023450D01*
X114933Y023450D01*
X114933Y023297D02*
X114933Y023604D01*
X115010Y023680D01*
X115164Y023680D01*
X115394Y023604D02*
X115471Y023680D01*
X115701Y023680D01*
X115701Y023220D01*
X115471Y023220D01*
X115394Y023297D01*
X115394Y023604D01*
X115240Y023297D02*
X115164Y023220D01*
X115010Y023220D01*
X114933Y023297D01*
X115854Y023373D02*
X115854Y023680D01*
X115854Y023373D02*
X116008Y023220D01*
X116161Y023373D01*
X116161Y023680D01*
X116391Y023680D02*
X116622Y023450D01*
X116315Y023450D01*
X116391Y023220D02*
X116391Y023680D01*
X117510Y046220D02*
X117433Y046297D01*
X117433Y046373D01*
X117510Y046450D01*
X117740Y046450D01*
X117740Y046297D01*
X117664Y046220D01*
X117510Y046220D01*
X117740Y046450D02*
X117587Y046604D01*
X117433Y046680D01*
X117894Y046604D02*
X117971Y046680D01*
X118201Y046680D01*
X118201Y046220D01*
X117971Y046220D01*
X117894Y046297D01*
X117894Y046604D01*
X118354Y046680D02*
X118354Y046373D01*
X118508Y046220D01*
X118661Y046373D01*
X118661Y046680D01*
X118891Y046680D02*
X119122Y046450D01*
X118815Y046450D01*
X118891Y046220D02*
X118891Y046680D01*
X113280Y050975D02*
X112973Y050975D01*
X112820Y050822D02*
X112743Y050745D01*
X112666Y050745D01*
X112589Y050822D01*
X112589Y051205D01*
X112513Y051205D02*
X112666Y051205D01*
X112359Y050975D02*
X112052Y050975D01*
X112129Y050745D02*
X112129Y051205D01*
X112359Y050975D01*
X113050Y050745D02*
X113050Y051205D01*
X113280Y050975D01*
X111175Y057445D02*
X111175Y057905D01*
X111405Y057675D01*
X111098Y057675D01*
X110945Y057598D02*
X110714Y057598D01*
X110638Y057675D01*
X110638Y057829D01*
X110714Y057905D01*
X110945Y057905D01*
X110945Y057445D01*
X110791Y057598D02*
X110638Y057445D01*
X110484Y057445D02*
X110177Y057445D01*
X110331Y057445D02*
X110331Y057905D01*
X110484Y057752D01*
X110024Y057675D02*
X109717Y057675D01*
X109794Y057445D02*
X109794Y057905D01*
X110024Y057675D01*
X113158Y058054D02*
X113465Y057747D01*
X113465Y057670D01*
X113619Y057670D02*
X113926Y057670D01*
X114079Y057670D02*
X114233Y057823D01*
X114156Y057823D02*
X114386Y057823D01*
X114386Y057670D02*
X114386Y058130D01*
X114156Y058130D01*
X114079Y058054D01*
X114079Y057900D01*
X114156Y057823D01*
X113926Y057977D02*
X113772Y058130D01*
X113772Y057670D01*
X113465Y058130D02*
X113158Y058130D01*
X113158Y058054D01*
X114540Y057900D02*
X114847Y057900D01*
X114616Y058130D01*
X114616Y057670D01*
X099682Y056611D02*
X099375Y056611D01*
X099222Y056458D02*
X099145Y056381D01*
X099068Y056381D01*
X098992Y056458D01*
X098992Y056842D01*
X099068Y056842D02*
X098915Y056842D01*
X098762Y056688D02*
X098608Y056842D01*
X098608Y056381D01*
X098455Y056381D02*
X098762Y056381D01*
X099452Y056381D02*
X099452Y056842D01*
X099682Y056611D01*
X131370Y049951D02*
X131447Y049951D01*
X131754Y050258D01*
X131830Y050258D01*
X131830Y049951D01*
X131754Y049798D02*
X131830Y049721D01*
X131830Y049491D01*
X131370Y049491D01*
X131370Y049721D01*
X131447Y049798D01*
X131754Y049798D01*
X131830Y049337D02*
X131523Y049337D01*
X131370Y049184D01*
X131523Y049030D01*
X131830Y049030D01*
X131830Y048800D02*
X131600Y048570D01*
X131600Y048877D01*
X131370Y048800D02*
X131830Y048800D01*
X064497Y051095D02*
X064190Y051095D01*
X064343Y051095D02*
X064343Y051555D01*
X064497Y051402D01*
X064036Y051555D02*
X064036Y051248D01*
X063883Y051095D01*
X063729Y051248D01*
X063729Y051555D01*
X063576Y051555D02*
X063346Y051555D01*
X063269Y051479D01*
X063269Y051172D01*
X063346Y051095D01*
X063576Y051095D01*
X063576Y051555D01*
X063115Y051479D02*
X063039Y051555D01*
X062885Y051555D01*
X062808Y051479D01*
X062808Y051402D01*
X062885Y051325D01*
X062808Y051248D01*
X062808Y051172D01*
X062885Y051095D01*
X063039Y051095D01*
X063115Y051172D01*
X062962Y051325D02*
X062885Y051325D01*
X060280Y051195D02*
X059973Y051195D01*
X059820Y051195D02*
X059820Y051655D01*
X059589Y051655D01*
X059513Y051579D01*
X059513Y051425D01*
X059589Y051348D01*
X059820Y051348D01*
X059666Y051348D02*
X059513Y051195D01*
X059359Y051272D02*
X059282Y051195D01*
X059129Y051195D01*
X059052Y051272D01*
X059052Y051348D01*
X059129Y051425D01*
X059206Y051425D01*
X059129Y051425D02*
X059052Y051502D01*
X059052Y051579D01*
X059129Y051655D01*
X059282Y051655D01*
X059359Y051579D01*
X058899Y051579D02*
X058822Y051655D01*
X058669Y051655D01*
X058592Y051579D01*
X058899Y051272D01*
X058822Y051195D01*
X058669Y051195D01*
X058592Y051272D01*
X058592Y051579D01*
X058899Y051579D02*
X058899Y051272D01*
X060127Y051195D02*
X060127Y051655D01*
X060280Y051502D01*
X057059Y049764D02*
X056906Y049918D01*
X056906Y049458D01*
X057059Y049458D02*
X056752Y049458D01*
X056599Y049534D02*
X056522Y049458D01*
X056368Y049458D01*
X056292Y049534D01*
X056138Y049458D02*
X055831Y049458D01*
X055678Y049458D02*
X055371Y049764D01*
X055371Y049841D01*
X055448Y049918D01*
X055601Y049918D01*
X055678Y049841D01*
X055985Y049918D02*
X055985Y049458D01*
X055678Y049458D02*
X055371Y049458D01*
X054972Y050063D02*
X054972Y050353D01*
X054453Y050363D02*
X054453Y050063D01*
X055985Y049918D02*
X056138Y049764D01*
X056292Y049841D02*
X056368Y049918D01*
X056522Y049918D01*
X056599Y049841D01*
X056599Y049534D01*
X059827Y048605D02*
X059981Y048529D01*
X060134Y048375D01*
X059904Y048375D01*
X059827Y048298D01*
X059827Y048222D01*
X059904Y048145D01*
X060057Y048145D01*
X060134Y048222D01*
X060134Y048375D01*
X060364Y048222D02*
X060364Y048605D01*
X060288Y048605D02*
X060441Y048605D01*
X060748Y048529D02*
X060825Y048605D01*
X060978Y048605D01*
X061055Y048529D01*
X060748Y048529D02*
X060748Y048452D01*
X061055Y048145D01*
X060748Y048145D01*
X060595Y048222D02*
X060518Y048145D01*
X060441Y048145D01*
X060364Y048222D01*
X059555Y056520D02*
X059248Y056827D01*
X059248Y056904D01*
X059325Y056980D01*
X059478Y056980D01*
X059555Y056904D01*
X059555Y056520D02*
X059248Y056520D01*
X059095Y056597D02*
X059018Y056520D01*
X058941Y056520D01*
X058864Y056597D01*
X058864Y056980D01*
X058788Y056980D02*
X058941Y056980D01*
X058634Y056980D02*
X058327Y056980D01*
X058327Y056904D01*
X058634Y056597D01*
X058634Y056520D01*
X061552Y059397D02*
X061552Y059473D01*
X061629Y059550D01*
X061859Y059550D01*
X061859Y059397D01*
X061782Y059320D01*
X061629Y059320D01*
X061552Y059397D01*
X061706Y059704D02*
X061859Y059550D01*
X062013Y059550D02*
X062089Y059473D01*
X062320Y059473D01*
X062320Y059320D02*
X062320Y059780D01*
X062089Y059780D01*
X062013Y059704D01*
X062013Y059550D01*
X062166Y059473D02*
X062013Y059320D01*
X062473Y059320D02*
X062780Y059320D01*
X062473Y059627D01*
X062473Y059704D01*
X062550Y059780D01*
X062703Y059780D01*
X062780Y059704D01*
X061706Y059704D02*
X061552Y059780D01*
X057497Y066220D02*
X057190Y066527D01*
X057190Y066604D01*
X057266Y066680D01*
X057420Y066680D01*
X057497Y066604D01*
X057497Y066220D02*
X057190Y066220D01*
X057036Y066373D02*
X056883Y066220D01*
X056729Y066373D01*
X056729Y066680D01*
X056576Y066680D02*
X056346Y066680D01*
X056269Y066604D01*
X056269Y066297D01*
X056346Y066220D01*
X056576Y066220D01*
X056576Y066680D01*
X057036Y066680D02*
X057036Y066373D01*
X056115Y066220D02*
X055808Y066527D01*
X055808Y066604D01*
X055885Y066680D01*
X056039Y066680D01*
X056115Y066604D01*
X056115Y066220D02*
X055808Y066220D01*
X053280Y067570D02*
X052973Y067877D01*
X052973Y067954D01*
X053050Y068030D01*
X053203Y068030D01*
X053280Y067954D01*
X053280Y067570D02*
X052973Y067570D01*
X052820Y067570D02*
X052820Y068030D01*
X052589Y068030D01*
X052513Y067954D01*
X052513Y067800D01*
X052589Y067723D01*
X052820Y067723D01*
X052666Y067723D02*
X052513Y067570D01*
X052359Y067647D02*
X052282Y067570D01*
X052129Y067570D01*
X052052Y067647D01*
X052052Y067800D01*
X052129Y067877D01*
X052206Y067877D01*
X052359Y067800D01*
X052359Y068030D01*
X052052Y068030D01*
X054354Y070420D02*
X054354Y070880D01*
X054584Y070650D01*
X054277Y070650D01*
X054738Y070497D02*
X054814Y070420D01*
X054968Y070420D01*
X055045Y070497D01*
X055045Y070804D01*
X054968Y070880D01*
X054814Y070880D01*
X054738Y070804D01*
X055198Y070804D02*
X055275Y070880D01*
X055428Y070880D01*
X055505Y070804D01*
X055198Y070804D02*
X055198Y070727D01*
X055505Y070420D01*
X055198Y070420D01*
X056145Y070340D02*
X056905Y070340D01*
X057277Y070130D02*
X057584Y070130D01*
X057584Y069900D01*
X057431Y069977D01*
X057354Y069977D01*
X057277Y069900D01*
X057277Y069747D01*
X057354Y069670D01*
X057507Y069670D01*
X057584Y069747D01*
X057738Y069747D02*
X057814Y069670D01*
X057968Y069670D01*
X058045Y069747D01*
X058045Y070054D01*
X057968Y070130D01*
X057814Y070130D01*
X057738Y070054D01*
X058198Y070054D02*
X058275Y070130D01*
X058428Y070130D01*
X058505Y070054D01*
X058198Y070054D02*
X058198Y069977D01*
X058505Y069670D01*
X058198Y069670D01*
X056905Y070960D02*
X056145Y070960D01*
X056500Y071265D02*
X056800Y071265D01*
X056800Y071785D02*
X056510Y071785D01*
X054405Y072745D02*
X054098Y073052D01*
X054098Y073129D01*
X054175Y073205D01*
X054328Y073205D01*
X054405Y073129D01*
X054405Y072745D02*
X054098Y072745D01*
X053945Y072822D02*
X053868Y072745D01*
X053791Y072745D01*
X053714Y072822D01*
X053714Y073205D01*
X053638Y073205D02*
X053791Y073205D01*
X053665Y073515D02*
X053375Y073515D01*
X053331Y073205D02*
X053331Y072745D01*
X053484Y072745D02*
X053177Y072745D01*
X053484Y073052D02*
X053331Y073205D01*
X053375Y074035D02*
X053675Y074035D01*
X053689Y074170D02*
X053613Y074247D01*
X053689Y074170D02*
X053843Y074170D01*
X053920Y074247D01*
X053920Y074554D01*
X053843Y074630D01*
X053689Y074630D01*
X053613Y074554D01*
X053459Y074554D02*
X053382Y074630D01*
X053229Y074630D01*
X053152Y074554D01*
X053152Y074477D01*
X053229Y074400D01*
X053152Y074323D01*
X053152Y074247D01*
X053229Y074170D01*
X053382Y074170D01*
X053459Y074247D01*
X053306Y074400D02*
X053229Y074400D01*
X052988Y074953D02*
X052688Y074953D01*
X052697Y075472D02*
X052988Y075472D01*
X052897Y075733D02*
X052590Y075733D01*
X052743Y075733D02*
X052743Y076193D01*
X052897Y076039D01*
X053050Y076116D02*
X053127Y076193D01*
X053280Y076193D01*
X053357Y076116D01*
X053357Y075809D01*
X053280Y075733D01*
X053127Y075733D01*
X053050Y075809D01*
X053511Y075733D02*
X053818Y075733D01*
X053511Y076039D01*
X053511Y076116D01*
X053587Y076193D01*
X053741Y076193D01*
X053818Y076116D01*
X052988Y076890D02*
X052688Y076890D01*
X052697Y077410D02*
X052988Y077410D01*
X052897Y077670D02*
X052590Y077977D01*
X052590Y078054D01*
X052667Y078130D01*
X052820Y078130D01*
X052897Y078054D01*
X053050Y078054D02*
X053127Y078130D01*
X053280Y078130D01*
X053357Y078054D01*
X053357Y077747D01*
X053280Y077670D01*
X053127Y077670D01*
X053050Y077747D01*
X052897Y077670D02*
X052590Y077670D01*
X053511Y077670D02*
X053818Y077670D01*
X053511Y077977D01*
X053511Y078054D01*
X053587Y078130D01*
X053741Y078130D01*
X053818Y078054D01*
X055368Y077130D02*
X055368Y076670D01*
X055215Y076670D02*
X055522Y076670D01*
X055675Y076747D02*
X055675Y077054D01*
X055752Y077130D01*
X055982Y077130D01*
X055982Y076670D01*
X055752Y076670D01*
X055675Y076747D01*
X055522Y076977D02*
X055368Y077130D01*
X056136Y077054D02*
X056212Y077130D01*
X056366Y077130D01*
X056443Y077054D01*
X056136Y077054D02*
X056136Y076977D01*
X056443Y076670D01*
X056136Y076670D01*
X057177Y077072D02*
X057254Y076995D01*
X057407Y076995D01*
X057484Y077072D01*
X057331Y077225D02*
X057254Y077225D01*
X057177Y077148D01*
X057177Y077072D01*
X057254Y077225D02*
X057177Y077302D01*
X057177Y077379D01*
X057254Y077455D01*
X057407Y077455D01*
X057484Y077379D01*
X057638Y077455D02*
X057791Y077455D01*
X057714Y077455D02*
X057714Y077072D01*
X057791Y076995D01*
X057868Y076995D01*
X057945Y077072D01*
X058098Y076995D02*
X058405Y076995D01*
X058098Y077302D01*
X058098Y077379D01*
X058175Y077455D01*
X058328Y077455D01*
X058405Y077379D01*
X056924Y078720D02*
X056617Y079027D01*
X056617Y079104D01*
X056693Y079180D01*
X056847Y079180D01*
X056924Y079104D01*
X056924Y078720D02*
X056617Y078720D01*
X056463Y078720D02*
X056463Y079180D01*
X056233Y079180D01*
X056156Y079104D01*
X056156Y078950D01*
X056233Y078873D01*
X056463Y078873D01*
X056310Y078873D02*
X056156Y078720D01*
X056003Y078720D02*
X055696Y078720D01*
X055849Y078720D02*
X055849Y079180D01*
X056003Y079027D01*
X056196Y080345D02*
X056503Y080345D01*
X056196Y080652D01*
X056196Y080729D01*
X056273Y080805D01*
X056426Y080805D01*
X056503Y080729D01*
X056656Y080729D02*
X056656Y080575D01*
X056733Y080498D01*
X056963Y080498D01*
X056963Y080345D02*
X056963Y080805D01*
X056733Y080805D01*
X056656Y080729D01*
X056810Y080498D02*
X056656Y080345D01*
X057117Y080345D02*
X057424Y080345D01*
X057117Y080652D01*
X057117Y080729D01*
X057193Y080805D01*
X057347Y080805D01*
X057424Y080729D01*
X052105Y080504D02*
X052028Y080580D01*
X051875Y080580D01*
X051798Y080504D01*
X051798Y080427D01*
X052105Y080120D01*
X051798Y080120D01*
X051645Y080273D02*
X051491Y080120D01*
X051338Y080273D01*
X051338Y080580D01*
X051184Y080580D02*
X050954Y080580D01*
X050877Y080504D01*
X050877Y080197D01*
X050954Y080120D01*
X051184Y080120D01*
X051184Y080580D01*
X051645Y080580D02*
X051645Y080273D01*
X050724Y080120D02*
X050417Y080120D01*
X050570Y080120D02*
X050570Y080580D01*
X050724Y080427D01*
X054150Y074630D02*
X054303Y074630D01*
X054380Y074554D01*
X054150Y074630D02*
X054073Y074554D01*
X054073Y074477D01*
X054380Y074170D01*
X054073Y074170D01*
X053353Y071605D02*
X053430Y071529D01*
X053353Y071605D02*
X053200Y071605D01*
X053123Y071529D01*
X053123Y071452D01*
X053430Y071145D01*
X053123Y071145D01*
X052970Y071222D02*
X052893Y071145D01*
X052816Y071145D01*
X052739Y071222D01*
X052739Y071605D01*
X052663Y071605D02*
X052816Y071605D01*
X052509Y071529D02*
X052432Y071605D01*
X052279Y071605D01*
X052202Y071529D01*
X052202Y071452D01*
X052509Y071145D01*
X052202Y071145D01*
X060442Y067795D02*
X060749Y067795D01*
X060595Y067795D02*
X060595Y068255D01*
X060749Y068102D01*
X060902Y068255D02*
X061209Y068255D01*
X061056Y068255D02*
X061056Y067795D01*
X061363Y067948D02*
X061363Y068255D01*
X061363Y067948D02*
X061516Y067795D01*
X061670Y067948D01*
X061670Y068255D01*
X061823Y068179D02*
X061900Y068255D01*
X062053Y068255D01*
X062130Y068179D01*
X061823Y068179D02*
X061823Y068102D01*
X062130Y067795D01*
X061823Y067795D01*
X063504Y070445D02*
X063657Y070445D01*
X063734Y070522D01*
X063888Y070445D02*
X064041Y070598D01*
X063964Y070598D02*
X064195Y070598D01*
X064195Y070445D02*
X064195Y070905D01*
X063964Y070905D01*
X063888Y070829D01*
X063888Y070675D01*
X063964Y070598D01*
X063734Y070829D02*
X063657Y070905D01*
X063504Y070905D01*
X063427Y070829D01*
X063427Y070752D01*
X063504Y070675D01*
X063427Y070598D01*
X063427Y070522D01*
X063504Y070445D01*
X063504Y070675D02*
X063581Y070675D01*
X064348Y070752D02*
X064655Y070445D01*
X064348Y070445D01*
X064348Y070752D02*
X064348Y070829D01*
X064425Y070905D01*
X064578Y070905D01*
X064655Y070829D01*
X051030Y058752D02*
X050877Y058905D01*
X050877Y058445D01*
X051030Y058445D02*
X050723Y058445D01*
X050570Y058445D02*
X050570Y058905D01*
X050339Y058905D01*
X050263Y058829D01*
X050263Y058675D01*
X050339Y058598D01*
X050570Y058598D01*
X050416Y058598D02*
X050263Y058445D01*
X050109Y058522D02*
X050032Y058445D01*
X049879Y058445D01*
X049802Y058522D01*
X049802Y058598D01*
X049879Y058675D01*
X049956Y058675D01*
X049879Y058675D02*
X049802Y058752D01*
X049802Y058829D01*
X049879Y058905D01*
X050032Y058905D01*
X050109Y058829D01*
X049649Y058829D02*
X049572Y058905D01*
X049419Y058905D01*
X049342Y058829D01*
X049342Y058752D01*
X049649Y058445D01*
X049342Y058445D01*
D15*
X054712Y050495D03*
X054712Y049925D03*
X057650Y036432D03*
X057650Y035862D03*
X047900Y035925D03*
X047900Y036495D03*
X046650Y036495D03*
X046650Y035925D03*
D16*
X046368Y035087D03*
X046938Y035087D03*
X045813Y029525D03*
X045243Y029525D03*
X046050Y028775D03*
X046620Y028775D03*
X035682Y025150D03*
X035112Y025150D03*
X057118Y035025D03*
X057688Y035025D03*
X058675Y030182D03*
X059245Y030182D03*
X056938Y071525D03*
X056368Y071525D03*
X053807Y073775D03*
X053237Y073775D03*
X053125Y075212D03*
X052555Y075212D03*
X052555Y077150D03*
X053125Y077150D03*
D17*
X053273Y072275D03*
X054273Y072275D03*
G36*
X099262Y054919D02*
X099111Y054667D01*
X098522Y055019D01*
X098673Y055271D01*
X099262Y054919D01*
G37*
G36*
X099775Y055777D02*
X099624Y055525D01*
X099035Y055877D01*
X099186Y056129D01*
X099775Y055777D01*
G37*
X109648Y044900D03*
X110648Y044900D03*
X127652Y037650D03*
X128652Y037650D03*
X059527Y036525D03*
X058527Y036525D03*
X055523Y034900D03*
X054523Y034900D03*
D18*
X059400Y032080D03*
X059400Y030970D03*
X056775Y029455D03*
X056775Y028345D03*
X045088Y030470D03*
X045088Y031580D03*
X045775Y035970D03*
X045775Y037080D03*
D19*
X044963Y037248D03*
X044963Y037928D03*
X044963Y036490D03*
X044963Y035810D03*
X050338Y033490D03*
X050338Y032810D03*
X054150Y032560D03*
X054150Y033240D03*
X056025Y035810D03*
X056025Y036490D03*
X061400Y032365D03*
X061400Y031685D03*
X059275Y029365D03*
X059275Y028685D03*
X052775Y022365D03*
X052775Y021685D03*
X042525Y022185D03*
X042525Y022865D03*
X043213Y027935D03*
X043213Y028615D03*
X043213Y031123D03*
X043213Y031803D03*
X051525Y057810D03*
X051525Y058490D03*
X101025Y045865D03*
X101025Y045185D03*
D20*
X057172Y037275D03*
X056128Y037275D03*
X056003Y070650D03*
X057047Y070650D03*
D21*
X063225Y070790D02*
X063225Y070490D01*
X063525Y070790D01*
X063600Y070790D01*
X063675Y070715D01*
X063675Y070565D01*
X063600Y070490D01*
X063600Y070329D02*
X063675Y070254D01*
X063675Y070029D01*
X063225Y070029D01*
X063225Y070254D01*
X063300Y070329D01*
X063600Y070329D01*
X063600Y069869D02*
X063675Y069794D01*
X063675Y069644D01*
X063600Y069569D01*
X063675Y069409D02*
X063675Y069259D01*
X063675Y069334D02*
X063300Y069334D01*
X063225Y069259D01*
X063225Y069183D01*
X063300Y069108D01*
X063225Y069569D02*
X063525Y069869D01*
X063600Y069869D01*
X063225Y069869D02*
X063225Y069569D01*
X063877Y070151D02*
X064150Y070174D01*
X064150Y070174D01*
X064423Y070151D01*
X064424Y070150D01*
X064419Y070118D01*
X064410Y070086D01*
X064398Y070056D01*
X064382Y070028D01*
X064363Y070001D01*
X064341Y069977D01*
X064317Y069956D01*
X064290Y069938D01*
X064261Y069923D01*
X064230Y069912D01*
X064199Y069904D01*
X064166Y069900D01*
X064134Y069900D01*
X064101Y069904D01*
X064070Y069912D01*
X064039Y069923D01*
X064010Y069938D01*
X063983Y069956D01*
X063959Y069977D01*
X063937Y070001D01*
X063918Y070028D01*
X063902Y070056D01*
X063890Y070086D01*
X063881Y070118D01*
X063876Y070150D01*
X063923Y070150D01*
X063928Y070122D01*
X063937Y070094D01*
X063949Y070068D01*
X063964Y070043D01*
X063982Y070020D01*
X064003Y070000D01*
X064027Y069983D01*
X064052Y069969D01*
X064079Y069958D01*
X064107Y069951D01*
X064136Y069947D01*
X064164Y069947D01*
X064193Y069951D01*
X064221Y069958D01*
X064248Y069969D01*
X064273Y069983D01*
X064297Y070000D01*
X064318Y070020D01*
X064336Y070043D01*
X064351Y070068D01*
X064363Y070094D01*
X064372Y070122D01*
X064377Y070150D01*
X064329Y070150D01*
X064324Y070125D01*
X064315Y070100D01*
X064303Y070078D01*
X064287Y070057D01*
X064269Y070038D01*
X064248Y070023D01*
X064225Y070010D01*
X064201Y070001D01*
X064176Y069996D01*
X064150Y069994D01*
X064124Y069996D01*
X064099Y070001D01*
X064075Y070010D01*
X064052Y070023D01*
X064031Y070038D01*
X064013Y070057D01*
X063997Y070078D01*
X063985Y070100D01*
X063976Y070125D01*
X063971Y070150D01*
X064018Y070150D01*
X064024Y070129D01*
X064033Y070109D01*
X064045Y070091D01*
X064060Y070075D01*
X064078Y070062D01*
X064097Y070052D01*
X064118Y070045D01*
X064139Y070041D01*
X064161Y070041D01*
X064182Y070045D01*
X064203Y070052D01*
X064222Y070062D01*
X064240Y070075D01*
X064255Y070091D01*
X064267Y070109D01*
X064276Y070129D01*
X064282Y070150D01*
X064233Y070150D01*
X064227Y070134D01*
X064218Y070120D01*
X064205Y070108D01*
X064191Y070098D01*
X064175Y070092D01*
X064159Y070088D01*
X064141Y070088D01*
X064125Y070092D01*
X064109Y070098D01*
X064095Y070108D01*
X064082Y070120D01*
X064073Y070134D01*
X064067Y070150D01*
X064118Y070152D01*
X064125Y070144D01*
X064134Y070138D01*
X064145Y070135D01*
X064155Y070135D01*
X064166Y070138D01*
X064175Y070144D01*
X064182Y070152D01*
X064423Y070399D02*
X064150Y070376D01*
X064150Y070376D01*
X063877Y070399D01*
X063876Y070400D01*
X063881Y070432D01*
X063890Y070464D01*
X063902Y070494D01*
X063918Y070522D01*
X063937Y070549D01*
X063959Y070573D01*
X063983Y070594D01*
X064010Y070612D01*
X064039Y070627D01*
X064070Y070638D01*
X064101Y070646D01*
X064134Y070650D01*
X064166Y070650D01*
X064199Y070646D01*
X064230Y070638D01*
X064261Y070627D01*
X064290Y070612D01*
X064317Y070594D01*
X064341Y070573D01*
X064363Y070549D01*
X064382Y070522D01*
X064398Y070494D01*
X064410Y070464D01*
X064419Y070432D01*
X064424Y070400D01*
X064377Y070400D01*
X064372Y070428D01*
X064363Y070456D01*
X064351Y070482D01*
X064336Y070507D01*
X064318Y070530D01*
X064297Y070550D01*
X064273Y070567D01*
X064248Y070581D01*
X064221Y070592D01*
X064193Y070599D01*
X064164Y070603D01*
X064136Y070603D01*
X064107Y070599D01*
X064079Y070592D01*
X064052Y070581D01*
X064027Y070567D01*
X064003Y070550D01*
X063982Y070530D01*
X063964Y070507D01*
X063949Y070482D01*
X063937Y070456D01*
X063928Y070428D01*
X063923Y070400D01*
X063971Y070400D01*
X063976Y070425D01*
X063985Y070450D01*
X063997Y070472D01*
X064013Y070493D01*
X064031Y070512D01*
X064052Y070527D01*
X064075Y070540D01*
X064099Y070549D01*
X064124Y070554D01*
X064150Y070556D01*
X064176Y070554D01*
X064201Y070549D01*
X064225Y070540D01*
X064248Y070527D01*
X064269Y070512D01*
X064287Y070493D01*
X064303Y070472D01*
X064315Y070450D01*
X064324Y070425D01*
X064329Y070400D01*
X064282Y070400D01*
X064276Y070421D01*
X064267Y070441D01*
X064255Y070459D01*
X064240Y070475D01*
X064222Y070488D01*
X064203Y070498D01*
X064182Y070505D01*
X064161Y070509D01*
X064139Y070509D01*
X064118Y070505D01*
X064097Y070498D01*
X064078Y070488D01*
X064060Y070475D01*
X064045Y070459D01*
X064033Y070441D01*
X064024Y070421D01*
X064018Y070400D01*
X064067Y070400D01*
X064073Y070416D01*
X064082Y070430D01*
X064095Y070442D01*
X064109Y070452D01*
X064125Y070458D01*
X064141Y070462D01*
X064159Y070462D01*
X064175Y070458D01*
X064191Y070452D01*
X064205Y070442D01*
X064218Y070430D01*
X064227Y070416D01*
X064233Y070400D01*
X064182Y070398D01*
X064175Y070406D01*
X064166Y070412D01*
X064155Y070415D01*
X064145Y070415D01*
X064134Y070412D01*
X064125Y070406D01*
X064118Y070398D01*
X061500Y066350D02*
X061575Y066275D01*
X061500Y066350D02*
X061350Y066350D01*
X061275Y066275D01*
X061275Y066200D01*
X061575Y065900D01*
X061275Y065900D01*
X061115Y065900D02*
X061115Y066350D01*
X060889Y066350D01*
X060814Y066275D01*
X060814Y066125D01*
X060889Y066050D01*
X061115Y066050D01*
X060964Y066050D02*
X060814Y065900D01*
X060654Y066125D02*
X060354Y066125D01*
X060429Y065900D02*
X060429Y066350D01*
X060654Y066125D01*
X048539Y074131D02*
X048464Y074056D01*
X048314Y074056D01*
X048239Y074131D01*
X048239Y074206D01*
X048314Y074281D01*
X048389Y074281D01*
X048314Y074281D02*
X048239Y074357D01*
X048239Y074432D01*
X048314Y074507D01*
X048464Y074507D01*
X048539Y074432D01*
X048464Y074806D02*
X048539Y074881D01*
X048464Y074806D02*
X048314Y074806D01*
X048239Y074881D01*
X048239Y074956D01*
X048314Y075031D01*
X048389Y075031D01*
X048314Y075031D02*
X048239Y075107D01*
X048239Y075182D01*
X048314Y075257D01*
X048464Y075257D01*
X048539Y075182D01*
X048079Y075257D02*
X048079Y074956D01*
X047929Y074806D01*
X047779Y074956D01*
X047779Y075257D01*
X047619Y075257D02*
X047393Y075257D01*
X047318Y075182D01*
X047318Y074881D01*
X047393Y074806D01*
X047619Y074806D01*
X047619Y075257D01*
X047158Y075257D02*
X047158Y075031D01*
X047008Y075107D01*
X046933Y075107D01*
X046858Y075031D01*
X046858Y074881D01*
X046933Y074806D01*
X047083Y074806D01*
X047158Y074881D01*
X047158Y075257D02*
X046858Y075257D01*
X046858Y074507D02*
X047008Y074432D01*
X047158Y074281D01*
X046933Y074281D01*
X046858Y074206D01*
X046858Y074131D01*
X046933Y074056D01*
X047083Y074056D01*
X047158Y074131D01*
X047158Y074281D01*
X047318Y074131D02*
X047318Y074432D01*
X047393Y074507D01*
X047619Y074507D01*
X047619Y074056D01*
X047393Y074056D01*
X047318Y074131D01*
X047779Y074206D02*
X047779Y074507D01*
X048079Y074507D02*
X048079Y074206D01*
X047929Y074056D01*
X047779Y074206D01*
X060348Y076350D02*
X060648Y076350D01*
X060348Y076650D01*
X060348Y076725D01*
X060423Y076800D01*
X060573Y076800D01*
X060648Y076725D01*
X060808Y076725D02*
X060883Y076800D01*
X061108Y076800D01*
X061108Y076350D01*
X060883Y076350D01*
X060808Y076425D01*
X060808Y076725D01*
X061268Y076725D02*
X061343Y076800D01*
X061494Y076800D01*
X061569Y076725D01*
X061268Y076725D02*
X061268Y076650D01*
X061569Y076350D01*
X061268Y076350D01*
X097825Y045015D02*
X097825Y044715D01*
X097825Y044865D02*
X098275Y044865D01*
X098125Y044715D01*
X101298Y044274D02*
X101025Y044251D01*
X101025Y044251D01*
X100752Y044274D01*
X100751Y044275D01*
X100756Y044307D01*
X100765Y044339D01*
X100777Y044369D01*
X100793Y044397D01*
X100812Y044424D01*
X100834Y044448D01*
X100858Y044469D01*
X100885Y044487D01*
X100914Y044502D01*
X100945Y044513D01*
X100976Y044521D01*
X101009Y044525D01*
X101041Y044525D01*
X101074Y044521D01*
X101105Y044513D01*
X101136Y044502D01*
X101165Y044487D01*
X101192Y044469D01*
X101216Y044448D01*
X101238Y044424D01*
X101257Y044397D01*
X101273Y044369D01*
X101285Y044339D01*
X101294Y044307D01*
X101299Y044275D01*
X101252Y044275D01*
X101247Y044303D01*
X101238Y044331D01*
X101226Y044357D01*
X101211Y044382D01*
X101193Y044405D01*
X101172Y044425D01*
X101148Y044442D01*
X101123Y044456D01*
X101096Y044467D01*
X101068Y044474D01*
X101039Y044478D01*
X101011Y044478D01*
X100982Y044474D01*
X100954Y044467D01*
X100927Y044456D01*
X100902Y044442D01*
X100878Y044425D01*
X100857Y044405D01*
X100839Y044382D01*
X100824Y044357D01*
X100812Y044331D01*
X100803Y044303D01*
X100798Y044275D01*
X100846Y044275D01*
X100851Y044300D01*
X100860Y044325D01*
X100872Y044347D01*
X100888Y044368D01*
X100906Y044387D01*
X100927Y044402D01*
X100950Y044415D01*
X100974Y044424D01*
X100999Y044429D01*
X101025Y044431D01*
X101051Y044429D01*
X101076Y044424D01*
X101100Y044415D01*
X101123Y044402D01*
X101144Y044387D01*
X101162Y044368D01*
X101178Y044347D01*
X101190Y044325D01*
X101199Y044300D01*
X101204Y044275D01*
X101157Y044275D01*
X101151Y044296D01*
X101142Y044316D01*
X101130Y044334D01*
X101115Y044350D01*
X101097Y044363D01*
X101078Y044373D01*
X101057Y044380D01*
X101036Y044384D01*
X101014Y044384D01*
X100993Y044380D01*
X100972Y044373D01*
X100953Y044363D01*
X100935Y044350D01*
X100920Y044334D01*
X100908Y044316D01*
X100899Y044296D01*
X100893Y044275D01*
X100942Y044275D01*
X100948Y044291D01*
X100957Y044305D01*
X100970Y044317D01*
X100984Y044327D01*
X101000Y044333D01*
X101016Y044337D01*
X101034Y044337D01*
X101050Y044333D01*
X101066Y044327D01*
X101080Y044317D01*
X101093Y044305D01*
X101102Y044291D01*
X101108Y044275D01*
X101057Y044273D01*
X101050Y044281D01*
X101041Y044287D01*
X101030Y044290D01*
X101020Y044290D01*
X101009Y044287D01*
X101000Y044281D01*
X100993Y044273D01*
X100752Y044026D02*
X101025Y044049D01*
X101025Y044049D01*
X101298Y044026D01*
X101299Y044025D01*
X101294Y043993D01*
X101285Y043961D01*
X101273Y043931D01*
X101257Y043903D01*
X101238Y043876D01*
X101216Y043852D01*
X101192Y043831D01*
X101165Y043813D01*
X101136Y043798D01*
X101105Y043787D01*
X101074Y043779D01*
X101041Y043775D01*
X101009Y043775D01*
X100976Y043779D01*
X100945Y043787D01*
X100914Y043798D01*
X100885Y043813D01*
X100858Y043831D01*
X100834Y043852D01*
X100812Y043876D01*
X100793Y043903D01*
X100777Y043931D01*
X100765Y043961D01*
X100756Y043993D01*
X100751Y044025D01*
X100798Y044025D01*
X100803Y043997D01*
X100812Y043969D01*
X100824Y043943D01*
X100839Y043918D01*
X100857Y043895D01*
X100878Y043875D01*
X100902Y043858D01*
X100927Y043844D01*
X100954Y043833D01*
X100982Y043826D01*
X101011Y043822D01*
X101039Y043822D01*
X101068Y043826D01*
X101096Y043833D01*
X101123Y043844D01*
X101148Y043858D01*
X101172Y043875D01*
X101193Y043895D01*
X101211Y043918D01*
X101226Y043943D01*
X101238Y043969D01*
X101247Y043997D01*
X101252Y044025D01*
X101204Y044025D01*
X101199Y044000D01*
X101190Y043975D01*
X101178Y043953D01*
X101162Y043932D01*
X101144Y043913D01*
X101123Y043898D01*
X101100Y043885D01*
X101076Y043876D01*
X101051Y043871D01*
X101025Y043869D01*
X100999Y043871D01*
X100974Y043876D01*
X100950Y043885D01*
X100927Y043898D01*
X100906Y043913D01*
X100888Y043932D01*
X100872Y043953D01*
X100860Y043975D01*
X100851Y044000D01*
X100846Y044025D01*
X100893Y044025D01*
X100899Y044004D01*
X100908Y043984D01*
X100920Y043966D01*
X100935Y043950D01*
X100953Y043937D01*
X100972Y043927D01*
X100993Y043920D01*
X101014Y043916D01*
X101036Y043916D01*
X101057Y043920D01*
X101078Y043927D01*
X101097Y043937D01*
X101115Y043950D01*
X101130Y043966D01*
X101142Y043984D01*
X101151Y044004D01*
X101157Y044025D01*
X101108Y044025D01*
X101102Y044009D01*
X101093Y043995D01*
X101080Y043983D01*
X101066Y043973D01*
X101050Y043967D01*
X101034Y043963D01*
X101016Y043963D01*
X101000Y043967D01*
X100984Y043973D01*
X100970Y043983D01*
X100957Y043995D01*
X100948Y044009D01*
X100942Y044025D01*
X100993Y044027D01*
X101000Y044019D01*
X101009Y044013D01*
X101020Y044010D01*
X101030Y044010D01*
X101041Y044013D01*
X101050Y044019D01*
X101057Y044027D01*
X101032Y043300D02*
X100882Y043300D01*
X100957Y043300D02*
X100957Y042850D01*
X101032Y042850D02*
X100882Y042850D01*
X101267Y042925D02*
X101267Y043300D01*
X101342Y043300D02*
X101192Y043300D01*
X101267Y042925D02*
X101342Y042850D01*
X101417Y042850D01*
X101492Y042925D01*
X101048Y041774D02*
X100775Y041751D01*
X100775Y041751D01*
X100502Y041774D01*
X100501Y041775D01*
X100506Y041807D01*
X100515Y041839D01*
X100527Y041869D01*
X100543Y041897D01*
X100562Y041924D01*
X100584Y041948D01*
X100608Y041969D01*
X100635Y041987D01*
X100664Y042002D01*
X100695Y042013D01*
X100726Y042021D01*
X100759Y042025D01*
X100791Y042025D01*
X100824Y042021D01*
X100855Y042013D01*
X100886Y042002D01*
X100915Y041987D01*
X100942Y041969D01*
X100966Y041948D01*
X100988Y041924D01*
X101007Y041897D01*
X101023Y041869D01*
X101035Y041839D01*
X101044Y041807D01*
X101049Y041775D01*
X101002Y041775D01*
X100997Y041803D01*
X100988Y041831D01*
X100976Y041857D01*
X100961Y041882D01*
X100943Y041905D01*
X100922Y041925D01*
X100898Y041942D01*
X100873Y041956D01*
X100846Y041967D01*
X100818Y041974D01*
X100789Y041978D01*
X100761Y041978D01*
X100732Y041974D01*
X100704Y041967D01*
X100677Y041956D01*
X100652Y041942D01*
X100628Y041925D01*
X100607Y041905D01*
X100589Y041882D01*
X100574Y041857D01*
X100562Y041831D01*
X100553Y041803D01*
X100548Y041775D01*
X100596Y041775D01*
X100601Y041800D01*
X100610Y041825D01*
X100622Y041847D01*
X100638Y041868D01*
X100656Y041887D01*
X100677Y041902D01*
X100700Y041915D01*
X100724Y041924D01*
X100749Y041929D01*
X100775Y041931D01*
X100801Y041929D01*
X100826Y041924D01*
X100850Y041915D01*
X100873Y041902D01*
X100894Y041887D01*
X100912Y041868D01*
X100928Y041847D01*
X100940Y041825D01*
X100949Y041800D01*
X100954Y041775D01*
X100907Y041775D01*
X100901Y041796D01*
X100892Y041816D01*
X100880Y041834D01*
X100865Y041850D01*
X100847Y041863D01*
X100828Y041873D01*
X100807Y041880D01*
X100786Y041884D01*
X100764Y041884D01*
X100743Y041880D01*
X100722Y041873D01*
X100703Y041863D01*
X100685Y041850D01*
X100670Y041834D01*
X100658Y041816D01*
X100649Y041796D01*
X100643Y041775D01*
X100692Y041775D01*
X100698Y041791D01*
X100707Y041805D01*
X100720Y041817D01*
X100734Y041827D01*
X100750Y041833D01*
X100766Y041837D01*
X100784Y041837D01*
X100800Y041833D01*
X100816Y041827D01*
X100830Y041817D01*
X100843Y041805D01*
X100852Y041791D01*
X100858Y041775D01*
X100807Y041773D01*
X100800Y041781D01*
X100791Y041787D01*
X100780Y041790D01*
X100770Y041790D01*
X100759Y041787D01*
X100750Y041781D01*
X100743Y041773D01*
X100502Y041526D02*
X100775Y041549D01*
X100775Y041549D01*
X101048Y041526D01*
X101049Y041525D01*
X101044Y041493D01*
X101035Y041461D01*
X101023Y041431D01*
X101007Y041403D01*
X100988Y041376D01*
X100966Y041352D01*
X100942Y041331D01*
X100915Y041313D01*
X100886Y041298D01*
X100855Y041287D01*
X100824Y041279D01*
X100791Y041275D01*
X100759Y041275D01*
X100726Y041279D01*
X100695Y041287D01*
X100664Y041298D01*
X100635Y041313D01*
X100608Y041331D01*
X100584Y041352D01*
X100562Y041376D01*
X100543Y041403D01*
X100527Y041431D01*
X100515Y041461D01*
X100506Y041493D01*
X100501Y041525D01*
X100548Y041525D01*
X100553Y041497D01*
X100562Y041469D01*
X100574Y041443D01*
X100589Y041418D01*
X100607Y041395D01*
X100628Y041375D01*
X100652Y041358D01*
X100677Y041344D01*
X100704Y041333D01*
X100732Y041326D01*
X100761Y041322D01*
X100789Y041322D01*
X100818Y041326D01*
X100846Y041333D01*
X100873Y041344D01*
X100898Y041358D01*
X100922Y041375D01*
X100943Y041395D01*
X100961Y041418D01*
X100976Y041443D01*
X100988Y041469D01*
X100997Y041497D01*
X101002Y041525D01*
X100954Y041525D01*
X100949Y041500D01*
X100940Y041475D01*
X100928Y041453D01*
X100912Y041432D01*
X100894Y041413D01*
X100873Y041398D01*
X100850Y041385D01*
X100826Y041376D01*
X100801Y041371D01*
X100775Y041369D01*
X100749Y041371D01*
X100724Y041376D01*
X100700Y041385D01*
X100677Y041398D01*
X100656Y041413D01*
X100638Y041432D01*
X100622Y041453D01*
X100610Y041475D01*
X100601Y041500D01*
X100596Y041525D01*
X100643Y041525D01*
X100649Y041504D01*
X100658Y041484D01*
X100670Y041466D01*
X100685Y041450D01*
X100703Y041437D01*
X100722Y041427D01*
X100743Y041420D01*
X100764Y041416D01*
X100786Y041416D01*
X100807Y041420D01*
X100828Y041427D01*
X100847Y041437D01*
X100865Y041450D01*
X100880Y041466D01*
X100892Y041484D01*
X100901Y041504D01*
X100907Y041525D01*
X100858Y041525D01*
X100852Y041509D01*
X100843Y041495D01*
X100830Y041483D01*
X100816Y041473D01*
X100800Y041467D01*
X100784Y041463D01*
X100766Y041463D01*
X100750Y041467D01*
X100734Y041473D01*
X100720Y041483D01*
X100707Y041495D01*
X100698Y041509D01*
X100692Y041525D01*
X100743Y041527D01*
X100750Y041519D01*
X100759Y041513D01*
X100770Y041510D01*
X100780Y041510D01*
X100791Y041513D01*
X100800Y041519D01*
X100807Y041527D01*
X100710Y040800D02*
X100935Y040800D01*
X100935Y040350D01*
X100710Y040350D01*
X100635Y040425D01*
X100635Y040725D01*
X100710Y040800D01*
X101096Y040800D02*
X101246Y040800D01*
X101171Y040800D02*
X101171Y040425D01*
X101246Y040350D01*
X101321Y040350D01*
X101396Y040425D01*
X103760Y039913D02*
X103760Y039838D01*
X103835Y039763D01*
X103760Y039688D01*
X103760Y039613D01*
X103835Y039538D01*
X103985Y039538D01*
X104060Y039613D01*
X104221Y039613D02*
X104221Y039913D01*
X104296Y039988D01*
X104521Y039988D01*
X104521Y039538D01*
X104296Y039538D01*
X104221Y039613D01*
X104060Y039913D02*
X103985Y039988D01*
X103835Y039988D01*
X103760Y039913D01*
X103835Y039763D02*
X103910Y039763D01*
X104681Y039988D02*
X104831Y039988D01*
X104756Y039988D02*
X104756Y039613D01*
X104831Y039538D01*
X104906Y039538D01*
X104981Y039613D01*
X103565Y040776D02*
X103838Y040799D01*
X103838Y040799D01*
X104111Y040776D01*
X104112Y040775D01*
X104107Y040743D01*
X104098Y040711D01*
X104086Y040681D01*
X104070Y040653D01*
X104051Y040626D01*
X104029Y040602D01*
X104005Y040581D01*
X103978Y040563D01*
X103949Y040548D01*
X103918Y040537D01*
X103887Y040529D01*
X103854Y040525D01*
X103822Y040525D01*
X103789Y040529D01*
X103758Y040537D01*
X103727Y040548D01*
X103698Y040563D01*
X103671Y040581D01*
X103647Y040602D01*
X103625Y040626D01*
X103606Y040653D01*
X103590Y040681D01*
X103578Y040711D01*
X103569Y040743D01*
X103564Y040775D01*
X103611Y040775D01*
X103616Y040747D01*
X103625Y040719D01*
X103637Y040693D01*
X103652Y040668D01*
X103670Y040645D01*
X103691Y040625D01*
X103715Y040608D01*
X103740Y040594D01*
X103767Y040583D01*
X103795Y040576D01*
X103824Y040572D01*
X103852Y040572D01*
X103881Y040576D01*
X103909Y040583D01*
X103936Y040594D01*
X103961Y040608D01*
X103985Y040625D01*
X104006Y040645D01*
X104024Y040668D01*
X104039Y040693D01*
X104051Y040719D01*
X104060Y040747D01*
X104065Y040775D01*
X104017Y040775D01*
X104012Y040750D01*
X104003Y040725D01*
X103991Y040703D01*
X103975Y040682D01*
X103957Y040663D01*
X103936Y040648D01*
X103913Y040635D01*
X103889Y040626D01*
X103864Y040621D01*
X103838Y040619D01*
X103812Y040621D01*
X103787Y040626D01*
X103763Y040635D01*
X103740Y040648D01*
X103719Y040663D01*
X103701Y040682D01*
X103685Y040703D01*
X103673Y040725D01*
X103664Y040750D01*
X103659Y040775D01*
X103706Y040775D01*
X103712Y040754D01*
X103721Y040734D01*
X103733Y040716D01*
X103748Y040700D01*
X103766Y040687D01*
X103785Y040677D01*
X103806Y040670D01*
X103827Y040666D01*
X103849Y040666D01*
X103870Y040670D01*
X103891Y040677D01*
X103910Y040687D01*
X103928Y040700D01*
X103943Y040716D01*
X103955Y040734D01*
X103964Y040754D01*
X103970Y040775D01*
X103921Y040775D01*
X103915Y040759D01*
X103906Y040745D01*
X103893Y040733D01*
X103879Y040723D01*
X103863Y040717D01*
X103847Y040713D01*
X103829Y040713D01*
X103813Y040717D01*
X103797Y040723D01*
X103783Y040733D01*
X103770Y040745D01*
X103761Y040759D01*
X103755Y040775D01*
X103806Y040777D01*
X103813Y040769D01*
X103822Y040763D01*
X103833Y040760D01*
X103843Y040760D01*
X103854Y040763D01*
X103863Y040769D01*
X103870Y040777D01*
X104111Y041024D02*
X103838Y041001D01*
X103838Y041001D01*
X103565Y041024D01*
X103564Y041025D01*
X103569Y041057D01*
X103578Y041089D01*
X103590Y041119D01*
X103606Y041147D01*
X103625Y041174D01*
X103647Y041198D01*
X103671Y041219D01*
X103698Y041237D01*
X103727Y041252D01*
X103758Y041263D01*
X103789Y041271D01*
X103822Y041275D01*
X103854Y041275D01*
X103887Y041271D01*
X103918Y041263D01*
X103949Y041252D01*
X103978Y041237D01*
X104005Y041219D01*
X104029Y041198D01*
X104051Y041174D01*
X104070Y041147D01*
X104086Y041119D01*
X104098Y041089D01*
X104107Y041057D01*
X104112Y041025D01*
X104065Y041025D01*
X104060Y041053D01*
X104051Y041081D01*
X104039Y041107D01*
X104024Y041132D01*
X104006Y041155D01*
X103985Y041175D01*
X103961Y041192D01*
X103936Y041206D01*
X103909Y041217D01*
X103881Y041224D01*
X103852Y041228D01*
X103824Y041228D01*
X103795Y041224D01*
X103767Y041217D01*
X103740Y041206D01*
X103715Y041192D01*
X103691Y041175D01*
X103670Y041155D01*
X103652Y041132D01*
X103637Y041107D01*
X103625Y041081D01*
X103616Y041053D01*
X103611Y041025D01*
X103659Y041025D01*
X103664Y041050D01*
X103673Y041075D01*
X103685Y041097D01*
X103701Y041118D01*
X103719Y041137D01*
X103740Y041152D01*
X103763Y041165D01*
X103787Y041174D01*
X103812Y041179D01*
X103838Y041181D01*
X103864Y041179D01*
X103889Y041174D01*
X103913Y041165D01*
X103936Y041152D01*
X103957Y041137D01*
X103975Y041118D01*
X103991Y041097D01*
X104003Y041075D01*
X104012Y041050D01*
X104017Y041025D01*
X103970Y041025D01*
X103964Y041046D01*
X103955Y041066D01*
X103943Y041084D01*
X103928Y041100D01*
X103910Y041113D01*
X103891Y041123D01*
X103870Y041130D01*
X103849Y041134D01*
X103827Y041134D01*
X103806Y041130D01*
X103785Y041123D01*
X103766Y041113D01*
X103748Y041100D01*
X103733Y041084D01*
X103721Y041066D01*
X103712Y041046D01*
X103706Y041025D01*
X103755Y041025D01*
X103761Y041041D01*
X103770Y041055D01*
X103783Y041067D01*
X103797Y041077D01*
X103813Y041083D01*
X103829Y041087D01*
X103847Y041087D01*
X103863Y041083D01*
X103879Y041077D01*
X103893Y041067D01*
X103906Y041055D01*
X103915Y041041D01*
X103921Y041025D01*
X103870Y041023D01*
X103863Y041031D01*
X103854Y041037D01*
X103843Y041040D01*
X103833Y041040D01*
X103822Y041037D01*
X103813Y041031D01*
X103806Y041023D01*
X097984Y041275D02*
X097759Y041275D01*
X097684Y041350D01*
X097684Y041650D01*
X097759Y041725D01*
X097984Y041725D01*
X097984Y041275D01*
X097524Y041275D02*
X097373Y041275D01*
X097448Y041275D02*
X097448Y041725D01*
X097373Y041725D02*
X097524Y041725D01*
X097217Y041650D02*
X097217Y041575D01*
X097142Y041500D01*
X096991Y041500D01*
X096916Y041425D01*
X096916Y041350D01*
X096991Y041275D01*
X097142Y041275D01*
X097217Y041350D01*
X097217Y041650D02*
X097142Y041725D01*
X096991Y041725D01*
X096916Y041650D01*
X096756Y041725D02*
X096531Y041725D01*
X096456Y041650D01*
X096456Y041500D01*
X096531Y041425D01*
X096756Y041425D01*
X096756Y041275D02*
X096756Y041725D01*
X096296Y041725D02*
X096296Y041275D01*
X095996Y041275D01*
X095835Y041275D02*
X095535Y041575D01*
X095535Y041650D01*
X095610Y041725D01*
X095760Y041725D01*
X095835Y041650D01*
X096000Y041865D02*
X095925Y041940D01*
X095925Y042090D01*
X096000Y042165D01*
X096075Y042165D01*
X096150Y042090D01*
X096150Y041865D01*
X096000Y041865D01*
X096150Y041865D02*
X096300Y042015D01*
X096375Y042165D01*
X095835Y041275D02*
X095535Y041275D01*
X116181Y059325D02*
X116181Y062475D01*
X119331Y062475D01*
X119331Y059325D01*
X116181Y059325D01*
X117582Y059047D02*
X117657Y059122D01*
X117807Y059122D01*
X117882Y059047D01*
X117882Y058747D01*
X117807Y058672D01*
X117657Y058672D01*
X117582Y058747D01*
X117582Y059047D01*
X118043Y059122D02*
X118043Y058672D01*
X118193Y058822D01*
X118343Y058672D01*
X118343Y059122D01*
X118503Y059047D02*
X118503Y058897D01*
X118578Y058822D01*
X118803Y058822D01*
X118803Y058672D02*
X118803Y059122D01*
X118578Y059122D01*
X118503Y059047D01*
X119331Y059325D02*
X119725Y059325D01*
X119725Y062475D01*
X119331Y062475D01*
X119467Y061850D02*
X119542Y061850D01*
X119617Y061775D01*
X119617Y061624D01*
X119542Y061549D01*
X119467Y061850D02*
X119167Y061549D01*
X119167Y061850D01*
X118803Y063066D02*
X118803Y063516D01*
X118578Y063516D01*
X118503Y063441D01*
X118503Y063291D01*
X118578Y063216D01*
X118803Y063216D01*
X118343Y063066D02*
X118193Y063216D01*
X118043Y063066D01*
X118043Y063516D01*
X117882Y063441D02*
X117807Y063516D01*
X117657Y063516D01*
X117582Y063441D01*
X117882Y063141D01*
X117807Y063066D01*
X117657Y063066D01*
X117582Y063141D01*
X117582Y063441D01*
X117422Y063516D02*
X117422Y063066D01*
X117122Y063066D01*
X117272Y063291D02*
X117422Y063291D01*
X117422Y063516D02*
X117122Y063516D01*
X117882Y063441D02*
X117882Y063141D01*
X118343Y063066D02*
X118343Y063516D01*
X119331Y063700D02*
X119331Y066850D01*
X119725Y066850D01*
X119725Y063700D01*
X119331Y063700D01*
X116181Y063700D01*
X116181Y066850D01*
X119331Y066850D01*
X119467Y066225D02*
X119542Y066225D01*
X119617Y066150D01*
X119617Y065999D01*
X119542Y065924D01*
X119467Y066225D02*
X119167Y065924D01*
X119167Y066225D01*
X119187Y064614D02*
X119187Y064314D01*
X119187Y064464D02*
X119637Y064464D01*
X119487Y064314D01*
X119187Y060239D02*
X119187Y059939D01*
X119187Y060089D02*
X119637Y060089D01*
X119487Y059939D01*
X128760Y074821D02*
X128760Y075048D01*
X128760Y074934D02*
X129100Y074934D01*
X128987Y074821D01*
X126625Y042275D02*
X126625Y041825D01*
X126325Y041825D01*
X126165Y041825D02*
X125864Y041825D01*
X125704Y041825D02*
X125479Y041825D01*
X125404Y041900D01*
X125404Y042200D01*
X125479Y042275D01*
X125704Y042275D01*
X125704Y041825D01*
X126014Y042050D02*
X126165Y042050D01*
X126165Y042275D02*
X126165Y041825D01*
X126165Y042275D02*
X125864Y042275D01*
X125244Y042200D02*
X125169Y042275D01*
X125019Y042275D01*
X124944Y042200D01*
X124944Y042125D01*
X125244Y041825D01*
X124944Y041825D01*
X124425Y041375D02*
X124650Y041150D01*
X124350Y041150D01*
X124425Y040925D02*
X124425Y041375D01*
X124425Y040375D02*
X124350Y040300D01*
X124350Y040225D01*
X124425Y040150D01*
X124350Y040075D01*
X124350Y040000D01*
X124425Y039925D01*
X124575Y039925D01*
X124650Y040000D01*
X124500Y040150D02*
X124425Y040150D01*
X124425Y040375D02*
X124575Y040375D01*
X124650Y040300D01*
X126350Y039475D02*
X126350Y039025D01*
X126500Y039025D02*
X126200Y039025D01*
X126500Y039325D02*
X126350Y039475D01*
X055524Y026377D02*
X055501Y026650D01*
X055501Y026650D01*
X055524Y026923D01*
X055525Y026924D01*
X055557Y026919D01*
X055589Y026910D01*
X055619Y026898D01*
X055647Y026882D01*
X055674Y026863D01*
X055698Y026841D01*
X055719Y026817D01*
X055737Y026790D01*
X055752Y026761D01*
X055763Y026730D01*
X055771Y026699D01*
X055775Y026666D01*
X055775Y026634D01*
X055771Y026601D01*
X055763Y026570D01*
X055752Y026539D01*
X055737Y026510D01*
X055719Y026483D01*
X055698Y026459D01*
X055674Y026437D01*
X055647Y026418D01*
X055619Y026402D01*
X055589Y026390D01*
X055557Y026381D01*
X055525Y026376D01*
X055525Y026423D01*
X055553Y026428D01*
X055581Y026437D01*
X055607Y026449D01*
X055632Y026464D01*
X055655Y026482D01*
X055675Y026503D01*
X055692Y026527D01*
X055706Y026552D01*
X055717Y026579D01*
X055724Y026607D01*
X055728Y026636D01*
X055728Y026664D01*
X055724Y026693D01*
X055717Y026721D01*
X055706Y026748D01*
X055692Y026773D01*
X055675Y026797D01*
X055655Y026818D01*
X055632Y026836D01*
X055607Y026851D01*
X055581Y026863D01*
X055553Y026872D01*
X055525Y026877D01*
X055525Y026829D01*
X055550Y026824D01*
X055575Y026815D01*
X055597Y026803D01*
X055618Y026787D01*
X055637Y026769D01*
X055652Y026748D01*
X055665Y026725D01*
X055674Y026701D01*
X055679Y026676D01*
X055681Y026650D01*
X055679Y026624D01*
X055674Y026599D01*
X055665Y026575D01*
X055652Y026552D01*
X055637Y026531D01*
X055618Y026513D01*
X055597Y026497D01*
X055575Y026485D01*
X055550Y026476D01*
X055525Y026471D01*
X055525Y026518D01*
X055546Y026524D01*
X055566Y026533D01*
X055584Y026545D01*
X055600Y026560D01*
X055613Y026578D01*
X055623Y026597D01*
X055630Y026618D01*
X055634Y026639D01*
X055634Y026661D01*
X055630Y026682D01*
X055623Y026703D01*
X055613Y026722D01*
X055600Y026740D01*
X055584Y026755D01*
X055566Y026767D01*
X055546Y026776D01*
X055525Y026782D01*
X055525Y026733D01*
X055541Y026727D01*
X055555Y026718D01*
X055567Y026705D01*
X055577Y026691D01*
X055583Y026675D01*
X055587Y026659D01*
X055587Y026641D01*
X055583Y026625D01*
X055577Y026609D01*
X055567Y026595D01*
X055555Y026582D01*
X055541Y026573D01*
X055525Y026567D01*
X055523Y026618D01*
X055531Y026625D01*
X055537Y026634D01*
X055540Y026645D01*
X055540Y026655D01*
X055537Y026666D01*
X055531Y026675D01*
X055523Y026682D01*
X055276Y026923D02*
X055299Y026650D01*
X055299Y026650D01*
X055276Y026377D01*
X055275Y026376D01*
X055243Y026381D01*
X055211Y026390D01*
X055181Y026402D01*
X055153Y026418D01*
X055126Y026437D01*
X055102Y026459D01*
X055081Y026483D01*
X055063Y026510D01*
X055048Y026539D01*
X055037Y026570D01*
X055029Y026601D01*
X055025Y026634D01*
X055025Y026666D01*
X055029Y026699D01*
X055037Y026730D01*
X055048Y026761D01*
X055063Y026790D01*
X055081Y026817D01*
X055102Y026841D01*
X055126Y026863D01*
X055153Y026882D01*
X055181Y026898D01*
X055211Y026910D01*
X055243Y026919D01*
X055275Y026924D01*
X055275Y026877D01*
X055247Y026872D01*
X055219Y026863D01*
X055193Y026851D01*
X055168Y026836D01*
X055145Y026818D01*
X055125Y026797D01*
X055108Y026773D01*
X055094Y026748D01*
X055083Y026721D01*
X055076Y026693D01*
X055072Y026664D01*
X055072Y026636D01*
X055076Y026607D01*
X055083Y026579D01*
X055094Y026552D01*
X055108Y026527D01*
X055125Y026503D01*
X055145Y026482D01*
X055168Y026464D01*
X055193Y026449D01*
X055219Y026437D01*
X055247Y026428D01*
X055275Y026423D01*
X055275Y026471D01*
X055250Y026476D01*
X055225Y026485D01*
X055203Y026497D01*
X055182Y026513D01*
X055163Y026531D01*
X055148Y026552D01*
X055135Y026575D01*
X055126Y026599D01*
X055121Y026624D01*
X055119Y026650D01*
X055121Y026676D01*
X055126Y026701D01*
X055135Y026725D01*
X055148Y026748D01*
X055163Y026769D01*
X055182Y026787D01*
X055203Y026803D01*
X055225Y026815D01*
X055250Y026824D01*
X055275Y026829D01*
X055275Y026782D01*
X055254Y026776D01*
X055234Y026767D01*
X055216Y026755D01*
X055200Y026740D01*
X055187Y026722D01*
X055177Y026703D01*
X055170Y026682D01*
X055166Y026661D01*
X055166Y026639D01*
X055170Y026618D01*
X055177Y026597D01*
X055187Y026578D01*
X055200Y026560D01*
X055216Y026545D01*
X055234Y026533D01*
X055254Y026524D01*
X055275Y026518D01*
X055275Y026567D01*
X055259Y026573D01*
X055245Y026582D01*
X055233Y026595D01*
X055223Y026609D01*
X055217Y026625D01*
X055213Y026641D01*
X055213Y026659D01*
X055217Y026675D01*
X055223Y026691D01*
X055233Y026705D01*
X055245Y026718D01*
X055259Y026727D01*
X055275Y026733D01*
X055277Y026682D01*
X055269Y026675D01*
X055263Y026666D01*
X055260Y026655D01*
X055260Y026645D01*
X055263Y026634D01*
X055269Y026625D01*
X055277Y026618D01*
X054650Y026500D02*
X054350Y026500D01*
X054500Y026500D02*
X054500Y026950D01*
X054650Y026800D01*
X054190Y026800D02*
X054190Y026875D01*
X054115Y026950D01*
X053964Y026950D01*
X053889Y026875D01*
X053964Y026725D02*
X053889Y026650D01*
X053889Y026575D01*
X053964Y026500D01*
X054115Y026500D01*
X054190Y026575D01*
X054115Y026725D02*
X053964Y026725D01*
X054115Y026725D02*
X054190Y026800D01*
X053729Y026575D02*
X053654Y026500D01*
X053579Y026500D01*
X053504Y026575D01*
X053504Y026950D01*
X053579Y026950D02*
X053429Y026950D01*
X053269Y026950D02*
X053269Y026725D01*
X053119Y026800D01*
X053044Y026800D01*
X052969Y026725D01*
X052969Y026575D01*
X053044Y026500D01*
X053194Y026500D01*
X053269Y026575D01*
X053269Y026950D02*
X052969Y026950D01*
X053100Y027108D02*
X053100Y027409D01*
X053100Y027259D02*
X053550Y027259D01*
X053400Y027108D01*
X053400Y027569D02*
X053325Y027644D01*
X053325Y027794D01*
X053250Y027869D01*
X053175Y027869D01*
X053100Y027794D01*
X053100Y027644D01*
X053175Y027569D01*
X053400Y027569D02*
X053475Y027569D01*
X053550Y027644D01*
X053550Y027794D01*
X053475Y027869D01*
X053550Y028179D02*
X053550Y028329D01*
X053550Y028254D02*
X053175Y028254D01*
X053100Y028179D01*
X053100Y028104D01*
X053175Y028029D01*
X053325Y028490D02*
X053325Y028790D01*
X053100Y028715D02*
X053550Y028715D01*
X053325Y028490D01*
X054423Y028274D02*
X054150Y028251D01*
X054150Y028251D01*
X053877Y028274D01*
X053876Y028275D01*
X053881Y028307D01*
X053890Y028339D01*
X053902Y028369D01*
X053918Y028397D01*
X053937Y028424D01*
X053959Y028448D01*
X053983Y028469D01*
X054010Y028487D01*
X054039Y028502D01*
X054070Y028513D01*
X054101Y028521D01*
X054134Y028525D01*
X054166Y028525D01*
X054199Y028521D01*
X054230Y028513D01*
X054261Y028502D01*
X054290Y028487D01*
X054317Y028469D01*
X054341Y028448D01*
X054363Y028424D01*
X054382Y028397D01*
X054398Y028369D01*
X054410Y028339D01*
X054419Y028307D01*
X054424Y028275D01*
X054377Y028275D01*
X054372Y028303D01*
X054363Y028331D01*
X054351Y028357D01*
X054336Y028382D01*
X054318Y028405D01*
X054297Y028425D01*
X054273Y028442D01*
X054248Y028456D01*
X054221Y028467D01*
X054193Y028474D01*
X054164Y028478D01*
X054136Y028478D01*
X054107Y028474D01*
X054079Y028467D01*
X054052Y028456D01*
X054027Y028442D01*
X054003Y028425D01*
X053982Y028405D01*
X053964Y028382D01*
X053949Y028357D01*
X053937Y028331D01*
X053928Y028303D01*
X053923Y028275D01*
X053971Y028275D01*
X053976Y028300D01*
X053985Y028325D01*
X053997Y028347D01*
X054013Y028368D01*
X054031Y028387D01*
X054052Y028402D01*
X054075Y028415D01*
X054099Y028424D01*
X054124Y028429D01*
X054150Y028431D01*
X054176Y028429D01*
X054201Y028424D01*
X054225Y028415D01*
X054248Y028402D01*
X054269Y028387D01*
X054287Y028368D01*
X054303Y028347D01*
X054315Y028325D01*
X054324Y028300D01*
X054329Y028275D01*
X054282Y028275D01*
X054276Y028296D01*
X054267Y028316D01*
X054255Y028334D01*
X054240Y028350D01*
X054222Y028363D01*
X054203Y028373D01*
X054182Y028380D01*
X054161Y028384D01*
X054139Y028384D01*
X054118Y028380D01*
X054097Y028373D01*
X054078Y028363D01*
X054060Y028350D01*
X054045Y028334D01*
X054033Y028316D01*
X054024Y028296D01*
X054018Y028275D01*
X054067Y028275D01*
X054073Y028291D01*
X054082Y028305D01*
X054095Y028317D01*
X054109Y028327D01*
X054125Y028333D01*
X054141Y028337D01*
X054159Y028337D01*
X054175Y028333D01*
X054191Y028327D01*
X054205Y028317D01*
X054218Y028305D01*
X054227Y028291D01*
X054233Y028275D01*
X054182Y028273D01*
X054175Y028281D01*
X054166Y028287D01*
X054155Y028290D01*
X054145Y028290D01*
X054134Y028287D01*
X054125Y028281D01*
X054118Y028273D01*
X053877Y028026D02*
X054150Y028049D01*
X054150Y028049D01*
X054423Y028026D01*
X054424Y028025D01*
X054419Y027993D01*
X054410Y027961D01*
X054398Y027931D01*
X054382Y027903D01*
X054363Y027876D01*
X054341Y027852D01*
X054317Y027831D01*
X054290Y027813D01*
X054261Y027798D01*
X054230Y027787D01*
X054199Y027779D01*
X054166Y027775D01*
X054134Y027775D01*
X054101Y027779D01*
X054070Y027787D01*
X054039Y027798D01*
X054010Y027813D01*
X053983Y027831D01*
X053959Y027852D01*
X053937Y027876D01*
X053918Y027903D01*
X053902Y027931D01*
X053890Y027961D01*
X053881Y027993D01*
X053876Y028025D01*
X053923Y028025D01*
X053928Y027997D01*
X053937Y027969D01*
X053949Y027943D01*
X053964Y027918D01*
X053982Y027895D01*
X054003Y027875D01*
X054027Y027858D01*
X054052Y027844D01*
X054079Y027833D01*
X054107Y027826D01*
X054136Y027822D01*
X054164Y027822D01*
X054193Y027826D01*
X054221Y027833D01*
X054248Y027844D01*
X054273Y027858D01*
X054297Y027875D01*
X054318Y027895D01*
X054336Y027918D01*
X054351Y027943D01*
X054363Y027969D01*
X054372Y027997D01*
X054377Y028025D01*
X054329Y028025D01*
X054324Y028000D01*
X054315Y027975D01*
X054303Y027953D01*
X054287Y027932D01*
X054269Y027913D01*
X054248Y027898D01*
X054225Y027885D01*
X054201Y027876D01*
X054176Y027871D01*
X054150Y027869D01*
X054124Y027871D01*
X054099Y027876D01*
X054075Y027885D01*
X054052Y027898D01*
X054031Y027913D01*
X054013Y027932D01*
X053997Y027953D01*
X053985Y027975D01*
X053976Y028000D01*
X053971Y028025D01*
X054018Y028025D01*
X054024Y028004D01*
X054033Y027984D01*
X054045Y027966D01*
X054060Y027950D01*
X054078Y027937D01*
X054097Y027927D01*
X054118Y027920D01*
X054139Y027916D01*
X054161Y027916D01*
X054182Y027920D01*
X054203Y027927D01*
X054222Y027937D01*
X054240Y027950D01*
X054255Y027966D01*
X054267Y027984D01*
X054276Y028004D01*
X054282Y028025D01*
X054233Y028025D01*
X054227Y028009D01*
X054218Y027995D01*
X054205Y027983D01*
X054191Y027973D01*
X054175Y027967D01*
X054159Y027963D01*
X054141Y027963D01*
X054125Y027967D01*
X054109Y027973D01*
X054095Y027983D01*
X054082Y027995D01*
X054073Y028009D01*
X054067Y028025D01*
X054118Y028027D01*
X054125Y028019D01*
X054134Y028013D01*
X054145Y028010D01*
X054155Y028010D01*
X054166Y028013D01*
X054175Y028019D01*
X054182Y028027D01*
X051488Y028054D02*
X051488Y028204D01*
X051488Y028129D02*
X051113Y028129D01*
X051038Y028054D01*
X051038Y027979D01*
X051113Y027904D01*
X051113Y027744D02*
X051038Y027669D01*
X051038Y027519D01*
X051113Y027444D01*
X051263Y027519D02*
X051263Y027669D01*
X051188Y027744D01*
X051113Y027744D01*
X051263Y027519D02*
X051338Y027444D01*
X051413Y027444D01*
X051488Y027519D01*
X051488Y027669D01*
X051413Y027744D01*
X051038Y027284D02*
X051038Y026983D01*
X051038Y027134D02*
X051488Y027134D01*
X051338Y026983D01*
X050190Y027901D02*
X050463Y027924D01*
X050463Y027924D01*
X050736Y027901D01*
X050737Y027900D01*
X050732Y027868D01*
X050723Y027836D01*
X050711Y027806D01*
X050695Y027778D01*
X050676Y027751D01*
X050654Y027727D01*
X050630Y027706D01*
X050603Y027688D01*
X050574Y027673D01*
X050543Y027662D01*
X050512Y027654D01*
X050479Y027650D01*
X050447Y027650D01*
X050414Y027654D01*
X050383Y027662D01*
X050352Y027673D01*
X050323Y027688D01*
X050296Y027706D01*
X050272Y027727D01*
X050250Y027751D01*
X050231Y027778D01*
X050215Y027806D01*
X050203Y027836D01*
X050194Y027868D01*
X050189Y027900D01*
X050236Y027900D01*
X050241Y027872D01*
X050250Y027844D01*
X050262Y027818D01*
X050277Y027793D01*
X050295Y027770D01*
X050316Y027750D01*
X050340Y027733D01*
X050365Y027719D01*
X050392Y027708D01*
X050420Y027701D01*
X050449Y027697D01*
X050477Y027697D01*
X050506Y027701D01*
X050534Y027708D01*
X050561Y027719D01*
X050586Y027733D01*
X050610Y027750D01*
X050631Y027770D01*
X050649Y027793D01*
X050664Y027818D01*
X050676Y027844D01*
X050685Y027872D01*
X050690Y027900D01*
X050642Y027900D01*
X050637Y027875D01*
X050628Y027850D01*
X050616Y027828D01*
X050600Y027807D01*
X050582Y027788D01*
X050561Y027773D01*
X050538Y027760D01*
X050514Y027751D01*
X050489Y027746D01*
X050463Y027744D01*
X050437Y027746D01*
X050412Y027751D01*
X050388Y027760D01*
X050365Y027773D01*
X050344Y027788D01*
X050326Y027807D01*
X050310Y027828D01*
X050298Y027850D01*
X050289Y027875D01*
X050284Y027900D01*
X050331Y027900D01*
X050337Y027879D01*
X050346Y027859D01*
X050358Y027841D01*
X050373Y027825D01*
X050391Y027812D01*
X050410Y027802D01*
X050431Y027795D01*
X050452Y027791D01*
X050474Y027791D01*
X050495Y027795D01*
X050516Y027802D01*
X050535Y027812D01*
X050553Y027825D01*
X050568Y027841D01*
X050580Y027859D01*
X050589Y027879D01*
X050595Y027900D01*
X050546Y027900D01*
X050540Y027884D01*
X050531Y027870D01*
X050518Y027858D01*
X050504Y027848D01*
X050488Y027842D01*
X050472Y027838D01*
X050454Y027838D01*
X050438Y027842D01*
X050422Y027848D01*
X050408Y027858D01*
X050395Y027870D01*
X050386Y027884D01*
X050380Y027900D01*
X050431Y027902D01*
X050438Y027894D01*
X050447Y027888D01*
X050458Y027885D01*
X050468Y027885D01*
X050479Y027888D01*
X050488Y027894D01*
X050495Y027902D01*
X050736Y028149D02*
X050463Y028126D01*
X050463Y028126D01*
X050190Y028149D01*
X050189Y028150D01*
X050194Y028182D01*
X050203Y028214D01*
X050215Y028244D01*
X050231Y028272D01*
X050250Y028299D01*
X050272Y028323D01*
X050296Y028344D01*
X050323Y028362D01*
X050352Y028377D01*
X050383Y028388D01*
X050414Y028396D01*
X050447Y028400D01*
X050479Y028400D01*
X050512Y028396D01*
X050543Y028388D01*
X050574Y028377D01*
X050603Y028362D01*
X050630Y028344D01*
X050654Y028323D01*
X050676Y028299D01*
X050695Y028272D01*
X050711Y028244D01*
X050723Y028214D01*
X050732Y028182D01*
X050737Y028150D01*
X050690Y028150D01*
X050685Y028178D01*
X050676Y028206D01*
X050664Y028232D01*
X050649Y028257D01*
X050631Y028280D01*
X050610Y028300D01*
X050586Y028317D01*
X050561Y028331D01*
X050534Y028342D01*
X050506Y028349D01*
X050477Y028353D01*
X050449Y028353D01*
X050420Y028349D01*
X050392Y028342D01*
X050365Y028331D01*
X050340Y028317D01*
X050316Y028300D01*
X050295Y028280D01*
X050277Y028257D01*
X050262Y028232D01*
X050250Y028206D01*
X050241Y028178D01*
X050236Y028150D01*
X050284Y028150D01*
X050289Y028175D01*
X050298Y028200D01*
X050310Y028222D01*
X050326Y028243D01*
X050344Y028262D01*
X050365Y028277D01*
X050388Y028290D01*
X050412Y028299D01*
X050437Y028304D01*
X050463Y028306D01*
X050489Y028304D01*
X050514Y028299D01*
X050538Y028290D01*
X050561Y028277D01*
X050582Y028262D01*
X050600Y028243D01*
X050616Y028222D01*
X050628Y028200D01*
X050637Y028175D01*
X050642Y028150D01*
X050595Y028150D01*
X050589Y028171D01*
X050580Y028191D01*
X050568Y028209D01*
X050553Y028225D01*
X050535Y028238D01*
X050516Y028248D01*
X050495Y028255D01*
X050474Y028259D01*
X050452Y028259D01*
X050431Y028255D01*
X050410Y028248D01*
X050391Y028238D01*
X050373Y028225D01*
X050358Y028209D01*
X050346Y028191D01*
X050337Y028171D01*
X050331Y028150D01*
X050380Y028150D01*
X050386Y028166D01*
X050395Y028180D01*
X050408Y028192D01*
X050422Y028202D01*
X050438Y028208D01*
X050454Y028212D01*
X050472Y028212D01*
X050488Y028208D01*
X050504Y028202D01*
X050518Y028192D01*
X050531Y028180D01*
X050540Y028166D01*
X050546Y028150D01*
X050495Y028148D01*
X050488Y028156D01*
X050479Y028162D01*
X050468Y028165D01*
X050458Y028165D01*
X050447Y028162D01*
X050438Y028156D01*
X050431Y028148D01*
X051038Y028440D02*
X051113Y028365D01*
X051188Y028365D01*
X051263Y028440D01*
X051263Y028590D01*
X051188Y028665D01*
X051113Y028665D01*
X051038Y028590D01*
X051038Y028440D01*
X051263Y028440D02*
X051338Y028365D01*
X051413Y028365D01*
X051488Y028440D01*
X051488Y028590D01*
X051413Y028665D01*
X051338Y028665D01*
X051263Y028590D01*
X047900Y026238D02*
X047750Y026388D01*
X047750Y025938D01*
X047900Y025938D02*
X047600Y025938D01*
X047440Y026013D02*
X047365Y025938D01*
X047214Y025938D01*
X047139Y026013D01*
X047139Y026088D01*
X047214Y026163D01*
X047365Y026163D01*
X047440Y026238D01*
X047440Y026313D01*
X047365Y026388D01*
X047214Y026388D01*
X047139Y026313D01*
X046829Y026388D02*
X046679Y026388D01*
X046754Y026388D02*
X046754Y026013D01*
X046829Y025938D01*
X046904Y025938D01*
X046979Y026013D01*
X046519Y026013D02*
X046519Y025938D01*
X046519Y026013D02*
X046219Y026313D01*
X046219Y026388D01*
X046519Y026388D01*
X047401Y027236D02*
X047424Y026963D01*
X047424Y026963D01*
X047401Y026690D01*
X047400Y026689D01*
X047368Y026694D01*
X047336Y026703D01*
X047306Y026715D01*
X047278Y026731D01*
X047251Y026750D01*
X047227Y026772D01*
X047206Y026796D01*
X047188Y026823D01*
X047173Y026852D01*
X047162Y026883D01*
X047154Y026914D01*
X047150Y026947D01*
X047150Y026979D01*
X047154Y027012D01*
X047162Y027043D01*
X047173Y027074D01*
X047188Y027103D01*
X047206Y027130D01*
X047227Y027154D01*
X047251Y027176D01*
X047278Y027195D01*
X047306Y027211D01*
X047336Y027223D01*
X047368Y027232D01*
X047400Y027237D01*
X047400Y027190D01*
X047372Y027185D01*
X047344Y027176D01*
X047318Y027164D01*
X047293Y027149D01*
X047270Y027131D01*
X047250Y027110D01*
X047233Y027086D01*
X047219Y027061D01*
X047208Y027034D01*
X047201Y027006D01*
X047197Y026977D01*
X047197Y026949D01*
X047201Y026920D01*
X047208Y026892D01*
X047219Y026865D01*
X047233Y026840D01*
X047250Y026816D01*
X047270Y026795D01*
X047293Y026777D01*
X047318Y026762D01*
X047344Y026750D01*
X047372Y026741D01*
X047400Y026736D01*
X047400Y026784D01*
X047375Y026789D01*
X047350Y026798D01*
X047328Y026810D01*
X047307Y026826D01*
X047288Y026844D01*
X047273Y026865D01*
X047260Y026888D01*
X047251Y026912D01*
X047246Y026937D01*
X047244Y026963D01*
X047246Y026989D01*
X047251Y027014D01*
X047260Y027038D01*
X047273Y027061D01*
X047288Y027082D01*
X047307Y027100D01*
X047328Y027116D01*
X047350Y027128D01*
X047375Y027137D01*
X047400Y027142D01*
X047400Y027095D01*
X047379Y027089D01*
X047359Y027080D01*
X047341Y027068D01*
X047325Y027053D01*
X047312Y027035D01*
X047302Y027016D01*
X047295Y026995D01*
X047291Y026974D01*
X047291Y026952D01*
X047295Y026931D01*
X047302Y026910D01*
X047312Y026891D01*
X047325Y026873D01*
X047341Y026858D01*
X047359Y026846D01*
X047379Y026837D01*
X047400Y026831D01*
X047400Y026880D01*
X047384Y026886D01*
X047370Y026895D01*
X047358Y026908D01*
X047348Y026922D01*
X047342Y026938D01*
X047338Y026954D01*
X047338Y026972D01*
X047342Y026988D01*
X047348Y027004D01*
X047358Y027018D01*
X047370Y027031D01*
X047384Y027040D01*
X047400Y027046D01*
X047402Y026995D01*
X047394Y026988D01*
X047388Y026979D01*
X047385Y026968D01*
X047385Y026958D01*
X047388Y026947D01*
X047394Y026938D01*
X047402Y026931D01*
X047649Y026690D02*
X047626Y026963D01*
X047626Y026963D01*
X047649Y027236D01*
X047650Y027237D01*
X047682Y027232D01*
X047714Y027223D01*
X047744Y027211D01*
X047772Y027195D01*
X047799Y027176D01*
X047823Y027154D01*
X047844Y027130D01*
X047862Y027103D01*
X047877Y027074D01*
X047888Y027043D01*
X047896Y027012D01*
X047900Y026979D01*
X047900Y026947D01*
X047896Y026914D01*
X047888Y026883D01*
X047877Y026852D01*
X047862Y026823D01*
X047844Y026796D01*
X047823Y026772D01*
X047799Y026750D01*
X047772Y026731D01*
X047744Y026715D01*
X047714Y026703D01*
X047682Y026694D01*
X047650Y026689D01*
X047650Y026736D01*
X047678Y026741D01*
X047706Y026750D01*
X047732Y026762D01*
X047757Y026777D01*
X047780Y026795D01*
X047800Y026816D01*
X047817Y026840D01*
X047831Y026865D01*
X047842Y026892D01*
X047849Y026920D01*
X047853Y026949D01*
X047853Y026977D01*
X047849Y027006D01*
X047842Y027034D01*
X047831Y027061D01*
X047817Y027086D01*
X047800Y027110D01*
X047780Y027131D01*
X047757Y027149D01*
X047732Y027164D01*
X047706Y027176D01*
X047678Y027185D01*
X047650Y027190D01*
X047650Y027142D01*
X047675Y027137D01*
X047700Y027128D01*
X047722Y027116D01*
X047743Y027100D01*
X047762Y027082D01*
X047777Y027061D01*
X047790Y027038D01*
X047799Y027014D01*
X047804Y026989D01*
X047806Y026963D01*
X047804Y026937D01*
X047799Y026912D01*
X047790Y026888D01*
X047777Y026865D01*
X047762Y026844D01*
X047743Y026826D01*
X047722Y026810D01*
X047700Y026798D01*
X047675Y026789D01*
X047650Y026784D01*
X047650Y026831D01*
X047671Y026837D01*
X047691Y026846D01*
X047709Y026858D01*
X047725Y026873D01*
X047738Y026891D01*
X047748Y026910D01*
X047755Y026931D01*
X047759Y026952D01*
X047759Y026974D01*
X047755Y026995D01*
X047748Y027016D01*
X047738Y027035D01*
X047725Y027053D01*
X047709Y027068D01*
X047691Y027080D01*
X047671Y027089D01*
X047650Y027095D01*
X047650Y027046D01*
X047666Y027040D01*
X047680Y027031D01*
X047692Y027018D01*
X047702Y027004D01*
X047708Y026988D01*
X047712Y026972D01*
X047712Y026954D01*
X047708Y026938D01*
X047702Y026922D01*
X047692Y026908D01*
X047680Y026895D01*
X047666Y026886D01*
X047650Y026880D01*
X047648Y026931D01*
X047656Y026938D01*
X047662Y026947D01*
X047665Y026958D01*
X047665Y026968D01*
X047662Y026979D01*
X047656Y026988D01*
X047648Y026995D01*
X045844Y027900D02*
X045543Y027900D01*
X045694Y027900D02*
X045694Y028350D01*
X045844Y028200D01*
X045383Y028275D02*
X045383Y027975D01*
X045308Y027900D01*
X045158Y027900D01*
X045083Y027975D01*
X044923Y028125D02*
X044623Y028125D01*
X044698Y027900D02*
X044698Y028350D01*
X044923Y028125D01*
X045083Y028275D02*
X045158Y028350D01*
X045308Y028350D01*
X045383Y028275D01*
X044850Y029325D02*
X044550Y029325D01*
X044700Y029325D02*
X044700Y029775D01*
X044850Y029625D01*
X044390Y029700D02*
X044390Y029400D01*
X044315Y029325D01*
X044164Y029325D01*
X044089Y029400D01*
X043929Y029400D02*
X043854Y029325D01*
X043704Y029325D01*
X043629Y029400D01*
X043629Y029475D01*
X043704Y029550D01*
X043779Y029550D01*
X043704Y029550D02*
X043629Y029625D01*
X043629Y029700D01*
X043704Y029775D01*
X043854Y029775D01*
X043929Y029700D01*
X044089Y029700D02*
X044164Y029775D01*
X044315Y029775D01*
X044390Y029700D01*
X043199Y025753D02*
X041851Y025753D01*
X041851Y023547D01*
X043199Y023547D01*
X043199Y025753D01*
X043508Y025500D02*
X043808Y025200D01*
X043733Y025125D01*
X043583Y025125D01*
X043508Y025200D01*
X043508Y025500D01*
X043583Y025575D01*
X043733Y025575D01*
X043808Y025500D01*
X043808Y025200D01*
X043969Y025200D02*
X044044Y025125D01*
X044194Y025125D01*
X044269Y025200D01*
X044269Y025350D02*
X044119Y025425D01*
X044044Y025425D01*
X043969Y025350D01*
X043969Y025200D01*
X044269Y025350D02*
X044269Y025575D01*
X043969Y025575D01*
X044429Y025575D02*
X044579Y025575D01*
X044504Y025575D02*
X044504Y025200D01*
X044579Y025125D01*
X044654Y025125D01*
X044729Y025200D01*
X044889Y025200D02*
X044964Y025125D01*
X045115Y025125D01*
X045190Y025200D01*
X045115Y025350D02*
X044964Y025350D01*
X044889Y025275D01*
X044889Y025200D01*
X045115Y025350D02*
X045190Y025425D01*
X045190Y025500D01*
X045115Y025575D01*
X044964Y025575D01*
X044889Y025500D01*
X045350Y025125D02*
X045650Y025125D01*
X045500Y025125D02*
X045500Y025575D01*
X045650Y025425D01*
X045524Y024252D02*
X045501Y024525D01*
X045501Y024525D01*
X045524Y024798D01*
X045525Y024799D01*
X045557Y024794D01*
X045589Y024785D01*
X045619Y024773D01*
X045647Y024757D01*
X045674Y024738D01*
X045698Y024716D01*
X045719Y024692D01*
X045737Y024665D01*
X045752Y024636D01*
X045763Y024605D01*
X045771Y024574D01*
X045775Y024541D01*
X045775Y024509D01*
X045771Y024476D01*
X045763Y024445D01*
X045752Y024414D01*
X045737Y024385D01*
X045719Y024358D01*
X045698Y024334D01*
X045674Y024312D01*
X045647Y024293D01*
X045619Y024277D01*
X045589Y024265D01*
X045557Y024256D01*
X045525Y024251D01*
X045525Y024298D01*
X045553Y024303D01*
X045581Y024312D01*
X045607Y024324D01*
X045632Y024339D01*
X045655Y024357D01*
X045675Y024378D01*
X045692Y024402D01*
X045706Y024427D01*
X045717Y024454D01*
X045724Y024482D01*
X045728Y024511D01*
X045728Y024539D01*
X045724Y024568D01*
X045717Y024596D01*
X045706Y024623D01*
X045692Y024648D01*
X045675Y024672D01*
X045655Y024693D01*
X045632Y024711D01*
X045607Y024726D01*
X045581Y024738D01*
X045553Y024747D01*
X045525Y024752D01*
X045525Y024704D01*
X045550Y024699D01*
X045575Y024690D01*
X045597Y024678D01*
X045618Y024662D01*
X045637Y024644D01*
X045652Y024623D01*
X045665Y024600D01*
X045674Y024576D01*
X045679Y024551D01*
X045681Y024525D01*
X045679Y024499D01*
X045674Y024474D01*
X045665Y024450D01*
X045652Y024427D01*
X045637Y024406D01*
X045618Y024388D01*
X045597Y024372D01*
X045575Y024360D01*
X045550Y024351D01*
X045525Y024346D01*
X045525Y024393D01*
X045546Y024399D01*
X045566Y024408D01*
X045584Y024420D01*
X045600Y024435D01*
X045613Y024453D01*
X045623Y024472D01*
X045630Y024493D01*
X045634Y024514D01*
X045634Y024536D01*
X045630Y024557D01*
X045623Y024578D01*
X045613Y024597D01*
X045600Y024615D01*
X045584Y024630D01*
X045566Y024642D01*
X045546Y024651D01*
X045525Y024657D01*
X045525Y024608D01*
X045541Y024602D01*
X045555Y024593D01*
X045567Y024580D01*
X045577Y024566D01*
X045583Y024550D01*
X045587Y024534D01*
X045587Y024516D01*
X045583Y024500D01*
X045577Y024484D01*
X045567Y024470D01*
X045555Y024457D01*
X045541Y024448D01*
X045525Y024442D01*
X045523Y024493D01*
X045531Y024500D01*
X045537Y024509D01*
X045540Y024520D01*
X045540Y024530D01*
X045537Y024541D01*
X045531Y024550D01*
X045523Y024557D01*
X045276Y024798D02*
X045299Y024525D01*
X045299Y024525D01*
X045276Y024252D01*
X045275Y024251D01*
X045243Y024256D01*
X045211Y024265D01*
X045181Y024277D01*
X045153Y024293D01*
X045126Y024312D01*
X045102Y024334D01*
X045081Y024358D01*
X045063Y024385D01*
X045048Y024414D01*
X045037Y024445D01*
X045029Y024476D01*
X045025Y024509D01*
X045025Y024541D01*
X045029Y024574D01*
X045037Y024605D01*
X045048Y024636D01*
X045063Y024665D01*
X045081Y024692D01*
X045102Y024716D01*
X045126Y024738D01*
X045153Y024757D01*
X045181Y024773D01*
X045211Y024785D01*
X045243Y024794D01*
X045275Y024799D01*
X045275Y024752D01*
X045247Y024747D01*
X045219Y024738D01*
X045193Y024726D01*
X045168Y024711D01*
X045145Y024693D01*
X045125Y024672D01*
X045108Y024648D01*
X045094Y024623D01*
X045083Y024596D01*
X045076Y024568D01*
X045072Y024539D01*
X045072Y024511D01*
X045076Y024482D01*
X045083Y024454D01*
X045094Y024427D01*
X045108Y024402D01*
X045125Y024378D01*
X045145Y024357D01*
X045168Y024339D01*
X045193Y024324D01*
X045219Y024312D01*
X045247Y024303D01*
X045275Y024298D01*
X045275Y024346D01*
X045250Y024351D01*
X045225Y024360D01*
X045203Y024372D01*
X045182Y024388D01*
X045163Y024406D01*
X045148Y024427D01*
X045135Y024450D01*
X045126Y024474D01*
X045121Y024499D01*
X045119Y024525D01*
X045121Y024551D01*
X045126Y024576D01*
X045135Y024600D01*
X045148Y024623D01*
X045163Y024644D01*
X045182Y024662D01*
X045203Y024678D01*
X045225Y024690D01*
X045250Y024699D01*
X045275Y024704D01*
X045275Y024657D01*
X045254Y024651D01*
X045234Y024642D01*
X045216Y024630D01*
X045200Y024615D01*
X045187Y024597D01*
X045177Y024578D01*
X045170Y024557D01*
X045166Y024536D01*
X045166Y024514D01*
X045170Y024493D01*
X045177Y024472D01*
X045187Y024453D01*
X045200Y024435D01*
X045216Y024420D01*
X045234Y024408D01*
X045254Y024399D01*
X045275Y024393D01*
X045275Y024442D01*
X045259Y024448D01*
X045245Y024457D01*
X045233Y024470D01*
X045223Y024484D01*
X045217Y024500D01*
X045213Y024516D01*
X045213Y024534D01*
X045217Y024550D01*
X045223Y024566D01*
X045233Y024580D01*
X045245Y024593D01*
X045259Y024602D01*
X045275Y024608D01*
X045277Y024557D01*
X045269Y024550D01*
X045263Y024541D01*
X045260Y024530D01*
X045260Y024520D01*
X045263Y024509D01*
X045269Y024500D01*
X045277Y024493D01*
X042525Y023981D02*
X042525Y025319D01*
X042525Y025556D02*
X042525Y023705D01*
X041275Y024125D02*
X040975Y024125D01*
X041125Y024125D02*
X041125Y024575D01*
X041275Y024425D01*
X040815Y024425D02*
X040740Y024350D01*
X040589Y024350D01*
X040514Y024275D01*
X040514Y024200D01*
X040589Y024125D01*
X040740Y024125D01*
X040815Y024200D01*
X040815Y024425D02*
X040815Y024500D01*
X040740Y024575D01*
X040589Y024575D01*
X040514Y024500D01*
X040204Y024575D02*
X040054Y024575D01*
X040129Y024575D02*
X040129Y024200D01*
X040204Y024125D01*
X040279Y024125D01*
X040354Y024200D01*
X039894Y024200D02*
X039819Y024125D01*
X039669Y024125D01*
X039594Y024200D01*
X039594Y024275D01*
X039669Y024350D01*
X039894Y024350D01*
X039894Y024200D01*
X039894Y024350D02*
X039744Y024500D01*
X039594Y024575D01*
X040401Y023798D02*
X040424Y023525D01*
X040424Y023525D01*
X040401Y023252D01*
X040400Y023251D01*
X040368Y023256D01*
X040336Y023265D01*
X040306Y023277D01*
X040278Y023293D01*
X040251Y023312D01*
X040227Y023334D01*
X040206Y023358D01*
X040188Y023385D01*
X040173Y023414D01*
X040162Y023445D01*
X040154Y023476D01*
X040150Y023509D01*
X040150Y023541D01*
X040154Y023574D01*
X040162Y023605D01*
X040173Y023636D01*
X040188Y023665D01*
X040206Y023692D01*
X040227Y023716D01*
X040251Y023738D01*
X040278Y023757D01*
X040306Y023773D01*
X040336Y023785D01*
X040368Y023794D01*
X040400Y023799D01*
X040400Y023752D01*
X040372Y023747D01*
X040344Y023738D01*
X040318Y023726D01*
X040293Y023711D01*
X040270Y023693D01*
X040250Y023672D01*
X040233Y023648D01*
X040219Y023623D01*
X040208Y023596D01*
X040201Y023568D01*
X040197Y023539D01*
X040197Y023511D01*
X040201Y023482D01*
X040208Y023454D01*
X040219Y023427D01*
X040233Y023402D01*
X040250Y023378D01*
X040270Y023357D01*
X040293Y023339D01*
X040318Y023324D01*
X040344Y023312D01*
X040372Y023303D01*
X040400Y023298D01*
X040400Y023346D01*
X040375Y023351D01*
X040350Y023360D01*
X040328Y023372D01*
X040307Y023388D01*
X040288Y023406D01*
X040273Y023427D01*
X040260Y023450D01*
X040251Y023474D01*
X040246Y023499D01*
X040244Y023525D01*
X040246Y023551D01*
X040251Y023576D01*
X040260Y023600D01*
X040273Y023623D01*
X040288Y023644D01*
X040307Y023662D01*
X040328Y023678D01*
X040350Y023690D01*
X040375Y023699D01*
X040400Y023704D01*
X040400Y023657D01*
X040379Y023651D01*
X040359Y023642D01*
X040341Y023630D01*
X040325Y023615D01*
X040312Y023597D01*
X040302Y023578D01*
X040295Y023557D01*
X040291Y023536D01*
X040291Y023514D01*
X040295Y023493D01*
X040302Y023472D01*
X040312Y023453D01*
X040325Y023435D01*
X040341Y023420D01*
X040359Y023408D01*
X040379Y023399D01*
X040400Y023393D01*
X040400Y023442D01*
X040384Y023448D01*
X040370Y023457D01*
X040358Y023470D01*
X040348Y023484D01*
X040342Y023500D01*
X040338Y023516D01*
X040338Y023534D01*
X040342Y023550D01*
X040348Y023566D01*
X040358Y023580D01*
X040370Y023593D01*
X040384Y023602D01*
X040400Y023608D01*
X040402Y023557D01*
X040394Y023550D01*
X040388Y023541D01*
X040385Y023530D01*
X040385Y023520D01*
X040388Y023509D01*
X040394Y023500D01*
X040402Y023493D01*
X040649Y023252D02*
X040626Y023525D01*
X040626Y023525D01*
X040649Y023798D01*
X040650Y023799D01*
X040682Y023794D01*
X040714Y023785D01*
X040744Y023773D01*
X040772Y023757D01*
X040799Y023738D01*
X040823Y023716D01*
X040844Y023692D01*
X040862Y023665D01*
X040877Y023636D01*
X040888Y023605D01*
X040896Y023574D01*
X040900Y023541D01*
X040900Y023509D01*
X040896Y023476D01*
X040888Y023445D01*
X040877Y023414D01*
X040862Y023385D01*
X040844Y023358D01*
X040823Y023334D01*
X040799Y023312D01*
X040772Y023293D01*
X040744Y023277D01*
X040714Y023265D01*
X040682Y023256D01*
X040650Y023251D01*
X040650Y023298D01*
X040678Y023303D01*
X040706Y023312D01*
X040732Y023324D01*
X040757Y023339D01*
X040780Y023357D01*
X040800Y023378D01*
X040817Y023402D01*
X040831Y023427D01*
X040842Y023454D01*
X040849Y023482D01*
X040853Y023511D01*
X040853Y023539D01*
X040849Y023568D01*
X040842Y023596D01*
X040831Y023623D01*
X040817Y023648D01*
X040800Y023672D01*
X040780Y023693D01*
X040757Y023711D01*
X040732Y023726D01*
X040706Y023738D01*
X040678Y023747D01*
X040650Y023752D01*
X040650Y023704D01*
X040675Y023699D01*
X040700Y023690D01*
X040722Y023678D01*
X040743Y023662D01*
X040762Y023644D01*
X040777Y023623D01*
X040790Y023600D01*
X040799Y023576D01*
X040804Y023551D01*
X040806Y023525D01*
X040804Y023499D01*
X040799Y023474D01*
X040790Y023450D01*
X040777Y023427D01*
X040762Y023406D01*
X040743Y023388D01*
X040722Y023372D01*
X040700Y023360D01*
X040675Y023351D01*
X040650Y023346D01*
X040650Y023393D01*
X040671Y023399D01*
X040691Y023408D01*
X040709Y023420D01*
X040725Y023435D01*
X040738Y023453D01*
X040748Y023472D01*
X040755Y023493D01*
X040759Y023514D01*
X040759Y023536D01*
X040755Y023557D01*
X040748Y023578D01*
X040738Y023597D01*
X040725Y023615D01*
X040709Y023630D01*
X040691Y023642D01*
X040671Y023651D01*
X040650Y023657D01*
X040650Y023608D01*
X040666Y023602D01*
X040680Y023593D01*
X040692Y023580D01*
X040702Y023566D01*
X040708Y023550D01*
X040712Y023534D01*
X040712Y023516D01*
X040708Y023500D01*
X040702Y023484D01*
X040692Y023470D01*
X040680Y023457D01*
X040666Y023448D01*
X040650Y023442D01*
X040648Y023493D01*
X040656Y023500D01*
X040662Y023509D01*
X040665Y023520D01*
X040665Y023530D01*
X040662Y023541D01*
X040656Y023550D01*
X040648Y023557D01*
X041235Y022955D02*
X039815Y022955D01*
X039815Y021095D01*
X041235Y021095D01*
X041235Y022955D01*
X040650Y020950D02*
X040650Y020500D01*
X040800Y020500D02*
X040500Y020500D01*
X040340Y020650D02*
X040189Y020500D01*
X040039Y020650D01*
X040039Y020950D01*
X039879Y020950D02*
X039579Y020950D01*
X039729Y020950D02*
X039729Y020500D01*
X039419Y020500D02*
X039119Y020800D01*
X039119Y020875D01*
X039194Y020950D01*
X039344Y020950D01*
X039419Y020875D01*
X039419Y020500D02*
X039119Y020500D01*
X040340Y020650D02*
X040340Y020950D01*
X040650Y020950D02*
X040800Y020800D01*
X043151Y020798D02*
X043174Y020525D01*
X043174Y020525D01*
X043151Y020252D01*
X043150Y020251D01*
X043118Y020256D01*
X043086Y020265D01*
X043056Y020277D01*
X043028Y020293D01*
X043001Y020312D01*
X042977Y020334D01*
X042956Y020358D01*
X042938Y020385D01*
X042923Y020414D01*
X042912Y020445D01*
X042904Y020476D01*
X042900Y020509D01*
X042900Y020541D01*
X042904Y020574D01*
X042912Y020605D01*
X042923Y020636D01*
X042938Y020665D01*
X042956Y020692D01*
X042977Y020716D01*
X043001Y020738D01*
X043028Y020757D01*
X043056Y020773D01*
X043086Y020785D01*
X043118Y020794D01*
X043150Y020799D01*
X043150Y020752D01*
X043122Y020747D01*
X043094Y020738D01*
X043068Y020726D01*
X043043Y020711D01*
X043020Y020693D01*
X043000Y020672D01*
X042983Y020648D01*
X042969Y020623D01*
X042958Y020596D01*
X042951Y020568D01*
X042947Y020539D01*
X042947Y020511D01*
X042951Y020482D01*
X042958Y020454D01*
X042969Y020427D01*
X042983Y020402D01*
X043000Y020378D01*
X043020Y020357D01*
X043043Y020339D01*
X043068Y020324D01*
X043094Y020312D01*
X043122Y020303D01*
X043150Y020298D01*
X043150Y020346D01*
X043125Y020351D01*
X043100Y020360D01*
X043078Y020372D01*
X043057Y020388D01*
X043038Y020406D01*
X043023Y020427D01*
X043010Y020450D01*
X043001Y020474D01*
X042996Y020499D01*
X042994Y020525D01*
X042996Y020551D01*
X043001Y020576D01*
X043010Y020600D01*
X043023Y020623D01*
X043038Y020644D01*
X043057Y020662D01*
X043078Y020678D01*
X043100Y020690D01*
X043125Y020699D01*
X043150Y020704D01*
X043150Y020657D01*
X043129Y020651D01*
X043109Y020642D01*
X043091Y020630D01*
X043075Y020615D01*
X043062Y020597D01*
X043052Y020578D01*
X043045Y020557D01*
X043041Y020536D01*
X043041Y020514D01*
X043045Y020493D01*
X043052Y020472D01*
X043062Y020453D01*
X043075Y020435D01*
X043091Y020420D01*
X043109Y020408D01*
X043129Y020399D01*
X043150Y020393D01*
X043150Y020442D01*
X043134Y020448D01*
X043120Y020457D01*
X043108Y020470D01*
X043098Y020484D01*
X043092Y020500D01*
X043088Y020516D01*
X043088Y020534D01*
X043092Y020550D01*
X043098Y020566D01*
X043108Y020580D01*
X043120Y020593D01*
X043134Y020602D01*
X043150Y020608D01*
X043152Y020557D01*
X043144Y020550D01*
X043138Y020541D01*
X043135Y020530D01*
X043135Y020520D01*
X043138Y020509D01*
X043144Y020500D01*
X043152Y020493D01*
X043399Y020252D02*
X043376Y020525D01*
X043376Y020525D01*
X043399Y020798D01*
X043400Y020799D01*
X043432Y020794D01*
X043464Y020785D01*
X043494Y020773D01*
X043522Y020757D01*
X043549Y020738D01*
X043573Y020716D01*
X043594Y020692D01*
X043612Y020665D01*
X043627Y020636D01*
X043638Y020605D01*
X043646Y020574D01*
X043650Y020541D01*
X043650Y020509D01*
X043646Y020476D01*
X043638Y020445D01*
X043627Y020414D01*
X043612Y020385D01*
X043594Y020358D01*
X043573Y020334D01*
X043549Y020312D01*
X043522Y020293D01*
X043494Y020277D01*
X043464Y020265D01*
X043432Y020256D01*
X043400Y020251D01*
X043400Y020298D01*
X043428Y020303D01*
X043456Y020312D01*
X043482Y020324D01*
X043507Y020339D01*
X043530Y020357D01*
X043550Y020378D01*
X043567Y020402D01*
X043581Y020427D01*
X043592Y020454D01*
X043599Y020482D01*
X043603Y020511D01*
X043603Y020539D01*
X043599Y020568D01*
X043592Y020596D01*
X043581Y020623D01*
X043567Y020648D01*
X043550Y020672D01*
X043530Y020693D01*
X043507Y020711D01*
X043482Y020726D01*
X043456Y020738D01*
X043428Y020747D01*
X043400Y020752D01*
X043400Y020704D01*
X043425Y020699D01*
X043450Y020690D01*
X043472Y020678D01*
X043493Y020662D01*
X043512Y020644D01*
X043527Y020623D01*
X043540Y020600D01*
X043549Y020576D01*
X043554Y020551D01*
X043556Y020525D01*
X043554Y020499D01*
X043549Y020474D01*
X043540Y020450D01*
X043527Y020427D01*
X043512Y020406D01*
X043493Y020388D01*
X043472Y020372D01*
X043450Y020360D01*
X043425Y020351D01*
X043400Y020346D01*
X043400Y020393D01*
X043421Y020399D01*
X043441Y020408D01*
X043459Y020420D01*
X043475Y020435D01*
X043488Y020453D01*
X043498Y020472D01*
X043505Y020493D01*
X043509Y020514D01*
X043509Y020536D01*
X043505Y020557D01*
X043498Y020578D01*
X043488Y020597D01*
X043475Y020615D01*
X043459Y020630D01*
X043441Y020642D01*
X043421Y020651D01*
X043400Y020657D01*
X043400Y020608D01*
X043416Y020602D01*
X043430Y020593D01*
X043442Y020580D01*
X043452Y020566D01*
X043458Y020550D01*
X043462Y020534D01*
X043462Y020516D01*
X043458Y020500D01*
X043452Y020484D01*
X043442Y020470D01*
X043430Y020457D01*
X043416Y020448D01*
X043400Y020442D01*
X043398Y020493D01*
X043406Y020500D01*
X043412Y020509D01*
X043415Y020520D01*
X043415Y020530D01*
X043412Y020541D01*
X043406Y020550D01*
X043398Y020557D01*
X044260Y020800D02*
X044260Y021100D01*
X044335Y021175D01*
X044485Y021175D01*
X044560Y021100D01*
X044560Y021025D01*
X044485Y020950D01*
X044260Y020950D01*
X044260Y020800D02*
X044335Y020725D01*
X044485Y020725D01*
X044560Y020800D01*
X044796Y020800D02*
X044796Y021175D01*
X044871Y021175D02*
X044721Y021175D01*
X044796Y020800D02*
X044871Y020725D01*
X044946Y020725D01*
X045021Y020800D01*
X045181Y020800D02*
X045256Y020725D01*
X045406Y020725D01*
X045481Y020800D01*
X045406Y020950D02*
X045256Y020950D01*
X045181Y020875D01*
X045181Y020800D01*
X045406Y020950D02*
X045481Y021025D01*
X045481Y021100D01*
X045406Y021175D01*
X045256Y021175D01*
X045181Y021100D01*
X045641Y020725D02*
X045942Y020725D01*
X045791Y020725D02*
X045791Y021175D01*
X045942Y021025D01*
X050190Y021095D02*
X050190Y022955D01*
X051610Y022955D01*
X051610Y021095D01*
X050190Y021095D01*
X051651Y020673D02*
X051674Y020400D01*
X051674Y020400D01*
X051651Y020127D01*
X051650Y020126D01*
X051618Y020131D01*
X051586Y020140D01*
X051556Y020152D01*
X051528Y020168D01*
X051501Y020187D01*
X051477Y020209D01*
X051456Y020233D01*
X051438Y020260D01*
X051423Y020289D01*
X051412Y020320D01*
X051404Y020351D01*
X051400Y020384D01*
X051400Y020416D01*
X051404Y020449D01*
X051412Y020480D01*
X051423Y020511D01*
X051438Y020540D01*
X051456Y020567D01*
X051477Y020591D01*
X051501Y020613D01*
X051528Y020632D01*
X051556Y020648D01*
X051586Y020660D01*
X051618Y020669D01*
X051650Y020674D01*
X051650Y020627D01*
X051622Y020622D01*
X051594Y020613D01*
X051568Y020601D01*
X051543Y020586D01*
X051520Y020568D01*
X051500Y020547D01*
X051483Y020523D01*
X051469Y020498D01*
X051458Y020471D01*
X051451Y020443D01*
X051447Y020414D01*
X051447Y020386D01*
X051451Y020357D01*
X051458Y020329D01*
X051469Y020302D01*
X051483Y020277D01*
X051500Y020253D01*
X051520Y020232D01*
X051543Y020214D01*
X051568Y020199D01*
X051594Y020187D01*
X051622Y020178D01*
X051650Y020173D01*
X051650Y020221D01*
X051625Y020226D01*
X051600Y020235D01*
X051578Y020247D01*
X051557Y020263D01*
X051538Y020281D01*
X051523Y020302D01*
X051510Y020325D01*
X051501Y020349D01*
X051496Y020374D01*
X051494Y020400D01*
X051496Y020426D01*
X051501Y020451D01*
X051510Y020475D01*
X051523Y020498D01*
X051538Y020519D01*
X051557Y020537D01*
X051578Y020553D01*
X051600Y020565D01*
X051625Y020574D01*
X051650Y020579D01*
X051650Y020532D01*
X051629Y020526D01*
X051609Y020517D01*
X051591Y020505D01*
X051575Y020490D01*
X051562Y020472D01*
X051552Y020453D01*
X051545Y020432D01*
X051541Y020411D01*
X051541Y020389D01*
X051545Y020368D01*
X051552Y020347D01*
X051562Y020328D01*
X051575Y020310D01*
X051591Y020295D01*
X051609Y020283D01*
X051629Y020274D01*
X051650Y020268D01*
X051650Y020317D01*
X051634Y020323D01*
X051620Y020332D01*
X051608Y020345D01*
X051598Y020359D01*
X051592Y020375D01*
X051588Y020391D01*
X051588Y020409D01*
X051592Y020425D01*
X051598Y020441D01*
X051608Y020455D01*
X051620Y020468D01*
X051634Y020477D01*
X051650Y020483D01*
X051652Y020432D01*
X051644Y020425D01*
X051638Y020416D01*
X051635Y020405D01*
X051635Y020395D01*
X051638Y020384D01*
X051644Y020375D01*
X051652Y020368D01*
X051899Y020127D02*
X051876Y020400D01*
X051876Y020400D01*
X051899Y020673D01*
X051900Y020674D01*
X051932Y020669D01*
X051964Y020660D01*
X051994Y020648D01*
X052022Y020632D01*
X052049Y020613D01*
X052073Y020591D01*
X052094Y020567D01*
X052112Y020540D01*
X052127Y020511D01*
X052138Y020480D01*
X052146Y020449D01*
X052150Y020416D01*
X052150Y020384D01*
X052146Y020351D01*
X052138Y020320D01*
X052127Y020289D01*
X052112Y020260D01*
X052094Y020233D01*
X052073Y020209D01*
X052049Y020187D01*
X052022Y020168D01*
X051994Y020152D01*
X051964Y020140D01*
X051932Y020131D01*
X051900Y020126D01*
X051900Y020173D01*
X051928Y020178D01*
X051956Y020187D01*
X051982Y020199D01*
X052007Y020214D01*
X052030Y020232D01*
X052050Y020253D01*
X052067Y020277D01*
X052081Y020302D01*
X052092Y020329D01*
X052099Y020357D01*
X052103Y020386D01*
X052103Y020414D01*
X052099Y020443D01*
X052092Y020471D01*
X052081Y020498D01*
X052067Y020523D01*
X052050Y020547D01*
X052030Y020568D01*
X052007Y020586D01*
X051982Y020601D01*
X051956Y020613D01*
X051928Y020622D01*
X051900Y020627D01*
X051900Y020579D01*
X051925Y020574D01*
X051950Y020565D01*
X051972Y020553D01*
X051993Y020537D01*
X052012Y020519D01*
X052027Y020498D01*
X052040Y020475D01*
X052049Y020451D01*
X052054Y020426D01*
X052056Y020400D01*
X052054Y020374D01*
X052049Y020349D01*
X052040Y020325D01*
X052027Y020302D01*
X052012Y020281D01*
X051993Y020263D01*
X051972Y020247D01*
X051950Y020235D01*
X051925Y020226D01*
X051900Y020221D01*
X051900Y020268D01*
X051921Y020274D01*
X051941Y020283D01*
X051959Y020295D01*
X051975Y020310D01*
X051988Y020328D01*
X051998Y020347D01*
X052005Y020368D01*
X052009Y020389D01*
X052009Y020411D01*
X052005Y020432D01*
X051998Y020453D01*
X051988Y020472D01*
X051975Y020490D01*
X051959Y020505D01*
X051941Y020517D01*
X051921Y020526D01*
X051900Y020532D01*
X051900Y020483D01*
X051916Y020477D01*
X051930Y020468D01*
X051942Y020455D01*
X051952Y020441D01*
X051958Y020425D01*
X051962Y020409D01*
X051962Y020391D01*
X051958Y020375D01*
X051952Y020359D01*
X051942Y020345D01*
X051930Y020332D01*
X051916Y020323D01*
X051900Y020317D01*
X051898Y020368D01*
X051906Y020375D01*
X051912Y020384D01*
X051915Y020395D01*
X051915Y020405D01*
X051912Y020416D01*
X051906Y020425D01*
X051898Y020432D01*
X052760Y020400D02*
X052835Y020325D01*
X052760Y020250D01*
X052760Y020175D01*
X052835Y020100D01*
X052985Y020100D01*
X053060Y020175D01*
X052910Y020325D02*
X052835Y020325D01*
X052760Y020400D02*
X052760Y020475D01*
X052835Y020550D01*
X052985Y020550D01*
X053060Y020475D01*
X053221Y020550D02*
X053371Y020550D01*
X053296Y020550D02*
X053296Y020175D01*
X053371Y020100D01*
X053446Y020100D01*
X053521Y020175D01*
X053681Y020175D02*
X053756Y020100D01*
X053906Y020100D01*
X053981Y020175D01*
X053906Y020325D02*
X053756Y020325D01*
X053681Y020250D01*
X053681Y020175D01*
X053906Y020325D02*
X053981Y020400D01*
X053981Y020475D01*
X053906Y020550D01*
X053756Y020550D01*
X053681Y020475D01*
X054141Y020100D02*
X054442Y020100D01*
X054291Y020100D02*
X054291Y020550D01*
X054442Y020400D01*
X054506Y023350D02*
X054656Y023350D01*
X054731Y023425D01*
X054656Y023575D02*
X054506Y023575D01*
X054431Y023500D01*
X054431Y023425D01*
X054506Y023350D01*
X054271Y023425D02*
X054196Y023350D01*
X054121Y023350D01*
X054046Y023425D01*
X054046Y023800D01*
X054121Y023800D02*
X053971Y023800D01*
X053810Y023725D02*
X053735Y023800D01*
X053585Y023800D01*
X053510Y023725D01*
X053510Y023650D01*
X053810Y023350D01*
X053510Y023350D01*
X053074Y023547D02*
X053074Y025753D01*
X051726Y025753D01*
X051726Y023547D01*
X053074Y023547D01*
X052400Y023705D02*
X052400Y025556D01*
X052400Y025319D02*
X052400Y023981D01*
X051525Y024000D02*
X051225Y024000D01*
X051375Y024000D02*
X051375Y024450D01*
X051525Y024300D01*
X051065Y024300D02*
X050990Y024225D01*
X050839Y024225D01*
X050764Y024150D01*
X050764Y024075D01*
X050839Y024000D01*
X050990Y024000D01*
X051065Y024075D01*
X051065Y024300D02*
X051065Y024375D01*
X050990Y024450D01*
X050839Y024450D01*
X050764Y024375D01*
X050454Y024450D02*
X050304Y024450D01*
X050379Y024450D02*
X050379Y024075D01*
X050454Y024000D01*
X050529Y024000D01*
X050604Y024075D01*
X050144Y024000D02*
X049844Y024000D01*
X049994Y024000D02*
X049994Y024450D01*
X050144Y024300D01*
X050776Y023798D02*
X050799Y023525D01*
X050799Y023525D01*
X050776Y023252D01*
X050775Y023251D01*
X050743Y023256D01*
X050711Y023265D01*
X050681Y023277D01*
X050653Y023293D01*
X050626Y023312D01*
X050602Y023334D01*
X050581Y023358D01*
X050563Y023385D01*
X050548Y023414D01*
X050537Y023445D01*
X050529Y023476D01*
X050525Y023509D01*
X050525Y023541D01*
X050529Y023574D01*
X050537Y023605D01*
X050548Y023636D01*
X050563Y023665D01*
X050581Y023692D01*
X050602Y023716D01*
X050626Y023738D01*
X050653Y023757D01*
X050681Y023773D01*
X050711Y023785D01*
X050743Y023794D01*
X050775Y023799D01*
X050775Y023752D01*
X050747Y023747D01*
X050719Y023738D01*
X050693Y023726D01*
X050668Y023711D01*
X050645Y023693D01*
X050625Y023672D01*
X050608Y023648D01*
X050594Y023623D01*
X050583Y023596D01*
X050576Y023568D01*
X050572Y023539D01*
X050572Y023511D01*
X050576Y023482D01*
X050583Y023454D01*
X050594Y023427D01*
X050608Y023402D01*
X050625Y023378D01*
X050645Y023357D01*
X050668Y023339D01*
X050693Y023324D01*
X050719Y023312D01*
X050747Y023303D01*
X050775Y023298D01*
X050775Y023346D01*
X050750Y023351D01*
X050725Y023360D01*
X050703Y023372D01*
X050682Y023388D01*
X050663Y023406D01*
X050648Y023427D01*
X050635Y023450D01*
X050626Y023474D01*
X050621Y023499D01*
X050619Y023525D01*
X050621Y023551D01*
X050626Y023576D01*
X050635Y023600D01*
X050648Y023623D01*
X050663Y023644D01*
X050682Y023662D01*
X050703Y023678D01*
X050725Y023690D01*
X050750Y023699D01*
X050775Y023704D01*
X050775Y023657D01*
X050754Y023651D01*
X050734Y023642D01*
X050716Y023630D01*
X050700Y023615D01*
X050687Y023597D01*
X050677Y023578D01*
X050670Y023557D01*
X050666Y023536D01*
X050666Y023514D01*
X050670Y023493D01*
X050677Y023472D01*
X050687Y023453D01*
X050700Y023435D01*
X050716Y023420D01*
X050734Y023408D01*
X050754Y023399D01*
X050775Y023393D01*
X050775Y023442D01*
X050759Y023448D01*
X050745Y023457D01*
X050733Y023470D01*
X050723Y023484D01*
X050717Y023500D01*
X050713Y023516D01*
X050713Y023534D01*
X050717Y023550D01*
X050723Y023566D01*
X050733Y023580D01*
X050745Y023593D01*
X050759Y023602D01*
X050775Y023608D01*
X050777Y023557D01*
X050769Y023550D01*
X050763Y023541D01*
X050760Y023530D01*
X050760Y023520D01*
X050763Y023509D01*
X050769Y023500D01*
X050777Y023493D01*
X051024Y023252D02*
X051001Y023525D01*
X051001Y023525D01*
X051024Y023798D01*
X051025Y023799D01*
X051057Y023794D01*
X051089Y023785D01*
X051119Y023773D01*
X051147Y023757D01*
X051174Y023738D01*
X051198Y023716D01*
X051219Y023692D01*
X051237Y023665D01*
X051252Y023636D01*
X051263Y023605D01*
X051271Y023574D01*
X051275Y023541D01*
X051275Y023509D01*
X051271Y023476D01*
X051263Y023445D01*
X051252Y023414D01*
X051237Y023385D01*
X051219Y023358D01*
X051198Y023334D01*
X051174Y023312D01*
X051147Y023293D01*
X051119Y023277D01*
X051089Y023265D01*
X051057Y023256D01*
X051025Y023251D01*
X051025Y023298D01*
X051053Y023303D01*
X051081Y023312D01*
X051107Y023324D01*
X051132Y023339D01*
X051155Y023357D01*
X051175Y023378D01*
X051192Y023402D01*
X051206Y023427D01*
X051217Y023454D01*
X051224Y023482D01*
X051228Y023511D01*
X051228Y023539D01*
X051224Y023568D01*
X051217Y023596D01*
X051206Y023623D01*
X051192Y023648D01*
X051175Y023672D01*
X051155Y023693D01*
X051132Y023711D01*
X051107Y023726D01*
X051081Y023738D01*
X051053Y023747D01*
X051025Y023752D01*
X051025Y023704D01*
X051050Y023699D01*
X051075Y023690D01*
X051097Y023678D01*
X051118Y023662D01*
X051137Y023644D01*
X051152Y023623D01*
X051165Y023600D01*
X051174Y023576D01*
X051179Y023551D01*
X051181Y023525D01*
X051179Y023499D01*
X051174Y023474D01*
X051165Y023450D01*
X051152Y023427D01*
X051137Y023406D01*
X051118Y023388D01*
X051097Y023372D01*
X051075Y023360D01*
X051050Y023351D01*
X051025Y023346D01*
X051025Y023393D01*
X051046Y023399D01*
X051066Y023408D01*
X051084Y023420D01*
X051100Y023435D01*
X051113Y023453D01*
X051123Y023472D01*
X051130Y023493D01*
X051134Y023514D01*
X051134Y023536D01*
X051130Y023557D01*
X051123Y023578D01*
X051113Y023597D01*
X051100Y023615D01*
X051084Y023630D01*
X051066Y023642D01*
X051046Y023651D01*
X051025Y023657D01*
X051025Y023608D01*
X051041Y023602D01*
X051055Y023593D01*
X051067Y023580D01*
X051077Y023566D01*
X051083Y023550D01*
X051087Y023534D01*
X051087Y023516D01*
X051083Y023500D01*
X051077Y023484D01*
X051067Y023470D01*
X051055Y023457D01*
X051041Y023448D01*
X051025Y023442D01*
X051023Y023493D01*
X051031Y023500D01*
X051037Y023509D01*
X051040Y023520D01*
X051040Y023530D01*
X051037Y023541D01*
X051031Y023550D01*
X051023Y023557D01*
X053901Y024548D02*
X053924Y024275D01*
X053924Y024275D01*
X053901Y024002D01*
X053900Y024001D01*
X053868Y024006D01*
X053836Y024015D01*
X053806Y024027D01*
X053778Y024043D01*
X053751Y024062D01*
X053727Y024084D01*
X053706Y024108D01*
X053688Y024135D01*
X053673Y024164D01*
X053662Y024195D01*
X053654Y024226D01*
X053650Y024259D01*
X053650Y024291D01*
X053654Y024324D01*
X053662Y024355D01*
X053673Y024386D01*
X053688Y024415D01*
X053706Y024442D01*
X053727Y024466D01*
X053751Y024488D01*
X053778Y024507D01*
X053806Y024523D01*
X053836Y024535D01*
X053868Y024544D01*
X053900Y024549D01*
X053900Y024502D01*
X053872Y024497D01*
X053844Y024488D01*
X053818Y024476D01*
X053793Y024461D01*
X053770Y024443D01*
X053750Y024422D01*
X053733Y024398D01*
X053719Y024373D01*
X053708Y024346D01*
X053701Y024318D01*
X053697Y024289D01*
X053697Y024261D01*
X053701Y024232D01*
X053708Y024204D01*
X053719Y024177D01*
X053733Y024152D01*
X053750Y024128D01*
X053770Y024107D01*
X053793Y024089D01*
X053818Y024074D01*
X053844Y024062D01*
X053872Y024053D01*
X053900Y024048D01*
X053900Y024096D01*
X053875Y024101D01*
X053850Y024110D01*
X053828Y024122D01*
X053807Y024138D01*
X053788Y024156D01*
X053773Y024177D01*
X053760Y024200D01*
X053751Y024224D01*
X053746Y024249D01*
X053744Y024275D01*
X053746Y024301D01*
X053751Y024326D01*
X053760Y024350D01*
X053773Y024373D01*
X053788Y024394D01*
X053807Y024412D01*
X053828Y024428D01*
X053850Y024440D01*
X053875Y024449D01*
X053900Y024454D01*
X053900Y024407D01*
X053879Y024401D01*
X053859Y024392D01*
X053841Y024380D01*
X053825Y024365D01*
X053812Y024347D01*
X053802Y024328D01*
X053795Y024307D01*
X053791Y024286D01*
X053791Y024264D01*
X053795Y024243D01*
X053802Y024222D01*
X053812Y024203D01*
X053825Y024185D01*
X053841Y024170D01*
X053859Y024158D01*
X053879Y024149D01*
X053900Y024143D01*
X053900Y024192D01*
X053884Y024198D01*
X053870Y024207D01*
X053858Y024220D01*
X053848Y024234D01*
X053842Y024250D01*
X053838Y024266D01*
X053838Y024284D01*
X053842Y024300D01*
X053848Y024316D01*
X053858Y024330D01*
X053870Y024343D01*
X053884Y024352D01*
X053900Y024358D01*
X053902Y024307D01*
X053894Y024300D01*
X053888Y024291D01*
X053885Y024280D01*
X053885Y024270D01*
X053888Y024259D01*
X053894Y024250D01*
X053902Y024243D01*
X054149Y024002D02*
X054126Y024275D01*
X054126Y024275D01*
X054149Y024548D01*
X054150Y024549D01*
X054182Y024544D01*
X054214Y024535D01*
X054244Y024523D01*
X054272Y024507D01*
X054299Y024488D01*
X054323Y024466D01*
X054344Y024442D01*
X054362Y024415D01*
X054377Y024386D01*
X054388Y024355D01*
X054396Y024324D01*
X054400Y024291D01*
X054400Y024259D01*
X054396Y024226D01*
X054388Y024195D01*
X054377Y024164D01*
X054362Y024135D01*
X054344Y024108D01*
X054323Y024084D01*
X054299Y024062D01*
X054272Y024043D01*
X054244Y024027D01*
X054214Y024015D01*
X054182Y024006D01*
X054150Y024001D01*
X054150Y024048D01*
X054178Y024053D01*
X054206Y024062D01*
X054232Y024074D01*
X054257Y024089D01*
X054280Y024107D01*
X054300Y024128D01*
X054317Y024152D01*
X054331Y024177D01*
X054342Y024204D01*
X054349Y024232D01*
X054353Y024261D01*
X054353Y024289D01*
X054349Y024318D01*
X054342Y024346D01*
X054331Y024373D01*
X054317Y024398D01*
X054300Y024422D01*
X054280Y024443D01*
X054257Y024461D01*
X054232Y024476D01*
X054206Y024488D01*
X054178Y024497D01*
X054150Y024502D01*
X054150Y024454D01*
X054175Y024449D01*
X054200Y024440D01*
X054222Y024428D01*
X054243Y024412D01*
X054262Y024394D01*
X054277Y024373D01*
X054290Y024350D01*
X054299Y024326D01*
X054304Y024301D01*
X054306Y024275D01*
X054304Y024249D01*
X054299Y024224D01*
X054290Y024200D01*
X054277Y024177D01*
X054262Y024156D01*
X054243Y024138D01*
X054222Y024122D01*
X054200Y024110D01*
X054175Y024101D01*
X054150Y024096D01*
X054150Y024143D01*
X054171Y024149D01*
X054191Y024158D01*
X054209Y024170D01*
X054225Y024185D01*
X054238Y024203D01*
X054248Y024222D01*
X054255Y024243D01*
X054259Y024264D01*
X054259Y024286D01*
X054255Y024307D01*
X054248Y024328D01*
X054238Y024347D01*
X054225Y024365D01*
X054209Y024380D01*
X054191Y024392D01*
X054171Y024401D01*
X054150Y024407D01*
X054150Y024358D01*
X054166Y024352D01*
X054180Y024343D01*
X054192Y024330D01*
X054202Y024316D01*
X054208Y024300D01*
X054212Y024284D01*
X054212Y024266D01*
X054208Y024250D01*
X054202Y024234D01*
X054192Y024220D01*
X054180Y024207D01*
X054166Y024198D01*
X054150Y024192D01*
X054148Y024243D01*
X054156Y024250D01*
X054162Y024259D01*
X054165Y024270D01*
X054165Y024280D01*
X054162Y024291D01*
X054156Y024300D01*
X054148Y024307D01*
X054506Y023800D02*
X054656Y023800D01*
X054731Y023725D01*
X054731Y023650D01*
X054656Y023575D01*
X054431Y023725D02*
X054506Y023800D01*
X055041Y023800D02*
X055041Y023350D01*
X054891Y023350D02*
X055192Y023350D01*
X055192Y023650D02*
X055041Y023800D01*
X051525Y017700D02*
X051525Y017250D01*
X051675Y017250D02*
X051375Y017250D01*
X051215Y017400D02*
X051064Y017250D01*
X050914Y017400D01*
X050914Y017700D01*
X050754Y017700D02*
X050454Y017700D01*
X050604Y017700D02*
X050604Y017250D01*
X050294Y017475D02*
X049994Y017475D01*
X050069Y017250D02*
X050069Y017700D01*
X050294Y017475D01*
X051215Y017400D02*
X051215Y017700D01*
X051525Y017700D02*
X051675Y017550D01*
X043225Y035263D02*
X042925Y035263D01*
X043075Y035263D02*
X043075Y035713D01*
X043225Y035563D01*
X042765Y035638D02*
X042765Y035338D01*
X042690Y035263D01*
X042539Y035263D01*
X042464Y035338D01*
X042304Y035338D02*
X042229Y035263D01*
X042079Y035263D01*
X042004Y035338D01*
X042004Y035413D01*
X042079Y035488D01*
X042304Y035488D01*
X042304Y035338D01*
X042304Y035488D02*
X042154Y035638D01*
X042004Y035713D01*
X042464Y035638D02*
X042539Y035713D01*
X042690Y035713D01*
X042765Y035638D01*
X045481Y038025D02*
X045556Y037950D01*
X045706Y037950D01*
X045781Y038025D01*
X045481Y038325D01*
X045481Y038025D01*
X045481Y038325D02*
X045556Y038400D01*
X045706Y038400D01*
X045781Y038325D01*
X045781Y038025D01*
X045941Y037950D02*
X046242Y037950D01*
X046092Y037950D02*
X046092Y038400D01*
X046242Y038250D01*
X046402Y038325D02*
X046477Y038400D01*
X046627Y038400D01*
X046702Y038325D01*
X046702Y038025D01*
X046627Y037950D01*
X046477Y037950D01*
X046402Y038025D01*
X046862Y037950D02*
X047163Y037950D01*
X047012Y037950D02*
X047012Y038400D01*
X047163Y038250D01*
X047106Y039200D02*
X047406Y039200D01*
X047256Y039200D02*
X047256Y039650D01*
X047406Y039500D01*
X047566Y039200D02*
X047867Y039200D01*
X047717Y039200D02*
X047717Y039650D01*
X047867Y039500D01*
X048027Y039575D02*
X048102Y039650D01*
X048252Y039650D01*
X048327Y039575D01*
X048327Y039275D01*
X048252Y039200D01*
X048102Y039200D01*
X048027Y039275D01*
X048487Y039200D02*
X048788Y039200D01*
X048637Y039200D02*
X048637Y039650D01*
X048788Y039500D01*
D22*
X048615Y038025D03*
X047935Y038025D03*
X053560Y036025D03*
X054240Y036025D03*
X048990Y034775D03*
X048310Y034775D03*
X047998Y028650D03*
X048678Y028650D03*
X053560Y021650D03*
X054240Y021650D03*
X061935Y025775D03*
X062615Y025775D03*
X043240Y021400D03*
X042560Y021400D03*
X057560Y051400D03*
X058240Y051400D03*
X061935Y058150D03*
X062615Y058150D03*
X052990Y068525D03*
X052310Y068525D03*
X062810Y070025D03*
X063490Y070025D03*
X110685Y056525D03*
X111365Y056525D03*
X125810Y035025D03*
X126490Y035025D03*
D23*
X063205Y065650D03*
X062095Y065650D03*
X047768Y030275D03*
X046658Y030275D03*
X048033Y024525D03*
X049143Y024525D03*
D24*
X046750Y024065D02*
X044390Y024065D01*
X044390Y021485D01*
X046750Y021485D01*
X046750Y024065D01*
X044350Y023785D02*
X044350Y021765D01*
X044070Y021765D01*
X043890Y021945D01*
X043890Y023605D01*
X044070Y023785D01*
X044350Y023785D01*
X047466Y027539D02*
X047466Y028011D01*
X047859Y027775D01*
X047466Y027539D01*
X047528Y030976D02*
X047528Y031449D01*
X047922Y031213D01*
X047528Y030976D01*
X048022Y031789D02*
X047628Y032025D01*
X048022Y032261D01*
X048022Y031789D01*
X047398Y032580D02*
X047398Y034470D01*
X047201Y034470D01*
X047201Y032580D01*
X047398Y032580D01*
X047201Y032580D02*
X045902Y032580D01*
X045902Y034470D01*
X047201Y034470D01*
X056777Y034470D02*
X056777Y032580D01*
X058076Y032580D01*
X058076Y034470D01*
X056777Y034470D01*
X058076Y034470D02*
X058273Y034470D01*
X058273Y032580D01*
X058076Y032580D01*
X057522Y031386D02*
X057128Y031150D01*
X057522Y030914D01*
X057522Y031386D01*
X057028Y030511D02*
X057028Y030039D01*
X057422Y030275D01*
X057028Y030511D01*
X055647Y025886D02*
X055647Y025414D01*
X055253Y025650D01*
X055647Y025886D01*
X055390Y024065D02*
X055390Y021485D01*
X057750Y021485D01*
X057750Y024065D01*
X055390Y024065D01*
X055350Y023785D02*
X055350Y021765D01*
X055070Y021765D01*
X054890Y021945D01*
X054890Y023605D01*
X055070Y023785D01*
X055350Y023785D01*
X060278Y025539D02*
X060278Y026011D01*
X060672Y025775D01*
X060278Y025539D01*
X061647Y051289D02*
X061647Y051761D01*
X061253Y051525D01*
X061647Y051289D01*
X056011Y068778D02*
X055539Y068778D01*
X055775Y069172D01*
X056011Y068778D01*
X055506Y072139D02*
X056919Y072139D01*
X056919Y075911D01*
X055506Y075911D01*
X055506Y072139D01*
X055693Y072431D02*
X055695Y072453D01*
X055701Y072475D01*
X055710Y072495D01*
X055723Y072513D01*
X055739Y072529D01*
X055757Y072542D01*
X055777Y072551D01*
X055799Y072557D01*
X055821Y072559D01*
X055843Y072557D01*
X055865Y072551D01*
X055885Y072542D01*
X055903Y072529D01*
X055919Y072513D01*
X055932Y072495D01*
X055941Y072475D01*
X055947Y072453D01*
X055949Y072431D01*
X055947Y072409D01*
X055941Y072387D01*
X055932Y072367D01*
X055919Y072349D01*
X055903Y072333D01*
X055885Y072320D01*
X055865Y072311D01*
X055843Y072305D01*
X055821Y072303D01*
X055799Y072305D01*
X055777Y072311D01*
X055757Y072320D01*
X055739Y072333D01*
X055723Y072349D01*
X055710Y072367D01*
X055701Y072387D01*
X055695Y072409D01*
X055693Y072431D01*
X051522Y079289D02*
X051522Y079761D01*
X051128Y079525D01*
X051522Y079289D01*
X105503Y043963D02*
X105897Y044199D01*
X105897Y043726D01*
X105503Y043963D01*
X116503Y040650D02*
X116897Y040886D01*
X116897Y040414D01*
X116503Y040650D01*
X115261Y036647D02*
X114789Y036647D01*
X115025Y036253D01*
X115261Y036647D01*
X123738Y028460D02*
X124132Y028696D01*
X124132Y028224D01*
X123738Y028460D01*
X115522Y025511D02*
X115522Y025039D01*
X115128Y025275D01*
X115522Y025511D01*
X115522Y024511D02*
X115522Y024039D01*
X115128Y024275D01*
X115522Y024511D01*
X113408Y027183D02*
X113742Y027517D01*
X113296Y027629D01*
X113408Y027183D01*
X132164Y035397D02*
X132636Y035397D01*
X132400Y035003D01*
X132164Y035397D01*
X119761Y046278D02*
X119289Y046278D01*
X119525Y046672D01*
X119761Y046278D01*
X131003Y047775D02*
X131397Y047539D01*
X131397Y048011D01*
X131003Y047775D01*
D25*
X058529Y034275D03*
X058529Y033775D03*
X058529Y033275D03*
X058529Y032775D03*
X056521Y032775D03*
X056521Y033275D03*
X056521Y033775D03*
X056521Y034275D03*
X047654Y034275D03*
X047654Y033775D03*
X047654Y033275D03*
X047654Y032775D03*
X045646Y032775D03*
X045646Y033275D03*
X045646Y033775D03*
X045646Y034275D03*
D26*
X116900Y068525D03*
X116900Y072525D03*
X124650Y072525D03*
X124650Y068525D03*
D27*
X123000Y068525D03*
X118550Y068525D03*
X118550Y072525D03*
X123000Y072525D03*
D28*
X122625Y073275D03*
X122625Y071775D03*
X118925Y071775D03*
X118925Y073275D03*
X118925Y069275D03*
X118925Y067775D03*
X122625Y067775D03*
X122625Y069275D03*
D29*
X123175Y069300D03*
X124525Y069300D03*
X124525Y067750D03*
X123175Y067750D03*
X118375Y067750D03*
X117025Y067750D03*
X117025Y069300D03*
X118375Y069300D03*
X118375Y071750D03*
X117025Y071750D03*
X117025Y073300D03*
X118375Y073300D03*
X123175Y073300D03*
X124525Y073300D03*
X124525Y071750D03*
X123175Y071750D03*
D30*
X120775Y071639D03*
X120775Y073411D03*
X120775Y069411D03*
X120775Y067639D03*
D31*
X117675Y068525D03*
X117675Y072525D03*
X123875Y072525D03*
X123875Y068525D03*
D32*
X122150Y063900D02*
X121650Y063900D01*
X121150Y063900D01*
X121150Y063550D02*
X121650Y063550D01*
X122150Y063550D01*
X133150Y059375D02*
X133650Y059375D01*
X134150Y059375D01*
X134150Y059025D02*
X133650Y059025D01*
X133150Y059025D01*
D33*
X133520Y067895D02*
X133400Y068025D01*
X132900Y068025D02*
X132770Y067895D01*
X132680Y074735D02*
X132680Y074935D01*
X132680Y075525D01*
X132680Y076315D01*
X133670Y076315D01*
X133670Y076115D01*
X133670Y075525D01*
X133670Y074735D01*
X132680Y074735D01*
X046556Y073794D02*
X046556Y073026D01*
X044744Y073026D01*
X044744Y073794D01*
X046556Y073794D01*
X045965Y073400D02*
X045552Y073124D01*
X045552Y073695D01*
X045965Y073400D01*
X046556Y072544D02*
X044744Y072544D01*
X044744Y071776D01*
X046556Y071776D01*
X046556Y072544D01*
X045965Y072150D02*
X045552Y071874D01*
X045552Y072445D01*
X045965Y072150D01*
D34*
X050655Y079525D03*
X051895Y079525D03*
X060780Y051525D03*
X062020Y051525D03*
X048395Y032025D03*
X048395Y031213D03*
X047155Y031213D03*
X047155Y032025D03*
X047093Y027775D03*
X048333Y027775D03*
X054780Y025650D03*
X056020Y025650D03*
X059905Y025775D03*
X061145Y025775D03*
X057895Y030275D03*
X057895Y031150D03*
X056655Y031150D03*
X056655Y030275D03*
X105030Y043963D03*
X106270Y043963D03*
X116030Y040650D03*
X117270Y040650D03*
X130530Y047775D03*
X131770Y047775D03*
X124505Y028460D03*
X123265Y028460D03*
X115895Y025275D03*
X115895Y024275D03*
X114655Y024275D03*
X114655Y025275D03*
G36*
X113676Y026769D02*
X113520Y026925D01*
X114000Y027405D01*
X114156Y027249D01*
X113676Y026769D01*
G37*
G36*
X112800Y027645D02*
X112644Y027801D01*
X113124Y028281D01*
X113280Y028125D01*
X112800Y027645D01*
G37*
D35*
G36*
X113110Y027377D02*
X112940Y027547D01*
X113378Y027985D01*
X113548Y027815D01*
X113110Y027377D01*
G37*
X115055Y025275D03*
X115055Y024275D03*
X123665Y028460D03*
X116430Y040650D03*
X105430Y043963D03*
X130930Y047775D03*
X061180Y051525D03*
X047555Y032025D03*
X047995Y031213D03*
X047933Y027775D03*
X055180Y025650D03*
X060745Y025775D03*
X057495Y030275D03*
X057055Y031150D03*
X051055Y079525D03*
D36*
X055775Y069645D03*
X055775Y068405D03*
X115025Y037020D03*
X115025Y035780D03*
X119525Y045905D03*
X119525Y047145D03*
X132400Y035770D03*
X132400Y034530D03*
D37*
X132400Y034930D03*
X115025Y036180D03*
X119525Y046745D03*
X055775Y069245D03*
D38*
X054813Y078712D03*
X054233Y078712D03*
X054858Y080337D03*
X055438Y080337D03*
X124420Y035024D03*
X125000Y035024D03*
X056692Y027651D03*
X056112Y027651D03*
D39*
X061628Y024648D03*
X062672Y024652D03*
X060658Y047528D03*
X059648Y047528D03*
X059033Y057653D03*
X058023Y057653D03*
D40*
X059774Y035130D03*
X059774Y034550D03*
D41*
X046644Y072140D03*
X046644Y073390D03*
X044656Y073390D03*
X044656Y072140D03*
D42*
X045985Y072150D03*
X045985Y073400D03*
D43*
X123525Y066775D02*
X123525Y057775D01*
X130525Y057775D01*
X130525Y066775D01*
X123525Y066775D01*
X125025Y064275D02*
X125025Y063275D01*
X125027Y063231D01*
X125033Y063188D01*
X125042Y063146D01*
X125055Y063104D01*
X125072Y063064D01*
X125092Y063025D01*
X125115Y062988D01*
X125142Y062954D01*
X125171Y062921D01*
X125204Y062892D01*
X125238Y062865D01*
X125275Y062842D01*
X125314Y062822D01*
X125354Y062805D01*
X125396Y062792D01*
X125438Y062783D01*
X125481Y062777D01*
X125525Y062775D01*
X125569Y062777D01*
X125612Y062783D01*
X125654Y062792D01*
X125696Y062805D01*
X125736Y062822D01*
X125775Y062842D01*
X125812Y062865D01*
X125846Y062892D01*
X125879Y062921D01*
X125908Y062954D01*
X125935Y062988D01*
X125958Y063025D01*
X125978Y063064D01*
X125995Y063104D01*
X126008Y063146D01*
X126017Y063188D01*
X126023Y063231D01*
X126025Y063275D01*
X126027Y063231D01*
X126033Y063188D01*
X126042Y063146D01*
X126055Y063104D01*
X126072Y063064D01*
X126092Y063025D01*
X126115Y062988D01*
X126142Y062954D01*
X126171Y062921D01*
X126204Y062892D01*
X126238Y062865D01*
X126275Y062842D01*
X126314Y062822D01*
X126354Y062805D01*
X126396Y062792D01*
X126438Y062783D01*
X126481Y062777D01*
X126525Y062775D01*
X126569Y062777D01*
X126612Y062783D01*
X126654Y062792D01*
X126696Y062805D01*
X126736Y062822D01*
X126775Y062842D01*
X126812Y062865D01*
X126846Y062892D01*
X126879Y062921D01*
X126908Y062954D01*
X126935Y062988D01*
X126958Y063025D01*
X126978Y063064D01*
X126995Y063104D01*
X127008Y063146D01*
X127017Y063188D01*
X127023Y063231D01*
X127025Y063275D01*
X127027Y063231D01*
X127033Y063188D01*
X127042Y063146D01*
X127055Y063104D01*
X127072Y063064D01*
X127092Y063025D01*
X127115Y062988D01*
X127142Y062954D01*
X127171Y062921D01*
X127204Y062892D01*
X127238Y062865D01*
X127275Y062842D01*
X127314Y062822D01*
X127354Y062805D01*
X127396Y062792D01*
X127438Y062783D01*
X127481Y062777D01*
X127525Y062775D01*
X127569Y062777D01*
X127612Y062783D01*
X127654Y062792D01*
X127696Y062805D01*
X127736Y062822D01*
X127775Y062842D01*
X127812Y062865D01*
X127846Y062892D01*
X127879Y062921D01*
X127908Y062954D01*
X127935Y062988D01*
X127958Y063025D01*
X127978Y063064D01*
X127995Y063104D01*
X128008Y063146D01*
X128017Y063188D01*
X128023Y063231D01*
X128025Y063275D01*
X128027Y063231D01*
X128033Y063188D01*
X128042Y063146D01*
X128055Y063104D01*
X128072Y063064D01*
X128092Y063025D01*
X128115Y062988D01*
X128142Y062954D01*
X128171Y062921D01*
X128204Y062892D01*
X128238Y062865D01*
X128275Y062842D01*
X128314Y062822D01*
X128354Y062805D01*
X128396Y062792D01*
X128438Y062783D01*
X128481Y062777D01*
X128525Y062775D01*
X128569Y062777D01*
X128612Y062783D01*
X128654Y062792D01*
X128696Y062805D01*
X128736Y062822D01*
X128775Y062842D01*
X128812Y062865D01*
X128846Y062892D01*
X128879Y062921D01*
X128908Y062954D01*
X128935Y062988D01*
X128958Y063025D01*
X128978Y063064D01*
X128995Y063104D01*
X129008Y063146D01*
X129017Y063188D01*
X129023Y063231D01*
X129025Y063275D01*
X129025Y064275D01*
X129025Y062275D02*
X125025Y062275D01*
X125025Y061275D02*
X125025Y060275D01*
X125025Y061275D02*
X125027Y061319D01*
X125033Y061362D01*
X125042Y061404D01*
X125055Y061446D01*
X125072Y061486D01*
X125092Y061525D01*
X125115Y061562D01*
X125142Y061596D01*
X125171Y061629D01*
X125204Y061658D01*
X125238Y061685D01*
X125275Y061708D01*
X125314Y061728D01*
X125354Y061745D01*
X125396Y061758D01*
X125438Y061767D01*
X125481Y061773D01*
X125525Y061775D01*
X125569Y061773D01*
X125612Y061767D01*
X125654Y061758D01*
X125696Y061745D01*
X125736Y061728D01*
X125775Y061708D01*
X125812Y061685D01*
X125846Y061658D01*
X125879Y061629D01*
X125908Y061596D01*
X125935Y061562D01*
X125958Y061525D01*
X125978Y061486D01*
X125995Y061446D01*
X126008Y061404D01*
X126017Y061362D01*
X126023Y061319D01*
X126025Y061275D01*
X126027Y061319D01*
X126033Y061362D01*
X126042Y061404D01*
X126055Y061446D01*
X126072Y061486D01*
X126092Y061525D01*
X126115Y061562D01*
X126142Y061596D01*
X126171Y061629D01*
X126204Y061658D01*
X126238Y061685D01*
X126275Y061708D01*
X126314Y061728D01*
X126354Y061745D01*
X126396Y061758D01*
X126438Y061767D01*
X126481Y061773D01*
X126525Y061775D01*
X126569Y061773D01*
X126612Y061767D01*
X126654Y061758D01*
X126696Y061745D01*
X126736Y061728D01*
X126775Y061708D01*
X126812Y061685D01*
X126846Y061658D01*
X126879Y061629D01*
X126908Y061596D01*
X126935Y061562D01*
X126958Y061525D01*
X126978Y061486D01*
X126995Y061446D01*
X127008Y061404D01*
X127017Y061362D01*
X127023Y061319D01*
X127025Y061275D01*
X127027Y061319D01*
X127033Y061362D01*
X127042Y061404D01*
X127055Y061446D01*
X127072Y061486D01*
X127092Y061525D01*
X127115Y061562D01*
X127142Y061596D01*
X127171Y061629D01*
X127204Y061658D01*
X127238Y061685D01*
X127275Y061708D01*
X127314Y061728D01*
X127354Y061745D01*
X127396Y061758D01*
X127438Y061767D01*
X127481Y061773D01*
X127525Y061775D01*
X127569Y061773D01*
X127612Y061767D01*
X127654Y061758D01*
X127696Y061745D01*
X127736Y061728D01*
X127775Y061708D01*
X127812Y061685D01*
X127846Y061658D01*
X127879Y061629D01*
X127908Y061596D01*
X127935Y061562D01*
X127958Y061525D01*
X127978Y061486D01*
X127995Y061446D01*
X128008Y061404D01*
X128017Y061362D01*
X128023Y061319D01*
X128025Y061275D01*
X128027Y061319D01*
X128033Y061362D01*
X128042Y061404D01*
X128055Y061446D01*
X128072Y061486D01*
X128092Y061525D01*
X128115Y061562D01*
X128142Y061596D01*
X128171Y061629D01*
X128204Y061658D01*
X128238Y061685D01*
X128275Y061708D01*
X128314Y061728D01*
X128354Y061745D01*
X128396Y061758D01*
X128438Y061767D01*
X128481Y061773D01*
X128525Y061775D01*
X128569Y061773D01*
X128612Y061767D01*
X128654Y061758D01*
X128696Y061745D01*
X128736Y061728D01*
X128775Y061708D01*
X128812Y061685D01*
X128846Y061658D01*
X128879Y061629D01*
X128908Y061596D01*
X128935Y061562D01*
X128958Y061525D01*
X128978Y061486D01*
X128995Y061446D01*
X129008Y061404D01*
X129017Y061362D01*
X129023Y061319D01*
X129025Y061275D01*
X129025Y060275D01*
D44*
X129525Y075525D03*
X129525Y076525D03*
D45*
X097150Y044900D03*
X096150Y044900D03*
X096150Y043900D03*
X097150Y043900D03*
X097150Y042900D03*
X096150Y042900D03*
X124775Y041150D03*
X125775Y041150D03*
X125775Y040150D03*
X124775Y040150D03*
X126775Y040150D03*
X126775Y041150D03*
D46*
X112525Y049273D03*
X112525Y050273D03*
X112525Y056652D03*
X112525Y057652D03*
X098275Y040527D03*
X098275Y039527D03*
X095025Y037523D03*
X095025Y036523D03*
X093900Y036523D03*
X093900Y037523D03*
X094775Y030652D03*
X094775Y029652D03*
X059150Y025152D03*
X059150Y024152D03*
X058900Y075902D03*
X058900Y076902D03*
D47*
X059383Y075575D02*
X059383Y070475D01*
X051250Y022735D02*
X051252Y022758D01*
X051258Y022780D01*
X051267Y022802D01*
X051280Y022821D01*
X051295Y022838D01*
X051313Y022852D01*
X051334Y022863D01*
X051356Y022871D01*
X051378Y022875D01*
X051402Y022875D01*
X051424Y022871D01*
X051446Y022863D01*
X051467Y022852D01*
X051485Y022838D01*
X051500Y022821D01*
X051513Y022802D01*
X051522Y022780D01*
X051528Y022758D01*
X051530Y022735D01*
X051528Y022712D01*
X051522Y022690D01*
X051513Y022668D01*
X051500Y022649D01*
X051485Y022632D01*
X051467Y022618D01*
X051446Y022607D01*
X051424Y022599D01*
X051402Y022595D01*
X051378Y022595D01*
X051356Y022599D01*
X051334Y022607D01*
X051313Y022618D01*
X051295Y022632D01*
X051280Y022649D01*
X051267Y022668D01*
X051258Y022690D01*
X051252Y022712D01*
X051250Y022735D01*
X040875Y022735D02*
X040877Y022758D01*
X040883Y022780D01*
X040892Y022802D01*
X040905Y022821D01*
X040920Y022838D01*
X040938Y022852D01*
X040959Y022863D01*
X040981Y022871D01*
X041003Y022875D01*
X041027Y022875D01*
X041049Y022871D01*
X041071Y022863D01*
X041092Y022852D01*
X041110Y022838D01*
X041125Y022821D01*
X041138Y022802D01*
X041147Y022780D01*
X041153Y022758D01*
X041155Y022735D01*
X041153Y022712D01*
X041147Y022690D01*
X041138Y022668D01*
X041125Y022649D01*
X041110Y022632D01*
X041092Y022618D01*
X041071Y022607D01*
X041049Y022599D01*
X041027Y022595D01*
X041003Y022595D01*
X040981Y022599D01*
X040959Y022607D01*
X040938Y022618D01*
X040920Y022632D01*
X040905Y022649D01*
X040892Y022668D01*
X040883Y022690D01*
X040877Y022712D01*
X040875Y022735D01*
D48*
X059218Y070775D03*
X059218Y071275D03*
X059218Y071775D03*
X059218Y072275D03*
X059218Y072775D03*
X059218Y073275D03*
X059218Y073775D03*
X059218Y074275D03*
X059218Y074775D03*
X059218Y075275D03*
X062208Y075275D03*
X062208Y074775D03*
X062208Y074275D03*
X062208Y073775D03*
X062208Y073275D03*
X062208Y072775D03*
X062208Y072275D03*
X062208Y071775D03*
X062208Y071275D03*
X062208Y070775D03*
D49*
X062523Y070775D03*
X062523Y071275D03*
X062523Y071775D03*
X062523Y072275D03*
X062523Y072775D03*
X062523Y073275D03*
X062523Y073775D03*
X062523Y074275D03*
X062523Y074775D03*
X062523Y075275D03*
X058903Y075275D03*
X058903Y074775D03*
X058903Y074275D03*
X058903Y073775D03*
X058903Y073275D03*
X058903Y072775D03*
X058903Y072275D03*
X058903Y071775D03*
X058903Y071275D03*
X058903Y070775D03*
D50*
X057161Y072275D03*
X057161Y072775D03*
X057161Y073275D03*
X057161Y073775D03*
X057161Y074275D03*
X057161Y074775D03*
X057161Y075275D03*
X057161Y075775D03*
X055264Y075775D03*
X055264Y075275D03*
X055264Y074775D03*
X055264Y074275D03*
X055264Y073775D03*
X055264Y073275D03*
X055264Y072775D03*
X055264Y072275D03*
D51*
X063025Y067420D03*
X063395Y066630D03*
X062655Y066630D03*
D52*
X054153Y070267D03*
X054153Y071277D03*
D53*
X060150Y024047D03*
X060150Y023003D03*
D54*
X052715Y024020D02*
X052715Y025280D01*
X052085Y025280D01*
X052085Y024020D01*
X052715Y024020D01*
X042840Y024020D02*
X042840Y025280D01*
X042210Y025280D01*
X042210Y024020D01*
X042840Y024020D01*
D55*
X042525Y024650D03*
X052400Y024650D03*
D56*
X052400Y024670D03*
X042525Y024670D03*
D57*
X041455Y022775D03*
X041455Y022275D03*
X041455Y021775D03*
X041455Y021275D03*
X039595Y021275D03*
X039595Y021775D03*
X039595Y022275D03*
X039595Y022775D03*
X049970Y022775D03*
X049970Y022275D03*
X049970Y021775D03*
X049970Y021275D03*
X051830Y021275D03*
X051830Y021775D03*
X051830Y022275D03*
X051830Y022775D03*
D58*
X047360Y021875D03*
X047360Y023675D03*
X058360Y023675D03*
X058360Y021875D03*
D59*
X057940Y022775D03*
X046940Y022775D03*
D60*
X044350Y022806D02*
X043890Y022806D01*
X043890Y022729D02*
X044350Y022729D01*
X044350Y022652D02*
X043890Y022652D01*
X043890Y022575D02*
X044350Y022575D01*
X044350Y022498D02*
X043890Y022498D01*
X043890Y022420D02*
X044350Y022420D01*
X044350Y022343D02*
X043890Y022343D01*
X043890Y022266D02*
X044350Y022266D01*
X044350Y022189D02*
X043890Y022189D01*
X043890Y022112D02*
X044350Y022112D01*
X044350Y022035D02*
X043890Y022035D01*
X043890Y021957D02*
X044350Y021957D01*
X044350Y021880D02*
X043955Y021880D01*
X043890Y021945D02*
X044070Y021765D01*
X044350Y021765D01*
X044350Y023785D01*
X044070Y023785D01*
X043890Y023605D01*
X043890Y021945D01*
X044032Y021803D02*
X044350Y021803D01*
X044350Y022883D02*
X043890Y022883D01*
X043890Y022961D02*
X044350Y022961D01*
X044350Y023038D02*
X043890Y023038D01*
X043890Y023115D02*
X044350Y023115D01*
X044350Y023192D02*
X043890Y023192D01*
X043890Y023269D02*
X044350Y023269D01*
X044350Y023346D02*
X043890Y023346D01*
X043890Y023423D02*
X044350Y023423D01*
X044350Y023501D02*
X043890Y023501D01*
X043890Y023578D02*
X044350Y023578D01*
X044350Y023655D02*
X043940Y023655D01*
X044017Y023732D02*
X044350Y023732D01*
X054890Y023605D02*
X054890Y021945D01*
X055070Y021765D01*
X055350Y021765D01*
X055350Y023785D01*
X055070Y023785D01*
X054890Y023605D01*
X054890Y023578D02*
X055350Y023578D01*
X055350Y023655D02*
X054940Y023655D01*
X055017Y023732D02*
X055350Y023732D01*
X055350Y023501D02*
X054890Y023501D01*
X054890Y023423D02*
X055350Y023423D01*
X055350Y023346D02*
X054890Y023346D01*
X054890Y023269D02*
X055350Y023269D01*
X055350Y023192D02*
X054890Y023192D01*
X054890Y023115D02*
X055350Y023115D01*
X055350Y023038D02*
X054890Y023038D01*
X054890Y022961D02*
X055350Y022961D01*
X055350Y022883D02*
X054890Y022883D01*
X054890Y022806D02*
X055350Y022806D01*
X055350Y022729D02*
X054890Y022729D01*
X054890Y022652D02*
X055350Y022652D01*
X055350Y022575D02*
X054890Y022575D01*
X054890Y022498D02*
X055350Y022498D01*
X055350Y022420D02*
X054890Y022420D01*
X054890Y022343D02*
X055350Y022343D01*
X055350Y022266D02*
X054890Y022266D01*
X054890Y022189D02*
X055350Y022189D01*
X055350Y022112D02*
X054890Y022112D01*
X054890Y022035D02*
X055350Y022035D01*
X055350Y021957D02*
X054890Y021957D01*
X054955Y021880D02*
X055350Y021880D01*
X055350Y021803D02*
X055032Y021803D01*
M02*
