G75*
G70*
%OFA0B0*%
%FSLAX24Y24*%
%IPPOS*%
%LPD*%
%AMOC8*
5,1,8,0,0,1.08239X$1,22.5*
%
%ADD10C,0.1300*%
%ADD11C,0.0907*%
%ADD12OC8,0.1080*%
%ADD13C,0.1080*%
%ADD14C,0.0912*%
%ADD15C,0.1080*%
%ADD16C,0.2049*%
%ADD17OC8,0.0992*%
%ADD18C,0.0986*%
%ADD19OC8,0.0912*%
%ADD20C,0.0912*%
%ADD21C,0.0986*%
%ADD22C,0.0198*%
%ADD23C,0.1062*%
%ADD24C,0.1064*%
%ADD25C,0.0946*%
%ADD26R,0.0631X0.0789*%
%ADD27R,0.1062X0.1062*%
%ADD28C,0.0790*%
%ADD29R,0.1062X0.1062*%
%ADD30C,0.2160*%
%ADD31C,0.1032*%
%ADD32C,0.1580*%
%ADD33C,0.0992*%
%ADD34C,0.1261*%
%ADD35C,0.1302*%
%ADD36C,0.1261*%
%ADD37C,0.1064*%
%ADD38C,0.1182*%
%ADD39R,0.1182X0.1182*%
%ADD40C,0.0992*%
%ADD41C,0.4804*%
%ADD42R,0.0912X0.0912*%
%ADD43C,0.1694*%
%ADD44C,0.1340*%
%ADD45C,0.1655*%
%ADD46R,0.1375X0.3625*%
%ADD47R,0.0552X0.0789*%
%ADD48OC8,0.0907*%
%ADD49R,0.1580X0.1580*%
D10*
X097650Y039275D03*
X109025Y026025D03*
X122400Y039650D03*
X135025Y039275D03*
D11*
X125150Y032525D03*
X124150Y032525D03*
X123150Y032525D03*
X122150Y032525D03*
X121150Y032525D03*
X120025Y032525D03*
X120025Y027525D03*
X121150Y027525D03*
X122150Y027525D03*
X123150Y027525D03*
X124150Y027525D03*
X125150Y027525D03*
X123650Y026025D03*
X122650Y026025D03*
X121650Y026025D03*
X116025Y023400D03*
X116025Y019400D03*
X102025Y020400D03*
X102025Y022400D03*
X099338Y030025D03*
X099338Y032025D03*
X081713Y029088D03*
X080713Y029088D03*
X079713Y029088D03*
X079713Y026088D03*
X080713Y026088D03*
X081713Y026088D03*
X081713Y024088D03*
X080713Y024088D03*
X079713Y024088D03*
X069650Y016275D03*
X068900Y015775D03*
X069650Y015275D03*
X066400Y024775D03*
X066400Y025775D03*
X066400Y026775D03*
X066400Y028525D03*
X066400Y029525D03*
X066400Y030525D03*
X066400Y032275D03*
X066400Y033275D03*
X066400Y034275D03*
X057650Y033775D03*
X057650Y032775D03*
X057650Y031025D03*
X057650Y030025D03*
X057650Y029025D03*
X057650Y027275D03*
X057650Y026275D03*
X057650Y025275D03*
X053650Y024775D03*
X053650Y025775D03*
X053650Y026775D03*
X053650Y028525D03*
X053650Y029525D03*
X053650Y030525D03*
X053650Y032275D03*
X053650Y033275D03*
X053650Y034275D03*
X057650Y034775D03*
X034400Y044025D03*
X033400Y044025D03*
X033400Y045025D03*
X034400Y045025D03*
X034400Y046025D03*
X033400Y046025D03*
X033400Y047025D03*
X034400Y047025D03*
X034400Y048025D03*
X046856Y052525D03*
X037900Y062650D03*
X035900Y062650D03*
X038400Y076150D03*
X040400Y076150D03*
X070400Y059525D03*
X071150Y060025D03*
X071150Y059025D03*
X099650Y056650D03*
X099650Y054650D03*
X106650Y053525D03*
X106650Y052025D03*
X106650Y051025D03*
X106588Y049650D03*
X109588Y049650D03*
X109650Y051025D03*
X109650Y052025D03*
X109650Y053525D03*
X109650Y055775D03*
X106650Y055775D03*
X113838Y052025D03*
X114838Y052025D03*
X115838Y052025D03*
X116963Y052025D03*
X118150Y052025D03*
X119088Y052025D03*
X119025Y047025D03*
X118025Y047025D03*
X117025Y047025D03*
X116025Y047025D03*
X115025Y047025D03*
X113900Y047025D03*
X112650Y045775D03*
X115650Y045775D03*
X126150Y047025D03*
X127275Y047025D03*
X128275Y047025D03*
X129275Y047025D03*
X130275Y047025D03*
X131275Y047025D03*
X131338Y052025D03*
X130400Y052025D03*
X129400Y052025D03*
X128275Y052025D03*
X127150Y052025D03*
X126150Y052025D03*
D12*
X077275Y066025D03*
X047400Y064650D03*
D13*
X047400Y062650D03*
X077275Y069025D03*
X128400Y063775D03*
X132400Y063775D03*
X132400Y058775D03*
X128400Y058775D03*
D14*
X129609Y068400D02*
X130441Y068400D01*
X130441Y070400D02*
X129609Y070400D01*
X104566Y056275D02*
X103734Y056275D01*
X103734Y055275D02*
X104566Y055275D01*
X104566Y054275D02*
X103734Y054275D01*
X103734Y053275D02*
X104566Y053275D01*
X104566Y052275D02*
X103734Y052275D01*
X103734Y051275D02*
X104566Y051275D01*
X104566Y050275D02*
X103734Y050275D01*
X103734Y049275D02*
X104566Y049275D01*
X101566Y049275D02*
X100734Y049275D01*
X100734Y050275D02*
X101566Y050275D01*
X101566Y051275D02*
X100734Y051275D01*
X100734Y052275D02*
X101566Y052275D01*
X101566Y053275D02*
X100734Y053275D01*
X100734Y054275D02*
X101566Y054275D01*
X101566Y055275D02*
X100734Y055275D01*
X100734Y056275D02*
X101566Y056275D01*
X102484Y044025D02*
X103316Y044025D01*
X103316Y043025D02*
X102484Y043025D01*
X105484Y043025D02*
X106316Y043025D01*
X106316Y042025D02*
X105484Y042025D01*
X105484Y041025D02*
X106316Y041025D01*
X106316Y040025D02*
X105484Y040025D01*
X105484Y039025D02*
X106316Y039025D01*
X106316Y038025D02*
X105484Y038025D01*
X103316Y038025D02*
X102484Y038025D01*
X102484Y039025D02*
X103316Y039025D01*
X103316Y040025D02*
X102484Y040025D01*
X103359Y036025D02*
X104191Y036025D01*
X104609Y035150D02*
X105441Y035150D01*
X105441Y034150D02*
X104609Y034150D01*
X104191Y034025D02*
X103359Y034025D01*
X103359Y033025D02*
X104191Y033025D01*
X104609Y033150D02*
X105441Y033150D01*
X105441Y032150D02*
X104609Y032150D01*
X104191Y032025D02*
X103359Y032025D01*
X103359Y031025D02*
X104191Y031025D01*
X104609Y031150D02*
X105441Y031150D01*
X105441Y030150D02*
X104609Y030150D01*
X104191Y030025D02*
X103359Y030025D01*
X103359Y029025D02*
X104191Y029025D01*
X104609Y029150D02*
X105441Y029150D01*
X105441Y028150D02*
X104609Y028150D01*
X103941Y026400D02*
X103109Y026400D01*
X103109Y025400D02*
X103941Y025400D01*
X103941Y024400D02*
X103109Y024400D01*
X103109Y023400D02*
X103941Y023400D01*
X103941Y022400D02*
X103109Y022400D01*
X103109Y021400D02*
X103941Y021400D01*
X103941Y020400D02*
X103109Y020400D01*
X103109Y019400D02*
X103941Y019400D01*
X106109Y019400D02*
X106941Y019400D01*
X106941Y020400D02*
X106109Y020400D01*
X106109Y021400D02*
X106941Y021400D01*
X106941Y022400D02*
X106109Y022400D01*
X106109Y023400D02*
X106941Y023400D01*
X106941Y024400D02*
X106109Y024400D01*
X106109Y025400D02*
X106941Y025400D01*
X106941Y026400D02*
X106109Y026400D01*
X107609Y028150D02*
X108441Y028150D01*
X108441Y029150D02*
X107609Y029150D01*
X107609Y030150D02*
X108441Y030150D01*
X108441Y031150D02*
X107609Y031150D01*
X107609Y032150D02*
X108441Y032150D01*
X108441Y033150D02*
X107609Y033150D01*
X107609Y034150D02*
X108441Y034150D01*
X108441Y035150D02*
X107609Y035150D01*
X104191Y035025D02*
X103359Y035025D01*
X101191Y035025D02*
X100359Y035025D01*
X100359Y034025D02*
X101191Y034025D01*
X101191Y033025D02*
X100359Y033025D01*
X100359Y032025D02*
X101191Y032025D01*
X101191Y031025D02*
X100359Y031025D01*
X100359Y030025D02*
X101191Y030025D01*
X101191Y029025D02*
X100359Y029025D01*
X100359Y036025D02*
X101191Y036025D01*
X105484Y044025D02*
X106316Y044025D01*
X110984Y025025D02*
X111816Y025025D01*
X111816Y024025D02*
X110984Y024025D01*
X110984Y023025D02*
X111816Y023025D01*
X111816Y022025D02*
X110984Y022025D01*
X110984Y021025D02*
X111816Y021025D01*
X111816Y020025D02*
X110984Y020025D01*
X110984Y019025D02*
X111816Y019025D01*
X111816Y018025D02*
X110984Y018025D01*
X113984Y018025D02*
X114816Y018025D01*
X114816Y019025D02*
X113984Y019025D01*
X113984Y020025D02*
X114816Y020025D01*
X114816Y021025D02*
X113984Y021025D01*
X113984Y022025D02*
X114816Y022025D01*
X114816Y023025D02*
X113984Y023025D01*
X113984Y024025D02*
X114816Y024025D01*
X114816Y025025D02*
X113984Y025025D01*
X074941Y013775D02*
X074109Y013775D01*
X071941Y013775D02*
X071109Y013775D01*
X048025Y045734D02*
X048025Y046566D01*
X047025Y046566D02*
X047025Y045734D01*
X046025Y045734D02*
X046025Y046566D01*
X045025Y046566D02*
X045025Y045734D01*
X044025Y045734D02*
X044025Y046566D01*
X043025Y046566D02*
X043025Y045734D01*
X042025Y045734D02*
X042025Y046566D01*
X041025Y046566D02*
X041025Y045734D01*
X041025Y048734D02*
X041025Y049566D01*
X042025Y049566D02*
X042025Y048734D01*
X043025Y048734D02*
X043025Y049566D01*
X044025Y049566D02*
X044025Y048734D01*
X045025Y048734D02*
X045025Y049566D01*
X046025Y049566D02*
X046025Y048734D01*
X047025Y048734D02*
X047025Y049566D01*
X048025Y049566D02*
X048025Y048734D01*
X054109Y065900D02*
X054941Y065900D01*
X057109Y065900D02*
X057941Y065900D01*
X049253Y067463D02*
X048422Y067463D01*
X046253Y067463D02*
X045422Y067463D01*
D15*
X120050Y067025D02*
X120050Y068025D01*
X122050Y068025D02*
X122050Y067025D01*
X126250Y067025D02*
X126250Y068025D01*
X128250Y068025D02*
X128250Y067025D01*
X128250Y071025D02*
X128250Y072025D01*
X126250Y072025D02*
X126250Y071025D01*
X122050Y071025D02*
X122050Y072025D01*
X120050Y072025D02*
X120050Y071025D01*
D16*
X101824Y046650D03*
X022525Y071650D03*
X017775Y071650D03*
D17*
X018900Y066025D03*
X021650Y066025D03*
X026275Y063400D03*
X021650Y060025D03*
X018900Y060025D03*
X026275Y059400D03*
X030275Y047150D03*
X030275Y046150D03*
X030275Y045150D03*
X029275Y045150D03*
X029275Y046150D03*
X020775Y042150D03*
X022775Y039400D03*
X022775Y037275D03*
X020775Y036150D03*
X022775Y032150D03*
X022775Y030025D03*
X020900Y027025D03*
X023150Y024900D03*
X023150Y022650D03*
X020900Y021025D03*
X026995Y019900D03*
X028075Y019900D03*
X029155Y019900D03*
X030235Y019900D03*
X031315Y019900D03*
X032395Y019900D03*
X033475Y019900D03*
X034555Y019900D03*
X034015Y018900D03*
X032935Y018900D03*
X031855Y018900D03*
X030775Y018900D03*
X029695Y018900D03*
X028615Y018900D03*
X027535Y018900D03*
X029150Y022650D03*
X029150Y024900D03*
X028775Y030025D03*
X028775Y032150D03*
X028775Y037275D03*
X028775Y039400D03*
X028575Y078775D03*
X029655Y078775D03*
X030735Y078775D03*
X031815Y078775D03*
X032895Y078775D03*
X033975Y078775D03*
X035055Y078775D03*
X034515Y079775D03*
X033435Y079775D03*
X032355Y079775D03*
X031275Y079775D03*
X030195Y079775D03*
X029115Y079775D03*
X028035Y079775D03*
X027495Y078775D03*
X099525Y043900D03*
X099525Y042900D03*
X100525Y042900D03*
X100525Y041900D03*
X099525Y041900D03*
X125025Y057900D03*
X125025Y063900D03*
X137025Y063025D03*
X137025Y057025D03*
X129650Y040150D03*
X128650Y040150D03*
X128650Y039150D03*
D18*
X044228Y070400D02*
X043322Y070400D01*
X043322Y071400D02*
X044228Y071400D01*
X044228Y072400D02*
X043322Y072400D01*
X036275Y056978D02*
X036275Y056072D01*
X035275Y056072D02*
X035275Y056978D01*
X034275Y056978D02*
X034275Y056072D01*
X030400Y056322D02*
X030400Y057228D01*
X029400Y057228D02*
X029400Y056322D01*
X028400Y056322D02*
X028400Y057228D01*
X017728Y040400D02*
X016822Y040400D01*
X016822Y039400D02*
X017728Y039400D01*
X017728Y038400D02*
X016822Y038400D01*
X016822Y033150D02*
X017728Y033150D01*
X017728Y032150D02*
X016822Y032150D01*
X016822Y031150D02*
X017728Y031150D01*
X017728Y025900D02*
X016822Y025900D01*
X016822Y024900D02*
X017728Y024900D01*
X017728Y023900D02*
X016822Y023900D01*
D19*
X042975Y055275D03*
X051588Y064213D03*
X046525Y069900D03*
X046525Y071825D03*
X035400Y075650D03*
X026275Y072900D03*
X026275Y070900D03*
X105650Y055400D03*
X111525Y054525D03*
X111525Y053525D03*
X112775Y053525D03*
X112775Y054525D03*
X114025Y054525D03*
X114025Y053525D03*
X115275Y053525D03*
X115275Y054525D03*
X116525Y054588D03*
X116525Y053463D03*
X117775Y053463D03*
X117775Y054588D03*
X119025Y054588D03*
X119025Y053463D03*
X120275Y053525D03*
X120275Y054525D03*
X121525Y054525D03*
X121525Y053525D03*
X123775Y053525D03*
X123775Y054525D03*
X125025Y054525D03*
X125025Y053525D03*
X126275Y053525D03*
X126275Y054525D03*
X127525Y054525D03*
X127525Y053525D03*
X128775Y053463D03*
X128775Y054588D03*
X130025Y054588D03*
X130025Y053463D03*
X131275Y053463D03*
X131275Y054588D03*
X132525Y054525D03*
X132525Y053525D03*
X133775Y053463D03*
X133775Y054588D03*
X131838Y039900D03*
X130838Y039900D03*
X126275Y039900D03*
X125275Y039900D03*
X130150Y033150D03*
X131150Y033150D03*
X111525Y039525D03*
X109525Y039525D03*
X105650Y049400D03*
D20*
X057350Y075838D03*
X055450Y075838D03*
X046525Y073225D03*
X046525Y068900D03*
X051588Y066213D03*
X036400Y075650D03*
X041575Y055275D03*
D21*
X027400Y050525D03*
X025400Y050525D03*
X023775Y041525D03*
X027775Y041525D03*
X027775Y034275D03*
X023775Y034275D03*
X024150Y027025D03*
X028150Y027025D03*
X055463Y027713D03*
X055463Y029650D03*
X095891Y044525D03*
X099525Y039588D03*
X101025Y037150D03*
X098400Y034400D03*
X097650Y033025D03*
X098400Y031588D03*
X105650Y036400D03*
X108713Y037150D03*
X112900Y039650D03*
X116400Y039650D03*
X108025Y044338D03*
X107963Y045525D03*
X112025Y047400D03*
X112775Y048150D03*
X111775Y049275D03*
X112900Y049775D03*
X112650Y051525D03*
X112650Y052400D03*
X114400Y051025D03*
X115025Y049025D03*
X116650Y048025D03*
X117275Y049525D03*
X121525Y048775D03*
X122400Y047900D03*
X122400Y050213D03*
X121400Y050900D03*
X122025Y052400D03*
X124400Y052650D03*
X125650Y050900D03*
X127275Y049525D03*
X128275Y048775D03*
X129275Y047900D03*
X130775Y048025D03*
X129900Y049463D03*
X130275Y050525D03*
X129150Y050525D03*
X131025Y049650D03*
X133150Y049650D03*
X134275Y050525D03*
X128150Y055525D03*
X125400Y045775D03*
X126838Y045650D03*
X119900Y045775D03*
X110525Y054150D03*
X108650Y054650D03*
X099838Y050275D03*
X097400Y050275D03*
X109900Y033400D03*
X118150Y031150D03*
X118150Y029275D03*
X119400Y028775D03*
X118900Y026400D03*
X125650Y028775D03*
X121400Y031150D03*
X128963Y032275D03*
X132025Y026525D03*
X136400Y026525D03*
X052142Y079358D03*
X052142Y080396D03*
X051095Y080396D03*
X051095Y079358D03*
X026150Y068025D03*
X026150Y066025D03*
D22*
X021861Y034002D02*
X021762Y033903D01*
X021622Y034201D01*
X021735Y034508D01*
X022033Y034648D01*
X022340Y034535D01*
X022480Y034237D01*
X022367Y033930D01*
X022069Y033790D01*
X021762Y033903D01*
X021871Y034021D01*
X021784Y034208D01*
X021853Y034399D01*
X022040Y034486D01*
X022231Y034417D01*
X022318Y034230D01*
X022249Y034039D01*
X022062Y033952D01*
X021871Y034021D01*
X021979Y034140D01*
X021944Y034215D01*
X021972Y034291D01*
X022047Y034326D01*
X022123Y034298D01*
X022158Y034223D01*
X022130Y034147D01*
X022055Y034112D01*
X021979Y034140D01*
X019809Y028364D02*
X019710Y028265D01*
X019570Y028563D01*
X019683Y028870D01*
X019981Y029010D01*
X020288Y028897D01*
X020428Y028599D01*
X020315Y028292D01*
X020017Y028152D01*
X019710Y028265D01*
X019819Y028383D01*
X019732Y028570D01*
X019801Y028761D01*
X019988Y028848D01*
X020179Y028779D01*
X020266Y028592D01*
X020197Y028401D01*
X020010Y028314D01*
X019819Y028383D01*
X019927Y028502D01*
X019892Y028577D01*
X019920Y028653D01*
X019995Y028688D01*
X020071Y028660D01*
X020106Y028585D01*
X020078Y028509D01*
X020003Y028474D01*
X019927Y028502D01*
D23*
X020909Y043900D02*
X021891Y043900D01*
X021891Y045900D02*
X020909Y045900D01*
X017516Y045900D02*
X016534Y045900D01*
X016534Y043900D02*
X017516Y043900D01*
X017659Y052275D02*
X018641Y052275D01*
X018641Y054275D02*
X017659Y054275D01*
X120784Y058775D02*
X121766Y058775D01*
X121766Y060775D02*
X120784Y060775D01*
X120784Y062775D02*
X121766Y062775D01*
X121766Y064775D02*
X120784Y064775D01*
D24*
X134533Y064525D02*
X135517Y064525D01*
X137533Y064525D02*
X138517Y064525D01*
X138517Y066525D02*
X137533Y066525D01*
X135517Y066525D02*
X134533Y066525D01*
X134533Y068525D02*
X135517Y068525D01*
X137533Y068525D02*
X138517Y068525D01*
X138517Y074525D02*
X137533Y074525D01*
X135517Y074525D02*
X134533Y074525D01*
D25*
X133333Y074525D02*
X132467Y074525D01*
X132467Y075525D02*
X133333Y075525D01*
X133150Y067958D02*
X133150Y067092D01*
X132150Y067092D02*
X132150Y067958D01*
X049275Y058083D02*
X049275Y057217D01*
X048275Y057217D02*
X048275Y058083D01*
X046025Y057958D02*
X046025Y057092D01*
X045025Y057092D02*
X045025Y057958D01*
D26*
X136106Y073525D03*
X137444Y073525D03*
D27*
X134860Y043880D03*
X134860Y041920D03*
X129940Y041920D03*
X128360Y041920D03*
X128360Y043880D03*
X129940Y043880D03*
X123440Y043880D03*
X121860Y043880D03*
X121860Y041920D03*
X123440Y041920D03*
X116940Y041920D03*
X115360Y041920D03*
X115360Y043880D03*
X116940Y043880D03*
X110440Y043880D03*
X110440Y041920D03*
X110440Y037380D03*
X110440Y035420D03*
X115360Y035420D03*
X116940Y035420D03*
X116940Y037380D03*
X115360Y037380D03*
X121860Y037380D03*
X121860Y035420D03*
X121860Y024380D03*
X123440Y024380D03*
X123440Y022420D03*
X121860Y022420D03*
X116940Y022420D03*
X116940Y024380D03*
X128360Y024380D03*
X129940Y024380D03*
X129940Y022420D03*
X128360Y022420D03*
X134860Y022420D03*
X134860Y024380D03*
D28*
X132400Y025170D03*
X133652Y028648D03*
X131148Y031152D03*
X131148Y035148D03*
X133652Y037652D03*
X132400Y041130D03*
X132400Y044670D03*
X125900Y044670D03*
X125900Y041130D03*
X124648Y037652D03*
X127152Y035148D03*
X119400Y034630D03*
X119400Y038170D03*
X119400Y041130D03*
X119400Y044670D03*
X112900Y044670D03*
X112900Y041130D03*
X112900Y038170D03*
X112900Y034630D03*
X119400Y025170D03*
X119400Y021630D03*
X125900Y021630D03*
X125900Y025170D03*
X132400Y021630D03*
D29*
G36*
X130603Y027468D02*
X131353Y028218D01*
X132103Y027468D01*
X131353Y026718D01*
X130603Y027468D01*
G37*
G36*
X129218Y028853D02*
X129968Y029603D01*
X130718Y028853D01*
X129968Y028103D01*
X129218Y028853D01*
G37*
G36*
X132697Y032332D02*
X133447Y033082D01*
X134197Y032332D01*
X133447Y031582D01*
X132697Y032332D01*
G37*
G36*
X134082Y030947D02*
X134832Y031697D01*
X135582Y030947D01*
X134832Y030197D01*
X134082Y030947D01*
G37*
G36*
X133447Y033218D02*
X132697Y033968D01*
X133447Y034718D01*
X134197Y033968D01*
X133447Y033218D01*
G37*
G36*
X134832Y034603D02*
X134082Y035353D01*
X134832Y036103D01*
X135582Y035353D01*
X134832Y034603D01*
G37*
G36*
X129968Y036697D02*
X129218Y037447D01*
X129968Y038197D01*
X130718Y037447D01*
X129968Y036697D01*
G37*
G36*
X129082Y037447D02*
X128332Y036697D01*
X127582Y037447D01*
X128332Y038197D01*
X129082Y037447D01*
G37*
G36*
X127697Y038832D02*
X126947Y038082D01*
X126197Y038832D01*
X126947Y039582D01*
X127697Y038832D01*
G37*
G36*
X131353Y038082D02*
X130603Y038832D01*
X131353Y039582D01*
X132103Y038832D01*
X131353Y038082D01*
G37*
G36*
X125603Y033968D02*
X124853Y033218D01*
X124103Y033968D01*
X124853Y034718D01*
X125603Y033968D01*
G37*
G36*
X124218Y035353D02*
X123468Y034603D01*
X122718Y035353D01*
X123468Y036103D01*
X124218Y035353D01*
G37*
D30*
X024215Y019400D03*
X037335Y019400D03*
X037835Y079275D03*
X024715Y079275D03*
D31*
X038275Y070525D03*
X038275Y066525D03*
X024150Y054525D03*
X024150Y050525D03*
X020400Y050525D03*
X016400Y050525D03*
X119276Y050254D03*
X120774Y046546D03*
D32*
X039275Y059275D03*
X039275Y061275D03*
X039275Y063275D03*
X039275Y065275D03*
X039275Y067275D03*
X039275Y069275D03*
X039275Y071275D03*
X039275Y073275D03*
X029275Y073275D03*
X029275Y065275D03*
X029275Y063275D03*
X029275Y061275D03*
X029275Y059275D03*
D33*
X042694Y059400D02*
X043606Y059400D01*
X043606Y060400D02*
X042694Y060400D01*
X042694Y061400D02*
X043606Y061400D01*
X043606Y065275D02*
X042694Y065275D01*
X042694Y066275D02*
X043606Y066275D01*
X043606Y067275D02*
X042694Y067275D01*
D34*
X024775Y057366D02*
X024775Y056184D01*
X021835Y056184D02*
X021835Y057366D01*
X018885Y057366D02*
X018885Y056184D01*
X015935Y056184D02*
X015935Y057366D01*
D35*
X028775Y052625D03*
X034275Y052625D03*
X018925Y039400D03*
X018925Y032150D03*
X018925Y024900D03*
D36*
X022025Y023775D03*
X025650Y021150D03*
X030275Y023775D03*
X020025Y034400D03*
X023775Y045900D03*
X025400Y045900D03*
X023275Y059775D03*
X017025Y059775D03*
X017025Y066025D03*
X023275Y066025D03*
X033900Y077650D03*
X036025Y077650D03*
X049280Y081400D03*
X054020Y081400D03*
D37*
X038838Y052525D03*
D38*
X040477Y019324D02*
X041256Y018545D01*
X040256Y017553D02*
X039477Y018332D01*
X042831Y018497D02*
X042831Y017395D01*
X044414Y018549D02*
X045193Y019328D01*
X046166Y018332D02*
X045386Y017553D01*
X047852Y018332D02*
X048631Y017553D01*
X049631Y018545D02*
X048852Y019324D01*
X051206Y018497D02*
X051206Y017395D01*
X052789Y018549D02*
X053568Y019328D01*
X054541Y018332D02*
X053761Y017553D01*
D39*
X053182Y014012D03*
X052197Y014012D03*
X050226Y014012D03*
X049242Y014012D03*
X044807Y014012D03*
X043822Y014012D03*
X041851Y014012D03*
X040867Y014012D03*
D40*
X029275Y047150D03*
X100525Y043900D03*
X129650Y039150D03*
D41*
X112900Y029900D03*
D42*
X102900Y041025D03*
X102900Y042025D03*
D43*
X105564Y046650D03*
X098084Y046650D03*
D44*
X098213Y017376D03*
X133252Y017376D03*
X133252Y078400D03*
D45*
X131900Y071838D03*
X121088Y074150D03*
D46*
X123650Y076463D03*
X129400Y076463D03*
D47*
X099650Y038865D03*
X099650Y037685D03*
D48*
X120775Y049525D03*
D49*
X096025Y057275D03*
X120025Y077525D03*
X134525Y079775D03*
X138525Y075775D03*
X138525Y020025D03*
X134525Y016025D03*
X097025Y016025D03*
X096025Y020025D03*
M02*
